<?xml version="1.0" standalone="no"?>
<!DOCTYPE svg PUBLIC "-//W3C//DTD SVG 20010904//EN"
 "http://www.w3.org/TR/2001/REC-SVG-20010904/DTD/svg10.dtd">
<svg version="1.0" xmlns="http://www.w3.org/2000/svg"
 width="700.000000pt" height="700.000000pt" viewBox="0 0 700.000000 700.000000"
 preserveAspectRatio="xMidYMid meet">
<metadata>
Created by potrace 1.11, written by Peter Selinger 2001-2013
</metadata>
<g transform="translate(0.000000,700.000000) scale(0.100000,-0.100000)"
fill="#000000" stroke="none">
<path d="M395 6988 c-60 -36 -91 -103 -139 -295 -9 -34 -18 -75 -20 -90 -3
-15 -12 -68 -21 -118 -9 -49 -18 -108 -21 -130 -2 -22 -7 -47 -9 -55 -2 -8 -7
-40 -10 -70 -3 -30 -7 -68 -9 -85 -3 -16 -7 -59 -11 -95 -3 -36 -8 -76 -10
-90 -3 -14 -7 -52 -10 -85 -3 -33 -8 -76 -10 -95 -2 -19 -7 -64 -10 -100 -3
-36 -8 -81 -10 -100 -2 -19 -7 -73 -10 -120 -4 -47 -9 -103 -11 -125 -5 -53
-13 -151 -19 -247 -3 -42 -7 -101 -9 -130 -9 -100 -28 -381 -41 -593 -16 -273
-24 -241 63 -248 l52 -4 1 36 c1 20 3 47 4 61 1 14 5 84 9 155 4 72 9 146 11
165 2 19 6 82 10 140 3 58 8 130 10 160 2 30 7 93 10 140 3 47 8 105 10 130 2
25 7 83 10 130 3 47 8 103 10 125 2 22 7 72 10 110 3 39 8 88 10 110 2 22 7
69 10 105 6 75 15 154 20 190 2 14 6 57 10 95 4 39 8 81 10 95 2 14 6 50 10
80 7 61 13 103 20 140 2 14 7 48 11 75 3 28 8 59 10 70 2 11 6 37 9 59 16 113
79 351 95 361 8 5 46 -106 56 -159 3 -16 7 -33 9 -36 2 -4 7 -22 10 -41 3 -19
12 -68 20 -109 7 -41 17 -97 20 -123 4 -27 8 -56 10 -65 1 -10 6 -42 9 -72 4
-30 8 -66 10 -80 3 -14 7 -50 11 -81 3 -31 7 -65 9 -75 2 -11 7 -55 10 -99 4
-44 9 -91 11 -105 7 -48 21 -202 30 -325 3 -44 8 -96 10 -115 2 -19 7 -75 10
-124 4 -49 8 -106 10 -125 2 -20 6 -85 10 -146 3 -60 8 -132 10 -160 2 -27 7
-95 10 -150 3 -55 8 -131 10 -170 3 -38 7 -119 10 -180 3 -60 7 -141 10 -180
2 -38 7 -110 10 -160 3 -49 8 -108 10 -130 3 -22 7 -71 10 -110 5 -60 27 -226
39 -290 10 -57 16 -94 21 -130 4 -22 8 -48 11 -57 3 -10 7 -30 10 -45 8 -43
144 -652 159 -713 7 -30 16 -68 18 -85 4 -26 30 -147 42 -195 2 -8 11 -49 20
-90 28 -123 111 -425 159 -577 39 -121 215 -576 512 -1320 l69 -172 68 0 c37
0 67 3 67 6 0 4 -27 103 -59 222 -68 244 -87 321 -96 370 -3 19 -7 37 -9 40
-2 3 -7 29 -10 56 -4 28 -11 73 -16 100 -10 53 -15 88 -25 170 -4 28 -8 61
-11 75 -6 37 -18 143 -29 255 -4 33 -8 74 -10 90 -2 17 -7 71 -10 120 -4 50
-9 106 -10 125 -16 176 -20 488 -20 1425 0 953 3 1172 20 1385 2 25 6 95 10
155 3 61 8 133 10 160 2 28 7 86 10 130 13 186 15 212 20 260 2 28 7 86 11
130 3 44 8 98 10 120 2 22 6 72 9 110 3 39 7 86 10 105 3 32 10 97 20 205 4
38 11 96 21 175 2 19 6 52 9 74 6 50 14 112 20 156 3 19 8 52 10 72 5 41 28
174 44 253 18 88 50 204 64 231 l14 27 21 -64 c38 -115 90 -374 107 -525 2
-21 6 -57 9 -79 3 -22 8 -64 12 -93 3 -29 7 -62 9 -72 2 -10 6 -50 10 -87 3
-37 8 -82 10 -98 2 -17 9 -82 15 -145 6 -63 12 -131 15 -150 2 -19 7 -73 10
-120 3 -47 8 -101 10 -120 2 -19 7 -75 10 -125 4 -49 8 -106 10 -125 2 -19 6
-84 10 -145 4 -60 8 -126 10 -145 2 -19 6 -80 10 -135 3 -55 8 -125 10 -155 2
-30 7 -102 10 -160 3 -58 8 -130 10 -160 2 -30 7 -102 10 -160 3 -58 8 -134
10 -170 2 -36 7 -112 10 -170 10 -171 14 -231 20 -300 3 -36 7 -99 10 -140 11
-158 15 -217 20 -270 3 -30 7 -84 10 -120 3 -36 8 -90 10 -120 3 -30 7 -82 10
-115 3 -33 7 -80 9 -105 3 -25 8 -76 11 -115 3 -38 10 -106 15 -150 5 -44 12
-102 15 -130 3 -27 7 -66 10 -85 2 -19 7 -60 10 -90 3 -30 8 -64 10 -75 2 -11
7 -42 10 -70 27 -217 89 -502 131 -595 65 -144 171 -148 237 -7 22 46 76 245
91 337 3 19 8 51 11 70 3 19 10 60 15 90 5 30 12 73 15 95 2 21 9 75 15 120
27 202 34 269 55 488 3 28 7 72 10 97 11 101 15 149 20 225 4 44 8 96 10 115
2 19 6 71 10 115 3 44 8 103 10 130 3 28 8 88 10 135 3 47 7 108 10 135 2 28
7 88 10 135 3 47 8 114 10 150 6 87 18 277 30 480 3 52 8 124 10 160 5 72 12
176 20 320 3 52 8 120 10 150 2 30 7 93 10 140 3 47 7 105 10 130 2 25 7 86
10 135 3 50 8 108 10 130 2 22 7 76 11 120 15 186 24 289 29 335 2 19 7 64 10
100 3 36 7 76 10 90 2 14 7 54 10 90 4 36 8 72 10 80 2 8 7 44 10 80 3 36 10
90 15 120 5 30 11 73 14 95 26 196 103 514 120 494 33 -38 114 -444 141 -699
3 -30 10 -86 15 -125 5 -38 12 -95 15 -125 3 -30 8 -71 10 -90 2 -19 7 -66 10
-105 3 -38 8 -88 10 -110 3 -22 7 -71 10 -110 3 -38 7 -92 10 -120 7 -75 15
-172 20 -245 2 -36 7 -101 10 -145 3 -44 8 -109 10 -145 2 -36 6 -94 9 -130 7
-92 15 -220 21 -325 3 -49 7 -126 10 -170 3 -44 7 -118 10 -165 3 -47 8 -123
10 -170 6 -100 14 -229 20 -320 8 -118 15 -234 20 -315 3 -44 7 -102 9 -130 3
-27 8 -93 12 -145 3 -52 7 -111 9 -130 2 -19 6 -73 10 -120 4 -47 8 -98 10
-115 1 -16 5 -64 9 -105 15 -164 34 -352 41 -400 2 -14 6 -52 10 -85 3 -33 10
-96 16 -140 6 -44 12 -89 14 -100 11 -87 19 -143 30 -195 2 -14 7 -41 10 -60
34 -217 96 -392 152 -434 36 -27 94 -24 131 5 17 13 42 50 57 82 25 55 76 237
89 320 13 80 18 110 21 126 5 31 16 96 19 126 29 223 36 278 41 325 3 30 8 71
10 90 3 19 7 62 10 95 3 33 8 76 10 95 4 34 8 77 20 225 3 39 8 90 10 115 3
25 7 74 10 110 4 64 12 166 20 265 2 28 6 88 10 135 3 47 8 114 10 150 3 36 7
99 10 140 9 149 16 256 20 330 2 41 7 104 9 140 3 36 8 108 11 160 10 166 15
253 20 320 3 36 7 103 10 150 3 47 7 114 10 150 2 36 7 99 10 140 3 41 8 100
10 130 8 93 14 172 20 245 3 39 7 88 9 110 2 22 7 76 11 120 4 44 8 91 10 105
1 14 6 59 9 100 4 41 9 86 11 100 2 14 7 58 10 98 4 41 8 81 10 90 1 9 6 44 9
77 4 33 9 71 11 85 5 29 13 85 20 150 8 72 44 277 66 375 28 128 49 189 61
177 19 -19 80 -265 93 -374 3 -23 10 -68 15 -98 5 -30 12 -73 15 -95 2 -22 7
-56 9 -75 5 -36 11 -85 21 -175 3 -27 7 -66 10 -85 8 -69 22 -200 30 -295 3
-38 8 -90 10 -115 2 -25 7 -81 10 -125 4 -44 8 -96 10 -115 2 -19 7 -80 10
-135 4 -55 8 -117 10 -137 2 -21 7 -86 10 -145 4 -59 8 -130 10 -158 2 -27 7
-95 10 -150 3 -55 8 -125 10 -155 16 -228 19 -431 19 -1310 0 -872 -5 -1212
-19 -1380 -2 -25 -6 -81 -9 -125 -7 -96 -15 -185 -21 -240 -3 -22 -7 -65 -11
-95 -5 -49 -25 -207 -38 -300 -14 -98 -17 -115 -21 -134 -2 -12 -7 -38 -10
-58 -14 -102 -134 -566 -170 -661 -18 -46 -13 -49 71 -45 l58 3 136 340 c330
829 406 1032 486 1305 63 218 153 580 179 718 6 34 7 38 45 207 17 77 33 151
36 165 3 14 25 115 50 225 54 238 80 376 99 515 3 25 8 56 10 70 4 26 12 93
20 170 2 25 7 79 10 120 3 41 7 100 10 130 2 30 7 109 10 175 4 66 8 140 10
165 2 25 6 95 10 155 4 61 8 130 10 155 2 25 6 92 10 150 4 58 9 122 11 143 2
20 6 77 9 125 4 48 8 103 10 122 1 19 6 78 9 130 4 52 9 106 11 120 2 14 6 59
10 100 9 120 23 254 30 310 3 19 7 64 10 100 3 36 7 76 10 90 2 14 7 45 9 70
5 40 9 75 31 225 3 22 8 54 10 71 22 156 86 414 104 414 11 0 58 -165 76 -270
3 -19 8 -42 10 -50 2 -8 7 -35 10 -60 3 -25 8 -52 10 -60 2 -8 6 -33 9 -55 3
-22 10 -72 16 -111 5 -40 12 -96 15 -125 3 -30 10 -85 15 -124 5 -38 12 -99
15 -135 4 -36 8 -76 10 -90 2 -14 7 -65 10 -114 4 -49 8 -96 10 -105 1 -9 6
-56 10 -106 4 -49 9 -106 10 -125 2 -19 6 -75 9 -125 4 -49 9 -110 11 -135 2
-25 7 -85 10 -135 3 -49 7 -117 10 -150 3 -33 7 -98 10 -145 3 -47 7 -114 10
-150 3 -36 7 -110 11 -165 3 -55 7 -122 9 -150 1 -27 3 -69 4 -93 l1 -43 65 2
65 2 -5 101 c-3 56 -8 135 -10 176 -3 41 -7 120 -10 175 -3 55 -8 125 -10 155
-3 30 -8 93 -10 140 -3 47 -7 108 -10 135 -2 28 -6 88 -10 135 -3 47 -8 110
-10 140 -5 62 -13 150 -20 242 -8 94 -15 173 -30 331 -5 50 -12 114 -20 187
-3 19 -11 98 -20 175 -9 77 -18 147 -20 155 -2 8 -7 38 -10 65 -20 190 -88
481 -131 566 -63 126 -167 131 -229 10 -43 -85 -107 -354 -129 -543 -3 -26
-10 -78 -16 -115 -5 -38 -12 -90 -15 -118 -3 -27 -10 -84 -15 -125 -5 -41 -12
-100 -15 -130 -3 -30 -7 -75 -10 -100 -3 -25 -7 -74 -10 -110 -6 -73 -11 -128
-20 -215 -9 -105 -14 -158 -20 -245 -3 -47 -8 -105 -10 -130 -2 -25 -7 -79
-10 -120 -2 -41 -7 -109 -10 -150 -3 -41 -7 -106 -10 -145 -21 -330 -31 -488
-40 -635 -8 -123 -15 -220 -20 -260 -2 -19 -7 -60 -10 -90 -3 -30 -7 -66 -10
-80 -2 -14 -7 -45 -10 -70 -11 -80 -55 -313 -76 -400 -26 -110 -28 -116 -39
-170 -5 -25 -36 -171 -70 -325 -34 -154 -64 -291 -66 -305 -28 -150 -140 -565
-213 -785 -53 -164 -225 -621 -238 -635 -2 -2 -2 9 1 25 4 27 8 59 22 163 2
17 6 47 8 65 9 63 32 297 42 416 9 124 12 170 20 351 10 211 10 2160 1 2280
-4 47 -9 132 -12 190 -4 58 -8 125 -10 150 -2 25 -6 95 -10 155 -6 106 -9 153
-19 295 -3 36 -8 103 -11 150 -3 47 -8 105 -10 130 -2 25 -7 81 -10 125 -3 44
-7 98 -10 120 -2 22 -7 72 -10 110 -3 39 -8 86 -10 105 -2 19 -7 64 -10 100
-3 36 -8 76 -10 90 -2 14 -7 54 -10 90 -4 36 -8 76 -10 90 -2 14 -6 50 -10 80
-7 59 -9 70 -24 170 -6 36 -13 83 -16 105 -7 42 -11 69 -20 120 -17 92 -67
270 -89 312 -66 130 -163 137 -228 16 -39 -71 -98 -310 -123 -493 -3 -25 -8
-56 -10 -70 -10 -61 -51 -383 -60 -480 -4 -36 -8 -76 -10 -90 -2 -14 -7 -59
-11 -100 -3 -41 -8 -86 -9 -100 -1 -14 -6 -61 -10 -105 -3 -44 -8 -96 -10
-115 -2 -19 -6 -71 -10 -115 -3 -44 -8 -102 -10 -130 -3 -27 -7 -79 -9 -115
-3 -36 -8 -103 -11 -150 -8 -100 -11 -140 -20 -275 -3 -55 -8 -120 -10 -145
-2 -25 -7 -99 -10 -165 -4 -66 -8 -136 -10 -155 -2 -19 -6 -87 -10 -150 -4
-63 -9 -133 -10 -155 -2 -22 -7 -94 -10 -160 -3 -66 -8 -145 -10 -175 -2 -30
-7 -95 -10 -145 -3 -49 -7 -112 -10 -140 -2 -27 -7 -90 -11 -140 -3 -49 -7
-106 -9 -125 -2 -19 -6 -78 -10 -130 -4 -52 -8 -111 -10 -130 -2 -19 -6 -71
-10 -115 -3 -44 -8 -91 -10 -105 -2 -14 -6 -59 -10 -100 -3 -41 -8 -91 -10
-110 -2 -19 -7 -60 -10 -90 -20 -188 -54 -437 -80 -581 -15 -88 -16 -93 -34
-174 -17 -72 -51 -175 -60 -175 -12 0 -60 157 -76 250 -33 188 -53 314 -70
455 -3 28 -8 64 -10 80 -2 17 -7 57 -10 90 -3 33 -8 76 -10 95 -4 32 -7 63
-19 185 -3 22 -7 74 -11 115 -4 41 -8 91 -10 110 -7 74 -16 178 -20 240 -3 36
-7 92 -10 125 -3 33 -7 98 -10 145 -3 47 -7 105 -10 130 -2 25 -7 95 -11 155
-3 61 -8 135 -10 165 -4 68 -12 194 -19 320 -3 52 -7 127 -10 165 -6 96 -14
222 -30 500 -3 50 -7 117 -10 150 -2 33 -7 98 -10 145 -3 47 -7 112 -10 145
-2 33 -7 94 -10 135 -7 92 -13 172 -20 248 -5 56 -9 96 -20 237 -3 39 -7 86
-10 105 -2 19 -7 64 -10 100 -7 77 -11 108 -24 220 -6 47 -13 108 -16 135 -5
53 -23 184 -31 225 -2 14 -7 41 -10 60 -49 314 -109 499 -176 540 -104 63
-190 -40 -244 -295 -4 -18 -17 -78 -28 -130 -2 -11 -7 -40 -11 -65 -4 -25 -9
-54 -11 -65 -2 -11 -7 -40 -10 -65 -3 -25 -7 -56 -9 -70 -2 -14 -7 -47 -10
-75 -11 -83 -13 -98 -19 -140 -6 -47 -13 -109 -21 -185 -3 -30 -10 -98 -15
-150 -16 -144 -19 -179 -25 -260 -3 -41 -7 -95 -10 -120 -2 -25 -7 -79 -10
-120 -3 -41 -8 -100 -10 -130 -2 -30 -7 -93 -10 -140 -3 -47 -8 -105 -10 -130
-5 -43 -7 -85 -20 -290 -3 -52 -8 -120 -10 -150 -2 -30 -7 -107 -10 -170 -4
-63 -8 -135 -10 -160 -2 -25 -6 -97 -10 -160 -4 -63 -8 -140 -10 -170 -2 -30
-6 -98 -9 -150 -4 -52 -8 -120 -11 -150 -3 -30 -7 -86 -10 -125 -9 -139 -15
-221 -20 -275 -4 -53 -7 -85 -20 -250 -4 -41 -8 -91 -10 -110 -2 -19 -6 -71
-10 -115 -3 -44 -8 -91 -10 -105 -2 -14 -6 -56 -9 -95 -4 -38 -8 -86 -11 -105
-2 -19 -7 -62 -11 -95 -13 -132 -39 -335 -49 -395 -3 -14 -7 -47 -11 -75 -3
-27 -15 -97 -26 -155 -11 -58 -22 -116 -24 -130 -9 -48 -46 -175 -54 -183 -22
-24 -109 369 -135 608 -1 17 -5 48 -9 70 -3 22 -8 63 -11 90 -3 28 -8 66 -10
85 -2 19 -7 62 -10 95 -4 33 -8 71 -10 85 -2 14 -7 59 -10 100 -3 41 -8 86
-10 100 -2 14 -6 63 -10 110 -3 47 -8 101 -10 120 -3 39 -14 164 -21 250 -2
30 -6 82 -9 115 -2 33 -7 101 -10 150 -3 50 -8 117 -10 150 -3 33 -7 94 -10
135 -2 41 -7 109 -10 150 -5 78 -12 190 -20 325 -4 78 -11 189 -20 330 -2 39
-7 115 -10 170 -7 107 -11 176 -20 295 -3 41 -8 111 -10 155 -3 44 -8 103 -10
130 -3 28 -7 82 -10 120 -7 89 -14 186 -20 251 -3 27 -7 79 -10 115 -3 35 -7
84 -10 109 -3 25 -7 70 -10 100 -7 85 -17 173 -20 190 -2 9 -6 47 -10 85 -3
39 -8 81 -10 95 -2 14 -6 48 -10 75 -3 28 -8 61 -10 75 -2 14 -9 61 -15 105
-7 44 -14 87 -15 96 -2 9 -6 34 -10 55 -12 78 -17 101 -40 194 -35 144 -63
210 -107 254 -35 35 -42 38 -79 33 -95 -13 -147 -119 -204 -417 -4 -22 -10
-52 -21 -115 -7 -36 -35 -229 -39 -265 -2 -19 -7 -54 -10 -77 -6 -48 -12 -105
-20 -178 -3 -27 -8 -66 -10 -85 -3 -19 -7 -66 -11 -105 -3 -38 -8 -83 -10
-100 -1 -16 -6 -66 -9 -110 -3 -44 -8 -91 -10 -105 -3 -22 -10 -110 -20 -250
-2 -25 -6 -79 -9 -120 -3 -41 -8 -109 -11 -150 -4 -41 -8 -97 -10 -125 -2 -27
-7 -99 -10 -160 -4 -60 -9 -128 -10 -150 -17 -199 -20 -442 -20 -1375 0 -925
6 -1312 20 -1433 2 -15 6 -67 9 -116 4 -48 8 -103 11 -122 2 -19 6 -63 10 -99
4 -36 8 -78 10 -95 2 -16 7 -57 10 -90 4 -33 8 -67 10 -75 1 -8 6 -40 9 -70 4
-30 9 -68 12 -85 6 -40 -185 434 -236 584 -71 211 -172 592 -225 846 -15 72
-36 168 -47 215 -11 47 -22 96 -24 110 -3 14 -10 45 -15 70 -6 25 -12 52 -14
60 -2 8 -24 109 -50 225 -26 115 -49 221 -51 235 -3 14 -7 36 -9 50 -11 52
-28 159 -39 240 -14 101 -16 115 -31 260 -6 57 -21 293 -30 475 -3 66 -8 152
-10 190 -2 39 -7 111 -10 160 -3 50 -7 119 -10 155 -2 36 -7 108 -10 160 -3
52 -8 115 -10 140 -3 25 -7 81 -10 125 -3 44 -7 103 -10 130 -2 28 -7 82 -10
120 -7 82 -14 162 -20 225 -3 25 -7 72 -10 105 -3 33 -8 74 -10 90 -2 17 -6
62 -10 100 -4 39 -9 79 -11 90 -2 11 -7 45 -10 75 -3 30 -7 66 -9 80 -1 14 -5
45 -9 70 -8 48 -11 69 -21 140 -36 256 -107 477 -168 529 -23 18 -88 24 -112
9z"/>
</g>
</svg>
