<?xml version="1.0" encoding="UTF-8"?><svg id="Layer_2" xmlns="http://www.w3.org/2000/svg" viewBox="0 0 217.52 348.66"><defs><style>.cls-1{stroke:#000;stroke-miterlimit:10;}.cls-2{fill:#fff;}.cls-3{fill:#828282;}</style></defs><g id="Layer_1-2"><g><path d="M179.43,144.55c11.54,12.36,18.54,27.01,22.62,43.37,2.69,10.79,6.56,21.29,9.78,31.95,1.92,6.36,4.16,12.7,5.26,19.21,1.72,10.26-1.72,18.89-10.8,24.47-5.37,3.3-6.73,7.14-5.14,13.3,3.83,14.75,3.1,29.78,.83,44.68-2.01,13.16-11.02,21.96-24.98,24.32-11.78,1.99-60.79,3.12-64.28,2.73-17.37-1.99-31.19-11-31.19-11-3.21-2.72-14.34-12.83-17.91-27.97-2.06-8.74-5.34-17.15-7.71-25.82-1.01-3.7-2.71-5.46-6.74-5.98-6.24-.8-12.48-2.1-18.53-3.86-14.91-4.34-24.57-14.43-27.68-29.43-4.35-20.99-4-41.02,1.59-59.87,4.93-16.6,13.16-29.66,20.96-39.43m17.86,126.85c-.05-.73,.04-1.14-.12-1.35-9.3-11.84-11.77-25.44-10.4-40.06,.1-1.06-.09-2.54-.76-3.21-7.68-7.71-7.45-17.5-6.63-27.1,.3-3.47,2.69-7.13,5.03-9.96,2.81-3.4,5.56-2.61,6.89,1.59,.95,2.99,1.78,6.17,1.8,9.26,.07,12.14,.05,24.3-.39,36.43-.85,23.1,17.15,43.78,38.71,38.26,6.03-1.54,7.51,.52,8.58,6.71,1.03,5.9,1.94,11.83,3.2,17.69,.35,1.6,1.78,2.97,2.72,4.45,1.35-1.08,3.02-1.93,4.01-3.28,7.5-10.16,11.22-9.88,17.02,1.43,2.4,4.68,3.82,4.77,6.8,.45,4.71-6.83,10.5-6.71,14.9,.3,.62,.99,1.12,2.06,1.81,2.99,2.46,3.33,4.65,3.32,7.02-.05,.76-1.09,1.36-2.29,2.03-3.44,3.67-6.24,9.85-7,14.86-1.75,1.49,1.56,2.65,3.45,4.17,4.97,2.57,2.57,5,2.38,6.88-.89,.58-1.01,.93-2.14,1.48-3.16,4.05-7.58,10.23-8.04,15.7-1.4,.99,1.21,3.19,2.6,4.31,2.24,1.57-.49,3.44-2.38,3.76-3.96,.62-3.04,.53-6.31,.23-9.43-.57-5.96-1.5-11.89-2.28-17.83-.48-3.66,.86-6.16,3.96-8.41,13.3-9.66,15.75-17.39,10.98-33.27-.77-2.55-1.76-5.03-2.55-7.58-3.43-11.12-7.25-22.13-10.11-33.4-4.03-15.91-11.25-29.89-22.94-41.41-1.41-1.39-4.09-2.57-5.95-2.3-40.34,5.97-80.83,5.24-121.24,1.77-10.76-.93-17.96,1.06-22.86,10.56-.61,1.17-1.46,2.22-2.2,3.33-9.85,14.67-14.06,31.22-15.43,48.49-.99,12.45-1.03,24.96,2.93,37.12,4.41,13.54,20.84,25.92,34.04,25.21Zm61.54,26.43c-2.01,2.75-3.46,4.41-4.55,6.29-2.07,3.59-4.21,7.01-9.11,6.41-4.84-.59-6.58-4.36-7.39-8.35-1.05-5.19-1.54-10.51-2.16-15.78-.74-6.28-1.2-6.65-7.49-6.2-3.15,.22-6.34,.41-9.48,.14-4.23-.36-5.19,1.45-3.76,4.98,4.6,11.41,8.69,23.07,14.13,34.07,6.27,12.66,17.46,18.78,31.48,19.77,6.65,.47,13.29,1.36,19.94,1.39,16.79,.08,33.59,.21,50.35-.56,8-.37,15.09-4.62,17.87-12.53,2.47-7.03,3.26-14.65,5-22.99-8.86,4.75-9.24,4.7-15.03-1.77-2.5-2.8-4.46-2.51-6.01,.88-.55,1.21-1.09,2.43-1.7,3.61-4.01,7.68-11.4,8.41-16.84,1.67-7.12-8.82-7.38-8.79-13.34,1.12-3.31,5.51-9.04,6-13.15,1.06-1.06-1.27-1.91-2.72-2.79-4.13-3.17-5.09-4.5-5.12-7.48-.1-3.89,6.56-10.68,6.47-14.4-.26-1.27-2.3-2.25-4.77-4.09-8.73Z"/><path class="cls-2" d="M43.39,272.07c-13.2,.71-29.62-11.67-34.04-25.21-3.96-12.16-3.92-24.67-2.93-37.12,1.37-17.27,5.58-33.82,15.43-48.49,.74-1.1,1.59-2.15,2.2-3.33,4.9-9.5,12.1-11.48,22.86-10.56,40.4,3.47,80.9,4.2,121.24-1.77,1.86-.27,4.53,.9,5.95,2.3,11.69,11.53,18.91,25.51,22.94,41.41,2.86,11.26,6.68,22.28,10.11,33.4,.78,2.55,1.78,5.03,2.55,7.58,4.76,15.88,2.32,23.61-10.98,33.27-3.1,2.25-4.44,4.75-3.96,8.41,.78,5.94,1.71,11.87,2.28,17.83,.3,3.13,.39,6.4-.23,9.43-.32,1.58-2.19,3.47-3.76,3.96-1.12,.35-3.32-1.03-4.31-2.24-5.46-6.65-11.64-6.18-15.7,1.4-.55,1.03-.9,2.16-1.48,3.16-1.88,3.27-4.31,3.46-6.88,.89-1.52-1.52-2.68-3.41-4.17-4.97-5-5.25-11.19-4.49-14.86,1.75-.68,1.15-1.27,2.35-2.03,3.44-2.37,3.37-4.56,3.39-7.02,.05-.69-.93-1.19-2.01-1.81-2.99-4.4-7.01-10.19-7.13-14.9-.3-2.98,4.32-4.4,4.23-6.8-.45-5.8-11.31-9.52-11.59-17.02-1.43-.99,1.35-2.66,2.2-4.01,3.28-.94-1.48-2.37-2.84-2.72-4.45-1.27-5.85-2.18-11.78-3.2-17.69-1.08-6.19-2.56-8.25-8.58-6.71-21.57,5.52-39.56-15.16-38.71-38.26,.45-12.13,.47-24.29,.39-36.43-.02-3.1-.86-6.28-1.8-9.26-1.33-4.2-4.08-4.99-6.89-1.59-2.34,2.83-4.73,6.49-5.03,9.96-.82,9.59-1.05,19.38,6.63,27.1,.67,.67,.85,2.16,.76,3.21-1.38,14.62,1.1,28.21,10.4,40.06,.16,.21,.07,.62,.12,1.35Zm51.72-23.02c13,.9,31.73-12.23,35.53-24.22,6.31-19.97-3.67-38.08-22.8-39.35-20.31-1.36-28.19,5.74-30.32,22.85-.37,2.96-.58,5.97-.58,8.95,0,10.81,5.19,17.96,15.77,19.95,5.92,1.12,12.2,.39,18.32,.42,1.23,0,2.45-.31,4.63-.61-5.93,6.86-13.28,9.32-20.55,12Zm92.76-3.43q-8.41-3.34-10.04-8.52c1.23,.1,2.34,.17,3.44,.28,11.54,1.18,18.02-4.55,17.66-16.02-.33-10.52-4.41-19.8-10.85-27.94-6.78-8.56-16.3-7.16-20.91,2.82-5.09,11.01,2.15,40.4,11.85,47.82,2.47,1.89,5.16,3.51,8.85,1.57Zm-28.87,17.36l1.64-.34c1.71,2.74,3.07,5.81,5.24,8.12,1.69,1.8,4.38,2.66,6.63,3.94,.61-2.4,2.08-4.95,1.69-7.17-2.62-14.8-9.36-28-16.73-40.9-.66-1.15-2.51-2.68-3.31-2.43-1.27,.4-2.67,1.99-3.04,3.35-1.96,7.21-4,14.45-5.27,21.8-1.1,6.35-1.55,12.87-1.66,19.33-.06,3.64,.93,7.63,5.67,8.19,4.9,.58,5.95-3.37,7.16-6.84,.8-2.3,1.34-4.69,2-7.04Z"/><path class="cls-2" d="M104.93,298.51c1.84,3.96,2.82,6.43,4.09,8.73,3.72,6.73,10.51,6.82,14.4,.26,2.98-5.02,4.31-5,7.48,.1,.88,1.41,1.73,2.86,2.79,4.13,4.11,4.94,9.84,4.44,13.15-1.06,5.95-9.92,6.22-9.94,13.34-1.12,5.44,6.73,12.83,6.01,16.84-1.67,.62-1.18,1.15-2.4,1.7-3.61,1.55-3.39,3.5-3.68,6.01-.88,5.79,6.47,6.17,6.52,15.03,1.77-1.73,8.34-2.52,15.96-5,22.99-2.78,7.91-9.87,12.16-17.87,12.53-16.76,.77-33.57,.64-50.35,.56-6.65-.03-13.29-.91-19.94-1.39-14.02-1-25.21-7.11-31.48-19.77-5.44-11-9.53-22.67-14.13-34.07-1.43-3.53-.47-5.34,3.76-4.98,3.13,.27,6.33,.08,9.48-.14,6.29-.45,6.75-.07,7.49,6.2,.62,5.28,1.11,10.59,2.16,15.78,.81,3.99,2.55,7.76,7.39,8.35,4.89,.6,7.03-2.82,9.11-6.41,1.09-1.88,2.54-3.54,4.55-6.29Z"/><path d="M95.11,249.05c7.27-2.69,14.62-5.15,20.55-12-2.18,.3-3.41,.61-4.63,.61-6.12-.03-12.4,.69-18.32-.42-10.58-1.99-15.77-9.15-15.77-19.95,0-2.98,.21-5.99,.58-8.95,2.13-17.11,10.01-24.2,30.32-22.85,19.13,1.28,29.11,19.39,22.8,39.35-3.79,11.99-22.52,25.12-35.53,24.22Z"/><path d="M187.86,245.62c-3.69,1.94-6.38,.32-8.85-1.57-9.7-7.42-16.93-36.81-11.85-47.82,4.61-9.97,14.13-11.38,20.91-2.82,6.44,8.14,10.52,17.42,10.85,27.94,.36,11.47-6.12,17.2-17.66,16.02-1.1-.11-2.21-.18-3.44-.28q1.63,5.18,10.04,8.52Z"/><path d="M158.99,262.98c-.66,2.35-1.2,4.74-2,7.04-1.2,3.47-2.26,7.42-7.16,6.84-4.73-.56-5.72-4.55-5.67-8.19,.1-6.46,.55-12.97,1.66-19.33,1.28-7.35,3.31-14.59,5.27-21.8,.37-1.35,1.77-2.95,3.04-3.35,.8-.25,2.65,1.28,3.31,2.43,7.37,12.89,14.11,26.1,16.73,40.9,.39,2.22-1.08,4.77-1.69,7.17-2.25-1.28-4.94-2.14-6.63-3.94-2.17-2.31-3.53-5.38-5.24-8.12l-1.64,.34Z"/></g><ellipse class="cls-1" cx="102.48" cy="148.7" rx="76.95" ry="25.87"/><path class="cls-3" d="M101.03,84.69c-.17-.95-.43-1.93-.52-2.92-.31-3.63-.7-7.27-.77-10.91-.05-2.28,.42-4.57,.67-6.85,.02-.21,.09-.41,.16-.61,.72-2.26,1.41-2.62,3.6-1.77,.07-.71,.16-1.39,.2-2.07,.18-3.54,.36-7.08,.5-10.62,.02-.46-.08-.92-.28-1.32-3.6-7.08-7.97-13.54-13.86-18.7-2.97-2.6-6.19-4.73-10.12-5.27-.33-.05-.67-.08-1-.08-.26,0-.53,.04-.97,.08,.24,.41,.41,.73,.6,1.02,2.15,3.22,2.08,6.02-.42,8.96-1.34,1.58-2.92,2.91-4.3,4.45-2.07,2.31-4.18,4.6-6.06,7.08-2.86,3.78-3.41,8.21-2.75,12.89,.12,.83,.23,1.65,.35,2.48l-.29,.06c-.61-2.93-1.32-5.83-1.82-8.78-1.01-5.93-1.22-11.91-.43-17.9,.14-1.09,.37-2.16,.55-3.24,.1-.58,.3-.97,.88-1.25,.85-.41,.78-.9,.91-1.93,.02-.17,.22-.47,.22-.47,0,0,.12-.36-.06-.84-.2-.52-.2-1.27,.01-1.79,1.09-2.66,2.48-5.12,4.8-6.8,1.69-1.23,3.52-1.89,5.59-1.39,2.41,.57,3.26,2.64,2.04,4.9-.1,.18-.18,.37-.36,.74,.7,0,1.28-.03,1.85,0,3.63,.25,6.63,2.11,9.43,4.35,6.16,4.95,11.01,11.13,14.95,18.15,.15,.27,.31,.54,.48,.81,.03,.05,.11,.05,.29,.13,.09-1.27,.15-2.49,.27-3.71,.66-6.7,1.4-13.39,1.99-20.1,.44-4.96-.03-9.85-1.67-14.56-1.5-4.29-6.34-6.43-10.23-4.46-3.38,1.71-6.17,4.07-7.32,8.12-.37,1.3-.99,2.52-1.6,3.73,.84-2.89,1.14-5.95,2.76-8.59,3.71-6.05,11.41-7.55,16.66-3.14,2.22,1.86,3.19,4.48,3.85,7.28,1.29,5.48,1.22,11.04,.75,16.6-.2,2.37-.78,6.87-.8,7.08-.05,.54-.18,2.52-.18,2.52h0s-.66,6.42-.81,9.09c-.22,3.79-.3,7.58-.43,11.37,0,.12,.03,.25,.06,.53,.53-1.5,.98-2.85,1.5-4.17,.24-.61,.58-1.2,.95-1.74,.77-1.1,1.96-1.05,2.62,.13,.61,1.1,1.1,2.34,1.36,3.59,.86,4.08,.77,8.24,.52,12.39-.09,1.59-.3,3.17-.46,4.76-.02,.23-.11,.46-.17,.7l-3.14-2.66-.23,.2c.79,1.74,2.63,2.88,2.69,5.14,.04,.24,.08,.58,.11,.98,0,0,.05,.68,.04,1.36-.04,1.76-1.07,6.97-3.12,11.39-.11,.24-.19,.55-.15,.81,.68,5.59,1.37,11.18,2.07,16.77,.02,.2,.11,.39,.18,.61,1.15-3.08,2.22-6.13,3.43-9.12,1.33-3.3,2.91-6.46,5.04-9.28,1.59-2.1,2.26-2.52,4.67-3.03-.07-.34-.15-.67-.19-1.01-.07-.53-.16-1.05-.17-1.58-.02-1.51,.61-2.72,1.5-2.98,.88-.26,1.91,.32,2.71,1.6,1.48,2.36,2.07,5.06,2.58,7.77,1.42,7.5,1.53,15.08,1.06,22.68-.24,3.85-.63,7.69-1.19,11.52,.07-1.08,.14-2.17,.22-3.25,.49-6.4-1.37-12.16-4.23-17.67-1.02-1.95-2.02-3.92-2.87-5.95-1-2.4-.9-4.91-.14-7.38,.16-.53,.33-1.06,.52-1.66-.87-.35-1.56-.03-2.2,.39-1.86,1.21-3.04,3.06-4.16,4.97-2.91,4.96-4.72,10.41-6.07,16.02-.34,1.42,.06,3.1,.32,4.61,.72,4.1,.56,8.11-.77,12.06-.3,.88-.29,1.59,.51,2.32,1.11,1.01,.78,2.57-.59,3.15-.6,.25-.64,.54-.52,1.11,.13,.6,.3,.92,.98,.87,.76-.05,1.53,.17,2.29,.12,.92-.06,1.85-.19,2.74-.43,.99-.27,1.92-.36,2.95-.08,4.25,1.16,8.55,1.58,12.92,.8,.42-.07,.83-.19,1.26-.28-.65-1.77-1.81-2.73-3.56-3.03-3.02-.52-5.71-1.87-8.19-3.8-1.21-.94-2.57-3.04-4.2-3.22,1.52,.17,3.47,1.09,4.92,1.83,2.61,1.32,5.35,1.99,8.2,2.29,2.1,.22,3.72,1.21,4.93,3.05,1.3,1.98,1.45,2,3.47,.94,.75-.39,1.53-.76,2.19-1.28,2.43-1.89,5.08-2.11,7.92-1.43,1.3,.31,2.5,.85,3.81,1.08,.17,.03,1.45,.16,1.59,.4-1.21,0-3.41-.3-4.61-.43-3.27-.35-6.25,.2-8.78,2.63-.64,.61-1.41,1.07-2.25,1.69,1.38,1.2,2.66,2.38,4.02,3.44,.31,.24,.9,.13,1.35,.11,5.01-.25,11.02-1.15,16.03-1.3,2.22-.07,6.46,.28,8.69,.56-6.76,.84-16.57,1.98-23.25,3.37l-.07,.31c1.5,1.33,3.01,2.65,4.51,3.98l-.09,.16c-1.02-.42-2.07-.77-3.04-1.3-1-.55-1.97-1.22-2.85-1.97-.84-.71-1.72-.86-2.71-.61-.13,.03-.26,.06-.39,.09-2.19,.46-2.23,.51-2.29,3.21,2.07,.32,4.16,.81,6.27,.92,2.73,.14,5.48-.03,8.22-.06,1.99-.02,3.79,.49,5.45,1.78,1.01,.78,2.22,1.27,3.35,1.88,.28,.15,.6,.24,.87,.46-1.65,.32-3.26,.07-4.7-.7-1.66-.88-3.33-1.03-5.07-.64-4.78,1.06-9.46,.63-14.21-.47-2.61-.61-5.38-.4-8.08-.56l-.07,.31c1.74,.78,3.49,1.52,5.21,2.35,2.42,1.17,4.57,2.73,6.47,4.74,2.9,3.07,6.6,4.63,10.51,5.66,2.24,.59,3.74,2.11,5.98,2.68,.34,.09,2.13,1.47,2.43,1.71-5.58-.98-12.04-3.45-17.15-6.59-1.27,1.74-2.56,3.44-3.77,5.21-.22,.33-.27,.94-.16,1.35,.48,1.75-.12,3.26-1.77,3.81-1.07,.36-2.23,.4-3.33,.64-1.07,.23-2.26,.29-3.16,.84-2.74,1.67-5.73,2.5-8.72,3.42-1.85,.57-3.88,.25-5.82,.84,1.02-.81,2.2-.69,3.31-1.33,2.02-1.17,4.16-2.12,6.22-3.23,.95-.51,1.87-1.1,2.74-1.76,1.68-1.27,3.53-1.96,5.59-2.05,.52-.02,1.04-.16,1.71-.27-.6-3.13,1.49-4.76,3.14-6.64,.61-.7,1.23-1.39,1.89-2.13-1.27-1.66-2.77-2.89-4.55-3.65-.46-.2-1.26-.01-1.7,.31-1.42,1.04-2.76,2.21-4.1,3.36-.38,.33-.68,.76-1.07,1.2,.02-1.39,1.14-3.27,3.75-6.34-1.21-.52-2.35-1.07-3.52-1.51-1.45-.55-2.92-1.02-4.39-1.49-.27-.09-.61-.14-.87-.06-3.4,1.18-6.78,2.38-10.17,3.6-.32,.11-.61,.3-.84,.56-.43,.47-.57,.89,.11,1.51,1.06,.97,2.04,2.02,2.87,3.22,1.11,1.6,2.76,1.76,4.31,2.11,2.87,.64,5.76,1.18,8.65,1.99-.32,.05-.65,.14-.97,.13-3.5-.06-7.01-.04-10.5-.25-1.59-.09-2.16-.69-4.56-3.01-5.39,2.08-10.59,4.9-16.58,4.97,.88,2.74,.39,4.31-1.6,5.94-2.95,2.41-6.4,3.45-9.98,4.17-2.26,.46-4.48,.78-6.76,.38-1.73-.3-3.83-.43-5.61-.6,1.32-.51,3.04-1.01,4.44-.83,4.17,.51,8.04-.61,11.76-2.4,1.59-.76,3.04-1.88,4.51-2.91,.41-.29,.65-.84,1.09-1.43-1.1-.35-2.02-.6-2.92-.93-2.62-.97-5.23-1.95-7.83-2.98-.62-.24-1.19-.64-1.75-1.03-2.78-1.97-2.08-5.65,.69-6.99,1.25-.61,2.65-.84,3.99-1.25l.12,.35c-.33,.16-.69,.27-.98,.48-1.07,.77-2.21,1.47-3.14,2.4-.98,.98-.79,2.12,.42,2.78,1.03,.56,2.16,.94,3.27,1.3,1.63,.53,3.27,1.03,4.93,1.44,.65,.16,1.38,.15,2.03,.01,2.71-.58,5.44-1.12,8.1-1.92,2.85-.86,5.64-1.98,8.43-3.06,.26-.1,.39-.77,.44-1.19,.03-.23-.22-.5-.35-.75-.83-1.64-.37-3.09,1.27-3.79,2.63-1.13,5.27-2.21,7.9-3.31,.2-.09,.4-.19,.79-.38-1.91-.87-3.66-1.64-5.38-2.47-1.46-.7-2.9-1.47-4.33-2.23-1.6-.85-3.24-.93-4.97-.46-2.98,.8-6.02,1.35-8.96,2.28-3.78,1.19-7.48,2.65-11.21,3.97-5.21,1.85-9.62,5.38-14.57,7.78-1.28,.62-2.57,1.21-3.85,1.83-1.97,.95-3.87,1.94-5.62,3.39-1.62,1.34-3.66,2.19-5.61,2.97-2.31,.92-4.72,1.55-7.09,2.3-.08,.03-.19-.01-.58-.05,3.44-1.85,6.66-3.58,9.87-5.31l-.03-.2c-.84-.14-1.71-.15-2.51-.42-1.98-.67-3.79-.4-5.58,.68-1.74,1.05-3.72,1.09-5.66,1.21-5.54,.35-4.82,2.14-10.19,.53-.37-.11-4.92-3.05-5.24-3.32,1.7,.26,1.36,1.17,3.06,1.39,5.02,.62,10.02,.29,14.98-.64,1.02-.19,2.05-.7,2.95-1.27,1.81-1.16,3.68-1.34,5.69-.88,2.13,.48,4.23,.24,6.17-.73,3.69-1.84,7.31-3.81,10.97-5.73,.09-.05,.19-.09,.25-.17,.28-.35,.55-.72,.82-1.08-.31-.23-.59-.54-.94-.67-3.53-1.32-7.07-2.6-10.6-3.93-.94-.35-1.89-1.26-2.74-1.15-.79,.1-1.39,1.35-2.19,1.88-.86,.57-1.84,1.11-2.82,1.27-2.59,.43-4.73,1.67-6.61,3.53-.29,.29-.63,.53-.95,.78-.1,.08-.22,.12-.38,.1,1.69-2.32,3.21-4.86,6.1-5.75,1.71-.53,3.21-1.36,4.36-3.3-1.58-.5-3.04-1.05-4.54-1.42-3.72-.93-7.39-.25-11.04,.53-6.11,1.32-11.63,1.7-17.82,2.28-.08,0,.78-.63,.45-.77,2.16-.51,2.46-.35,4.39-.81,3.39-.81,6.78-1.57,10.15-2.48,.67-.18,1.42-.76,1.76-1.38,1.17-2.09,2.75-3.4,5.05-3.71,2.34-.32,4.67-.68,7-1.02l.08,.36c-.32,.11-.64,.24-.97,.34-2.08,.66-4.17,1.31-6.24,2-1.02,.34-1.79,1.01-2.3,2.31,5.42-1.81,10.56-1.19,15.63,.98,1.53-1.76,3.47-2.58,5.6-3.11,.95-.24,1.93-.69,2.69-1.34,1.92-1.64,3.98-2.26,6.36-1.49,1.27,.41,2.2,.03,2.88-1.16,.2-.36,.51-.65,1.01-1.26-1.65-.41-3.08-.9-4.54-1.09-3.83-.48-7.52,.39-11.15,1.6-1.28,.43-2.54,.88-3.83,1.27-.42,.13-.89,.11-1.34,.16l-.05-.38c.65-.21,1.32-.36,1.95-.64,2.02-.92,4.01-1.93,6.05-2.81,1.17-.51,2.42-.81,3.62-1.25,1.48-.54,2.96-1.08,4.4-1.71,1.64-.72,2.44-.52,3.39,1.04,1.13,1.87,3.01,2.37,4.85,2.57,3.66,.38,7.33,.52,11,.73,.79,.05,1.58,0,2.37,0l.03,.38c-2.71,.44-5.42,.88-8.21,1.34,.59,1.24,.84,2.54,.17,3.87-.61,1.21-1.23,2.41-1.95,3.83,1.03,.38,1.88,.75,2.76,1,2.22,.64,4.36,.71,6.65-.15,2.43-.91,5.07-1.2,7.62-1.78,.84-.19,1.67-.45,2.72-.74-.94-.46-1.73-.75-2.42-1.2-.96-.63-1.9-1.32-2.74-2.12-.96-.92-1.33-2.2-.91-3.5,.4-1.25,1.39-1.95,2.65-2.17,1.25-.22,2.51-.42,3.75-.73,.28-.07,.59-.51,.68-.84,.07-.28-.06-.83-.26-.94-3.57-2.07-8.61-3.1-9.94-3.25-.57-.32-.87-1.12-3.07-1.12,4.91-.02,9.4,.15,14.01,1.9,.32-1.49,.61-2.96,.94-4.42,.69-3.07,.42-6.13,0-9.2-.41-3.05-.83-6.11-1.25-9.16-.04-.27-.14-.53-.46-.8l-.34,4.17c-1.43-4.41-2.97-9.23-4.57-14.02-.23-.7-.51-1.17-.75-1.89-.11-.32-.3-1.13-.3-1.13m39.68,50.03c-1.05-.85-1.84-1.57-2.71-2.16-.35-.24-.92-.37-1.32-.26-4.71,1.36-9.41,1.83-14.2,.35-1.19-.37-2.46-.4-3.67-.09-1.69,.43-3.33,.73-5.04,.33-.62-.15-1.03-.01-1.2,.69-.16,.69-.02,1.16,.69,1.36,.32,.09,.62,.26,.92,.4,3.91,1.91,7.81,3.85,11.74,5.71,.46,.22,1.12,.21,1.61,.05,2.54-.85,5.11-1.34,7.79-1.09,1.59,.15,1.67,.09,2.06-1.56,.43-1.84,1.18-3.31,3.32-3.73Zm-53.6,5.85c-.33-.14-.67-.28-1-.42-2.71-1.08-3.55-3.36-2.06-5.99,.6-1.05,.56-1.79-.26-2.57-.17-.16-.3-.38-.46-.56-1.53-1.74-1.67-1.75-2.88,.2-1.16,1.88-2.77,2.57-4.82,2.25-.5-.08-1.01-.26-1.49-.19-.79,.12-1.71,.2-2.3,.68-1.69,1.38-3.55,2.19-5.63,2.58-.84,.16-1.62,.61-2.66,1.02,.48,.27,.65,.38,.83,.46,4.93,2.14,10.15,3.55,14.82,6.38,.21,.12,.6,.08,.83-.05,2.35-1.24,4.69-2.51,7.08-3.8Zm24.87-77.33c0-1.08-.64-2.05-1.35-2.05-.7,0-1.33,1.12-1.32,2.33,0,.75,.33,1.2,1.08,1.19,.94,0,1.59-.6,1.59-1.47Zm-8.91,66.64c1.05,.69,2.05,1.35,3.27,2.15l.32-3.09c-1.32-.19-2.87,.19-3.6,.95Zm23.92-38.24l.31,.07c.76-1.09,.65-2.82-.24-3.65-.13-.12-.43-.24-.5-.17-.15,.14-.3,.42-.26,.6,.2,1.06,.45,2.1,.69,3.15ZM74.18,31.02c-.14-.88-.72-1.17-1-1.06-.36,.53-1.16,.88-1.04,1.62,.03,.2,.41,.63,.64,.96,.71,0,.85-.91,1.4-1.51Z"/></g></svg>