<?xml version="1.0" encoding="UTF-8"?><svg id="Layer_2" xmlns="http://www.w3.org/2000/svg" viewBox="0 0 195.91 289.02"><defs><style>.cls-1{fill:#7d7d7d;}.cls-1,.cls-2{stroke:#000;stroke-miterlimit:10;}.cls-2{fill:#fff;}</style></defs><g id="Layer_1-2"><g><path class="cls-1" d="M10.62,284.97c6.17-7.72,9.06-14.54,16.53-19.36-.58-3.61-2.35-4.66-5.79-3.07-1.81,.84-3.72,1.68-5.66,1.91-1.34,.16-2.81-.74-4.22-1.16,.74-1.28,1.17-3.08,2.28-3.72,2.38-1.38,5.11-2.15,7.79-4.43-1.73-.57-3.58-.91-5.15-1.77-1.84-1-3.44-2.45-5.15-3.7,1.72-1.11,3.44-2.22,5.84-3.76C9.89,225.27-1.52,204.55,.81,180.49c1.66,20.84,15.29,37.46,19.37,57.45,.66-.22,1.32-.45,1.98-.67-3.14-9.1-5.68-18.46-9.56-27.24-4.98-11.25-9.33-22.48-8.79-35.01,.08-1.94,.76-3.86,1.9-5.76,.07,15.42,7.64,28.12,13.12,41.64,4.35,10.74,6.38,22.39,9.92,33.48,2.82,8.83,6.23,17.5,9.74,26.09,.67,1.63,3.03,2.58,5.29,3.25-10.08-13.23-11.73-28.98-15.07-44.2-.89-4.05-3.33-7.74-4.6-11.74-.63-1.98,.27-4.45-.37-6.42-2.01-6.17-4.74-12.11-6.62-18.31-2.21-7.28-4.64-14.64-5.46-22.14-.84-7.67,3.3-12.77,9.85-15.07,5.74-2.01,10.63-.31,15.65,5.85,7.92,9.73,12.51,21.19,16.58,32.86,7.01,20.09,11.8,40.64,11.83,62.04,0,5.77-.94,11.55-1.47,17.61,3.95,1.52,6.57,.39,8.18-4.33,7.44-21.77,7.63-43.92,2.95-66.1-1.66-7.86-1.1-14.98,1.36-22.41,6.45-19.45,9.17-39.56,9.68-59.99,.38-15.22,2.06-30.22,7.05-44.73,4.11-11.96,10.91-22.01,22.45-27.48,4.48-2.12,10.34-1.43,15.59-1.63,.62-.02,1.93,2.5,1.9,3.82-.32,11.64-.71,23.29-1.39,34.92-.48,8.15-1.53,16.26-2.15,24.4-.18,2.35,.23,4.74,1.07,7.1,1.84-23.08,10.85-45.48,5.37-68.99,11.74-1.74,24.95,9.47,24.24,21.81-1.01,17.57-3.16,35.12-5.57,52.57-4.09,29.53-9.11,58.93-13.09,88.47-2.86,21.25-6.22,42.2-17.34,61.03-.14,.24-.02,.64-.02,2.56,2.35-1.57,4.5-2.29,5.51-3.78,9.82-14.59,12.18-31.52,14.55-48.35,4.48-31.84,8.52-63.75,13.13-95.57,1.43-9.86,3.54-19.72,6.41-29.25,3.59-11.89,3.02-23.3-1.08-34.78-.5-1.39-.95-2.8-1.87-5.55,4.14,2.36,7.31,4.17,11.02,6.28,1-2.36,1.62-4.61,2.86-6.43,.74-1.08,2.47-1.5,3.75-2.21,.4,1.29,.96,2.55,1.12,3.87,.09,.74-.49,1.56-.77,2.35-2.74,7.54-2.75,7.47,4.96,6.68,1.05-.11,2.84,.64,3.16,1.44,.32,.81-.51,2.44-1.32,3.22-.89,.87-2.33,1.18-3.77,1.85,.08,.82,0,1.64,.25,2.35,3.02,8.69,2.75,17.5,.08,26.07-4.66,14.92-6.85,30.18-7.53,45.73-.8,18.23-6.43,35.32-12.33,52.35-.59,1.71-1.17,3.43-1.01,5.5,1.7-3.75,3.5-7.46,5.06-11.27,1.57-3.85,3.38-7.71,4.24-11.74,2.78-13,5.2-26.07,7.72-39.12,1.57-8.16,2.9-16.37,4.65-24.49,2.23-10.33,4.77-20.59,7.51-32.28,1.51,6.46,3.32,11.91,3.99,17.5,2.52,20.97-1.33,41.32-8.09,60.96-6.71,19.51-14.86,38.52-22.39,57.74-.85,2.16-1.74,4.3-3.03,7.48,2.77,0,5.03-.28,7.17,.11,1.18,.22,2.16,1.55,3.23,2.39-1.08,.99-2.06,2.66-3.26,2.85-3.32,.52-6.73,.43-11.58,.64,2,2.59,3.23,3.7,3.83,5.09,.68,1.58,.8,3.41,1.16,5.13-1.72-.38-3.44-.75-5.16-1.15-.31-.07-.6-.25-1.55-.66-2.31,5.03-4.83,10.02-6.76,15.22-.34,.91,1.6,3.72,2.85,3.99,6.54,1.4,9.28,14.42,13.47,18.91-11.22,2.07-24.27,3.7-38.83,4.12-10.41,.3-20.03-.06-28.7-.8l-86.38-2.65Zm86.38-9.64c.94-.94,2.23-1.73,2.73-2.87,.8-1.8,1.17-3.81,1.58-5.76,6.69-31.89,13.36-63.78,20.01-95.68,.14-.68,.02-1.42,.02-2.14-13.36,34.04-20.24,69.5-24.34,106.44Zm49.5-183.32c-.58,4.75-1.04,8.54-1.5,12.33,1.17,0,2.84,.49,3.43-.1,1.98-1.97,1.21-8.62-1.93-12.23Z"/><path class="cls-1" d="M48.95,129.41c-2.19,.2-3.25,.59-4.13,.32-1.64-.49-3.17-1.35-4.74-2.06,1.37-1.12,2.59-2.67,4.16-3.25,2.23-.83,5.28-.18,5.41-3.83,.14-3.95,3.81-8.15-1.26-11.8-1.43-1.03-1.72-3.63-2.53-5.51,1.87,.35,3.75,.68,5.61,1.08,.47,.1,.89,.42,1.4,.68,4.26-8.07,8.49-16.1,12.59-23.87-4.92-6.56-9.96-13.28-15.54-20.72,.86,.17,.53,.03,.23,.06-2.06,.24-4.11,.51-6.17,.78,.98-1.87,1.86-3.81,2.97-5.59,.66-1.06,1.68-1.89,3.25-3.59-3.04-.97-5.46-1.4-7.51-2.51-1.62-.87-2.78-2.57-4.15-3.89,1.73-.45,3.45-1.11,5.2-1.27,1.26-.11,2.59,.45,4.23,.78,1.14-4.91,2.25-9.69,3.5-15.11-2.23-.38-4.8-.33-6.9-1.3-2.29-1.06-4.15-3.07-6.19-4.66,2.05-1.09,4.11-2.19,5.72-3.05-1-2.38-2.34-5.58-3.69-8.78l7.34-1.12c.6-2.75,1.27-5.84,1.95-8.92l8.09,5.78c.77-2.3-1.27-7.69,4.04-7.56,1.72,.04,3.34,4.46,5.39,7.45-1.09,.06-.9,.11-.78,.03,2.05-1.31,4.09-2.64,6.14-3.96,.37,2.61,1.31,5.3,.96,7.82-.42,3.05-1.92,5.96-3.08,9.31,3.49,1.32,6.72,5.84,10.15-.34,.39-.7,2.59-1.13,3.33-.67,.74,.46,1.37,2.69,.93,3.26-5.39,6.91,1.44,12.5,2.02,18.71,.07,.77,2.62,1.25,3.96,1.98,1.45,.79,2.82,1.72,4.23,2.59-1.34,.86-2.66,2.41-4.02,2.44-2.99,.06-3.77,1.36-3.62,4,.12,2.07,.02,4.16,.02,7.32,4.5-2.66,7.97-4.73,11.45-6.79-9.02,15.62-13.18,32.49-15.26,49.87-1.7,14.21-2.13,28.57-3.7,42.81-1,9.08-2.89,18.08-4.74,27.04-.67,3.24-2.41,6.26-4.01,10.28-5.42-9.4-5-18.35-4.25-27.27,1.23-14.57,2.67-29.13,3.78-43.74-7.22,16.4-8.53,33.97-9.13,51.77-12.86-8.66-15.1-20.79-12.65-34.97Z"/><path class="cls-1" d="M62.62,188.39c-.35-4.58-.69-9.17-1.06-13.99,13.67,23.34,18.27,84.74,5.32,96.03,2.52-25.69-3.34-50.13-11.11-74.28-1.02-3.16-1.78-6.41-2.54-9.65-3.01-12.82-7.27-24.92-19.66-33.5,7.11-.47,12.53,1.42,16.37,5.51,3.62,3.87,6.74,8.65,8.61,13.59,1.94,5.12,2.11,10.92,3.05,16.42l1.02-.13Z"/><path class="cls-2" d="M97,275.33c4.1-36.94,10.98-72.4,24.34-106.44,0,.71,.12,1.45-.02,2.14-6.65,31.9-13.32,63.79-20.01,95.68-.41,1.95-.77,3.96-1.58,5.76-.51,1.14-1.8,1.92-2.73,2.87Z"/><path class="cls-2" d="M146.51,92.01c3.14,3.61,3.91,10.26,1.93,12.23-.59,.59-2.26,.1-3.43,.1,.46-3.79,.92-7.58,1.5-12.33Z"/></g></g></svg>