<svg xmlns="http://www.w3.org/2000/svg" viewBox="0 0 363.54 358.14"><defs><style>.cls-1{fill:#5cdbac;}.cls-2{fill:#2e8e6b;}.cls-3{fill:#e86b56;}.cls-4{fill:#fff;}</style></defs><g id="Layer_2" data-name="Layer 2"><g id="Слой_1" data-name="Слой 1"><path d="M344.53,203.16a29.5,29.5,0,0,0-29.9,3.1c1-4.9,1.8-9.8,2.5-14.7.4-2.5.7-4.9,1-7.4.2-1.5.9-4.4.2-5.7s-2.6-1.7-4.2-1.8c-7.1-.6-14.2-1.6-21.3-2.6.1-.2.3-.4.4-.6,9-17.5,21-31.4,36.8-44.2,5.1-4.1,10.5-6.9,16.1-10.2a4.53,4.53,0,0,0,2.4-4.8c-.4-1.4-1.9-2.5-4.6-2.2-3.2.3-7,3.1-9.9,4.4-7.2,3.1-15.2,5.9-23.3,4.9,2.3-2.9,4.4-5.9,6.4-9a9.06,9.06,0,0,0,1.3-1.9l6.3-9.3q7.2-10.2,14.1-20.4c1.1-1.6-1.5-2.8-3-2.7-2,.2-2.7,2.4-3.7,3.6a30.7,30.7,0,0,1-2.5,2.6,29.88,29.88,0,0,1-6,4.6,13.64,13.64,0,0,1-9.9,1.4c-2-.6-4.7-2.9-6.1-.3-.9,1.8-.3,3.9-1.6,5.6a10.42,10.42,0,0,1-5.4,3.5,14.65,14.65,0,0,1-6.9.2c-1.2-.3-2.3-.7-3.4-1-5-1.4-6.5,12.2-12.8,4.6-.8-.9-1.5-2-2.7-2.3-2.5-.5-7.2,4.8-9.2,6,0-3.2.2-6.4.4-9.6a161.73,161.73,0,0,1,2.5-20.8,115.18,115.18,0,0,1,12.8-35.6A87.2,87.2,0,0,1,294,23.46a2.29,2.29,0,0,0-1-3.7c-2.3-.7-3.3,1.7-4.6,3-2.3,2.4-5.7,5.9-9,7-2.3.7-4.6-.2-6.2,2.3s0,5.2-3.2,7.4c-3.9,2.6-8.3-.3-12.3,1.5-3.3,1.4-3.2,5.9-7.6,6.2s-8.5-3.5-12.6-.5c-1.7,1.3-1.2,4.2-2,5.9-2,4.5-6.1,6.6-11.4,5.9s-7.4-4.9-8.9-9.3c-2-5.8-4.3-11.6-6.9-17.3-5-10.9-11.3-22.2-21.2-30-1.3-1.5-4.3-3.2-5.4-.2-1.4,4,2.5,7.1-.9,10.7-.9,1-3,.8-3.7,2.2-.9,1.9,1.5,4.4,1.5,6.4,0,3.5-2.3,5.9-5.5,7.5-1.4.7-4.5.7-5.6,1.5-2.6,1.8.8,4.7,1.1,7.3.3,2.9.2,6.2-2.5,8.3-2.2,1.6-8.6,2.8-8.6,6.1,0,1.5,2.6,3.8,3.4,5.2,1.9,3.2,3.8,7.3,1.4,10.7s-10,7.1-13.5,2.9c-1.8-2.1-.9-8.7-4.4-8.9-2.2-.1-4.7,3.1-6.9,3.8a8.66,8.66,0,0,1-10.7-6c-1.6-5.8,0-9.3-6.8-6.3-3.7,1.6-8.9,4.6-10.9-.6-1-2.7.3-7.7-3.9-8.4-3-.5-5.2,1.9-8.7.5-5-1.9-7.1-6.5-9.9-10.5-2.2-3.1-7.2-9.3-9.4-2.7-1.1,3.2,2.2,7,3.8,9.6,4.5,7.7,8.9,15.5,12.2,23.7,2.4,6,4.9,11.9,7.3,17.9,1.7,4.2,6,11,2.3,15.4-2.9,3.5-6.6,1.4-7.3-2.5-.2-1.4,1.1-4-.6-4.8s-6.3,2.4-8.4,2.3a10.76,10.76,0,0,1-8-4.5,20.57,20.57,0,0,1-3.7-7.2c-.6-2.2.4-5.2-.7-7.2s-2.9-1.8-5.1-2.2c-8.7-1.4-8.9-5.4-11.4-12.4a3.16,3.16,0,0,0-1.1-1.7,2.77,2.77,0,0,0-3.4.6c-3.5,3.7,2,13.2,3.2,17.3a93.46,93.46,0,0,1,3.3,16.4,73.13,73.13,0,0,1,0,16.2c-.2,1.6,0,6.6-1.5,7.8-2.1,1.7-5-.6-6.3-2.1s-2.9-4.5-4.9-5c-1.7-.4-4.1,1.6-5.4,2.4a14.47,14.47,0,0,1-10,1.3,23.68,23.68,0,0,1-6.4-2.5c-3.5-2-4.6-4.9-8.3-1.7-2.1,1.8-3.4,4.2-5.9,5.4-2.9,1.4-5.1.7-8.1,1.2-2.2.4-4.4,3.2-1.3,4.2,3.8,1.2,7.9,1.7,11.8,2.8a116.41,116.41,0,0,1,11.8,3.9,138,138,0,0,1,21.5,10.5A79.4,79.4,0,0,1,63,149.26a36.88,36.88,0,0,1,5.9,8.3,30,30,0,0,1,2.6,9.3c-5.5.5-10.9.9-16.4,1.5-3.1.3-8.2-.3-10.1,2.7-1.2,1.9.1,4.2.4,6.2.3,2.4.2,4.8.6,7.2,4.1,27.8,16.1,54.1,31.2,78.3a274.65,274.65,0,0,0,28.2,38.2,162.16,162.16,0,0,0,24,22.8c-1.4-1.1-5.7,3.1-6.4,4a8.34,8.34,0,0,0-1.3,7.9c3.7,9.3,21,14.5,30.2,17.3,29.3,8.9,67.6,6.6,94-8.9,7.7-4.5,4.2-14.2-2.5-16,3-2.1,5.9-4.2,8.6-6.5,9.7-8.1,16.8-17.8,25.2-26.9,4.8,3.6,8.8,5,15,2.4,5.2-2.2,9.2-6.4,13.3-10.1,5.7-5.1,13.7-6.8,20.9-9.3a60.69,60.69,0,0,0,17.7-9.6c10.5-8.2,18.2-20.1,19.3-32.8A32.6,32.6,0,0,0,344.53,203.16Zm-17.9,58a44.08,44.08,0,0,1-16.1,7.5c-5.9,1.5-12,2.3-17.6,4.5-.9.4-1.7.8-2.6,1.2,2-1.1,3.8-7,4.8-8.9,1.6-3.2,3.1-6.5,4.5-9.7,2.4-5.4,5.2-10.7,7.6-16.1,2.1-4.8,4.8-9.1,10.7-10.6,5.1-1.4,10.6.8,14.1,4.3C340.43,241.76,335,254.66,326.63,261.16Z"/><path class="cls-1" d="M171.83,72.06c.9-2.2.6-4.6.3-6.9-.7-5.2-4.1-11.8,1.7-14.8,1.1-.6,2.4-1.3,2.8-2.5a5.24,5.24,0,0,0,.1-2.5c-.4-2.7-2.5-8.5-1.3-11,1.3-2.7,3.4-1.9,6-2.9,5.2-2.1,6.4-6.7,6.8-11.4.1-1.3-.6-5.2.8-5.8,2.2-1.1,5,3.2,5.8,4.4,9.2,14.2,19.9,33.2,21.1,49.9-.1-1.5-7-2.2-8.1-1.2-1.9,1.7.2,4.7.7,6.3,1.6,5.6-1.7,10.6-7.5,12.7a44.32,44.32,0,0,1-8.2,1.8,1.61,1.61,0,0,0,0,3.2c11.4,4,24.9-6.1,23.6-17.1.1.8,7.4-.9,8-1.1,3-1.3,5.3-3.9,5.5-7,.1-.7,0-1.4.6-1.9a2.83,2.83,0,0,1,1.6-.6c5.9-1.1,9.9-6.6,11.3-11.7,5.6.8,10.7,1.6,16-1,12.5-6.2,5.3,8.9,3.2,13.8-4.1,9.5-3.1,19.9-2.6,29.8.1,2.4,1.2,10.1-.1,13a1.64,1.64,0,0,1-1,1c-3.2,1.1-8.2-6.7-10-.8-.4,1.4-.2,2.9-.7,4.3-2.5,7.1-11.2.8-14.8,4.6-2.3,2.4.3,7.4-2.3,9.6,0,0-.2.2-.3.2l-.6.3a35,35,0,0,1-2.4-3,17.2,17.2,0,0,1-1.9-4.9,45.79,45.79,0,0,1-.8-11.1c.2-4.4,1.2-8.6,4.1-12.2,2.2-2.6,7.5-6,4.6-9.8-1.8-2.3-5.1-1.1-7.4-.2-6.5,2.5-12.5,7.1-17.7,11.4a83.16,83.16,0,0,0-11.1,11.1c-1.3,1.6-6.6,11.2-8.3,11.2-5.7-.2,2.1-10.8-3.8-11.6a13.2,13.2,0,0,0-2.8.2c-6.5.9-12.1-2.6-9.3-9,1.6-3.6,6.1-5.6-.2-7-2.5-.6-4.1,1.1-6.5-.9-1.6-1.4-1.8-3.8-1.8-5.7C164.73,79.36,169.43,77.46,171.83,72.06Z"/><path class="cls-2" d="M205.93,159.56a9.56,9.56,0,0,1-4.1,3.3c-.1.1-.2.1-.4.1a21.49,21.49,0,0,1-4.1-3.2,13.86,13.86,0,0,1-3.1-5.2,14.33,14.33,0,0,1-.8-5.8c.2-2.4,4.2-5.6,3.5-7.3-.6-1.4-4.6-1.7-5.8-1.4-.9.2-1.7.6-2.6.8.5-1.5.9-3.1,1.4-4.5a56.34,56.34,0,0,1,3.3-7.6,81.84,81.84,0,0,1,9.3-14.1c2.2-2.7,13.8-18,15.3-9.3,1.4,7.7-.4,15.3,1.5,22.8.1.3.1.6.2.8a22.38,22.38,0,0,1,1,3.7c.9,5.2-.4,11.4-5.8,14.1-.1.1-.2.1-.3.2-3.3,1.9-7.8-.7-8.7,3.5C205.33,153.56,208,156.56,205.93,159.56Z"/><path class="cls-1" d="M100.53,63.26c-.5-1.7-2.1-7.7.6-8.7,2.5-.9,6,4.3,8,5.3,4.1,2.1,9,.5,13.1,2.7,3.4,1.8,4.5,5.6,7.7,7.5,2.7,1.6,5.6,1.2,8.6,2a12.76,12.76,0,0,1,6.1,4.1c3.8,3.8,9.4,5.2,12.3,10,1.9,3.3,3.3,6.4,6.1,9.2,4.5,4.5,3.5,9.4,6.6,14.4a14.28,14.28,0,0,0,11.9,6.4c-.3,4.5,2.5,7.9,3.4,11.6a6.75,6.75,0,0,1,.2,1.4c.1,1.1-3.5,11.7-2.6,11.8a15,15,0,0,1-4.3-1c-5.7-2.3-.6-10.8-8.3-7.4-4.3,1.9-9.6,1.6-12.7-2.1-2.8-3.3,1.6-9.8-2.3-12-2.5-1.3-6.5.3-9.3-.5a8.55,8.55,0,0,1-6.4-7c-.3-2.8,4-8.2,1-10.1s-7.5,2.4-10.6-2.6c-1.6-2.7-.3-4.8-.8-7.5a3.85,3.85,0,0,0-2.2-2.9c-3.5-1.3-5.3-1.9-6.4-5.5-.6-1.9-.1-4.1-2-5.5-3.9-3-4.6,1.8-5,4.4s-2.2,8-1.2,10.4c-.3-.8-.7-1.7-1-2.5-1.3-3.2-2.7-6.3-4-9.5A127.06,127.06,0,0,1,100.53,63.26Z"/><path class="cls-2" d="M69.93,98.76c.1-2.7-.5-9.2,4.2-6.4,2.6,1.5,3.4,4.5,6.1,6,2.9,1.7,5.8.4,8.4,1.5s2.6,4.6,4.4,6.6c4.3,4.6,13.4,5.6,19.2,3.2.4,2.6,3.9,21.5,6.2,21.7-5.8-.5-12.1-1.6-14.8-6.8a2.24,2.24,0,0,0-2.4-.9c-3.1,1-6.8.8-9.3-1.1-1.8-1.3-2.7-4.3-5.7-3.8-3.7.6-5.5,3.6-9.7,2-3.1-1.2-5.1-4.2-6-7.1C69.23,108.86,69.73,103.66,69.93,98.76Z"/><path class="cls-1" d="M90.23,165.56a11.78,11.78,0,0,0-1.1-1.9c-5.7-8.2-11.6-16.6-20.1-22.5-2.8-1.9-15.1-9.8-10.3-13.8,3-2.5,10.7,1.7,13.6,2.7a15.82,15.82,0,0,0,10.3.7c5.1-1.7,6.6-.5,11,1.9,7.6,4.1,18.2,5.6,26.8,5.8a3.89,3.89,0,0,1,1.5.2,2.66,2.66,0,0,1,1.1,1c3.8,5.4,6.9,13.3,3.4,19.5a16.34,16.34,0,0,1-4.2,4.5l-.3.3c-1.9.1-3.8.1-5.7.2s-4,.1-6,.2Z"/><path class="cls-2" d="M146.83,163.56a39.76,39.76,0,0,1-3.3-2.5c-2.7-2.7-4.8-6.1-6.9-9.2a97,97,0,0,1-9.7-17.5c-3.2-7.8-8.7-20.3-4.2-28.5a5.88,5.88,0,0,1,2.9-2.7c6.2-2.3,9.7,16.4,12.4,19.6a23.35,23.35,0,0,0,6.6,5.5,18.1,18.1,0,0,0,5.1,2,12.09,12.09,0,0,0,.5,1.8,15.3,15.3,0,0,0,5.2,6.9,17.33,17.33,0,0,0,8.9,3.4,14.12,14.12,0,0,0,4.6-.2c.3.3.5.7.8,1a17.45,17.45,0,0,0,7.8,3.9,23.79,23.79,0,0,0,8.8.5c.4-.1.9-.2,1.4-.3a14.89,14.89,0,0,0,.1,9.1,20.57,20.57,0,0,0,3.7,6.4c.5.6,1,1.1,1.5,1.6C177.63,163.76,162.23,163.46,146.83,163.56Z"/><path class="cls-2" d="M211.53,165.26a12.06,12.06,0,0,0,2.1-2.4,19.86,19.86,0,0,0,3.4-7.2,18.46,18.46,0,0,0,.4-2.3,22.83,22.83,0,0,0,5-3.3,25.27,25.27,0,0,0,5.5-5.8,16.34,16.34,0,0,0,3-10.7,14.21,14.21,0,0,0,3.6-.3,15.24,15.24,0,0,0,5.8-2.6,16.06,16.06,0,0,0,4.5-4.5,13.83,13.83,0,0,0,1.4-2.7c.1-.2.1-.4.2-.5.4-1,3.7-1.6,4.7-2.2,4.6-2.9,4.2-5.2,10.2-4.7,3,.3,5.9.4,8.6-.9,1.9-.9,2.9-3.5,4.6-4.2,2.5-1.1,3.7.7,6.7.6,2.7-.1,5.2-1.8,7-3.6l2.1-2.4a5,5,0,0,0,1.2-2.4,16.16,16.16,0,0,0,5.7,1.2,23.15,23.15,0,0,0,8.3-1.1c3.4-1.2,8.2-3,8.9,1.2.5,3.3-2,6.8-3.8,9.4-2.3,3.3-3.6,4.3-6.7,5.5-.9.4-1.8-.5-3,.2-.8.5-2,3.6-2.8,4.5-2.5,2.6-6.6,5.2-10.5,3.9a26.54,26.54,0,0,0-3-1.1c-4.2-.9-1.7,8.6-6.2,10-4.3,1.3-8.8-2.6-12.9-2.2-5.4.5-3.1,6.9-6.1,10.1-2.1,2.2-5.5,3.1-8.7,3.1a18.5,18.5,0,0,0-4.1.2,3.45,3.45,0,0,0-2.8,2.5c-.2,1,.4,1.9.7,2.8,1.6,3.8.1,7.8-3,10.5-2.7,2.4-5.4,2.4-8.3,3-5.4-.4-10.8-.9-16.2-1.2C215.13,165.46,213.33,165.36,211.53,165.26Z"/><path class="cls-1" d="M261.13,169.56c-3.1-3.9-1.5-8.7-2.2-13.8l-.3-1.5c.9-.3,1.8-.6,2.7-1a17.64,17.64,0,0,0,5.3-4,21.05,21.05,0,0,0,3.3-4.9,15.67,15.67,0,0,0,5.7.3,18,18,0,0,0,8-2.6,14.92,14.92,0,0,0,5.1-5.5,10.07,10.07,0,0,0,1.1-3.2,20,20,0,0,0,4.9-.1,28.94,28.94,0,0,0,6.6-1.6c2.7-1.1,6.4-4.5,9.6-2.4,4.8,3.1-4,11.4-6.1,13.7-5,5.4-7.4,11.3-13.3,16.4-2.7,2.3-5.4,4.5-8.1,6.8a39.26,39.26,0,0,1-7.2,5.1l-8.9-1.2C265.13,170,263.13,169.76,261.13,169.56Z"/><path class="cls-3" d="M54.23,179.66a1011.51,1011.51,0,0,1,201.4.3c18.7,1.9,29,3.4,47.5,6.4-.7,5.6-1.5,11.2-2.5,16.9a1367.51,1367.51,0,0,0-188.5-10.4c-18.5.3-37,1-55.5,2A129.88,129.88,0,0,1,54.23,179.66Zm6,28.9a1361.11,1361.11,0,0,1,194.7,3.5c14.4,1.3,28.8,2.9,43.1,4.6-.8,3.6-1.6,7.3-2.5,10.9q-89.1.6-178.1-3.1c-17.5-.7-34.9-1.6-52.4-2.6C63.33,217.56,61.63,213.06,60.23,208.56Zm162,119.8c-23.9,11.6-46.8,9.4-70.4-1.8a109.63,109.63,0,0,1-16.2-9.6,233.23,233.23,0,0,0,100.8,3.4A132.28,132.28,0,0,1,222.23,328.36Zm34.3-24.4-.1.1a177.78,177.78,0,0,1-26.2,6,219.85,219.85,0,0,1-76.6-.6c-10.8-2-22.8-4.3-32.4-9.1-2.9-1.5-5.8-2.9-8.8-4.3-1.7-1.9-3.4-3.8-5-5.7,2.8.5,5.6.9,7.5,1.3a361.26,361.26,0,0,0,35.8,6,371.55,371.55,0,0,0,72.3,1.7,410.68,410.68,0,0,0,41.4-5.2A66.5,66.5,0,0,1,256.53,304Zm22.7-34.4c-1.8,3.1-3.5,6.3-5.3,9.4-44.9,10.8-94,10.9-139.4,3.3-8.2-1.4-16.2-3-24.3-4.9-5.5-1.3-11.8-2.7-16.9-5.4-.8-1.2-1.7-2.4-2.5-3.6-1.6-2.4-3.2-4.7-4.8-7.1a606.84,606.84,0,0,0,159.2,6.9c12.4-1.1,24.9-2.7,37.2-4.6C281.43,265.46,280.43,267.56,279.23,269.56Zm-155.1-15.5c-15.7-1.8-31.3-4.2-46.8-7.3-2.2-3.8-4.2-7.6-6.1-11.5q90.6,5,181.5,5.5c13,.1,26.1,0,39.1-.1-1,3.1-2.1,6.1-3.2,9.1A592.72,592.72,0,0,1,124.13,254.06Z"/><path class="cls-4" d="M147.73,300.56s-37.3-26.3-55.6-61.8c-17.6-34.2-16.5-45.7-4.2-50.4s18.5,13,21.9,29.2C113.83,236.36,121.43,261.16,147.73,300.56Z"/><path class="cls-4" d="M353.33,221.06c-2.5-6.2-8.8-11.9-15.9-12.2-1.8-.1-5.9-.1-5.6,2.6.1,1.5,6.3,3.3,7.8,4.3a23,23,0,0,1,7.3,8.5,34.08,34.08,0,0,1,3.6,12.9c.1,1.5-.5,3.7.5,4.9,1.5-.6,2.2-2.4,2.7-3.8C355.63,232.26,355.73,227,353.33,221.06Z"/></g></g></svg>