<svg xmlns="http://www.w3.org/2000/svg" viewBox="0 0 326.8 372.45"><defs><style>.cls-1{fill:#201600;}.cls-2{fill:#2e8e6b;}.cls-3{fill:#fff;}.cls-4{fill:#e86b56;}.cls-5{fill:#cbffc7;}</style></defs><g id="Layer_2" data-name="Layer 2"><g id="Слой_1" data-name="Слой 1"><path class="cls-1" d="M270,110c8.4-5.6,15.1-13.5,14.5-24.5a19.06,19.06,0,0,0-11-16.6,18.53,18.53,0,0,0-14.6-.2c0-1.3-.1-2.6-.2-4-1.3-12.3-9.5-20-19.6-23a30.48,30.48,0,0,0-9.7-34.8c-11.7-9-28.3-9-40.4-.8a40.27,40.27,0,0,0-12.7,14.2,29.13,29.13,0,0,0-3.5-2,33.8,33.8,0,0,0-29.9.8,34.53,34.53,0,0,0-7.3,5.2c-8.3-12.9-24.8-19.7-39.7-14.9-15.3,4.9-26.2,19.9-24.6,36.1a36.91,36.91,0,0,0,9.3,21.2,35.76,35.76,0,0,0-9.9,15.9c-18.9-2-35.4,13.6-35.6,32.7a37.6,37.6,0,0,0,2,12.2C13.8,152.05,0,184.05,0,220.05c0,84,73.3,152.4,163.4,152.4s163.4-68.4,163.4-152.4C326.9,174.75,305.2,135.75,270,110Z"/><path class="cls-2" d="M118,138.05c-10.3-.9-21.1-.2-30.2,5-8.2,4.7-14.6,12.8-13.8,22.7s8.7,17.5,17.4,21.2a42.48,42.48,0,0,0,27.9,1.7,90.17,90.17,0,0,0,15.1-5.3c2.4-1.1,4.8-2.4,7.1-3.7,1-.5,6-4.4,6.8-4.1-.7-.2-1.4-.5-2.1-.7a46.79,46.79,0,0,1-9.9-4.6c-5.5,5.7-13.4,9.2-21.1,10.4a43.1,43.1,0,0,1-15.2-.2,30.77,30.77,0,0,1-7.3-2.2c-2-1-4.6-2-6.3-3.5a.84.84,0,0,1,.6-1.4,14,14,0,0,1,2.8.6,26.29,26.29,0,0,0,3.9.6c2.3.3,4.6.8,6.9,1a44.21,44.21,0,0,0,13.1-.2,33,33,0,0,0,17.6-9.2l-.4-.4c-5-5.5-7.2-14-2.9-20.6a1.38,1.38,0,0,0,.3-.4,19.76,19.76,0,0,1-10.1-6.4A1.44,1.44,0,0,0,118,138.05Z"/><path class="cls-2" d="M162.4,156.75a32.46,32.46,0,0,1,6.7,3.4,20.26,20.26,0,0,1-1.5-7.3,44.72,44.72,0,0,0-20.9-7.5c-5.1-.4-12.1-.2-13.6,5.8-1.4,5.6,2.7,10.6,7.2,13.3,3.7,2.3,8,3.7,12.1,5a61,61,0,0,0,17.5,2.8,39,39,0,0,1,1.9-3.5.35.35,0,0,0-.1-.2,8.64,8.64,0,0,0-1-1.6,14.31,14.31,0,0,0-1.1-1.5c-.5-.5-1-1.1-1.5-1.6a31.78,31.78,0,0,0-6.5-5.1A1.09,1.09,0,0,1,162.4,156.75Z"/><path class="cls-2" d="M141.6,120.05c-2,6.1-.9,12.5,1.7,18.2,1.6,0,3.2.1,4.8.2a52.24,52.24,0,0,1,20.8,6.9c.1-.3.3-.5.4-.8L169,141l-.6-5.4c-.5-3.7-1.5-7.4-2.2-11-.2-1,1.2-1.7,1.7-.7a74.69,74.69,0,0,1,4.1,10.8c.5,1.4.9,2.8,1.3,4.2a19.81,19.81,0,0,1,6.4-4.4c-2.7-12.3-10.2-27.1-25-25.8C148.5,109.35,143.6,114.25,141.6,120.05Z"/><path class="cls-2" d="M131,101.35a15.39,15.39,0,0,0-11.4,11.4,27,27,0,0,0,2.4,18.9c2.7,4.8,8.1,8.1,13.6,6.4a31.91,31.91,0,0,1-1.4-17.6,24.85,24.85,0,0,1,10.3-15.2A14.93,14.93,0,0,0,131,101.35Z"/><path class="cls-2" d="M177.7,76.55a20.27,20.27,0,0,0-17.9,8.6,28,28,0,0,0-4.5,16.6,25.13,25.13,0,0,1,8.6,1.1c9.8,3.2,16,10.9,19.7,19.9a27.25,27.25,0,0,0,14-15.8C201.9,93.25,192.8,77.25,177.7,76.55Z"/><path class="cls-2" d="M261.4,123.05a26.79,26.79,0,0,0-17.7-15.6,25.49,25.49,0,0,0-21.1,3.9,18.91,18.91,0,0,1,2.8,12.6c-1.3,9.4-8.5,16.3-17.2,19.2a22.49,22.49,0,0,1,3.1,7.9,33.68,33.68,0,0,0,3.1,2.1,19.42,19.42,0,0,0,7,2.4,52.21,52.21,0,0,0,8.8,1.5,14.21,14.21,0,0,0,3.6-.3,21.19,21.19,0,0,0,4-1.4.68.68,0,0,1,.8,1.1,8.32,8.32,0,0,1-3.3,2.6,28.64,28.64,0,0,1-4.1,1.5,29.91,29.91,0,0,1-9.9.6,22.32,22.32,0,0,1-9.2-2.3c-.3-.2-.6-.3-.9-.5a17.83,17.83,0,0,1-2.3,5.5,35.29,35.29,0,0,1,9.4,4.5,42.08,42.08,0,0,0,25.7-3.2C259.3,157.75,268.5,139.45,261.4,123.05Z"/><path class="cls-2" d="M218.4,119a10.7,10.7,0,0,0-6.8-7.9c-4.6-1.4-8,1.5-10.8,4.9a52.89,52.89,0,0,1-9.7,9.2c-.6.4-5.6,3.5-5.4,4.3.3,1.1.6,2.2.8,3.3a22.4,22.4,0,0,1,16.4,4.7h.1a21.37,21.37,0,0,0,12.1-6.8A14,14,0,0,0,218.4,119Z"/><path class="cls-2" d="M240.3,100a32.09,32.09,0,0,1,4.3.7c.8-.1,1.7-.1,2.5-.2a34.73,34.73,0,0,0,7.1-1.6,15.21,15.21,0,0,0,5.6-3,16.35,16.35,0,0,0,3.7-5.3c.3-.7,1.4-.3,1.4.4a12.55,12.55,0,0,1-2.8,6.7,22.65,22.65,0,0,1-5.4,5.3,24.87,24.87,0,0,1-2.8,1.5,36.49,36.49,0,0,1,4.5,3.2c9-3.8,18.6-10.1,19.4-20.7.4-4.9-1.4-9.7-5.8-12.2a11.79,11.79,0,0,0-13.7,1.5c-.1.1-.2.1-.2.2C255.4,86,248.6,93.65,240.3,100Z"/><path class="cls-2" d="M244,187.85a7.37,7.37,0,0,1-1.4.4c-.4.1-.9.1-1.3.2a7.15,7.15,0,0,1-2.9-.1,12.32,12.32,0,0,1-5.3-2.1,6.89,6.89,0,0,1-1.3-1.1c0,.1.1.1.1.2a18.9,18.9,0,0,1,1,4.1c6.2,6.4,17,7.9,22.9.2a11.08,11.08,0,0,0,1.7-11.4c-1.8-3.9-5.6-6.7-9.7-6.7-.3,0-.7-.1-.9-.1a49.19,49.19,0,0,1-15.1,4.2c.6.9,1,1.9,1.4,2.6a23.71,23.71,0,0,0,2.8,4,13,13,0,0,0,3.5,3.1,7.58,7.58,0,0,0,4.5,1.3C244.5,186.55,244.6,187.65,244,187.85Z"/><path class="cls-2" d="M190.3,139.65c-6.3-.6-12.9,2.9-15.1,9.1-2,5.8,1,11.9,5.3,15.8a13.58,13.58,0,0,0,15,2.2c4.9-2.2,9.1-6.7,9.2-12.2C204.6,146.75,197.9,140.35,190.3,139.65Z"/><path class="cls-2" d="M94.6,58.05a30.31,30.31,0,0,1,28,6.3,51.54,51.54,0,0,1,1-20.7h0a13.25,13.25,0,0,1-2.2-3.4,15.64,15.64,0,0,0-1.7-2.5,22.73,22.73,0,0,0-4.9-4.4,26.28,26.28,0,0,0-7.2-2.8,15.14,15.14,0,0,0-3.7-.7c-1.2,0-2.4.3-3.5-.2a.61.61,0,0,1-.1-1c.9-1.2,2.6-1.2,3.9-1.6a12.88,12.88,0,0,1,2.1-.6,19.42,19.42,0,0,1,2.4-.2,18.82,18.82,0,0,1,9,2.3,22.37,22.37,0,0,1,6.6,5.2,31.75,31.75,0,0,1,2.1,2.7,42.73,42.73,0,0,1,4.8-7.9c-.1-.1-.2-.2-.2-.3-8.5-14.8-28.6-19.1-42-8.1a28,28,0,0,0-2.1,41.2A31.38,31.38,0,0,1,94.6,58.05Z"/><path class="cls-2" d="M136.7,223.05c13.2,4.1,31.1,2.9,38.5-10.5,0-.1.1-.1.1-.2a39.27,39.27,0,0,1-7.1-12,37,37,0,0,1-.9-21.1,60.41,60.41,0,0,1-11.1-1.5,3.66,3.66,0,0,1-1.4,1.7c-3.3,2.2-6.6,4.3-10.1,6.3a2.36,2.36,0,0,1-.6.9c-1.5,1.6-3.4,2.8-5,4.6a15.8,15.8,0,0,0-2.9,4.8c-1.2,3.5-1.2,7.4,1.6,10.2a1.41,1.41,0,0,1-1.7,2.2c-4.3-2.8-6.2-8.3-5.5-13.2.2-1,.5-2,.8-3a76.66,76.66,0,0,1-11.5,3.6,16.74,16.74,0,0,0,.8,15.8C124.2,217.35,130.4,221.05,136.7,223.05Z"/><path class="cls-2" d="M98.8,131.85a64.47,64.47,0,0,1,15.2-1c-3.8-10.1-2.7-22.9,4.8-30.3a21.77,21.77,0,0,1,12.4-6.1c-2.2-9.6-5.9-19.1-13.8-25.4A23.51,23.51,0,0,0,93.1,66c-9.4,4-15.4,13.2-16.9,23.1a38.62,38.62,0,0,0,5.1,24.4,54.63,54.63,0,0,0,7.7,10.2c1.5,1.5,3.1,3,4.7,4.4C94.6,128.75,97.9,132,98.8,131.85Zm-8-23.3c-.1.7-1,1.4-1.6.7-1.3-1.5-1.6-3.8-2.1-5.6a26.84,26.84,0,0,1-1.1-6.3,26.41,26.41,0,0,1,2.2-11.8,29.14,29.14,0,0,1,6.2-9.3,13.44,13.44,0,0,1,4.9-3.2,21,21,0,0,1,5.5-1.3,1.51,1.51,0,0,1,.7,2.8c-.7.5-1.6.8-2.3,1.4a16.18,16.18,0,0,0-1.8,1.9c-1,1.1-2.1,2-3.1,3.1a24.33,24.33,0,0,0-5,7.3,33,33,0,0,0-2.6,9.8,45.5,45.5,0,0,0-.4,5.2C90.3,105,91,106.75,90.8,108.55Z"/><path class="cls-3" d="M263.6,112.75c-.1,0-.1.1-.2.1a37.72,37.72,0,0,1,6.2,13.3c15.2,9.5,24.1,21.3,24.1,34.8,0,24.4-29.2,45.5-71.8,55.7-8.2,7-19.9,9.2-30.2,6.3-.9-.3-1.9-.6-2.8-.9-4.3.4-8.6.7-13,.9-10.9,10.3-28.9,11.2-42.8,6.2a36.43,36.43,0,0,1-15.2-10c-48.8-8.9-83.5-31.6-83.5-58.2,0-8.4,3.5-16.2,9.8-23.2a48.43,48.43,0,0,1-3.3-4.6,125.8,125.8,0,0,0-33.3,85.7c0,80.2,70.1,140.2,156.3,140.2s156.3-60,156.3-140.2C320.2,175,298.5,137.25,263.6,112.75Z"/><path class="cls-2" d="M73.9,145.55c1-1.1,2-2.2,3.1-3.2a39.56,39.56,0,0,1-4.5-1.5,27.4,27.4,0,0,1-9.6-6.9,24.71,24.71,0,0,1-5.3-10.6,18.24,18.24,0,0,1-.3-5.7,15.53,15.53,0,0,1,1.5-5.6,1,1,0,0,1,1.8.5,42.1,42.1,0,0,0,.4,5,30.06,30.06,0,0,0,1.4,4.9,21,21,0,0,0,5.2,7.6,22.75,22.75,0,0,0,8,4.9,27.2,27.2,0,0,0,4.9,1.3,25.34,25.34,0,0,1,3.8.7c.6-.3,1.1-.7,1.7-1a37.89,37.89,0,0,1,4.2-1.8c-7.6-6.1-14-13.7-17.8-22.8a44.78,44.78,0,0,1-2.9-23.1c-14.9-1.2-27.3,12-27,26.9C42.9,132.05,57.6,144.45,73.9,145.55Z"/><path class="cls-2" d="M196.2,216.85c9.1,1.6,18.8-1.6,24.5-9,5-6.5,7.1-16,3-23.5a29.65,29.65,0,0,0-14.8-12.9c.1.1.1.2.2.3a26.08,26.08,0,0,1,3.4,6.9,18.79,18.79,0,0,1,.5,8.8,21.93,21.93,0,0,1-3.3,7.7.93.93,0,0,1-1.7-.7c1.1-4.5.4-9.8-1.1-14.2a20,20,0,0,0-2.9-5.4c-.8-1.1-2-2.1-2.9-3.2a23.4,23.4,0,0,1-5.6,2.5,20.4,20.4,0,0,1-17.2-2.6c-5.5,8.7-6.8,19.5-2.5,29C179.7,209,187.1,215.25,196.2,216.85Z"/><path class="cls-2" d="M130.3,67.05c1,4.6,3,9.1,4.1,13.7.3,1.3,3.5,13.8,4,13.9a22.3,22.3,0,0,1,9.8,4.7c.3-8.1,3.2-16.3,9-22.1,6.6-6.6,16.1-8.9,25.1-7.2a22.26,22.26,0,0,1,4.4,1.3,56.51,56.51,0,0,0-2.4-30.2c-3.1-8.3-8.8-16.3-17.5-18.9A27.51,27.51,0,0,0,142.2,27c-7.9,6.2-12.2,15.6-13,25.5A55,55,0,0,0,130.3,67.05Zm10.8-15.2a34,34,0,0,1,4.4-7.9,21.16,21.16,0,0,1,9.3-6.3c2.4-.8,3.9-.7,4.5-.2,1,.9,0,3-2.5,4.9a24.84,24.84,0,0,0-3,2.5,39,39,0,0,0-5.2,6.9,36.62,36.62,0,0,0-4,8.2c-.7,1.9-.2,7.5-1.4,8.9-1.7,1.9-2.8-2-3.1-3.5C139.3,61.25,139.5,55.65,141.1,51.85Z"/><path class="cls-2" d="M194,28.05a19.17,19.17,0,0,1,10.3-8.5c3.8-1.2,8.9-1,12,1.7.9.8-.1,1.9-1,1.8a13.69,13.69,0,0,0-5.7,0,14.15,14.15,0,0,0-4.7,2.1,22.24,22.24,0,0,0-6.6,7.7,38.2,38.2,0,0,0-3.5,11c-.4,2.1-.5,4.1-.8,6.2a4.1,4.1,0,0,0-.1,1.1,52.87,52.87,0,0,1,.7,8c4.5-6,9.8-11.4,16.4-15.1a36.79,36.79,0,0,1,21.2-4.5,23.22,23.22,0,0,0,0-19.3A24.28,24.28,0,0,0,216,7.15c-14-3.7-28,4.5-34.1,17.1a44.23,44.23,0,0,1,8.1,13.1A35.76,35.76,0,0,1,194,28.05Z"/><path class="cls-2" d="M251.9,62.65c-1.6-8.9-8.5-14.7-17.1-16.3-19.5-3.8-33.5,13-41.6,28.5a28.61,28.61,0,0,1,9.6,11.6,30.9,30.9,0,0,1,2.4,17.8,15.08,15.08,0,0,1,4.8-.5,15.59,15.59,0,0,1,7.1,2.2c9.3-4.6,18.7-9.5,25.9-17.2C249.2,82,253.5,72.05,251.9,62.65Zm-8.8,13.9c-2.9,7.8-7.7,14.1-15.6,17.3-.8.3-3.1,1.7-3.5.4-.3-.9,2.1-2.7,2.6-3.3,4.2-4.6,8.2-9.7,10.2-15.7a30.88,30.88,0,0,0,1.9-10.9,16.27,16.27,0,0,0-.9-6.6c-.6-1.4-2.4-3.7-1-5.2s3.4.3,4.4,1.1c2.5,2.2,3.5,6.5,3.7,9.7A29.63,29.63,0,0,1,243.1,76.55Z"/><path class="cls-3" d="M94.6,67.05c-3.1.7-5.9,2.6-8.3,4.3-5.7,3.9-8.5,10.5-9.5,16.9a36.81,36.81,0,0,0,7.5,29.2,5,5,0,0,0,1.5,1.4c2.4,1.2,3.2-1.5,2.7-3.1-1-3.3-3.1-6.3-4.1-9.7-2.2-7.4-2.6-14.6.2-22a30,30,0,0,1,5.5-9.2,31.65,31.65,0,0,1,8.2-6.7c.4-.3.9-.8.6-1.1-.1-.2-.4-.2-.6-.2A9.16,9.16,0,0,0,94.6,67.05Z"/><path class="cls-3" d="M157.2,23.65a20.41,20.41,0,0,0-4.1.7c-4.8,1-8.5,3.8-11.8,7.3-3.9,4.2-6.3,9.5-8,14.8-2.8,8.9-1.9,19,.6,27.8.9,3,2.2,6.1,4.7,8.1a1,1,0,0,0,1.7-1c-.5-2.7-1.4-5.1-1.6-7.8s-.6-5.2-.7-7.8a48.05,48.05,0,0,1,1.8-16A50.66,50.66,0,0,1,146.1,36c3-4.4,6.5-7.5,11.6-8.9a1.8,1.8,0,0,0,.8-3A1.84,1.84,0,0,0,157.2,23.65Z"/><path class="cls-3" d="M144.7,103.65c-3.2-4.5-13-3.6-17-1a19.85,19.85,0,0,0-8.7,18.5,22.89,22.89,0,0,0,3.4,10.2c1.6,2.6,3.4,5.3,6.4,6.4,1.3.5,3.7,1.2,4-.4s-2-4-2.8-5.2c-5.8-8.7-6.3-27.9,8.3-27.7,1.9,0,3.5,1,5.3,1.1A1.25,1.25,0,0,0,144.7,103.65Z"/><path class="cls-3" d="M199,99.75a25.83,25.83,0,0,0-1.5-8.8,24.3,24.3,0,0,0-7-10.3,19.5,19.5,0,0,0-11.5-4.6,25.66,25.66,0,0,0-9.5,1.6c-6.4,2.2-12.7,7.5-12.2,14.9a1.4,1.4,0,0,0,.3.9.79.79,0,0,0,1.1-.1,2.66,2.66,0,0,0,.6-1c1.6-3.6,4.4-7.1,8.1-8.6a18.77,18.77,0,0,1,13-.7c10.5,3.4,16.4,17.3,12.5,27.5a1.13,1.13,0,0,0-.1.8.83.83,0,0,0,1,.5,3.33,3.33,0,0,0,1-.6A18.1,18.1,0,0,0,199,99.75Z"/><path class="cls-3" d="M214.8,121.15a7.52,7.52,0,0,0-2.1-5.7,7.4,7.4,0,0,0-4.4-2.4,8.68,8.68,0,0,0-2.8.1c-.9.3-3.5,2.1-1.7,3a3.59,3.59,0,0,0,1.8.2c4-.1,5.8,5.6,6.5,8.7a2.22,2.22,0,0,0,.5,1.1c.9.7,1.5-1.1,1.7-1.6a7.34,7.34,0,0,0,.5-2c0-.2.1-.5.1-.7v-.3C214.7,121.85,214.7,121.75,214.8,121.15Z"/><path class="cls-3" d="M165.4,151.75c-3.6-2.2-7.2-4.3-11.3-5.4-2.9-.7-19.1-3.1-18,3.4.2,1.5,5.3.6,6.2.6,10.4-.9,19.5,3.8,27.9,9.3a3.69,3.69,0,0,0,1.4.7c3.4.8-.2-4-.8-4.6A26,26,0,0,0,165.4,151.75Z"/><path class="cls-3" d="M134.3,175.55a50.31,50.31,0,0,1-41.2,3.3c-12.1-4.4-16.3-18.4-10-29.4a1.16,1.16,0,0,0-1.8-1.4c-9.3,10.5-5.5,29,6.4,35.6,7.3,4.1,16.4,5.2,24.9,4.2,8.7-1.1,17.4-2.4,25.2-6.4C141.7,179.45,138.1,173.35,134.3,175.55Z"/><path class="cls-3" d="M165.4,211.75c-8.5,5.1-18.2,4.8-27.1,1-2.3-1-6.9-5.7-9.4-4.2-1.7.9-.5,3.9.5,5a19.8,19.8,0,0,0,6.6,5.2,24.25,24.25,0,0,0,11.9,2.1,39.2,39.2,0,0,0,11.2-2.3c2.7-1,6.3-2.5,7.8-5.1C167.3,212.45,166.4,211.15,165.4,211.75Z"/><path class="cls-3" d="M263.9,134a28.57,28.57,0,0,0-1.7-8.9,15.57,15.57,0,0,0-3.7-6.2c-1.2-1.2-4.4-3.4-6.1-2.4a.91.91,0,0,0,.3.7c13.3,16.6-1.6,38.2-18,44.5a40.28,40.28,0,0,1-10.3,2.2c-3.3.4-5.5-.8-8.8-1-2.8-.2-.7,2.4.2,3.1,2.7,2,5.8,2.5,9,2.9a26.63,26.63,0,0,0,11.9-1.1,48.7,48.7,0,0,0,18.6-12.4A30,30,0,0,0,263.9,134Z"/><path class="cls-3" d="M222.7,185.15a16.49,16.49,0,0,0-3.1-4.5,4.61,4.61,0,0,0-2.6-1.5,1.94,1.94,0,0,0-2.2,1.7c0,2,1.2,4.8,1.7,6.8a34.7,34.7,0,0,1,1.5,7.8,27.32,27.32,0,0,1-5.6,16.7c-.6.7.5,1.5,1.2,1.2,6-3.1,9.3-9.4,10.2-15.9C224.5,193.15,224.4,188.85,222.7,185.15Z"/><path class="cls-3" d="M253.9,185.15a2.67,2.67,0,0,0-2.2-.5c-2.2.3-3.7,2.6-5.7,3.4a12.25,12.25,0,0,1-13.4-2.3c-.9-.7-2.2-.1-1.8.8a13.49,13.49,0,0,0,3.9,4.4,17.19,17.19,0,0,0,6.4,3c4.7.8,9.9-.3,12.3-4.6C254.3,188,254.8,186.05,253.9,185.15Z"/><path class="cls-3" d="M248.3,56.45a17.12,17.12,0,0,0-7.2-6.9,10.56,10.56,0,0,0-6.7-1.3c-.1,0-.2,0-.2.1-.2.1-.2.5-.1.7a4.23,4.23,0,0,0,.7.5c5,2.1,7.9,3.6,9.3,9.2,1.6,6.5.2,13.6-2.5,19.6a37.81,37.81,0,0,1-9.8,12.9,51.22,51.22,0,0,1-6.6,4.9c-2.3,1.4-4.7,2.5-6.7,4.4-1,1-.2,2.3,1,2.5,1.7.3,4.8-1.4,6.2-2.2,8.9-5.2,18.5-12.4,22.3-22.2a33.1,33.1,0,0,0,2.1-17.3A19,19,0,0,0,248.3,56.45Z"/><path class="cls-4" d="M150.3,352.25c-.3-5.3-.8-10.2-3.6-14.9a23.4,23.4,0,0,0-11.6-9.9,29.48,29.48,0,0,0-8.4-1.3,28.1,28.1,0,0,0-16.5,4.4,22.08,22.08,0,0,0-9.6,16.8,176.33,176.33,0,0,0,49.3,11.1A30.79,30.79,0,0,0,150.3,352.25Z"/><path class="cls-4" d="M25.1,229.75a10,10,0,0,0,12.6-5,13.86,13.86,0,0,0,.9-4.5,11.08,11.08,0,0,0-.8-4.4,9.93,9.93,0,0,0-9.2-6.1C18.2,210,15.9,225.75,25.1,229.75Z"/><path class="cls-4" d="M87.2,292.65c.4,5.9,5.9,12.9,12.1,13.2,7.4.3,11-8.5,9.3-14.6C105.5,279.75,86.3,279,87.2,292.65Z"/><path class="cls-4" d="M51.3,317a10.66,10.66,0,0,0,3-.6c4.3-1.6,7.2-6,8-10.5s-.3-9.2-2-13.5c-2-5.1-5-10-9.4-13.4s-10.1-5.2-15.5-4c-6.2,1.4-9.6,4.4-11,8.1A135.45,135.45,0,0,0,51.3,317Z"/><path class="cls-4" d="M74.4,226c5.4,3.3,14.1,2.9,18.3-.6,4.5-3.7,4.4-8.1,2.2-11.6a176,176,0,0,1-17.4-6.3c-1.4-.6-5,3.9-5.6,4.8a10.72,10.72,0,0,0-2,7.1A9.17,9.17,0,0,0,74.4,226Z"/><path class="cls-4" d="M317.2,191.35a12.33,12.33,0,0,0-6.1-.1c-14.5,3.2-13.6,27.4,2.5,22.6a12.23,12.23,0,0,0,6.2-4.4A119.56,119.56,0,0,0,317.2,191.35Z"/><path class="cls-4" d="M303.2,283.45a22.19,22.19,0,0,0-3.2-6.1c-3.6-4.5-9.6-6.7-15.4-6.6a29.9,29.9,0,0,0-13.1,3.3,23,23,0,0,0-11.3,16,34.08,34.08,0,0,0-.5,4.6c-.2,10.3,3.9,22.1,13.3,25.5A141.29,141.29,0,0,0,303.2,283.45Z"/><path class="cls-4" d="M247.1,247.85c10.3,1.3,21.7-2.7,26.8-11.9a24.35,24.35,0,0,0,1.8-18.7,26.49,26.49,0,0,0-9.2-13.1,23,23,0,0,0-4.3-2.5,152,152,0,0,1-35.2,13.7c-.3,1.4-.6,2.9-.8,4.4-.9,6.7.4,13.7,4.5,19.1C234.5,244.05,240.6,247.05,247.1,247.85Z"/><path class="cls-4" d="M200.3,331.85a13.08,13.08,0,0,0,5.1,1.5c5.6.3,10.8-3.9,13.1-9,4.7-10.5-5.1-23.3-16.7-19.1C190.5,309.15,190,326.45,200.3,331.85Z"/><path class="cls-4" d="M170,278.55c1.9-9.3,1.3-20.1-5.5-26.6-9.3-8.8-28.8-7.4-36.6,2.7-6.6,8.5-9,17.5-5.8,28.2,2,6.8,6.7,13,13.2,15.8,6.2,2.7,14.4,3.7,20.9,1.1,8.2-3.2,11.8-12,13.6-20A5,5,0,0,0,170,278.55Z"/><path class="cls-5" d="M195.9,145.65a10.39,10.39,0,0,0-5.5-4.4,10.15,10.15,0,0,0-7.8,1.1,11.19,11.19,0,0,0-4.8,5.7,20.21,20.21,0,0,0-.6,3.4,7,7,0,0,0,.3,3.5.76.76,0,0,0,1.5-.2c.1-1.8.3-3.8,1.6-5.2a17,17,0,0,1,1.9-1.9,7.16,7.16,0,0,1,1.9-1.3,16.15,16.15,0,0,1,2.5-.7,22.53,22.53,0,0,1,2.6,0,11,11,0,0,1,2.6.2,8,8,0,0,1,2.6.9C195.5,147.15,196.4,146.35,195.9,145.65Z"/><path class="cls-5" d="M166.2,115.05a8.06,8.06,0,0,0-3.2-3.4,10.32,10.32,0,0,0-4.9-1.4,15.69,15.69,0,0,0-9.4,2.5,15.22,15.22,0,0,0-6.1,8c-1.1,3.1-.7,6.5.1,9.6.2.7,1.4.6,1.3-.2a16.88,16.88,0,0,1,2-7.6,15.36,15.36,0,0,1,4.7-6,11.11,11.11,0,0,1,6.9-1.9,13.5,13.5,0,0,1,3.5.6,11.63,11.63,0,0,1,1.8.4,10.66,10.66,0,0,0,1.9.7A1.1,1.1,0,0,0,166.2,115.05Z"/></g></g></svg>