<svg xmlns="http://www.w3.org/2000/svg" viewBox="0 0 285.58 389.31"><defs><style>.cls-1{fill:#bababa;}.cls-2{fill:#5cdbac;}.cls-3{fill:#1d3642;}</style></defs><g id="Layer_2" data-name="Layer 2"><g id="Слой_1" data-name="Слой 1"><path class="cls-1" d="M256.73,173.71c-6.5,0-6.5,10.1,0,10.1S263.23,173.71,256.73,173.71Z"/><path class="cls-1" d="M218.23,209.61c-6.5,0-6.5,10.1,0,10.1S224.73,209.61,218.23,209.61Z"/><path class="cls-1" d="M253.63,161.21c-4.3,0-4.3,6.7,0,6.7S257.93,161.21,253.63,161.21Z"/><path class="cls-1" d="M241.83,256.81c-6.5,0-6.5,10.1,0,10.1S248.33,256.81,241.83,256.81Z"/><path class="cls-1" d="M268.93,263.81c-6.5,0-6.5,10.1,0,10.1S275.43,263.81,268.93,263.81Z"/><path class="cls-1" d="M248.83,290.11c-8.7,0-8.7,13.5,0,13.5S257.53,290.11,248.83,290.11Z"/><path class="cls-1" d="M185,271.71c-8.7,0-8.7,13.5,0,13.5S193.63,271.71,185,271.71Z"/><path class="cls-1" d="M152.63,348.51c-4.3,0-4.3,6.7,0,6.7S156.93,348.51,152.63,348.51Z"/><path class="cls-1" d="M174.53,312c-8.7,0-8.7,13.5,0,13.5S183.13,312,174.53,312Z"/><path class="cls-1" d="M185.73,242.61c-1.6-3.3-7.9-4.1-12.2-4.3-10.1-.4-20.2-2-30.3-2.6-13.2-.7-26.7-1.1-39.4-5.3-5.4-1.8-10.6-4.8-4.8-9.6,1.5-1.2,9.3-3.9,7.1-5.6a12.72,12.72,0,0,0-6-2.1c-4.5-.7-10.7,4.4-13.8,2.8-3.7-1.9-3-9.5-5.5-12.5-2.8-3.2-7.3-3.6-10.3-6.6-4-3.9-6.6-9.2-10.7-13.1-3-2.8-6.3-3.4-10.4-4.2-6.1-1.1-16.8-1.2-16.9-9.7a95.45,95.45,0,0,1,2.1-22c.5-2.2,3.2-11-1.6-10.5s-10.8,8.3-13.5,11.8c-4.6,6.1-5.1,13-1.8,20.3,3,6.5,8.2,11.7,13.3,16.8,12.5,12.4,25,24.7,37.5,37.1,7.6,7.5,16,15.5,26.5,17.2-7.3-1.2-14.6,2.3-21.7.2a34.29,34.29,0,0,1-13.8-8.6c-17.8-17.3-35.5-34.6-53.3-51.9,6.9,6.7-1.5,30-1.7,38.4-.3,19.6.7,39.3,1.6,58.9,1,22.5,17,40.9,29.8,58.3,6.4,8.8,13.2,17.3,20.3,25.6,2.9,3.4,5.8,7.8,9.1,10.8,4.9,4.5,15.4,11,22.3,10.2,7.4-.9.4-11.4,2.8-17a125.51,125.51,0,0,1,10.3-19.1,287.14,287.14,0,0,1,25-33.1c3.7-4.3,7.5-8.5,11.3-12.7-3.9-4-2.2-12.6,5-12.6a6.73,6.73,0,0,1,4.8,1.8c2.5-2.7,5-5.5,7.5-8.2,6.1-6.7,12.1-13.5,18.1-20.3,4-4.5,9.8-8.3,12.6-13.8C186.23,245.31,186.33,243.81,185.73,242.61Zm-159.9-20.8c5.3,0,5.3,8.3,0,8.3S20.53,221.81,25.83,221.81Zm1.8,75.5c-5.2,0-5.2-8,0-8S32.73,297.31,27.63,297.31Zm4.3-22.9c-7.1,0-7.1-11,0-11S39,274.41,31.93,274.41Zm71.7,32.8c-5.5,0-5.4-8.5,0-8.5S109.13,307.21,103.63,307.21Zm13.2-32.1c-9.2,0-9.2-14.3,0-14.3S126,275.11,116.83,275.11Z"/><path class="cls-2" d="M143.43,209.91c-2.6,0-5.3-.7-7.9-.2a2,2,0,0,0-1.2.6,2.55,2.55,0,0,0-.4,2.1c.8,3.9,2,7.2,4.7,10.2,3.2,3.5,8.9,5.5,13.5,6.1,1.1.2,3.5-.8,1.7-2.1a19,19,0,0,1-2.1-1.9,7.51,7.51,0,0,1-2.5-5.6c.1-2.7,2.1-3.6,3-5.7C154.73,207.91,145.93,209.91,143.43,209.91Z"/><path class="cls-2" d="M69.53,155.61a5.74,5.74,0,0,1-.7-.4c-4.3-2.1-9-2.2-13.3-4.3-2.3-1.1-10-5-12.3-2.5-2.7,3,0,11.9,1.7,14.7a15.68,15.68,0,0,0,12.9,7.7,12.39,12.39,0,0,0,4.3-.5C65.93,169.21,74.93,158.91,69.53,155.61Z"/><path class="cls-2" d="M127.63,206.11c1.8-4.7-.9-9.5-3.4-13.3-1.4-2.1-3.5-8.4-5.5-9.5a13.89,13.89,0,0,0-1.9-.6c-2.4-.9-3.2-3.7-3.8-6.2a152.68,152.68,0,0,1-2.9-15c-.6-4.9.1-8.2,1.4-13,.5-1.9.8-4.2-.6-5.4a6.33,6.33,0,0,0-3.1-1,39.14,39.14,0,0,1-12.1-3.5c-8.3-4.1.8,8.4,1.7,10.2,3.2,6.8,1.3,14.1-4.1,19.2a34.24,34.24,0,0,1-6.1,4.7,36.37,36.37,0,0,1-6.2,3.2,2.1,2.1,0,0,0-1.4.7,1.64,1.64,0,0,0-.6,2.1c3.9,8.3,15.4.1,18.6,8.8,2.3,6.3-2.6,10.6,2.1,16.6,3.9,5,12.1,8.9,18.3,9.1a11.58,11.58,0,0,0,3.2-.3,8.24,8.24,0,0,0,3.5-2.3A12,12,0,0,0,127.63,206.11Z"/><path class="cls-2" d="M146.83,164c-.2-3.3-.1-7.1,2-9.7,3.8-4.6,17.2-4.4,22.2-2.4.9.4,2.5.8,3-.4.9-2.1-4.4-2.6-3.6-5.7s5-3.7,7.5-4.3c7.2-1.8,11.8-6.8,14.8-13.5,2.1-4.6-4.2-.4-5,.4-2.8,2.6-5.6,4.7-9.4,5.6-1.2.3-2.4.5-3.6.7-.3.1-.6.1-1,.2h-.3a10.28,10.28,0,0,1-1.7.1c-4,.2-11.1.5-13.8-3.3s.6-8.8,3.4-11.5a23.22,23.22,0,0,1,4.9-4c2.9-1.7,6.4-2.2,9.8-2.7,1.8-.3,3.5-.5,5.3-.8,6.6-1,8.7-3.7,9.2-10.2a21.92,21.92,0,0,0-.8-7.6,7.16,7.16,0,0,0-2-3.6,4.94,4.94,0,0,0-4.4-1c-5.2,1.6-7.6,8.3-10.3,12.4a23.33,23.33,0,0,1-13.9,9.2c-5,1.1-12.1.7-10.9-6.4,1.2-7.3,5.2-14,5.7-21.3a46.11,46.11,0,0,0-.3-8.3,47.9,47.9,0,0,0-4.8-15.6c-2.1-4.1-5.4-10.1-10.9-9.3-5.1.7-9.1,5.5-12.4,9.1-2.6,2.9-9.1,10.8-8.1,15s11.6,6.8,14.9,9.4c4.8,3.7,15.1,15.5,6.3,21.3-3.3,2.2-7.8-.7-8.7-4.1-1.2-4.8-1.3-7.4-6.5-10.1-4.1-2.1-8.4-3.9-12.6-5.7-2.1-.9-4.2-1.7-6.3-2.6a60.08,60.08,0,0,0-7-2.8,2.9,2.9,0,0,0-3.6,2.7,107.46,107.46,0,0,0,.1,13.9q.3,3.45.9,6.9c.5,2.3.9,4.4,2.6,6.1.2.1.3.2.5.3,1.5,6,9,3.5,13.5,3,13.2-1.7,37.9.5,34.1,19.5-.9,4.5-4.1,2.8-7.5,3.5-4.4.9-3.9,5.2-.6,7.3,2.1,1.3,11.6,5.1,3,6.3-8.3,1.1-12.5-6.4-17.3-11.6-3.5-3.7-8.7-5-13.4-6.3a30.8,30.8,0,0,1-13.4-7.5c-2.5-2.3-4-5.1-7-6.9-.9-.5-2-1-2.8-.4-1.7,1.4-1.8,6.3-1,8.2s3.4,3.2,5,4.6c5.6,4.6,11.3,8.5,18.3,10.6,4.1,1.3,6.9.3,4.9,4.3-.5,1-5.2,10,.3,6.7,2.7-1.6,2.7-6.4,5.7-7.3,1.7-.5,3.5.7,4.7,2,6.5,7.2,4.7,20-1.4,26.6-1.9,2-5.1,4.4-3.1,7.5.7,1.1,1.9,1.4,2.6,2.7a12.23,12.23,0,0,0,1,2.4,9.41,9.41,0,0,0,4.5,3.1,21.39,21.39,0,0,0,5.6,1.1c2.5.4,5,.7,7.5,1a38.9,38.9,0,0,0,11.3,0,13.68,13.68,0,0,0,8.8-6.2,22.92,22.92,0,0,0,2.9-7.5c.4-1.7,2.2-4.3.3-5.6-1-.7-1.6-.3-2.5-.1a22.71,22.71,0,0,1-7.8.1,11,11,0,0,1-6.5-3.7C146.83,167,146.93,165.41,146.83,164Z"/><path class="cls-2" d="M86,129.11c-.3-2.2-1.6-4.9-2-6.4-.8-3.4-1.4-6.8-.4-10.2,2.4-7.9,1.4-23.3-10.9-18.5a49.78,49.78,0,0,0-6.2,2.9c-3.8,1.9-7,4.9-10.1,7.9-4.6,4.5-8.5,8.6-14.9,10.4a4.93,4.93,0,0,0-2.3,1.1c-1.2,1.2-.8,3.3-.2,4.9a26.87,26.87,0,0,0,5.3,9.1c6.4,6.8,16.3,7.9,25.1,6.5,3.5-.6,14.4-1.6,16.4-5.4A5.83,5.83,0,0,0,86,129.11Z"/><path class="cls-2" d="M106.13,63.61a20.5,20.5,0,0,0-3.3-6.2,20.92,20.92,0,0,0-11.6-6.6c-3.6-.7-7.3-1.1-10.5-2.8a5.34,5.34,0,0,0-2.9-1c-1.7.2-2.4,2.3-3,4-1.4,3.9-4.5,6.9-6.2,10.7-1.8,4.1-2,8.9-1.6,13.2.3,2.6.1,6.3,3.1,7.1,8.8,2.3,10.8-9,12.8-14.7.9-2.5,1-7.7,4.4-8.1a6,6,0,0,1,4.4,1.6c1.3,1,2.3,2.3,3.6,3.3a22.24,22.24,0,0,0,5.5,2.9,8,8,0,0,0,3.3.8C106.53,67.51,106.73,65.71,106.13,63.61Z"/><path class="cls-2" d="M156.33,28c-1.9-2.5-14.6-15.5-18.1-13a5.33,5.33,0,0,0-1.6,2.3c-1.4,2.6-3.7,4.5-5.9,6.4-4.8,4.1-9.6,8-13.9,12.7-3.5,3.8-6.9,7.1-9,11.9-.9,2.1-1.5,4.7-.2,6.7.3.5.9,1,1.5.8s.8-.7,1.1-1.2c2.9-5.6,6.4-10.3,12.1-13,4.7-2.2,11.7-4.9,12.8-10.7.3-1.3.1-2.6.3-3.9a3.9,3.9,0,0,1,2.1-3.1,4.32,4.32,0,0,1,3.3.6A30.07,30.07,0,0,1,155,39.11a47.42,47.42,0,0,0,2.4,5.1c4,6,5.1-1.3,4.4-5A26.73,26.73,0,0,0,156.33,28Z"/><path class="cls-2" d="M196,45.61a31.73,31.73,0,0,0-1.5-5.5c-.5-1.5-4.8-12.3-6.7-9.1-1.1,1.8-1.7,3.9-2.8,5.7a19.45,19.45,0,0,1-4.1,4.9c-3.4,3.2-7.2,6-10.2,9.6-4.9,6.2-7.2,18.2-4.9,25.8,1.2,3.9,7,2.6,10.3,1.7a13.49,13.49,0,0,0,4.8-2.7,16.32,16.32,0,0,0,2-1.7,10.59,10.59,0,0,0,1.9-2.3,10.59,10.59,0,0,0,1.2-1,2.65,2.65,0,0,0,.6.5,3.71,3.71,0,0,0,3.4.1c-1.3.6,1,4.4,3.1,3.7,2.6-.9,2.6-6.6,2.9-8.6A64.94,64.94,0,0,0,196,45.61Z"/><path class="cls-2" d="M169.63,205.11l1,.3c.1,0,.3.2.4.2,1.3.7,2.5,2.6,4.2,2a2.68,2.68,0,0,0,1.6-2.6c.2-2.4-1-4.5-1.9-6.6a19.33,19.33,0,0,1-1.6-4.6c-.2-.9-.3-1.7.7-2,1.5-.5,3,.3,4.3,1.1s2.6,1.8,4.2,1.8a9.73,9.73,0,0,0-1.1-2.3c-2.3-4.5.6-7.9,4.5-9.9a27,27,0,0,1,10.7-2.8,30.11,30.11,0,0,1,12.2,2,27.31,27.31,0,0,1,5.6,3c1.8,1.3,3.4,3,5.8,3.2,3,.2,2.6-3.8,1.8-5.5-.2-.4-.5-.9-.7-1.3-.7-1.6-1.2-4.2-2.5-5.5-1-.9-2.5-1-3.9-1.2a38.75,38.75,0,0,1-5.9-1.3c-3.8-1.1-8.1-3.1-7.9-7.8.1-2.8,2-3.7,4.5-4.3,2.9-.7,5.7-1.2,8-3.2,3-2.7,4.1-7,6.6-10,1.1-1.3,2.3-1,2.5-3.1.2-1.7-2.2-4.5-3.2-5.7-1.8-2.1-4.3-3.3-6.1-5.4a6.33,6.33,0,0,1-1.6-3.4c-.1-2,1.7-2.7,3.5-3,4-.7,7.9,1.2,11.4,3.2a14.67,14.67,0,0,1,5.1,4.8c1.6,2.2,3.8,2.5,5.7.3,1.6-1.8,4.7-3.4,5.1-6a3.3,3.3,0,0,0,0-1.4c-1.1-6-7.6-13.6-13.9-11.7-1.3.4-2.6.7-3.8,1.1-.7.3-1.8,1.1-2.6.6a24.05,24.05,0,0,1,2.1-2.4,37.46,37.46,0,0,0,2.6-3.3,17.78,17.78,0,0,0,2.3-5.3,20,20,0,0,0,.3-6,53.77,53.77,0,0,0-.7-6.9c-.2-1.1-.5-2.2-.8-3.3a16.67,16.67,0,0,0-.8-2,5.8,5.8,0,0,0,1.2-1c1.4-1.6.1-4.4-2.2-3.8a15.68,15.68,0,0,1-2.9.8,13.82,13.82,0,0,1-3.5-.3,62.92,62.92,0,0,1-7.4-2.2c-4.6-1.4-9.2-1.7-13.5.8a4.9,4.9,0,0,0-2.6,4.2,8.3,8.3,0,0,0,.6,2.1,28.3,28.3,0,0,1,.6,16.3c-1.6,6,1.3,4.2,5.1,6,9.5,4.6-1.4,21.2-6,25.2a61.2,61.2,0,0,1-11.9,7.5c-2.9,1.6-4.4,1.3-7.1,1.7-1.6.2-3.7-.8-3,2.4.4,1.9,4.5,4.3,5.9,5.9a24.23,24.23,0,0,1,4.2,7.1,29,29,0,0,1,1.5,7.1,26.62,26.62,0,0,1-.3,3.9,36,36,0,0,0-15.5-.6,3.54,3.54,0,0,0-1.1.3,3.78,3.78,0,0,0-1.7,2.8,28.07,28.07,0,0,1-2.4,8.1,30.28,30.28,0,0,0-3.5,10.5,31.12,31.12,0,0,0,.5,8.6c.2,1.2.3,2.3,1.6,2.3s2.7-.5,4.2-.3c.1,0,.4,0,.4.1a4,4,0,0,1,3.1,3c.7,2.3.5,4.7,1.1,7,.1.4.4.9.9.9a.85.85,0,0,0,.5-.3,11.87,11.87,0,0,0,3.2-7.3"/><path class="cls-3" d="M106.63,49.61a8.88,8.88,0,0,0-3.1-5c-3.1-2.9-7.1-4.3-11.1-5.4-7.7-2.1-11.5-4.7-13.9-12.8a1.27,1.27,0,0,0-.4-.6,2.09,2.09,0,0,0-.4-.6,1.05,1.05,0,0,0-1.6.2.6.6,0,0,0-.1.4,1.6,1.6,0,0,0-.4,1.1,13.4,13.4,0,0,0-.1,2c-.7,4.6-4.5,8.1-7.6,11.4a49.69,49.69,0,0,0-9.2,13.5c-2.1,4.7-3.6,9.7-2.9,14.9a27.59,27.59,0,0,0,1.9,6.8,15.21,15.21,0,0,0,4.2,5.8,1.08,1.08,0,0,0,1.7-1.3c-3.9-9.2-.5-20,4.3-28.2,1.4-2.5,6.7-13,9.8-12.4,1.2.2,2.1,1.2,3.1,2,4.8,3.9,11.5,3.6,16.8,6.3a12.73,12.73,0,0,1,3.9,3,12.88,12.88,0,0,1,1.6,1.7,6.48,6.48,0,0,1,1.1,2.2,1.06,1.06,0,0,0,2,0A8.4,8.4,0,0,0,106.63,49.61Z"/><path class="cls-3" d="M166.33,25.81c-1.8-3.8-5.5-5.9-8.5-8.5-2.8-2.5-6-4.7-8.4-7.7-1-1.3-10-14.7-10.6-7.5a7.54,7.54,0,0,1-.9,2.9,16.66,16.66,0,0,1-3.7,4.6,28.69,28.69,0,0,1-5.4,3.7c-2.1,1.1-4,2.4-6,3.7a53,53,0,0,0-9.8,7.9,22.33,22.33,0,0,0-3.7,5c-1.4,3-3.3,12.7,1.7,6.2.9-1.2,2-3,3-4.4a32,32,0,0,1,4.3-4.7c3.4-3.1,7.4-5.4,11.2-8a46,46,0,0,0,10-9.2c.3-.4.6-.9,1-1.5a30.2,30.2,0,0,0,1.8,3.6,26.65,26.65,0,0,0,11,10.3c4.8,2.3,8.5,2.9,10.6,8.5a26.17,26.17,0,0,1,1.2,6.2,1,1,0,0,0,1.8.5C169.53,33.71,168.13,29.51,166.33,25.81Z"/><path class="cls-3" d="M204.93,48.51c-.9-7.1-2.9-14-7.2-20a33.18,33.18,0,0,0-7-7c-1.7-1.2-9.1-5.9-10.9-3.5-.5.7.5,3,.6,3.7.4,3.3.1,7-2.2,9.7-2.7,3.2-6.8,5-10.1,7.5a24.19,24.19,0,0,0-7.6,8.3,47.92,47.92,0,0,0-3.1-7.9,32,32,0,0,0-10.9-12.2c-2.6-1.7-10.6-6.2-13.7-4.2-1.8,1.1-.1,3.8.1,5.4.3,2.2-.7,4.6-1.8,6.4-2.5,4.1-6.4,6.3-10,9.2s-7.3,5.4-9.8,9.4c-1.8,2.9-1.2,7.8-.7,11,.1.8.6,1.9,1.5,1.7.7-.1.9-1,1-1.8.8-12.4,8.3-13.4,16.9-20.2,3.4-2.7,6.7-6.5,7.5-10.9a14.09,14.09,0,0,0-.1-5.4,32,32,0,0,1,16.4,15.2,83.71,83.71,0,0,1,5.5,14.7c.7,2.6,1.3,5.1,1.8,7.7.6,2.9.8,5.9,1.9,8.6.4,1,2.2,1.4,2.4,0,.8-5.2-.7-11-2-16.2a16,16,0,0,1,1.1-4.3,18.62,18.62,0,0,1,3.2-4.7c3-3.2,6.5-5.8,9.6-8.8a24.39,24.39,0,0,0,6.3-10.3,15.69,15.69,0,0,0,.6-6.1,3.59,3.59,0,0,0-.2-1.1,37,37,0,0,1,10,8.9c5.2,6.8,5.9,15,7.6,23.1a30.92,30.92,0,0,1,.7,5.2,49.07,49.07,0,0,0,.4,5.5,1.3,1.3,0,0,0,2.5,0,27.46,27.46,0,0,0,.5-5.7C205.53,55.91,205.43,52.21,204.93,48.51Z"/><path class="cls-3" d="M246.93,76.51a1.39,1.39,0,0,0-2-1.2c-1.9,1.3-3.1,2.4-5.5,2.7a15.32,15.32,0,0,1-7-1c-5.8-1.8-11.2-5.1-17.2-6.1-5.7-1-10.8-.4-15.5,3.2a21,21,0,0,0-4.9,5.6c-.2-.4-.4-.9-.6-1.4a13.57,13.57,0,0,1-1.2-5.9c0-1.3.5-2.7.6-4.1a5.82,5.82,0,0,0,.3-1.9,1.55,1.55,0,0,0-2.6-1.1c-.2.2-.3.4-.5.6a3.11,3.11,0,0,0-.7.9,36,36,0,0,1-3.7,4.1,26.46,26.46,0,0,1-6.6,4c-5.6,2.3-11.5,3.9-16.7,7-4.4,2.7-7.7,6.7-10.8,10.7a29.5,29.5,0,0,0-5.8,13.3c-.1.7.7,1.1,1.1.5,1.3-2.1,3-4.1,4.4-6.1a35.11,35.11,0,0,1,4.8-6c3.7-3.5,8.3-6.1,12.9-8.4,5.3-2.7,10.9-4.6,15.8-8.1.9-.7,1.9-1.4,2.9-2.2,0,3.9,1.3,7.5,2.9,11,1.4,3.1,3.2,6.1,4,9.4a22.21,22.21,0,0,1,.3,4.5c0,1.6-.9,2.8-1.2,4.4-.2,1.2.8,2.6,2.1,2.1,3-1.1,4.6-5.2,4.8-8.1a21.68,21.68,0,0,0-2.1-10.6,40.18,40.18,0,0,0-2.4-4.6,11,11,0,0,1,2-2.8,12.74,12.74,0,0,1,6.5-3.6c6-1.2,11.7.4,17.3,2.3,4.2,1.4,8.6,3,13.1,3.1-4.3,4.9-5.2,12.1-3.1,18.2,2.1,5.7.7,10-4.7,13.6-1.7,1.1-4,1.1-5.5,2.3a1,1,0,0,0,.2,1.6c3,1.4,7.9-1.9,10.1-3.9a21.61,21.61,0,0,0,3.9-4.6,19.75,19.75,0,0,0,1.9-5.8c.9-4.7-.1-10.1.9-14.9C240.73,84.71,246.73,81,246.93,76.51Z"/><path class="cls-3" d="M145.13,146a38.86,38.86,0,0,0-4.8.1c-1.6.1-3.2.4-4.7-.2-2.4-1-4-3.4-5.6-5.4-2-2.4-4.1-4.7-6.1-7.1-.3-.3-.5-.6-.8-.9a17.68,17.68,0,0,0,5.1.5c3-.1,5.9-1,8.9-.9a5.92,5.92,0,0,1,2.9.7,5.32,5.32,0,0,1,2,2.2,2.58,2.58,0,0,0,4.7-2c-.4-2.7-3.4-4.6-5.8-5.4-3-1-6.2-.5-9.2.1a22.62,22.62,0,0,1-8.6.1,27.69,27.69,0,0,1-4.1-1.2c-1.3-.5-2.6-1.3-4-1.3a1.14,1.14,0,0,0-1.1,1.4c.6,2,2.5,4,3.5,5.9a43,43,0,0,0,2.9,4.5,82.56,82.56,0,0,0,6.8,8.8c2,2.2,4.9,4.7,8,4.7a19.25,19.25,0,0,0,5.3-1.1,30.24,30.24,0,0,0,5-1.9C146.53,147.41,146,146.11,145.13,146Z"/><path class="cls-3" d="M250.43,145.51c-1.4-.1-3.2.3-4.1.1a13.29,13.29,0,0,1-6.5-3.2c-2.9-2.7-4.8-6.2-7.5-9.2a25,25,0,0,0-10.3-6.6,29.41,29.41,0,0,0-5.9-1.2,15.59,15.59,0,0,0-5.7.5.75.75,0,0,0,0,1.4c1.1.4,2,.9,3,1.3a24.57,24.57,0,0,0,2.9.9,24.78,24.78,0,0,1,5.4,3.2,42.87,42.87,0,0,1,8.2,8.8c2.4,3.3,5.1,6.5,8.9,8.2s7.5.9,4.3,6.2a23.65,23.65,0,0,1-8.5,8.7,46,46,0,0,1-17.4,4.7,33.73,33.73,0,0,1-9.5-.5c-.4-.1-6.8-2.1-6.6-1.4,1,4,7.3,5.5,10.8,5.9a22.6,22.6,0,0,0,2.6.1c-.9,5.5-1.1,11.3,2.2,16.1,2.4,3.5,7.7,6.5,1.8,9.3-4.7,2.2-11.1,2.8-16.3,2.9-6.9.2-16.5-1-22.4-5.7a.76.76,0,0,1,.4.1h0a4.33,4.33,0,0,0,.5.1l1.3.3a15.45,15.45,0,0,0,4.8,0,18.43,18.43,0,0,0,2.5-.5,6.78,6.78,0,0,0,2.3-1.4,1.23,1.23,0,0,0-.9-2.1,17.7,17.7,0,0,0-2.3.1,10.87,10.87,0,0,1-1.8.1,2.77,2.77,0,0,1-.9-.1,1.27,1.27,0,0,1-.6-.1H185c-.3-.1-.7-.1-1-.2s-.3-.1-.5-.1c.5.1-1.1-.4-.7-.3l-.9-.3c.4.2-.4-.3-.4-.2-.1-.1-.1-.1-.2-.1l-.3-.3c-.3-.2-.6-.5-.9-.7a1.44,1.44,0,0,1-.3-.2l-.2-.2a1.38,1.38,0,0,0-.4-.3c-.1-.1-1.1-.9-.4-.3a1.38,1.38,0,0,0-.4-.3,12.09,12.09,0,0,1-1.6-1.6,9.76,9.76,0,0,0-1.8-1.7c-2.2-1.3-5.3,1.1-5.5,3.5-.2,3.1,1.1,4.3,2.8,6.5,2.7,3.6,2.3,8.8.7,12.7-1.2,2.9-2.6,5.8-2.4,9a12.41,12.41,0,0,0,.9,3.8,1.79,1.79,0,0,0,.5.7,3.3,3.3,0,0,0-1.4,0c-1,.1-2,.4-3,.5-2,.2-4.1.5-6.2.6a51,51,0,0,1-12.3-.9c-7.1-1.6-15.2-6.4-15-14.5a26.11,26.11,0,0,0,11.9,2.6c3.6,0,6.4-2.1,9.7-3.3,1.9-.7,8.7-.2,9.4-2,.5-1.4-2.8-6.5-3-8.3-.4-2.8.3-5.3,1.1-7.9a52.81,52.81,0,0,1,3.6-7.6c1.2-2.5,2.1-5.7,1.3-8.5.7-.1,1.3-.3,2-.4a21.1,21.1,0,0,1,6.2-.8c2.7.2,4.1,2.1,6.4,2.8,2.7.8,2.9.1,3.8-3.1a14.65,14.65,0,0,0,0-8.3,26.92,26.92,0,0,0-3.8-7.8,30.88,30.88,0,0,0-6.1-6.4c-.2-.1-.3-.3-.5-.4a18.73,18.73,0,0,0,3.4-.8,39.87,39.87,0,0,0,14-6.9,40.62,40.62,0,0,0,10-12.2,49.28,49.28,0,0,0,3.1-7.1c.5-1.4,4.7-12.1.9-12-2.5,0-4.3,2.3-7,2.4a53.26,53.26,0,0,1-8.9-.6c-5.8-.8-11.2-1.7-17-.7a30.93,30.93,0,0,0-13.9,5.7c-3.2,2.4-8.2,6.9-8.2,11.2a1.18,1.18,0,0,0,1.8,1c2-1.1,3.3-3.1,5-4.6a27.11,27.11,0,0,1,6.3-3.8,31.76,31.76,0,0,1,14.5-3.3c5.8.1,11.8,2.1,17.6,1.3a17,17,0,0,0,3.7-1c-.2.8-.4,1.5-.6,2.2a37.56,37.56,0,0,1-2.7,6.2,41.75,41.75,0,0,1-8.1,11,28.05,28.05,0,0,1-18.3,8.7c-1.8.1-4.6-.5-6,.9a1.06,1.06,0,0,0-.2,1.2,7.23,7.23,0,0,0,3.7,2.5,49.2,49.2,0,0,1,4.3,2.6,25.28,25.28,0,0,1,8.8,10.7,17.61,17.61,0,0,1,1.2,3.9,7.42,7.42,0,0,0-2-1.6c-2.4-1.3-5.7-.7-8.2-.3-3,.4-5.9,1-8.9,1.4-5,.8-10.3.7-15-1.3-3.9-1.6-6.7-4.9-9.7-7.8-1.4-1.4-5.8-6-5.7-1.2,0,1.7.6,3.4.7,5a11.22,11.22,0,0,1-.7,4.8,13.19,13.19,0,0,1-7.2,7.1c-1.9.7-3.9,1.1-5.8,1.8a38.78,38.78,0,0,0-5.6,2.3.76.76,0,0,1-.4.2,35.62,35.62,0,0,0-.4-10.8c-1.1-6-2.5-13.4-1-19.4.4-1.8,2.4-5,1-6.8-1.2-1.4-6.5-1.7-8.3-2.2-4.9-1.3-7.9-3.6-11.2-7.4-2.6-3-5.6-6.5-6.6-10.4-1.5-6,3.4-3.6,7.7-3.6,5.7.1,11.4-1,17-1.5a44.87,44.87,0,0,1,16.7,1.6c2.7.8,5.3,1.8,8,2.6,2.1.6,4.2,2.2,6.4,1.6a1,1,0,0,0,.7-.9c-.2-2.2-2.1-3.2-3.7-4.5a22.31,22.31,0,0,0-6.7-3.8,42.45,42.45,0,0,0-16.6-2.1c-6.2.4-12.4,1.6-18.6,2a36.89,36.89,0,0,1-8.8-.3c-4.6-.7-10.2-3.5-9.8,3.2.2,3.4,1.7,7.2,3.1,10.4a36.24,36.24,0,0,0,2.5,4.8c-5.9,1.7-11.4,5.2-17.4,4.9-1.4-.1-2.8-.3-4.1-.5a71,71,0,0,1-8-1.7c-4.6-1.3-9.2-3.5-12.3-7.3a.76.76,0,0,0-1.2.9,25.75,25.75,0,0,0,11.5,9.9,41.15,41.15,0,0,0,8.4,2.7c2.7.5,8.1,2.9,5.8,6.8-1.9,3.2-8.6,1-11.1.2a47,47,0,0,1-9-3.6,21.33,21.33,0,0,1-10.1-11.8c-2.4-6.4-3.4-15-7.3-21.2a14.77,14.77,0,0,0,2.1-.1c5.6-.5,10.2-3.8,14.3-7.4,8.7-7.7,19-17.7,31.4-16.6a37.57,37.57,0,0,0,2.7,14.4c.7,1.6,2.1,5.8,3.8,6.6,3,1.4,2.8-1.3,2-3.5a21.76,21.76,0,0,1-1.1-2.7c-.4-1.9-.8-3.9-1.1-5.8a60.13,60.13,0,0,1,.9-23.1,23.33,23.33,0,0,1,2-5.2,15.94,15.94,0,0,1,1.5-2.1c2,2.5,5.1,4.5,7.1,5.9a101.53,101.53,0,0,0,17.1,9.4c5.4,2.3,11.2,3.9,16.3,7a19.41,19.41,0,0,1,6.1,6,10.58,10.58,0,0,1,1.3,3.9c.3,1.4.2,3,.7,4.3a1.12,1.12,0,0,0,1.8.5c3.2-3.7-.2-10.9-2.4-14.3-3.3-5-9.2-8.1-14.6-10.2-6.1-2.4-12.3-4.4-18.3-7.3a56.28,56.28,0,0,1-8.3-4.6,18.34,18.34,0,0,1-3.6-3.2c-2.3-2.9-3.2-6.2-7-2.8-2.5,2.3-3.8,6.4-4.7,9.6a57.24,57.24,0,0,0-1.9,12.3c-10.4-.1-19.3,5-27.4,11.6-4.6,3.8-9,8.2-14.5,10.7a15,15,0,0,1-8.6,1.5c-1.8-.3-6.7-3.8-6.8-.2,0,2.1,1.9,3.9,2.8,5.6a52.76,52.76,0,0,1,4,10.9c1.3,5.6,2.3,11.2,5,16.3a14.79,14.79,0,0,0,1.3,2.1,11.39,11.39,0,0,0-2.3,3.8,31.48,31.48,0,0,0-2,11.4A108.42,108.42,0,0,1,31,165a17,17,0,0,1-.8,4.5c-.5,1-2.5,2.5-2.5,3.6-.1,2.8,3.5,2.5,5.8,3.5,1.8.7,3.5,1.6,5.2,2.3,3.5,1.4,8.5,2.7,11.6-.1,1.7-1.5.4-4.8-1.9-4.7a5.08,5.08,0,0,0-1.7.3c-.2.1-.4.1-.6.2-.4.1-.4.1-.2,0a9.64,9.64,0,0,1-2.4,0,18.48,18.48,0,0,1-4.5-1.1,25.24,25.24,0,0,0-5.4-1.4.9.9,0,0,1-.5-.1c.3-.5.6-.9.8-1.3a19.78,19.78,0,0,0,1.8-4.8,28.8,28.8,0,0,0,.6-5.9c.1-3.7-.2-7.4.3-11a13.64,13.64,0,0,1,1.6-5.3,4.26,4.26,0,0,1,1.1-1.2,31.63,31.63,0,0,0,8.7,5.6,62,62,0,0,0,10.1,3.9,30.28,30.28,0,0,0,10.4.6c.1,10-2.1,16.2-13.4,14.4a25.58,25.58,0,0,1-2.7-.5c-.9-.1-1.8-.1-2.7-.2a1.31,1.31,0,0,0-.7,2.4,24.87,24.87,0,0,0,2.8,1.5c1,.4,2,.7,3,1a36.31,36.31,0,0,0,5.9,1.4,16.1,16.1,0,0,0,3.8,0c-2.6,2.4-8.2,2.6-9.4,6.2-1,2.8,1.4,6.5,2.7,8.7a40.81,40.81,0,0,0,6,8.3,44,44,0,0,0,7.7,6.6c1.5,1,3.1,1.9,4.7,2.8s3.2,1.9,4.8,2.9a4.18,4.18,0,0,0,1,.4c.4,1.3.6,2.7,1,4,.8,2.7,3.7,11.3,7.9,7.8,1.3-1.1,1.3-2.9,2.6-3.8.7-.5,5.1-1.5,5.8-1,2,1.5,4.7,2.3,6.9,3.2a68.16,68.16,0,0,0,10,3.1,52.06,52.06,0,0,0,10.5,1.4,45.1,45.1,0,0,0,5.2,0c1.8-.1,3.7.1,5.3-.9a1.21,1.21,0,0,0,.5-.5,27.89,27.89,0,0,0,9,5.2,31.19,31.19,0,0,0,14.8,2c4.2-.5,9-1,12.9-2.8s3.4-4.1,3.2-7.7a29.5,29.5,0,0,0,12.4-2.1,42,42,0,0,0,14.3-8.7c.2-.1.2-.3.3-.5.4-.6,6.7-.9,7.8-1.1a64.47,64.47,0,0,0,9.5-2.8c4.8-1.9,10.5-4.7,12-10.1a.92.92,0,0,0-.1-1c-.2-.3-.6-.2-1-.2a8.39,8.39,0,0,1-5.1-1.4,21.58,21.58,0,0,0,7.5-7.8,28.9,28.9,0,0,0,4.5-13.4,2.77,2.77,0,0,0-.3-1.3,29.08,29.08,0,0,0,8.3-10.1c1-1.9,6.4-10.4,4.2-12.6C251.63,145.61,251,145.51,250.43,145.51Zm-122.1,58.7c-2.1,3.2-6.2,4-9.6,5a45.4,45.4,0,0,1-13.7,1.5c-4-.1-8.3-.3-12.1,1.2a11.87,11.87,0,0,0-5,4,23.88,23.88,0,0,1-1.5-3.7,10.21,10.21,0,0,1-.6-4.2c.1-1.3.5-2.7.7-4a26.67,26.67,0,0,1,2-7.2c.6-1.3,1.2-2.7,1.8-4,2.1-4.1,5.4-7.3,8.5-10.6.5-.5-.2-1.5-.8-1-1.4.9-3.4,1.2-5,1.6a14.86,14.86,0,0,1-5.1.6c-3.2-.2-6.5-.2-9.8-.6a44.8,44.8,0,0,1-9.6-2.3,51.14,51.14,0,0,1-4.8-2.2c.1,0,.2-.1.3-.1,7.1-3.7,9.8-13.2,10.2-20.6.3-5.2-.1-11,2.4-15.9s7.2-7.6,12.7-8.1a18.11,18.11,0,0,0,1.8,2.1c5,5.5,13.1,7.1,20.1,7.8.1,0-2.9,5.1-3.1,5.6-1.3,4-.8,7.9,0,12,.8,4.5,2.3,8.8,3,13.3a13,13,0,0,1,0,6.2c-.4,1.3-3.2,4-2.2,5.4,1.9,2.9,8-3.3,9.9-4,1.7,8.3,3.4,15.5,10.1,21.4A8,8,0,0,0,128.33,204.21Zm-.3-11a19.2,19.2,0,0,1-2.2-5.1,17.72,17.72,0,0,0,3.3,3.4,18.38,18.38,0,0,0,7.1,3.6,12.66,12.66,0,0,0,3.9.5,27.94,27.94,0,0,0,4-.7c1.2-.3.9-2.1-.3-2.2a11.43,11.43,0,0,1-3.2-.7c-1-.4-2.1-.6-3.1-1a16.43,16.43,0,0,1-5-3.2,8.92,8.92,0,0,1-1.6-2.1,11.74,11.74,0,0,1-1.5-2.7c0-.1-.1-.1-.1-.2a.31.31,0,0,0-.1-.2c-.1-.2-.2-.5-.3-.7-.2-.5-.3-1-.5-1.5s-.2-1-.3-1.4-.1-.6-.1-.9a.76.76,0,0,0-.2-.4,35.06,35.06,0,0,0,4-2.7,22.81,22.81,0,0,0,6.2-8.5,31.67,31.67,0,0,0,1.7-4.1,25.56,25.56,0,0,0,4,4.5c3.3,2.9,6.5,5.2,10.9,6.3a23.44,23.44,0,0,0,7,.6,7.64,7.64,0,0,1-.1,3,32.31,32.31,0,0,1-2,4.2,17.35,17.35,0,0,0-2.4,9.2,24.44,24.44,0,0,0,1.9,8.4c.6,1.4,1.1,2.7,1.8,4a8,8,0,0,0-3.8-.1c-2.3.4-4.4,1.5-6.6,1.8a21.5,21.5,0,0,1-12.7-2.6C133.63,199.51,130.33,196.91,128,193.21Z"/><path class="cls-3" d="M255.63,119c-.5-1.3-2.3-1.6-5.6-1.8-.3,0-.7-.1-1-.1h-.2c-.2,0-.4-.1-.6-.1a18.84,18.84,0,0,1-5.7-2,19.92,19.92,0,0,1-1.9-1.2c-.6-.4-1.3-.8-2-1.2a1.77,1.77,0,0,0-2.4,2.4,8.34,8.34,0,0,0,1.6,2.1c.7.6,1.4,1.1,2.1,1.6a20.84,20.84,0,0,0,4.7,2.4,22,22,0,0,0,6.2,1.2,45.38,45.38,0,0,1-2.1,4.5c-.7,1.3-1.5,2.6-2.3,3.8l-2.4,3.9a1.23,1.23,0,0,0,1.9,1.5c3.5-3.2,6.8-7.1,8.5-11.6C255.63,121.61,256,120,255.63,119Z"/><path class="cls-3" d="M238.63,153.41c-1-.9-2.5-.7-3.7-.7a12.86,12.86,0,0,1-3.9-.3,9.51,9.51,0,0,1-5.7-4.5c-1.4-2.3-2.4-4.8-4.2-6.9a19.28,19.28,0,0,0-3-2.7c-1.1-.8-2.6-1.9-4-1.8a1.76,1.76,0,0,0-1.2,3c.9,1,2.5,1.5,3.6,2.3a13.29,13.29,0,0,1,2.9,2.9c1.6,2.3,2.5,4.9,4.2,7.2a11.22,11.22,0,0,0,7.2,4.4,19.72,19.72,0,0,0,4.2.2c1.3-.1,3.3-.4,3.9-1.8A1.35,1.35,0,0,0,238.63,153.41Z"/><path class="cls-3" d="M224.73,85.31a16.87,16.87,0,0,1-6.7-.7c-2.2-.8-4.1-2.3-6.3-3.1a11.1,11.1,0,0,0-6-.2,10.4,10.4,0,0,0-3,.9,13.65,13.65,0,0,0-2.3,1.9c-.6.6.2,1.5.9,1.1a14,14,0,0,1,2.9-.9,7.43,7.43,0,0,1,2.6-.3,12.22,12.22,0,0,1,5.5,2c3.8,2.4,7.8,4.5,12.4,4.1a2.61,2.61,0,0,0,2.5-2.5A2.51,2.51,0,0,0,224.73,85.31Z"/><path class="cls-3" d="M183,40.71a1.89,1.89,0,0,0-3.2-.8c-.7.8-.8,1.8-1.4,2.7a8.6,8.6,0,0,1-1.8,2c-1.4,1.3-3.1,2.3-4.5,3.7a17.79,17.79,0,0,0-3.7,4.5,9.74,9.74,0,0,0-.7,6.9,1.32,1.32,0,0,0,2.5,0,4.71,4.71,0,0,0,.4-1.7c.1-.5.1-1,.2-1.5a7.94,7.94,0,0,1,1-2.7,14.84,14.84,0,0,1,4-3.5,23.34,23.34,0,0,0,4.6-3.7,11.38,11.38,0,0,0,1.8-2.5A4.1,4.1,0,0,0,183,40.71Z"/><path class="cls-3" d="M154.53,60.91c-.2-.9-.2-1.8-.4-2.7a35,35,0,0,0-2-5.4,48.72,48.72,0,0,0-5.9-9.5c-.7-.9-2.2.3-1.6,1.2a50.75,50.75,0,0,1,5,9.5c.7,1.7,1.2,3.4,1.8,5.1.3.9.7,1.6,1,2.5a9.68,9.68,0,0,0,.8,2.4c.4.8,1.5.3,1.6-.4A8.31,8.31,0,0,0,154.53,60.91Z"/><path class="cls-3" d="M116.53,86.11c-2.8-1.3-5.8-2.4-8.6-3.8s-5.3-3.3-8-4.9c-2.1-1.1-6.1-3.8-8.4-2.1-.4.3-.3.9-.2,1.3.6,1.2,2.3,1.5,3.4,2.1,1.3.7,2.6,1.5,3.9,2.3a77.51,77.51,0,0,0,7.6,5.1,61.92,61.92,0,0,0,8,3.4,27.56,27.56,0,0,1,3.9,1.8c1.3.7,2.4,1.6,3.9,1.7.8.1,1.2-.8,1.1-1.5C122.83,88.91,118.73,87.21,116.53,86.11Z"/><path class="cls-3" d="M95,169.91a10.56,10.56,0,0,1-1.9.6,11.2,11.2,0,0,0-2.2.9c-1.3.6-2.5,1.4-3.6,1.8-.7.2-1.3.4-2,.6a16.76,16.76,0,0,1-1.8.3c-.8.1-1.6,0-2.4.1s-1.5.3-2.3.4c-1.2.2-1.2,1.8-.3,2.4a7,7,0,0,0,2.3,1.1,12.74,12.74,0,0,0,2.7.2,23.41,23.41,0,0,0,5.2-.8,12.9,12.9,0,0,0,4.7-2.3,8.94,8.94,0,0,0,2.6-4.5A.68.68,0,0,0,95,169.91Z"/><path class="cls-3" d="M189.73,241c-19.7-1.6-39.6-2.2-59.5-2-14.7.1-29.2,1.3-43.8.8-4.1-.1-9.4.3-12.7-2.5-1.7-1.4-5.8-6.9-8.5-4.9-1.6,1.1,0,5.2.2,6.7.4,3,.6,6.1.8,9,.3,3.8.7,7.7.9,11.5.6,8.2.9,16.5,1.3,24.7.9,16.4,2.8,33.1,1.7,49.6-.1,1.2,2,1.5,2.2.3,1.1-7.8,2.3-15.5,2.5-23.4.3-8.5.4-17.1.2-25.6-.3-8.2-.7-16.5-.9-24.7-.6-18.8,19.7-11.4,31.6-12.6,8-.8,16.3-1.5,24.4-1.6,19.9-.1,39.7-1.2,59.5-3.1C191.13,243,191.13,241.11,189.73,241Z"/><path class="cls-3" d="M208.73,239.61h0C209,239.41,208.43,239.61,208.73,239.61Z"/><path class="cls-3" d="M285,207.21c.1-9.9,1.2-20.4,0-30.2a3.51,3.51,0,0,0-.6-1.4c-.1-1.2-.3-2.3-.5-3.4a28.16,28.16,0,0,0-7.8-13.7c-7.6-8.1-17.2-14-24.3-22.6-.9-1-2.4.3-1.8,1.4a74.34,74.34,0,0,0,7.9,12.9c3,3.7,6.7,6.9,10,10.4a19.26,19.26,0,0,1,5.4,10.7,12.77,12.77,0,0,1-1,7.7,18,18,0,0,1-2.9,3.9,342.09,342.09,0,0,1-26.1,26.4c-7.7,7-15,17-23.5,22.8-5.3,3.7-14.6,2.7-18.4,8.3-1.6,2.4,5.6,5,6.6,6.5,2.1,3.1,3,6.9,3.5,10.6,1.1,6.9,2,13.8,3,20.6s2.5,13.4,3.4,20.2c1,7.1,2,14.2,2.6,21.3.2,1.9,3.2,1.9,3,0-.9-8.6-.4-17.2-.9-25.8s-1.4-17.6-1.6-26.1c-.1-4.8-.4-9.6-.6-14.4-.1-4.2-1.4-9.7,1-13.3,3.2-4.9,9.6-9.2,13.9-13.2,5.2-4.9,10.4-9.7,15.8-14.3,4.5-3.7,7.8-8.3,12.4-12,5.9-4.8,13.5-2.9,14.2,5.2.7,9.7,0,19.8.3,29.6.6,22.9,2.7,47.2-.7,69.9-2.5,16.9-16.9,25.4-28,36.5-4.4,4.4-6.9,11.4-13.7,12.7-5.2,1-5.9-.6-8.6-4,.1.1-2.7-6.9-3.2-5.7-1.3,3-1.2,7.2-1.1,10.7.1,6.4.8,13.8-2.4,19.7-2.5,4.5-9.7,9.2-15,6.7a8.18,8.18,0,0,0-2.4-1,5.32,5.32,0,0,0-3.5,1.2c-5.2,3.3-12.2,1.4-18.2,1.3-13.7,0-27.5-.3-41.2-.5s-27.5.3-41-1.4c-11-1.4-20.1-4-26.4-14-1.7-2.6-1.1-8-3.6-10-4.8-3.9-1.7,5.6-5.7,5.9-2.7.2-10.7-13.8-12.2-15.7-5.3-6.8-10.7-13.6-16.5-19.9-8.2-8.8-17.3-19.6-22.1-30.7s-4.3-24.5-5-36.3c-1-16.5,1.1-33.4,1-50,0-4.1-1-13.7,3.1-16.4,4.9-3.2,7.7,2.8,11.2,5.8,4.5,3.9,9.1,7.6,13.6,11.5,4,3.5,8.3,7.6,12.6,10.6,2.2,1.5,2.6.2,1.5-1.8-2.9-4.8-5.4-9.9-9.2-14.1-3.6-4.1-7.8-7.6-11.8-11.3a162.42,162.42,0,0,1-12.4-12.5c-4.4-5.1-6.7-9.7-7.2-16.4s3.4-9.4,8.1-13.7l6.2-5.6,3.1-2.8a33.69,33.69,0,0,0,2.9-3.5c1-1.2-.3-3.3-1.7-2.3a53,53,0,0,0-5.4,3.9c-1.8,1.5-3.5,3-5.3,4.6l-5.2,4.6a45.06,45.06,0,0,0-5.1,4.6,35.47,35.47,0,0,0-3.2,4.7c-6.2,11.1-2.9,24.6-3.4,36.7-1,23.2-1.6,47.2.4,70.5,1.8,20.2,4.2,39.2,18.8,54.3,14.9,15.3,25.6,33.5,40.4,48.8,4.3,4.4,9.3,7.2,14.6,10a55,55,0,0,0,18.2,5.6c7.2,1,14.6.7,21.9.9s14.9.4,22.3.5c15.1.3,30.2.7,45.3,1,10.5.2,21.4,1.4,31.6-1.7,11.4-3.5,20.5-11.5,28-20.5,4-4.8,11.2-16.2,15.5-20.8,10.7-11.3,22.8-21.9,25.3-38.1a105.23,105.23,0,0,0,.8-15.9c0-21,.5-35.3.6-56.3,0-3.9.1-7.9.1-11.8"/></g></g></svg>