<svg xmlns="http://www.w3.org/2000/svg" viewBox="0 0 119.51 204.72"><defs><style>.cls-1{fill:#262729;}.cls-2{fill:#41873f;}.cls-3{fill:#c3e088;}</style></defs><g id="Layer_2" data-name="Layer 2"><g id="Layer_1-2" data-name="Layer 1"><path class="cls-1" d="M118.54,46.35a5.59,5.59,0,0,0-5.4-.9,25.65,25.65,0,0,0-4,2.1c-.2-.9.3-1.5.6-2.2a39.08,39.08,0,0,0,2.2-20,7,7,0,0,0-1.8-3.9c-1.5-1.6-3.2-1.4-4.2.6-.3.6-.5,1.3-.8,2a35.4,35.4,0,0,0-1.5,9.2c-.3-.1-.6-.1-.8-.2-3.5-1.6-6.4-.1-7.2,3.6a9.4,9.4,0,0,0,0,2.9,19.17,19.17,0,0,0,2.4,5.7,20.74,20.74,0,0,1,2.8,5.8c.4,1.6.8,3.3-.1,5.1-2.4-4.1-7.9-3.8-10.1.6a12.8,12.8,0,0,0-1.1,3.1,57.42,57.42,0,0,0-.9,7.1,12.58,12.58,0,0,1-1.7,5.5,5.71,5.71,0,0,0-3.8-2,6.4,6.4,0,0,0-6.5,4.7,14.79,14.79,0,0,0-.4,6.6,44,44,0,0,1,.3,8.9,11.42,11.42,0,0,1-1.1,4.4,4.06,4.06,0,0,1-3.8,2.5,6.7,6.7,0,0,1,1.4-3.7c.8-1.4,1.8-2.6,2.1-4.3a.58.58,0,0,1,.3-.8,4.57,4.57,0,0,0,.1-2.6,2.12,2.12,0,0,0-.9-2.1c-1.7-1.3-3.3-1.3-5.2.1-.6.5-1.1,1-1.7,1.6a2.58,2.58,0,0,1,.7-3.7c.7-.6,1.6-1.1,2.3-1.8a6.79,6.79,0,0,0,2.4-5.3,4.7,4.7,0,0,0-2.7-4.6,10.55,10.55,0,0,0,1.3-.8c4.6-4.1,9.1-8.3,13.7-12.4a8.06,8.06,0,0,0,2.5-3.5c.5-1.7-.2-2.9-2-3a13.27,13.27,0,0,0-4,.3c-.7.2-1.5.7-2.3.3-.1-1.1.8-1.5,1.3-2.1a32.4,32.4,0,0,0,6.4-10.3,16.87,16.87,0,0,0,.4-11.3,6.61,6.61,0,0,0-1.7-2.8c-1.6-1.5-3.1-1.4-4.5.4-.8,1-1.4,2.2-2.1,3.2-.6.8-.9,1.8-2.1,2.4a136,136,0,0,0,1.1-14.1,35.46,35.46,0,0,0-.4-8.6c.2-2.6.1-5.1-1.8-7.1-2.2-1.6-4.1-1.2-5.4,1.4-4,8.2-3.8,16,2.1,23.3.4.1.5.5.9,1a1.65,1.65,0,0,1-1.6-.7c-.4-.1-.7-.3-1.1-.4-3.2-.8-4.7.4-4.8,3.7a11.48,11.48,0,0,0,2,7c1,1.5,2.1,3,3.1,4.6a17.45,17.45,0,0,1,2.5,4.9,6.29,6.29,0,0,1-.3,5,24.33,24.33,0,0,0-1.9-2.9,4,4,0,0,0-4.8-1.6c-1.4.6-2,2.1-1.6,4.3.5,2.7,1,5.3,1.5,8,.4,2.5,1.2,5,1.2,8.2-2-3.1-4.2-4.5-7.3-2.8-.2.4-.7.8-1,.5s0-.8.4-1a15.68,15.68,0,0,0,1-7.7c-.3-2.6-2.1-3.5-4.5-2.4-.7.3-1.1,1-2,1.1.7-4.3,1.4-8.5,2-12.7.2-1.5.2-3-1.2-3.9s-3-.7-4.5.2c-.7.5-1.4,1-2.2,1.5-.4-.7,0-1.3.2-1.9,1.2-3.9,2.5-7.7,3.7-11.6a10.22,10.22,0,0,0,.5-5.2c-.4-1.5-1.1-2-2.6-1.6a21.6,21.6,0,0,0-2.5,1,9.74,9.74,0,0,0,.1-1.6,67.62,67.62,0,0,0,3.3-9.9h-.8c-.4,3.2-2,6-2.9,9-.8,1.7-1.6,3.3-2.4,5-.2.4-.5.9-1,.8s-.6-.7-.6-1.2a29.23,29.23,0,0,1,1.4-9.7,20.29,20.29,0,0,1,2-4.8,6.42,6.42,0,0,1,1-1.3,1.43,1.43,0,0,1,1.7-.6,1.34,1.34,0,0,1,.8,1.4v1.4h.8c.1-.4.2-.8.3-1.1a2.15,2.15,0,0,0-.7-2.6,2.25,2.25,0,0,0-2.7.1A6.86,6.86,0,0,0,45.54,8a31.07,31.07,0,0,0-4.3,19.1,18.48,18.48,0,0,1,.1,2.4c-2.7-.4-4.8.4-6,2.8s-.1,4.3,1.2,6.2a26.1,26.1,0,0,0,4.3,4.5c1.4,1.2,2.8,2.4,4.1,3.7a5.2,5.2,0,0,1,1.8,3.2c-3.8.1-5.5,4.3-3.2,7.5a11.61,11.61,0,0,0,3.7,3.3c1.3.7,2.7,1.4,4,2.1a11.75,11.75,0,0,1,5.3,5.7,22.11,22.11,0,0,1,1.7,11.9,3.51,3.51,0,0,1-.5,2c-.7-.3-1.2-.7-1.8-.9-2.3-.8-3.9.2-4.3,2.6a5.66,5.66,0,0,0,.1,2.6c.3,1.5.7,2.9,1,4.4.7,3.4-.6,5.5-4,6.6a11,11,0,0,1-3.5.5c-5.1.1-10.2.2-15.3.2-.5,0-1.1.3-1.5-.4a5,5,0,0,1,1.3-1.9c2.5-3.2,5.1-6.4,7.6-9.6a8.74,8.74,0,0,0,1.5-2.4,2.5,2.5,0,0,0-.2-2.5,2.16,2.16,0,0,0-2.4-.5A14.46,14.46,0,0,0,34,82a42.91,42.91,0,0,0-7.6,4.9,9.78,9.78,0,0,1-2.1,1.8,3.2,3.2,0,0,1,1.1-2c3.3-5.2,6.5-10.4,9.8-15.6a7.52,7.52,0,0,0,1.4-3.3c.2-1.6-.6-2.5-2.2-2.3a6.46,6.46,0,0,0-1.9.4,30.24,30.24,0,0,0-12.4,7.4,5.71,5.71,0,0,1-1.8,1.6c-.7-1.8-.1-3.2.7-4.6a22.69,22.69,0,0,1,4-4.8,45.47,45.47,0,0,0,7.4-10c1.5-2.4,3-4.8,2.8-7.9-.7-2.3-1.4-2.8-3.6-2-.5.2-1,.5-1.5.7a51.25,51.25,0,0,0-10.2,7c-.5.5-.9,1.2-1.7,1.2a7.73,7.73,0,0,1-.3-4,15.65,15.65,0,0,1,3.4-7.1,37.34,37.34,0,0,1,6.1-5.8,49.45,49.45,0,0,0,5.8-5.4,10.68,10.68,0,0,0,2.8-8.4,3,3,0,0,0-1.4-3.2c-1.7-1.8-3.8-1.9-6-1.4a15.39,15.39,0,0,0-4.5,2.1c-.8.5-1.6,1-2.3,1.5a18,18,0,0,0-6.3-4.1c-4.4-1.4-8.2.8-9.3,5.3a12.88,12.88,0,0,0,1.4,8.8,30.92,30.92,0,0,0,4.4,6.3A16.08,16.08,0,0,1,13.84,52c0,.4.2,1-.6,1.1-.4-.6-.9-1.2-1.4-1.9a12.67,12.67,0,0,0-4.2-3.8,5,5,0,0,0-7.2,2.9A8.37,8.37,0,0,0,.24,55c.5,3,2.2,5.3,4.2,7.4,2.3,2.4,4.8,4.7,7.1,7.1a19.92,19.92,0,0,1,4.3,5.7c.4.2.7.8.5.9-.6.4-.9-.2-1.3-.6-.4-.1-.7-.3-1.1-.4-3.6-1-7,.3-8.6,3.5a7.1,7.1,0,0,0,2.2,9,10.48,10.48,0,0,0,6.6,2.4h2.8a4.38,4.38,0,0,0-1.7,4.7c.4,1.9,2,2.9,3.6,4.3-2.7.4-5,.8-7.2,1-4.5.2-5.7,2.5-5.9,6v.5l-1.5,44.1c-.4,11.5-.8,23-1.3,34.5-.2,5-.3,9.9-.6,14.9-.2,3.1,1,4.4,4.1,4.7a24.09,24.09,0,0,0,3.8,0l56.8-1.2,28.1-.6c2.7-.1,3.5-.8,3.6-3.3.9-16,1.9-32.1,2.8-48.1.9-14.7,1.7-29.4,2.6-44.1a25.28,25.28,0,0,0,0-5.5,4.15,4.15,0,0,0-3.3-3.7,13.72,13.72,0,0,0-4-.5c-3.8,0-7.7,0-11.5-.1a27.72,27.72,0,0,1-5.6-.3,40.65,40.65,0,0,0,3.5-2.5c2.4-1.8,4.2-3.9,4.6-7,.3-2-.2-2.7-2-3.6-.4-.2-.9-.2-1-.8a88.63,88.63,0,0,0,16.3-7.4h0c.9-.5,1.8-.9,2.6-1.4,1.1-.7,2.3-1.3,2.6-2.8.5-2.2.1-3.2-1.8-4.4-1.1-.6-2.4-1.1-3.7-1.7.9-.7,1.6-1.2,2.3-1.7a134.75,134.75,0,0,0,13.7-11.3,8.8,8.8,0,0,0,2.5-4C119.74,47.85,119.44,47.05,118.54,46.35ZM39,38.05a11.74,11.74,0,0,1-1.5-2.7c-.6-1.8-.3-3.1.9-3.8a3.15,3.15,0,0,1,3.8,1.1,6.2,6.2,0,0,1,1.2,2.6c.6,2.4.8,4.8,1.5,7.3A15.51,15.51,0,0,1,39,38.05Zm8.1-2c-.6.1-.8-.5-1-.9a5.09,5.09,0,0,1-.6-3,8,8,0,0,1,.6-3,35.19,35.19,0,0,1,3.7-6.9,10.63,10.63,0,0,1,.9-1.1c.4-.4.8-.8,1.5-.5.5.2.5.8.5,1.2a5.91,5.91,0,0,1-.4,2.6,102.36,102.36,0,0,0-4.5,10.8A1.12,1.12,0,0,1,47.14,36.05Zm4.4,24.4c-1.8-1.1-3.6-2.3-5.4-3.5a4,4,0,0,1-1.6-1.8c-.7-1.6.1-2.9,1.8-2.9a3,3,0,0,1,2.6,1.5,57.57,57.57,0,0,1,4.6,7.1A1.89,1.89,0,0,1,51.54,60.45Zm1.9-6.7c-.4.9-1,1-1.6.2a6.43,6.43,0,0,1-1-2.4,15.6,15.6,0,0,0-1.7-5,2.4,2.4,0,0,1,.1-2.9,49.5,49.5,0,0,1,3.4-4.3c.5-.5,1-1.2,1.8-.8a2.06,2.06,0,0,1,1.1,1.8,7.08,7.08,0,0,1,.1,1.4,11.71,11.71,0,0,1-.4,2.6,39.91,39.91,0,0,0-1.6,8.5A1.64,1.64,0,0,1,53.44,53.75Zm-32.1-28.3a8.67,8.67,0,0,1,10.3-4.3,4.14,4.14,0,0,1,2,2.8,12,12,0,0,1-3.2,6.8,165.64,165.64,0,0,1-12,11.7,3.49,3.49,0,0,1-.9.6,4,4,0,0,1-.3-2.6A49.91,49.91,0,0,1,19.54,29C20.14,27.85,20.74,26.65,21.34,25.45Zm-6.4,44.6c-.6.3-1.2-.4-1.7-.8a36.93,36.93,0,0,1-8.8-9.7,14.74,14.74,0,0,1-2.3-8.2c0-2.7,1.4-3.7,4-3A5.77,5.77,0,0,1,9,49.85c2.5,2.8,4.9,5.6,5.3,9.6.3,2.9.6,5.7.9,8.5C15.24,68.75,15.84,69.65,14.94,70.05Zm.2-27.9a5.56,5.56,0,0,1-2.4-2.4,57.53,57.53,0,0,1-6-12.5c-1.4-4.4,1.2-7.5,5.8-7a7.25,7.25,0,0,1,4.1,1.8c1.5,1.3,2.1,2.8,1.3,4.7-1.6,3.8-1.6,7.9-2.1,12A7.17,7.17,0,0,1,15.14,42.15Zm92-18.9c1.2-1.6,2-1.5,2.9.2a8.69,8.69,0,0,1,1.1,4.1c-.1,4.6,0,9.3-2.3,13.5-.2.4-.2,1.2-1.1,1a51.28,51.28,0,0,1-2.1-13.4A8.7,8.7,0,0,1,107.14,23.25Zm-10,14.9c0-.2-.1-.3-.1-.5-.3-1.9.2-3,1.3-3.5,1.3-.6,2.5-.1,3.7,1.5,2.2,2.9,4,6,3.5,9.8a11.92,11.92,0,0,1-.7,5c-.5,1.3-1.1,1.4-1.8.4C100.54,47,97.84,43.05,97.14,38.15Zm-4.6,19a3.21,3.21,0,0,1,4-2.4,3.61,3.61,0,0,1,2.5,4.1,8.33,8.33,0,0,1-1.4,3.5c-1.8,2.4-3.6,4.7-5.4,7.1-.2.3-.4.7-.9.6s-.6-.6-.7-1.1a9.18,9.18,0,0,1-.1-1.8C91.24,64.05,91.74,60.55,92.54,57.15ZM69.34,88a4.43,4.43,0,0,1,5-3.3,4,4,0,0,1,.7,1.8h0c-.6,2.7-3.7,8.2-5.9,10.1C68.94,93.55,68.64,90.65,69.34,88Zm8.9-45.7c.6-2,.5-4.1.8-6.2a21.67,21.67,0,0,1,3.9-9.4c1.3-1.8,2.3-1.7,3.3.3a10.11,10.11,0,0,1,1,5.2,8,8,0,0,1-.4,3.4A30,30,0,0,1,80.44,47c-.4.5-.8,1.1-1.6.9s-.7-1-.8-1.6A10.8,10.8,0,0,1,78.24,42.25Zm1.4,9.7c-.3.5-.9.4-1.4.8a1.4,1.4,0,0,1,.8-1.2c.2-.1.3-.4.6-.2S79.64,51.75,79.64,52Zm-8.4-45.6a9.45,9.45,0,0,1,2-4,2.09,2.09,0,0,1,2.5-.8c1.7,1.9,1.8,4.3,2,6.7h0c-.2,3.6,0,7.2-.5,10.7a46.57,46.57,0,0,1-1.2,6.3c-1.1.2-1.4-.6-1.8-1.3C71,18.45,69.64,12.65,71.24,6.35Zm-1.7,25.9a11.76,11.76,0,0,1-.7-2,2.77,2.77,0,0,1,1.3-3.1,3,3,0,0,1,3.3.7,4.1,4.1,0,0,1,1.3,2.3,102.67,102.67,0,0,1,1.8,11.1,5.32,5.32,0,0,1-.5,3c-1-.2-1.2-1-1.5-1.6C72.84,39.15,71.14,35.65,69.54,32.25Zm14.7,19.8a2.25,2.25,0,0,1,.7-.1c1.9-.1,2.4.7,2,2.2a4.08,4.08,0,0,1-1.5,2.1c-3.2,2.5-6.5,5-9.7,7.5-.1,0-.1.1-.2.1-.6.2-1.3,1-1.9.4s0-1.2.1-1.8C74.54,56.35,79.54,54.35,84.24,52.05Zm-16.5-.3a6,6,0,0,1,.2-3.5c.5-1.3,1.4-1.5,2.4-.5,1.9,2,3.4,4.3,3.2,7.2a33.89,33.89,0,0,1-2.4,10.5c-1.9-2.4-1.9-4.9-2.3-7.3C68.44,56,68.14,53.85,67.74,51.75Zm1.2,22.9c1.2-1,2.1-1,3-.2s.7,1.8.2,2.8a8.49,8.49,0,0,1-2.4,2.9c-2.1,1.5-4.3,2.9-6.5,4.4-.1-.1-.2-.3-.3-.4,1.3-2.6,2.4-5.3,4.3-7.6A7.51,7.51,0,0,1,68.94,74.65Zm-8.1-5.6a3.18,3.18,0,0,1,.2-1.4c.7-2.5,2.5-3,4.4-1.3,2.7,2.4,2.9,3.5,1.2,6.6a22.19,22.19,0,0,1-3.9,5.7c-.4.4-.7.9-1.3.9-.5-.4-.4-1-.5-1.5C60.84,75.05,60.74,72.05,60.84,69.05Zm-2.5-6.9c-.2.4-.4.9-1,.9-.4,0-.6-.4-.9-.8-1.4-2.3-.5-6.1,1.8-7.4.3-.2.7-.5,1.1-.2s.5.7.4,1.2A27.33,27.33,0,0,1,58.34,62.15Zm1.6,26a13.59,13.59,0,0,1,3.6-2.7c1.2-.6,1.7-.2,2.1.9-.3.5-1,.3-1.4.6,1.4,1,3.1,1.7,3.2,3.7,0,.1,0,.2.1.2,0,1.1.5,2.3-.5,3.1-.6.5-2.1-.4-3-1.6-.7-1.1-1.4-2.2-.8-3.6a.67.67,0,0,0-.3-.8c-1.4,2.6-1.3,3.8.7,5.7a26.5,26.5,0,0,0,2.6,2.1,1.39,1.39,0,0,1,.4,1.5c-.2.5-.7.6-1.2.6H53.74a2.87,2.87,0,0,1,.8-2.6A70.06,70.06,0,0,1,59.94,88.15Zm-6.6-3.8c.1-1,.2-2,1.2-2.4,1.3-.4,1.8.6,2.4,1.5,1.8,2.7,1.5,4.2-1.8,7.1A9.56,9.56,0,0,1,53.34,84.35ZM36.94,100a244.71,244.71,0,0,1,27.1-.4c3,.1,6.1.3,9.1.4.5,0,1.1-.1,1.5.3.1.8-.4.9-.8,1.2a117.28,117.28,0,0,0-13.5,11.9c-1.2,1.3-2.3,2.7-3.5,3.9s-1.4,1.3-2.8.2c-2.9-2.2-5.7-4.4-8.5-6.6-3.2-2.6-6.5-5.2-9.7-7.8a5,5,0,0,1-1.9-2.3A10.36,10.36,0,0,1,36.94,100Zm-9.5-11.5c2.2-2,4.3-4.1,6.9-5.4a10.09,10.09,0,0,1,1.5-.7,1.05,1.05,0,0,1,1.4,1.5,18.56,18.56,0,0,1-2.5,4.3c-1.3,1.6-2.7,3.1-4.1,4.6-.7.7-1.4,1.6-2.6,1.2-.8-.3-1.7-2.1-1.6-3.4A3,3,0,0,1,27.44,88.45Zm-5.7-12.8a17.68,17.68,0,0,1,9.4-7.4c.9-.3,1.8-.7,2.7-1,1.4-.5,2,.1,1.7,1.5a6,6,0,0,1-1.3,2.5c-3.3,4.7-7.1,9.1-10.2,13.9-.8,1.3-1.3,1.2-1.9-.2a14.34,14.34,0,0,1-1.6-5.8A6.15,6.15,0,0,1,21.74,75.65Zm-2.9-19.6c1-1,2.1-2,3.2-2.9,2.2-1.6,4.3-3.3,6.6-4.7,1.1-.7,2.3-1.9,3.9-.9a6.22,6.22,0,0,1-1.1,5.1c-.4.7-.9,1.3-1.3,1.9h0c-2.8,3.4-5.5,6.8-8.5,10.1a34.84,34.84,0,0,0-2.8,3.9c-.3.4-.7.7-1.2.5s-.4-.6-.4-1c-.2-2.1-.4-4.1-.6-6.2A7,7,0,0,1,18.84,56.05Zm-2,32.3c-1.1-.1-2.8-.2-4.5-.5A7.89,7.89,0,0,1,7,84.45a4.5,4.5,0,0,1-.1-5.4,4.62,4.62,0,0,1,5.2-2,41.63,41.63,0,0,1,4.8,2.2,3.59,3.59,0,0,1,1.5,2.1c.6,1.6,1.2,3.1,1.7,4.7s.3,2.1-1.4,2.3Zm.9,7.5c-1.7-2-1.2-3.6,1.3-4.2,3.5-.9,5.3.1,6.7,3.5.6,1.4.2,2-1.4,2.3a12.1,12.1,0,0,1-1.9.1A5,5,0,0,1,17.74,95.85Zm13.1,106.7c-6.2-.3-12.3.6-18.4.6-1.3,0-2.5.5-3.8.4a3.24,3.24,0,0,1-3.4-2.5,8.69,8.69,0,0,1-.4-4.5,33.13,33.13,0,0,0,.4-5.5c.2-4.8.5-9.7,1.1-15a233,233,0,0,0,29.5,25.8A11.23,11.23,0,0,1,30.84,202.55Zm68-25.6c-.8,4.4-.1,8.9-.5,13.4a79.5,79.5,0,0,1-.9,9.7,1.66,1.66,0,0,1-1.7,1.6c-7.7.4-15.5.6-23.2.3-.1,0-.1-.1-.4-.1a2.26,2.26,0,0,1,.9-2c2-2,4-4.1,6.2-6,2.7-2.4,5.3-5,7.9-7.7,3.3-3.4,6.8-6.5,10.2-9.8.3-.3.5-.6,1-.5A1.07,1.07,0,0,1,98.84,177Zm1.9-30.8c-.8,5.4-.7,11-1.3,16.4-.3,3-.1,6.1-.5,9.1a4.55,4.55,0,0,1-1.6,3.3c-3.9,3.2-7.6,6.6-11.3,9.9s-7.3,6.9-10.9,10.5c-1.6,1.7-3.2,3.4-4.7,5.1a3.06,3.06,0,0,1-2.7,1.1,109,109,0,0,0-15.1.6c-4.1.3-8.1-.4-12.2-.2a3.6,3.6,0,0,1-2.2-.7,60,60,0,0,1-6.2-4.8c-3.7-3.4-7.6-6.6-11.4-9.8l-8.4-7.2c-1.4-1.2-2.8-2.4-4.1-3.7a6.34,6.34,0,0,1-2-4.7c.1-5.2-.2-10.4.1-15.6.2-3.3.3-6.5.4-9.8a.62.62,0,0,1,.4-.6c.8,0,1.1.7,1.6,1.2,1.8,1.8,3.6,3.6,5.5,5.4,6.3,6.2,12.9,12,19.5,17.7,5.9,5,11.9,9.9,18.1,14.6.6.4,1.2.9,1.7,1.3a2.18,2.18,0,0,0,3-.3c1.7-1.6,3.4-3.1,5.1-4.7,7.6-7.1,14.9-14.5,22.3-21.8a160.88,160.88,0,0,1,14-12,4.52,4.52,0,0,1,2.4-1.4C100.84,145.55,100.84,146,100.74,146.15Zm1-44.1c.8.2.8,1.1,1,1.8a16.36,16.36,0,0,1,.1,7.3,9.15,9.15,0,0,0-.1,1.7c0,6.4-.8,12.7-1.1,19.1a87.17,87.17,0,0,1-.8,8.8A4.56,4.56,0,0,1,99,144c-6.6,5-12.7,10.3-18.8,15.9-7.1,6.6-14.1,13.2-20.9,20.1a34.46,34.46,0,0,0-2.6,2.8c-1.2,1.6-2.2,1.8-3.8.5-3.1-2.3-6-4.7-9-7.1-6.2-5-12.2-10.2-18.2-15.5-2.6-2.2-5.1-4.6-7.5-7-3-3-6.2-5.7-9.2-8.7a5.26,5.26,0,0,1-1.8-4.5c1-10.6.4-21.2.5-31.9a8.87,8.87,0,0,1,.2-1.5c1.1.1,1.5.8,2,1.3,6.2,7,12.7,13.7,19.3,20.3,1.7,1.7,3.2,3.6,4.9,5.2,6,5.7,11.9,11.6,17.8,17.4.6.6,1.4,1.1,2,1.7,1.5,1.3,1.8,1.3,3.1-.2,2.5-2.7,4.8-5.5,7.2-8.3,3.2-3.8,6.4-7.5,9.6-11.3l10.9-12.7c2.3-2.7,4.6-5.3,6.9-7.9,2.6-3,5.3-6,7.9-9a4.62,4.62,0,0,1,.7-.7C100.74,102.65,101,101.85,101.74,102.05ZM80.54,100a64.83,64.83,0,0,1,7.6-.6,25.81,25.81,0,0,0,6.2-.3c1.7-.4,3.4.3,5.4.9a45.55,45.55,0,0,1-6.3,7.9c-3.1,3.3-6.2,6.5-9,10-3.1,3.9-6,7.8-9.1,11.7s-6,7.5-9.2,11-6,6.9-9.2,10.1c-1.8,1.8-1.8,1.8-3.5.1q-21.3-21.3-42.6-42.5a6,6,0,0,0-.8-.8c-1.1-1-1.8-2.1-1.3-3.6s2-1.7,3.3-2c3.1-.6,6.2-.4,9.3-.5a26.7,26.7,0,0,0,6.9-.4c1.6-.4,2.9.4,4.1,1.4,6.3,5.4,12.7,10.7,19,16.1.6.5,1.3.9,1.9,1.5,2.2,2.1,1.9,2,4-.3a184.33,184.33,0,0,1,20.2-18.3A5.8,5.8,0,0,1,80.54,100Zm6.6-12.9c.4.9-.4,1.6-1,2.3A26.88,26.88,0,0,1,78,95c-.3-4.2,2-7.9,5.2-8.8a5,5,0,0,1,1.2-.2C85.44,86,86.64,86.05,87.14,87.05Zm-7.8-2.2c-.1.1-.3,0-.6.1a28.36,28.36,0,0,1-.4-9.2c.1-.4.2-.8.3-1.1.5-1.4,1.2-2.6,3-2.7a4.75,4.75,0,0,1,4.1,2.4,2.25,2.25,0,0,1-.2,2.7A96.47,96.47,0,0,0,79.34,84.85Zm24.6-15.6c1.6.5,1.8,1,1.6,2.9-1.2,1.7-3.2,2.4-4.7,3.7-3.8,1.5-7.5,3.1-11.3,4.6a6.3,6.3,0,0,1-3,.7c-1.1,0-1.4-.6-1-1.5a2.09,2.09,0,0,1,.4-.6c3.3-3.5,6.6-6.9,11-9.1C99.24,68.85,101.54,68.35,103.94,69.25Zm14-19.3a19.28,19.28,0,0,1-3.1,3.3c-5.4,4.8-10.9,9.6-18.1,12.7,3.8-4.7,6.7-9.5,10.6-13.7a19.6,19.6,0,0,1,7.9-5.1,2.49,2.49,0,0,1,2.5.2C118.64,48,118.74,49,117.94,50Z"/><path class="cls-2" d="M7.74,107.25c1.1.1,1.5.8,2,1.3,6.2,7,12.7,13.7,19.3,20.3,1.7,1.7,3.2,3.6,4.9,5.2,6,5.7,11.9,11.6,17.8,17.4.6.6,1.4,1.1,2,1.7,1.5,1.3,1.8,1.3,3.1-.2,2.5-2.7,4.8-5.5,7.2-8.3,3.2-3.8,6.4-7.5,9.6-11.3l10.9-12.7c2.3-2.7,4.6-5.3,6.9-7.9,2.6-3,5.3-6,7.9-9a4.62,4.62,0,0,1,.7-.7c.5-.4.8-1.2,1.5-1s.8,1.1,1,1.8a16.36,16.36,0,0,1,.1,7.3,9.15,9.15,0,0,0-.1,1.7c0,6.4-.8,12.7-1.1,19.1a87.17,87.17,0,0,1-.8,8.8,4.56,4.56,0,0,1-1.8,3.2c-6.6,5-12.7,10.3-18.8,15.9-7.1,6.6-14.1,13.2-20.9,20.1a34.46,34.46,0,0,0-2.6,2.8c-1.2,1.6-2.2,1.8-3.8.5-3.1-2.3-6-4.7-9-7.1-6.2-5-12.2-10.2-18.2-15.5-2.6-2.2-5.1-4.6-7.5-7-3-3-6.2-5.7-9.2-8.7a5.26,5.26,0,0,1-1.8-4.5c1-10.6.4-21.2.5-31.9C7.54,108.35,7.64,107.85,7.74,107.25Z"/><path class="cls-2" d="M7.14,145.25c.8,0,1.1.7,1.6,1.2,1.8,1.8,3.6,3.6,5.5,5.4,6.3,6.2,12.9,12,19.5,17.7,5.9,5,11.9,9.9,18.1,14.6.6.4,1.2.9,1.7,1.3a2.18,2.18,0,0,0,3-.3c1.7-1.6,3.4-3.1,5.1-4.7,7.6-7.1,14.9-14.5,22.3-21.8a160.88,160.88,0,0,1,14-12,4.52,4.52,0,0,1,2.4-1.4.71.71,0,0,1,.3.9c-.8,5.4-.7,11-1.3,16.4-.3,3-.1,6.1-.5,9.1a4.55,4.55,0,0,1-1.6,3.3c-3.9,3.2-7.6,6.6-11.3,9.9s-7.3,6.9-10.9,10.5c-1.6,1.7-3.2,3.4-4.7,5.1a3.06,3.06,0,0,1-2.7,1.1,109,109,0,0,0-15.1.6c-4.1.3-8.1-.4-12.2-.2a3.6,3.6,0,0,1-2.2-.7,60,60,0,0,1-6.2-4.8c-3.7-3.4-7.6-6.6-11.4-9.8l-8.4-7.2c-1.4-1.2-2.8-2.4-4.1-3.7a6.34,6.34,0,0,1-2-4.7c.1-5.2-.2-10.4.1-15.6.2-3.3.3-6.5.4-9.8C6.74,145.65,6.74,145.35,7.14,145.25Z"/><path class="cls-2" d="M99.64,100a45.55,45.55,0,0,1-6.3,7.9c-3.1,3.3-6.2,6.5-9,10-3.1,3.9-6,7.8-9.1,11.7s-6,7.5-9.2,11-6,6.9-9.2,10.1c-1.8,1.8-1.8,1.8-3.5.1q-21.3-21.3-42.6-42.5a6,6,0,0,0-.8-.8c-1.1-1-1.8-2.1-1.3-3.6s2-1.7,3.3-2c3.1-.6,6.2-.4,9.3-.5a26.7,26.7,0,0,0,6.9-.4c1.6-.4,2.9.4,4.1,1.4,6.3,5.4,12.7,10.7,19,16.1.6.5,1.3.9,1.9,1.5,2.2,2.1,1.9,2,4-.3a184.33,184.33,0,0,1,20.2-18.3,5.77,5.77,0,0,1,3-1.3,64.83,64.83,0,0,1,7.6-.6,25.81,25.81,0,0,0,6.2-.3C96,98.65,97.74,99.25,99.64,100Z"/><path class="cls-2" d="M35.84,202a11.85,11.85,0,0,1-5.1.7c-6.2-.3-12.3.6-18.4.6-1.3,0-2.5.5-3.8.4a3.24,3.24,0,0,1-3.4-2.5,8.69,8.69,0,0,1-.4-4.5,33.13,33.13,0,0,0,.4-5.5c.2-4.8.5-9.7,1.1-15A241,241,0,0,0,35.84,202Z"/><path class="cls-2" d="M34,100.55a18.78,18.78,0,0,1,2.9-.6,244.71,244.71,0,0,1,27.1-.4c3,.1,6.1.3,9.1.4.5,0,1.1-.1,1.5.3.1.8-.4.9-.8,1.2a117.28,117.28,0,0,0-13.5,11.9c-1.2,1.3-2.3,2.7-3.5,3.9s-1.4,1.3-2.8.2c-2.9-2.2-5.7-4.4-8.5-6.6-3.2-2.6-6.5-5.2-9.7-7.8A5.41,5.41,0,0,1,34,100.55Z"/><path class="cls-2" d="M72.14,201.85a2.26,2.26,0,0,1,.9-2c2-2,4-4.1,6.2-6,2.7-2.4,5.3-5,7.9-7.7,3.3-3.4,6.8-6.5,10.2-9.8.3-.3.5-.6,1-.5s.4.7.4,1c-.8,4.4-.1,8.9-.5,13.4a79.5,79.5,0,0,1-.9,9.7,1.66,1.66,0,0,1-1.7,1.6c-7.7.4-15.5.6-23.2.3C72.44,202.05,72.34,202,72.14,201.85Z"/><path class="cls-3" d="M31.54,21.25a4.14,4.14,0,0,1,2,2.8,12,12,0,0,1-3.2,6.8,165.64,165.64,0,0,1-12,11.7,3.49,3.49,0,0,1-.9.6,4,4,0,0,1-.3-2.6,49.91,49.91,0,0,1,2.3-11.5,24.77,24.77,0,0,1,1.7-3.7A8.79,8.79,0,0,1,31.54,21.25Z"/><path class="cls-3" d="M15.24,68.05c-.1.7.4,1.6-.4,2-.6.3-1.2-.4-1.7-.8a36.93,36.93,0,0,1-8.8-9.7A14.74,14.74,0,0,1,2,51.35c0-2.7,1.4-3.7,4-3a5.77,5.77,0,0,1,2.9,1.5c2.5,2.8,4.9,5.6,5.3,9.6C14.64,62.45,15,65.25,15.24,68.05Z"/><path class="cls-3" d="M15,42.15a5.56,5.56,0,0,1-2.4-2.4,57.53,57.53,0,0,1-6-12.5c-1.4-4.4,1.2-7.5,5.8-7a7.25,7.25,0,0,1,4.1,1.8c1.5,1.3,2.1,2.8,1.3,4.7-1.6,3.8-1.6,7.9-2.1,12A7.17,7.17,0,0,1,15,42.15Z"/><path class="cls-3" d="M32.54,47.65a6.22,6.22,0,0,1-1.1,5.1c-.4.7-.9,1.3-1.3,1.9-2.8,3.4-5.5,6.8-8.5,10.1a34.84,34.84,0,0,0-2.8,3.9c-.3.4-.7.7-1.2.5s-.4-.6-.4-1c-.2-2.1-.4-4.1-.6-6.2a6.71,6.71,0,0,1,2.2-5.8c1-1,2.1-2,3.2-2.9,2.2-1.6,4.3-3.3,6.6-4.7C29.74,47.75,30.94,46.55,32.54,47.65Z"/><path class="cls-3" d="M75.74,1.55c1.7,1.9,1.8,4.3,2,6.7-.2,3.6,0,7.2-.5,10.7a46.57,46.57,0,0,1-1.2,6.3c-1.1.2-1.4-.6-1.8-1.3-3.2-5.5-4.6-11.3-3.1-17.6a9.45,9.45,0,0,1,2-4A2.19,2.19,0,0,1,75.74,1.55Z"/><path class="cls-3" d="M87.24,32.15a8,8,0,0,1-.4,3.4A30,30,0,0,1,80.44,47c-.4.5-.8,1.1-1.6.9s-.7-1-.8-1.6a9,9,0,0,1,.1-4c.6-2,.5-4.1.8-6.2a21.67,21.67,0,0,1,3.9-9.4c1.3-1.8,2.3-1.7,3.3.3A10.39,10.39,0,0,1,87.24,32.15Z"/><path class="cls-3" d="M20.34,79.05a6.85,6.85,0,0,1,1.3-3.5,17.68,17.68,0,0,1,9.4-7.4c.9-.3,1.8-.7,2.7-1,1.4-.5,2,.1,1.7,1.5a6,6,0,0,1-1.3,2.5c-3.3,4.7-7.1,9.1-10.2,13.9-.8,1.3-1.3,1.2-1.9-.2A12.3,12.3,0,0,1,20.34,79.05Z"/><path class="cls-3" d="M16.74,88.35c-1.1-.1-2.8-.2-4.5-.5a7.89,7.89,0,0,1-5.3-3.4,4.5,4.5,0,0,1-.1-5.4,4.62,4.62,0,0,1,5.2-2,41.63,41.63,0,0,1,4.8,2.2,3.59,3.59,0,0,1,1.5,2.1c.6,1.6,1.2,3.1,1.7,4.7s.3,2.1-1.4,2.3Z"/><path class="cls-3" d="M105.44,72.15c-1.2,1.7-3.2,2.5-4.7,3.7-3.8,1.5-7.5,3.1-11.3,4.6a6.3,6.3,0,0,1-3,.7c-1.1,0-1.4-.6-1-1.5a2.09,2.09,0,0,1,.4-.6c3.3-3.5,6.6-6.9,11-9.1a9,9,0,0,1,7-.7C105.44,69.75,105.64,70.15,105.44,72.15Z"/><path class="cls-3" d="M96.74,66c3.8-4.7,6.7-9.5,10.6-13.7a19.6,19.6,0,0,1,7.9-5.1,2.49,2.49,0,0,1,2.5.2,1.69,1.69,0,0,1,.1,2.6,19.28,19.28,0,0,1-3.1,3.3C109.44,58.15,103.94,62.85,96.74,66Z"/><path class="cls-3" d="M105.44,45.45a11.92,11.92,0,0,1-.7,5c-.5,1.3-1.1,1.4-1.8.4-2.6-3.9-5.3-7.8-5.9-12.7,0-.2-.1-.3-.1-.5-.3-1.9.2-3,1.3-3.5,1.3-.6,2.5-.1,3.7,1.5C104.14,38.55,105.94,41.65,105.44,45.45Z"/><path class="cls-3" d="M107.64,42.15a51.28,51.28,0,0,1-2.1-13.4,9.08,9.08,0,0,1,1.4-5.5c1.2-1.6,2-1.5,2.9.2a8.69,8.69,0,0,1,1.1,4.1c-.1,4.6,0,9.3-2.3,13.5C108.54,41.55,108.54,42.35,107.64,42.15Z"/><path class="cls-3" d="M90.54,67.15c.6-3.1,1.1-6.6,1.9-10a3.21,3.21,0,0,1,4-2.4,3.61,3.61,0,0,1,2.5,4.1,8.33,8.33,0,0,1-1.4,3.5c-1.8,2.4-3.6,4.7-5.4,7.1-.2.3-.4.7-.9.6s-.6-.6-.7-1.1A5.35,5.35,0,0,0,90.54,67.15Z"/><path class="cls-3" d="M84.84,52c1.9-.1,2.4.7,2,2.2a4.08,4.08,0,0,1-1.5,2.1c-3.2,2.5-6.5,5-9.7,7.5-.1,0-.1.1-.2.1-.6.2-1.3,1-1.9.4s0-1.2.1-1.8c.9-6.1,5.9-8.1,10.6-10.4A1.49,1.49,0,0,1,84.84,52Z"/><path class="cls-3" d="M75.94,44.15c-1-.2-1.2-1-1.5-1.6-1.7-3.4-3.4-6.9-5-10.3a11.76,11.76,0,0,1-.7-2,2.77,2.77,0,0,1,1.3-3.1,3,3,0,0,1,3.3.7,4.1,4.1,0,0,1,1.3,2.3,102.67,102.67,0,0,1,1.8,11.1A6.14,6.14,0,0,1,75.94,44.15Z"/><path class="cls-3" d="M70.94,65.45c-1.9-2.4-1.9-4.9-2.3-7.3-.3-2.1-.5-4.3-1-6.4a6,6,0,0,1,.2-3.5c.5-1.3,1.4-1.5,2.4-.5,1.9,2,3.4,4.3,3.2,7.2A37.27,37.27,0,0,1,70.94,65.45Z"/><path class="cls-3" d="M61.34,79.65c-.5-.4-.4-1-.5-1.5-.2-3-.2-6.1-.1-9.1a3.18,3.18,0,0,1,.2-1.4c.7-2.5,2.5-3,4.4-1.3,2.7,2.4,2.9,3.5,1.2,6.6a22.19,22.19,0,0,1-3.9,5.7C62.34,79.15,62,79.65,61.34,79.65Z"/><path class="cls-3" d="M55.64,41.75a11.71,11.71,0,0,1-.4,2.6,39.91,39.91,0,0,0-1.6,8.5,2.92,2.92,0,0,1-.2.9c-.4.9-1,1-1.6.2a6.43,6.43,0,0,1-1-2.4,15.6,15.6,0,0,0-1.7-5,2.4,2.4,0,0,1,.1-2.9,49.5,49.5,0,0,1,3.4-4.3c.5-.5,1-1.2,1.8-.8a2.06,2.06,0,0,1,1.1,1.8C55.64,40.75,55.54,41.25,55.64,41.75Z"/><path class="cls-3" d="M78.64,85a28.36,28.36,0,0,1-.4-9.2c.1-.4.2-.8.3-1.1.5-1.4,1.2-2.6,3-2.7a4.75,4.75,0,0,1,4.1,2.4,2.25,2.25,0,0,1-.2,2.7c-2.2,2.5-4.2,5.2-6.2,7.9A1.15,1.15,0,0,0,78.64,85Z"/><path class="cls-3" d="M26.34,90.75a2.84,2.84,0,0,1,1-2.2c2.2-2,4.3-4.1,6.9-5.4a10.09,10.09,0,0,1,1.5-.7,1.05,1.05,0,0,1,1.4,1.5,18.56,18.56,0,0,1-2.5,4.3c-1.3,1.6-2.7,3.1-4.1,4.6-.7.7-1.4,1.6-2.6,1.2C27.14,93.85,26.24,92.05,26.34,90.75Z"/><path class="cls-3" d="M50.84,8.75c-.4,3.2-2,6-2.9,9-.8,1.7-1.6,3.3-2.4,5-.2.4-.5.9-1,.8s-.6-.7-.6-1.2a29.23,29.23,0,0,1,1.4-9.7,20.29,20.29,0,0,1,2-4.8,6.42,6.42,0,0,1,1-1.3A1.43,1.43,0,0,1,50,6a1.34,1.34,0,0,1,.8,1.4Z"/><path class="cls-3" d="M45.44,32.15a8,8,0,0,1,.6-3,35.19,35.19,0,0,1,3.7-6.9,10.63,10.63,0,0,1,.9-1.1c.4-.4.8-.8,1.5-.5.5.2.5.8.5,1.2a5.91,5.91,0,0,1-.4,2.6,102.36,102.36,0,0,0-4.5,10.8,1.11,1.11,0,0,1-.7.9c-.6.1-.8-.5-1-.9A7.12,7.12,0,0,1,45.44,32.15Z"/><path class="cls-3" d="M44.94,42.55a13.35,13.35,0,0,1-5.9-4.5,11.74,11.74,0,0,1-1.5-2.7c-.6-1.8-.3-3.1.9-3.8a3.15,3.15,0,0,1,3.8,1.1,6.2,6.2,0,0,1,1.2,2.6C44,37.65,44.24,40.05,44.94,42.55Z"/><path class="cls-3" d="M77.94,95.05c-.3-4.2,2-7.9,5.2-8.8a5,5,0,0,1,1.2-.2c1.1,0,2.2,0,2.7,1.1.4.9-.4,1.6-1,2.3A31,31,0,0,1,77.94,95.05Z"/><path class="cls-3" d="M22.44,97.65a5.84,5.84,0,0,1-4.8-1.8c-1.7-2-1.2-3.6,1.3-4.2,3.5-.9,5.3.1,6.7,3.5.6,1.4.2,2-1.4,2.3A5.24,5.24,0,0,1,22.44,97.65Z"/><path class="cls-3" d="M74.24,84.65a4,4,0,0,1,.7,1.8c-.6,2.7-3.7,8.2-5.9,10.1-.2-3-.5-5.8.2-8.6A4.52,4.52,0,0,1,74.24,84.65Z"/><path class="cls-3" d="M62.74,84.15c1.3-2.6,2.4-5.3,4.3-7.6a10.71,10.71,0,0,1,1.8-1.9c1.2-1,2.1-1,3-.2s.7,1.8.2,2.8a8.49,8.49,0,0,1-2.4,2.9c-2.1,1.5-4.3,2.9-6.5,4.4C62.94,84.45,62.84,84.25,62.74,84.15Z"/><path class="cls-3" d="M53.54,60.85a1.89,1.89,0,0,1-2-.4c-1.8-1.1-3.6-2.3-5.4-3.5a4,4,0,0,1-1.6-1.8c-.7-1.6.1-2.9,1.8-2.9a3,3,0,0,1,2.6,1.5C50.44,56.05,52.14,58.25,53.54,60.85Z"/><path class="cls-3" d="M55,90.55a9.56,9.56,0,0,1-1.8-6.2c.1-1,.2-2,1.2-2.4,1.3-.4,1.8.6,2.4,1.5C58.74,86.25,58.34,87.75,55,90.55Z"/><path class="cls-3" d="M62.84,88.15a2.19,2.19,0,0,1,1.3-1.2c1.4,1,3.1,1.7,3.2,3.7,0,.1,0,.2.1.2,0,1.1.5,2.3-.5,3.1-.6.5-2.1-.4-3-1.6-.7-1.1-1.4-2.2-.8-3.6C63.24,88.65,63.14,88.35,62.84,88.15Z"/><path class="cls-3" d="M59.74,55.85a33.76,33.76,0,0,1-1.4,6.3c-.2.4-.4.9-1,.9-.4,0-.6-.4-.9-.8-1.4-2.3-.5-6.1,1.8-7.4.3-.2.7-.5,1.1-.2S59.84,55.35,59.74,55.85Z"/><path class="cls-1" d="M64.54,86.85a2.67,2.67,0,0,0-2.1,2.1c-.1.6.8.9,1,.3a1.59,1.59,0,0,1,1.4-1.4C65.44,87.75,65.14,86.75,64.54,86.85Z"/></g></g></svg>