<svg xmlns="http://www.w3.org/2000/svg" viewBox="0 0 142.14 223.64"><defs><style>.cls-1{fill:#2e2a25;}.cls-2{fill:#cd5599;}.cls-3{fill:#c3e088;}.cls-4{fill:#262729;}</style></defs><g id="Layer_2" data-name="Layer 2"><g id="Layer_1-2" data-name="Layer 1"><path class="cls-1" d="M63.21,40.5c6.7-10.5,11.5-21.9,17.3-32.8a7.76,7.76,0,0,0,.7-.4c.6,6.9.8,13.7,2,20.8.9-1.5,1.7-2.7,2.5-3.9,1.4-2.3,1.9-2.4,4.6-1.6a5.1,5.1,0,0,0,1.2-2c2.8-5.3,6.4-10.1,9.6-15.2a17,17,0,0,1,5.3-5.4c1.7,11.1,3.3,21.8,5,32.4.9,0,1-.7,1.4-1.2,3.2-3.6,6.9-6.7,10.3-10,1-.9,1.3-.9,2,.3a45.86,45.86,0,0,1,4,10.3,50.92,50.92,0,0,1-4.4,36.3c-.3.6-.6,1.1-.9,1.7a1.58,1.58,0,0,0,.1.4,82.68,82.68,0,0,0,8.9-6.2c2.2-1.9,4.4-3.9,6.6-5.9a6.47,6.47,0,0,1,.9-.8c1.1-.7,1.8-.4,1.8.9a38.22,38.22,0,0,1-2.3,14.6,40.44,40.44,0,0,1-10.9,16.1c-2.5,2.3-5.1,4.6-7.4,7.1a22.1,22.1,0,0,0-4.3,6.6,1.31,1.31,0,0,0,.1,1.2h3.1a12.42,12.42,0,0,1,3.3.4c2.4.6,3.6,2.1,3.4,4.5-.2,3.3-.7,6.7-1.1,10-1.4,10.9-2.9,21.7-4.6,32.5q-3.3,21-7.5,41.7c-1.2,5.7-2.1,11.5-3,17.2-.8,5.2-3.7,8.2-8.8,9.4A152.66,152.66,0,0,1,78,223.2c-12,.7-24,.4-36,.2-3.4-.1-6.7,0-10.1-.1-4.8-.1-6.9-1.9-7.6-6.5-.9-6-.8-12.1-.8-18.2,0-19.3-.5-38.5-.9-57.8-.2-10.3-.4-20.6-.5-30.9a2.51,2.51,0,0,0-1.7-2.7,22.78,22.78,0,0,1-8.5-7.2c-5.2-6.8-8.1-14.6-9.6-23-.7-4.2-.5-8.5-1.5-12.7A20.17,20.17,0,0,1,0,58.9a7.14,7.14,0,0,1,.2-2.1c.5-2,1.7-2.8,3.7-2.1a18.23,18.23,0,0,1,7.9,5.2c.5.6,1,1.1,1.5,1.7.6-.5.4-1,.4-1.5A303.42,303.42,0,0,1,15.21,22c.3-3.3.7-6.7,1.1-10,.1-.5.1-1,.2-1.4.4-1.6.9-1.9,2.3-.9a24,24,0,0,1,6.4,6.7,42.08,42.08,0,0,1,6.4,16.7c1.1,6.7,1.9,13.4,2.9,20.2.2,1.6.7,3.3,1.1,5.1.9-1.2.9-2.4,1.4-3.5,5.5-12.8,10.7-25.8,18.7-37.5,2.2-3.2,4.5-6.4,6.8-9.6.5-.7.9-1.9,2.1-1.6s1.4,1.5,1.5,2.5a55.11,55.11,0,0,1,.4,11.5,113.81,113.81,0,0,1-3.8,20,2.23,2.23,0,0,0-.4,1.8A3,3,0,0,0,63.21,40.5ZM25.51,200.9c0,2.2-.1,4.5,0,6.7a37.38,37.38,0,0,0,1.7,9.9c1,3,1.9,3.7,5,3.9a19.27,19.27,0,0,1,2.4.1,140.31,140.31,0,0,0,25.1.3c1.1-.1,1.7-.4,1.9-1.6.3-1.8.7-3.6,1.1-5.4,1-4.6,4.2-6.9,8.5-7.7,4.7-.9,8.4,1.3,9.9,5.9a24.41,24.41,0,0,1,.9,4.7c.2,2.2.6,2.7,2.8,2.6a47.25,47.25,0,0,0,5.3-.4,38,38,0,0,0,12.4-3.3,9.88,9.88,0,0,0,5.4-6.4c.6-2.3,1.2-4.6,1.8-7,1.1-4.4,2.2-8.8,3.4-13.2a6,6,0,0,0-1.5-6c-.7-.8-1.5-1.5-2.1-2.3-5.8-7.2-7.3-15.2-3.9-23.8,2.1-5.4,5.9-9.3,12.3-9.4,1.2,0,1.6-.8,1.7-1.9.4-3,.7-6,1.1-9,.4-2.8.3-3.1-2.2-4.3a16.49,16.49,0,0,1-6.2-5.2c-4.2-5.9-5.2-12.6-4.4-19.6.3-2.6,0-3.1-2.6-3.3-3.6-.2-7.2-.4-10.8-.7s-3.7-.4-5.1,2.9a21.61,21.61,0,0,1-21.7,12.7c-5.5-.6-9.1-3.7-10.5-9a35.4,35.4,0,0,1-.8-4.5c-.3-1.8-.5-2-2.3-1.9a12.25,12.25,0,0,0-1.9.2c-3.7.5-7.4,1.1-11.2,1.4a58.9,58.9,0,0,0-7.1,1.3,1.93,1.93,0,0,0-1.7,2.2v1.7a14.56,14.56,0,0,1-3.4,10.4c-.5.6-.8,1.2-1.3,1.7a12.14,12.14,0,0,0-2.9,9.3c.3,4.9.5,9.9.5,14.9,0,3.2.6,6,3.8,7.5a4.81,4.81,0,0,1,1.1.9,15.23,15.23,0,0,1,5.5,9.3,40.45,40.45,0,0,1,.4,11,15.12,15.12,0,0,1-3.4,8.6,16.15,16.15,0,0,1-5.2,4.5,2.55,2.55,0,0,0-1.5,2.2A55.75,55.75,0,0,0,25.51,200.9ZM18.61,11.6a5,5,0,0,0-1,2.6,171.7,171.7,0,0,0-1.9,21.5c-.2,6.1-.4,12.1-.6,18.2-.1,2.2-.3,4.3-.2,6.5a37.33,37.33,0,0,0,3.8,13.5c4.2,9.2,8.3,18.3,12.5,27.5,1.8,4,.9,3.5,5.7,3.3,1.7-.1,1.9-.4,1.9-2a4.87,4.87,0,0,0-.1-1.2c-.7-5.5-1.4-10.9-2.1-16.4-1-8.2-2.1-16.3-3.1-24.5a225.18,225.18,0,0,0-3.9-24.4,82.54,82.54,0,0,0-7-19.3A9.83,9.83,0,0,0,18.61,11.6Zm85.7,87.5c0,.5.1,1.2.1,1.9-.1,1.2.4,1.8,1.6,1.8a11.53,11.53,0,0,1,2.6.3c2.8.5,2.8.5,2.8-2.4a73,73,0,0,1,.1-8.1c1.4-9.6,6-17.8,10.8-25.9a19.23,19.23,0,0,0,1.8-3.1c3.1-7.9,5.6-16,4.4-24.7-.7-4.8-2.3-9.3-3.7-13.9-.4-1.3-1.1-1.4-2.2-.7a6.47,6.47,0,0,0-.9.8c-1.9,2.8-4.4,5-6.5,7.7a18.63,18.63,0,0,0-4.2,9.5,56.29,56.29,0,0,1-3.5,13.4A102.8,102.8,0,0,0,104,66.4c-1.5,5.9-1.2,11.9-.3,17.9a42.89,42.89,0,0,1,.4,12.4A9.34,9.34,0,0,1,104.31,99.1Zm1.2-95.9c-.7.1-1,.6-1.3,1.1A92.26,92.26,0,0,1,96.31,16a34.48,34.48,0,0,0-4.6,9.2,11.06,11.06,0,0,0-.4,5.4c.6,3.1,1.3,6.3,2,9.4a59.32,59.32,0,0,1,2.1,11,48.81,48.81,0,0,1-3.1,20c-2.1,5.7-3,11.4-1.6,17.4,1,4.1,2.1,8.2,2.9,12.4a1.85,1.85,0,0,0,.2.7c.5,1.2,1.5,1,2.5.9s.9-.9.8-1.6a11.54,11.54,0,0,1-.1-2.6c1.2-7.6,1.2-15.4,3.6-22.9a12.5,12.5,0,0,0,.3-1.9,39.27,39.27,0,0,1,2.4-10.9c1.7-4.2,3.1-8.5,4.4-12.9,2.2-7.5,2.9-15,.7-22.7A60.74,60.74,0,0,1,106,7C106.11,5.7,106.31,4.3,105.51,3.2ZM87.61,25c-.4.7-.7,1.2-1,1.8-3,6.3-5.8,12.6-8.3,19.1-4.7,12-6.4,24.3-3.9,37.1A64.3,64.3,0,0,0,80,99.5a4.59,4.59,0,0,0,4.2,2.7c1.6.1,2.4-.5,2.6-2.1a28,28,0,0,0,0-2.9c.1-9.7.6-19.3,4.3-28.5a36.36,36.36,0,0,0,2.3-15.3c-.2-8.5-2.3-16.7-4.1-25A6.13,6.13,0,0,0,87.61,25ZM40.51,96.2a1.1,1.1,0,0,0,1.1-.9c2-5,3.8-10,3.5-15.5a33.76,33.76,0,0,1,1.1-10c2.6-10.7,7.9-20.4,11.4-30.7a1.22,1.22,0,0,1,1.4-1c1,.2,1.4-.3,1.7-1.2a46,46,0,0,0,3.1-15.5c0-3.3.1-6.6.2-9.8a2.82,2.82,0,0,0-.4-2c-.6-.1-.7.3-1,.7-3.7,5.8-7.4,11.6-10.9,17.5-2.8,4.6-5.7,9.3-7.5,14.4C42,48.3,40,54.6,37.71,60.7a20.45,20.45,0,0,0-.9,10.1c.6,4.2,1.1,8.4,1.7,12.6S39.51,91.9,40.51,96.2Zm39.3-80.7c-.7,0-.9.4-1,.9-2.6,6-6.1,11.4-9.4,17a63.94,63.94,0,0,0-4.8,9.4,11.6,11.6,0,0,0-.2,8.4A29.5,29.5,0,0,1,66.21,63,62.57,62.57,0,0,1,62,84.3a12.55,12.55,0,0,0-1.2,4.6,85.57,85.57,0,0,0,1.4,12.4c.2,1.4,1,1.7,2.5,1.6,1.3-.1,1.6-.9,1.5-2a8,8,0,0,1,.8-3.7c.5-1.3,1-2.7,1.5-4,.8-2.3,1.5-4.5,3.3-6.3a2,2,0,0,0,.5-2,31.54,31.54,0,0,1-1-8.1c-.3-6.5-.8-12.9.7-19.3s3.2-12.5,6.5-18.2a15.3,15.3,0,0,0,1.8-5.2c.7-6,0-12-.1-17.9A1.4,1.4,0,0,0,79.81,15.5ZM59.31,42.3c-.2.3-.4.5-.5.7-2.6,6.9-5.6,13.6-8,20.5-2.4,7.1-4.1,14.3-3.7,21.8a109.86,109.86,0,0,0,1.9,15,5,5,0,0,0,.8,2,2,2,0,0,0,3.5.1,5.3,5.3,0,0,0,.8-1.5c2.2-7.7,5.4-15.2,7.8-22.9,2.8-8.9,3.5-17.8,1-26.9A38.85,38.85,0,0,0,59.31,42.3Zm-32.7,64.4a2.81,2.81,0,0,0,.8-.1c2.8-.5,3.5-2.2,2.1-4.6a27.54,27.54,0,0,1-2-3.8C23.71,89.6,19.81,81,16,72.4c-1.7-4-3.4-7.9-6.7-10.9-1-.9-1.7-2.2-2.6-3.1a2.44,2.44,0,0,0-2.8-.7c-1.1.5-.9,1.6-.9,2.5.5,6.3.8,12.6,1.9,18.8a44.17,44.17,0,0,0,6.6,17.1,28.5,28.5,0,0,0,10.4,9.4A10.84,10.84,0,0,0,26.61,106.7Zm113.6-45.9a1.72,1.72,0,0,0-1.6.6c-4.2,4.4-9.1,8-13.7,12a38.07,38.07,0,0,0-8.6,10.9c-2.8,5.6-3.4,11.6-3,17.7,0,.4,0,1,.7,1.1.5,0,.6-.5.8-.8a28,28,0,0,1,6.9-9.4c3.3-3.3,6.6-6.5,9.9-9.8a19.31,19.31,0,0,0,4.5-5.8C138.51,72.1,139.31,66.5,140.21,60.8Zm-67,27.9a8.85,8.85,0,0,0-1.8,2.5,55.3,55.3,0,0,0-2.8,8.1,4.87,4.87,0,0,0-.1,1.2c-.1,1.1.5,1.6,1.5,1.7a23,23,0,0,0,6.4-.4c1.5-.3,2-1.2,1.3-2.6a85.84,85.84,0,0,1-3.5-8.3C74,90.1,74,89.3,73.21,88.7Zm28.3-8.3a12.78,12.78,0,0,0-1,4.7c-.7,5.2-1.3,10.4-1.7,15.7-.1,1.8.2,2.1,1.9,2a1.72,1.72,0,0,0,1.8-1.3,10.55,10.55,0,0,0,.4-3.1c-.1-2.9-.2-5.7-.4-8.6A37.59,37.59,0,0,0,101.51,80.4ZM45,91.7a1,1,0,0,0-.6.9,17,17,0,0,1-2.6,6.4,3.55,3.55,0,0,0-.4.9c-.7,4.3-1.2,4.9,3.7,4.1,2.2-.3,2.3-.6,1.9-2.8a48.64,48.64,0,0,1-1.4-8.5A1.1,1.1,0,0,0,45,91.7Zm14.3,1.1c-1.4,2.8-1.8,5.5-2.7,8l-.3.9a.63.63,0,0,0,.2.8c1.2.8,3.9-.1,3.8-1.4C60.21,98.5,60.51,95.7,59.31,92.8Zm30.5-1h-.7a12.81,12.81,0,0,0-.5,7.5,3.38,3.38,0,0,0,.9,1.9,1.23,1.23,0,0,0,1.3.5.81.81,0,0,0,.5-1.1C90.81,97.7,90.31,94.7,89.81,91.8Z"/><path class="cls-2" d="M25.51,200.9a55.39,55.39,0,0,1,.3-9.1,2.75,2.75,0,0,1,1.5-2.2,16.15,16.15,0,0,0,5.2-4.5,15.85,15.85,0,0,0,3.4-8.6,44.89,44.89,0,0,0-.4-11,15.23,15.23,0,0,0-5.5-9.3,8.7,8.7,0,0,0-1.1-.9c-3.2-1.6-3.8-4.3-3.8-7.5,0-5-.2-9.9-.5-14.9a12.14,12.14,0,0,1,2.9-9.3c.5-.5.8-1.2,1.3-1.7a14.12,14.12,0,0,0,3.4-10.4v-1.7a2,2,0,0,1,1.7-2.2,42.28,42.28,0,0,1,7.1-1.3c3.7-.3,7.5-.9,11.2-1.4.6-.1,1.3-.1,1.9-.2,1.8-.1,2,.1,2.3,1.9a35.4,35.4,0,0,0,.8,4.5c1.4,5.3,5,8.4,10.5,9a21.61,21.61,0,0,0,21.7-12.7c1.4-3.3,1.4-3.2,5.1-2.9s7.2.5,10.8.7c2.6.2,2.9.6,2.6,3.3-.8,7,.2,13.7,4.4,19.6a16.49,16.49,0,0,0,6.2,5.2c2.5,1.3,2.6,1.5,2.2,4.3-.4,3-.8,6-1.1,9-.1,1.1-.5,1.8-1.7,1.9-6.4.2-10.2,4-12.3,9.4-3.4,8.6-1.9,16.6,3.9,23.8.6.8,1.4,1.5,2.1,2.3a6,6,0,0,1,1.5,6c-1.2,4.4-2.2,8.8-3.4,13.2-.6,2.3-1.2,4.6-1.8,7a9.88,9.88,0,0,1-5.4,6.4,35.64,35.64,0,0,1-12.4,3.3,45.53,45.53,0,0,1-5.3.4c-2.2,0-2.6-.4-2.8-2.6a18.62,18.62,0,0,0-.9-4.7c-1.5-4.6-5.2-6.8-9.9-5.9-4.3.9-7.5,3.2-8.5,7.7-.4,1.8-.8,3.6-1.1,5.4-.2,1.2-.8,1.5-1.9,1.6a140.2,140.2,0,0,1-25.1-.3,19.27,19.27,0,0,0-2.4-.1c-3.1-.1-4-.9-5-3.9a36.7,36.7,0,0,1-1.7-9.9C25.41,205.4,25.51,203.2,25.51,200.9Zm61.8-33a23.33,23.33,0,0,0-4.5-14.4,9.85,9.85,0,0,0-12.6-3,17.38,17.38,0,0,0-1.9,1,22.59,22.59,0,0,0-10.6,16.9c-.8,6.7,1.3,12.5,6.7,16.8,3.6,2.9,7.4,3.4,11.3,1.1C83.11,182,86.91,175.4,87.31,167.9Zm-30.1-31.6c0-5.4-1.2-9.2-4-12.5a9.73,9.73,0,0,0-8.7-3.7,14.85,14.85,0,0,0-9.8,5c-6.9,7.9-5,19.3,1.1,25.2a9.73,9.73,0,0,0,13.6.6A20.22,20.22,0,0,0,57.21,136.3Zm.6,62.8c.1-6.7-3.3-11.4-9.7-13.4a17.75,17.75,0,0,0-4.5-.8,10.67,10.67,0,0,0-11.3,8.3c-1.2,4.7-.4,9.2,1.5,13.6,3.6,8.2,15,7.8,19.3,3.7A15.55,15.55,0,0,0,57.81,199.1ZM82.51,134a14.72,14.72,0,0,0,4.6,11.4,10.38,10.38,0,0,0,9.6,3.2,12.18,12.18,0,0,0,9.8-9.4c1.8-6.3.2-12.2-3.7-17.4-2.7-3.5-6.3-4.4-10.5-3C86.21,120.7,82.31,126.6,82.51,134Zm-.6,63.9c.1,1,0,2.1.2,3.1a15.92,15.92,0,0,0,5.1,10.3c5.3,4.8,11.9,3.7,15.6-2.4a20,20,0,0,0,2.9-12.6,13.42,13.42,0,0,0-6.6-10.5,10.93,10.93,0,0,0-15.8,5.1A14.2,14.2,0,0,0,81.91,197.9Z"/><path class="cls-3" d="M18.61,11.6c2.1,1.4,3.1,3.4,4.1,5.3a89.18,89.18,0,0,1,7,19.3c1.8,8,2.8,16.2,3.9,24.4s2.1,16.3,3.1,24.5c.7,5.5,1.4,10.9,2.1,16.4a4.87,4.87,0,0,1,.1,1.2c0,1.6-.2,1.9-1.9,2-4.8.2-3.9.7-5.7-3.3-4.2-9.2-8.3-18.3-12.5-27.5A37.33,37.33,0,0,1,15,60.4c-.1-2.2.1-4.3.2-6.5.2-6.1.4-12.1.6-18.2a154.71,154.71,0,0,1,1.9-21.5A4.54,4.54,0,0,1,18.61,11.6Z"/><path class="cls-3" d="M104.31,99.1a19.05,19.05,0,0,1,0-2.4,42.89,42.89,0,0,0-.4-12.4c-.9-6-1.2-11.9.3-17.9a102.8,102.8,0,0,1,3.5-10.7,63,63,0,0,0,3.5-13.4,18.63,18.63,0,0,1,4.2-9.5c2.1-2.6,4.6-4.9,6.5-7.7a2.36,2.36,0,0,1,.9-.8c1.1-.7,1.8-.6,2.2.7,1.4,4.6,3,9.1,3.7,13.9,1.2,8.7-1.3,16.8-4.4,24.7a19.23,19.23,0,0,1-1.8,3.1c-4.8,8.1-9.4,16.3-10.8,25.9a43.84,43.84,0,0,0-.1,8.1c0,2.8.1,2.8-2.8,2.4a23,23,0,0,0-2.6-.3c-1.3,0-1.7-.6-1.6-1.8C104.51,100.3,104.41,99.6,104.31,99.1Z"/><path class="cls-3" d="M105.51,3.2a5.82,5.82,0,0,1,.5,3.7,58.18,58.18,0,0,0,2.4,19.9c2.2,7.7,1.5,15.2-.7,22.7-1.3,4.4-2.8,8.7-4.4,12.9a37.37,37.37,0,0,0-2.4,10.9,6.28,6.28,0,0,1-.3,1.9c-2.4,7.4-2.4,15.3-3.6,22.9a11.11,11.11,0,0,0,.1,2.6c.1.7.2,1.5-.8,1.6s-2,.3-2.5-.9c-.1-.2-.1-.5-.2-.7-.7-4.2-1.9-8.3-2.9-12.4-1.4-6-.5-11.7,1.6-17.4a47,47,0,0,0,3.1-20,57.79,57.79,0,0,0-2.1-11c-.7-3.1-1.5-6.2-2-9.4a11,11,0,0,1,.4-5.4,31.75,31.75,0,0,1,4.6-9.2,92.26,92.26,0,0,0,7.9-11.7A2,2,0,0,1,105.51,3.2Z"/><path class="cls-3" d="M87.61,25a6.24,6.24,0,0,1,1.6,3.5c1.9,8.2,3.9,16.5,4.1,25A39.83,39.83,0,0,1,91,68.8c-3.7,9.2-4.2,18.8-4.3,28.5a28.05,28.05,0,0,1,0,2.9c-.2,1.6-1,2.2-2.6,2.1a4.59,4.59,0,0,1-4.2-2.7,64.3,64.3,0,0,1-5.6-16.5c-2.5-12.8-.8-25.1,3.9-37.1,2.6-6.5,5.3-12.9,8.3-19.1C86.91,26.2,87.31,25.6,87.61,25Z"/><path class="cls-3" d="M40.51,96.2c-1-4.3-1.4-8.6-2-12.8s-1.1-8.4-1.7-12.6a20.35,20.35,0,0,1,.9-10.1c2.3-6.1,4.3-12.4,6.5-18.5a85.57,85.57,0,0,1,7.5-14.4c3.6-5.9,7.3-11.7,10.9-17.5.2-.3.4-.7,1-.7a2.82,2.82,0,0,1,.4,2c-.1,3.3-.2,6.6-.2,9.8a45,45,0,0,1-3.1,15.4c-.3.8-.7,1.4-1.7,1.2a1.31,1.31,0,0,0-1.4,1c-3.5,10.4-8.8,20-11.4,30.7a33.76,33.76,0,0,0-1.1,10c.3,5.5-1.5,10.5-3.5,15.5A1.27,1.27,0,0,1,40.51,96.2Z"/><path class="cls-3" d="M79.81,15.5c.1.2.3.3.3.5.1,6,.8,11.9.1,17.9a12,12,0,0,1-1.8,5.2c-3.3,5.7-5,11.9-6.5,18.2s-.9,12.9-.7,19.3a32.09,32.09,0,0,0,1,8.1,1.83,1.83,0,0,1-.5,2c-1.8,1.8-2.5,4-3.3,6.3-.5,1.4-1,2.7-1.5,4a8,8,0,0,0-.8,3.7c.1,1.1-.2,1.9-1.5,2-1.5.1-2.2-.2-2.5-1.6a85.57,85.57,0,0,1-1.4-12.4,12.55,12.55,0,0,1,1.2-4.6,67.75,67.75,0,0,0,4.2-21.3A33.85,33.85,0,0,0,64.31,51a11.6,11.6,0,0,1,.2-8.4,59.5,59.5,0,0,1,4.8-9.4c3.3-5.6,6.8-11,9.4-17A1.16,1.16,0,0,1,79.81,15.5Z"/><path class="cls-3" d="M59.31,42.3a39.17,39.17,0,0,1,3.5,8.9c2.6,9.1,1.8,18-1,26.9-2.4,7.7-5.6,15.1-7.8,22.9a10.93,10.93,0,0,1-.8,1.5,2,2,0,0,1-3.5-.1,7,7,0,0,1-.8-2,106,106,0,0,1-1.9-15c-.3-7.5,1.3-14.7,3.7-21.8,2.4-6.9,5.4-13.6,8-20.5C58.91,42.8,59.11,42.6,59.31,42.3Z"/><path class="cls-3" d="M26.61,106.7a10.28,10.28,0,0,1-4.7-1.3A28.42,28.42,0,0,1,11.51,96a44.17,44.17,0,0,1-6.6-17.1C3.81,72.7,3.51,66.4,3,60.1c-.1-.9-.3-2,.9-2.5a2.44,2.44,0,0,1,2.8.7c1,1,1.6,2.2,2.6,3.1,3.3,3,4.9,7,6.7,10.9,3.8,8.6,7.6,17.2,11.5,25.8.6,1.3,1.3,2.6,2,3.8,1.4,2.4.7,4.1-2.1,4.6A1.72,1.72,0,0,1,26.61,106.7Z"/><path class="cls-3" d="M140.21,60.8c-.8,5.7-1.7,11.3-4.1,16.5a19.68,19.68,0,0,1-4.5,5.8c-3.3,3.2-6.6,6.5-9.9,9.8-2.8,2.8-5.4,5.7-6.9,9.4-.1.4-.3.8-.8.8-.7,0-.6-.6-.7-1.1-.4-6.2.2-12.2,3-17.7a34.91,34.91,0,0,1,8.6-10.9c4.6-4,9.5-7.6,13.7-12A1.62,1.62,0,0,1,140.21,60.8Z"/><path class="cls-4" d="M87.31,167.9c-.4,7.5-4.2,14.1-11.6,18.4-3.9,2.3-7.7,1.9-11.3-1.1-5.3-4.4-7.4-10.1-6.7-16.8a22.59,22.59,0,0,1,10.6-16.9,11.4,11.4,0,0,1,1.9-1,9.85,9.85,0,0,1,12.6,3A23.33,23.33,0,0,1,87.31,167.9Z"/><path class="cls-4" d="M57.21,136.3a21,21,0,0,1-7.7,14.7,9.64,9.64,0,0,1-13.6-.6c-6.1-6-8-17.3-1.1-25.2a14.85,14.85,0,0,1,9.8-5,9.59,9.59,0,0,1,8.7,3.7C55.91,127.1,57.21,130.9,57.21,136.3Z"/><path class="cls-4" d="M57.81,199.1a15.48,15.48,0,0,1-4.7,11.4c-4.3,4.1-15.7,4.5-19.3-3.7-1.9-4.4-2.7-8.9-1.5-13.6a10.58,10.58,0,0,1,11.3-8.3,17.75,17.75,0,0,1,4.5.8C54.51,187.7,57.91,192.4,57.81,199.1Z"/><path class="cls-4" d="M82.51,134c-.1-7.4,3.8-13.2,9.8-15.2,4.2-1.4,7.8-.5,10.5,3,4,5.1,5.5,11,3.7,17.4-1.4,4.9-4.6,8.3-9.8,9.4-3.8.8-6.9-.6-9.6-3.2A14.38,14.38,0,0,1,82.51,134Z"/><path class="cls-4" d="M81.91,197.9a18.51,18.51,0,0,1,1.3-7A10.93,10.93,0,0,1,99,185.8a13.18,13.18,0,0,1,6.6,10.5,20,20,0,0,1-2.9,12.6c-3.7,6.1-10.3,7.1-15.6,2.4C84,208.6,82.61,205,82,201,81.91,200,81.91,198.9,81.91,197.9Z"/></g></g></svg>