<svg xmlns="http://www.w3.org/2000/svg" viewBox="0 0 141.02 248.29"><defs><style>.cls-1{fill:#262729;}.cls-2{fill:#c3e088;}.cls-3{fill:#2e2a25;}.cls-4{fill:#41873f;}.cls-5{fill:#cd5599;}</style></defs><g id="Layer_2" data-name="Layer 2"><g id="Layer_1-2" data-name="Layer 1"><path class="cls-1" d="M106.21,114.58a16.1,16.1,0,0,1,4.3.7,6.19,6.19,0,0,1,4.5,7.4,17.2,17.2,0,0,1-1.9,5.2c-6.8,13.5-11,27.9-13.7,42.7a281.93,281.93,0,0,0-3.9,36.7c-.4,8.9-.8,17.9-1,26.8,0,1.5-.2,3-.3,4.5-.4,3.4-1.8,5-5.2,5.7-5.8,1.2-11.6,2.1-17.5,2.8a210.72,210.72,0,0,1-29.7,1.1,196.35,196.35,0,0,1-23.1-2.2l-9-1.2a12.21,12.21,0,0,1-2.6-.6c-5.7-1.6-7.8-4.9-6.8-10.7.7-3.6,1.5-7.2,2.2-10.8a221.29,221.29,0,0,0,4.4-38.1,225,225,0,0,0-6.2-60.1,15.39,15.39,0,0,1-.7-4.2c.1-2,1-2.9,2.9-3.1,1.1-.1,2.2-.1,3.3-.1.8,0,1.6.1,2.4.1,8,.4,16,.5,24,.5,13.7.1,27.4-.1,41-.7C84.51,116.48,95.41,115.58,106.21,114.58Zm-6.4,42.8h-.4c-1.3,1.4-2.7,2.7-4,4.1-16.5,17.2-32.9,34.5-48.6,52.5-6.9,7.9-13.6,16-20.1,24.2a19.2,19.2,0,0,0-2.5,3.8c-.7,1.8-.2,3,1.5,3.7a8,8,0,0,0,3,.6c7.5.3,15,.7,22.5,1,1.4.1,2.9,0,4.3.2a6.32,6.32,0,0,0,6.3-2.7c2.6-3.5,5.3-7.1,7.8-10.6,4.3-5.9,8.5-11.8,13.8-16.9,1.8-1.7,3.7-3.3,5.5-5a16.22,16.22,0,0,0,4.7-8.7c1.1-5.3,1.2-10.8,1.8-16.2,1-8.6,2.2-17.1,3.7-25.6A16.82,16.82,0,0,0,99.81,157.38Zm-91.9,47.2c.6,0,.8-.6,1.2-.9a74.2,74.2,0,0,0,6.5-8.3,100.63,100.63,0,0,1,7.4-9.8c13.6-15.7,28.6-29.9,44.3-43.5,8.3-7.2,16.6-14.3,24.9-21.5.6-.5,1.5-.9,1.7-1.9h-2.3c-14.3.3-28.6.8-42.9.9a8.58,8.58,0,0,0-7.1,3.4l-2.6,3.2c-8.9,10.7-17.9,21.3-26.9,32a13.59,13.59,0,0,0-3.4,8.5c-.1,6.2-.3,12.5-.5,18.7-.1,3.4-.3,6.7-.3,10.1C7.81,198.38,7.91,201.48,7.91,204.58Z"/><path class="cls-2" d="M106.21,114.58c-10.8.9-21.7,1.8-32.5,2.4-13.7.7-27.3.8-41,.7-8-.1-16-.1-24-.5-.8,0-1.6-.1-2.4-.1a105.29,105.29,0,0,1-3.9-17.5,98.49,98.49,0,0,1-.8-21,95.1,95.1,0,0,1,8.1-34.3,38.82,38.82,0,0,1,14.3-17,46.51,46.51,0,0,1,16.5-6.2,93.77,93.77,0,0,1,14-1.6c2.9-.1,5.9-.4,8.8-.3a184.27,184.27,0,0,1,19.6,1.3c2.1.3,4.1.4,6.2.6a5,5,0,0,1,.2,1.2,40.61,40.61,0,0,0,3.5,14.1,31.09,31.09,0,0,1,2.2,5.3c-.1,2.4.5,4.8.7,7.1a101.87,101.87,0,0,1-.9,27,102.3,102.3,0,0,1-12.1,33.4c-.7,1.3-1.4,2.7-2,4.1s-.4,1.8,1.1,1.8c1.7,0,3.3-.2,5-.2a103.6,103.6,0,0,0,11.2-.7c4.3-.4,7.6-2,9.5-6.2,1.5-3.2,3.3-6.4,4.7-9.7,4.2-10,6.8-20.3,6.9-31.1a64,64,0,0,0-.5-8.8c-.7-5-1.6-9.9-4.4-14.3a4.65,4.65,0,0,1,2.3-.9A5.34,5.34,0,0,0,117,45c4,8.7,4.6,17.9,4,27.1a83,83,0,0,1-6,24.5c-1.5,3.9-3.2,7.7-4.8,11.5A25.26,25.26,0,0,1,106.21,114.58ZM50,115.68c2.9-.1,5.7-.1,8.6-.4,1.1-.1,1.5-.5,1.5-1.6.4-8.8.9-17.5,1.3-26.3.2-4.8.3-9.6.7-14.4.2-3.2.3-6.4.5-9.6.4-7.5.9-15,1.3-22.5.3-5.3.6-10.7.9-16,.1-1.6-.1-1.8-1.6-2a16.69,16.69,0,0,0-9.8,1.7A33.69,33.69,0,0,0,39.11,39a50.43,50.43,0,0,0-5.4,21.2,169.26,169.26,0,0,0,.8,22.5q1.2,12,3,24a15.67,15.67,0,0,0,2.1,6.3,5.3,5.3,0,0,0,4.8,2.7Zm-12.2-.3c0-.2.1-.4,0-.5-2.4-3.2-3.4-7-4.1-10.9-.9-5.3-1.3-10.6-2-15.9a155.64,155.64,0,0,1-1.3-23.6,61.47,61.47,0,0,1,1.9-14.2c1.5-5.3,3.2-10.4,6.3-15,3.4-5.2,8.3-8.8,13.7-11.8.7-.4,1.7-.6,2.1-1.7a9.91,9.91,0,0,0-4.5-.2q-6.45,1.05-12.9,2.7c-9.9,2.6-17.6,8.1-22.7,17.1A84.91,84.91,0,0,0,4,78.38a106.32,106.32,0,0,0,1.4,23.9A97.32,97.32,0,0,0,7.81,113c.5,1.9.9,2.2,2.6,2.2,8.7.2,17.4.3,26.1.4C36.91,115.68,37.41,115.88,37.81,115.38Zm55.9-62.8v-5.8a23.38,23.38,0,0,0-3.5-12.3,24.65,24.65,0,0,1-3.4-7.6,4.55,4.55,0,0,0-4.8-3.8,76.24,76.24,0,0,0-11.7.3c-2.4.3-2.4.4-2.5,2.9l-.6,14.4c-.4,7.7-.9,15.5-1.3,23.2-.2,4.8-.3,9.6-.7,14.4-.2,3-.3,6.1-.4,9.1-.5,8.7-.9,17.4-1.4,26.1-.1,2.5.2,2.8,2.7,2.8,3.4,0,6.7-.7,10-.9a2.09,2.09,0,0,0,1.5-1.1,31.84,31.84,0,0,0,5-9,211.76,211.76,0,0,0,8.2-24.8C93,71.28,93.61,61.88,93.71,52.58Z"/><path class="cls-3" d="M116.51,43.08a5,5,0,0,0-2.3.9,18.07,18.07,0,0,0-9,4.6,8.47,8.47,0,0,1-1.9,1.4,3.06,3.06,0,0,1-4.3-1.1,15.47,15.47,0,0,1-1.9-3.6,8.92,8.92,0,0,0-2-3.7,31.09,31.09,0,0,0-2.2-5.3,40.61,40.61,0,0,1-3.5-14.1,5,5,0,0,0-.2-1.2c-.2-4-.4-8-.7-12-.1-1.8-.1-3.6,1.7-4.6,2-1,3.8-.2,5.3,1.1a26.37,26.37,0,0,1,6.9,10.5c.3.9.6,1.8,1,2.8a3.57,3.57,0,0,0,1.2-1.6,70.52,70.52,0,0,1,9.4-13,13.08,13.08,0,0,1,5-3.7c2.5-1.1,4.2-.3,5,2.3a21,21,0,0,1,.9,6.1v4.8c3.5-2.3,7.4-3,11.3-3.7,4.4-.8,5.4.2,4.5,4.7-1.9,8.9-6.8,16.1-13.8,21.9A37.79,37.79,0,0,1,116.51,43.08ZM104.11,46a22.27,22.27,0,0,0,2.4-.8c5.8-2.6,11.6-5.4,17.2-8.5A26,26,0,0,0,134.31,26c2.2-3.9,3-8.2,4.3-12.4.3-1-.1-1.3-1.1-1.3a16.71,16.71,0,0,0-6.9,1.7,27.62,27.62,0,0,0-11,9.3c-3.5,4.8-7,9.5-11.4,13.5-1.3,1.2-2.6,2.3-3.9,3.5a6.58,6.58,0,0,0-2.1,3.7C102,45.38,102.51,46,104.11,46Zm-1.7-6.4a5.94,5.94,0,0,0,2.3-1.4c3.8-2.9,6.8-6.7,9.8-10.5,3.3-4.1,6.4-8.4,8.1-13.5a13.79,13.79,0,0,0-.3-10c-1-2.2-1.7-2.4-3.6-.9-.6.5-1.2,1-1.8,1.6a46.35,46.35,0,0,0-15,31.3A5.81,5.81,0,0,0,102.41,39.58Zm-12.5-29c-.2,1.6.3,3.6.4,5.7a62,62,0,0,0,2.5,14.8,30.79,30.79,0,0,0,5,10.3c.3.4.7,1,1.3.9.8-.2.8-.9.8-1.5.2-2.5.4-4.9.7-7.4.4-4.5.9-9,.3-13.6s-2-8.9-5.6-12.1a6.72,6.72,0,0,0-3.2-2c-1.3-.4-2,0-2.2,1.4C89.81,8,89.91,9,89.91,10.58Z"/><path class="cls-2" d="M99.81,157.38a22.39,22.39,0,0,1-.7,4.4c-1.5,8.5-2.7,17-3.7,25.6-.6,5.4-.7,10.8-1.8,16.2a16.22,16.22,0,0,1-4.7,8.7c-1.8,1.7-3.7,3.3-5.5,5-5.3,5-9.5,11-13.8,16.9-2.6,3.6-5.2,7.1-7.8,10.6a6.43,6.43,0,0,1-6.3,2.7c-1.4-.2-2.9-.1-4.3-.2-7.5-.3-15-.7-22.5-1a9.41,9.41,0,0,1-3-.6c-1.7-.7-2.2-1.9-1.5-3.7a19.2,19.2,0,0,1,2.5-3.8c6.5-8.2,13.2-16.2,20.1-24.2,15.6-18,32-35.3,48.6-52.5,1.3-1.4,2.7-2.8,4-4.1C99.51,157.28,99.61,157.38,99.81,157.38Z"/><path class="cls-2" d="M7.91,204.58v-9.3c.1-3.4.2-6.7.3-10.1.2-6.2.3-12.5.5-18.7a13.37,13.37,0,0,1,3.4-8.5c9-10.6,17.9-21.3,26.9-32,.9-1,1.7-2.1,2.6-3.2a9.16,9.16,0,0,1,7.1-3.4c14.3,0,28.6-.5,42.9-.9h2.3c-.2,1-1,1.4-1.7,1.9-8.3,7.2-16.6,14.3-24.9,21.5-15.6,13.6-30.7,27.8-44.3,43.5a119.7,119.7,0,0,0-7.4,9.8,88,88,0,0,1-6.5,8.3C8.71,204.08,8.51,204.68,7.91,204.58Z"/><path class="cls-4" d="M50,115.68h-5.5a5.41,5.41,0,0,1-4.8-2.7,14.28,14.28,0,0,1-2.1-6.3q-1.8-12-3-24a153.91,153.91,0,0,1-.8-22.5A49,49,0,0,1,39.21,39a32.63,32.63,0,0,1,14.3-14.4,16.69,16.69,0,0,1,9.8-1.7c1.6.2,1.7.5,1.6,2-.3,5.3-.6,10.7-.9,16-.4,7.5-.9,15-1.3,22.5-.2,3.2-.2,6.4-.5,9.6-.4,4.8-.4,9.6-.7,14.4-.4,8.8-.9,17.5-1.3,26.3-.1,1.1-.4,1.5-1.5,1.6A87.06,87.06,0,0,1,50,115.68Z"/><path class="cls-4" d="M37.81,115.38a1.59,1.59,0,0,1-1.3.3c-8.7-.1-17.4-.3-26.1-.4-1.7,0-2-.4-2.6-2.2-1-3.5-1.7-7.1-2.4-10.7A100.78,100.78,0,0,1,4,78.48a83.33,83.33,0,0,1,10.3-36.8c5.1-9,12.8-14.5,22.7-17.1q6.3-1.65,12.9-2.7a9.8,9.8,0,0,1,4.5.2c-.5,1.1-1.4,1.3-2.1,1.7-5.4,3-10.2,6.6-13.7,11.8a53.65,53.65,0,0,0-6.3,15,61.47,61.47,0,0,0-1.9,14.2,154.93,154.93,0,0,0,1.3,23.6c.6,5.3,1,10.6,2,15.9.7,3.9,1.7,7.6,4.1,10.9Z"/><path class="cls-4" d="M93.71,52.58c-.1,9.4-.7,18.7-3,27.8a184.6,184.6,0,0,1-8.2,24.8,34.51,34.51,0,0,1-5,9,2.4,2.4,0,0,1-1.5,1.1c-3.3.3-6.6,1-10,.9-2.5,0-2.8-.3-2.7-2.8.4-8.7.9-17.4,1.4-26.1.2-3,.2-6.1.4-9.1.4-4.8.4-9.6.7-14.4.4-7.7.9-15.5,1.3-23.2l.6-14.4c.1-2.5.1-2.6,2.5-2.9a76.24,76.24,0,0,1,11.7-.3,4.73,4.73,0,0,1,4.8,3.8,24.9,24.9,0,0,0,3.4,7.6,23.38,23.38,0,0,1,3.5,12.3C93.71,48.68,93.71,50.68,93.71,52.58Z"/><path class="cls-4" d="M95,41.68a8.92,8.92,0,0,1,2,3.7,17.76,17.76,0,0,0,1.9,3.6,3.06,3.06,0,0,0,4.3,1.1,6.69,6.69,0,0,0,1.9-1.4,18.07,18.07,0,0,1,9-4.6c2.8,4.4,3.7,9.3,4.4,14.3a64.92,64.92,0,0,1,.5,8.8,81,81,0,0,1-6.9,31.1c-1.4,3.3-3.2,6.5-4.7,9.7-2,4.1-5.3,5.8-9.5,6.2-3.7.3-7.5.7-11.2.7-1.7,0-3.3.2-5,.2-1.4,0-1.7-.4-1.1-1.8s1.3-2.8,2-4.1a104.63,104.63,0,0,0,12.1-33.4,101.59,101.59,0,0,0,.9-27C95.51,46.48,94.91,44.08,95,41.68Z"/><path class="cls-5" d="M104.11,46c-1.5,0-2.1-.6-1.9-1.9a6.58,6.58,0,0,1,2.1-3.7c1.3-1.2,2.6-2.4,3.9-3.5,4.4-4,7.9-8.8,11.4-13.5a28.31,28.31,0,0,1,11-9.3,16.71,16.71,0,0,1,6.9-1.7c.9,0,1.4.3,1.1,1.3-1.3,4.2-2.1,8.5-4.3,12.4a26,26,0,0,1-10.6,10.7c-5.6,3-11.3,5.9-17.2,8.5C105.61,45.58,104.71,45.78,104.11,46Z"/><path class="cls-5" d="M102.41,39.58a6.92,6.92,0,0,1-.4-3.5c1-12.3,5.8-22.8,14.9-31.3.6-.5,1.2-1.1,1.8-1.6,1.8-1.4,2.6-1.3,3.6.9a12.86,12.86,0,0,1,.3,10c-1.7,5.1-4.8,9.4-8.1,13.5-3,3.7-6,7.5-9.8,10.5A4.85,4.85,0,0,1,102.41,39.58Z"/><path class="cls-5" d="M89.91,10.58c0-1.5-.1-2.6,0-3.6.2-1.3.9-1.7,2.2-1.4a8.71,8.71,0,0,1,3.2,2c3.6,3.3,5,7.5,5.6,12.1s.1,9.1-.3,13.6c-.2,2.5-.4,4.9-.7,7.4-.1.6,0,1.4-.8,1.5s-1-.4-1.3-.9a30.79,30.79,0,0,1-5-10.3,62,62,0,0,1-2.5-14.8A28.84,28.84,0,0,1,89.91,10.58Z"/></g></g></svg>