<svg xmlns="http://www.w3.org/2000/svg" viewBox="0 0 405.3 396.2"><defs><style>.cls-1{fill:#cbffc7;}.cls-2{fill:#5cdbac;}.cls-3{fill:#2e8e6b;}</style></defs><g id="Layer_2" data-name="Layer 2"><g id="Слой_1" data-name="Слой 1"><path class="cls-1" d="M405.3,229.7l-23.2-8.6c-6.2-2.3-10.3-12.1-13.2-20.4-.4-1.2-.9-2.6-1.3-4.1-.6-2.1-1.4-4.4-2.2-6.8,18-11.1,11.9-33.3,8.5-45.5a15.16,15.16,0,0,1,3.3-14.5L389.7,115l-19.4-.2c-8.3-.1-13.2-1.8-15.1-3.4-1.1-1-2.5-3.9-3.8-6.4-3.9-8.1-9.8-20.5-27.8-23a42.1,42.1,0,0,0-5-.4,34.3,34.3,0,0,0-5.6.5c-3.8-13-9.7-23.6-13.6-30.7-.8-1.4-1.5-2.7-2.1-3.8l-7.3-14-8.5,13.1c-6,9.1-12.6,12.8-20.5,14.6.3-7.8-2.9-15.7-9.1-22.2-9.9-10.4-24-15.3-33.8-18-8-2.2-12.5-6.2-14.4-8.3L191.9,0,188,17c-2.8,12.5-10.4,17.5-20,23.8-4.7,3.1-9.6,6.3-13.9,10.7l-.4.4c-2.2,2.2-6,5.9-7.1,10.6a32.56,32.56,0,0,1-4-1.1,47.22,47.22,0,0,1-20.3-13.9L107.2,30l-1,23c-.2,4-1.6,12.8-9.3,26.5-2.6,4.6-5.3,9-7.9,13.3-4.5,7.4-9.2,15-12.7,22.9a35.2,35.2,0,0,0-6.4-.5,33.74,33.74,0,0,0-26.4,12.2,37,37,0,0,1-25.8,12.8L0,141.2l11.1,13.9c7.5,9.4,6.6,20.1,5.6,31.5-.8,8.9-1.6,18.2,1.8,26.9,1.9,4.9,7.4,19.1,22.6,22.8-3,10.5-6.8,20.4-12.7,24.5l-12.9,9,14.2,6.8c6.6,3.2,23.6,12.1,38.5,27a38,38,0,0,0,7.6,5.8c-1.5,9.5,1.5,18.3,8.7,25.5,3,3,6.2,6,9.3,8.9,9.7,9,20.7,19.2,20.7,27.4l.1,19.4,14.9-12.4c3.3-2.7,11-7.3,26.2-7.3,2.2,0,4.4.1,6.7.3,1.6.1,3.1.2,4.7.2,22.3,0,32.1-13.4,36.2-23a8.33,8.33,0,0,1,1.5.4c24.2,5.9,32.2,17.6,34.8,24.1l9.3,23.3,7.9-23.8c1.8-5.5,6.9-15.8,20.1-22.6,1.1-.6,2.2-1.2,3.3-1.9a25.15,25.15,0,0,0,13.1,3.9c6.5,0,12.7-2.7,18.4-8.1,9.9-9.2,20.1-11.1,26.9-11.1a34.84,34.84,0,0,1,6.9.7l16.7,3.3-6.5-15.8c-1.7-4.2-.1-12.9,1.3-20.7,2.1-11.5,4.2-23.4,1.1-34.9a26.57,26.57,0,0,0-8.3-13.1c12.5-6,26.3-11.3,32.1-13.4Z"/><path class="cls-2" d="M215.7,216.1a9,9,0,0,1-3.4-.6c-4.6-2-9.8-6.5-8.5-16.1.9-6.6,8.1-8.4,12.2-8.4a15.88,15.88,0,0,1,4.6.7c3.6,1.4,6,4.1,8.5,7a47.34,47.34,0,0,0,3.7,4q3,2.7,4.8,4.2c-3.1,1.1-8,3.2-10.5,5.1A20.4,20.4,0,0,1,215.7,216.1Z"/><path class="cls-3" d="M172.2,262.6a12.22,12.22,0,0,1-2.6-.3c-3.8-.8-8.3-4.5-13-8.4-7.5-6.2-16-13.2-26.3-13.2a25.38,25.38,0,0,0-12.4,3.5c-.3-7.4-.1-29.9,13.5-42,4.7-4.1,9.4-5.8,15.2-3.2,6,2.6,7.7,8,12.1,12,5,4.5,6.9,9.2,6.1,16a51.73,51.73,0,0,1-2,8.2l-.7,2.2c-.3,1-.6,1.9-1,2.9l-1.1,3.5,3.3-1.7c1.2-.6,2.3-1.3,3.5-2,3.3-1.9,6.8-4,10.5-4.3l.7-.1a24.52,24.52,0,0,1,2.7-.2,5.51,5.51,0,0,1,3.6,1c2.3,1.7,1.7,6.3,1.1,8.9C182.9,256.8,178.4,262.6,172.2,262.6Z"/><path class="cls-2" d="M168.9,233a29.12,29.12,0,0,0,1-5.4,41.91,41.91,0,0,0,.2-6.2c0-4.7-.1-9.6,3.1-13.9a10,10,0,0,1,6.9-4.1,29.46,29.46,0,0,1,5-.4,15.29,15.29,0,0,1,7.2,1.4,14.63,14.63,0,0,1,1.3.9c2.6,2.5,1.4,9.3-.6,14.9-2.4,6.8-9.9,9.8-16.2,10.4A24.49,24.49,0,0,0,168.9,233Z"/><path class="cls-2" d="M190.3,199c-1.7,0-5.4-.8-11.9-6.3-8.1-6.8-6.2-22.3-4-27a34.27,34.27,0,0,0,2.5-8.5c2.3,2.3,5.2,3.6,7.9,4.9,5.3,2.5,10.3,4.9,12.2,13.5,2.2,12.1.5,19.8-4.9,22.9a3.2,3.2,0,0,1-1.8.5Z"/><path class="cls-3" d="M200.4,162.8a12.31,12.31,0,0,1-2-.2,26.1,26.1,0,0,1-8-3.3c-1.1-.6-2.3-1.3-3.4-1.8-3.5-1.7-6.4-3-8.2-6-2-3.2-2.6-5.9-2-8.3,1.3-4.6,7.3-7.8,13.2-10.9,4.3-2.3,8.7-4.6,11.4-7.6,4.4-4.8,7.1-12.4,8.3-16.4,5.7,5.8,22.7,23.9,24,36,.6,5.4-6,9.4-9.2,11.3l-.6.3a38.55,38.55,0,0,1-13.3,4.8c-1.1.2-2.2.5-3.4.7a20.14,20.14,0,0,1-6.8,1.4Z"/><path class="cls-2" d="M166.4,209.7a22,22,0,0,1-2.1-.9c-3.3-2-5.2-5.1-7.1-8.4-.9-1.5-1.9-3.1-3-4.6,0,0-2.2-2.9-4-5.1,3.3-.6,8.2-1.5,11.3-3.1a20.62,20.62,0,0,1,6.9-2,20.39,20.39,0,0,0,6.6,11.1,1.8,1.8,0,0,1,.7,1.5,1.31,1.31,0,0,1-.7,1.2,21.41,21.41,0,0,0-5.9,5.2A20.62,20.62,0,0,0,166.4,209.7Z"/><path class="cls-2" d="M211.5,243.8c-2.5-2.1-6.7-5.4-9.6-6.6a21.59,21.59,0,0,1-5.5-3.6,5.49,5.49,0,0,1-.6-7.3,21,21,0,0,0,2.2-4.2,19.2,19.2,0,0,0,.7-4.1c.3-2.5.6-5.7,1.8-6.8a19.75,19.75,0,0,0,5.9,6.9,15.87,15.87,0,0,0,6.2,2.5c.8.2,1.6.4,2.5.6a2.62,2.62,0,0,1,.9.5c2,1.8-.3,8.1-1.7,11.9-.6,1.6-1.1,3-1.4,4.1A31.86,31.86,0,0,0,211.5,243.8Z"/><path class="cls-2" d="M202.3,191.4a18.66,18.66,0,0,1,.4-2.5,6.72,6.72,0,0,0,.3-1.8,56.51,56.51,0,0,0-.3-8,18.75,18.75,0,0,0-.6-3.1c-.9-3.8-1.3-6.6.6-8.1s5.6-1.7,8.9-1.9a41.54,41.54,0,0,0,5.3-.5c2.6-.6,4.7-1.1,6.2-1.5-.8,3.2-2,8.4-1.8,11.6s-.5,8.5-2.1,9.9c-.9.8-2.8.8-4.7.8a14.63,14.63,0,0,0-4.2.4,19.09,19.09,0,0,0-5.4,2.5,12,12,0,0,0-1.2,1.1C203.2,190.6,202.7,191.2,202.3,191.4Z"/><path class="cls-2" d="M157.3,261c-1.3-1-2.6-2.1-3.9-3.1-6.8-5.6-14.6-12-23.1-12-3.9,0-7.7,1.3-11.7,4l-4.9,3.3-.6-5.9c-.1-.9-2.4-23.3,7.8-40a7.77,7.77,0,0,0-1.4-9.7,55.8,55.8,0,0,1-12.7-17.2A11.81,11.81,0,0,0,96,173.6h0A46.89,46.89,0,0,0,77.1,178c-13.3,6-18.4,26.2-23.4,45.8-4.7,18.5-9.1,36-20,43.6a154.46,154.46,0,0,1,41.1,28.8c6.4,6.4,16.7,9.9,29.1,9.9h0c19.9,0,44.9-9.7,54.1-28.1.9-1.7,1.7-3.5,2.4-5.1A10.33,10.33,0,0,0,157.3,261ZM99.8,232.7c-5.1,0-5.1-7.9,0-7.9S104.9,232.7,99.8,232.7Zm3.8-20.4c-6.8,0-6.8-10.5,0-10.5S110.4,212.3,103.6,212.3Z"/><path class="cls-2" d="M282.5,279.5c-.6-1.1-1.4-2.6-2.2-4.3-3.4-6.8-9-18.3-14.8-19a4.48,4.48,0,0,0-1.1-.1,6,6,0,0,0-4.5,1.9c-3,3.1-4,9.3-3.9,14.1l.1,5.6-5.1-2.3c-2.3-1-7-1.5-12.6-1.5a77.88,77.88,0,0,0-13.8,1.2,46.66,46.66,0,0,1-9.1.9c-8.5,0-20.4-2.4-28.7-14a2.2,2.2,0,0,0-1.6-.9,1.57,1.57,0,0,0-1.3.6c-3.3,4.2-9.3,5.4-13.6,8.3a40.47,40.47,0,0,0-10.7,11.5c-4.6,7.1-7.4,15.6-4.5,23.9,6.7,19.4,13.4,23.8,51.9,33.1,28.2,6.8,37.9,21.5,41.1,29.6,2.4-7.2,8.7-19.7,24.6-27.8,7.3-3.8,12.4-10,15-18.5C292.2,307.3,288.3,290.1,282.5,279.5Zm-102.9,7.1c-6.8,0-6.8-10.5,0-10.5S186.4,286.6,179.6,286.6Zm19.5,3.5c-5.3,0-5.3-8.2,0-8.2S204.4,290.1,199.1,290.1Z"/><path class="cls-2" d="M360.3,202.7c-.5-1.4-.9-2.8-1.4-4.4-3.7-12.1-8.8-28.6-36-35.1a68.31,68.31,0,0,0-15.5-1.8c-7.5,0-13.5,1.5-17.5,4.2-8.4,5.8-9.6,18.7-10.5,27.3-1,9.9-4.7,17.4-10.9,21.8a7.69,7.69,0,0,0-1.9,10.2,23.36,23.36,0,0,1,2.3,5.9,24.8,24.8,0,0,1-2.3,17.3,56.58,56.58,0,0,1,8.1,9,18.62,18.62,0,0,0,12.9,7.6c1.2.1,2.4.2,3.6.2h0c11,0,25-4.9,39.3-13.9s38.2-18.3,48.5-22.2C369.4,225.2,364.3,214.3,360.3,202.7Zm-75.4,19.8c-6.8,0-6.8-10.5,0-10.5S291.7,222.5,284.9,222.5Z"/><path class="cls-3" d="M79.4,160.2a33.48,33.48,0,0,1-4-11.4,51,51,0,0,1,1.7-24.7,29.59,29.59,0,0,0-7.2-.9,24.84,24.84,0,0,0-19.4,9,45.52,45.52,0,0,1-32.2,16c9.8,12.3,8.6,25.9,7.6,38-.7,8.2-1.4,16,1.2,22.8,4.5,11.6,10.3,16.9,19.3,17.7l1.4-1,.9-3.4c5.3-20.7,10.7-42.2,26.4-49.2a9.4,9.4,0,0,0,5.1-5.6A8.88,8.88,0,0,0,79.4,160.2ZM64.1,167c-6.8,0-6.8-10.5,0-10.5S70.9,167,64.1,167Z"/><path class="cls-3" d="M150.3,306.9a7.89,7.89,0,0,0-7.5-5.6,6.92,6.92,0,0,0-3.4.9,79.38,79.38,0,0,1-35.6,8.8,55.39,55.39,0,0,1-18.6-3c-1.6,7.2.4,13.6,5.9,19.1,2.9,2.9,6,5.8,9.1,8.6,11.6,10.8,23.6,21.9,23.7,34.1,4.6-3.8,14.3-9.4,32-9.4q3.6,0,7.5.3c1.3.1,2.6.2,3.9.2,18.6,0,25.9-11.8,28.7-19.9C165,332.9,157.2,327,150.3,306.9Zm-8.9,21.3c-6.8,0-6.8-10.5,0-10.5S148.2,328.2,141.4,328.2Z"/><path class="cls-3" d="M349.5,266.2c-1.5-5.7-5.9-10.1-12.9-13.1-1.2.7-2.4,1.4-3.5,2.1-8.8,5.5-25.9,14.7-42.2,14.7a4.87,4.87,0,0,0-4.1,2.3,4.52,4.52,0,0,0,0,4.5l.2.3c6.4,11.6,10.6,30.4,5.8,46.3a36.22,36.22,0,0,1-8.5,14.8,16.36,16.36,0,0,0,9.2,3.1c4.1,0,8.2-1.9,12.2-5.6,12-11.2,24.7-13.5,33.2-13.5a46.86,46.86,0,0,1,8.7.8c-2.7-6.6-1-16,.7-25.8C350.1,286.6,352.1,275.7,349.5,266.2Zm-45.3,19.2c-6.8,0-6.8-10.5,0-10.5S311,285.4,304.2,285.4Z"/><path class="cls-3" d="M370.2,122.8c-5.8-.1-15.5-1-20.9-5.6-2.6-2.2-4.3-5.8-6.1-9.5-3.6-7.5-7.6-16-20.9-17.9a23.08,23.08,0,0,0-3.7-.3,20.42,20.42,0,0,0-7.5,1.4,86.94,86.94,0,0,1-7.7,56.1,6.18,6.18,0,0,0,.2,6.3,6.41,6.41,0,0,0,5.6,3.1h.2a65.43,65.43,0,0,1,14.6,1.7c16.3,3.9,27.5,11.7,34.1,24.1,15.1-7,10.4-24,7-36.6A24.67,24.67,0,0,1,370.2,122.8Zm-47.1,25.1c-6.8,0-6.8-10.5,0-10.5S329.9,147.9,323.1,147.9Zm4.5-18.9c-5.1,0-5.1-7.9,0-7.9S332.7,129,327.6,129Z"/><path class="cls-3" d="M170.2,150.1a12.36,12.36,0,0,0-8.8-5.2,21.86,21.86,0,0,0-3.6-.3,34.19,34.19,0,0,0-18.4,5.8c-9.3,6.4-18.1,9.6-26.3,9.6a24.49,24.49,0,0,1-7.8-1.2,67.74,67.74,0,0,0,9.6,25.3c2.7,4.2,6,9.5,10.9,11.5a7.44,7.44,0,0,0,2.8.6,10.3,10.3,0,0,0,5-1.7,32.72,32.72,0,0,1,10.6-3.3l-4.3-4.4,7-1c3.5-.5,9.9-1.8,12.5-3.1a26.64,26.64,0,0,1,8.4-2.5c-.6-6.6.5-13.4,2.1-16.9C172.4,157.5,172.6,153.5,170.2,150.1ZM157,175.7c-5.1,0-5.1-7.9,0-7.9S162.1,175.7,157,175.7Z"/><path class="cls-3" d="M263.8,231.9c-1.6-6.5-6.7-11.5-14.4-14.1-1-.3-2.2-.8-3.4-1.2-3.1-1.2-6.7-2.6-9.5-2.6-2.5,0-5.7,2-7.9,3.8-4.9,4.1-7.4,10.5-9.5,16.2a42.61,42.61,0,0,0-1.5,4.7c-1.2,5.1-1.6,8.4-1.6,8.4l-.7,7.1-5.3-4.8c-2.6-2.3-7.7-6.5-10.3-7.6a16.16,16.16,0,0,1-3.3-2.1c-1.6-1.2-3.5-2.6-4.7-2.6a1,1,0,0,0-.8.4c-.7,1-.6,2.9-.5,4.8a15.3,15.3,0,0,1-.1,4.3c-.9,4.1-1.6,8.4.1,11.8,2,4,6.7,7.4,10.6,9.3a32.4,32.4,0,0,0,14.4,3.2,42.55,42.55,0,0,0,8-.8,81,81,0,0,1,14.9-1.3,52.09,52.09,0,0,1,12.5,1.3c.3-4.3,1.7-13.9,8.4-20.9A18.55,18.55,0,0,0,263.8,231.9Zm-27,2.2c-5.1,0-5.1-7.9,0-7.9S241.9,234.1,236.8,234.1Z"/><path class="cls-3" d="M256.5,160c-4.1-4.1-7.6-7.6-13.6-7.6a12.75,12.75,0,0,0-1.9.1c-6.9.8-10.4,3.7-12.3,10.2a83.57,83.57,0,0,0-2.4,12.8c-.1,1.2-.2,2.4-.3,3.5-.3,2.9-.6,5.1.5,7.9,1,2.6,2.9,4.6,4.9,6.8.5.6,1.1,1.2,1.6,1.8,1.1,1.2,2.2,2.5,3.4,3.6,2.2,2,4,3.6,5.7,4.9a3.6,3.6,0,0,0,.9.5,5.86,5.86,0,0,1,2.7,2.4,3.13,3.13,0,0,1-.8,3.3,3.61,3.61,0,0,1-.4.5c0,.1.2.9,2.9,1.6a30.9,30.9,0,0,0,7.5,1.1h.3a17.3,17.3,0,0,0,10.2-3c6.6-4.6,8.4-13.4,8.8-18.2a79.38,79.38,0,0,1,4.8-21.3C267.3,170.9,261.6,165.1,256.5,160Zm-18.9,28.9c-5.1,0-5.1-7.9,0-7.9S242.7,188.9,237.6,188.9Zm2.5-14c-5.1,0-5.1-7.9,0-7.9S245.2,174.9,240.1,174.9Z"/><path class="cls-3" d="M245.3,44.3c-7.7-8.1-19.1-12.5-29.6-15.5A40.31,40.31,0,0,1,197,17.9c-3.7,16.1-14,22.9-23.9,29.5-4.5,3-8.8,5.8-12.5,9.5-1.5,1.5-5.6,5.3-5.1,7.6s4.2,3,5.9,3.1c15.3,1.7,31.1,3.5,39.8,15.9a5.42,5.42,0,0,0,4.5,2.4,5,5,0,0,0,4.3-2.4,31.68,31.68,0,0,1,10.9-10.6,46.27,46.27,0,0,1,15.2-5.5c5.8-1.1,15.2.6,15.6-7.5C252.1,54,249.3,48.5,245.3,44.3ZM202.2,69.8c-6.8,0-6.8-10.5,0-10.5S209,69.8,202.2,69.8Z"/><path class="cls-2" d="M196.9,86.4c-7.3-10.4-21.9-12-36-13.6-7.7-.9-14.9-1.7-21.2-3.8a56.51,56.51,0,0,1-24.3-16.6c-.3,5.6-2.2,15.8-10.5,30.6-2.6,4.7-5.4,9.2-8.1,13.6C86.1,114,76.9,129.1,80.4,148c1.6,8.6,5.7,14.8,12.3,18.4a5.9,5.9,0,0,0,2.5.7c5.4,0,5.1-6.1,4.5-9.9l-1.2-7.7,6.6,4.1a17.57,17.57,0,0,0,7.9,1.6c7,0,15.1-3,23.4-8.7,6.5-4.4,13.1-6.7,19.8-6.7s12.5,2.5,18.1-3c4.2-4.1,9.9-7.2,14.5-9.7,3.7-2,7.2-3.9,8.8-5.6,4-4.4,7.3-11,7.6-17.1S200.2,91.1,196.9,86.4Zm-41.1,44c-6.8,0-6.8-10.5,0-10.5S162.6,130.4,155.8,130.4Zm12.5-22.2c-4.9,0-4.9-7.6,0-7.6S173.2,108.2,168.3,108.2Z"/><path class="cls-2" d="M291.4,54.7c-.8-1.5-1.6-2.9-2.2-4-11.6,17.7-26.3,19.1-40.5,20.5-8.9.8-17.4,1.6-25.1,6.3a24.31,24.31,0,0,0-11.9,16.2c-.5,2.3-1.1,6.1-.4,8.4,1,3.4,4.8,5.5,7.1,8,2.8,3.1,5.6,6.4,8.2,9.7a86.13,86.13,0,0,1,9.1,14c2.1,4.4,1.7,12.1,7.3,13.6,3.6.9,6.6.8,10,2.9a41.64,41.64,0,0,1,7.5,6.4,21.81,21.81,0,0,0,15.3,6.3,20.36,20.36,0,0,0,14.3-5.7c7.3-7,12.6-17.5,15.8-31.2C313.1,93.9,299,68.4,291.4,54.7Zm-56.8,58.4c-4.5,0-4.5-6.9,0-6.9S239.1,113.1,234.6,113.1Zm15.8,19.8c-6.8,0-6.8-10.5,0-10.5S257.1,132.9,250.4,132.9Z"/></g></g></svg>