<svg xmlns="http://www.w3.org/2000/svg" viewBox="0 0 165.2 235.96"><defs><style>.cls-1{fill:#41873f;}.cls-2{fill:#c3e088;}.cls-3{fill:#cd5599;}</style></defs><g id="Layer_2" data-name="Layer 2"><g id="Layer_1-2" data-name="Layer 1"><path class="cls-1" d="M28.31,123.25a17,17,0,0,1-6.5-8.9,69.54,69.54,0,0,1-3.1-13.5c-.8-6-1.8-12-2.2-18.1-.5-7.3-.9-14.7.3-22a6.07,6.07,0,0,0-1.1-4.7c-9.2-13.9-10.7-28.8-4.8-44.3a22.31,22.31,0,0,1,5.3-8.2c4.9-4.8,11.1-4.7,16,.1,3.1,3.1,4.4,7,5.1,11.1a5.93,5.93,0,0,0,.5,2.3c.7.2,1-.4,1.3-.7.9-.7,1.7-1.4,2.6-2.1,6.9-5.4,14-3.5,19,.4a32.59,32.59,0,0,1,7.4,8.7,88.62,88.62,0,0,1,10.5,27.7c1.8,8.3,2.8,16.7,3.8,25.1a1.85,1.85,0,0,0,.2.7c.8-.4.8-1.2,1-1.8.8-1.8,1.6-3.7,2.5-5.5A24.24,24.24,0,0,1,97,58.75c1.3-.7,2.5-1.3,3.8-2,.1-.9-.5-1.4-.8-2a32.35,32.35,0,0,1,4.1-37.1,20.78,20.78,0,0,1,5.3-4.5,11.44,11.44,0,0,1,13.8,1.2,17.28,17.28,0,0,1,4.6,6.1,41.23,41.23,0,0,1,2.1,28.1c-.7,2.5-1.5,5.1-2.3,7.6-.2.7-.4,1.3.3,1.9a16.28,16.28,0,0,1,5.2,10.2c0,.2.2.4.4.6a5.51,5.51,0,0,0,1.7-1.7,49.83,49.83,0,0,1,17.7-12.4,14.1,14.1,0,0,1,5.3-1.2,5.65,5.65,0,0,1,5.3,3.1,11.72,11.72,0,0,1,1.5,4.8,28.28,28.28,0,0,1-.9,11.2,65,65,0,0,1-9.9,20.1,17.56,17.56,0,0,1-10.7,7.3,18.37,18.37,0,0,1-5.7.5c-1.8-.1-1.8-.1-2.4,1.7a63.39,63.39,0,0,1-5.9,13.3,38.45,38.45,0,0,1-8.1,10.3,15,15,0,0,0-1.1,1.3,6.6,6.6,0,0,1-1.4.1c-5-.5-10-1.1-15-1.5-9.2-.7-18.4-1.4-27.7-1.9-9.1-.5-18.2-.7-27.3-1C42.11,122.65,35.21,123.05,28.31,123.25Zm37.5-64.7a5.42,5.42,0,0,0-.6-2.5c-1.3-2.8-2.7-5.6-4.1-8.4-.9-1.8-1.3-1.8-2.8-.6a12,12,0,0,0-1.1,1.2c-.5.7-.6,1.5.3,2,1.1.5,1.3,1.5,1.5,2.5a19.62,19.62,0,0,0,3.2,7.4c.4.6.8,1.3,1.7,1a2.25,2.25,0,0,0,1.8-1.7A2.77,2.77,0,0,1,65.81,58.55Zm-31.9,11c2,0,3.3-1.3,2.8-3-.9-2.9-1.4-5.9-2.3-8.7-.5-1.7-1.4-2.1-2.9-1.5-2.2.8-2.8,1.7-2,3.5a23.74,23.74,0,0,1,1.8,5.9,10.27,10.27,0,0,0,.7,2.5A1.65,1.65,0,0,0,33.91,69.55Zm19.8,29.3a26.8,26.8,0,0,0-1-3.5c-.4-1.6-.7-3.1-1.1-4.7-.7-2.6-2.3-3.1-4.4-1.5a4.35,4.35,0,0,0-.7.6,1.21,1.21,0,0,0-.3,1.5c1.5,2.7,1.9,5.7,2.7,8.7.4,1.6,1,1.9,2.7,1.7C53.11,101.45,53.81,100.65,53.71,98.85Zm-16.3-4a3.42,3.42,0,0,0-.1-1.1c-1.1-3.5-2.3-7-3.4-10.5a.76.76,0,0,0-.2-.4,1.19,1.19,0,0,0-2.1-.1,2.35,2.35,0,0,0-.5,1.6A39.88,39.88,0,0,0,33,96.15c.3.8.5,1.9,1.6,1.9a3.19,3.19,0,0,0,2.6-1.9A5.85,5.85,0,0,0,37.41,94.85Zm6.1-62.3c-1.5.1-2.5,1-2.2,2.2a91.68,91.68,0,0,0,2.4,9c1.2,3.5,2.5,2.8,4.9,1.6,1-.5,1.3-1.3.5-2.1a9.18,9.18,0,0,1-2.1-5.2,12.61,12.61,0,0,0-1.6-4.2C44.91,33,44.41,32.45,43.51,32.55Zm58.1,69.9h0c-1.2-3.5-2.4-7-3.7-10.5-.4-1-1.2-1.2-2.1-.4-.7.5-1.3,1.2-2,1.7a1.53,1.53,0,0,0-.3,2.3,41.89,41.89,0,0,1,3.2,5.9,19.1,19.1,0,0,0,1.6,2.7,1.68,1.68,0,0,0,2.1.6A1.92,1.92,0,0,0,101.61,102.45Zm8.1-18.8c-.5-1.8-.4-4-1.6-5.9a10.32,10.32,0,0,1-1.4-3c-.4-1.4-1.3-1.7-2.8-1.2-1.7.6-2.2,1.3-1.7,2.7a36,36,0,0,0,4.8,9.6c.9,1.3,1.5,1.2,2.2-.1A3.64,3.64,0,0,0,109.71,83.65Zm-40.6,32.1a5,5,0,0,0-.4-1.9,60.78,60.78,0,0,1-2.4-7.2c-.2-.7-.2-1.5-1.1-1.6a20.83,20.83,0,0,0-3.6,2,2.92,2.92,0,0,0,.2.9c.9,2.5,1.8,5.1,2.7,7.6a5.56,5.56,0,0,0,.9,1.7c.6.8,1.2,1.6,2.3,1.2S69.11,117.05,69.11,115.75Zm-46.5-83a5.39,5.39,0,0,0-.3-1c-1.1-2.7-2.1-5.5-3.3-8.2-.6-1.5-1.4-1.8-2.6-1.3-1.7.8-2.5,2.3-1.6,3.6a20.57,20.57,0,0,1,2.1,4.8,20.29,20.29,0,0,0,1.1,2.6,2.69,2.69,0,0,0,1.8,1.5A2.26,2.26,0,0,0,22.61,32.75ZM69,92.25c-.9-2.3-.9-5-1.5-7.7-.1-.5-.3-.9-.4-1.4-.6-1.7-1-1.8-2.7-1.3s-2,.9-1.6,2.5c.5,1.9,1,3.9,1.7,5.8.4,1.2.2,2.5.6,3.8.2.6.3,1.3,1.2,1.3A2.83,2.83,0,0,0,69,92.25ZM22.41,9.15c.3,1.6.6,3.2,1,4.8a12.83,12.83,0,0,0,1.9,4.9c1,1.3,2.2,1.7,3.3,1s1.3-1.7.5-3.2a31.47,31.47,0,0,1-2.4-6.7,5.41,5.41,0,0,0-1.4-2.7,1.44,1.44,0,0,0-2.5.4A15.46,15.46,0,0,0,22.41,9.15Zm94.2,105.5a6.35,6.35,0,0,0-.5-2.3c-1.1-2.7-2.7-5.2-3.6-8.1-.4-1.2-1.2-1.3-2.3-.5-1.4,1-1.7,2.4-1,4.3,1.1,2.7,3.1,4.8,4.3,7.4.1.1.2.3.3.4a1.87,1.87,0,0,0,2,.5C116.51,116.05,116.61,115.35,116.61,114.65Zm-62.4-42.3a1.7,1.7,0,0,0-.1-.7c-1-3.4-2.7-6.6-3.3-10.2-.2-1.2-1.6-1.3-2.4-.3a3.22,3.22,0,0,0-.4,2.5,19.09,19.09,0,0,0,.6,3.3,23.82,23.82,0,0,0,2,6.4c.5.9,1.1,1.7,2.2,1.3A2.14,2.14,0,0,0,54.21,72.35Zm70,1.5c-.2-.5-.4-1.2-.7-2-1-2.3-2.1-4.5-3.2-6.7-.3-.5-.4-1.4-1.2-1.4s-1.1.8-1.4,1.5a3,3,0,0,0-.2,1.6c-.2,3.5,1.6,6.3,3.4,9,1,1.6,1.9,1.5,2.8-.2A2.29,2.29,0,0,0,124.21,73.85Zm24,10.8a.9.9,0,0,0-.1-.5c-.8-3-1.7-6-2.3-9-.2-1-.8-1.1-1.6-.9a2.37,2.37,0,0,0-1.8,2.3,10.08,10.08,0,0,0,.8,5.4,12.66,12.66,0,0,1,1.2,3.9,1.75,1.75,0,0,0,1,1.8c.9.3,1.5-.3,2-.9A3.23,3.23,0,0,0,148.21,84.65Zm-29.1,2.5c-.1,3,1.9,8,3.8,9.9.9.9,1.5.8,2.3-.3a4,4,0,0,0,0-4.1c-1.1-2.4-2.3-4.8-3.4-7.1-.2-.4-.3-1-.9-1s-1,.5-1.2.9C119.41,86.15,119.31,86.85,119.11,87.15Zm1.4-56.7a45.63,45.63,0,0,0-1.4-6.3c-.2-.7-.5-1.2-1.3-1.1-1.2.1-2.4-.3-3.5.4-.2.1-.2.6-.2.9a2.9,2.9,0,0,0,.5,1.8,9.91,9.91,0,0,1,1.7,4.7,6.7,6.7,0,0,0,.7,1.8,1.72,1.72,0,0,0,3.1.1A5,5,0,0,0,120.51,30.45Zm33.7,34.2c-1.4.8-2.9,1.3-3,3a13.28,13.28,0,0,0,2.2,7.7c.4.5.8.7,1.4.2.8-.7,1.8-1.3,1.5-2.5C155.71,70.35,155.41,67.45,154.21,64.65ZM107,36v1.7a12.3,12.3,0,0,0,.8,3.9c.6,1.2,1.5,1.7,2.5,1.4a2.09,2.09,0,0,0,1.5-2.4,26.56,26.56,0,0,0-2.1-7.3,1.39,1.39,0,0,0-1.2-1c-.7,0-1,.6-1.3,1.3A5.27,5.27,0,0,0,107,36Z"/><path class="cls-2" d="M28.31,123.25c6.9-.2,13.9-.6,20.8-.4,9.1.3,18.2.5,27.3,1s18.5,1.2,27.7,1.9c5,.4,10,1,15,1.5a3.33,3.33,0,0,0,1.4-.1c2.4.9,5,.9,7.5,1.3,5,.9,9.9,1.8,14.8,3.1,2.3.6,2.8,1.6,1.9,3.9a40.65,40.65,0,0,1-2.6,5.1,445.59,445.59,0,0,0-19.8,40.5c-6.8,15.9-12.9,32.2-18.5,48.6,0,.1,0,.2-.1.2-2.4,5-2.8,6.2-8.7,6.1-20-.5-40-.2-60-.4-4.2,0-6-1.4-7.1-5.4-4-14-8-27.9-12-41.9-3-10.4-6.1-20.8-9.2-31.2-1.3-4.4-3-8.8-4.5-13.2A45.63,45.63,0,0,1,0,130.65c-.1-2.9.9-4,3.7-4.8a42,42,0,0,1,7.1-1.1C16.51,124.25,22.41,123.35,28.31,123.25Zm42.6,88c0,7,0,12.8.5,18.6.1,1.8.1,1.8,2,1.8h6.2c2.3,0,2.3,0,2.7-2.3,1.2-6.1,2.3-12.2,3.5-18.3,2.2-11.5,4.3-23,6.5-34.5,1.7-8.8,3.2-17.6,4.6-26.4.8-4.7,1.6-9.4,3.5-13.9a13.17,13.17,0,0,0,1.3-4.8c.1-1.8,0-1.9-1.8-2.1-2.9-.2-5.8-.2-8.6-.6-3-.4-6-.3-9.1-.7-3.5-.4-7-.5-10.5-.6-1.8-.1-1.9.1-1.7,1.9a11.3,11.3,0,0,1,0,2.6c-.4,3.6-.8,7.1-1,10.7a121.33,121.33,0,0,0,.5,14.8c.2,2.9.3,5.9.4,8.8.4,7.8,1,15.6,1.3,23.4S70.61,205,70.91,211.25ZM34,127.05c-4.9.8-10.3.2-15.7.9-2.8.4-3.1.7-2.1,3.3a10.09,10.09,0,0,0,.7,1.5,32,32,0,0,1,3.6,8.8c2.2,8.4,3.7,17,6,25.4l11.1,41.4,6,21.9c.6,2,.7,2.1,2.6,1.7a34,34,0,0,1,4.5-.3c1.2,0,2.4,0,3.6-.1.8,0,1.1-.4,1-1.2-.7-5.5-1.4-11.1-2.1-16.6-.7-4.9-1.4-9.8-2-14.7s-1.3-9.8-2.1-14.7c-1.3-8.3-2.7-16.7-4.1-25-1.6-9.3-3.3-18.7-5-28-.3-1.4-.1-3.2-1.1-4.1S36.11,127.25,34,127.05Zm15.1.1h-4.8c-2.1,0-2.1,0-1.8,2.1.1.6.1,1.1.2,1.7,2.6,13.5,5.2,27.1,7.2,40.7,1.2,7.7,2.6,15.4,3.6,23.1,1.4,10.1,2.9,20.2,4,30.3.2,1.8.6,3.6.8,5.4a1.21,1.21,0,0,0,1.4,1.2h7.4c.9,0,1.4-.3,1.3-1.3v-1.7c0-8-.6-16-.3-24a114.15,114.15,0,0,0,0-11.7c-.4-6.3-.6-12.6-1-18.9-.5-7.5-.7-15-1.1-22.5-.1-1.6-.1-3.2-.3-4.8a25.81,25.81,0,0,1,.1-6.2,63,63,0,0,0,1.2-11.4c-.1-1.7-.1-1.8-1.7-1.8C60,127.65,54.61,127.15,49.11,127.15Zm76.4,5.5a3.73,3.73,0,0,0-1.8-.7c-5.1-.5-10.2-.8-15.2-1.4-3.1-.4-3.1-.2-4,2.9-4.7,17.1-7.7,34.5-10.9,51.9-2.3,12.4-4.8,24.7-7.2,37.1-.5,2.4-1,4.8-1.5,7.3-.3,1.8-.1,2,1.8,2.1h3.4c1.8.1,1.8.1,2.4-1.6,2.3-7.2,4.5-14.5,6.8-21.7,2-6.4,3.9-12.8,6-19.2,2.1-6.8,4-13.6,7.2-20a54.91,54.91,0,0,0,4.2-13.2c1.3-5.7,2.5-11.4,5.1-16.7C122.91,137.05,124.41,135,125.51,132.65Zm-87.2,100c2.6.1,2.6.1,1.9-2.4-1.9-7-3.9-14-5.6-21-5-19.9-10.8-39.6-15.1-59.6-1.1-5-2.2-10-4.8-14.5a13.29,13.29,0,0,1-1.8-5.4c-.1-.8-.5-1.2-1.2-1.1a50.73,50.73,0,0,0-6.8,1.1,1.5,1.5,0,0,0-1.1,1.3,21.65,21.65,0,0,0,.4,7.6c1.4,5.8,3.5,11.3,5.3,16.9,3.1,9.2,5.4,18.5,8.2,27.8,4.3,14.6,8.4,29.1,12.6,43.7,1.3,4.5,2.2,5.3,6.9,5.7C37.51,232.75,37.91,232.65,38.31,232.65Zm91.8-100c-.9-.1-.9-.1-1.7.9a39.52,39.52,0,0,0-6.6,13.7c-2.3,8.2-4.2,16.6-7.3,24.5-1.8,4.7-3.7,9.4-5.2,14.2-4.6,14.4-9,28.8-13.5,43.2-.2.8-1,1.8-.1,2.4.7.5,1.7-.2,2.5-.6a3.94,3.94,0,0,0,1.7-1.9,78.33,78.33,0,0,0,3.6-7.8c2.1-5.6,3.6-11.4,5.7-17,7.2-18.6,15-36.8,23.9-54.6,2.1-4.3,4.3-8.6,6.4-12.9.7-1.5.6-1.8-.9-2.2A47.67,47.67,0,0,0,130.11,132.65Z"/><path class="cls-2" d="M65.81,58.55a3.75,3.75,0,0,1-.1,1,2.12,2.12,0,0,1-1.8,1.7c-.9.2-1.3-.4-1.7-1a21.09,21.09,0,0,1-3.2-7.4c-.2-1.1-.4-2-1.5-2.5s-.9-1.3-.3-2a4.26,4.26,0,0,1,1.1-1.2c1.5-1.3,1.9-1.2,2.8.6,1.4,2.8,2.7,5.6,4.1,8.4A4.27,4.27,0,0,1,65.81,58.55Z"/><path class="cls-2" d="M33.91,69.55a1.65,1.65,0,0,1-1.9-1.3,11.7,11.7,0,0,1-.7-2.5,23.74,23.74,0,0,0-1.8-5.9c-.8-1.7-.2-2.7,2-3.5,1.5-.6,2.3-.2,2.9,1.5.9,2.9,1.4,5.8,2.3,8.7C37.21,68.25,35.91,69.55,33.91,69.55Z"/><path class="cls-2" d="M53.71,98.85c0,1.8-.6,2.6-2.1,2.8s-2.2-.1-2.7-1.7c-.8-2.9-1.2-6-2.7-8.7a1.21,1.21,0,0,1,.3-1.5c.2-.2.5-.4.7-.6,2.2-1.7,3.7-1.2,4.4,1.5.4,1.5.7,3.1,1.1,4.7A12.41,12.41,0,0,1,53.71,98.85Z"/><path class="cls-2" d="M37.41,94.85c-.1.3,0,.9-.3,1.3a3.06,3.06,0,0,1-2.6,1.9c-1.1,0-1.3-1.1-1.6-1.9A36,36,0,0,1,31,84.35a2.35,2.35,0,0,1,.5-1.6c.7-.9,1.5-.8,2.1.1a.76.76,0,0,1,.2.4c1.1,3.5,2.3,7,3.4,10.5A2,2,0,0,1,37.41,94.85Z"/><path class="cls-2" d="M43.51,32.55a1.83,1.83,0,0,1,1.9,1.2A15.21,15.21,0,0,1,47,38a9.18,9.18,0,0,0,2.1,5.2c.8.8.5,1.7-.5,2.1-2.4,1.2-3.6,1.9-4.9-1.6a91.68,91.68,0,0,1-2.4-9C41,33.55,42,32.65,43.51,32.55Z"/><path class="cls-2" d="M101.61,102.45a1.81,1.81,0,0,1-1.2,2.1,1.49,1.49,0,0,1-2.1-.6,12,12,0,0,1-1.6-2.7,37.68,37.68,0,0,0-3.2-5.9,1.47,1.47,0,0,1,.3-2.3c.7-.6,1.3-1.2,2-1.7,1-.7,1.8-.6,2.1.4,1.4,3.7,2.5,7.3,3.7,10.7Z"/><path class="cls-2" d="M109.71,83.65a3.46,3.46,0,0,1-.5,2.1c-.8,1.4-1.3,1.4-2.2.1a30.9,30.9,0,0,1-4.8-9.6c-.5-1.4,0-2.1,1.7-2.7,1.5-.5,2.5-.2,2.8,1.2a10.32,10.32,0,0,0,1.4,3C109.31,79.55,109.31,81.75,109.71,83.65Z"/><path class="cls-2" d="M69.11,115.75c0,1.3-.3,2.3-1.5,2.7s-1.8-.4-2.3-1.2a5.56,5.56,0,0,1-.9-1.7c-.9-2.5-1.8-5.1-2.7-7.6a2.92,2.92,0,0,1-.2-.9,20.83,20.83,0,0,1,3.6-2c.9.2.9.9,1.1,1.6a60.78,60.78,0,0,0,2.4,7.2A5.37,5.37,0,0,1,69.11,115.75Z"/><path class="cls-2" d="M22.61,32.75a2.12,2.12,0,0,1-2.7,2,2.69,2.69,0,0,1-1.8-1.5c-.4-.9-.8-1.7-1.1-2.6a20.57,20.57,0,0,0-2.1-4.8c-.9-1.2-.1-2.8,1.6-3.6,1.2-.6,2-.2,2.6,1.3,1.1,2.7,2.2,5.5,3.3,8.2A3.55,3.55,0,0,0,22.61,32.75Z"/><path class="cls-2" d="M69,92.25a2.79,2.79,0,0,1-2.8,3c-.8,0-1-.7-1.2-1.3-.4-1.2-.2-2.5-.6-3.8-.6-1.9-1.2-3.8-1.7-5.8-.4-1.7-.2-2,1.6-2.5s2-.4,2.7,1.3a5.73,5.73,0,0,1,.4,1.4C68.11,87.15,68.11,90,69,92.25Z"/><path class="cls-2" d="M22.41,9.15a5.73,5.73,0,0,1,.4-1.4,1.41,1.41,0,0,1,2.5-.4,5.41,5.41,0,0,1,1.4,2.7,31.47,31.47,0,0,0,2.4,6.7c.8,1.4.5,2.5-.5,3.2s-2.3.3-3.3-1a12.24,12.24,0,0,1-1.9-4.9C23,12.35,22.81,10.65,22.41,9.15Z"/><path class="cls-2" d="M116.61,114.65a1.69,1.69,0,0,1-.8,1.7,1.58,1.58,0,0,1-2-.5,1.38,1.38,0,0,1-.3-.4c-1.3-2.6-3.2-4.8-4.3-7.4a3.25,3.25,0,0,1,1-4.3c1.1-.8,1.9-.7,2.3.5.9,2.8,2.5,5.3,3.6,8.1A9.48,9.48,0,0,1,116.61,114.65Z"/><path class="cls-2" d="M54.21,72.35a2.14,2.14,0,0,1-1.4,2.3c-1.2.4-1.7-.4-2.2-1.3a23.82,23.82,0,0,1-2-6.4c-.3-1.1-.4-2.2-.6-3.3a3.09,3.09,0,0,1,.4-2.5c.8-1,2.2-1,2.4.3.6,3.6,2.3,6.8,3.3,10.2A2,2,0,0,1,54.21,72.35Z"/><path class="cls-2" d="M124.21,73.85a2.7,2.7,0,0,1-.5,1.9c-.9,1.7-1.7,1.8-2.8.2-1.8-2.7-3.6-5.5-3.4-9a4.14,4.14,0,0,1,.2-1.6c.3-.6.6-1.4,1.4-1.5s.9.8,1.2,1.4c1.1,2.2,2.1,4.5,3.2,6.7C123.81,72.55,124,73.35,124.21,73.85Z"/><path class="cls-2" d="M148.21,84.65a2.49,2.49,0,0,1-.7,2c-.5.6-1.1,1.2-2,.9a1.68,1.68,0,0,1-1-1.8,9.32,9.32,0,0,0-1.2-3.9,12.26,12.26,0,0,1-.8-5.4,2.46,2.46,0,0,1,1.8-2.3c.8-.2,1.4-.1,1.6.9a91.25,91.25,0,0,0,2.3,9Z"/><path class="cls-2" d="M119.11,87.15a8.8,8.8,0,0,1,.6-1.7c.2-.5.6-1,1.2-.9s.7.6.9,1c1.1,2.4,2.3,4.8,3.4,7.1a4.26,4.26,0,0,1,0,4.1c-.7,1.2-1.4,1.3-2.3.3C121,95.15,119.11,90.25,119.11,87.15Z"/><path class="cls-2" d="M120.51,30.45a3.75,3.75,0,0,1-.5,2.3,1.75,1.75,0,0,1-3.1-.1,6.7,6.7,0,0,1-.7-1.8,10.3,10.3,0,0,0-1.7-4.7,2.9,2.9,0,0,1-.5-1.8,1.34,1.34,0,0,1,.2-.9c1.1-.8,2.3-.3,3.5-.4.8-.1,1.1.5,1.3,1.1A40.8,40.8,0,0,1,120.51,30.45Z"/><path class="cls-2" d="M154.21,64.65a54.3,54.3,0,0,1,2.1,8.4c.3,1.2-.7,1.8-1.5,2.5-.6.5-1,.3-1.4-.2a13.28,13.28,0,0,1-2.2-7.7C151.31,66.05,152.81,65.45,154.21,64.65Z"/><path class="cls-2" d="M107,36a5.27,5.27,0,0,1,.2-2.4c.2-.6.5-1.2,1.3-1.3a1.27,1.27,0,0,1,1.2,1,26.56,26.56,0,0,1,2.1,7.3,2,2,0,0,1-1.5,2.4c-1,.3-1.9-.2-2.5-1.4a8.81,8.81,0,0,1-.8-3.9Z"/><path class="cls-3" d="M70.91,211.25c-.3-6.4.7-13.9.4-21.4-.3-7.8-.8-15.6-1.3-23.4-.2-2.9-.2-5.9-.4-8.8a122,122,0,0,1-.5-14.8c.2-3.6.6-7.1,1-10.7a22.55,22.55,0,0,0,0-2.6c-.2-1.8,0-2,1.7-1.9,3.5.1,7,.2,10.5.6,3,.4,6,.3,9.1.7,2.8.4,5.7.4,8.6.6,1.7.1,1.8.2,1.8,2.1a15.51,15.51,0,0,1-1.3,4.8c-1.9,4.5-2.7,9.2-3.5,13.9-1.4,8.8-2.9,17.6-4.6,26.4-2.2,11.5-4.4,23-6.5,34.5-1.2,6.1-2.3,12.2-3.5,18.3-.4,2.3-.5,2.3-2.7,2.3h-6.2c-1.9,0-1.8-.1-2-1.8A185.56,185.56,0,0,1,70.91,211.25Z"/><path class="cls-3" d="M34,127.05c2,.2,3.8-.6,4.9.4s.8,2.7,1.1,4.1c1.7,9.3,3.4,18.7,5,28,1.4,8.3,2.8,16.7,4.1,25,.8,4.9,1.4,9.8,2.1,14.7s1.4,9.8,2,14.7c.7,5.5,1.4,11.1,2.1,16.6.1.8-.2,1.2-1,1.2-1.2,0-2.4,0-3.6.1a34,34,0,0,0-4.5.3c-2,.4-2.1.3-2.6-1.7-2-7.3-4.1-14.6-6-21.9l-11.1-41.4c-2.3-8.4-3.7-17-6-25.4a26,26,0,0,0-3.6-8.8,10.09,10.09,0,0,1-.7-1.5c-1-2.7-.7-3,2.1-3.3C23.71,127.25,29.21,127.85,34,127.05Z"/><path class="cls-3" d="M49.11,127.15c5.4,0,10.9.6,16.3.5,1.7,0,1.7.1,1.7,1.8a62.12,62.12,0,0,1-1.2,11.4,25.81,25.81,0,0,0-.1,6.2c.2,1.6.2,3.2.3,4.8.3,7.5.6,15,1.1,22.5.4,6.3.6,12.6,1,18.9.2,3.9.1,7.8,0,11.7-.3,8,.3,16,.3,24v1.7c0,.9-.4,1.3-1.3,1.3-2.5,0-5-.1-7.4,0-.9,0-1.3-.3-1.4-1.2-.2-1.8-.6-3.6-.8-5.4-1.1-10.1-2.6-20.2-4-30.3-1.1-7.7-2.5-15.4-3.6-23.1-2-13.6-4.6-27.2-7.2-40.7-.1-.5-.1-1.1-.2-1.7-.3-2-.3-2,1.8-2.1A24.23,24.23,0,0,1,49.11,127.15Z"/><path class="cls-3" d="M125.51,132.65c-1.2,2.3-2.6,4.5-3.7,6.7-2.6,5.3-3.9,11-5.1,16.7a61.47,61.47,0,0,1-4.2,13.2c-3.2,6.4-5.1,13.3-7.2,20l-6,19.2c-2.2,7.2-4.5,14.5-6.8,21.7-.5,1.8-.6,1.7-2.4,1.6h-3.4c-1.9,0-2.2-.3-1.8-2.1.5-2.4,1-4.8,1.5-7.3,2.4-12.4,4.9-24.7,7.2-37.1,3.2-17.4,6.2-34.9,10.9-51.9.9-3.2.8-3.3,4-2.9,5.1.6,10.2.9,15.2,1.4A3.15,3.15,0,0,1,125.51,132.65Z"/><path class="cls-3" d="M38.31,232.65h-1.2c-4.7-.4-5.6-1.2-6.9-5.7-4.2-14.6-8.4-29.2-12.6-43.7-2.7-9.3-5.1-18.6-8.2-27.8-1.9-5.6-4-11.1-5.3-16.9a21.53,21.53,0,0,1-.4-7.6,1.4,1.4,0,0,1,1.1-1.3,31.14,31.14,0,0,1,6.8-1.1c.8-.1,1.1.3,1.2,1.1a15,15,0,0,0,1.8,5.4c2.6,4.5,3.7,9.5,4.8,14.5,4.3,20.1,10.1,39.7,15.1,59.6,1.8,7,3.8,14,5.6,21C40.91,232.75,40.91,232.75,38.31,232.65Z"/><path class="cls-3" d="M130.11,132.65a53.82,53.82,0,0,1,8.7,1.8c1.5.4,1.6.7.9,2.2-2.1,4.3-4.3,8.6-6.4,12.9-8.9,17.8-16.7,36.1-23.9,54.6-2.2,5.6-3.6,11.4-5.7,17a78.33,78.33,0,0,1-3.6,7.8,3.94,3.94,0,0,1-1.7,1.9c-.8.4-1.7,1.1-2.5.6s-.1-1.6.1-2.4c4.5-14.4,8.9-28.8,13.5-43.2,1.5-4.8,3.4-9.5,5.2-14.2,3.1-8,4.9-16.3,7.3-24.5a38.68,38.68,0,0,1,6.6-13.7C129.21,132.55,129.21,132.55,130.11,132.65Z"/></g></g></svg>