<svg xmlns="http://www.w3.org/2000/svg" viewBox="0 0 252.65 252.65"><defs><style>.cls-1{fill:none;}</style></defs><g id="Layer_2" data-name="Layer 2"><g id="Layer_1-2" data-name="Layer 1"><path d="M220.05,75.23H206.59c-.38-4.72-.55-9.45-1.17-14-2.51-18.77-12.85-32.52-25.35-32.62q-53.73-.41-107.46,0c-13.47.13-24.83,16.15-25.39,36.62-.7,26.05-.31,52.17-.37,78.26,0,12.66-.08,25.33,0,38,.19,25.91,11.32,42.71,28.28,42.72q50.73,0,101.46,0c18.22,0,28.69-15.38,29.5-43.31,0-1,.16-1.95.28-3.33H219.7c3.39,28.45-10.88,59.57-30.48,66.41a32.09,32.09,0,0,1-10.38,1.75q-52.49.18-105,.06c-23-.06-41-26.66-41.22-61.74q-.42-57.75,0-115.51C32.9,33.47,50.84,7,73.91,6.89q52.49-.12,105,0C203.65,7,221.78,36.75,220.05,75.23Z"/><path d="M123.78,69.41c13.48,0,27,0,40.44,0,3.76,0,7,1.3,8.57,7.06,1.82,6.51-.86,13.64-5.69,14.48-3.46.6-7,.35-10.47.35q-35.7,0-71.39,0a41.47,41.47,0,0,1-5-.13c-4.21-.51-6.85-3.67-7-10.42-.15-6.2,2.67-10.94,7.12-11.2,6.15-.37,12.31-.12,18.47-.12Z"/><path d="M110.25,116.24c9.65,0,19.31,0,29,0,5.53,0,8.31,3.69,8.34,10.64,0,6.74-3,10.81-8.33,10.82q-29.22.09-58.44,0c-5.11,0-8.46-4.41-8.49-10.78s3.2-10.63,8.47-10.67C90.6,116.19,100.42,116.24,110.25,116.24Z"/><path d="M98,163.3c5.65,0,11.3-.12,16.94,0,4.76.15,7.42,4,7.51,10.33.09,6.51-2.82,11.06-7.63,11.14q-17.19.27-34.38,0c-4.71-.07-7.73-4.89-7.58-11.31.13-6.1,3-10,7.7-10.16C86.32,163.19,92.14,163.3,98,163.3Z"/><path d="M165.56,179.79l-10.17-20.22L210,103.48c3.45,6.86,6.69,13.28,10.18,20.2Z"/><path d="M142.28,188.48l10.2-25.91c3.4,6.8,6.59,13.17,10.09,20.15Z"/><rect class="cls-1" width="252.65" height="252.65"/></g></g></svg>