<?xml version="1.0" standalone="no"?>
<!DOCTYPE svg PUBLIC "-//W3C//DTD SVG 1.1//EN" "http://www.w3.org/Graphics/SVG/1.1/DTD/svg11.dtd" >
<svg xmlns="http://www.w3.org/2000/svg" xmlns:xlink="http://www.w3.org/1999/xlink" version="1.1">
<metadata>
Created by FontForge 20170812 at Mon Sep 18 19:20:05 2017
 By www-data
Copyright (c) 2008 Andreas Kalpakidis (hello@inderesting.com), with Reserved Font Name "Advent Pro"
</metadata>
<defs>
<font id="AdventPro-Light" horiz-adv-x="486" >
  <font-face 
    font-family="Advent Pro Light"
    font-weight="300"
    font-stretch="normal"
    units-per-em="1000"
    panose-1="2 0 5 6 4 0 0 2 0 4"
    ascent="800"
    descent="-200"
    x-height="501"
    cap-height="700"
    bbox="-60 -219 1886 957"
    underline-thickness="50"
    underline-position="-100"
    unicode-range="U+0020-FB04"
  />
<missing-glyph horiz-adv-x="500" 
d="M500 0h-500v700h500v-700zM450 50v600h-400v-600h400zM250 395l136 204l39 -32l-145 -217l145 -217l-39 -32l-136 204l-137 -205l-40 29l147 221l-147 221l40 29z" />
    <glyph glyph-name="f_l" unicode="fl" horiz-adv-x="391" 
d="M248 501l-19 -43h-106v-458h-45v561q0 67 42.5 106t105.5 39q69 0 130 -49v-657h-44v630q-42 28 -87 28q-44 0 -73 -28.5t-29 -75.5v-53h125z" />
    <glyph glyph-name="w_w_w" unicode="www" horiz-adv-x="1916" 
d="M204 52l120 449h43l118 -449l140 449h47l139 -449l120 449h43l118 -449l140 449h47l139 -449l120 449h43l118 -449l140 449h47l-159 -501h-58l-110 420l-112 -420h-57l-135 426l-135 -426h-58l-110 420l-112 -420h-57l-135 426l-135 -426h-58l-110 420l-112 -420h-57
l-158 501h47z" />
    <glyph glyph-name="f_t" unicode="ft" horiz-adv-x="516" 
d="M248 501l-20 -43h-105v-458h-45v561q0 66 43 105.5t105 39.5q69 0 130 -49v-156h125l-19 -43h-106v-326q0 -85 74 -110l-13 -35q-56 16 -81 51t-25 94v498q-42 28 -86 28t-73 -30t-29 -76v-51h125z" />
    <glyph glyph-name="t_t" unicode="tt" 
d="M323 501h131l-20 -43h-111v-326q0 -43 17.5 -69.5t56.5 -39.5l-13 -36q-56 16 -81 51t-25 94v326h-189v-326q0 -43 17.5 -69.5t56.5 -39.5l-13 -36q-56 16 -81 51t-25 94v568h45v-199h189v199h45v-199z" />
    <glyph glyph-name="f_f" unicode="ff" horiz-adv-x="547" 
d="M248 501l-20 -43h-105v-458h-45v561q0 66 42.5 105.5t105.5 39.5q66 0 125 -42q39 35 96 35q36 0 65 -16l-16 -39q-26 12 -50 12q-38 0 -64 -28t-26 -76v-51h125l-20 -43h-105v-458h-45v561q0 39 16 68q-42 29 -89 29q-48 0 -81.5 -29.5t-33.5 -76.5v-51h125z" />
    <glyph glyph-name="f_f_l" unicode="ffl" horiz-adv-x="621" 
d="M478 501l-19 -43h-106v-458h-45v561q0 39 16 69q-41 28 -87 28q-48 0 -81 -29.5t-33 -76.5v-51h125l-20 -43h-105v-458h-45v561q0 66 42.5 105.5t105.5 39.5t123 -41q20 20 47.5 30.5t58.5 10.5q33 0 67 -12.5t64 -36.5v-657h-44v630q-42 28 -87 28q-44 0 -73 -28.5
t-29 -75.5v-53h125z" />
    <glyph glyph-name="f_i" unicode="fi" horiz-adv-x="392" 
d="M248 501l-19 -43h-106v-458h-45v561q0 44 20 77.5t53.5 51.5t72.5 18q67 0 119 -48l-29 -30q-44 30 -88 30q-45 0 -74 -30t-29 -79v-50h125zM357 0h-44v501h44v-501z" />
    <glyph glyph-name=".notdef" horiz-adv-x="500" 
d="M500 0h-500v700h500v-700zM450 50v600h-400v-600h400zM250 395l136 204l39 -32l-145 -217l145 -217l-39 -32l-136 204l-137 -205l-40 29l147 221l-147 221l40 29z" />
    <glyph glyph-name=".null" horiz-adv-x="458" 
 />
    <glyph glyph-name="nonmarkingreturn" horiz-adv-x="458" 
 />
    <glyph glyph-name="space" unicode=" " horiz-adv-x="278" 
 />
    <glyph glyph-name="numbersign" unicode="#" horiz-adv-x="613" 
d="M262 458h140l57 242h44l-57 -242h136v-45h-146l-40 -168h186v-45h-196l-47 -200h-44l46 200h-140l-47 -200h-44l47 200h-123v45h133l40 168h-173v45h184l56 242h44zM352 245l40 168h-141l-40 -168h141z" />
    <glyph glyph-name="dollar" unicode="$" horiz-adv-x="540" 
d="M291 710q42 -1 71.5 -8.5t60.5 -21.5l-14 -43q-51 26 -118 29v-276q69 -23 113.5 -45.5t74.5 -60t30 -94.5q0 -87 -53.5 -141t-164.5 -59v-104h-45v104q-66 5 -113.5 33t-72 69.5t-26.5 85.5h46q2 -33 22 -64.5t57 -54t87 -26.5v325q-61 21 -101.5 41.5t-66.5 54.5
t-26 84q0 41 21.5 77.5t65 62t107.5 30.5v109h45v-107zM137 458.5q38 -28.5 109 -53.5v259q-67 -7 -107 -40.5t-40 -88.5q0 -48 38 -76.5zM417.5 280q-43.5 33 -126.5 63v-311q75 5 122.5 42t47.5 113q0 60 -43.5 93z" />
    <glyph glyph-name="percent" unicode="%" horiz-adv-x="670" 
d="M67 1l-28 33l560 706l33 -33zM254 707.5q33 -19.5 52.5 -52.5t19.5 -72t-19.5 -72t-52.5 -52.5t-72 -19.5t-72 19.5t-52.5 52.5t-19.5 72t19.5 72t52.5 52.5t72 19.5t72 -19.5zM107.5 511q28.5 -31 74.5 -31t74.5 31t28.5 72t-28.5 72t-74.5 31t-74.5 -31t-28.5 -72
t28.5 -72zM565 257.5q33 -19.5 52.5 -52.5t19.5 -72t-19.5 -72t-52.5 -52.5t-72 -19.5t-72 19.5t-52.5 52.5t-19.5 72t19.5 72t52.5 52.5t72 19.5t72 -19.5zM418 61q28 -31 75 -31t75 31t28 72t-28.5 72t-74.5 31t-74.5 -31t-28.5 -72t28 -72z" />
    <glyph glyph-name="ampersand" unicode="&#x26;" horiz-adv-x="546" 
d="M311 669q-47 0 -79 -30t-32 -73q0 -9 1 -13q6 -46 37 -69t72 -23q15 0 29 3l47 10v135h46v-125l73 16l10 -43l-83 -18v-304q0 -40 15 -70t48 -41l-13 -35q-39 12 -61.5 40.5t-27.5 65.5q-34 -55 -77 -80.5t-103 -25.5q-56 0 -96 26t-61 70t-21 96q0 73 32 122.5t76.5 78
t103.5 54.5q-37 5 -64.5 41.5t-27.5 87.5q0 43 21.5 76t58 51.5t79.5 18.5q32 0 67 -12l-25 -37q-22 7 -45 7zM241 385.5q-65 -25.5 -113.5 -75.5t-48.5 -128q0 -65 36.5 -107.5t103.5 -42.5q49 0 87 26.5t59 69t21 86.5v215q-80 -18 -145 -43.5z" />
    <glyph glyph-name="quoteright" unicode="&#x2019;" horiz-adv-x="329" 
d="M36 674q1 10 8.5 17.5t18.5 7.5t21 -9.5t10 -21.5q0 -55 -64 -108l-32 23q22 12 36 25.5t19.5 22t6.5 11.5l-7 2q-17 10 -17 30z" />
    <glyph glyph-name="parenleft" unicode="(" horiz-adv-x="278" 
d="M143 729q-20 -33 -20 -93v-573q0 -61 20.5 -94t54.5 -57l-15 -31q-38 22 -60.5 45t-33.5 57.5t-11 87.5v556q0 53 11 87.5t33.5 57.5t60.5 45l15 -31q-35 -24 -55 -57z" />
    <glyph glyph-name="parenright" unicode=")" horiz-adv-x="278" 
d="M153.5 772q22.5 -23 33.5 -57.5t11 -87.5v-556q0 -53 -11 -87.5t-33.5 -57.5t-60.5 -45l-15 31q34 24 54.5 57t20.5 94v573q0 60 -20 93t-55 57l15 31q38 -22 60.5 -45z" />
    <glyph glyph-name="asterisk" unicode="*" horiz-adv-x="352" 
d="M152 700h44v-120l114 43l16 -40l-116 -40l71 -96l-33 -25l-73 100l-69 -100l-36 25l68 96l-112 40l14 40l113 -43z" />
    <glyph glyph-name="plus" unicode="+" horiz-adv-x="385" 
d="M217 413h137v-44h-137v-135h-45v135h-138v44h138v132h45v-132z" />
    <glyph glyph-name="comma" unicode="," horiz-adv-x="165" 
d="M55 30q1 10 8.5 17.5t18.5 7.5t21 -9.5t10 -21.5q0 -55 -64 -108l-32 23q22 12 36 25.5t19.5 22t6.5 11.5l-7 2q-17 10 -17 30z" />
    <glyph glyph-name="hyphen" unicode="-" horiz-adv-x="410" 
d="M365 369h-320v44h320v-44z" />
    <glyph glyph-name="period" unicode="." horiz-adv-x="123" 
d="M63.5 47q8.5 -8 8.5 -19t-8.5 -19.5t-19.5 -8.5t-19 8.5t-8 19.5t8 19t19 8t19.5 -8z" />
    <glyph glyph-name="slash" unicode="/" horiz-adv-x="422" 
d="M74 -114h-48l324 931h46z" />
    <glyph glyph-name="zero" unicode="0" horiz-adv-x="549" 
d="M119.5 663q56.5 53 155.5 53t153.5 -56t54.5 -154v-321q0 -101 -61.5 -148.5t-147.5 -47.5q-54 0 -102 19.5t-78.5 63.5t-30.5 113v322q0 103 56.5 156zM155.5 70.5q47.5 -38.5 117.5 -38.5q72 0 119 37.5t47 116.5v328q0 77 -44.5 118t-121.5 41t-121 -41t-44 -118v-329
q0 -76 47.5 -114.5z" />
    <glyph glyph-name="one" unicode="1" horiz-adv-x="210" 
d="M184 0h-45v642q-18 -19 -41 -30.5t-40 -16.5t-22 -6l-10 42q0 -1 21.5 4.5t46.5 21t45 43.5h45v-700z" />
    <glyph glyph-name="two" unicode="2" horiz-adv-x="403" 
d="M100 676.5q42 33.5 107 33.5q47 0 86 -21t61 -58.5t22 -84.5q0 -65 -45 -133l-253 -371h299v-42h-351v43l265 391q37 57 37 109q0 55 -36 89.5t-86 34.5q-47 0 -79 -26t-46 -67l-42 16q19 53 61 86.5z" />
    <glyph glyph-name="three" unicode="3" horiz-adv-x="442" 
d="M360 660l-172 -247h15q58 0 107 -28.5t77.5 -77t28.5 -106.5t-28.5 -107t-77.5 -77.5t-107 -28.5q-54 0 -101 25.5t-76 69.5l38 24q23 -34 59.5 -54t79.5 -20q48 0 86 23.5t60 62t22 82.5q0 47 -22.5 84.5t-60 59.5t-79.5 24h-103l199 286h-232v45h287v-40z" />
    <glyph glyph-name="four" unicode="4" horiz-adv-x="490" 
d="M103 413h243v287h45v-287h73l-15 -44h-58v-369h-45v369h-320l187 331h47z" />
    <glyph glyph-name="five" unicode="5" horiz-adv-x="442" 
d="M360 655h-226l-25 -242h94q58 0 107 -28.5t77.5 -77t28.5 -106.5t-28.5 -107t-77.5 -77.5t-107 -28.5q-54 0 -101 25.5t-76 69.5l37 24q22 -34 59.5 -54t80.5 -20q47 0 85.5 23t60.5 61.5t22 83.5t-22 83.5t-60.5 61.5t-85.5 23h-143l35 331h265v-45z" />
    <glyph glyph-name="six" unicode="6" horiz-adv-x="477" 
d="M305 655h-39q-50 0 -94.5 -21t-73 -66.5t-28.5 -115.5v-134q24 47 69.5 71t98.5 24q58 0 107 -28.5t77.5 -77t28.5 -106.5t-28.5 -107t-77.5 -77.5t-107 -28.5t-106.5 28.5t-77 77.5t-28.5 107v260q0 55 23.5 109.5t78 92t142.5 37.5h35v-45zM92.5 116q22.5 -39 61 -61.5
t84.5 -22.5t85 22.5t61.5 61.5t22.5 85t-22.5 84.5t-61.5 61t-85 22.5q-45 0 -83 -21.5t-61 -58.5t-24 -81v-7q0 -46 22.5 -85z" />
    <glyph glyph-name="seven" unicode="7" horiz-adv-x="446" 
d="M420 655l-332 -655h-49l329 655h-342v45h394v-45z" />
    <glyph glyph-name="eight" unicode="8" horiz-adv-x="474" 
d="M88.5 449q-23.5 40 -23.5 85q0 48 23 88t62.5 63.5t87.5 23.5t88 -23.5t63 -63.5t23 -88q0 -46 -23.5 -85.5t-64.5 -61.5q56 -24 90 -76.5t34 -112.5q0 -58 -28 -106t-76.5 -76t-106.5 -28t-106.5 28t-76.5 76t-28 106q0 62 34 113.5t91 76.5q-39 21 -62.5 61zM124.5 470
q17.5 -29 47 -46t62.5 -17q55 0 94.5 36.5t39.5 90.5q0 56 -37.5 94t-92.5 38t-93 -38.5t-38 -93.5q0 -35 17.5 -64zM151 339.5q-37 -22.5 -58.5 -59.5t-21.5 -82q0 -46 22 -83.5t60 -59.5t84 -22t84 22t60 59.5t22 83.5q0 45 -22.5 82t-61.5 59.5t-87 23.5
q-44 -1 -81 -23.5z" />
    <glyph glyph-name="nine" unicode="9" horiz-adv-x="477" 
d="M172 45h39q50 0 94.5 20.5t73 66t28.5 115.5v131q-24 -47 -69.5 -70.5t-98.5 -23.5q-58 0 -107 28.5t-77.5 77t-28.5 106.5t28.5 107t77.5 77.5t107 28.5t106.5 -28.5t77 -77.5t28.5 -107v-258q0 -55 -23.5 -109.5t-78 -91.5t-142.5 -37h-35v45zM384.5 581
q-22.5 39 -61 61.5t-84.5 22.5t-85 -22.5t-61.5 -61.5t-22.5 -85t22.5 -84.5t61.5 -61t85 -22.5q45 0 83 21.5t60.5 58.5t24.5 81v7q0 46 -22.5 85z" />
    <glyph glyph-name="colon" unicode=":" horiz-adv-x="107" 
d="M72.5 409q8.5 -8 8.5 -19t-8.5 -19.5t-19.5 -8.5t-19 8.5t-8 19.5t8 19t19 8t19.5 -8zM72.5 158q8.5 -8 8.5 -19t-8.5 -19.5t-19.5 -8.5t-19 8.5t-8 19.5t8 19t19 8t19.5 -8z" />
    <glyph glyph-name="semicolon" unicode=";" horiz-adv-x="148" 
d="M111.5 292q8.5 -8 8.5 -19t-8.5 -19.5t-19.5 -8.5t-19 8.5t-8 19.5t8 19t19 8t19.5 -8zM64 31q1 10 8.5 17.5t18.5 7.5t21 -9.5t10 -21.5q0 -55 -64 -108l-32 23q22 12 36 25.5t19.5 22t6.5 11.5l-7 2q-17 10 -17 30z" />
    <glyph glyph-name="less" unicode="&#x3c;" horiz-adv-x="361" 
d="M86 358l249 -247l-31 -31l-278 278v1l278 278l31 -31z" />
    <glyph glyph-name="equal" unicode="=" horiz-adv-x="372" 
d="M346 369h-320v44h320v-44zM346 264h-320v44h320v-44z" />
    <glyph glyph-name="greater" unicode="&#x3e;" horiz-adv-x="361" 
d="M335 359v-1l-278 -278l-31 31l249 247l-249 248l31 31z" />
    <glyph glyph-name="question" unicode="?" horiz-adv-x="407" 
d="M46 620.5q20 40.5 60.5 64.5t97.5 24q49 0 89.5 -24t63.5 -64t23 -87q0 -60 -37 -113q-20 -29 -58 -67q-26 -25 -40 -44t-23.5 -50t-9.5 -80v-61h-41v85q0 44 11.5 76.5t28.5 54.5t45 51q34 36 44 51q33 47 33 98q0 55 -36.5 93t-92.5 38q-57 0 -95 -34.5t-38 -99.5h-45
q0 48 20 88.5zM210.5 47q8.5 -8 8.5 -19t-8.5 -19.5t-19.5 -8.5t-19.5 8.5t-8.5 19.5t8.5 19t19.5 8t19.5 -8z" />
    <glyph glyph-name="at" unicode="@" horiz-adv-x="711" 
d="M141 32q70 -54 181 -54q81 0 146 22t102.5 63.5t37.5 98.5v191q0 45 2.5 67t16.5 40.5t45 30.5l13 -31q-34 -15 -34 -70l1 -219q0 -85 -51.5 -138t-127.5 -76t-154 -23q-81 0 -147.5 28t-106 84.5t-39.5 139.5v155q0 104 56.5 157t127.5 69q57 12 108 12q93 0 154.5 -42
t61.5 -139l37 -16v-41l-37 16v-266q-131 -36 -211 -36q-77 0 -122.5 34t-51.5 115v101q0 60 22 94t66 50q30 11 69 11q45 0 92 -13.5t88 -33.5q-4 62 -48.5 93.5t-118.5 31.5q-108 0 -178 -46.5t-70 -149.5v-152q0 -104 70 -158zM229.5 122q35.5 -27 99.5 -27q70 0 160 30
v247q-39 19 -86.5 33t-89.5 14q-54 0 -87 -27.5t-33 -89.5v-97q1 -56 36.5 -83z" />
    <glyph glyph-name="A" unicode="A" horiz-adv-x="527" 
d="M517 0h-48l-86 256h-240l-84 -256h-47l230 700h42zM371 300l-108 327l-106 -327h214z" />
    <glyph glyph-name="B" unicode="B" horiz-adv-x="546" 
d="M427.5 658q47.5 -42 47.5 -126q0 -38 -16 -74.5t-56 -60.5l-1 -2v-1q47 -20 78 -65.5t31 -119.5q0 -86 -46.5 -147.5t-156.5 -61.5h-230v700h221q81 0 128.5 -42zM308 413q54 0 87.5 31.5t33.5 87.5q0 125 -138 125h-168v-244h185zM306 43q157 0 157 170q0 72 -41 114
t-103 42h-196v-326h183z" />
    <glyph glyph-name="C" unicode="C" horiz-adv-x="434" 
d="M150.5 70.5q39.5 -39.5 114.5 -39.5q63 0 152 30l10 -38q-89 -33 -166 -33q-87 0 -141 46t-54 147v321q0 76 21.5 115t65.5 66q43 25 107 25q76 0 142 -33l-14 -32q-58 24 -115 24q-63 0 -112.5 -31.5t-49.5 -124.5v-328q0 -75 39.5 -114.5z" />
    <glyph glyph-name="D" unicode="D" horiz-adv-x="576" 
d="M438.5 639q59.5 -62 59.5 -165v-274q0 -200 -212 -200h-208v701h188q113 0 172.5 -62zM272 41q77 0 129 30.5t52 125.5v282q0 62 -25.5 102.5t-66 59t-85.5 18.5h-153v-618h149z" />
    <glyph glyph-name="E" unicode="E" horiz-adv-x="465" 
d="M412 658h-289v-245h202l-15 -44h-187v-328h287v-41h-332v700h334v-42z" />
    <glyph glyph-name="F" unicode="F" horiz-adv-x="447" 
d="M412 657h-289v-244h182l-19 -44h-163v-369h-45v700h334v-43z" />
    <glyph glyph-name="G" unicode="G" horiz-adv-x="537" 
d="M156 74.5q46 -41.5 120 -41.5q76 0 116.5 43t40.5 109v71h-79l-16 44h138v-300h-34l-10 55q-49 -65 -156 -65q-56 0 -104 21t-77.5 66t-29.5 112v314q0 70 22.5 112.5t64.5 68.5q44 25 108 25q78 0 141 -33l-13 -32q-57 24 -111 25q-65 0 -116 -32.5t-51 -129.5v-320
q0 -71 46 -112.5z" />
    <glyph glyph-name="H" unicode="H" horiz-adv-x="588" 
d="M123 413h340v287h45v-700h-45v369h-340v-369h-45v700h45v-287z" />
    <glyph glyph-name="I" unicode="I" horiz-adv-x="196" 
d="M146 0h-45v658l-72 2v40h117v-700z" />
    <glyph glyph-name="J" unicode="J" horiz-adv-x="178" 
d="M128 119q0 -74 -30.5 -113.5t-88.5 -42.5l-11 31q35 2 60 30t25 91v543l-72 2v40h117v-581z" />
    <glyph glyph-name="K" unicode="K" horiz-adv-x="476" 
d="M124 349l248 352h52l-209 -297l261 -404h-53l-236 362l-63 -90v-272h-45v701h45v-352z" />
    <glyph glyph-name="L" unicode="L" horiz-adv-x="440" 
d="M123 41h316v-41h-361v700h45v-659z" />
    <glyph glyph-name="M" unicode="M" horiz-adv-x="694" 
d="M345 69l224 631h45v-700h-45v569l-200 -569h-48l-198 569v-569h-45v700h45z" />
    <glyph glyph-name="N" unicode="N" horiz-adv-x="650" 
d="M526 82v618h44v-700h-44l-403 619v-619h-45v700h45z" />
    <glyph glyph-name="O" unicode="O" horiz-adv-x="549" 
d="M119.5 663q56.5 53 155.5 53t153.5 -56t54.5 -154v-321q0 -101 -61.5 -148.5t-147.5 -47.5q-54 0 -102 19.5t-78.5 63.5t-30.5 113v322q0 103 56.5 156zM155.5 70.5q47.5 -38.5 117.5 -38.5q72 0 119 37.5t47 116.5v328q0 77 -44.5 118t-121.5 41t-121 -41t-44 -118v-329
q0 -76 47.5 -114.5z" />
    <glyph glyph-name="P" unicode="P" horiz-adv-x="547" 
d="M465.5 642q46.5 -58 46.5 -156q0 -60 -11.5 -109t-53 -85t-122.5 -36h-202v-256h-45v700h246q95 0 141.5 -58zM325 300q63 0 94.5 31t39.5 70t8 85q0 83 -36 127t-104 44h-204v-357h202z" />
    <glyph glyph-name="Q" unicode="Q" horiz-adv-x="549" 
d="M119.5 663q56.5 53 155.5 53t153.5 -56t54.5 -154v-321q0 -87 -46.5 -134.5t-121.5 -58.5q25 -43 113 -43v-43q-121 0 -159 83q-86 2 -146 49.5t-60 146.5v322q0 103 56.5 156zM151 74.5q43 -38.5 105 -42.5q-4 24 -4 63v79h45v-78q0 -40 4 -63q63 6 100 46t37 108v329
q0 78 -45.5 117.5t-119.5 39.5q-73 0 -119 -39t-46 -118v-331q0 -72 43 -110.5z" />
    <glyph glyph-name="R" unicode="R" horiz-adv-x="564" 
d="M465 642q47 -58 47 -156q0 -70 -20.5 -128.5t-81.5 -85.5l103 -272h-46l-100 258q-22 -2 -36 -2h-208v-256h-45v700h244q96 0 143 -58zM327 300q140 0 140 186q0 84 -37.5 127.5t-105.5 43.5h-201v-357h204z" />
    <glyph glyph-name="S" unicode="S" horiz-adv-x="561" 
d="M109 109q23 -34 65 -55.5t98 -21.5q83 0 137.5 37t54.5 118q0 46 -26.5 76t-65.5 48t-105 41q-70 24 -112 44t-71 54.5t-29 87.5q0 44 25 83.5t75.5 64t124.5 24.5q49 0 81 -7t65 -23l-14 -43q-57 29 -130 29q-80 0 -130 -34t-50 -97q0 -37 24 -62.5t59.5 -41.5t98.5 -37
q73 -25 118.5 -47t77.5 -60t32 -97q0 -92 -58.5 -146.5t-180.5 -54.5q-74 0 -126.5 27.5t-80 71t-29.5 90.5h46q3 -35 26 -69z" />
    <glyph glyph-name="T" unicode="T" horiz-adv-x="402" 
d="M402 659h-181v-659h-45v659h-176v41h402v-41z" />
    <glyph glyph-name="U" unicode="U" horiz-adv-x="566" 
d="M119 180q0 -47 23.5 -80t61.5 -49.5t81 -16.5q68 0 116.5 38t48.5 108v521h45v-515q0 -101 -61.5 -147t-148.5 -46t-149 46t-62 147v515h45v-521z" />
    <glyph glyph-name="V" unicode="V" horiz-adv-x="591" 
d="M317 56l191 644h48l-208 -700h-61l-209 700h48z" />
    <glyph glyph-name="W" unicode="W" horiz-adv-x="809" 
d="M278 59l119 641h60l119 -641l149 641h49l-168 -700h-66l-113 615l-113 -615h-66l-170 700h48z" />
    <glyph glyph-name="X" unicode="X" horiz-adv-x="587" 
d="M299 399l185 301h52l-210 -344l226 -355l-55 -1l-198 310l-198 -310h-56l227 356l-208 344h50z" />
    <glyph glyph-name="Y" unicode="Y" horiz-adv-x="556" 
d="M105 447q0 -76 49 -117t135 -41q65 0 112 29.5t57 82.5v299h46v-547q0 -70 -26.5 -110.5t-78.5 -49.5l-11 31q30 11 50 37.5t20 90.5v156q-27 -32 -76 -47.5t-93 -15.5q-106 0 -167.5 52.5t-61.5 155.5v247h45v-253z" />
    <glyph glyph-name="Z" unicode="Z" horiz-adv-x="550" 
d="M512 659l-424 -618h430v-41h-487v41l424 618h-411v41h468v-41z" />
    <glyph glyph-name="bracketleft" unicode="[" horiz-adv-x="319" 
d="M239 780l-116 -7v-843l116 -7v-37h-161v931h161v-37z" />
    <glyph glyph-name="backslash" unicode="\" horiz-adv-x="483" 
d="M448 -114h-48l-322 931h46z" />
    <glyph glyph-name="bracketright" unicode="]" horiz-adv-x="319" 
d="M239 -114h-161v37l116 7v843l-116 7v37h161v-931z" />
    <glyph glyph-name="asciicircum" unicode="^" horiz-adv-x="403" 
d="M368 758l-31 -32l-112 111l-116 -111l-31 32l148 141z" />
    <glyph glyph-name="underscore" unicode="_" horiz-adv-x="514" 
d="M396 -44h-320v44h320v-44z" />
    <glyph glyph-name="quoteleft" unicode="&#x2018;" horiz-adv-x="329" 
d="M56 598q-1 -10 -8.5 -17.5t-18.5 -7.5t-21 9.5t-10 21.5q0 55 64 108l32 -23q-22 -12 -36 -25.5t-19.5 -22t-6.5 -11.5l7 -2q17 -10 17 -30z" />
    <glyph glyph-name="a" unicode="a" horiz-adv-x="458" 
d="M355.5 478.5q45.5 -30.5 56 -72.5t10.5 -108v-298q-108 -11 -156 -11q-105 0 -167 39t-62 141v83q0 99 70 133q34 17 86 17q49 0 99 -15t85 -41q0 57 -35 92.5t-131 34.5l3 36q96 0 141.5 -30.5zM129.5 59.5q48.5 -30.5 135.5 -30.5q40 0 112 9v271q-38 21 -88 36.5
t-94 15.5q-51 0 -82.5 -26t-31.5 -86v-87q0 -72 48.5 -102.5z" />
    <glyph glyph-name="b" unicode="b" horiz-adv-x="482" 
d="M123 475q26 16 63 25t76 9q59 0 100 -19q85 -39 85 -144v-189q0 -51 -21 -86t-57 -53q-32 -16 -64.5 -23t-69.5 -7t-102 7l-55 5v700h45v-225zM229 30q79 0 126.5 29.5t47.5 96.5v187q0 66 -40 96t-101 30q-36 0 -74 -9.5t-65 -24.5v-395q58 -10 106 -10z" />
    <glyph glyph-name="c" unicode="c" horiz-adv-x="383" 
d="M124 62q44 -33 117 -33q51 0 107 14l10 -37q-62 -16 -120 -16q-54 0 -90 12q-59 20 -85.5 61.5t-26.5 116.5v128q0 99 52 150.5t134 51.5q65 0 134 -32l-13 -35q-58 26 -115 26q-65 0 -106 -38.5t-41 -116.5v-145q-1 -74 43 -107z" />
    <glyph glyph-name="d" unicode="d" horiz-adv-x="475" 
d="M440 0l-55 -5q-65 -7 -102 -7t-69.5 7t-64.5 23q-36 18 -57 53t-21 86v189q0 105 85 144q41 19 100 19q39 0 75.5 -9t63.5 -25v225h45v-700zM330 459.5q-38 9.5 -74 9.5q-61 0 -101 -30t-40 -96v-187q0 -67 47.5 -96.5t126.5 -29.5q48 0 106 10v395q-27 15 -65 24.5z" />
    <glyph glyph-name="e" unicode="e" horiz-adv-x="434" 
d="M85.5 465q50.5 45 133.5 45t129.5 -44.5t46.5 -123.5v-120l-315 -17v-72q0 -52 33.5 -78.5t87.5 -26.5q72 0 151 42l18 -35q-36 -23 -82 -35t-92 -12q-74 0 -117.5 36.5t-43.5 109.5v205q0 81 50.5 126zM350 263v84q0 67 -41 95.5t-91 28.5q-59 0 -98.5 -32t-39.5 -100
v-90z" />
    <glyph glyph-name="f" unicode="f" horiz-adv-x="296" 
d="M228 670q-50 0 -77.5 -30.5t-27.5 -90.5v-48h125l-19 -43h-106v-458h-45v549q0 83 42 122t104 39q19 0 37 -3l-7 -39q-18 2 -26 2z" />
    <glyph glyph-name="g" unicode="g" horiz-adv-x="448" 
d="M414 501v-565q0 -60 -25 -94t-82 -52l-12 35q36 14 55 40t19 72v128q-47 -77 -146 -77q-88 0 -137 48t-49 140v149q0 88 52 136.5t139 48.5q98 0 144 -69l-3 60h45zM119.5 65.5q37.5 -35.5 103.5 -35.5q37 0 70.5 15t54.5 46.5t21 77.5v185q-6 59 -47 87t-97 28
t-99.5 -34.5t-43.5 -114.5v-153q0 -66 37.5 -101.5z" />
    <glyph glyph-name="h" unicode="h" horiz-adv-x="493" 
d="M109 474q27 17 63.5 26t75.5 9q61 0 100 -19q85 -39 85 -144v-346h-44v344q0 65 -39.5 95t-100.5 30q-36 0 -73 -9.5t-67 -25.5v-434h-45v700h45v-226z" />
    <glyph glyph-name="i" unicode="i" horiz-adv-x="213" 
d="M86.5 702q8.5 8 19.5 8t19 -8t8 -19t-8 -19.5t-19 -8.5t-19.5 8.5t-8.5 19.5t8.5 19zM128 0h-45v501h45v-501z" />
    <glyph glyph-name="j" unicode="j" horiz-adv-x="194" 
d="M77.5 702q8.5 8 19.5 8t19 -8t8 -19t-8 -19.5t-19 -8.5t-19.5 8.5t-8.5 19.5t8.5 19zM118 -77q-2 -54 -32.5 -91.5t-85.5 -40.5l-6 35q0 -3 22 6.5t39.5 34t17.5 69.5v521l-54 2l-19 42h118v-578z" />
    <glyph glyph-name="k" unicode="k" horiz-adv-x="435" 
d="M112 325l211 195l32 -31l-145 -129q69 -115 224 -360h-54l-202 332l-66 -59v-273h-45v700h45v-375z" />
    <glyph glyph-name="l" unicode="l" horiz-adv-x="203" 
d="M123 0h-45v700h45v-700z" />
    <glyph glyph-name="m" unicode="m" horiz-adv-x="737" 
d="M119 471q70 37 139 37q40 0 73 -12.5t54 -36.5q14 8 46 24q58 27 113 27q70 0 114 -43.5t44 -120.5v-346h-44v343q0 64 -34 96t-87 32q-44 0 -90 -22l-42 -21q15 -29 15 -86v-342h-44v353q0 60 -34.5 88t-88.5 28q-33 0 -68 -9.5t-62 -25.5v-434h-45v501h45z" />
    <glyph glyph-name="n" unicode="n" horiz-adv-x="500" 
d="M109 474q27 17 63.5 26t75.5 9q61 0 100 -19q85 -39 85 -144v-346h-44v344q0 65 -40 95t-101 30q-35 0 -72 -9.5t-67 -25.5v-434h-45v501h45v-27z" />
    <glyph glyph-name="o" unicode="o" horiz-adv-x="455" 
d="M95.5 461.5q48.5 50.5 139.5 50.5q87 0 136 -52.5t49 -143.5v-132q0 -84 -46 -139t-139 -55t-140.5 55.5t-47.5 138.5v132q0 95 48.5 145.5zM129.5 71.5q37.5 -41.5 105.5 -41.5t104 41t36 106v140q0 78 -38.5 116t-101.5 38q-65 0 -104 -37.5t-39 -116.5v-140
q0 -64 37.5 -105.5z" />
    <glyph glyph-name="p" unicode="p" horiz-adv-x="490" 
d="M119 446q27 31 66 47t76 16q95 0 144.5 -54.5t49.5 -140.5v-138q0 -91 -51.5 -139.5t-135.5 -48.5q-49 0 -84.5 15t-60.5 49v-262l-45 17v694h45zM366.5 433q-43.5 35 -102.5 35q-51 0 -92.5 -29t-48.5 -93v-183q0 -67 39.5 -100.5t106.5 -33.5q57 0 99 34.5t42 102.5
v152q0 80 -43.5 115z" />
    <glyph glyph-name="q" unicode="q" horiz-adv-x="448" 
d="M414 -210l-45 17v245q-25 -34 -60.5 -49t-84.5 -15q-84 0 -135.5 48.5t-51.5 139.5v138q0 86 49.5 140.5t144.5 54.5q37 0 76 -16t66 -47l-4 55h45v-711zM124 63.5q42 -34.5 99 -34.5q67 0 106.5 33.5t39.5 100.5v183q-7 64 -49 93t-92 29q-58 0 -102 -35.5t-44 -114.5
v-152q0 -68 42 -102.5z" />
    <glyph glyph-name="r" unicode="r" horiz-adv-x="333" 
d="M104 461q50 49 132 49q28 0 75 -9l-12 -42q-33 10 -66 10q-52 0 -89.5 -20t-37.5 -55v-394h-45v501h45z" />
    <glyph glyph-name="s" unicode="s" horiz-adv-x="431" 
d="M299.5 454.5q-12.5 6.5 -33.5 12.5t-47 6q-54 0 -92 -26.5t-33 -76.5q3 -35 35 -53.5t95 -37.5q56 -18 90 -33.5t58 -45t24 -75.5q0 -60 -44.5 -100t-130.5 -40q-57 0 -98.5 19.5t-63 51.5t-23.5 71h43q6 -47 45.5 -73.5t96.5 -26.5q52 0 91 25t39 72q0 32 -19 53
t-46.5 33.5t-74.5 27.5q-50 16 -80.5 29.5t-53.5 37.5t-27 60q-1 5 -1 14q0 33 18 63.5t56.5 50.5t95.5 20q31 0 56 -6.5t39 -13.5t17 -9l-16 -38q-3 2 -15.5 8.5z" />
    <glyph glyph-name="t" unicode="t" horiz-adv-x="243" 
d="M89 501h131l-20 -43h-111v-326q0 -43 17.5 -69.5t56.5 -39.5l-13 -36q-56 16 -81 51t-25 94v568h45v-199z" />
    <glyph glyph-name="u" unicode="u" horiz-adv-x="447" 
d="M81 168q0 -69 37 -103.5t106 -34.5q64 0 102 33.5t38 99.5v338h45v-501h-44l3 59q-24 -33 -62.5 -51.5t-81.5 -18.5q-188 0 -188 184v328h45v-333z" />
    <glyph glyph-name="v" unicode="v" horiz-adv-x="426" 
d="M210 52l146 449h47l-164 -501h-58l-163 501h47z" />
    <glyph glyph-name="w" unicode="w" horiz-adv-x="702" 
d="M204 52l120 449h43l118 -449l140 449h47l-159 -501h-58l-110 420l-112 -420h-57l-158 501h47z" />
    <glyph glyph-name="x" unicode="x" horiz-adv-x="481" 
d="M241 290l132 211h50l-156 -252l155 -249h-52l-129 208l-130 -208h-53l157 250l-155 251h51z" />
    <glyph glyph-name="y" unicode="y" horiz-adv-x="478" 
d="M80 166q0 -66 36.5 -101.5t103.5 -35.5q66 0 107 35.5t41 101.5v200q0 46 2.5 69.5t16 43.5t44.5 31l13 -31q-32 -18 -32 -76v-464q0 -61 -24 -96t-81 -53l-12 35q37 13 55.5 40t18.5 72v123q-21 -38 -62 -55t-87 -17q-88 0 -135.5 47.5t-47.5 140.5v325h43v-335z" />
    <glyph glyph-name="z" unicode="z" horiz-adv-x="480" 
d="M424 460l-291 -419h312v-41h-367v41l289 419h-280v41h337v-41z" />
    <glyph glyph-name="braceleft" unicode="{" horiz-adv-x="308" 
d="M215 733q-20 -32 -20 -92v-185q0 -41 -60 -101q24 -24 43 -50t19 -52v-185q0 -59 19 -93.5t57 -59.5l-15 -31q-45 26 -67 52.5t-30.5 69.5t-8.5 122v119q0 27 -21 52.5t-53 54.5q24 19 48 50t24 58v121q0 76 8.5 118t30.5 68.5t67 52.5l15 -31q-36 -26 -56 -58z" />
    <glyph glyph-name="bar" unicode="|" horiz-adv-x="203" 
d="M123 -114h-45v931h45v-931z" />
    <glyph glyph-name="braceright" unicode="}" horiz-adv-x="308" 
d="M162 769.5q22 -26.5 30.5 -68.5t8.5 -118v-121q0 -27 24 -58t48 -50q-32 -29 -53 -54.5t-21 -52.5v-119q0 -79 -8.5 -122t-30.5 -69.5t-67 -52.5l-15 31q38 25 57 59.5t19 93.5v185q0 26 19 52t43 50q-60 60 -60 101v185q0 60 -20 92t-56 58l15 31q45 -26 67 -52.5z" />
    <glyph glyph-name="asciitilde" unicode="~" horiz-adv-x="514" 
d="M188 375q22 0 43 -4.5t57 -14.5q24 -7 47.5 -12.5t42.5 -5.5q48 0 79 36l22 -32q-42 -49 -101 -49q-21 0 -41.5 4.5t-55.5 14.5q-59 19 -92 19q-52 0 -89 -42l-22 32q46 54 110 54z" />
    <glyph glyph-name="exclamdown" unicode="&#xa1;" horiz-adv-x="214" 
d="M86.5 663q-8.5 8 -8.5 19t8.5 19.5t19.5 8.5t19 -8.5t8 -19.5t-8 -19t-19 -8t-19.5 8zM126.5 8q-7.5 -8 -19.5 -8q-13 0 -20.5 8t-7.5 23l9 559h38l8 -559q0 -15 -7.5 -23z" />
    <glyph glyph-name="cent" unicode="&#xa2;" horiz-adv-x="435" 
d="M287 508q54 -5 111 -30l-13 -35q-52 22 -98 25v-439q49 0 103 14l10 -37q-59 -16 -113 -16v-104h-44v106q-32 3 -53 10q-59 20 -85.5 61.5t-26.5 116.5v128q0 92 45.5 143.5t119.5 57.5v114h44v-115zM154.5 72.5q32.5 -33.5 88.5 -41.5v436q-55 -8 -87.5 -46t-32.5 -107
v-145q-1 -63 31.5 -96.5z" />
    <glyph glyph-name="fraction" unicode="&#x2044;" horiz-adv-x="482" 
d="M127 -114h-49l324 931h46z" />
    <glyph glyph-name="yen" unicode="&#xa5;" horiz-adv-x="560" 
d="M266 341l-7 12h-129v44h103l-180 303h51l181 -303h5l184 303h51l-181 -303h106v-44h-133l-6 -11v-38h139v-44h-139v-260h-45v260h-136v44h136v37z" />
    <glyph glyph-name="section" unicode="&#xa7;" horiz-adv-x="588" 
d="M150.5 -79.5q23.5 -33.5 66 -54t96.5 -20.5q84 0 138.5 39t54.5 116q0 47 -27 78.5t-66.5 50.5t-106.5 42q-70 25 -111 45t-69.5 54t-28.5 86q0 48 31 88q-32 40 -32 95q0 44 25 83.5t75.5 64t124.5 24.5q49 0 81 -7t65 -23l-14 -42q-57 29 -130 29q-79 0 -130 -33.5
t-51 -98.5q0 -39 24.5 -66t61.5 -44.5t100 -39.5q73 -26 117.5 -47.5t75.5 -59t31 -93.5q0 -52 -23 -95q24 -37 24 -86q0 -92 -59.5 -147.5t-179.5 -55.5q-74 0 -126.5 27.5t-80 71t-29.5 90.5h46q3 -38 26.5 -71.5zM148 387q-5 -13 -5 -31q0 -37 23.5 -63t58.5 -42t95 -37
q62 -21 103 -39.5t72 -45.5q1 3 5.5 18.5t4.5 32.5q0 45 -26 75t-63.5 48.5t-103.5 42.5q-52 18 -87.5 33.5t-62.5 35.5q-9 -15 -14 -28z" />
    <glyph glyph-name="currency" unicode="&#xa4;" horiz-adv-x="464" 
d="M142 460q23 18 52 28.5t59 10.5t59 -10t51 -28l31 31l28 -29l-31 -31q18 -23 28 -51t10 -58t-10.5 -58.5t-28.5 -51.5l33 -33l-27 -27l-33 33q-22 -18 -51 -28t-59 -10q-31 0 -59.5 10t-50.5 28l-32 -34l-27 27l31 34q-17 23 -27 51.5t-10 58.5q0 29 10 57.5t27 51.5
l-31 32l28 27zM138 257.5q18 -29.5 48.5 -47t66.5 -17.5t66.5 17.5t48 47t17.5 65.5t-18 66.5t-48 48.5t-66 18t-66.5 -18t-48.5 -48.5t-18 -66.5t18 -65.5z" />
    <glyph glyph-name="quotesingle" unicode="'" horiz-adv-x="170" 
d="M58 589l-12 115q0 15 8.5 23t19.5 8t19.5 -8t8.5 -23l-12 -115h-32z" />
    <glyph glyph-name="quotedblleft" unicode="&#x201c;" horiz-adv-x="480" 
d="M56 602q-1 -10 -8.5 -17.5t-18.5 -7.5t-21 9.5t-10 21.5q0 55 64 108l32 -23q-22 -12 -36 -25.5t-19.5 -22t-6.5 -11.5l7 -2q17 -10 17 -30zM207 602q-1 -10 -8.5 -17.5t-18.5 -7.5t-21 9.5t-10 21.5q0 55 64 108l32 -23q-22 -12 -36 -25.5t-19.5 -22t-6.5 -11.5l7 -2
q17 -10 17 -30z" />
    <glyph glyph-name="guillemotleft" unicode="&#xab;" horiz-adv-x="498" 
d="M102 267l156 -158l-29 -29l-187 187v1l187 187l30 -31zM322 267l156 -158l-29 -29l-187 187v1l187 187l30 -31z" />
    <glyph glyph-name="guilsinglleft" unicode="&#x2039;" horiz-adv-x="279" 
d="M102 267l156 -158l-29 -29l-187 187v1l187 187l31 -31z" />
    <glyph glyph-name="guilsinglright" unicode="&#x203a;" horiz-adv-x="295" 
d="M222 268v-1l-187 -187l-29 29l156 158l-158 157l31 31z" />
    <glyph glyph-name="paragraph" unicode="&#xb6;" horiz-adv-x="671" 
d="M636 -199h-45v906l-79 1v-906h-45v444h-212q-82 0 -120.5 40.5t-47.5 96.5t-9 141q0 100 46 163t140 63h372v-949z" />
    <glyph glyph-name="bullet" unicode="&#x2022;" horiz-adv-x="470" 
d="M346 491q41 -24 65 -64.5t24 -89.5t-24 -90t-65 -65t-90 -24t-89.5 24t-64.5 65t-24 90t24 89.5t64.5 64.5t89.5 24t90 -24z" />
    <glyph glyph-name="quotesinglbase" unicode="&#x201a;" horiz-adv-x="165" 
d="M55 30q1 10 8.5 17.5t18.5 7.5t21 -9.5t10 -21.5q0 -55 -64 -108l-32 23q22 12 36 25.5t19.5 22t6.5 11.5l-7 2q-17 10 -17 30z" />
    <glyph glyph-name="quotedblbase" unicode="&#x201e;" horiz-adv-x="316" 
d="M55 32q1 10 8.5 17.5t18.5 7.5t21 -9.5t10 -21.5q0 -55 -64 -108l-32 23q22 12 36 25.5t19.5 22t6.5 11.5l-7 2q-17 10 -17 30zM206 32q1 10 8.5 17.5t18.5 7.5t21 -9.5t10 -21.5q0 -55 -64 -108l-32 23q22 12 36 25.5t19.5 22t6.5 11.5l-7 2q-17 10 -17 30z" />
    <glyph glyph-name="quotedblright" unicode="&#x201d;" horiz-adv-x="480" 
d="M36 674q1 10 8.5 17.5t18.5 7.5t21 -9.5t10 -21.5q0 -55 -64 -108l-32 23q22 12 36 25.5t19.5 22t6.5 11.5l-7 2q-17 10 -17 30zM187 674q1 10 8.5 17.5t18.5 7.5t21 -9.5t10 -21.5q0 -55 -64 -108l-32 23q22 12 36 25.5t19.5 22t6.5 11.5l-7 2q-17 10 -17 30z" />
    <glyph glyph-name="guillemotright" unicode="&#xbb;" horiz-adv-x="514" 
d="M221 268v-1l-187 -187l-29 29l156 158l-157 157l30 31zM441 268v-1l-187 -187l-29 29l156 158l-157 157l30 31z" />
    <glyph glyph-name="ellipsis" unicode="&#x2026;" horiz-adv-x="480" 
d="M63.5 47q8.5 -8 8.5 -19t-8.5 -19.5t-19.5 -8.5t-19 8.5t-8 19.5t8 19t19 8t19.5 -8zM240.5 47q8.5 -8 8.5 -19t-8.5 -19.5t-19.5 -8.5t-19 8.5t-8 19.5t8 19t19 8t19.5 -8zM420.5 47q8.5 -8 8.5 -19t-8.5 -19.5t-19.5 -8.5t-19 8.5t-8 19.5t8 19t19 8t19.5 -8z" />
    <glyph glyph-name="perthousand" unicode="&#x2030;" horiz-adv-x="1047" 
d="M111 1l-28 33l560 706l33 -33zM298 707.5q33 -19.5 52.5 -52.5t19.5 -72t-19.5 -72t-52.5 -52.5t-72 -19.5t-72 19.5t-52.5 52.5t-19.5 72t19.5 72t52.5 52.5t72 19.5t72 -19.5zM151.5 511q28.5 -31 74.5 -31t74.5 31t28.5 72t-28.5 72t-74.5 31t-74.5 -31t-28.5 -72
t28.5 -72zM609 257.5q33 -19.5 52.5 -52.5t19.5 -72t-19.5 -72t-52.5 -52.5t-72 -19.5t-72 19.5t-52.5 52.5t-19.5 72t19.5 72t52.5 52.5t72 19.5t72 -19.5zM940 257.5q33 -19.5 52.5 -52.5t19.5 -72t-19.5 -72t-52.5 -52.5t-72 -19.5t-72 19.5t-52.5 52.5t-19.5 72t19.5 72
t52.5 52.5t72 19.5t72 -19.5zM462 61q28 -31 75 -31t75 31t28 72t-28.5 72t-74.5 31t-74.5 -31t-28.5 -72t28 -72zM793 61q28 -31 75 -31t75 31t28 72t-28.5 72t-74.5 31t-74.5 -31t-28.5 -72t28 -72z" />
    <glyph glyph-name="questiondown" unicode="&#xbf;" horiz-adv-x="468" 
d="M248.5 662q-8.5 8 -8.5 19t8.5 19.5t19.5 8.5t19.5 -8.5t8.5 -19.5t-8.5 -19t-19.5 -8t-19.5 8zM413 88.5q-20 -40.5 -60.5 -64.5t-97.5 -24q-49 0 -89.5 24t-63.5 64t-23 87q0 60 37 113q20 29 58 67q26 25 40 44t23.5 50t9.5 80v61h41v-85q0 -44 -11.5 -76.5
t-28.5 -54.5t-45 -51q-34 -36 -44 -51q-33 -47 -33 -98q0 -55 36.5 -93t92.5 -38q57 0 95 34.5t38 99.5h45q0 -48 -20 -88.5z" />
    <glyph glyph-name="grave" unicode="`" horiz-adv-x="222" 
d="M118 587l-67 99q-5 7 -5 15q0 11 7.5 19t20.5 8q19 0 28 -20l53 -121h-37z" />
    <glyph glyph-name="acute" unicode="&#xb4;" horiz-adv-x="222" 
d="M127 729q13 0 20.5 -8.5t7.5 -19.5q0 -8 -5 -15l-68 -98h-36l52 121q9 20 29 20z" />
    <glyph glyph-name="circumflex" unicode="&#x2c6;" horiz-adv-x="403" 
d="M336 630l-32 -32l-111 111l-116 -111l-31 32l148 141z" />
    <glyph glyph-name="tilde" unicode="&#x2dc;" horiz-adv-x="443" 
d="M173 702q18 0 33.5 -5t43.5 -16q25 -10 40 -15t30 -5q37 0 68 34l20 -33q-43 -47 -88 -47q-17 0 -33.5 5.5t-40.5 16.5q-27 11 -41.5 16t-30.5 5q-39 0 -75 -39l-21 32q46 51 95 51z" />
    <glyph glyph-name="macron" unicode="&#xaf;" horiz-adv-x="334" 
d="M299 631h-221v46h221v-46z" />
    <glyph glyph-name="breve" unicode="&#x2d8;" horiz-adv-x="339" 
d="M84 695q0 -30 21.5 -53t53.5 -23t53.5 23t21.5 53v5h38v-5q0 -46 -33 -79.5t-80 -33.5q-46 0 -79.5 33.5t-33.5 79.5v5h38v-5z" />
    <glyph glyph-name="dotaccent" unicode="&#x2d9;" horiz-adv-x="63" 
d="M12.5 702q8.5 8 19.5 8t19 -8t8 -19t-8 -19.5t-19 -8.5t-19.5 8.5t-8.5 19.5t8.5 19z" />
    <glyph glyph-name="ring" unicode="&#x2da;" horiz-adv-x="458" 
d="M31.5 742q33.5 33 79.5 33q47 0 80 -33t33 -80q0 -46 -33 -79.5t-80 -33.5q-46 0 -79.5 33.5t-33.5 79.5q0 47 33.5 80zM58 609q22 -22 53 -22q32 0 53.5 22t21.5 53q0 32 -21.5 53.5t-53.5 21.5q-31 0 -53 -21.5t-22 -53.5q0 -31 22 -53z" />
    <glyph glyph-name="cedilla" unicode="&#xb8;" horiz-adv-x="410" 
d="M168 -55q14 8 40 8q34 0 59 -19t25 -55q0 -48 -37 -68.5t-87 -20.5q-40 0 -92 19l20 43q23 -15 40.5 -19.5t38.5 -4.5q30 0 52.5 13t22.5 38q0 19 -14 31t-37 12q-16 0 -37 -8l-36 -15l-14 23l61 78h35z" />
    <glyph glyph-name="hungarumlaut" unicode="&#x2dd;" horiz-adv-x="453" 
d="M79 709q13 0 20.5 -8.5t7.5 -19.5q0 -8 -5 -15l-68 -98h-36l52 121q9 20 29 20zM191 709q13 0 20.5 -8.5t7.5 -19.5q0 -8 -5 -15l-68 -98h-36l52 121q9 20 29 20z" />
    <glyph glyph-name="ogonek" unicode="&#x2db;" horiz-adv-x="383" 
d="M141.5 -70q-24.5 -30 -24.5 -55q0 -20 13.5 -33t35.5 -13q24 0 39 10t29 32l31 -31q-18 -28 -41 -39t-56 -11q-31 0 -61.5 18t-30.5 65q0 67 96 130h48q-54 -43 -78.5 -73z" />
    <glyph glyph-name="caron" unicode="&#x2c7;" horiz-adv-x="395" 
d="M193 653l112 111l31 -32l-142 -141l-148 141l31 32z" />
    <glyph glyph-name="ordfeminine" unicode="&#xaa;" horiz-adv-x="382" 
d="M284.5 691q36.5 -18 49.5 -51t13 -85v-164q-82 -12 -117 -12q-72 0 -112 31.5t-40 108.5q0 51 27 81.5t74 30.5q57 0 126 -46q0 43 -30 65.5t-97 23.5l3 35q67 0 103.5 -18zM242 577.5q-33 13.5 -61 13.5q-29 0 -46.5 -18.5t-17.5 -59.5q0 -47 28.5 -72t82.5 -25
q29 0 77 10v118q-30 20 -63 33.5z" />
    <glyph glyph-name="Lslash" unicode="&#x141;" horiz-adv-x="597" 
d="M246 433l123 56l18 -40l-141 -64v-344h316v-41h-361v365l-106 -47l-17 40l123 55v287h45v-267z" />
    <glyph glyph-name="lslash" unicode="&#x142;" horiz-adv-x="422" 
d="M255 437l114 52l18 -40l-132 -60v-389h-45v369l-115 -51l-17 40l132 59v241l-72 2v40h117v-263z" />
    <glyph glyph-name="uni00B5" unicode="&#xb5;" horiz-adv-x="477" 
d="M83 101q7 -9 29.5 -25.5t59 -31t79.5 -14.5q50 0 85 25.5t35 92.5v352l46 10v-443q0 -7 5.5 -21.5t20.5 -22.5l-22 -28q-8 0 -21 10.5t-20 29.5q-41 -47 -125 -47q-57 0 -95.5 16t-56 28t-20.5 14v-254l-46 7v702h46v-400z" />
    <glyph glyph-name="trademark" unicode="&#x2122;" horiz-adv-x="604" 
d="M385 574l48 126h54v-188h-38v134l-50 -134h-28l-50 134v-134h-39v150h-60v-150h-40v150h-67v38h221z" />
    <glyph glyph-name="plusminus" unicode="&#xb1;" horiz-adv-x="437" 
d="M221 545h44v-132h137v-44h-137v-88h133v-44h-320v44h143v88h-139v44h139v132z" />
    <glyph glyph-name="divide" unicode="&#xf7;" horiz-adv-x="432" 
d="M259.5 526q8.5 -8 8.5 -19t-8.5 -19.5t-19.5 -8.5t-19 8.5t-8 19.5t8 19t19 8t19.5 -8zM397 364h-319v44h319v-44zM259.5 280q8.5 -8 8.5 -19t-8.5 -19.5t-19.5 -8.5t-19 8.5t-8 19.5t8 19t19 8t19.5 -8z" />
    <glyph glyph-name="degree" unicode="&#xb0;" horiz-adv-x="401" 
d="M294 689.5q33 -19.5 52.5 -52.5t19.5 -72t-19.5 -72t-52.5 -52.5t-72 -19.5t-72 19.5t-52.5 52.5t-19.5 72t19.5 72t52.5 52.5t72 19.5t72 -19.5zM147 493q28 -31 75 -31t75 31t28 72t-28.5 72t-74.5 31t-74.5 -31t-28.5 -72t28 -72z" />
    <glyph glyph-name="registered" unicode="&#xae;" horiz-adv-x="800" 
d="M75 438q50 85 136 134t190 49q103 0 188.5 -49t135 -134t49.5 -189q0 -105 -50.5 -191t-136 -135.5t-186.5 -49.5q-102 0 -188 49.5t-137 135.5t-51 191q0 104 50 189zM116.5 77q44.5 -76 120 -118t164.5 -42t164 42.5t119 118.5t44 171q0 91 -44 166t-119 118.5
t-164 43.5q-90 0 -165.5 -42t-119.5 -117t-44 -169q0 -96 44.5 -172zM538 442q39 -34 39 -90q0 -53 -31.5 -83t-82.5 -36l124 -194h-54l-120 190h-104v-190h-45v437h164q71 0 110 -34zM408 272q55 0 89.5 15.5t34.5 66.5q0 44 -34 62.5t-78 18.5h-111v-163h99z" />
    <glyph glyph-name="multiply" unicode="&#xd7;" horiz-adv-x="390" 
d="M217 366l105 127l33 -28l-110 -133l109 -131l-34 -29l-104 125l-104 -126l-33 30l109 131l-110 133l33 28z" />
    <glyph glyph-name="copyright" unicode="&#xa9;" horiz-adv-x="800" 
d="M75 438q50 85 136 134t190 49q103 0 188.5 -49t135 -134t49.5 -189q0 -105 -50.5 -191t-136 -135.5t-186.5 -49.5q-102 0 -188 49.5t-137 135.5t-51 191q0 104 50 189zM117 77q45 -76 120 -118t164 -42q87 0 162 42.5t120 118.5t45 171q0 90 -44 165.5t-119.5 119
t-163.5 43.5q-89 0 -164.5 -42t-120 -117t-44.5 -169q0 -96 45 -172zM500 398.5q-39 32.5 -96 32.5q-82 0 -123 -53.5t-41 -128.5q0 -78 42 -132.5t123 -54.5q56 0 96 33.5t47 79.5h51q-16 -72 -70 -115.5t-124 -43.5q-66 0 -114.5 30t-74 82.5t-25.5 118.5q0 62 25 114.5
t73 84.5t114 32q73 0 128 -43t67 -112h-50q-9 43 -48 75.5z" />
    <glyph glyph-name="uni2206" unicode="&#x2206;" horiz-adv-x="618" 
d="M583 0h-505l229 700h43zM522 41l-194 590l-190 -590h384z" />
    <glyph glyph-name="uni2126" unicode="&#x2126;" horiz-adv-x="627" 
d="M532 651q47 -56 47 -148v-307q0 -59 -22.5 -94t-65.5 -60h86l15 -42h-228v42q73 9 122 41.5t49 112.5v314q0 76 -39.5 116t-104.5 40h-112q-64 0 -103.5 -40.5t-39.5 -115.5v-314q0 -81 48.5 -113t121.5 -41v-42h-228l14 42h84q-43 23 -64 59.5t-21 94.5v307q0 92 47 148
t141 56h112q94 0 141 -56z" />
    <glyph glyph-name="pi" unicode="&#x3c0;" horiz-adv-x="532" 
d="M445 71q0 -6 6 -21.5t21 -24.5l-22 -28q0 -2 -14 7t-25.5 27.5t-11.5 47.5l1 383h-289v-462h-45v501h379v-430z" />
    <glyph glyph-name="uni00AD" unicode="&#xad;" horiz-adv-x="410" 
d="M365 369h-320v44h320v-44z" />
    <glyph glyph-name="Epsilontonos" unicode="&#x388;" horiz-adv-x="614" 
d="M159 709q13 0 20.5 -8.5t7.5 -19.5q0 -8 -5 -15l-68 -98h-36l52 121q9 20 29 20zM579 658h-289v-245h202l-15 -44h-187v-328h287v-41h-332v700h334v-42z" />
    <glyph glyph-name="Etatonos" unicode="&#x389;" horiz-adv-x="712" 
d="M159 709q13 0 20.5 -8.5t7.5 -19.5q0 -8 -5 -15l-68 -98h-36l52 121q9 20 29 20zM292 413h340v287h45v-700h-45v369h-340v-369h-45v700h45v-287z" />
    <glyph glyph-name="Iotatonos" unicode="&#x38a;" horiz-adv-x="386" 
d="M159 709q13 0 20.5 -8.5t7.5 -19.5q0 -8 -5 -15l-68 -98h-36l52 121q9 20 29 20zM351 0h-45v658l-72 2v40h117v-700z" />
    <glyph glyph-name="Omicrontonos" unicode="&#x38c;" horiz-adv-x="650" 
d="M251.5 663q56.5 53 155.5 53t153.5 -56t54.5 -154v-321q0 -101 -61.5 -148.5t-147.5 -47.5q-54 0 -102 19.5t-78.5 63.5t-30.5 113v322q0 103 56.5 156zM159 709q13 0 20.5 -8.5t7.5 -19.5q0 -8 -5 -15l-68 -98h-36l52 121q9 20 29 20zM287.5 70.5
q47.5 -38.5 117.5 -38.5q72 0 119 37.5t47 116.5v328q0 77 -44.5 118t-121.5 41t-121 -41t-44 -118v-329q0 -76 47.5 -114.5z" />
    <glyph glyph-name="Upsilontonos" unicode="&#x38e;" horiz-adv-x="719" 
d="M159 709q13 0 20.5 -8.5t7.5 -19.5q0 -8 -5 -15l-68 -98h-36l52 121q9 20 29 20zM286 447q0 -76 49 -117t135 -41q65 0 112 29.5t57 82.5v299h46v-547q0 -70 -26.5 -110.5t-78.5 -49.5l-11 31q30 11 50 37.5t20 90.5v156q-27 -32 -76 -47.5t-93 -15.5q-106 0 -167.5 52.5
t-61.5 155.5v247h45v-253z" />
    <glyph glyph-name="Omegatonos" unicode="&#x38f;" horiz-adv-x="721" 
d="M159 709q13 0 20.5 -8.5t7.5 -19.5q0 -8 -5 -15l-68 -98h-36l52 121q9 20 29 20zM626 651q47 -56 47 -148v-307q0 -59 -22.5 -94t-65.5 -60h86l15 -42h-228v42q73 9 122 41.5t49 112.5v314q0 76 -39.5 116t-104.5 40h-112q-64 0 -103.5 -40.5t-39.5 -115.5v-314
q0 -81 48.5 -113t121.5 -41v-42h-228l14 42h84q-43 23 -64 59.5t-21 94.5v307q0 92 47 148t141 56h112q94 0 141 -56z" />
    <glyph glyph-name="iotatonos" unicode="&#x3af;" horiz-adv-x="228" 
d="M166 679q13 0 20.5 -8.5t7.5 -19.5q0 -8 -5 -15l-68 -98h-36l52 121q9 20 29 20zM126 0h-45v501h45v-501z" />
    <glyph glyph-name="etatonos" unicode="&#x3ae;" horiz-adv-x="482" 
d="M330 679q13 0 20.5 -8.5t7.5 -19.5q0 -8 -5 -15l-68 -98h-36l52 121q9 20 29 20zM123 474q27 17 63.5 26t75.5 9q61 0 100 -19q85 -39 85 -144v-557l-44 20v535q0 65 -40 95t-101 30q-35 0 -72 -9.5t-67 -25.5v-434h-45v501h45v-27z" />
    <glyph glyph-name="epsilontonos" unicode="&#x3ad;" horiz-adv-x="458" 
d="M306 679q13 0 20.5 -8.5t7.5 -19.5q0 -8 -5 -15l-68 -98h-36l52 121q9 20 29 20zM260 469q-50 0 -82.5 -20t-32.5 -64q0 -32 20.5 -58t59.5 -26h127l-15 -44h-102q-49 0 -80.5 -28t-31.5 -79q0 -56 35 -87t99 -31q36 0 70 7.5t55.5 15t27.5 10.5l13 -41q-6 -3 -30 -11
t-61.5 -15.5t-78.5 -7.5q-77 0 -123 40.5t-51 101.5l-1 19q0 99 81 130q-24 9 -42 39t-18 67q0 12 1 19q8 54 52 79.5t106 25.5q52 0 95 -15v-42q-43 15 -93 15z" />
    <glyph glyph-name="omegatonos" unicode="&#x3ce;" horiz-adv-x="645" 
d="M404 679q13 0 20.5 -8.5t7.5 -19.5q0 -8 -5 -15l-68 -98h-36l52 121q9 20 29 20zM147 416.5q-24 -36.5 -24 -92.5v-145q0 -79 33.5 -113.5t79.5 -34.5q42 0 62.5 28t22.5 85v155h46v-155q1 -57 21.5 -85t63.5 -28q46 0 79.5 34t33.5 114v145q0 56 -24 92.5t-65 46.5
l27 37q53 -20 80 -67.5t27 -115.5v-129q0 -200 -161 -200q-31 0 -59.5 14t-45.5 42q-17 -28 -46 -42t-59 -14q-161 0 -161 200v129q0 68 27 115.5t80 67.5l26 -36q-40 -11 -64 -47.5z" />
    <glyph glyph-name="upsilontonos" unicode="&#x3cd;" horiz-adv-x="493" 
d="M330 679q13 0 20.5 -8.5t7.5 -19.5q0 -8 -5 -15l-68 -98h-36l52 121q9 20 29 20zM123 165q0 -72 39.5 -103t103.5 -31q66 0 106.5 31t40.5 103v336h45v-329q0 -182 -192 -182q-188 0 -188 182v329h45v-336z" />
    <glyph glyph-name="omicrontonos" unicode="&#x3cc;" 
d="M320 679q13 0 20.5 -8.5t7.5 -19.5q0 -8 -5 -15l-68 -98h-36l52 121q9 20 29 20zM126.5 461.5q48.5 50.5 139.5 50.5q87 0 136 -52.5t49 -143.5v-132q0 -84 -46 -139t-139 -55t-140.5 55.5t-47.5 138.5v132q0 95 48.5 145.5zM160.5 71.5q37.5 -41.5 105.5 -41.5t104 41
t36 106v140q0 78 -38.5 116t-101.5 38q-65 0 -104 -37.5t-39 -116.5v-140q0 -64 37.5 -105.5z" />
    <glyph glyph-name="alphatonos" unicode="&#x3ac;" horiz-adv-x="505" 
d="M318 679q13 0 20.5 -8.5t7.5 -19.5q0 -8 -5 -15l-68 -98h-36l52 121q9 20 29 20zM446 448q-3 -29 -3 -49v-338q0 -3 7 -14t20 -19l-21 -26q-6 0 -17.5 1.5t-19.5 0.5l-21 -2q-11 -1 -46.5 -4t-64.5 -3q-95 0 -148.5 37.5t-53.5 136.5v185q0 81 41 117.5t108 36.5
q41 0 86 -12.5t85 -32.5l16 40l36 -17q-1 -9 -4 -38zM161.5 63.5q39.5 -28.5 118.5 -28.5q41 0 118 9v377q-99 45 -169 45q-107 0 -107 -115v-189q0 -70 39.5 -98.5z" />
    <glyph glyph-name="iotadieresis" unicode="&#x3ca;" horiz-adv-x="149" 
d="M14.5 595.5q8.5 -8.5 8.5 -19.5t-8.5 -19t-19.5 -8t-19.5 8t-8.5 19t8.5 19.5t19.5 8.5t19.5 -8.5zM172.5 596q8.5 -8 8.5 -19t-8.5 -19.5t-19.5 -8.5t-19 8.5t-8 19.5t8 19t19 8t19.5 -8zM96 0h-45v501h45v-501z" />
    <glyph glyph-name="upsilondieresis" unicode="&#x3cb;" horiz-adv-x="493" 
d="M210.5 595.5q8.5 -8.5 8.5 -19.5t-8.5 -19t-19.5 -8t-19.5 8t-8.5 19t8.5 19.5t19.5 8.5t19.5 -8.5zM368.5 596q8.5 -8 8.5 -19t-8.5 -19.5t-19.5 -8.5t-19 8.5t-8 19.5t8 19t19 8t19.5 -8zM123 165q0 -72 39.5 -103t103.5 -31q66 0 106.5 31t40.5 103v336h45v-329
q0 -182 -192 -182q-188 0 -188 182v329h45v-336z" />
    <glyph glyph-name="Iotadieresis" unicode="&#x3aa;" horiz-adv-x="219" 
d="M82.5 787.5q8.5 -8.5 8.5 -19.5t-8.5 -19t-19.5 -8t-19.5 8t-8.5 19t8.5 19.5t19.5 8.5t19.5 -8.5zM240.5 788q8.5 -8 8.5 -19t-8.5 -19.5t-19.5 -8.5t-19 8.5t-8 19.5t8 19t19 8t19.5 -8zM164 0h-45v658l-72 2v40h117v-700z" />
    <glyph glyph-name="Psi" unicode="&#x3a8;" horiz-adv-x="630" 
d="M89 399q0 -74 39 -110t104 -36h50v447h46v-447h55q67 0 105 37.5t38 108.5v165q0 43 -6.5 67.5t-14.5 35t-27 29.5l37 13q27 -17 39 -41.5t14.5 -50.5t2.5 -68v-143q0 -91 -46.5 -142.5t-141.5 -51.5h-55v-212h-46v212h-50q-95 0 -141.5 51.5t-46.5 142.5v294h45v-301z
" />
    <glyph glyph-name="psi" unicode="&#x3c8;" horiz-adv-x="641" 
d="M123 182q0 -75 40 -110.5t103 -35.5h50v464h46v-464h55q64 0 103.5 35.5t39.5 111.5v178q0 41 -5.5 65t-15 37.5t-26.5 28.5l36 14q27 -17 39 -41.5t14.5 -50.5t2.5 -68v-157q0 -91 -46.5 -142.5t-141.5 -51.5h-55v-214l-46 11v203h-50q-95 0 -141.5 51.5t-46.5 142.5
v311h45v-318z" />
    <glyph glyph-name="omega" unicode="&#x3c9;" horiz-adv-x="676" 
d="M135 416.5q-24 -36.5 -24 -92.5v-145q0 -79 33.5 -113.5t79.5 -34.5q42 0 62.5 28t22.5 85v155h46v-155q1 -57 21.5 -85t63.5 -28q46 0 79.5 34t33.5 114v145q0 56 -24 92.5t-65 46.5l27 37q53 -20 80 -67.5t27 -115.5v-129q0 -200 -161 -200q-31 0 -59.5 14t-45.5 42
q-17 -28 -46 -42t-59 -14q-161 0 -161 200v129q0 68 27 115.5t80 67.5l26 -36q-40 -11 -64 -47.5z" />
    <glyph glyph-name="chi" unicode="&#x3c7;" horiz-adv-x="568" 
d="M277 202l154 299h50l-179 -349l122 -251q16 -34 33.5 -50t32 -20.5t43.5 -9.5l-23 -33q-44 -1 -73.5 25.5t-53.5 73.5l-106 217l-157 -307l-42 17l174 339l-170 348h50z" />
    <glyph glyph-name="Chi" unicode="&#x3a7;" horiz-adv-x="620" 
d="M332 399l185 301h52l-210 -344l226 -355l-55 -1l-198 310l-198 -310h-56l227 356l-208 344h50z" />
    <glyph glyph-name="phi" unicode="&#x3c6;" horiz-adv-x="640" 
d="M148.5 418q-25.5 -38 -25.5 -103v-136q0 -71 39.5 -107.5t103.5 -36.5h50v367q2 48 29 76.5t74 28.5q87 0 136.5 -54.5t49.5 -145.5v-118q0 -91 -46.5 -142.5t-141.5 -51.5h-55v-210l-46 11v199h-50q-95 0 -141.5 51.5t-46.5 142.5v125q0 74 29.5 122.5t86.5 66.5l24 -36
q-44 -11 -69.5 -49zM417 35q67 0 105 37.5t38 108.5v136q0 52 -21.5 85t-52.5 48t-60 15q-35 0 -49.5 -20.5t-14.5 -50.5v-359h55z" />
    <glyph glyph-name="upsilon" unicode="&#x3c5;" horiz-adv-x="515" 
d="M111 165q0 -72 39.5 -103t103.5 -31q66 0 106.5 31t40.5 103v336h45v-329q0 -182 -192 -182q-188 0 -188 182v329h45v-336z" />
    <glyph glyph-name="Upsilon" unicode="&#x3a5;" horiz-adv-x="555" 
d="M105 447q0 -76 49 -117t135 -41q65 0 112 29.5t57 82.5v299h46v-547q0 -70 -26.5 -110.5t-78.5 -49.5l-11 31q30 11 50 37.5t20 90.5v156q-27 -32 -76 -47.5t-93 -15.5q-106 0 -167.5 52.5t-61.5 155.5v247h45v-253z" />
    <glyph glyph-name="Tau" unicode="&#x3a4;" horiz-adv-x="515" 
d="M480 659h-181v-659h-45v659h-176v41h402v-41z" />
    <glyph glyph-name="tau" unicode="&#x3c4;" horiz-adv-x="414" 
d="M379 457h-130v-325q0 -48 16 -73t52 -37l-13 -35q-55 16 -77.5 50.5t-22.5 94.5v325h-126v43h301v-43z" />
    <glyph glyph-name="Sigma" unicode="&#x3a3;" horiz-adv-x="581" 
d="M507 658h-331l182 -272l-205 -344h240q92 0 117 77l36 -13q-16 -56 -51 -81t-94 -25h-323l226 384l-210 316h428z" />
    <glyph glyph-name="sigma" unicode="&#x3c3;" horiz-adv-x="526" 
d="M125.5 471q47.5 36 121.5 36q26 0 39 -2q40 -5 62 -5q33 0 58 9.5t52 33.5l33 -13q-33 -57 -98 -69q27 -18 42.5 -58.5t15.5 -92.5v-135q0 -194 -185 -194q-95 0 -141.5 51.5t-46.5 142.5v179q0 81 47.5 117zM161.5 58q38.5 -36 104.5 -36q141 0 141 146v142
q0 47 -14 79.5t-30 49.5t-22 18q-55 11 -89 11q-129 0 -129 -117v-183q0 -74 38.5 -110z" />
    <glyph glyph-name="uni03C2" unicode="&#x3c2;" horiz-adv-x="409" 
d="M94.5 430.5q16.5 31.5 55 53t100.5 21.5q32 0 56.5 -6t38.5 -12.5t17 -8.5l-16 -37q-3 2 -14 7.5t-32 11t-47 5.5q-52 0 -91 -25t-39 -73v-127q0 -46 17 -78.5t54.5 -63t110.5 -74.5q34 -21 51.5 -50.5t17.5 -61.5q0 -31 -17 -59l-35 22q10 17 10 35q0 21 -11 41.5
t-33 34.5l-31 20q-61 38 -96.5 65.5t-59 65.5t-23.5 90v140q0 32 16.5 63.5z" />
    <glyph glyph-name="Rho" unicode="&#x3a1;" horiz-adv-x="547" 
d="M465.5 642q46.5 -58 46.5 -156q0 -60 -11.5 -109t-53 -85t-122.5 -36h-202v-256h-45v700h246q95 0 141.5 -58zM325 300q63 0 94.5 31t39.5 70t8 85q0 83 -36 127t-104 44h-204v-357h202z" />
    <glyph glyph-name="rho" unicode="&#x3c1;" 
d="M403.5 36.5q-47.5 -46.5 -139.5 -46.5q-95 0 -143 65v-253l-43 -13v526q0 89 48.5 140.5t135.5 51.5q97 0 143 -53t46 -148v-134q0 -89 -47.5 -135.5zM162.5 64.5q39.5 -34.5 101.5 -34.5q63 0 102.5 32t39.5 105v143q0 155 -145 155q-59 0 -98.5 -35.5t-39.5 -115.5
v-148q0 -67 39.5 -101.5z" />
    <glyph glyph-name="Pi" unicode="&#x3a0;" horiz-adv-x="588" 
d="M510 0h-45v655h-340v-655h-45v700h430v-700z" />
    <glyph glyph-name="Omicron" unicode="&#x39f;" horiz-adv-x="521" 
d="M118.5 663q56.5 53 155.5 53t153.5 -56t54.5 -154v-321q0 -101 -61.5 -148.5t-147.5 -47.5q-54 0 -102 19.5t-78.5 63.5t-30.5 113v322q0 103 56.5 156zM154.5 70.5q47.5 -38.5 117.5 -38.5q72 0 119 37.5t47 116.5v328q0 77 -44.5 118t-121.5 41t-121 -41t-44 -118v-329
q0 -76 47.5 -114.5z" />
    <glyph glyph-name="omicron" unicode="&#x3bf;" 
d="M126.5 461.5q48.5 50.5 139.5 50.5q87 0 136 -52.5t49 -143.5v-132q0 -84 -46 -139t-139 -55t-140.5 55.5t-47.5 138.5v132q0 95 48.5 145.5zM160.5 71.5q37.5 -41.5 105.5 -41.5t104 41t36 106v140q0 78 -38.5 116t-101.5 38q-65 0 -104 -37.5t-39 -116.5v-140
q0 -64 37.5 -105.5z" />
    <glyph glyph-name="xi" unicode="&#x3be;" horiz-adv-x="415" 
d="M327 667h-34q-29 0 -46 -19t-17 -46q0 -24 14 -46t40 -35q21 -9 74 -27l-13 -37q-43 15 -86 15q-59 0 -98 -30.5t-39 -96.5v-186q0 -62 40 -90.5t105 -28.5q56 0 113 17v-254l-44 -21v221q-44 -7 -72 -7q-84 0 -135 41.5t-51 126.5v184q0 47 20.5 83.5t54.5 57.5t72 25
q-20 15 -30.5 38.5t-10.5 48.5q0 44 30.5 75.5t86.5 31.5h44z" />
    <glyph glyph-name="Xi" unicode="&#x39e;" horiz-adv-x="622" 
d="M531 658h-308q-84 0 -110 -76l-35 13q16 56 51 80.5t94 24.5h325zM469 369h-264v44h264v-44zM551 119l36 -13q-16 -56 -51 -81t-94 -25h-325l17 42h308q83 0 109 77z" />
    <glyph glyph-name="Nu" unicode="&#x39d;" horiz-adv-x="641" 
d="M528 82v618h44v-700h-44l-403 619v-619h-45v700h45z" />
    <glyph glyph-name="nu" unicode="&#x3bd;" horiz-adv-x="498" 
d="M270 52l146 449h47l-164 -501h-58l-163 501h47z" />
    <glyph glyph-name="Mu" unicode="&#x39c;" horiz-adv-x="695" 
d="M347 69l224 631h45v-700h-45v569l-200 -569h-48l-198 569v-569h-45v700h45z" />
    <glyph glyph-name="Lambda" unicode="&#x39b;" horiz-adv-x="533" 
d="M517 0h-48l-207 630l-203 -630h-47l229 700h43z" />
    <glyph glyph-name="lambda" unicode="&#x3bb;" horiz-adv-x="576" 
d="M258 676.5q33 -24.5 53 -83.5l142 -469q13 -40 27 -60.5t24.5 -27.5t36.5 -20l-30 -26q-43 13 -62.5 42t-36.5 82l-106 352q-34 -18 -49.5 -41.5t-26.5 -63.5l-106 -361h-46l108 372q18 54 38 78t40.5 38t26.5 19l-22 71q-15 45 -41 64.5t-64 21.5v36q61 1 94 -23.5z" />
    <glyph glyph-name="kappa" unicode="&#x3ba;" horiz-adv-x="482" 
d="M123 253l227 248h60l-189 -206l127 -179q57 -77 98 -77l2 -40q-44 1 -76 28t-70 79l-112 155l-67 -69v-192h-45v512l45 -11v-248z" />
    <glyph glyph-name="Kappa" unicode="&#x39a;" horiz-adv-x="510" 
d="M123 349l248 352h52l-209 -297l261 -404h-53l-236 362l-63 -90v-272h-45v701h45v-352z" />
    <glyph glyph-name="Iota" unicode="&#x399;" horiz-adv-x="299" 
d="M197 0h-45v658l-72 2v40h117v-700z" />
    <glyph glyph-name="iota" unicode="&#x3b9;" horiz-adv-x="141" 
d="M99 0h-45v501h45v-501z" />
    <glyph glyph-name="theta" unicode="&#x3b8;" horiz-adv-x="481" 
d="M116 437q-34 59 -34 118q0 68 44.5 111.5t123.5 43.5q95 -2 143.5 -56t48.5 -149v-314q0 -89 -49.5 -143t-140.5 -54q-92 1 -141 54.5t-49 142.5v143q2 66 54 103zM257.5 495q56.5 12 109.5 12q21 0 30 -1q0 83 -40.5 122t-105.5 39q-60 0 -91 -31t-31 -81q0 -47 27 -97
q45 25 101.5 37zM148 77q41 -40 104 -40q62 0 103.5 40.5t41.5 107.5v277q-8 1 -26 1q-54 0 -116 -14.5t-105 -43.5t-43 -71v-146q0 -71 41 -111z" />
    <glyph glyph-name="Theta" unicode="&#x398;" horiz-adv-x="533" 
d="M134.5 663q56.5 53 155.5 53t153.5 -56t54.5 -154v-321q0 -101 -61.5 -148.5t-147.5 -47.5q-54 0 -102 19.5t-78.5 63.5t-30.5 113v322q0 103 56.5 156zM454 361v153q0 77 -44.5 118t-121.5 41t-121 -41t-44 -118v-153h331zM407 69.5q47 37.5 47 116.5v130h-331v-131
q0 -76 47.5 -114.5t117.5 -38.5q72 0 119 37.5z" />
    <glyph glyph-name="Eta" unicode="&#x397;" horiz-adv-x="576" 
d="M125 413h340v287h45v-700h-45v369h-340v-369h-45v700h45v-287z" />
    <glyph glyph-name="eta" unicode="&#x3b7;" horiz-adv-x="482" 
d="M123 474q27 17 63.5 26t75.5 9q61 0 100 -19q85 -39 85 -144v-557l-44 20v535q0 65 -40 95t-101 30q-35 0 -72 -9.5t-67 -25.5v-434h-45v501h45v-27z" />
    <glyph glyph-name="zeta" unicode="&#x3b6;" horiz-adv-x="466" 
d="M431 660q-59 -47 -133.5 -132t-122.5 -171q-23 -41 -37 -87.5t-14 -88.5q0 -70 40 -104q41 -35 114 -35q55 0 129 20v-250l-45 -21v218q-50 -11 -88 -11q-82 0 -132.5 39t-60.5 101q-3 18 -3 38q0 40 9.5 82.5t26.5 77.5q74 155 252 325h-220v39h272z" />
    <glyph glyph-name="Zeta" unicode="&#x396;" horiz-adv-x="600" 
d="M559 659l-424 -618h430v-41h-487v41l424 618h-411v41h468v-41z" />
    <glyph glyph-name="Epsilon" unicode="&#x395;" horiz-adv-x="447" 
d="M412 658h-289v-245h202l-15 -44h-187v-328h287v-41h-332v700h334v-42z" />
    <glyph glyph-name="epsilon" unicode="&#x3b5;" horiz-adv-x="458" 
d="M260 469q-50 0 -82.5 -20t-32.5 -64q0 -32 20.5 -58t59.5 -26h127l-15 -44h-102q-49 0 -80.5 -28t-31.5 -79q0 -56 35 -87t99 -31q36 0 70 7.5t55.5 15t27.5 10.5l13 -41q-6 -3 -30 -11t-61.5 -15.5t-78.5 -7.5q-77 0 -123 40.5t-51 101.5l-1 19q0 99 81 130
q-24 9 -42 39t-18 67q0 12 1 19q8 54 52 79.5t106 25.5q52 0 95 -15v-42q-43 15 -93 15z" />
    <glyph glyph-name="delta" unicode="&#x3b4;" 
d="M320 664h-33q-29 0 -47 -19t-18 -46q0 -21 12.5 -42t37.5 -36q63 -40 98.5 -68.5t58 -69t22.5 -96.5v-103q0 -194 -185 -194q-95 0 -141.5 51.5t-46.5 142.5v126q0 80 37.5 130.5t104.5 64.5q-21 18 -32 42.5t-11 50.5q0 44 31 75.5t86 31.5h44zM163 66.5
q40 -35.5 103 -35.5t101.5 34t38.5 112v124q0 42 -35 90t-105 81q-66 -6 -104.5 -46t-38.5 -116v-133q0 -75 40 -110.5z" />
    <glyph glyph-name="Gamma" unicode="&#x393;" horiz-adv-x="447" 
d="M412 657h-289v-657h-45v700h334v-43z" />
    <glyph glyph-name="gamma" unicode="&#x3b3;" horiz-adv-x="516" 
d="M173 140q13 -46 30 -70.5t46 -33.5l106 352q16 52 36 81t61 42l31 -27q-4 -2 -23 -11t-34.5 -33t-29.5 -64l-125 -418q-22 -65 -22 -91q0 -21 12 -39l-31 -26q-27 27 -27 70q0 24 9 50l22 73q-28 15 -43.5 26.5t-31.5 37t-30 70.5l-108 372h46z" />
    <glyph glyph-name="beta" unicode="&#x3b2;" horiz-adv-x="483" 
d="M388 18.5q-60 -37.5 -154 -37.5q-54 0 -111 10v-152h-45v698q0 77 34.5 120.5t105.5 43.5q37 0 65 -17.5t43 -45.5t15 -59q0 -24 -10 -46.5t-29 -37.5q65 -8 105.5 -52.5t40.5 -112.5v-184q0 -90 -60 -127.5zM247 507q23 6 35 25.5t12 43.5q0 32 -20.5 56.5t-55.5 24.5
q-94 0 -94 -119v-75q40 21 123 44zM235 21q76 0 122.5 28t46.5 94v184q0 68 -40 98t-102 30q-37 0 -74 -9.5t-64 -23.5v-390q57 -11 111 -11z" />
    <glyph glyph-name="Beta" unicode="&#x392;" horiz-adv-x="546" 
d="M427.5 658q47.5 -42 47.5 -126q0 -38 -16 -74.5t-56 -60.5l-1 -2v-1q47 -20 78 -65.5t31 -119.5q0 -86 -46.5 -147.5t-156.5 -61.5h-230v700h221q81 0 128.5 -42zM308 413q54 0 87.5 31.5t33.5 87.5q0 125 -138 125h-168v-244h185zM306 43q157 0 157 170q0 72 -41 114
t-103 42h-196v-326h183z" />
    <glyph glyph-name="Alpha" unicode="&#x391;" horiz-adv-x="539" 
d="M517 0h-48l-86 256h-240l-84 -256h-47l230 700h42zM371 300l-108 327l-106 -327h214z" />
    <glyph glyph-name="alpha" unicode="&#x3b1;" horiz-adv-x="505" 
d="M446 448q-3 -29 -3 -49v-338q0 -3 7 -14t20 -19l-21 -26q-6 0 -17.5 1.5t-19.5 0.5l-21 -2q-11 -1 -46.5 -4t-64.5 -3q-95 0 -148.5 37.5t-53.5 136.5v185q0 81 41 117.5t108 36.5q41 0 86 -12.5t85 -32.5l16 40l36 -17q-1 -9 -4 -38zM161.5 63.5q39.5 -28.5 118.5 -28.5
q41 0 118 9v377q-99 45 -169 45q-107 0 -107 -115v-189q0 -70 39.5 -98.5z" />
    <glyph glyph-name="upsilondieresistonos" unicode="&#x3b0;" horiz-adv-x="493" 
d="M331 758q13 0 20.5 -8.5t7.5 -19.5q0 -8 -5 -15l-68 -98h-36l52 121q9 20 29 20zM210.5 626q8.5 -8 8.5 -19t-8.5 -19.5t-19.5 -8.5t-19 8.5t-8 19.5t8 19t19 8t19.5 -8zM369.5 626q8.5 -8 8.5 -19t-8.5 -19.5t-19.5 -8.5t-19 8.5t-8 19.5t8 19t19 8t19.5 -8zM123 165
q0 -72 39.5 -103t103.5 -31q66 0 106.5 31t40.5 103v336h45v-329q0 -182 -192 -182q-188 0 -188 182v329h45v-336z" />
    <glyph glyph-name="iotadieresistonos" unicode="&#x390;" horiz-adv-x="251" 
d="M177 757q13 0 20.5 -8.5t7.5 -19.5q0 -8 -5 -15l-68 -98h-36l52 121q9 20 29 20zM61.5 626q8.5 -8 8.5 -19t-8.5 -19.5t-19.5 -8.5t-19 8.5t-8 19.5t8 19t19 8t19.5 -8zM219.5 626q8.5 -8 8.5 -19t-8.5 -19.5t-19.5 -8.5t-19 8.5t-8 19.5t8 19t19 8t19.5 -8zM140 0h-45
v501h45v-501z" />
    <glyph glyph-name="Alphatonos" unicode="&#x386;" horiz-adv-x="618" 
d="M174 709q13 0 20.5 -8.5t7.5 -19.5q0 -8 -5 -15l-68 -98h-36l52 121q9 20 29 20zM583 0h-48l-86 256h-240l-84 -256h-47l230 700h42zM437 300l-108 327l-106 -327h214z" />
    <glyph glyph-name="sterling" unicode="&#xa3;" horiz-adv-x="473" 
d="M134 446.5q-9 35.5 -9 68.5q0 58 25 102t69 68t99 24q69 0 109 -25l-15 -40q-43 24 -94 24q-66 0 -107.5 -43.5t-41.5 -111.5q0 -26 9 -59t30 -96h213v-44h-199q16 -56 16 -93q0 -53 -24 -102t-64 -74h288v-45h-360v39q51 26 82.5 75t31.5 105q1 22 -3.5 43t-13.5 52h-74
v44h59q-17 53 -26 88.5z" />
    <glyph glyph-name="Hcircumflex" unicode="&#x124;" horiz-adv-x="588" 
d="M439 772l-32 -32l-111 111l-116 -111l-31 32l148 141zM123 413h340v287h45v-700h-45v369h-340v-369h-45v700h45v-287z" />
    <glyph glyph-name="Cdotaccent" unicode="&#x10a;" horiz-adv-x="434" 
d="M245.5 789q8.5 8 19.5 8t19 -8t8 -19t-8 -19.5t-19 -8.5t-19.5 8.5t-8.5 19.5t8.5 19zM150.5 70.5q39.5 -39.5 114.5 -39.5q63 0 152 30l10 -38q-89 -33 -166 -33q-87 0 -141 46t-54 147v321q0 76 21.5 115t65.5 66q43 25 107 25q76 0 142 -33l-14 -32q-58 24 -115 24
q-63 0 -112.5 -31.5t-49.5 -124.5v-328q0 -75 39.5 -114.5z" />
    <glyph glyph-name="Ccircumflex" unicode="&#x108;" horiz-adv-x="434" 
d="M421 772l-32 -32l-111 111l-116 -111l-31 32l148 141zM150.5 70.5q39.5 -39.5 114.5 -39.5q63 0 152 30l10 -38q-89 -33 -166 -33q-87 0 -141 46t-54 147v321q0 76 21.5 115t65.5 66q43 25 107 25q76 0 142 -33l-14 -32q-58 24 -115 24q-63 0 -112.5 -31.5t-49.5 -124.5
v-328q0 -75 39.5 -114.5z" />
    <glyph glyph-name="cdotaccent" unicode="&#x10b;" horiz-adv-x="435" 
d="M244.5 597q8.5 8 19.5 8t19 -8t8 -19t-8 -19.5t-19 -8.5t-19.5 8.5t-8.5 19.5t8.5 19zM166 62q44 -33 117 -33q51 0 107 14l10 -37q-62 -16 -120 -16q-54 0 -90 12q-59 20 -85.5 61.5t-26.5 116.5v128q0 99 52 150.5t134 51.5q65 0 134 -32l-13 -35q-58 26 -115 26
q-65 0 -106 -38.5t-41 -116.5v-145q-1 -74 43 -107z" />
    <glyph glyph-name="ccircumflex" unicode="&#x109;" horiz-adv-x="467" 
d="M408 580l-32 -32l-111 111l-116 -111l-31 32l148 141zM166 62q44 -33 117 -33q51 0 107 14l10 -37q-62 -16 -120 -16q-54 0 -90 12q-59 20 -85.5 61.5t-26.5 116.5v128q0 99 52 150.5t134 51.5q65 0 134 -32l-13 -35q-58 26 -115 26q-65 0 -106 -38.5t-41 -116.5v-145
q-1 -74 43 -107z" />
    <glyph glyph-name="Idotaccent" unicode="&#x130;" horiz-adv-x="280" 
d="M153.5 789q8.5 8 19.5 8t19 -8t8 -19t-8 -19.5t-19 -8.5t-19.5 8.5t-8.5 19.5t8.5 19zM195 0h-45v658l-72 2v40h117v-700z" />
    <glyph glyph-name="Hbar" unicode="&#x126;" horiz-adv-x="685" 
d="M127 700h45v-162h340v162h45v-162h48v-44h-48v-494h-45v369h-340v-369h-45v494h-49v44h49v162zM512 494h-340v-81h340v81z" />
    <glyph glyph-name="Gbreve" unicode="&#x11e;" horiz-adv-x="537" 
d="M201 841q0 -30 21.5 -53t53.5 -23t53.5 23t21.5 53v5h38v-5q0 -46 -33 -79.5t-80 -33.5q-46 0 -79.5 33.5t-33.5 79.5v5h38v-5zM156 74.5q46 -41.5 120 -41.5q76 0 116.5 43t40.5 109v71h-79l-16 44h138v-300h-34l-10 55q-49 -65 -156 -65q-56 0 -104 21t-77.5 66
t-29.5 112v314q0 70 22.5 112.5t64.5 68.5q44 25 108 25q78 0 141 -33l-13 -32q-57 24 -111 25q-65 0 -116 -32.5t-51 -129.5v-320q0 -71 46 -112.5z" />
    <glyph glyph-name="Jcircumflex" unicode="&#x134;" horiz-adv-x="260" 
d="M36 841q0 -30 21 -53t54 -23q32 0 53.5 23t21.5 53v5h38v-5q0 -46 -33 -79.5t-80 -33.5q-46 0 -79.5 33.5t-33.5 79.5v5h38v-5zM138 119q0 -74 -30.5 -113.5t-88.5 -42.5l-11 31q35 2 60 30t25 91v543l-72 2v40h117v-581z" />
    <glyph glyph-name="Zdotaccent" unicode="&#x17b;" horiz-adv-x="550" 
d="M267.5 785q8.5 8 19.5 8t19 -8t8 -19t-8 -19.5t-19 -8.5t-19.5 8.5t-8.5 19.5t8.5 19zM512 659l-424 -618h430v-41h-487v41l424 618h-411v41h468v-41z" />
    <glyph glyph-name="hbar" unicode="&#x127;" horiz-adv-x="544" 
d="M140 700h45v-83h127v-44h-127v-99q27 17 63.5 26t75.5 9q61 0 100 -19q85 -39 85 -144v-346h-44v344q0 65 -39.5 95t-100.5 30q-36 0 -73 -9.5t-67 -25.5v-434h-45v573h-62v44h62v83z" />
    <glyph glyph-name="hcircumflex" unicode="&#x125;" horiz-adv-x="579" 
d="M321 775l-32 -32l-111 111l-116 -111l-31 32l148 141zM195 474q27 17 63.5 26t75.5 9q61 0 100 -19q85 -39 85 -144v-346h-44v344q0 65 -39.5 95t-100.5 30q-36 0 -73 -9.5t-67 -25.5v-434h-45v700h45v-226z" />
    <glyph glyph-name="scedilla" unicode="&#x15f;" horiz-adv-x="431" 
d="M299.5 454.5q-12.5 6.5 -33.5 12.5t-47 6q-54 0 -92 -26.5t-33 -76.5q3 -35 35 -53.5t95 -37.5q56 -18 90 -33.5t58 -45t24 -75.5q0 -58 -42 -97.5t-123 -42.5l-29 -40q14 8 40 8q34 0 59 -19t25 -55q0 -48 -37 -68.5t-87 -20.5q-40 0 -92 19l20 43q23 -15 40.5 -19.5
t38.5 -4.5q30 0 52.5 13t22.5 38q0 19 -14 31t-37 12q-16 0 -37 -8l-36 -15l-14 23l50 64q-74 6 -116 46t-44 95h43q6 -47 45.5 -73.5t96.5 -26.5q52 0 91 25t39 72q0 32 -19 53t-46.5 33.5t-74.5 27.5q-50 16 -80.5 29.5t-53.5 37.5t-27 60q-1 5 -1 14q0 33 18 63.5
t56.5 50.5t95.5 20q31 0 56 -6.5t39 -13.5t17 -9l-16 -38q-3 2 -15.5 8.5z" />
    <glyph glyph-name="gbreve" unicode="&#x11f;" horiz-adv-x="490" 
d="M207 645q0 -30 21 -53t54 -23q32 0 53.5 23t21.5 53v5h38v-5q0 -46 -33 -79.5t-80 -33.5q-46 0 -79.5 33.5t-33.5 79.5v5h38v-5zM455 501v-565q0 -60 -25 -94t-82 -52l-12 35q36 14 55 40t19 72v128q-47 -77 -146 -77q-88 0 -137 48t-49 140v149q0 88 52 136.5t139 48.5
q98 0 144 -69l-3 60h45zM160.5 65.5q37.5 -35.5 103.5 -35.5q37 0 70.5 15t54.5 46.5t21 77.5v185q-6 59 -47 87t-97 28t-99.5 -34.5t-43.5 -114.5v-153q0 -66 37.5 -101.5z" />
    <glyph glyph-name="jcircumflex" unicode="&#x135;" horiz-adv-x="403" 
d="M368 580l-32 -32l-111 111l-116 -111l-31 32l148 141zM244 -77q-2 -54 -32.5 -91.5t-85.5 -40.5l-6 35q0 -3 22 6.5t40 34t18 69.5v521l-54 2l-20 42h118v-578z" />
    <glyph glyph-name="zdotaccent" unicode="&#x17c;" horiz-adv-x="480" 
d="M240.5 594q8.5 8 19.5 8t19 -8t8 -19t-8 -19.5t-19 -8.5t-19.5 8.5t-8.5 19.5t8.5 19zM424 460l-291 -419h312v-41h-367v41l289 419h-280v41h337v-41z" />
    <glyph glyph-name="Gdotaccent" unicode="&#x120;" horiz-adv-x="566" 
d="M272.5 788q8.5 8 19.5 8t19 -8t8 -19t-8 -19.5t-19 -8.5t-19.5 8.5t-8.5 19.5t8.5 19zM119 180q0 -47 23.5 -80t61.5 -49.5t81 -16.5q68 0 116.5 38t48.5 108v521h45v-515q0 -101 -61.5 -147t-148.5 -46t-149 46t-62 147v515h45v-521z" />
    <glyph glyph-name="Gcircumflex" unicode="&#x11c;" horiz-adv-x="537" 
d="M424 772l-32 -32l-111 111l-116 -111l-31 32l148 141zM156 74.5q46 -41.5 120 -41.5q76 0 116.5 43t40.5 109v71h-79l-16 44h138v-300h-34l-10 55q-49 -65 -156 -65q-56 0 -104 21t-77.5 66t-29.5 112v314q0 70 22.5 112.5t64.5 68.5q44 25 108 25q78 0 141 -33l-13 -32
q-57 24 -111 25q-65 0 -116 -32.5t-51 -129.5v-320q0 -71 46 -112.5z" />
    <glyph glyph-name="gdotaccent" unicode="&#x121;" horiz-adv-x="490" 
d="M259.5 596q8.5 8 19.5 8t19 -8t8 -19t-8 -19.5t-19 -8.5t-19.5 8.5t-8.5 19.5t8.5 19zM455 501v-565q0 -60 -25 -94t-82 -52l-12 35q36 14 55 40t19 72v128q-47 -77 -146 -77q-88 0 -137 48t-49 140v149q0 88 52 136.5t139 48.5q98 0 144 -69l-3 60h45zM160.5 65.5
q37.5 -35.5 103.5 -35.5q37 0 70.5 15t54.5 46.5t21 77.5v185q-6 59 -47 87t-97 28t-99.5 -34.5t-43.5 -114.5v-153q0 -66 37.5 -101.5z" />
    <glyph glyph-name="gcircumflex" unicode="&#x11d;" horiz-adv-x="491" 
d="M416 580l-32 -32l-111 111l-116 -111l-31 32l148 141zM455 501v-565q0 -60 -25 -94t-82 -52l-12 35q36 14 55 40t19 72v128q-47 -77 -146 -77q-88 0 -137 48t-49 140v149q0 88 52 136.5t139 48.5q98 0 144 -69l-3 60h45zM160.5 65.5q37.5 -35.5 103.5 -35.5q37 0 70.5 15
t54.5 46.5t21 77.5v185q-6 59 -47 87t-97 28t-99.5 -34.5t-43.5 -114.5v-153q0 -66 37.5 -101.5z" />
    <glyph glyph-name="Ubreve" unicode="&#x16c;" horiz-adv-x="566" 
d="M209 837q0 -30 21.5 -53t53.5 -23t53.5 23t21.5 53v5h38v-5q0 -46 -33 -79.5t-80 -33.5q-46 0 -79.5 33.5t-33.5 79.5v5h38v-5zM119 180q0 -47 23.5 -80t61.5 -49.5t81 -16.5q68 0 116.5 38t48.5 108v521h45v-515q0 -101 -61.5 -147t-148.5 -46t-149 46t-62 147v515h45
v-521z" />
    <glyph glyph-name="Scircumflex" unicode="&#x15c;" horiz-adv-x="561" 
d="M429 772l-32 -32l-111 111l-116 -111l-31 32l148 141zM109 109q23 -34 65 -55.5t98 -21.5q83 0 137.5 37t54.5 118q0 46 -26.5 76t-65.5 48t-105 41q-70 24 -112 44t-71 54.5t-29 87.5q0 44 25 83.5t75.5 64t124.5 24.5q49 0 81 -7t65 -23l-14 -43q-57 29 -130 29
q-80 0 -130 -34t-50 -97q0 -37 24 -62.5t59.5 -41.5t98.5 -37q73 -25 118.5 -47t77.5 -60t32 -97q0 -92 -58.5 -146.5t-180.5 -54.5q-74 0 -126.5 27.5t-80 71t-29.5 90.5h46q3 -35 26 -69z" />
    <glyph glyph-name="ubreve" unicode="&#x16d;" 
d="M195 648q0 -30 21.5 -53t53.5 -23t53.5 23t21.5 53v5h38v-5q0 -46 -33 -79.5t-80 -33.5q-46 0 -79.5 33.5t-33.5 79.5v5h38v-5zM123 168q0 -69 37 -103.5t106 -34.5q64 0 102 33.5t38 99.5v338h45v-501h-44l3 59q-24 -33 -62.5 -51.5t-81.5 -18.5q-188 0 -188 184v328h45
v-333z" />
    <glyph glyph-name="scircumflex" unicode="&#x15d;" horiz-adv-x="473" 
d="M406 580l-32 -32l-111 111l-116 -111l-31 32l148 141zM341.5 454.5q-12.5 6.5 -33.5 12.5t-47 6q-54 0 -92 -26.5t-33 -76.5q3 -35 35 -53.5t95 -37.5q56 -18 90 -33.5t58 -45t24 -75.5q0 -60 -44.5 -100t-130.5 -40q-57 0 -98.5 19.5t-63 51.5t-23.5 71h43
q6 -47 45.5 -73.5t96.5 -26.5q52 0 91 25t39 72q0 32 -19 53t-46.5 33.5t-74.5 27.5q-50 16 -80.5 29.5t-53.5 37.5t-27 60q-1 5 -1 14q0 33 18 63.5t56.5 50.5t95.5 20q31 0 56 -6.5t39 -13.5t17 -9l-16 -38q-3 2 -15.5 8.5z" />
    <glyph glyph-name="Rcommaaccent" unicode="&#x156;" horiz-adv-x="564" 
d="M465 642q47 -58 47 -156q0 -70 -20.5 -128.5t-81.5 -85.5l103 -272h-46l-100 258q-22 -2 -36 -2h-208v-256h-45v700h244q96 0 143 -58zM327 300q140 0 140 186q0 84 -37.5 127.5t-105.5 43.5h-201v-357h204zM255 -70q1 10 8.5 17.5t18.5 7.5t21 -9.5t10 -21.5
q0 -55 -64 -108l-32 23q22 12 36 25.5t19.5 22t6.5 11.5l-7 2q-17 10 -17 30z" />
    <glyph glyph-name="kgreenlandic" unicode="&#x138;" horiz-adv-x="482" 
d="M123 253l227 248h60l-189 -206l127 -179q57 -77 98 -77l2 -40q-44 1 -76 28t-70 79l-112 155l-67 -69v-192h-45v512l45 -11v-248z" />
    <glyph glyph-name="Aogonek" unicode="&#x104;" horiz-adv-x="662" 
d="M449 256h-240l-84 -256h-47l230 700h42l233 -700h-1q-54 -43 -78.5 -73t-24.5 -55q0 -20 13.5 -33t35.5 -13q24 0 39 10t29 32l31 -31q-18 -28 -41 -39t-56 -11q-31 0 -61.5 18t-30.5 65q0 67 96 130h1zM437 300l-108 327l-106 -327h214z" />
    <glyph glyph-name="Itilde" unicode="&#x128;" horiz-adv-x="488" 
d="M173 826q18 0 33.5 -5t43.5 -16q25 -10 40 -15t30 -5q37 0 68 34l20 -33q-43 -47 -88 -47q-17 0 -33.5 5.5t-40.5 16.5q-27 11 -41.5 16t-30.5 5q-39 0 -75 -39l-21 32q46 51 95 51zM280 0h-45v658l-72 2v40h117v-700z" />
    <glyph glyph-name="Lcommaaccent" unicode="&#x13b;" horiz-adv-x="440" 
d="M123 41h316v-41h-361v700h45v-659zM245 -70q1 10 8.5 17.5t18.5 7.5t21 -9.5t10 -21.5q0 -55 -64 -108l-32 23q22 12 36 25.5t19.5 22t6.5 11.5l-7 2q-17 10 -17 30z" />
    <glyph glyph-name="Emacron" unicode="&#x112;" horiz-adv-x="465" 
d="M352 742h-217v46h217v-46zM412 658h-289v-245h202l-15 -44h-187v-328h287v-41h-332v700h334v-42z" />
    <glyph glyph-name="Tbar" unicode="&#x166;" horiz-adv-x="402" 
d="M307 742h-217v46h217v-46zM402 659h-181v-659h-45v659h-176v41h402v-41z" />
    <glyph glyph-name="Gcommaaccent" unicode="&#x122;" horiz-adv-x="537" 
d="M156 74.5q46 -41.5 120 -41.5q76 0 116.5 43t40.5 109v71h-79l-16 44h138v-300h-34l-10 55q-49 -65 -156 -65q-56 0 -104 21t-77.5 66t-29.5 112v314q0 70 22.5 112.5t64.5 68.5q44 25 108 25q78 0 141 -33l-13 -32q-57 24 -111 25q-65 0 -116 -32.5t-51 -129.5v-320
q0 -71 46 -112.5zM245 -70q1 10 8.5 17.5t18.5 7.5t21 -9.5t10 -21.5q0 -55 -64 -108l-32 23q22 12 36 25.5t19.5 22t6.5 11.5l-7 2q-17 10 -17 30z" />
    <glyph glyph-name="aogonek" unicode="&#x105;" horiz-adv-x="502" 
d="M355.5 478.5q45.5 -30.5 56 -72.5t10.5 -108v-298h-1q-54 -43 -78.5 -73t-24.5 -55q0 -20 13.5 -33t35.5 -13q24 0 39 10t29 32l31 -31q-18 -28 -41 -39t-56 -11q-31 0 -61.5 18t-30.5 65q0 64 87 125q-55 -5 -100 -5q-104 0 -165.5 38.5t-61.5 140.5v83q0 99 70 133
q34 17 86 17q49 0 99 -15t85 -41q0 57 -35 92.5t-131 34.5l3 36q96 0 141.5 -30.5zM129.5 59.5q48.5 -30.5 135.5 -30.5q40 0 112 9v271q-38 21 -88 36.5t-94 15.5q-51 0 -82.5 -26t-31.5 -86v-87q0 -72 48.5 -102.5z" />
    <glyph glyph-name="rcommaaccent" unicode="&#x157;" horiz-adv-x="347" 
d="M104 461q50 49 132 49q28 0 75 -9l-12 -42q-33 10 -66 10q-52 0 -89.5 -20t-37.5 -55v-394h-45v501h45zM115 -70q1 10 8.5 17.5t18.5 7.5t21 -9.5t10 -21.5q0 -55 -64 -108l-32 23q22 12 36 25.5t19.5 22t6.5 11.5l-7 2q-17 10 -17 30z" />
    <glyph glyph-name="itilde" unicode="&#x129;" horiz-adv-x="443" 
d="M173 627q18 0 33.5 -5t43.5 -16q25 -10 40 -15t30 -5q37 0 68 34l20 -33q-43 -47 -88 -47q-17 0 -33.5 5.5t-40.5 16.5q-27 11 -41.5 16t-30.5 5q-39 0 -75 -39l-21 32q46 51 95 51zM262 0h-45v501h45v-501z" />
    <glyph glyph-name="lcommaaccent" unicode="&#x13c;" horiz-adv-x="255" 
d="M164 0h-45v700h45v-700zM116 -70q1 10 8.5 17.5t18.5 7.5t21 -9.5t10 -21.5q0 -55 -64 -108l-32 23q22 12 36 25.5t19.5 22t6.5 11.5l-7 2q-17 10 -17 30z" />
    <glyph glyph-name="emacron" unicode="&#x113;" horiz-adv-x="450" 
d="M326 550h-217v46h217v-46zM85.5 465q50.5 45 133.5 45t129.5 -44.5t46.5 -123.5v-120l-315 -17v-72q0 -52 33.5 -78.5t87.5 -26.5q72 0 151 42l18 -35q-36 -23 -82 -35t-92 -12q-74 0 -117.5 36.5t-43.5 109.5v205q0 81 50.5 126zM350 263v84q0 67 -41 95.5t-91 28.5
q-59 0 -98.5 -32t-39.5 -100v-90z" />
    <glyph glyph-name="gcommaaccent" unicode="&#x123;" horiz-adv-x="490" 
d="M289 577q-1 -10 -8.5 -17.5t-18.5 -7.5t-21 9.5t-10 21.5q0 55 64 108l32 -23q-22 -12 -36 -25.5t-19.5 -22t-6.5 -11.5l7 -2q17 -10 17 -30zM455 501v-565q0 -60 -25 -94t-82 -52l-12 35q36 14 55 40t19 72v128q-47 -77 -146 -77q-88 0 -137 48t-49 140v149
q0 88 52 136.5t139 48.5q98 0 144 -69l-3 60h45zM160.5 65.5q37.5 -35.5 103.5 -35.5q37 0 70.5 15t54.5 46.5t21 77.5v185q-6 59 -47 87t-97 28t-99.5 -34.5t-43.5 -114.5v-153q0 -66 37.5 -101.5z" />
    <glyph glyph-name="tbar" unicode="&#x167;" horiz-adv-x="359" 
d="M148 700h45v-199h131l-20 -43h-111v-100h119v-44h-119v-182q0 -43 17.5 -69.5t56.5 -39.5l-13 -36q-56 16 -81 51t-25 94v182h-70v44h70v342z" />
    <glyph glyph-name="Eng" unicode="&#x14a;" horiz-adv-x="651" 
d="M571 119q0 -74 -30.5 -113.5t-89.5 -42.5q-4 14 -11 31q44 4 65 37q-128 196 -382 588v-619h-45v700h45l144 -222q46 -71 110 -169t146 -223q2 14 2 49v523l-72 2v40h118v-581z" />
    <glyph glyph-name="eng" unicode="&#x14b;" horiz-adv-x="501" 
d="M109 474q27 17 63.5 26t75.5 9q61 0 100 -19q42 -19 63 -56.5t22 -98.5l1 1v-413q-2 -54 -32.5 -91.5t-85.5 -40.5l-6 35q0 -3 22 6.5t39.5 34.5t17.5 72v405q0 65 -40 95t-101 30q-35 0 -72 -9.5t-67 -25.5v-434h-45v501h45v-27z" />
    <glyph glyph-name="Umacron" unicode="&#x16a;" horiz-adv-x="566" 
d="M391 742h-217v46h217v-46zM119 180q0 -47 23.5 -80t61.5 -49.5t81 -16.5q68 0 116.5 38t48.5 108v521h45v-515q0 -101 -61.5 -147t-148.5 -46t-149 46t-62 147v515h45v-521z" />
    <glyph glyph-name="Utilde" unicode="&#x168;" horiz-adv-x="566" 
d="M215 826q18 0 33.5 -5t43.5 -16q25 -10 40 -15t30 -5q37 0 68 34l20 -33q-43 -47 -88 -47q-17 0 -33.5 5.5t-40.5 16.5q-27 11 -41.5 16t-30.5 5q-39 0 -75 -39l-21 32q46 51 95 51zM119 180q0 -47 23.5 -80t61.5 -49.5t81 -16.5q68 0 116.5 38t48.5 108v521h45v-515
q0 -101 -61.5 -147t-148.5 -46t-149 46t-62 147v515h45v-521z" />
    <glyph glyph-name="utilde" unicode="&#x169;" 
d="M192 637q18 0 33.5 -5t43.5 -16q25 -10 40 -15t30 -5q37 0 68 34l20 -33q-43 -47 -88 -47q-17 0 -33.5 5.5t-40.5 16.5q-27 11 -41.5 16t-30.5 5q-39 0 -75 -39l-21 32q46 51 95 51zM123 168q0 -69 37 -103.5t106 -34.5q64 0 102 33.5t38 99.5v338h45v-501h-44l3 59
q-24 -33 -62.5 -51.5t-81.5 -18.5q-188 0 -188 184v328h45v-333z" />
    <glyph glyph-name="umacron" unicode="&#x16b;" 
d="M368 550h-217v46h217v-46zM123 168q0 -69 37 -103.5t106 -34.5q64 0 102 33.5t38 99.5v338h45v-501h-44l3 59q-24 -33 -62.5 -51.5t-81.5 -18.5q-188 0 -188 184v328h45v-333z" />
    <glyph glyph-name="uogonek" unicode="&#x173;" horiz-adv-x="482" 
d="M368 59q-24 -33 -62.5 -51.5t-81.5 -18.5q-188 0 -188 184v328h45v-333q0 -69 37 -103.5t106 -34.5q64 0 102 33.5t38 99.5v338h45v-501q-54 -43 -78.5 -73t-24.5 -55q0 -20 13.5 -33t35.5 -13q24 0 39 10t29 32l31 -31q-18 -28 -41 -39t-56 -11q-31 0 -61.5 18t-30.5 65
q0 67 96 130h4z" />
    <glyph glyph-name="Uogonek" unicode="&#x172;" horiz-adv-x="566" 
d="M119 180q0 -47 23.5 -80t61.5 -49.5t81 -16.5q68 0 116.5 38t48.5 108v521h45v-515q0 -92 -51 -138t-128 -53q-51 -40 -73.5 -69.5t-22.5 -53.5q0 -20 13.5 -33t35.5 -13q24 0 39 10t29 32l31 -31q-18 -28 -41 -39t-56 -11q-31 0 -61.5 18t-30.5 65q0 64 86 124
q-81 5 -136 51t-55 141v515h45v-521z" />
    <glyph glyph-name="Kcommaaccent" unicode="&#x136;" horiz-adv-x="476" 
d="M124 349l248 352h52l-209 -297l261 -404h-53l-236 362l-63 -90v-272h-45v701h45v-352zM234 -70q1 10 8.5 17.5t18.5 7.5t21 -9.5t10 -21.5q0 -55 -64 -108l-32 23q22 12 36 25.5t19.5 22t6.5 11.5l-7 2q-17 10 -17 30z" />
    <glyph glyph-name="kcommaaccent" unicode="&#x137;" horiz-adv-x="446" 
d="M112 325l211 195l32 -31l-145 -129q69 -115 224 -360h-54l-202 332l-66 -59v-273h-45v700h45v-375zM210 -70q1 10 8.5 17.5t18.5 7.5t21 -9.5t10 -21.5q0 -55 -64 -108l-32 23q22 12 36 25.5t19.5 22t6.5 11.5l-7 2q-17 10 -17 30z" />
    <glyph glyph-name="omacron" unicode="&#x14d;" 
d="M372 550h-216v46h216v-46zM126.5 461.5q48.5 50.5 139.5 50.5q87 0 136 -52.5t49 -143.5v-132q0 -84 -46 -139t-139 -55t-140.5 55.5t-47.5 138.5v132q0 95 48.5 145.5zM160.5 71.5q37.5 -41.5 105.5 -41.5t104 41t36 106v140q0 78 -38.5 116t-101.5 38q-65 0 -104 -37.5
t-39 -116.5v-140q0 -64 37.5 -105.5z" />
    <glyph glyph-name="Omacron" unicode="&#x14c;" horiz-adv-x="549" 
d="M377 742h-217v46h217v-46zM119.5 663q56.5 53 155.5 53t153.5 -56t54.5 -154v-321q0 -101 -61.5 -148.5t-147.5 -47.5q-54 0 -102 19.5t-78.5 63.5t-30.5 113v322q0 103 56.5 156zM155.5 70.5q47.5 -38.5 117.5 -38.5q72 0 119 37.5t47 116.5v328q0 77 -44.5 118
t-121.5 41t-121 -41t-44 -118v-329q0 -76 47.5 -114.5z" />
    <glyph glyph-name="Ncommaaccent" unicode="&#x145;" horiz-adv-x="650" 
d="M526 82v618h44v-700h-44l-403 619v-619h-45v700h45zM318 -70q1 10 8.5 17.5t18.5 7.5t21 -9.5t10 -21.5q0 -55 -64 -108l-32 23q22 12 36 25.5t19.5 22t6.5 11.5l-7 2q-17 10 -17 30z" />
    <glyph glyph-name="ncommaaccent" unicode="&#x146;" horiz-adv-x="500" 
d="M109 474q27 17 63.5 26t75.5 9q61 0 100 -19q85 -39 85 -144v-346h-44v344q0 65 -40 95t-101 30q-35 0 -72 -9.5t-67 -25.5v-434h-45v501h45v-27zM222 -70q1 10 8.5 17.5t18.5 7.5t21 -9.5t10 -21.5q0 -55 -64 -108l-32 23q22 12 36 25.5t19.5 22t6.5 11.5l-7 2
q-17 10 -17 30z" />
    <glyph glyph-name="dcroat" unicode="&#x111;" horiz-adv-x="543" 
d="M447 617h-45v83h45v-83zM402 573h-128v44h128v-44zM447 617h61v-44h-61v44zM99 71q-21 35 -21 86v189q0 105 85 144q41 19 100 19q39 0 75.5 -9t63.5 -25v98h45v-573l-55 -5q-65 -7 -102 -7t-69.5 7t-64.5 23q-36 18 -57 53zM337 459.5q-38 9.5 -74 9.5q-61 0 -101 -30
t-40 -96v-187q0 -67 47.5 -96.5t126.5 -29.5q48 0 106 10v395q-27 15 -65 24.5z" />
    <glyph glyph-name="Dcroat" unicode="&#x110;" horiz-adv-x="576" 
d="M392 742h-217v46h217v-46zM438.5 639q59.5 -62 59.5 -165v-274q0 -200 -212 -200h-208v701h188q113 0 172.5 -62zM272 41q77 0 129 30.5t52 125.5v282q0 62 -25.5 102.5t-66 59t-85.5 18.5h-153v-618h149z" />
    <glyph glyph-name="Imacron" unicode="&#x12a;" horiz-adv-x="374" 
d="M294 742h-216v46h216v-46zM239 0h-45v658l-72 2v40h117v-700z" />
    <glyph glyph-name="imacron" unicode="&#x12b;" horiz-adv-x="330" 
d="M295 550h-217v46h217v-46zM213 0h-45v501h45v-501z" />
    <glyph glyph-name="edotaccent" unicode="&#x117;" horiz-adv-x="473" 
d="M249.5 597q8.5 8 19.5 8t19 -8t8 -19t-8 -19.5t-19 -8.5t-19.5 8.5t-8.5 19.5t8.5 19zM128.5 465q50.5 45 133.5 45t129.5 -44.5t46.5 -123.5v-120l-315 -17v-72q0 -52 33.5 -78.5t87.5 -26.5q72 0 151 42l18 -35q-36 -23 -82 -35t-92 -12q-74 0 -117.5 36.5t-43.5 109.5
v205q0 81 50.5 126zM393 263v84q0 67 -41 95.5t-91 28.5q-59 0 -98.5 -32t-39.5 -100v-90z" />
    <glyph glyph-name="Edotaccent" unicode="&#x116;" horiz-adv-x="465" 
d="M235.5 789q8.5 8 19.5 8t19 -8t8 -19t-8 -19.5t-19 -8.5t-19.5 8.5t-8.5 19.5t8.5 19zM412 658h-289v-245h202l-15 -44h-187v-328h287v-41h-332v700h334v-42z" />
    <glyph glyph-name="Eogonek" unicode="&#x118;" horiz-adv-x="507" 
d="M78 700h334v-42h-289v-245h202l-15 -44h-187v-328h287v-41h-1q-54 -43 -78.5 -73t-24.5 -55q0 -20 13.5 -33t35.5 -13q24 0 39 10t29 32l31 -31q-18 -28 -41 -39t-56 -11q-31 0 -61.5 18t-30.5 65q0 67 96 130h-283v700z" />
    <glyph glyph-name="eogonek" unicode="&#x119;" horiz-adv-x="434" 
d="M85.5 465q50.5 45 133.5 45t129.5 -44.5t46.5 -123.5v-120l-315 -17v-72q0 -52 33.5 -78.5t87.5 -26.5q72 0 151 42l18 -35q-52 -32 -118 -43q-49 -39 -71 -67.5t-22 -52.5q0 -20 13.5 -33t35.5 -13q24 0 39 10t29 32l31 -31q-18 -28 -41 -39t-56 -11q-31 0 -61.5 18
t-30.5 65q0 61 78 118q-74 0 -117.5 36.5t-43.5 109.5v205q0 81 50.5 126zM350 263v84q0 67 -41 95.5t-91 28.5q-59 0 -98.5 -32t-39.5 -100v-90z" />
    <glyph glyph-name="ccaron" unicode="&#x10d;" horiz-adv-x="436" 
d="M258 605l112 111l31 -32l-142 -141l-148 141l31 32zM166 62q44 -33 117 -33q51 0 107 14l10 -37q-62 -16 -120 -16q-54 0 -90 12q-59 20 -85.5 61.5t-26.5 116.5v128q0 99 52 150.5t134 51.5q65 0 134 -32l-13 -35q-58 26 -115 26q-65 0 -106 -38.5t-41 -116.5v-145
q-1 -74 43 -107z" />
    <glyph glyph-name="Ccaron" unicode="&#x10c;" horiz-adv-x="434" 
d="M255 795l112 111l31 -32l-142 -141l-148 141l31 32zM150.5 70.5q39.5 -39.5 114.5 -39.5q63 0 152 30l10 -38q-89 -33 -166 -33q-87 0 -141 46t-54 147v321q0 76 21.5 115t65.5 66q43 25 107 25q76 0 142 -33l-14 -32q-58 24 -115 24q-63 0 -112.5 -31.5t-49.5 -124.5
v-328q0 -75 39.5 -114.5z" />
    <glyph glyph-name="Iogonek" unicode="&#x12e;" horiz-adv-x="347" 
d="M176 658l-72 2v40h117v-700h1q-54 -43 -78.5 -73t-24.5 -55q0 -20 13.5 -33t35.5 -13q24 0 39 10t29 32l31 -31q-18 -28 -41 -39t-56 -11q-31 0 -61.5 18t-30.5 65q0 67 96 130h2v658z" />
    <glyph glyph-name="iogonek" unicode="&#x12f;" horiz-adv-x="265" 
d="M95.5 702q8.5 8 19.5 8t19 -8t8 -19t-8 -19.5t-19 -8.5t-19.5 8.5t-8.5 19.5t8.5 19zM92 501h45v-501h1q-54 -43 -78.5 -73t-24.5 -55q0 -20 13.5 -33t35.5 -13q24 0 39 10t29 32l31 -31q-18 -28 -41 -39t-56 -11q-31 0 -61.5 18t-30.5 65q0 67 96 130h2v501z" />
    <glyph glyph-name="amacron" unicode="&#x101;" horiz-adv-x="498" 
d="M386 550h-217v46h217v-46zM396.5 478.5q45.5 -30.5 56 -72.5t10.5 -108v-298q-108 -11 -156 -11q-105 0 -167 39t-62 141v83q0 99 70 133q34 17 86 17q49 0 99 -15t85 -41q0 57 -35 92.5t-131 34.5l3 36q96 0 141.5 -30.5zM170.5 59.5q48.5 -30.5 135.5 -30.5q40 0 112 9
v271q-38 21 -88 36.5t-94 15.5q-51 0 -82.5 -26t-31.5 -86v-87q0 -72 48.5 -102.5z" />
    <glyph glyph-name="Amacron" unicode="&#x100;" horiz-adv-x="527" 
d="M368 742h-217v46h217v-46zM517 0h-48l-86 256h-240l-84 -256h-47l230 700h42zM371 300l-108 327l-106 -327h214z" />
    <glyph glyph-name="Lcaron" unicode="&#x13d;" horiz-adv-x="447" 
d="M113 796l112 111l31 -32l-142 -141l-148 141l31 32zM130 41h316v-41h-361v700h45v-659z" />
    <glyph glyph-name="Sacute" unicode="&#x15a;" horiz-adv-x="561" 
d="M321 876q13 0 20.5 -8.5t7.5 -19.5q0 -8 -5 -15l-68 -98h-36l52 121q9 20 29 20zM109 109q23 -34 65 -55.5t98 -21.5q83 0 137.5 37t54.5 118q0 46 -26.5 76t-65.5 48t-105 41q-70 24 -112 44t-71 54.5t-29 87.5q0 44 25 83.5t75.5 64t124.5 24.5q49 0 81 -7t65 -23
l-14 -43q-57 29 -130 29q-80 0 -130 -34t-50 -97q0 -37 24 -62.5t59.5 -41.5t98.5 -37q73 -25 118.5 -47t77.5 -60t32 -97q0 -92 -58.5 -146.5t-180.5 -54.5q-74 0 -126.5 27.5t-80 71t-29.5 90.5h46q3 -35 26 -69z" />
    <glyph glyph-name="Scommaaccent" unicode="&#x218;" horiz-adv-x="561" 
d="M109 109q23 -34 65 -55.5t98 -21.5q83 0 137.5 37t54.5 118q0 46 -26.5 76t-65.5 48t-105 41q-70 24 -112 44t-71 54.5t-29 87.5q0 44 25 83.5t75.5 64t124.5 24.5q49 0 81 -7t65 -23l-14 -43q-57 29 -130 29q-80 0 -130 -34t-50 -97q0 -37 24 -62.5t59.5 -41.5t98.5 -37
q73 -25 118.5 -47t77.5 -60t32 -97q0 -92 -58.5 -146.5t-180.5 -54.5q-74 0 -126.5 27.5t-80 71t-29.5 90.5h46q3 -35 26 -69zM249 -70q1 10 8.5 17.5t18.5 7.5t21 -9.5t10 -21.5q0 -55 -64 -108l-32 23q22 12 36 25.5t19.5 22t6.5 11.5l-7 2q-17 10 -17 30z" />
    <glyph glyph-name="Tcaron" unicode="&#x164;" horiz-adv-x="402" 
d="M201 796l112 111l31 -32l-142 -141l-148 141l31 32zM402 659h-181v-659h-45v659h-176v41h402v-41z" />
    <glyph glyph-name="Zacute" unicode="&#x179;" horiz-adv-x="550" 
d="M353 926q13 0 20.5 -8.5t7.5 -19.5q0 -8 -5 -15l-68 -98h-36l52 121q9 20 29 20zM512 659l-424 -618h430v-41h-487v41l424 618h-411v41h468v-41z" />
    <glyph glyph-name="Ecaron" unicode="&#x11a;" horiz-adv-x="465" 
d="M248 796l112 111l31 -32l-142 -141l-148 141l31 32zM412 658h-289v-245h202l-15 -44h-187v-328h287v-41h-332v700h334v-42z" />
    <glyph glyph-name="ecaron" unicode="&#x11b;" horiz-adv-x="473" 
d="M264 604l112 111l31 -32l-142 -141l-148 141l31 32zM128.5 465q50.5 45 133.5 45t129.5 -44.5t46.5 -123.5v-120l-315 -17v-72q0 -52 33.5 -78.5t87.5 -26.5q72 0 151 42l18 -35q-36 -23 -82 -35t-92 -12q-74 0 -117.5 36.5t-43.5 109.5v205q0 81 50.5 126zM393 263v84
q0 67 -41 95.5t-91 28.5q-59 0 -98.5 -32t-39.5 -100v-90z" />
    <glyph glyph-name="cacute" unicode="&#x107;" horiz-adv-x="435" 
d="M290 679q13 0 20.5 -8.5t7.5 -19.5q0 -8 -5 -15l-68 -98h-36l52 121q9 20 29 20zM166 62q44 -33 117 -33q51 0 107 14l10 -37q-62 -16 -120 -16q-54 0 -90 12q-59 20 -85.5 61.5t-26.5 116.5v128q0 99 52 150.5t134 51.5q65 0 134 -32l-13 -35q-58 26 -115 26
q-65 0 -106 -38.5t-41 -116.5v-145q-1 -74 43 -107z" />
    <glyph glyph-name="Cacute" unicode="&#x106;" horiz-adv-x="434" 
d="M315 875q13 0 20.5 -8.5t7.5 -19.5q0 -8 -5 -15l-68 -98h-36l52 121q9 20 29 20zM150.5 70.5q39.5 -39.5 114.5 -39.5q63 0 152 30l10 -38q-89 -33 -166 -33q-87 0 -141 46t-54 147v321q0 76 21.5 115t65.5 66q43 25 107 25q76 0 142 -33l-14 -32q-58 24 -115 24
q-63 0 -112.5 -31.5t-49.5 -124.5v-328q0 -75 39.5 -114.5z" />
    <glyph glyph-name="Lacute" unicode="&#x139;" horiz-adv-x="440" 
d="M162 871q13 0 20.5 -8.5t7.5 -19.5q0 -8 -5 -15l-68 -98h-36l52 121q9 20 29 20zM123 41h316v-41h-361v700h45v-659z" />
    <glyph glyph-name="lacute" unicode="&#x13a;" horiz-adv-x="274" 
d="M168 875q13 0 20.5 -8.5t7.5 -19.5q0 -8 -5 -15l-68 -98h-36l52 121q9 20 29 20zM126 0h-45v700h45v-700z" />
    <glyph glyph-name="abreve" unicode="&#x103;" horiz-adv-x="498" 
d="M234 651q0 -30 21.5 -53t53.5 -23t53.5 23t21.5 53v5h38v-5q0 -46 -33 -79.5t-80 -33.5q-46 0 -79.5 33.5t-33.5 79.5v5h38v-5zM396.5 478.5q45.5 -30.5 56 -72.5t10.5 -108v-298q-108 -11 -156 -11q-105 0 -167 39t-62 141v83q0 99 70 133q34 17 86 17q49 0 99 -15
t85 -41q0 57 -35 92.5t-131 34.5l3 36q96 0 141.5 -30.5zM170.5 59.5q48.5 -30.5 135.5 -30.5q40 0 112 9v271q-38 21 -88 36.5t-94 15.5q-51 0 -82.5 -26t-31.5 -86v-87q0 -72 48.5 -102.5z" />
    <glyph glyph-name="Abreve" unicode="&#x102;" horiz-adv-x="527" 
d="M190 843q0 -30 21.5 -53t53.5 -23t53.5 23t21.5 53v5h38v-5q0 -46 -33 -79.5t-80 -33.5q-46 0 -79.5 33.5t-33.5 79.5v5h38v-5zM517 0h-48l-86 256h-240l-84 -256h-47l230 700h42zM371 300l-108 327l-106 -327h214z" />
    <glyph glyph-name="Racute" unicode="&#x154;" horiz-adv-x="564" 
d="M308 871q13 0 20.5 -8.5t7.5 -19.5q0 -8 -5 -15l-68 -98h-36l52 121q9 20 29 20zM465 642q47 -58 47 -156q0 -70 -20.5 -128.5t-81.5 -85.5l103 -272h-46l-100 258q-22 -2 -36 -2h-208v-256h-45v700h244q96 0 143 -58zM327 300q140 0 140 186q0 84 -37.5 127.5
t-105.5 43.5h-201v-357h204z" />
    <glyph glyph-name="racute" unicode="&#x155;" horiz-adv-x="363" 
d="M219 679q13 0 20.5 -8.5t7.5 -19.5q0 -8 -5 -15l-68 -98h-36l52 121q9 20 29 20zM121 461q50 49 132 49q28 0 75 -9l-12 -42q-33 10 -66 10q-52 0 -89.5 -20t-37.5 -55v-394h-45v501h45z" />
    <glyph glyph-name="dcaron" unicode="&#x10f;" horiz-adv-x="608" 
d="M447 0l-55 -5q-65 -7 -102 -7t-69.5 7t-64.5 23q-36 18 -57 53t-21 86v189q0 105 85 144q41 19 100 19q39 0 75.5 -9t63.5 -25v225h45v-700zM515 674q1 10 8.5 17.5t18.5 7.5t21 -9.5t10 -21.5q0 -55 -64 -108l-32 23q22 12 36 25.5t19.5 22t6.5 11.5l-7 2q-17 10 -17 30
zM337 459.5q-38 9.5 -74 9.5q-61 0 -101 -30t-40 -96v-187q0 -67 47.5 -96.5t126.5 -29.5q48 0 106 10v395q-27 15 -65 24.5z" />
    <glyph glyph-name="Dcaron" unicode="&#x10e;" horiz-adv-x="576" 
d="M273 796l112 111l31 -32l-142 -141l-148 141l31 32zM438.5 639q59.5 -62 59.5 -165v-274q0 -200 -212 -200h-208v701h188q113 0 172.5 -62zM272 41q77 0 129 30.5t52 125.5v282q0 62 -25.5 102.5t-66 59t-85.5 18.5h-153v-618h149z" />
    <glyph glyph-name="Nacute" unicode="&#x143;" horiz-adv-x="650" 
d="M359 871q13 0 20.5 -8.5t7.5 -19.5q0 -8 -5 -15l-68 -98h-36l52 121q9 20 29 20zM526 82v618h44v-700h-44l-403 619v-619h-45v700h45z" />
    <glyph glyph-name="Ncaron" unicode="&#x147;" horiz-adv-x="650" 
d="M331 796l112 111l31 -32l-142 -141l-148 141l31 32zM526 82v618h44v-700h-44l-403 619v-619h-45v700h45z" />
    <glyph glyph-name="ncaron" unicode="&#x148;" horiz-adv-x="482" 
d="M278 654l112 111l31 -32l-142 -141l-148 141l31 32zM123 474q27 17 63.5 26t75.5 9q61 0 100 -19q85 -39 85 -144v-346h-44v344q0 65 -40 95t-101 30q-35 0 -72 -9.5t-67 -25.5v-434h-45v501h45v-27z" />
    <glyph glyph-name="nacute" unicode="&#x144;" horiz-adv-x="482" 
d="M312 679q13 0 20.5 -8.5t7.5 -19.5q0 -8 -5 -15l-68 -98h-36l52 121q9 20 29 20zM123 474q27 17 63.5 26t75.5 9q61 0 100 -19q85 -39 85 -144v-346h-44v344q0 65 -40 95t-101 30q-35 0 -72 -9.5t-67 -25.5v-434h-45v501h45v-27z" />
    <glyph glyph-name="ohungarumlaut" unicode="&#x151;" 
d="M257 684q13 0 20.5 -8.5t7.5 -19.5q0 -8 -5 -15l-68 -98h-36l52 121q9 20 29 20zM369 684q13 0 20.5 -8.5t7.5 -19.5q0 -8 -5 -15l-68 -98h-36l52 121q9 20 29 20zM126.5 461.5q48.5 50.5 139.5 50.5q87 0 136 -52.5t49 -143.5v-132q0 -84 -46 -139t-139 -55t-140.5 55.5
t-47.5 138.5v132q0 95 48.5 145.5zM160.5 71.5q37.5 -41.5 105.5 -41.5t104 41t36 106v140q0 78 -38.5 116t-101.5 38q-65 0 -104 -37.5t-39 -116.5v-140q0 -64 37.5 -105.5z" />
    <glyph glyph-name="Ohungarumlaut" unicode="&#x150;" horiz-adv-x="549" 
d="M270 872q13 0 20.5 -8.5t7.5 -19.5q0 -8 -5 -15l-68 -98h-36l52 121q9 20 29 20zM382 872q13 0 20.5 -8.5t7.5 -19.5q0 -8 -5 -15l-68 -98h-36l52 121q9 20 29 20zM119.5 663q56.5 53 155.5 53t153.5 -56t54.5 -154v-321q0 -101 -61.5 -148.5t-147.5 -47.5
q-54 0 -102 19.5t-78.5 63.5t-30.5 113v322q0 103 56.5 156zM155.5 70.5q47.5 -38.5 117.5 -38.5q72 0 119 37.5t47 116.5v328q0 77 -44.5 118t-121.5 41t-121 -41t-44 -118v-329q0 -76 47.5 -114.5z" />
    <glyph glyph-name="lcaron" unicode="&#x13e;" horiz-adv-x="205" 
d="M109 796l112 111l31 -32l-142 -141l-148 141l31 32zM129 0h-45v700h45v-700z" />
    <glyph glyph-name="sacute" unicode="&#x15b;" horiz-adv-x="444" 
d="M276 679q13 0 20.5 -8.5t7.5 -19.5q0 -8 -5 -15l-68 -98h-36l52 121q9 20 29 20zM312.5 454.5q-12.5 6.5 -33.5 12.5t-47 6q-54 0 -92 -26.5t-33 -76.5q3 -35 35 -53.5t95 -37.5q56 -18 90 -33.5t58 -45t24 -75.5q0 -60 -44.5 -100t-130.5 -40q-57 0 -98.5 19.5t-63 51.5
t-23.5 71h43q6 -47 45.5 -73.5t96.5 -26.5q52 0 91 25t39 72q0 32 -19 53t-46.5 33.5t-74.5 27.5q-50 16 -80.5 29.5t-53.5 37.5t-27 60q-1 5 -1 14q0 33 18 63.5t56.5 50.5t95.5 20q31 0 56 -6.5t39 -13.5t17 -9l-16 -38q-3 2 -15.5 8.5z" />
    <glyph glyph-name="Uring" unicode="&#x16e;" horiz-adv-x="566" 
d="M204.5 850q33.5 33 79.5 33q47 0 80 -33t33 -80q0 -46 -33 -79.5t-80 -33.5q-46 0 -79.5 33.5t-33.5 79.5q0 47 33.5 80zM231 717q22 -22 53 -22q32 0 53.5 22t21.5 53q0 32 -21.5 53.5t-53.5 21.5q-31 0 -53 -21.5t-22 -53.5q0 -31 22 -53zM119 180q0 -47 23.5 -80
t61.5 -49.5t81 -16.5q68 0 116.5 38t48.5 108v521h45v-515q0 -101 -61.5 -147t-148.5 -46t-149 46t-62 147v515h45v-521z" />
    <glyph glyph-name="Rcaron" unicode="&#x158;" horiz-adv-x="564" 
d="M284 796l112 111l31 -32l-142 -141l-148 141l31 32zM465 642q47 -58 47 -156q0 -70 -20.5 -128.5t-81.5 -85.5l103 -272h-46l-100 258q-22 -2 -36 -2h-208v-256h-45v700h244q96 0 143 -58zM327 300q140 0 140 186q0 84 -37.5 127.5t-105.5 43.5h-201v-357h204z" />
    <glyph glyph-name="rcaron" unicode="&#x159;" horiz-adv-x="403" 
d="M225 654l112 111l31 -32l-142 -141l-148 141l31 32zM122 461q50 49 132 49q28 0 75 -9l-12 -42q-33 10 -66 10q-52 0 -89.5 -20t-37.5 -55v-394h-45v501h45z" />
    <glyph glyph-name="uring" unicode="&#x16f;" 
d="M190.5 668q33.5 33 79.5 33q47 0 80 -33t33 -80q0 -46 -33 -79.5t-80 -33.5q-46 0 -79.5 33.5t-33.5 79.5q0 47 33.5 80zM217 535q22 -22 53 -22q32 0 53.5 22t21.5 53q0 32 -21.5 53.5t-53.5 21.5q-31 0 -53 -21.5t-22 -53.5q0 -31 22 -53zM123 168q0 -69 37 -103.5
t106 -34.5q64 0 102 33.5t38 99.5v338h45v-501h-44l3 59q-24 -33 -62.5 -51.5t-81.5 -18.5q-188 0 -188 184v328h45v-333z" />
    <glyph glyph-name="uhungarumlaut" unicode="&#x171;" 
d="M257 684q13 0 20.5 -8.5t7.5 -19.5q0 -8 -5 -15l-68 -98h-36l52 121q9 20 29 20zM369 684q13 0 20.5 -8.5t7.5 -19.5q0 -8 -5 -15l-68 -98h-36l52 121q9 20 29 20zM123 168q0 -69 37 -103.5t106 -34.5q64 0 102 33.5t38 99.5v338h45v-501h-44l3 59q-24 -33 -62.5 -51.5
t-81.5 -18.5q-188 0 -188 184v328h45v-333z" />
    <glyph glyph-name="Uhungarumlaut" unicode="&#x170;" horiz-adv-x="566" 
d="M282 872q13 0 20.5 -8.5t7.5 -19.5q0 -8 -5 -15l-68 -98h-36l52 121q9 20 29 20zM394 872q13 0 20.5 -8.5t7.5 -19.5q0 -8 -5 -15l-68 -98h-36l52 121q9 20 29 20zM119 180q0 -47 23.5 -80t61.5 -49.5t81 -16.5q68 0 116.5 38t48.5 108v521h45v-515q0 -101 -61.5 -147
t-148.5 -46t-149 46t-62 147v515h45v-521z" />
    <glyph glyph-name="tcaron" unicode="&#x165;" horiz-adv-x="366" 
d="M126 796l112 111l31 -32l-142 -141l-148 141l31 32zM149 501h131l-20 -43h-111v-326q0 -43 17.5 -69.5t56.5 -39.5l-13 -36q-56 16 -81 51t-25 94v568h45v-199z" />
    <glyph glyph-name="scommaaccent" unicode="&#x219;" horiz-adv-x="431" 
d="M299.5 454.5q-12.5 6.5 -33.5 12.5t-47 6q-54 0 -92 -26.5t-33 -76.5q3 -35 35 -53.5t95 -37.5q56 -18 90 -33.5t58 -45t24 -75.5q0 -60 -44.5 -100t-130.5 -40q-57 0 -98.5 19.5t-63 51.5t-23.5 71h43q6 -47 45.5 -73.5t96.5 -26.5q52 0 91 25t39 72q0 32 -19 53
t-46.5 33.5t-74.5 27.5q-50 16 -80.5 29.5t-53.5 37.5t-27 60q-1 5 -1 14q0 33 18 63.5t56.5 50.5t95.5 20q31 0 56 -6.5t39 -13.5t17 -9l-16 -38q-3 2 -15.5 8.5zM190 -70q1 10 8.5 17.5t18.5 7.5t21 -9.5t10 -21.5q0 -55 -64 -108l-32 23q22 12 36 25.5t19.5 22t6.5 11.5
l-7 2q-17 10 -17 30z" />
    <glyph glyph-name="zacute" unicode="&#x17a;" horiz-adv-x="480" 
d="M305 679q13 0 20.5 -8.5t7.5 -19.5q0 -8 -5 -15l-68 -98h-36l52 121q9 20 29 20zM424 460l-291 -419h312v-41h-367v41l289 419h-280v41h337v-41z" />
    <glyph glyph-name="uni0163" unicode="&#x163;" horiz-adv-x="267" 
d="M103 501h131l-20 -43h-111v-326q0 -43 17.5 -69.5t56.5 -39.5l-13 -36q-56 16 -81 51t-25 94v568h45v-199zM82 -70q1 10 8.5 17.5t18.5 7.5t21 -9.5t10 -21.5q0 -55 -64 -108l-32 23q22 12 36 25.5t19.5 22t6.5 11.5l-7 2q-17 10 -17 30z" />
    <glyph glyph-name="uni0162" unicode="&#x162;" horiz-adv-x="402" 
d="M402 659h-181v-659h-45v659h-176v41h402v-41zM175 -70q1 10 8.5 17.5t18.5 7.5t21 -9.5t10 -21.5q0 -55 -64 -108l-32 23q22 12 36 25.5t19.5 22t6.5 11.5l-7 2q-17 10 -17 30z" />
    <glyph glyph-name="Phi" unicode="&#x3a6;" horiz-adv-x="640" 
d="M123 517v-302q0 -71 38.5 -107.5t104.5 -36.5h50v534q2 50 30 78t75 28q85 0 134.5 -54.5t49.5 -145.5v-286q0 -91 -46.5 -143t-141.5 -52h-55v-64l-46 11v53h-50q-95 0 -141.5 52t-46.5 143v292q0 74 29.5 122.5t86.5 66.5l23 -36q-94 -26 -94 -153zM419 72
q66 0 103.5 37t37.5 106v306q0 50 -20.5 83.5t-51 49t-59.5 15.5q-36 0 -51.5 -20.5t-15.5 -52.5v-524h57z" />
    <glyph glyph-name="dieresis" unicode="&#xa8;" horiz-adv-x="222" 
d="M51.5 720.5q8.5 -8.5 8.5 -19.5t-8.5 -19t-19.5 -8t-19.5 8t-8.5 19t8.5 19.5t19.5 8.5t19.5 -8.5zM209.5 721q8.5 -8 8.5 -19t-8.5 -19.5t-19.5 -8.5t-19 8.5t-8 19.5t8 19t19 8t19.5 -8z" />
    <glyph glyph-name="dieresistonos" unicode="&#x385;" horiz-adv-x="326" 
d="M243 872q13 0 20.5 -8.5t7.5 -19.5q0 -8 -5 -15l-68 -98h-36l52 121q9 20 29 20zM124.5 721q8.5 -8 8.5 -19t-8.5 -19.5t-19.5 -8.5t-19 8.5t-8 19.5t8 19t19 8t19.5 -8zM283.5 721q8.5 -8 8.5 -19t-8.5 -19.5t-19.5 -8.5t-19 8.5t-8 19.5t8 19t19 8t19.5 -8z" />
    <glyph glyph-name="Agrave" unicode="&#xc0;" horiz-adv-x="527" 
d="M240 730l-67 99q-5 7 -5 15q0 11 7.5 19t20.5 8q19 0 28 -20l53 -121h-37zM517 0h-48l-86 256h-240l-84 -256h-47l230 700h42zM371 300l-108 327l-106 -327h214z" />
    <glyph glyph-name="Aacute" unicode="&#xc1;" horiz-adv-x="527" 
d="M323 872q13 0 20.5 -8.5t7.5 -19.5q0 -8 -5 -15l-68 -98h-36l52 121q9 20 29 20zM517 0h-48l-86 256h-240l-84 -256h-47l230 700h42zM371 300l-108 327l-106 -327h214z" />
    <glyph glyph-name="Acircumflex" unicode="&#xc2;" horiz-adv-x="527" 
d="M408 772l-32 -32l-111 111l-116 -111l-31 32l148 141zM517 0h-48l-86 256h-240l-84 -256h-47l230 700h42zM371 300l-108 327l-106 -327h214z" />
    <glyph glyph-name="Atilde" unicode="&#xc3;" horiz-adv-x="527" 
d="M191 825q18 0 33.5 -5t43.5 -16q25 -10 40 -15t30 -5q37 0 68 34l20 -33q-43 -47 -88 -47q-17 0 -33.5 5.5t-40.5 16.5q-27 11 -41.5 16t-30.5 5q-39 0 -75 -39l-21 32q46 51 95 51zM517 0h-48l-86 256h-240l-84 -256h-47l230 700h42zM371 300l-108 327l-106 -327h214z
" />
    <glyph glyph-name="Adieresis" unicode="&#xc4;" horiz-adv-x="527" 
d="M517 0h-48l-86 256h-240l-84 -256h-47l230 700h42zM371 300l-108 327l-106 -327h214z" />
    <glyph glyph-name="Aring" unicode="&#xc5;" horiz-adv-x="527" 
d="M184.5 852.5q32.5 32.5 78.5 32.5q45 0 77.5 -32.5t32.5 -78.5q0 -37 -22 -66.5t-56 -40.5l222 -667h-48l-86 256h-240l-84 -256h-47l219 667q-35 11 -57 40.5t-22 66.5q0 46 32.5 78.5zM210.5 722q21.5 -21 52.5 -21t52 21t21 52t-21 52t-52 21t-52.5 -21t-21.5 -52
t21.5 -52zM371 300l-108 327l-106 -327h214z" />
    <glyph glyph-name="AE" unicode="&#xc6;" horiz-adv-x="814" 
d="M779 658h-289v-245h202l-15 -44h-187v-328h287v-41h-333l1 256h-185l-134 -256h-48l366 700h335v-42zM445 300v312l-163 -312h163z" />
    <glyph glyph-name="Ccedilla" unicode="&#xc7;" horiz-adv-x="434" 
d="M150.5 70.5q39.5 -39.5 114.5 -39.5q63 0 152 30l10 -38q-85 -33 -168 -33l-32 -45q14 8 40 8q34 0 59 -19t25 -55q0 -48 -37 -68.5t-87 -20.5q-40 0 -92 19l20 43q23 -15 40.5 -19.5t38.5 -4.5q30 0 52.5 13t22.5 38q0 19 -14 31t-37 12q-16 0 -37 -8l-36 -15l-14 23
l54 70q-72 8 -115.5 54t-43.5 137v321q0 76 21.5 115t65.5 66q43 25 107 25q76 0 142 -33l-14 -32q-58 24 -115 24q-63 0 -112.5 -31.5t-49.5 -124.5v-328q0 -75 39.5 -114.5z" />
    <glyph glyph-name="Egrave" unicode="&#xc8;" horiz-adv-x="465" 
d="M234 729l-67 99q-5 7 -5 15q0 11 7.5 19t20.5 8q19 0 28 -20l53 -121h-37zM412 658h-289v-245h202l-15 -44h-187v-328h287v-41h-332v700h334v-42z" />
    <glyph glyph-name="Eacute" unicode="&#xc9;" horiz-adv-x="465" 
d="M318 871q13 0 20.5 -8.5t7.5 -19.5q0 -8 -5 -15l-68 -98h-36l52 121q9 20 29 20zM412 658h-289v-245h202l-15 -44h-187v-328h287v-41h-332v700h334v-42z" />
    <glyph glyph-name="Ecircumflex" unicode="&#xca;" horiz-adv-x="465" 
d="M383 772l-32 -32l-111 111l-116 -111l-31 32l148 141zM412 658h-289v-245h202l-15 -44h-187v-328h287v-41h-332v700h334v-42z" />
    <glyph glyph-name="Edieresis" unicode="&#xcb;" horiz-adv-x="465" 
d="M412 658h-289v-245h202l-15 -44h-187v-328h287v-41h-332v700h334v-42z" />
    <glyph glyph-name="Igrave" unicode="&#xcc;" horiz-adv-x="280" 
d="M155 729l-67 99q-5 7 -5 15q0 11 7.5 19t20.5 8q19 0 28 -20l53 -121h-37zM200 0h-45v658l-72 2v40h117v-700z" />
    <glyph glyph-name="Iacute" unicode="&#xcd;" horiz-adv-x="344" 
d="M237 871q13 0 20.5 -8.5t7.5 -19.5q0 -8 -5 -15l-68 -98h-36l52 121q9 20 29 20zM195 0h-45v658l-72 2v40h117v-700z" />
    <glyph glyph-name="Icircumflex" unicode="&#xce;" horiz-adv-x="448" 
d="M368 772l-32 -32l-111 111l-116 -111l-31 32l148 141zM251 0h-45v658l-72 2v40h117v-700z" />
    <glyph glyph-name="Idieresis" unicode="&#xcf;" horiz-adv-x="276" 
d="M195 0h-45v658l-72 2v40h117v-700z" />
    <glyph glyph-name="Eth" unicode="&#xd0;" horiz-adv-x="640" 
d="M127 701h188q93 0 150.5 -44t74.5 -119h65v-44h-59q1 -7 1 -20v-274q0 -200 -212 -200h-208v494h-49v44h49v163zM494 538q-16 61 -63.5 91t-105.5 30h-153v-121h322zM501 494h-329v-453h149q77 0 129 30.5t52 125.5v282q0 10 -1 15z" />
    <glyph glyph-name="Ntilde" unicode="&#xd1;" horiz-adv-x="650" 
d="M253 825q18 0 33.5 -5t43.5 -16q25 -10 40 -15t30 -5q37 0 68 34l20 -33q-43 -47 -88 -47q-17 0 -33.5 5.5t-40.5 16.5q-27 11 -41.5 16t-30.5 5q-39 0 -75 -39l-21 32q46 51 95 51zM526 82v618h44v-700h-44l-403 619v-619h-45v700h45z" />
    <glyph glyph-name="Ograve" unicode="&#xd2;" horiz-adv-x="549" 
d="M256 729l-67 99q-5 7 -5 15q0 11 7.5 19t20.5 8q19 0 28 -20l53 -121h-37zM119.5 663q56.5 53 155.5 53t153.5 -56t54.5 -154v-321q0 -101 -61.5 -148.5t-147.5 -47.5q-54 0 -102 19.5t-78.5 63.5t-30.5 113v322q0 103 56.5 156zM155.5 70.5q47.5 -38.5 117.5 -38.5
q72 0 119 37.5t47 116.5v328q0 77 -44.5 118t-121.5 41t-121 -41t-44 -118v-329q0 -76 47.5 -114.5z" />
    <glyph glyph-name="Oacute" unicode="&#xd3;" horiz-adv-x="549" 
d="M338 871q13 0 20.5 -8.5t7.5 -19.5q0 -8 -5 -15l-68 -98h-36l52 121q9 20 29 20zM119.5 663q56.5 53 155.5 53t153.5 -56t54.5 -154v-321q0 -101 -61.5 -148.5t-147.5 -47.5q-54 0 -102 19.5t-78.5 63.5t-30.5 113v322q0 103 56.5 156zM155.5 70.5
q47.5 -38.5 117.5 -38.5q72 0 119 37.5t47 116.5v328q0 77 -44.5 118t-121.5 41t-121 -41t-44 -118v-329q0 -76 47.5 -114.5z" />
    <glyph glyph-name="Ocircumflex" unicode="&#xd4;" horiz-adv-x="549" 
d="M416 772l-32 -32l-111 111l-116 -111l-31 32l148 141zM119.5 663q56.5 53 155.5 53t153.5 -56t54.5 -154v-321q0 -101 -61.5 -148.5t-147.5 -47.5q-54 0 -102 19.5t-78.5 63.5t-30.5 113v322q0 103 56.5 156zM155.5 70.5q47.5 -38.5 117.5 -38.5q72 0 119 37.5t47 116.5
v328q0 77 -44.5 118t-121.5 41t-121 -41t-44 -118v-329q0 -76 47.5 -114.5z" />
    <glyph glyph-name="Otilde" unicode="&#xd5;" horiz-adv-x="549" 
d="M206 825q18 0 33.5 -5t43.5 -16q25 -10 40 -15t30 -5q37 0 68 34l20 -33q-43 -47 -88 -47q-17 0 -33.5 5.5t-40.5 16.5q-27 11 -41.5 16t-30.5 5q-39 0 -75 -39l-21 32q46 51 95 51zM119.5 663q56.5 53 155.5 53t153.5 -56t54.5 -154v-321q0 -101 -61.5 -148.5
t-147.5 -47.5q-54 0 -102 19.5t-78.5 63.5t-30.5 113v322q0 103 56.5 156zM155.5 70.5q47.5 -38.5 117.5 -38.5q72 0 119 37.5t47 116.5v328q0 77 -44.5 118t-121.5 41t-121 -41t-44 -118v-329q0 -76 47.5 -114.5z" />
    <glyph glyph-name="Odieresis" unicode="&#xd6;" horiz-adv-x="549" 
d="M119.5 663q56.5 53 155.5 53t153.5 -56t54.5 -154v-321q0 -101 -61.5 -148.5t-147.5 -47.5q-54 0 -102 19.5t-78.5 63.5t-30.5 113v322q0 103 56.5 156zM155.5 70.5q47.5 -38.5 117.5 -38.5q72 0 119 37.5t47 116.5v328q0 77 -44.5 118t-121.5 41t-121 -41t-44 -118v-329
q0 -76 47.5 -114.5z" />
    <glyph glyph-name="Oslash" unicode="&#xd8;" horiz-adv-x="533" 
d="M422 678q37 -27 56.5 -71t19.5 -101v-321q0 -101 -61.5 -148.5t-147.5 -47.5q-52 0 -99 18l-42 -121h-48l50 143q-72 53 -72 156v322q0 103 56.5 156t155.5 53q50 0 93 -16l41 117h46zM166 75l203 583q-35 15 -81 15q-77 0 -121 -41t-44 -118v-329q0 -69 43 -110z
M407 634l-203 -585q35 -17 84 -17q72 0 119 37.5t47 116.5v328q0 78 -47 120z" />
    <glyph glyph-name="Ugrave" unicode="&#xd9;" horiz-adv-x="566" 
d="M265 729l-67 99q-5 7 -5 15q0 11 7.5 19t20.5 8q19 0 28 -20l53 -121h-37zM119 180q0 -47 23.5 -80t61.5 -49.5t81 -16.5q68 0 116.5 38t48.5 108v521h45v-515q0 -101 -61.5 -147t-148.5 -46t-149 46t-62 147v515h45v-521z" />
    <glyph glyph-name="Uacute" unicode="&#xda;" horiz-adv-x="566" 
d="M343 872q13 0 20.5 -8.5t7.5 -19.5q0 -8 -5 -15l-68 -98h-36l52 121q9 20 29 20zM119 180q0 -47 23.5 -80t61.5 -49.5t81 -16.5q68 0 116.5 38t48.5 108v521h45v-515q0 -101 -61.5 -147t-148.5 -46t-149 46t-62 147v515h45v-521z" />
    <glyph glyph-name="Ucircumflex" unicode="&#xdb;" horiz-adv-x="566" 
d="M434 772l-32 -32l-111 111l-116 -111l-31 32l148 141zM119 180q0 -47 23.5 -80t61.5 -49.5t81 -16.5q68 0 116.5 38t48.5 108v521h45v-515q0 -101 -61.5 -147t-148.5 -46t-149 46t-62 147v515h45v-521z" />
    <glyph glyph-name="Udieresis" unicode="&#xdc;" horiz-adv-x="566" 
d="M119 180q0 -47 23.5 -80t61.5 -49.5t81 -16.5q68 0 116.5 38t48.5 108v521h45v-515q0 -101 -61.5 -147t-148.5 -46t-149 46t-62 147v515h45v-521z" />
    <glyph glyph-name="Yacute" unicode="&#xdd;" horiz-adv-x="556" 
d="M343 872q13 0 20.5 -8.5t7.5 -19.5q0 -8 -5 -15l-68 -98h-36l52 121q9 20 29 20zM105 447q0 -76 49 -117t135 -41q65 0 112 29.5t57 82.5v299h46v-547q0 -70 -26.5 -110.5t-78.5 -49.5l-11 31q30 11 50 37.5t20 90.5v156q-27 -32 -76 -47.5t-93 -15.5q-106 0 -167.5 52.5
t-61.5 155.5v247h45v-253z" />
    <glyph glyph-name="Thorn" unicode="&#xde;" horiz-adv-x="490" 
d="M123 441q28 36 66.5 52t75.5 16q93 0 141.5 -54.5t48.5 -139.5q0 -94 -52 -146.5t-134 -52.5q-41 0 -83 21t-63 63v-200h-45v700h45v-259zM168 433q-43 -36 -45 -108q0 -81 40.5 -123.5t105.5 -42.5q60 0 100.5 39.5t40.5 119.5q0 77 -42 114t-99 37q-58 0 -101 -36z" />
    <glyph glyph-name="germandbls" unicode="&#xdf;" horiz-adv-x="512" 
d="M78 0v537q0 77 33.5 120.5t103.5 43.5q38 0 65.5 -18.5t41.5 -48.5t14 -62q0 -29 -12 -53.5t-34 -37.5h-25q-9 -16 -9 -33q0 -28 22.5 -53.5t70.5 -64.5q50 -42 60 -52q68 -66 68 -139q0 -34 -14 -66q-17 -41 -57.5 -62t-90.5 -21q-40 0 -78.5 12.5t-64.5 34.5l24 39
q21 -20 52 -31t64 -11q37 0 65.5 14t40.5 42q12 27 12 52q0 56 -53 106q-24 22 -55 47q-56 46 -83.5 78.5t-27.5 72.5q0 30 17 61q31 -1 47.5 18.5t16.5 47.5q0 33 -21.5 58.5t-57.5 25.5q-89 0 -89 -116v-541h-46z" />
    <glyph glyph-name="agrave" unicode="&#xe0;" horiz-adv-x="498" 
d="M256 537l-67 99q-5 7 -5 15q0 11 7.5 19t20.5 8q19 0 28 -20l53 -121h-37zM396.5 478.5q45.5 -30.5 56 -72.5t10.5 -108v-298q-108 -11 -156 -11q-105 0 -167 39t-62 141v83q0 99 70 133q34 17 86 17q49 0 99 -15t85 -41q0 57 -35 92.5t-131 34.5l3 36q96 0 141.5 -30.5z
M170.5 59.5q48.5 -30.5 135.5 -30.5q40 0 112 9v271q-38 21 -88 36.5t-94 15.5q-51 0 -82.5 -26t-31.5 -86v-87q0 -72 48.5 -102.5z" />
    <glyph glyph-name="aacute" unicode="&#xe1;" horiz-adv-x="498" 
d="M339 679q13 0 20.5 -8.5t7.5 -19.5q0 -8 -5 -15l-68 -98h-36l52 121q9 20 29 20zM396.5 478.5q45.5 -30.5 56 -72.5t10.5 -108v-298q-108 -11 -156 -11q-105 0 -167 39t-62 141v83q0 99 70 133q34 17 86 17q49 0 99 -15t85 -41q0 57 -35 92.5t-131 34.5l3 36
q96 0 141.5 -30.5zM170.5 59.5q48.5 -30.5 135.5 -30.5q40 0 112 9v271q-38 21 -88 36.5t-94 15.5q-51 0 -82.5 -26t-31.5 -86v-87q0 -72 48.5 -102.5z" />
    <glyph glyph-name="acircumflex" unicode="&#xe2;" horiz-adv-x="498" 
d="M419 579l-32 -32l-111 111l-116 -111l-31 32l148 141zM396.5 478.5q45.5 -30.5 56 -72.5t10.5 -108v-298q-108 -11 -156 -11q-105 0 -167 39t-62 141v83q0 99 70 133q34 17 86 17q49 0 99 -15t85 -41q0 57 -35 92.5t-131 34.5l3 36q96 0 141.5 -30.5zM170.5 59.5
q48.5 -30.5 135.5 -30.5q40 0 112 9v271q-38 21 -88 36.5t-94 15.5q-51 0 -82.5 -26t-31.5 -86v-87q0 -72 48.5 -102.5z" />
    <glyph glyph-name="atilde" unicode="&#xe3;" horiz-adv-x="498" 
d="M207 637q18 0 33.5 -5t43.5 -16q25 -10 40 -15t30 -5q37 0 68 34l20 -33q-43 -47 -88 -47q-17 0 -33.5 5.5t-40.5 16.5q-27 11 -41.5 16t-30.5 5q-39 0 -75 -39l-21 32q46 51 95 51zM396.5 478.5q45.5 -30.5 56 -72.5t10.5 -108v-298q-108 -11 -156 -11q-105 0 -167 39
t-62 141v83q0 99 70 133q34 17 86 17q49 0 99 -15t85 -41q0 57 -35 92.5t-131 34.5l3 36q96 0 141.5 -30.5zM170.5 59.5q48.5 -30.5 135.5 -30.5q40 0 112 9v271q-38 21 -88 36.5t-94 15.5q-51 0 -82.5 -26t-31.5 -86v-87q0 -72 48.5 -102.5z" />
    <glyph glyph-name="adieresis" unicode="&#xe4;" horiz-adv-x="498" 
d="M396.5 478.5q45.5 -30.5 56 -72.5t10.5 -108v-298q-108 -11 -156 -11q-105 0 -167 39t-62 141v83q0 99 70 133q34 17 86 17q49 0 99 -15t85 -41q0 57 -35 92.5t-131 34.5l3 36q96 0 141.5 -30.5zM170.5 59.5q48.5 -30.5 135.5 -30.5q40 0 112 9v271q-38 21 -88 36.5
t-94 15.5q-51 0 -82.5 -26t-31.5 -86v-87q0 -72 48.5 -102.5z" />
    <glyph glyph-name="aring" unicode="&#xe5;" horiz-adv-x="498" 
d="M181.5 666q33.5 33 79.5 33q47 0 80 -33t33 -80q0 -25 -10.5 -47t-28.5 -38q59 -13 87 -44t34.5 -67t6.5 -92v-298q-108 -11 -156 -11q-105 0 -167 39t-62 141v83q0 99 70 133q34 17 86 17q49 0 99 -15t85 -41q0 57 -35 92.5t-131 34.5q-44 4 -74 36.5t-30 76.5
q0 47 33.5 80zM208 533q22 -22 53 -22q32 0 53.5 22t21.5 53q0 32 -21.5 53.5t-53.5 21.5q-31 0 -53 -21.5t-22 -53.5q0 -31 22 -53zM170.5 59.5q48.5 -30.5 135.5 -30.5q40 0 112 9v271q-38 21 -88 36.5t-94 15.5q-51 0 -82.5 -26t-31.5 -86v-87q0 -72 48.5 -102.5z" />
    <glyph glyph-name="ae" unicode="&#xe6;" horiz-adv-x="814" 
d="M442 431q23 38 64.5 58.5t96.5 20.5q83 0 129.5 -44.5t46.5 -123.5v-120l-315 -17v-72q0 -52 33.5 -78.5t87.5 -26.5q72 0 151 42l18 -35q-36 -22 -81.5 -34.5t-89.5 -12.5q-78 0 -120 36v-24q-108 -11 -156 -11q-105 0 -167 39t-62 141v83q0 99 70 133q34 17 86 17
q49 0 99 -15t85 -41q0 57 -35 92.5t-131 34.5l3 36q145 0 187 -78zM734 263v84q0 67 -41 95.5t-91 28.5q-59 0 -98.5 -32t-39.5 -100v-90zM170.5 59.5q48.5 -30.5 135.5 -30.5q40 0 112 9v271q-38 21 -88 36.5t-94 15.5q-51 0 -82.5 -26t-31.5 -86v-87q0 -72 48.5 -102.5z
" />
    <glyph glyph-name="ccedilla" unicode="&#xe7;" horiz-adv-x="383" 
d="M124 62q44 -33 117 -33q51 0 107 14l10 -37q-62 -16 -120 -16q-20 0 -30 1l-33 -46q14 8 40 8q34 0 59 -19t25 -55q0 -48 -37 -68.5t-87 -20.5q-40 0 -92 19l20 43q23 -15 40.5 -19.5t38.5 -4.5q30 0 52.5 13t22.5 38q0 19 -14 31t-37 12q-16 0 -37 -8l-36 -15l-14 23
l57 73q-18 4 -28 7q-59 20 -85.5 61.5t-26.5 116.5v128q0 99 52 150.5t134 51.5q65 0 134 -32l-13 -35q-58 26 -115 26q-65 0 -106 -38.5t-41 -116.5v-145q-1 -74 43 -107z" />
    <glyph glyph-name="egrave" unicode="&#xe8;" horiz-adv-x="473" 
d="M248 537l-67 99q-5 7 -5 15q0 11 7.5 19t20.5 8q19 0 28 -20l53 -121h-37zM128.5 465q50.5 45 133.5 45t129.5 -44.5t46.5 -123.5v-120l-315 -17v-72q0 -52 33.5 -78.5t87.5 -26.5q72 0 151 42l18 -35q-36 -23 -82 -35t-92 -12q-74 0 -117.5 36.5t-43.5 109.5v205
q0 81 50.5 126zM393 263v84q0 67 -41 95.5t-91 28.5q-59 0 -98.5 -32t-39.5 -100v-90z" />
    <glyph glyph-name="eacute" unicode="&#xe9;" horiz-adv-x="473" 
d="M321 679q13 0 20.5 -8.5t7.5 -19.5q0 -8 -5 -15l-68 -98h-36l52 121q9 20 29 20zM128.5 465q50.5 45 133.5 45t129.5 -44.5t46.5 -123.5v-120l-315 -17v-72q0 -52 33.5 -78.5t87.5 -26.5q72 0 151 42l18 -35q-36 -23 -82 -35t-92 -12q-74 0 -117.5 36.5t-43.5 109.5v205
q0 81 50.5 126zM393 263v84q0 67 -41 95.5t-91 28.5q-59 0 -98.5 -32t-39.5 -100v-90z" />
    <glyph glyph-name="ecircumflex" unicode="&#xea;" horiz-adv-x="482" 
d="M397 579l-32 -32l-111 111l-116 -111l-31 32l148 141zM128.5 465q50.5 45 133.5 45t129.5 -44.5t46.5 -123.5v-120l-315 -17v-72q0 -52 33.5 -78.5t87.5 -26.5q72 0 151 42l18 -35q-36 -23 -82 -35t-92 -12q-74 0 -117.5 36.5t-43.5 109.5v205q0 81 50.5 126zM393 263v84
q0 67 -41 95.5t-91 28.5q-59 0 -98.5 -32t-39.5 -100v-90z" />
    <glyph glyph-name="edieresis" unicode="&#xeb;" horiz-adv-x="450" 
d="M85.5 465q50.5 45 133.5 45t129.5 -44.5t46.5 -123.5v-120l-315 -17v-72q0 -52 33.5 -78.5t87.5 -26.5q72 0 151 42l18 -35q-36 -23 -82 -35t-92 -12q-74 0 -117.5 36.5t-43.5 109.5v205q0 81 50.5 126zM350 263v84q0 67 -41 95.5t-91 28.5q-59 0 -98.5 -32t-39.5 -100
v-90z" />
    <glyph glyph-name="igrave" unicode="&#xec;" horiz-adv-x="231" 
d="M150 537l-67 99q-5 7 -5 15q0 11 7.5 19t20.5 8q19 0 28 -20l53 -121h-37zM195 0h-45v501h45v-501z" />
    <glyph glyph-name="iacute" unicode="&#xed;" horiz-adv-x="227" 
d="M165 679q13 0 20.5 -8.5t7.5 -19.5q0 -8 -5 -15l-68 -98h-36l52 121q9 20 29 20zM126 0h-45v501h45v-501z" />
    <glyph glyph-name="icircumflex" unicode="&#xee;" horiz-adv-x="159" 
d="M230 579l-32 -32l-111 111l-116 -111l-31 32l148 141zM108 0h-45v501h45v-501z" />
    <glyph glyph-name="idieresis" unicode="&#xef;" horiz-adv-x="142" 
d="M14.5 595.5q8.5 -8.5 8.5 -19.5t-8.5 -19t-19.5 -8t-19.5 8t-8.5 19t8.5 19.5t19.5 8.5t19.5 -8.5zM172.5 596q8.5 -8 8.5 -19t-8.5 -19.5t-19.5 -8.5t-19 8.5t-8 19.5t8 19t19 8t19.5 -8zM96 0h-45v501h45v-501z" />
    <glyph glyph-name="ntilde" unicode="&#xf1;" horiz-adv-x="482" 
d="M187 637q18 0 33.5 -5t43.5 -16q25 -10 40 -15t30 -5q37 0 68 34l20 -33q-43 -47 -88 -47q-17 0 -33.5 5.5t-40.5 16.5q-27 11 -41.5 16t-30.5 5q-39 0 -75 -39l-21 32q46 51 95 51zM123 474q27 17 63.5 26t75.5 9q61 0 100 -19q85 -39 85 -144v-346h-44v344q0 65 -40 95
t-101 30q-35 0 -72 -9.5t-67 -25.5v-434h-45v501h45v-27z" />
    <glyph glyph-name="ograve" unicode="&#xf2;" 
d="M247 537l-67 99q-5 7 -5 15q0 11 7.5 19t20.5 8q19 0 28 -20l53 -121h-37zM126.5 461.5q48.5 50.5 139.5 50.5q87 0 136 -52.5t49 -143.5v-132q0 -84 -46 -139t-139 -55t-140.5 55.5t-47.5 138.5v132q0 95 48.5 145.5zM160.5 71.5q37.5 -41.5 105.5 -41.5t104 41t36 106
v140q0 78 -38.5 116t-101.5 38q-65 0 -104 -37.5t-39 -116.5v-140q0 -64 37.5 -105.5z" />
    <glyph glyph-name="oacute" unicode="&#xf3;" 
d="M320 679q13 0 20.5 -8.5t7.5 -19.5q0 -8 -5 -15l-68 -98h-36l52 121q9 20 29 20zM126.5 461.5q48.5 50.5 139.5 50.5q87 0 136 -52.5t49 -143.5v-132q0 -84 -46 -139t-139 -55t-140.5 55.5t-47.5 138.5v132q0 95 48.5 145.5zM160.5 71.5q37.5 -41.5 105.5 -41.5t104 41
t36 106v140q0 78 -38.5 116t-101.5 38q-65 0 -104 -37.5t-39 -116.5v-140q0 -64 37.5 -105.5z" />
    <glyph glyph-name="ocircumflex" unicode="&#xf4;" 
d="M409 579l-32 -32l-111 111l-116 -111l-31 32l148 141zM126.5 461.5q48.5 50.5 139.5 50.5q87 0 136 -52.5t49 -143.5v-132q0 -84 -46 -139t-139 -55t-140.5 55.5t-47.5 138.5v132q0 95 48.5 145.5zM160.5 71.5q37.5 -41.5 105.5 -41.5t104 41t36 106v140q0 78 -38.5 116
t-101.5 38q-65 0 -104 -37.5t-39 -116.5v-140q0 -64 37.5 -105.5z" />
    <glyph glyph-name="otilde" unicode="&#xf5;" 
d="M196 637q18 0 33.5 -5t43.5 -16q25 -10 40 -15t30 -5q37 0 68 34l20 -33q-43 -47 -88 -47q-17 0 -33.5 5.5t-40.5 16.5q-27 11 -41.5 16t-30.5 5q-39 0 -75 -39l-21 32q46 51 95 51zM126.5 461.5q48.5 50.5 139.5 50.5q87 0 136 -52.5t49 -143.5v-132q0 -84 -46 -139
t-139 -55t-140.5 55.5t-47.5 138.5v132q0 95 48.5 145.5zM160.5 71.5q37.5 -41.5 105.5 -41.5t104 41t36 106v140q0 78 -38.5 116t-101.5 38q-65 0 -104 -37.5t-39 -116.5v-140q0 -64 37.5 -105.5z" />
    <glyph glyph-name="odieresis" unicode="&#xf6;" 
d="M126.5 461.5q48.5 50.5 139.5 50.5q87 0 136 -52.5t49 -143.5v-132q0 -84 -46 -139t-139 -55t-140.5 55.5t-47.5 138.5v132q0 95 48.5 145.5zM160.5 71.5q37.5 -41.5 105.5 -41.5t104 41t36 106v140q0 78 -38.5 116t-101.5 38q-65 0 -104 -37.5t-39 -116.5v-140
q0 -64 37.5 -105.5z" />
    <glyph glyph-name="oslash" unicode="&#xf8;" horiz-adv-x="495" 
d="M389 471q62 -53 62 -155v-132q0 -84 -46 -139t-139 -55q-37 0 -70 10l-47 -114h-47l55 133q-39 25 -59 68.5t-20 96.5v132q0 95 48.5 145.5t139.5 50.5q48 0 89 -19l62 150h44zM136 109.5q13 -30.5 38 -50.5l164 395q-32 17 -72 17q-65 0 -104 -37.5t-39 -116.5v-140
q0 -37 13 -67.5zM372 428l-161 -390q26 -8 55 -8q68 0 104 41t36 106v140q0 71 -34 111z" />
    <glyph glyph-name="ugrave" unicode="&#xf9;" 
d="M254 537l-67 99q-5 7 -5 15q0 11 7.5 19t20.5 8q19 0 28 -20l53 -121h-37zM123 168q0 -69 37 -103.5t106 -34.5q64 0 102 33.5t38 99.5v338h45v-501h-44l3 59q-24 -33 -62.5 -51.5t-81.5 -18.5q-188 0 -188 184v328h45v-333z" />
    <glyph glyph-name="uacute" unicode="&#xfa;" 
d="M320 679q13 0 20.5 -8.5t7.5 -19.5q0 -8 -5 -15l-68 -98h-36l52 121q9 20 29 20zM123 168q0 -69 37 -103.5t106 -34.5q64 0 102 33.5t38 99.5v338h45v-501h-44l3 59q-24 -33 -62.5 -51.5t-81.5 -18.5q-188 0 -188 184v328h45v-333z" />
    <glyph glyph-name="ucircumflex" unicode="&#xfb;" 
d="M412 579l-32 -32l-111 111l-116 -111l-31 32l148 141zM123 168q0 -69 37 -103.5t106 -34.5q64 0 102 33.5t38 99.5v338h45v-501h-44l3 59q-24 -33 -62.5 -51.5t-81.5 -18.5q-188 0 -188 184v328h45v-333z" />
    <glyph glyph-name="udieresis" unicode="&#xfc;" 
d="M123 168q0 -69 37 -103.5t106 -34.5q64 0 102 33.5t38 99.5v338h45v-501h-44l3 59q-24 -33 -62.5 -51.5t-81.5 -18.5q-188 0 -188 184v328h45v-333z" />
    <glyph glyph-name="yacute" unicode="&#xfd;" horiz-adv-x="520" 
d="M317 679q13 0 20.5 -8.5t7.5 -19.5q0 -8 -5 -15l-68 -98h-36l52 121q9 20 29 20zM121 166q0 -66 36.5 -101.5t103.5 -35.5q66 0 107 35.5t41 101.5v200q0 46 2.5 69.5t16 43.5t44.5 31l13 -31q-32 -18 -32 -76v-464q0 -61 -24 -96t-81 -53l-12 35q37 13 55.5 40t18.5 72
v123q-21 -38 -62 -55t-87 -17q-88 0 -135.5 47.5t-47.5 140.5v325h43v-335z" />
    <glyph glyph-name="thorn" unicode="&#xfe;" horiz-adv-x="490" 
d="M123 441q28 36 66.5 52t75.5 16q93 0 141.5 -54.5t48.5 -139.5q0 -94 -52 -146.5t-134 -52.5q-41 0 -83 21t-63 63v-200h-45v644h45v-203zM168 433q-43 -36 -45 -108q0 -81 40.5 -123.5t105.5 -42.5q60 0 100.5 39.5t40.5 119.5q0 77 -42 114t-99 37q-58 0 -101 -36z" />
    <glyph glyph-name="ydieresis" unicode="&#xff;" horiz-adv-x="520" 
d="M211.5 595.5q8.5 -8.5 8.5 -19.5t-8.5 -19t-19.5 -8t-19.5 8t-8.5 19t8.5 19.5t19.5 8.5t19.5 -8.5zM369.5 596q8.5 -8 8.5 -19t-8.5 -19.5t-19.5 -8.5t-19 8.5t-8 19.5t8 19t19 8t19.5 -8zM121 166q0 -66 36.5 -101.5t103.5 -35.5q66 0 107 35.5t41 101.5v200
q0 46 2.5 69.5t16 43.5t44.5 31l13 -31q-32 -18 -32 -76v-464q0 -61 -24 -96t-81 -53l-12 35q37 13 55.5 40t18.5 72v123q-21 -38 -62 -55t-87 -17q-88 0 -135.5 47.5t-47.5 140.5v325h43v-335z" />
    <glyph glyph-name="oe" unicode="&#x153;" horiz-adv-x="791" 
d="M126 461.5q48 50.5 138 50.5q55 0 95.5 -24.5t61.5 -67.5q22 42 63.5 66t97.5 24q82 0 128 -44.5t46 -123.5v-120l-310 -17v-71q0 -53 32.5 -79.5t86.5 -26.5q34 0 72.5 10.5t75.5 31.5l18 -35q-36 -22 -81.5 -34.5t-90.5 -12.5q-51 0 -88.5 21t-55.5 60
q-23 -37 -61.5 -58t-89.5 -21q-93 0 -139.5 55.5t-46.5 138.5v132q0 95 48 145.5zM161.5 69.5q38.5 -38.5 102.5 -38.5q63 0 99.5 38t36.5 100v152q0 75 -37.5 112.5t-98.5 37.5q-65 0 -103 -37.5t-38 -117.5v-142q0 -66 38.5 -104.5zM711 262v87q0 66 -40.5 94t-89.5 28
q-58 0 -96.5 -34t-38.5 -99v-88z" />
    <glyph glyph-name="zcaron" unicode="&#x17e;" horiz-adv-x="480" 
d="M266 653l112 111l31 -32l-142 -141l-148 141l31 32zM424 460l-291 -419h312v-41h-367v41l289 419h-280v41h337v-41z" />
    <glyph glyph-name="Scaron" unicode="&#x160;" horiz-adv-x="561" 
d="M301 846l112 111l31 -32l-142 -141l-148 141l31 32zM109 109q23 -34 65 -55.5t98 -21.5q83 0 137.5 37t54.5 118q0 46 -26.5 76t-65.5 48t-105 41q-70 24 -112 44t-71 54.5t-29 87.5q0 44 25 83.5t75.5 64t124.5 24.5q49 0 81 -7t65 -23l-14 -43q-57 29 -130 29
q-80 0 -130 -34t-50 -97q0 -37 24 -62.5t59.5 -41.5t98.5 -37q73 -25 118.5 -47t77.5 -60t32 -97q0 -92 -58.5 -146.5t-180.5 -54.5q-74 0 -126.5 27.5t-80 71t-29.5 90.5h46q3 -35 26 -69z" />
    <glyph glyph-name="OE" unicode="&#x152;" horiz-adv-x="822" 
d="M787 658h-289v-245h202l-15 -44h-187v-328h287v-41h-332v52q-29 -33 -72.5 -48t-91.5 -15q-54 0 -102 19.5t-78.5 63.5t-30.5 113v322q0 103 56.5 156t155.5 53q53 0 94.5 -17t68.5 -49v50h334v-42zM170.5 70.5q47.5 -38.5 117.5 -38.5q67 0 113 32.5t52 100.5v371
q-7 66 -50.5 101.5t-114.5 35.5q-77 0 -121 -41t-44 -118v-329q0 -76 47.5 -114.5z" />
    <glyph glyph-name="Zcaron" unicode="&#x17d;" horiz-adv-x="550" 
d="M301 846l112 111l31 -32l-142 -141l-148 141l31 32zM512 659l-424 -618h430v-41h-487v41l424 618h-411v41h468v-41z" />
    <glyph glyph-name="scaron" unicode="&#x161;" horiz-adv-x="473" 
d="M288 653l112 111l31 -32l-142 -141l-148 141l31 32zM341.5 454.5q-12.5 6.5 -33.5 12.5t-47 6q-54 0 -92 -26.5t-33 -76.5q3 -35 35 -53.5t95 -37.5q56 -18 90 -33.5t58 -45t24 -75.5q0 -60 -44.5 -100t-130.5 -40q-57 0 -98.5 19.5t-63 51.5t-23.5 71h43
q6 -47 45.5 -73.5t96.5 -26.5q52 0 91 25t39 72q0 32 -19 53t-46.5 33.5t-74.5 27.5q-50 16 -80.5 29.5t-53.5 37.5t-27 60q-1 5 -1 14q0 33 18 63.5t56.5 50.5t95.5 20q31 0 56 -6.5t39 -13.5t17 -9l-16 -38q-3 2 -15.5 8.5z" />
    <glyph glyph-name="Ydieresis" unicode="&#x178;" horiz-adv-x="556" 
d="M105 447q0 -76 49 -117t135 -41q65 0 112 29.5t57 82.5v299h46v-547q0 -70 -26.5 -110.5t-78.5 -49.5l-11 31q30 11 50 37.5t20 90.5v156q-27 -32 -76 -47.5t-93 -15.5q-106 0 -167.5 52.5t-61.5 155.5v247h45v-253z" />
    <glyph glyph-name="Upsilondieresis_alt" unicode="&#x3ab;" horiz-adv-x="506" 
d="M170.5 785.5q8.5 -8.5 8.5 -19.5t-8.5 -19t-19.5 -8t-19.5 8t-8.5 19t8.5 19.5t19.5 8.5t19.5 -8.5zM328.5 786q8.5 -8 8.5 -19t-8.5 -19.5t-19.5 -8.5t-19 8.5t-8 19.5t8 19t19 8t19.5 -8zM235 393l186 307h51l-214 -358v-342h-45v341l-213 359h51z" />
    <glyph glyph-name="quotedbl" unicode="&#x22;" horiz-adv-x="426" 
d="M127 512l-12 193q0 14 8.5 22t19.5 8t19.5 -8t8.5 -22l-11 -193h-33zM264 512l-12 193q0 14 8.5 22t19.5 8t19.5 -8t8.5 -22l-11 -193h-33z" />
    <glyph glyph-name="exclam" unicode="!" horiz-adv-x="214" 
d="M88 120l-9 559q0 15 7.5 23t20.5 8q12 0 19.5 -8t7.5 -23l-8 -559h-38zM125 47q8 -8 8 -19t-8 -19.5t-19 -8.5t-19.5 8.5t-8.5 19.5t8.5 19t19.5 8t19 -8z" />
    <glyph glyph-name="Euro" unicode="&#x20ac;" horiz-adv-x="529" 
d="M133 504q0 76 21.5 115t65.5 66q43 25 107 25q76 0 142 -33l-14 -32q-58 24 -115 24q-63 0 -112.5 -31.5t-49.5 -124.5v-100h220v-44h-220v-61h220v-44h-220v-79q0 -75 39.5 -114.5t114.5 -39.5q64 0 152 30l10 -38q-89 -33 -166 -33q-87 0 -141 46t-54 147v81h-55v44h55
v61h-55v44h55v91z" />
    <glyph glyph-name="dotlessi" unicode="&#x131;" horiz-adv-x="129" 
d="M86 0h-45v501h45v-501z" />
    <glyph glyph-name="uni0237" unicode="&#x237;" horiz-adv-x="161" 
d="M126 -77q-2 -54 -32.5 -91.5t-85.5 -40.5l-6 35q0 -3 22 6.5t40 34t18 69.5v521l-54 2l-20 42h118v-578z" />
    <glyph glyph-name="uni03BC" unicode="&#x3bc;" horiz-adv-x="519" 
d="M124 101q7 -9 29.5 -25.5t59 -31t79.5 -14.5q50 0 85 25.5t35 92.5v352l46 10v-443q0 -7 5.5 -21.5t20.5 -22.5l-22 -28q-8 0 -21 10.5t-20 29.5q-41 -47 -125 -47q-57 0 -95.5 16t-56 28t-20.5 14v-254l-46 7v702h46v-400z" />
    <glyph glyph-name="uni0394" unicode="&#x394;" horiz-adv-x="529" 
d="M517 0h-505l229 700h43zM456 41l-194 590l-190 -590h384z" />
    </font>
</defs>
</svg>
