<?xml version="1.0" standalone="no"?>
<!DOCTYPE svg PUBLIC "-//W3C//DTD SVG 1.1//EN" "http://www.w3.org/Graphics/SVG/1.1/DTD/svg11.dtd" >
<svg xmlns="http://www.w3.org/2000/svg" xmlns:xlink="http://www.w3.org/1999/xlink" version="1.1">
<metadata>
Created by FontForge 20170812 at Mon Sep 18 19:20:06 2017
 By www-data
Copyright (c) 2008 Andreas Kalpakidis (hello@inderesting.com), with Reserved Font Name "Advent Pro"
</metadata>
<defs>
<font id="AdventPro-Medium" horiz-adv-x="486" >
  <font-face 
    font-family="Advent Pro Medium"
    font-weight="500"
    font-stretch="normal"
    units-per-em="1000"
    panose-1="2 0 5 6 4 0 0 2 0 4"
    ascent="800"
    descent="-200"
    x-height="501"
    cap-height="700"
    bbox="-36 -219 1880 963"
    underline-thickness="50"
    underline-position="-100"
    unicode-range="U+0020-FB04"
  />
<missing-glyph horiz-adv-x="500" 
d="M0 700h500v-700h-500v700zM50 650v-600h400v600h-400zM250 305l-137 -205l-40 29l147 221l-147 221l40 29l137 -205l136 204l39 -32l-145 -217l145 -217l-39 -32z" />
    <glyph glyph-name="f_l" unicode="fl" horiz-adv-x="413" 
d="M305 614q-35 22 -69 22q-37 0 -61 -24t-24 -63v-48h106l-24 -68h-82v-433h-73v548q0 71 44.5 114.5t115.5 43.5q69 0 140 -40v-666h-73v614z" />
    <glyph glyph-name="w_w_w" unicode="www" horiz-adv-x="1900" 
d="M1545 364l-93 -364h-86q-41 130 -121 390l-122 -390h-86l-92 364l-93 -364h-86l-59 191q-25 83 -59 190q-80 -254 -119 -381h-86l-92 364l-93 -364h-86l-156 501h77l121 -409l63 251q9 35 40 158h71q14 -54 52 -204l51 -205q14 46 40 142q12 42 26.5 93t32.5 110l18 64
h80l60 -204l60 -205q18 67 52 205l52 204h71l51 -204l51 -205l118 409h84l121 -409l63 251q9 35 40 158h71l100 -406l121 406h77q-53 -167 -157 -501h-86z" />
    <glyph glyph-name="f_t" unicode="ft" horiz-adv-x="525" 
d="M333 35q-28 36 -28 97v482q-35 22 -69 22q-37 0 -61 -24t-24 -63v-48h106l-24 -68h-82v-433h-73v548q0 71 44.5 114.5t115.5 43.5q69 0 140 -40v-165h112l-24 -68h-88v-301q0 -71 68 -89l-21 -56q-64 12 -92 48z" />
    <glyph glyph-name="t_t" unicode="tt" horiz-adv-x="487" 
d="M278.5 434q-0.5 0 -0.5 -1h-161v-301q0 -37 17 -58.5t51 -30.5l-21 -56q-64 12 -92 48t-28 97v568h73v-199h162v199h72v-199h113l-24 -68h-89v-301q0 -37 17.5 -58.5t51.5 -30.5l-22 -56q-64 12 -91.5 48t-27.5 97v302h-0.5z" />
    <glyph glyph-name="f_f" unicode="ff" horiz-adv-x="554" 
d="M312 548q0 33 9 61q-32 23 -70 23q-41 0 -70.5 -25t-29.5 -63v-43h106l-24 -68h-82v-433h-73v543q0 72 44.5 116t115.5 44q60 0 124 -32q36 29 88 29q39 0 69 -15l-23 -64q-20 10 -41 10q-31 0 -51 -22.5t-20 -64.5v-43h106l-24 -68h-82v-433h-72v548z" />
    <glyph glyph-name="f_f_l" unicode="ffl" horiz-adv-x="643" 
d="M536 618q-31 16 -60 16q-39 0 -65.5 -24t-26.5 -60v-49h106l-24 -68h-82v-433h-72v548q0 33 9 61q-32 23 -70 23q-41 0 -70.5 -25t-29.5 -63v-43h106l-24 -68h-82v-433h-73v494q0 44 1 66q4 65 48 104.5t111 39.5q61 0 124 -33q43 35 110 35q37 0 73.5 -10t62.5 -24v-672
h-72v618z" />
    <glyph glyph-name="f_i" unicode="fi" horiz-adv-x="413" 
d="M78 548q0 48 21 84.5t56.5 56t77.5 19.5q68 0 125 -46l-52 -49q-34 23 -70 23t-60.5 -24t-24.5 -63v-48h106l-24 -68h-82v-433h-73v548zM306 501h72v-501h-72v501z" />
    <glyph glyph-name=".notdef" horiz-adv-x="500" 
d="M0 700h500v-700h-500v700zM50 650v-600h400v600h-400zM250 305l-137 -205l-40 29l147 221l-147 221l40 29l137 -205l136 204l39 -32l-145 -217l145 -217l-39 -32z" />
    <glyph glyph-name=".null" horiz-adv-x="0" 
 />
    <glyph glyph-name="nonmarkingreturn" horiz-adv-x="278" 
 />
    <glyph glyph-name="space" unicode=" " horiz-adv-x="278" 
 />
    <glyph glyph-name="numbersign" unicode="#" horiz-adv-x="613" 
d="M356 0h-72l42 183h-119l-42 -183h-70l42 183h-103v69h120l34 144h-154v73h171l54 231h70l-54 -231h119l54 231h73l-54 -231h115v-73h-133l-34 -144h167v-69h-183zM258 396l-34 -144h118l35 144h-119z" />
    <glyph glyph-name="dollar" unicode="$" horiz-adv-x="540" 
d="M235 -9q-63 7 -108 35t-68 68.5t-25 83.5l75 5q4 -43 38 -77.5t88 -42.5v290q-58 21 -96 42t-62.5 56t-24.5 87q0 39 20 75t61.5 61.5t101.5 32.5v110h72v-108q36 -2 62.5 -9t53.5 -20l-22 -68q-45 21 -94 24v-233q62 -24 104 -48.5t70 -64t28 -97.5q0 -85 -49.5 -139
t-152.5 -63v-105h-72v105zM156.5 600.5q-28.5 -25.5 -28.5 -65.5q0 -37 28 -60.5t79 -42.5v202q-50 -8 -78.5 -33.5zM397 102q34 31 34 84q0 51 -32 81t-92 56v-261q56 9 90 40z" />
    <glyph glyph-name="percent" unicode="%" horiz-adv-x="676" 
d="M590 741l55 -48l-562 -693l-49 49zM113 458.5q-33 19.5 -52.5 52.5t-19.5 72t19.5 72t52.5 52.5t72 19.5t72 -19.5t52.5 -52.5t19.5 -72t-19.5 -72t-52.5 -52.5t-72 -19.5t-72 19.5zM240.5 636q-21.5 23 -55.5 23t-55 -23t-21 -53t21 -53t55 -23t55.5 23t21.5 53
t-21.5 53zM424 8.5q-33 19.5 -52.5 52.5t-19.5 72t19.5 72t52.5 52.5t72 19.5t72 -19.5t52.5 -52.5t19.5 -72t-19.5 -72t-52.5 -52.5t-72 -19.5t-72 19.5zM551 186q-21 23 -55 23t-55 -23t-21 -53t21 -53t55 -23t55 23t21 53t-21 53z" />
    <glyph glyph-name="ampersand" unicode="&#x26;" horiz-adv-x="552" 
d="M416.5 18.5q-29.5 21.5 -42.5 54.5q-51 -84 -161 -84q-56 0 -96 26t-61 70t-21 96q0 103 58.5 158.5t138.5 88.5q-35 9 -59.5 46t-24.5 86q0 45 22.5 79t60 53t81.5 19q34 0 69 -12l-41 -61q-17 6 -33 6q-37 0 -61.5 -24t-24.5 -59q0 -46 30.5 -70.5t67.5 -24.5q6 0 18 2
l22 4v133l73 4v-125l73 16l16 -70l-89 -19v-257q0 -39 16 -68.5t50 -40.5l-16 -56q-36 8 -65.5 29.5zM185.5 328q-71.5 -43 -78.5 -127q-1 -7 -1 -20q0 -54 30 -87.5t84 -33.5q42 0 73.5 23.5t48.5 60t17 76.5v175q-102 -24 -173.5 -67z" />
    <glyph glyph-name="quoteright" unicode="&#x2019;" horiz-adv-x="114" 
d="M36 601q15 12 22 19.5t8 9.5l-11 3q-13 8 -17.5 19.5t-4.5 20.5q1 16 13 26.5t29 9.5q16 -1 27.5 -15t11.5 -29q0 -60 -65 -116l-49 28q21 12 36 24z" />
    <glyph glyph-name="parenleft" unicode="(" horiz-adv-x="297" 
d="M125 -72.5q-23 22.5 -35 56.5t-12 87v556q0 53 12 87.5t35 57.5t62 45l29 -52q-32 -19 -49 -51t-17 -87v-556q0 -59 17 -87.5t50 -51.5l-30 -50q-39 23 -62 45.5z" />
    <glyph glyph-name="parenright" unicode=")" horiz-adv-x="297" 
d="M128 -16.5q17 28.5 17 87.5v556q0 55 -17.5 87t-49.5 51l29 52q39 -23 62 -45.5t35.5 -57t12.5 -87.5v-556q0 -53 -12.5 -87t-35.5 -56.5t-62 -45.5l-29 50q33 23 50 51.5z" />
    <glyph glyph-name="asterisk" unicode="*" horiz-adv-x="352" 
d="M175 515l-57 -103l-61 43l73 86l-109 30l24 64l103 -48l-10 113h73l-10 -113l103 49l28 -66l-113 -29l75 -87l-60 -42z" />
    <glyph glyph-name="plus" unicode="+" horiz-adv-x="385" 
d="M158 343h-124v70h124v132h72v-132h124v-70h-124v-127h-72v127z" />
    <glyph glyph-name="comma" unicode="," horiz-adv-x="165" 
d="M44 -32q15 12 22 19.5t8 9.5l-11 3q-13 8 -17.5 19.5t-4.5 20.5q1 16 13 26.5t29 9.5q16 -1 27.5 -15t11.5 -29q0 -60 -65 -116l-49 28q21 12 36 24z" />
    <glyph glyph-name="hyphen" unicode="-" horiz-adv-x="410" 
d="M45 413h320v-70h-320v70z" />
    <glyph glyph-name="period" unicode="." horiz-adv-x="127" 
d="M19 11q-11 11 -11 27t11 27t27 11t27 -11t11 -27t-11 -27t-27 -11t-27 11z" />
    <glyph glyph-name="slash" unicode="/" horiz-adv-x="441" 
d="M345 817h76l-323 -931h-77z" />
    <glyph glyph-name="zero" unicode="0" horiz-adv-x="549" 
d="M421.5 36.5q-61.5 -47.5 -147.5 -47.5q-54 0 -102 19.5t-78.5 63.5t-30.5 113v322q0 103 56.5 156t155.5 53t153.5 -56t54.5 -154v-321q0 -101 -61.5 -148.5zM375.5 607q-35.5 36 -102.5 36t-102.5 -35.5t-35.5 -105.5v-311q0 -64 38 -97.5t100 -33.5t100 33.5t38 99.5
v309q0 69 -35.5 105z" />
    <glyph glyph-name="one" unicode="1" horiz-adv-x="221" 
d="M128 608q-14 -12 -34 -20t-35.5 -12t-19.5 -5l-18 66q0 -1 19.5 4t43.5 19t44 40h73v-700h-73v608z" />
    <glyph glyph-name="two" unicode="2" horiz-adv-x="399" 
d="M21 67l246 371q35 53 35 101q0 45 -30 73t-72 28q-35 0 -62 -22.5t-38 -57.5l-65 30q19 52 62 86t106 34q50 0 89.5 -21.5t61.5 -59t22 -84.5q0 -68 -44 -135l-227 -343h274v-67h-358v67z" />
    <glyph glyph-name="three" unicode="3" horiz-adv-x="431" 
d="M126 77.5q33 -18.5 71 -18.5q40 0 72.5 19.5t50.5 52t18 70.5q0 60 -42.5 99.5t-106.5 42.5h-110l192 285h-205v72h288v-67l-147 -220h3q54 -2 100 -30.5t73.5 -76t27.5 -105.5t-28.5 -107t-77.5 -77.5t-107 -28.5q-54 0 -101 25.5t-76 69.5l53 44q19 -31 52 -49.5z" />
    <glyph glyph-name="four" unicode="4" horiz-adv-x="500" 
d="M336 343h-315l193 357h75l-148 -287h195v287h72v-287h72l-19 -70h-53v-343h-72v343z" />
    <glyph glyph-name="five" unicode="5" horiz-adv-x="431" 
d="M198 60q41 0 73 19t49.5 51.5t17.5 70.5q0 40 -20 72.5t-55 51t-78 18.5h-134l38 357h266v-72h-200l-23 -215h66q58 0 107 -28.5t77.5 -77t28.5 -106.5t-28.5 -107t-77.5 -77.5t-107 -28.5q-54 0 -101 25.5t-76 69.5l53 45q47 -68 124 -68z" />
    <glyph glyph-name="six" unicode="6" horiz-adv-x="466" 
d="M44.5 570.5q23.5 54.5 78 92t142.5 37.5h35v-72h-35q-72 0 -122.5 -42.5t-50.5 -135.5v-102q20 30 59 47.5t82 17.5q58 0 107 -28.5t77.5 -77t28.5 -106.5t-28.5 -107t-77.5 -77.5t-107 -28.5t-106.5 28.5t-77 77.5t-28.5 107v260q0 55 23.5 109.5zM110.5 129.5
q18.5 -32.5 51 -51.5t71.5 -19q38 0 70.5 19t51.5 51.5t19 71.5t-19 71t-51.5 50.5t-70.5 18.5q-58 0 -99 -39t-42 -96v-5q0 -39 18.5 -71.5z" />
    <glyph glyph-name="seven" unicode="7" horiz-adv-x="441" 
d="M339 628h-313v72h394v-72l-311 -628h-79z" />
    <glyph glyph-name="eight" unicode="8" horiz-adv-x="467" 
d="M416 310.5q31 -49.5 31 -109.5q0 -58 -28.5 -107t-77.5 -77.5t-107 -28.5t-107 28.5t-77.5 77.5t-28.5 107q0 61 31 111t83 77q-35 24 -55 61.5t-20 82.5q0 48 23.5 88.5t63.5 64t88 23.5t88.5 -23.5t64 -64t23.5 -88.5q0 -45 -20.5 -83t-56.5 -62q51 -28 82 -77.5z
M308 459q32 30 32 74t-31 75t-74 31q-44 0 -75.5 -31t-31.5 -75q0 -43 29.5 -72.5t72.5 -31.5q46 0 78 30zM304.5 79q32.5 19 51 51.5t18.5 70.5q0 59 -40.5 99.5t-105.5 41.5q-57 -1 -96 -42t-39 -99q0 -38 19 -70.5t51 -51.5t71 -19q38 0 70.5 19z" />
    <glyph glyph-name="nine" unicode="9" horiz-adv-x="466" 
d="M167 69h39q46 0 84 20.5t61 61.5t23 100v91q-55 -57 -140 -57q-58 0 -107 28.5t-77.5 77t-28.5 106.5t28.5 107t77.5 77.5t107 28.5t106.5 -28.5t77 -77.5t28.5 -107v-258q0 -55 -23.5 -109.5t-78 -92t-142.5 -37.5h-35v69zM304 374.5q32 18.5 51 52t19 75.5
q0 37 -19 68.5t-51.5 50t-69.5 18.5q-39 0 -71.5 -19t-51.5 -52t-19 -71t19 -70.5t51.5 -51.5t71.5 -19q38 0 70 18.5z" />
    <glyph glyph-name="colon" unicode=":" horiz-adv-x="121" 
d="M33 351q-12 12 -12 28t12 27.5t28 11.5t27.5 -11.5t11.5 -27.5t-11.5 -28t-27.5 -12t-28 12zM88 122.5q-12 -11.5 -28 -11.5t-27.5 11.5t-11.5 27.5t11.5 28t27.5 12q17 0 28.5 -11.5t11.5 -28.5q0 -16 -12 -27.5z" />
    <glyph glyph-name="semicolon" unicode=";" horiz-adv-x="155" 
d="M67.5 241q-11.5 11 -11.5 27q0 17 11.5 28t27.5 11t27 -11.5t11 -27.5t-11 -27t-27 -11t-27.5 11zM56.5 -32q14.5 12 21.5 19.5t8 9.5l-10 3q-13 8 -17.5 19.5t-4.5 20.5q1 16 13 26.5t28 9.5q17 -1 28 -15t11 -29q1 -32 -16.5 -60.5t-48.5 -55.5l-48 28q21 12 35.5 24z
" />
    <glyph glyph-name="less" unicode="&#x3c;" horiz-adv-x="369" 
d="M21 358v1l278 278l49 -48l-232 -231l232 -232l-49 -46z" />
    <glyph glyph-name="equal" unicode="=" horiz-adv-x="361" 
d="M21 428h320v-70h-320v70zM21 308h320v-70h-320v70z" />
    <glyph glyph-name="greater" unicode="&#x3e;" horiz-adv-x="369" 
d="M253 358l-232 231l49 48l278 -278v-1l-278 -278l-49 46z" />
    <glyph glyph-name="question" unicode="?" horiz-adv-x="401" 
d="M152 212q0 46 11.5 80t28.5 57t44 52q28 30 39 46q29 41 29 85q0 46 -30.5 77t-71.5 31q-48 0 -78.5 -28t-30.5 -80h-72q0 48 20 88.5t60.5 64.5t97.5 24q50 0 91 -24.5t65 -65t24 -88.5q0 -59 -36 -111q-22 -31 -55 -64q-25 -25 -37.5 -43t-21 -49t-8.5 -82v-37v-26h-69
v93zM213 11q-11 -11 -27 -11t-27 11t-11 27t11 27t27 11t27 -11t11 -27t-11 -27z" />
    <glyph glyph-name="at" unicode="@" horiz-adv-x="726" 
d="M602.5 414q3.5 26 22 48.5t59.5 33.5l21 -54q-21 -8 -29 -26.5t-8 -45.5l1 -197q0 -91 -54.5 -146t-133 -78t-158.5 -23q-83 0 -152 29t-109.5 87t-40.5 141v159q0 106 58.5 161.5t134.5 71.5q49 11 99 11q96 0 159.5 -44.5t63.5 -142.5l37 -16v-66l-37 16v-242
q-128 -37 -211 -37q-164 0 -174 150v101q0 60 22 94t66 50q35 12 71 12q71 0 152 -37q-6 51 -45 74t-94 23q-101 0 -167 -43t-66 -140v-148q0 -103 69.5 -149.5t171.5 -46.5q71 0 132 18.5t98.5 56.5t37.5 93v179q0 47 3.5 73zM393.5 383q-38.5 11 -72.5 11q-45 0 -72.5 -22
t-27.5 -72v-85q0 -45 28.5 -71t85.5 -26q54 0 129 25v213q-32 16 -70.5 27z" />
    <glyph glyph-name="A" unicode="A" horiz-adv-x="527" 
d="M367 226h-208l-66 -226h-78l206 700h83l213 -700h-81zM178 300h171l-87 284z" />
    <glyph glyph-name="B" unicode="B" horiz-adv-x="546" 
d="M78 700h216q82 0 131.5 -43t49.5 -129q0 -39 -13 -74.5t-53 -62.5l-1 -2v-1q44 -20 73.5 -64.5t29.5 -115.5q0 -85 -48 -146.5t-158 -61.5h-227v700zM365.5 440q30.5 27 30.5 83q0 60 -32 83.5t-87 23.5h-127v-217h129q56 0 86.5 27zM393.5 98q37.5 31 37.5 113
q0 66 -37.5 99t-90.5 33h-153v-276h139q67 0 104.5 31z" />
    <glyph glyph-name="C" unicode="C" horiz-adv-x="434" 
d="M261 -10q-87 0 -141 46t-54 147v321q0 76 21.5 115t65.5 66q44 25 108 25q78 0 141 -33l-21 -57q-54 20 -105 20q-55 0 -96.5 -28t-41.5 -99v-328q0 -63 35 -94t99 -31q62 0 141 27l14 -64q-89 -33 -166 -33z" />
    <glyph glyph-name="D" unicode="D" horiz-adv-x="576" 
d="M78 701h188q113 0 172.5 -62t59.5 -165v-274q0 -200 -212 -200h-208v701zM382.5 595.5q-43.5 36.5 -106.5 36.5h-126v-567h120q67 0 111.5 25t44.5 100v294q0 75 -43.5 111.5z" />
    <glyph glyph-name="E" unicode="E" horiz-adv-x="465" 
d="M78 700h334v-69h-262v-218h175l-23 -70h-152v-278h260v-65h-332v700z" />
    <glyph glyph-name="F" unicode="F" horiz-adv-x="447" 
d="M78 700h334v-70h-262v-217h162l-27 -70h-135v-343h-72v700z" />
    <glyph glyph-name="G" unicode="G" horiz-adv-x="537" 
d="M404 31q-48 -41 -128 -41q-56 0 -104 21t-77.5 66t-29.5 112v314q0 70 22.5 112.5t64.5 68.5q44 25 108 25q78 0 141 -33l-21 -56q-54 20 -103 20q-140 0 -140 -128v-325q0 -61 38 -93.5t100 -32.5q58 0 94.5 33t36.5 92v44h-63l-24 70h157v-300h-60z" />
    <glyph glyph-name="H" unicode="H" horiz-adv-x="588" 
d="M436 343h-286v-343h-72v700h72v-287h286v287h72v-700h-72v343z" />
    <glyph glyph-name="I" unicode="I" horiz-adv-x="279" 
d="M130 632l-66 2v66h138v-700h-72v632z" />
    <glyph glyph-name="J" unicode="J" horiz-adv-x="207" 
d="M67 41.5q27 24.5 27 85.5v505l-65 2v66h137v-576q0 -80 -34.5 -120t-106.5 -41l-20 54q35 0 62 24.5z" />
    <glyph glyph-name="K" unicode="K" horiz-adv-x="492" 
d="M189 325l-35 -56v-269h-75v701h75v-306l205 306h85l-210 -310l258 -391h-88z" />
    <glyph glyph-name="L" unicode="L" horiz-adv-x="440" 
d="M78 700h72v-635h289v-65h-361v700z" />
    <glyph glyph-name="M" unicode="M" horiz-adv-x="694" 
d="M542 485l-163 -485h-68l-161 485v-485h-72v700h72l195 -569l197 569h72v-700h-72v485z" />
    <glyph glyph-name="N" unicode="N" horiz-adv-x="650" 
d="M150 560v-560h-72v700h72l347 -559v559h73v-700h-73z" />
    <glyph glyph-name="O" unicode="O" horiz-adv-x="549" 
d="M421.5 36.5q-61.5 -47.5 -147.5 -47.5q-54 0 -102 19.5t-78.5 63.5t-30.5 113v322q0 103 56.5 156t155.5 53t153.5 -56t54.5 -154v-321q0 -101 -61.5 -148.5zM375.5 607q-35.5 36 -102.5 36t-102.5 -35.5t-35.5 -105.5v-311q0 -64 38 -97.5t100 -33.5t100 33.5t38 99.5
v309q0 69 -35.5 105z" />
    <glyph glyph-name="P" unicode="P" horiz-adv-x="547" 
d="M78 700h241q98 0 145.5 -61t47.5 -160q0 -63 -11 -115.5t-52 -93t-123 -40.5h-176v-230h-72v700zM399.5 327.5q27.5 27.5 34 63.5t6.5 81q0 83 -33 120.5t-94 37.5h-163v-330h167q55 0 82.5 27.5z" />
    <glyph glyph-name="Q" unicode="Q" horiz-adv-x="549" 
d="M257 -10q-79 4 -136.5 50.5t-57.5 144.5v322q0 103 56.5 156t155.5 53t153.5 -56t54.5 -154v-321q0 -86 -44 -132.5t-109 -57.5q13 -16 36 -23t63 -7l-4 -66q-126 -1 -168 91zM375 609q-36 35 -102 35t-102 -34t-36 -97v-327q0 -51 28.5 -86.5t75.5 -39.5q-3 18 -3 57v57
h72v-56q0 -40 2 -57q47 5 74 39t27 87v326q0 61 -36 96z" />
    <glyph glyph-name="R" unicode="R" horiz-adv-x="564" 
d="M360 232q-18 -2 -32 -2h-178v-230h-72v700h243q96 0 143.5 -61t47.5 -160q0 -75 -15.5 -132.5t-69.5 -91.5l86 -255h-74zM399 328.5q26 28.5 32.5 65t6.5 82.5q0 154 -128 154h-160v-330h169q54 0 80 28.5z" />
    <glyph glyph-name="S" unicode="S" horiz-adv-x="561" 
d="M135.5 122.5q20.5 -28.5 55.5 -46t81 -17.5q71 0 116.5 32.5t45.5 94.5q0 44 -24 73.5t-59 47t-96 40.5q-65 24 -105 44.5t-67.5 56t-27.5 90.5q0 44 25 83.5t75.5 64t124.5 24.5q49 0 81 -7t65 -23l-22 -68q-62 27 -122 27q-71 0 -111.5 -28.5t-39.5 -77.5
q0 -30 21 -51.5t52 -36.5t84 -34q71 -26 116 -49.5t76.5 -65t31.5 -103.5q0 -92 -58.5 -148t-180.5 -56q-74 0 -126.5 27.5t-80 71t-29.5 90.5l75 5q3 -32 23.5 -60.5z" />
    <glyph glyph-name="T" unicode="T" horiz-adv-x="402" 
d="M162 632h-162v68h402v-68h-168v-632h-72v632z" />
    <glyph glyph-name="U" unicode="U" horiz-adv-x="566" 
d="M495 701v-515q0 -101 -61.5 -147t-148.5 -46t-149 46t-62 147v515h72v-507q0 -62 37.5 -98t100.5 -36q64 0 101.5 36t37.5 98v507h72z" />
    <glyph glyph-name="V" unicode="V" horiz-adv-x="591" 
d="M78 700h79l160 -587l159 587h80l-192 -700h-93z" />
    <glyph glyph-name="W" unicode="W" horiz-adv-x="809" 
d="M427 525l-95 -525h-98l-156 700h78l125 -576l107 576h78l107 -576l121 576h80l-154 -700h-97z" />
    <glyph glyph-name="X" unicode="X" horiz-adv-x="648" 
d="M341 279l-174 -279h-89l220 351l-203 349h83l164 -275l164 275h84l-204 -346l220 -354h-91z" />
    <glyph glyph-name="Y" unicode="Y" horiz-adv-x="556" 
d="M409 73.5q18 24.5 18 82.5v116q-24 -20 -63.5 -31t-78.5 -11q-105 0 -167 54.5t-62 156.5v259h73v-263q0 -67 42 -101.5t114 -34.5q55 0 93.5 21.5t48.5 60.5v317h73v-544q0 -152 -118 -167l-20 51q29 9 47 33.5z" />
    <glyph glyph-name="Z" unicode="Z" horiz-adv-x="550" 
d="M31 65l390 566h-377v69h468v-68l-390 -565h396v-67h-487v65z" />
    <glyph glyph-name="bracketleft" unicode="[" horiz-adv-x="319" 
d="M78 817h161v-63l-89 -10v-785l89 -10v-63h-161v931z" />
    <glyph glyph-name="backslash" unicode="\" horiz-adv-x="513" 
d="M72 817h76l324 -931h-77z" />
    <glyph glyph-name="bracketright" unicode="]" horiz-adv-x="319" 
d="M78 -51l89 10v785l-89 10v63h161v-931h-161v63z" />
    <glyph glyph-name="asciicircum" unicode="^" horiz-adv-x="403" 
d="M225 817l-101 -98l-46 39l148 141l142 -141l-47 -39z" />
    <glyph glyph-name="underscore" unicode="_" horiz-adv-x="350" 
d="M73 0h320v-61h-320v61z" />
    <glyph glyph-name="quoteleft" unicode="&#x2018;" horiz-adv-x="114" 
d="M76.5 609.5q4.5 -11.5 4.5 -20.5q-1 -16 -13 -26.5t-29 -9.5q-16 1 -27.5 15t-11.5 29q0 60 65 116l49 -28q-21 -12 -36 -24t-22 -19.5t-8 -9.5l11 -3q13 -8 17.5 -19.5z" />
    <glyph glyph-name="a" unicode="a" horiz-adv-x="458" 
d="M266 -11q-105 0 -167 39t-62 141v83q0 99 69 133q33 16 81 16q44 0 89 -13.5t74 -34.5q0 103 -141 103l5 53q96 0 141.5 -30.5t56 -72.5t10.5 -108v-298q-108 -11 -156 -11zM273 318.5q-42 13.5 -77 13.5q-87 0 -87 -86v-78q0 -114 156 -114q31 0 85 7v227
q-35 17 -77 30.5z" />
    <glyph glyph-name="b" unicode="b" horiz-adv-x="482" 
d="M426 71q-21 -35 -57 -53q-32 -16 -64.5 -23t-69.5 -7t-102 7l-55 5v700h72v-218q22 13 53 20t63 7q55 0 96 -19q85 -39 85 -144v-189q0 -51 -21 -86zM343.5 416q-32.5 25 -82.5 25q-30 0 -60 -8t-51 -21v-350q36 -7 79 -7q65 0 106 23.5t41 77.5v179q0 56 -32.5 81z" />
    <glyph glyph-name="c" unicode="c" horiz-adv-x="383" 
d="M238 -10q-54 0 -90 12q-59 20 -85.5 61.5t-26.5 116.5v128q0 99 52 150.5t134 51.5q65 0 134 -32l-20 -57q-57 22 -102 22q-57 0 -91.5 -32.5t-34.5 -96.5v-145q0 -59 38.5 -85.5t98.5 -26.5q47 0 96 13l17 -64q-62 -16 -120 -16z" />
    <glyph glyph-name="d" unicode="d" horiz-adv-x="482" 
d="M163 490q41 19 96 19q34 0 65 -7.5t51 -20.5v219h72v-700l-55 -5q-65 -7 -102 -7t-69.5 7t-64.5 23q-36 18 -57 53t-21 86v189q0 105 85 144zM321.5 433q-29.5 8 -57.5 8q-51 0 -83 -26t-32 -83v-178q0 -52 39 -75.5t103 -23.5q38 0 84 8v349q-24 13 -53.5 21z" />
    <glyph glyph-name="e" unicode="e" horiz-adv-x="434" 
d="M288 0q-46 -12 -92 -12q-74 0 -117.5 36.5t-43.5 109.5v205q0 81 50.5 126t133.5 45t129.5 -44.5t46.5 -123.5v-137l-288 -15v-52q0 -42 26 -63t71 -21q65 0 139 40l27 -59q-36 -23 -82 -35zM289 421.5q-33 22.5 -71 22.5q-50 0 -80.5 -27t-30.5 -79v-80l215 11v77
q0 53 -33 75.5z" />
    <glyph glyph-name="f" unicode="f" horiz-adv-x="303" 
d="M78 549q0 85 43 123.5t107 38.5q14 0 40 -4l-11 -64q-18 2 -25 2q-38 0 -59.5 -23.5t-21.5 -72.5v-48h106l-24 -68h-82v-433h-73v549z" />
    <glyph glyph-name="g" unicode="g" horiz-adv-x="448" 
d="M342 -58v103q-34 -57 -119 -57q-88 0 -137 48t-49 140v149q0 88 51.5 136.5t138.5 48.5q40 0 70.5 -13.5t47.5 -39.5l3 44h66v-565q0 -63 -28.5 -98t-93.5 -48l-18 56q68 19 68 96zM308.5 413.5q-33.5 28.5 -85.5 28.5q-49 0 -81.5 -30.5t-32.5 -91.5v-146
q0 -57 30 -87.5t84 -30.5t86.5 34.5t32.5 99.5v140q0 55 -33.5 83.5z" />
    <glyph glyph-name="h" unicode="h" horiz-adv-x="493" 
d="M361 332q0 59 -32 85t-82 26q-29 0 -59 -8t-52 -21v-414h-72v700h72v-219q21 13 52.5 20.5t65.5 7.5q57 0 94 -18q40 -18 62.5 -54t22.5 -91v-346h-72v332z" />
    <glyph glyph-name="i" unicode="i" horiz-adv-x="240" 
d="M90.5 640.5q-12.5 12.5 -12.5 28.5t12.5 28.5t29.5 12.5q16 0 28 -12t12 -29t-12 -29t-28 -12q-17 0 -29.5 12.5zM82 501h72v-501h-72v501z" />
    <glyph glyph-name="j" unicode="j" horiz-adv-x="206" 
d="M77.5 640q-12.5 12 -12.5 29t12.5 29t29.5 12t28.5 -12t11.5 -29t-12 -29t-28 -12q-17 0 -29.5 12zM22 437l-22 64h141v-576q-2 -57 -39.5 -95.5t-92.5 -38.5l-14 56q0 -3 20.5 6t37 31.5t16.5 65.5v482z" />
    <glyph glyph-name="k" unicode="k" horiz-adv-x="446" 
d="M179 298l-41 -36v-262h-72v700h72v-351l185 171l52 -50l-143 -124q73 -121 215 -346h-89z" />
    <glyph glyph-name="l" unicode="l" horiz-adv-x="230" 
d="M78 700h72v-700h-72v700z" />
    <glyph glyph-name="m" unicode="m" horiz-adv-x="737" 
d="M630 331q0 58 -26.5 85t-71.5 27q-35 0 -78 -16l-31 -15q13 -28 13 -63v-349h-72v330q0 58 -29.5 85t-76.5 27q-53 0 -108 -30v-412h-72v501h68l1 -25q58 32 118 32q74 0 120 -47q14 8 42 22q59 27 114 27q71 0 116 -43.5t45 -120.5v-346h-72v331z" />
    <glyph glyph-name="n" unicode="n" horiz-adv-x="500" 
d="M361 335q0 54 -32.5 80.5t-82.5 26.5q-28 0 -57 -7.5t-53 -21.5v-413h-72v501h68l1 -26q23 16 55.5 25t68.5 9q52 0 91 -18q40 -18 62.5 -54t22.5 -91v-346h-72v335z" />
    <glyph glyph-name="o" unicode="o" 
d="M405 45q-46 -55 -139 -55t-140.5 55.5t-47.5 138.5v132q0 95 48.5 145.5t139.5 50.5q87 0 136 -52.5t49 -143.5v-132q0 -84 -46 -139zM266 443q-53 0 -84.5 -30t-31.5 -97v-142q0 -54 31.5 -85.5t84.5 -31.5t83 31.5t30 85.5v142q0 127 -113 127z" />
    <glyph glyph-name="p" unicode="p" horiz-adv-x="490" 
d="M78 501h70l-1 -38q21 22 53 34t65 12q93 0 141.5 -54t48.5 -140v-139q0 -91 -51 -139.5t-135 -48.5q-41 0 -68.5 9.5t-50.5 32.5v-218l-72 -22v711zM350.5 411.5q-32.5 29.5 -81.5 29.5q-50 0 -83.5 -29t-35.5 -88v-151q0 -57 31 -86.5t88 -29.5q52 0 83 30.5t31 89.5
v142q0 63 -32.5 92.5z" />
    <glyph glyph-name="q" unicode="q" horiz-adv-x="448" 
d="M342 30q-22 -23 -50 -32.5t-69 -9.5q-84 0 -135 48.5t-51 139.5v138q0 86 48.5 140.5t141.5 54.5q34 0 64.5 -12.5t54.5 -35.5l-2 40h70v-711l-72 22v218zM305 413.5q-35 27.5 -82 27.5q-45 0 -79.5 -28.5t-34.5 -99.5v-143q0 -55 31.5 -84t82.5 -29q57 0 88 29.5
t31 87.5v147q-2 65 -37 92.5z" />
    <glyph glyph-name="r" unicode="r" horiz-adv-x="347" 
d="M61 501h70v-26q47 35 111 35q32 0 78 -10l-18 -68q-30 11 -63 11q-44 0 -75 -18.5t-31 -53.5v-371h-72v501z" />
    <glyph glyph-name="s" unicode="s" horiz-adv-x="431" 
d="M143 72.5q33 -20.5 78 -20.5q41 0 72.5 19.5t31.5 58.5q0 27 -15.5 45t-39 28.5t-64.5 24.5q-49 17 -78.5 30.5t-52 39.5t-27.5 67l-1 12q0 33 18.5 64.5t57 51.5t96.5 20q32 0 56.5 -6.5t38.5 -13.5t17 -9l-23 -63q-3 2 -13.5 8t-30.5 11.5t-45 5.5q-47 0 -74 -21
t-23 -57q3 -27 29.5 -42.5t80.5 -34.5q53 -18 86.5 -34.5t57 -47t23.5 -79.5q0 -62 -45 -103.5t-133 -41.5q-57 0 -98.5 19.5t-63 51.5t-23.5 71l70 3q4 -37 37 -57.5z" />
    <glyph glyph-name="t" unicode="t" horiz-adv-x="252" 
d="M72 35q-28 36 -28 97v568h73v-199h112l-24 -68h-88v-301q0 -71 68 -89l-21 -56q-64 12 -92 48z" />
    <glyph glyph-name="u" unicode="u" horiz-adv-x="447" 
d="M340 37q-21 -23 -52 -35.5t-64 -12.5q-188 0 -188 183v329h72v-329q0 -58 30 -86.5t86 -28.5q113 0 113 116v328h72v-501h-69v37z" />
    <glyph glyph-name="v" unicode="v" horiz-adv-x="433" 
d="M16 501h77l121 -402l122 402h77l-156 -501h-86z" />
    <glyph glyph-name="w" unicode="w" horiz-adv-x="706" 
d="M351 364l-93 -364h-86l-156 501h77l121 -402l103 402h71l103 -402l118 402h77l-157 -501h-86z" />
    <glyph glyph-name="x" unicode="x" horiz-adv-x="508" 
d="M272 180l-112 -180h-87l156 249l-156 252h86l114 -183l115 183h85l-158 -252l155 -249h-85z" />
    <glyph glyph-name="y" unicode="y" horiz-adv-x="488" 
d="M342 -61v96q-18 -24 -50 -35.5t-72 -11.5q-88 0 -135.5 47.5t-47.5 140.5v325h71v-323q0 -121 112 -121q121 0 121 121v185q0 59 18.5 96.5t71.5 50.5l23 -54q-21 -7 -31.5 -26t-10.5 -45v-446q0 -62 -26.5 -98t-87.5 -51l-23 56q67 20 67 93z" />
    <glyph glyph-name="z" unicode="z" horiz-adv-x="480" 
d="M78 66l255 368h-246v67h340v-65l-257 -369h275v-67h-367v66z" />
    <glyph glyph-name="braceleft" unicode="{" horiz-adv-x="325" 
d="M196 -67q-24 26 -34 71.5t-10 129.5v113q0 27 -21 52.5t-53 54.5q24 19 48 50t24 58v105q0 84 10 131.5t34.5 75t72.5 48.5l21 -54q-66 -35 -66 -132v-180q0 -26 -18.5 -53t-39.5 -48q60 -60 60 -102v-181q0 -55 17.5 -86t48.5 -46l-22 -56q-48 23 -72 49z" />
    <glyph glyph-name="bar" unicode="|" horiz-adv-x="230" 
d="M78 817h72v-931h-72v931z" />
    <glyph glyph-name="braceright" unicode="}" horiz-adv-x="325" 
d="M126.5 -14q17.5 31 17.5 86v181q0 42 60 102q-21 21 -39.5 48t-18.5 53v180q0 97 -66 132l21 54q48 -21 72.5 -48.5t34.5 -75t10 -131.5v-105q0 -27 24 -58t48 -50q-32 -29 -53 -54.5t-21 -52.5v-113q0 -84 -10 -129.5t-34 -71.5t-72 -49l-22 56q31 15 48.5 46z" />
    <glyph glyph-name="asciitilde" unicode="~" horiz-adv-x="523" 
d="M381 275q-33 0 -95 18q-31 9 -51.5 13.5t-39.5 4.5q-51 0 -86 -40l-31 48q46 56 112 56q21 0 43.5 -4.5t53.5 -13.5q23 -6 46.5 -11t41.5 -5q48 0 81 38l32 -48q-43 -56 -107 -56z" />
    <glyph glyph-name="exclamdown" unicode="&#xa1;" horiz-adv-x="240" 
d="M91.5 644.5q-11.5 11.5 -11.5 27.5t11.5 27t26.5 11q16 0 27.5 -11t11.5 -27t-11.5 -27.5t-27.5 -11.5q-15 0 -26.5 11.5zM147 590l13 -544q0 -20 -9.5 -33t-31.5 -13q-21 0 -30.5 13t-9.5 34l12 543h56z" />
    <glyph glyph-name="cent" unicode="&#xa2;" horiz-adv-x="435" 
d="M232 -7q-22 3 -42 9q-59 20 -85.5 61.5t-26.5 116.5v128q0 89 42.5 140t111.5 60v115h71v-116q45 -7 95 -29l-20 -57q-37 14 -75 19v-383q44 3 80 13l17 -64q-53 -13 -97 -16v-104h-71v107zM172 395q-22 -31 -22 -81v-145q0 -85 82 -106v374q-38 -11 -60 -42z" />
    <glyph glyph-name="fraction" unicode="&#x2044;" horiz-adv-x="511" 
d="M402 817h74l-320 -931h-78z" />
    <glyph glyph-name="yen" unicode="&#xa5;" horiz-adv-x="585" 
d="M278 238h-123v70h123v24l-14 26h-109v70h71l-148 272h79l148 -272h15l151 272h79l-149 -272h74v-70h-112l-13 -24v-26h125v-70h-125v-238h-72v238z" />
    <glyph glyph-name="section" unicode="&#xa7;" horiz-adv-x="588" 
d="M173.5 -65q19.5 -28 55.5 -46t84 -18q67 0 115.5 30t48.5 98q0 40 -23 66.5t-56.5 42.5t-93.5 38q-68 24 -109.5 45t-70.5 59t-29 96q0 57 33 99q-32 40 -32 95q0 44 25 83.5t75.5 64t124.5 24.5q49 0 81 -7t65 -23l-23 -68q-57 29 -121 29q-74 0 -113.5 -28.5
t-39.5 -77.5q0 -31 20.5 -52.5t51.5 -35.5t85 -33q71 -24 116.5 -46.5t77.5 -64t32 -105.5q0 -30 -6 -58.5t-17 -49.5q23 -35 23 -86q0 -92 -58.5 -147.5t-180.5 -55.5q-74 0 -126.5 27.5t-80 71t-29.5 90.5h74q2 -29 21.5 -57zM479 198q0 42 -25.5 70.5t-62 45.5t-96.5 38
q-43 15 -67.5 25.5t-43.5 23.5q-15 -23 -15 -59q0 -35 21.5 -58.5t54 -38.5t88.5 -34q52 -18 82.5 -30.5t56.5 -31.5q7 26 7 49z" />
    <glyph glyph-name="currency" unicode="&#xa4;" horiz-adv-x="475" 
d="M259 148q-56 0 -98 31l-34 -37l-45 46l33 34q-14 20 -22.5 46t-8.5 55q0 51 30 97l-34 35l48 46l32 -34q42 32 99 32q58 0 98 -30l33 33l48 -48l-34 -32q31 -47 31 -99q0 -29 -8 -52.5t-24 -49.5l34 -33l-45 -45l-35 35q-41 -30 -98 -30zM335 399.5q-32 31.5 -76 31.5
q-45 0 -76.5 -31.5t-31.5 -76.5q0 -44 31.5 -75t76.5 -31q44 0 76 31t32 75q0 45 -32 76.5z" />
    <glyph glyph-name="quotesingle" unicode="'" horiz-adv-x="173" 
d="M46 698q0 18 11.5 28t26.5 10t26 -10t11 -28l-14 -109h-47z" />
    <glyph glyph-name="quotedblleft" unicode="&#x201c;" horiz-adv-x="292" 
d="M121.5 613.5q4.5 -11.5 4.5 -20.5q-1 -16 -13 -26.5t-29 -9.5q-16 1 -27.5 15t-11.5 29q0 60 65 116l49 -28q-21 -12 -36 -24t-22 -19.5t-8 -9.5l11 -3q13 -8 17.5 -19.5zM235.5 613.5q4.5 -11.5 4.5 -20.5q-1 -16 -13 -26.5t-29 -9.5q-16 1 -27.5 15t-11.5 29
q0 60 65 116l49 -28q-21 -12 -36 -24t-22 -19.5t-8 -9.5l11 -3q13 -8 17.5 -19.5z" />
    <glyph glyph-name="guillemotleft" unicode="&#xab;" horiz-adv-x="498" 
d="M42 267v1l187 187l48 -48l-141 -140l139 -143l-46 -44zM262 267v1l187 187l48 -48l-141 -140l139 -143l-46 -44z" />
    <glyph glyph-name="guilsinglleft" unicode="&#x2039;" horiz-adv-x="278" 
d="M42 267v1l187 187l48 -48l-141 -140l139 -143l-46 -44z" />
    <glyph glyph-name="guilsinglright" unicode="&#x203a;" horiz-adv-x="294" 
d="M143 267l-141 140l48 48l187 -187v-1l-187 -187l-46 44z" />
    <glyph glyph-name="paragraph" unicode="&#xb6;" horiz-adv-x="685" 
d="M580 679l-68 1v-878h-71v444h-186q-82 0 -120.5 40.5t-47.5 96.5t-9 141q0 100 46 163t140 63h386v-949h-70v878z" />
    <glyph glyph-name="bullet" unicode="&#x2022;" horiz-adv-x="470" 
d="M166.5 182q-40.5 24 -64.5 65t-24 90t24 89.5t64.5 64.5t89.5 24t90 -24t65 -64.5t24 -89.5t-24 -90t-65 -65t-90 -24t-89.5 24z" />
    <glyph glyph-name="quotesinglbase" unicode="&#x201a;" horiz-adv-x="165" 
d="M44 -32q15 12 22 19.5t8 9.5l-11 3q-13 8 -17.5 19.5t-4.5 20.5q1 16 13 26.5t29 9.5q16 -1 27.5 -15t11.5 -29q0 -60 -65 -116l-49 28q21 12 36 24z" />
    <glyph glyph-name="quotedblbase" unicode="&#x201e;" horiz-adv-x="315" 
d="M102 -83l-49 28q21 12 36 24t22 19.5t8 9.5l-11 3q-13 8 -17.5 19.5t-4.5 20.5q1 15 11.5 25.5t26.5 10.5q19 0 31 -14q5 6 13 10t18 4q18 0 30 -14t12 -30q0 -60 -65 -116l-38 22zM163 5q-5 -21 -17 -39q15 11 23.5 20t10.5 12l-11 3q-4 2 -6 4z" />
    <glyph glyph-name="quotedblright" unicode="&#x201d;" horiz-adv-x="286" 
d="M46 601q15 12 22 19.5t8 9.5l-11 3q-13 8 -17.5 19.5t-4.5 20.5q1 16 13 26.5t29 9.5q16 -1 27.5 -15t11.5 -29q0 -60 -65 -116l-49 28q21 12 36 24zM162 601q15 12 22 19.5t8 9.5l-11 3q-13 8 -17.5 19.5t-4.5 20.5q1 16 13 26.5t29 9.5q16 -1 27.5 -15t11.5 -29
q0 -60 -65 -116l-49 28q21 12 36 24z" />
    <glyph glyph-name="guillemotright" unicode="&#xbb;" horiz-adv-x="514" 
d="M143 267l-141 140l48 48l187 -187v-1l-187 -187l-46 44zM363 267l-141 140l48 48l187 -187v-1l-187 -187l-46 44z" />
    <glyph glyph-name="ellipsis" unicode="&#x2026;" horiz-adv-x="485" 
d="M19 11q-11 11 -11 27t11 27t27 11t27 -11t11 -27t-11 -27t-27 -11t-27 11zM197 11q-11 11 -11 27t11 27t27 11t27 -11t11 -27t-11 -27t-27 -11t-27 11zM377 11q-11 11 -11 27t11 27t27 11t27 -11t11 -27t-11 -27t-27 -11t-27 11z" />
    <glyph glyph-name="perthousand" unicode="&#x2030;" horiz-adv-x="1048" 
d="M634 741l55 -48l-562 -693l-49 49zM157 458.5q-33 19.5 -52.5 52.5t-19.5 72t19.5 72t52.5 52.5t72 19.5t72 -19.5t52.5 -52.5t19.5 -72t-19.5 -72t-52.5 -52.5t-72 -19.5t-72 19.5zM284.5 636q-21.5 23 -55.5 23t-55 -23t-21 -53t21 -53t55 -23t55.5 23t21.5 53
t-21.5 53zM468 8.5q-33 19.5 -52.5 52.5t-19.5 72t19.5 72t52.5 52.5t72 19.5t72 -19.5t52.5 -52.5t19.5 -72t-19.5 -72t-52.5 -52.5t-72 -19.5t-72 19.5zM797 8.5q-33 19.5 -52.5 52.5t-19.5 72t19.5 72t52.5 52.5t72 19.5t72 -19.5t52.5 -52.5t19.5 -72t-19.5 -72
t-52.5 -52.5t-72 -19.5t-72 19.5zM595 186q-21 23 -55 23t-55 -23t-21 -53t21 -53t55 -23t55 23t21 53t-21 53zM923.5 185.5q-20.5 22.5 -54.5 22.5t-54.5 -22.5t-20.5 -52.5t20.5 -52.5t54.5 -22.5t54.5 22.5t20.5 52.5t-20.5 52.5z" />
    <glyph glyph-name="questiondown" unicode="&#xbf;" horiz-adv-x="472" 
d="M245 643.5q-11 11.5 -11 27.5t11 27t27 11t27.5 -11t11.5 -27t-11.5 -27.5t-27.5 -11.5t-27 11.5zM417 88.5q-20 -40.5 -60.5 -64.5t-97.5 -24q-50 0 -91 24.5t-65 65t-24 88.5q0 59 36 111q23 32 55 64q25 25 37.5 43t21 49t8.5 82v37v26h69v-93q0 -45 -11.5 -79
t-28 -57t-44.5 -53q-24 -26 -39 -47q-29 -42 -29 -84q0 -46 30.5 -77t71.5 -31q48 0 78.5 28t30.5 80h72q0 -48 -20 -88.5z" />
    <glyph glyph-name="grave" unicode="`" horiz-adv-x="222" 
d="M54 673q-8 11 -8 23q0 11 6 20t17 13q8 2 13 2q12 0 22 -6.5t16 -19.5l50 -115h-53z" />
    <glyph glyph-name="acute" unicode="&#xb4;" horiz-adv-x="222" 
d="M95 703q6 13 16.5 19.5t22.5 6.5q5 0 13 -2q11 -4 17 -13t6 -20q0 -12 -8 -23l-63 -83h-53z" />
    <glyph glyph-name="circumflex" unicode="&#x2c6;" horiz-adv-x="388" 
d="M193 688l-101 -98l-46 39l148 141l142 -141l-47 -39z" />
    <glyph glyph-name="tilde" unicode="&#x2dc;" horiz-adv-x="452" 
d="M326 598q-17 0 -33 5t-42 16q-23 10 -39 15.5t-32 5.5q-37 0 -73 -37l-29 47q45 52 95 52q18 0 34 -5t42 -16q26 -10 40 -14.5t29 -4.5q37 0 69 35l30 -47q-43 -52 -91 -52z" />
    <glyph glyph-name="macron" unicode="&#xaf;" horiz-adv-x="334" 
d="M78 687h221v-68h-221v68z" />
    <glyph glyph-name="breve" unicode="&#x2d8;" horiz-adv-x="324" 
d="M239 615.5q-33 -33.5 -80 -33.5q-46 0 -79.5 33.5t-33.5 79.5v5h56v-5q0 -25 16.5 -41.5t40.5 -16.5t40.5 16.5t16.5 41.5v5h56v-5q0 -46 -33 -79.5z" />
    <glyph glyph-name="dotaccent" unicode="&#x2d9;" horiz-adv-x="82" 
d="M13 656q-13 13 -13 29t12.5 28t29.5 12t28.5 -11.5t11.5 -28.5t-12 -29.5t-28 -12.5t-29 13z" />
    <glyph glyph-name="ring" unicode="&#x2da;" horiz-adv-x="222" 
d="M32.5 583.5q-32.5 32.5 -32.5 78.5t32.5 78.5t78.5 32.5t78.5 -32.5t32.5 -78.5t-32.5 -78.5t-78.5 -32.5t-78.5 32.5zM151 621.5q16 16.5 16 40.5t-16 40t-40 16t-40.5 -16t-16.5 -40t16.5 -40.5t40.5 -16.5t40 16.5z" />
    <glyph glyph-name="cedilla" unicode="&#xb8;" horiz-adv-x="254" 
d="M141 -159q16 -4 37 -4q24 0 43 10t19 31q0 15 -11 25t-29 10q-16 0 -37 -9l-37 -17l-22 35l61 78h50l-36 -49q14 7 36 7q34 0 58 -21t24 -59q0 -50 -39 -72.5t-90 -22.5q-40 0 -95 20l27 59q25 -17 41 -21z" />
    <glyph glyph-name="hungarumlaut" unicode="&#x2dd;" horiz-adv-x="245" 
d="M170 684q6 13 16.5 19.5t22.5 6.5q5 0 13 -2q11 -4 17 -13t6 -20q0 -12 -8 -23l-63 -83h-53zM49 683q6 13 16.5 19.5t22.5 6.5q5 0 13 -2q11 -4 17 -13t6 -20q0 -12 -8 -23l-63 -83h-53z" />
    <glyph glyph-name="ogonek" unicode="&#x2db;" horiz-adv-x="222" 
d="M223 -199q-24 -11 -59 -11q-30 0 -60 19.5t-30 66.5q0 66 95 127h61q-54 -45 -77 -73.5t-23 -49.5q0 -17 10.5 -27t26.5 -10q35 0 57 39l41 -42q-18 -28 -42 -39z" />
    <glyph glyph-name="caron" unicode="&#x2c7;" horiz-adv-x="388" 
d="M46 731l46 39l101 -97l96 97l47 -39l-142 -141z" />
    <glyph glyph-name="ordfeminine" unicode="&#xaa;" horiz-adv-x="382" 
d="M230 379q-72 0 -112 31.5t-40 108.5q0 52 27.5 82t73.5 30q51 0 105 -34q0 31 -23 48.5t-85 15.5l5 48q68 1 104 -16t49 -50t13 -88v-164q-82 -12 -117 -12zM186 575q-51 0 -51 -62q0 -40 24 -59t65 -19q26 0 60 8v98q-63 34 -98 34z" />
    <glyph glyph-name="Lslash" unicode="&#x141;" horiz-adv-x="592" 
d="M196 340l-92 -41l-26 59l118 53v289h72v-257l101 46l27 -59l-128 -58v-307h289v-65h-361v340z" />
    <glyph glyph-name="lslash" unicode="&#x142;" horiz-adv-x="431" 
d="M207 345l-103 -46l-26 59l129 58v216l-66 2v66h138v-252l90 41l27 -59l-117 -53v-377h-72v345z" />
    <glyph glyph-name="uni00B5" unicode="&#xb5;" horiz-adv-x="478" 
d="M379 0q-10 6 -19 20q-15 -16 -42 -24t-61 -8q-14 0 -21 1q-60 7 -91 23t-35 18v-240l-73 9v702h73v-394q6 -6 26.5 -18t51.5 -22.5t64 -10.5q92 0 92 110v332l73 12v-441q0 -5 6 -19t21 -23l-49 -33q-6 0 -16 6z" />
    <glyph glyph-name="trademark" unicode="&#x2122;" horiz-adv-x="579" 
d="M431 632l-40 -120h-31l-40 120v-120h-48v142h-56v-142h-48v142h-63v46h231l39 -108l38 108h64v-188h-46v120z" />
    <glyph glyph-name="plusminus" unicode="&#xb1;" horiz-adv-x="433" 
d="M78 296h126v59h-126v65h126v125h69v-125h125v-65h-125v-59h125v-68h-320v68z" />
    <glyph glyph-name="divide" unicode="&#xf7;" horiz-adv-x="433" 
d="M212.5 481q-11.5 12 -11.5 28t11.5 27.5t27.5 11.5t28 -11.5t12 -27.5t-11.5 -28t-28.5 -12q-16 0 -27.5 12zM78 417h320v-65h-320v65zM268 229.5q-12 -11.5 -28 -11.5t-27.5 11.5t-11.5 27.5t11.5 27.5t27.5 11.5t28 -11.5t12 -27.5t-12 -27.5z" />
    <glyph glyph-name="degree" unicode="&#xb0;" horiz-adv-x="401" 
d="M150 440.5q-33 19.5 -52.5 52.5t-19.5 72t19.5 72t52.5 52.5t72 19.5t72 -19.5t52.5 -52.5t19.5 -72t-19.5 -72t-52.5 -52.5t-72 -19.5t-72 19.5zM280.5 621.5q-22.5 24.5 -58.5 24.5t-58.5 -24.5t-22.5 -56.5q0 -33 22 -57t59 -24t59 24t22 57q0 32 -22.5 56.5z" />
    <glyph glyph-name="registered" unicode="&#xae;" horiz-adv-x="800" 
d="M213 -77.5q-86 49.5 -137 135.5t-51 191q0 104 50 189t136 134t190 49q103 0 188.5 -49t135 -134t49.5 -189q0 -105 -50.5 -191t-136 -135.5t-186.5 -49.5q-102 0 -188 49.5zM551.5 -17q68.5 39 108.5 108.5t40 157.5q0 83 -40 152t-109 109t-150 40q-83 0 -152 -38.5
t-109 -107t-40 -155.5q0 -89 40 -158.5t109 -108t152 -38.5q82 0 150.5 39zM397 229h-58v-190h-71v437h146q76 0 115 -33.5t39 -91.5q0 -47 -25.5 -75.5t-74.5 -39.5l109 -197h-79zM469.5 303q26.5 12 26.5 49q0 32 -24.5 47t-58.5 15h-74v-123h58q46 0 72.5 12z" />
    <glyph glyph-name="multiply" unicode="&#xd7;" horiz-adv-x="406" 
d="M224 281l-95 -117l-50 45l102 124l-103 125l50 42l96 -116l97 117l50 -42l-104 -126l104 -124l-50 -44z" />
    <glyph glyph-name="copyright" unicode="&#xa9;" horiz-adv-x="800" 
d="M213 -77.5q-86 49.5 -137 135.5t-51 191q0 104 50 189t136 134t190 49q103 0 188.5 -49t135 -134t49.5 -189q0 -105 -50.5 -191t-136 -135.5t-186.5 -49.5q-102 0 -188 49.5zM551.5 -17q68.5 39 108.5 108.5t40 157.5q0 83 -40 152t-109 109t-150 40q-83 0 -152 -38.5
t-109 -107t-40 -155.5q0 -89 40 -158.5t109 -108t152 -38.5q82 0 150.5 39zM529 59.5q-54 -43.5 -124 -43.5q-66 0 -114.5 30t-74 82.5t-25.5 118.5q0 62 25 114.5t73 84.5t114 32q73 0 128 -43t67 -112h-76q-8 34 -41.5 57t-77.5 23q-69 0 -103 -44t-34 -110
q0 -69 35.5 -114t102.5 -45q46 0 80 24t38 61h77q-16 -72 -70 -115.5z" />
    <glyph glyph-name="uni2206" unicode="&#x2206;" horiz-adv-x="618" 
d="M292 700h70l221 -700h-505zM174 65h311l-157 509z" />
    <glyph glyph-name="uni2126" unicode="&#x2126;" horiz-adv-x="627" 
d="M364 66q7 1 49 7.5t68 37.5t26 85v304q0 64 -33 100t-88 36h-101q-57 0 -89.5 -34.5t-32.5 -101.5v-304q0 -54 22.5 -81t46 -34t74.5 -15v-66h-228l17 66h51q-26 19 -40.5 48.5t-14.5 81.5v307q0 92 47 148t141 56h112q94 0 141 -56t47 -148v-307q0 -52 -15.5 -80.5
t-42.5 -49.5h54l17 -66h-228v66z" />
    <glyph glyph-name="pi" unicode="&#x3c0;" horiz-adv-x="511" 
d="M418 -1.5q-18 9.5 -32 29.5t-14 53l1 356h-235v-437h-72v501h379v-422q0 -4 7 -18.5t22 -23.5l-38 -46q0 -2 -18 7.5z" />
    <glyph glyph-name="uni00AD" unicode="&#xad;" horiz-adv-x="410" 
d="M45 413h320v-70h-320v70z" />
    <glyph glyph-name="Epsilontonos" unicode="&#x388;" horiz-adv-x="614" 
d="M127 683q6 13 16.5 19.5t22.5 6.5q5 0 13 -2q11 -4 17 -13t6 -20q0 -12 -8 -23l-63 -83h-53zM245 700h334v-69h-262v-218h175l-23 -70h-152v-278h260v-65h-332v700z" />
    <glyph glyph-name="Etatonos" unicode="&#x389;" horiz-adv-x="712" 
d="M127 683q6 13 16.5 19.5t22.5 6.5q5 0 13 -2q11 -4 17 -13t6 -20q0 -12 -8 -23l-63 -83h-53zM605 343h-286v-343h-72v700h72v-287h286v287h72v-700h-72v343z" />
    <glyph glyph-name="Iotatonos" unicode="&#x38a;" horiz-adv-x="407" 
d="M127 683q6 13 16.5 19.5t22.5 6.5q5 0 13 -2q11 -4 17 -13t6 -20q0 -12 -8 -23l-63 -83h-53zM300 632l-66 2v66h138v-700h-72v632z" />
    <glyph glyph-name="Omicrontonos" unicode="&#x38c;" horiz-adv-x="650" 
d="M553.5 36.5q-61.5 -47.5 -147.5 -47.5q-54 0 -102 19.5t-78.5 63.5t-30.5 113v322q0 103 56.5 156t155.5 53t153.5 -56t54.5 -154v-321q0 -101 -61.5 -148.5zM127 683q6 13 16.5 19.5t22.5 6.5q5 0 13 -2q11 -4 17 -13t6 -20q0 -12 -8 -23l-63 -83h-53zM507.5 607
q-35.5 36 -102.5 36t-102.5 -35.5t-35.5 -105.5v-311q0 -64 38 -97.5t100 -33.5t100 33.5t38 99.5v309q0 69 -35.5 105z" />
    <glyph glyph-name="Upsilontonos" unicode="&#x38e;" horiz-adv-x="716" 
d="M127 683q6 13 16.5 19.5t22.5 6.5q5 0 13 -2q11 -4 17 -13t6 -20q0 -12 -8 -23l-63 -83h-53zM590 73.5q18 24.5 18 82.5v116q-24 -20 -63.5 -31t-78.5 -11q-105 0 -167 54.5t-62 156.5v259h73v-263q0 -67 42 -101.5t114 -34.5q55 0 93.5 21.5t48.5 60.5v317h73v-544
q0 -152 -118 -167l-20 51q29 9 47 33.5z" />
    <glyph glyph-name="Omegatonos" unicode="&#x38f;" horiz-adv-x="721" 
d="M127 683q6 13 16.5 19.5t22.5 6.5q5 0 13 -2q11 -4 17 -13t6 -20q0 -12 -8 -23l-63 -83h-53zM458 66q7 1 49 7.5t68 37.5t26 85v304q0 64 -33 100t-88 36h-101q-57 0 -89.5 -34.5t-32.5 -101.5v-304q0 -54 22.5 -81t46 -34t74.5 -15v-66h-228l17 66h51q-26 19 -40.5 48.5
t-14.5 81.5v307q0 92 47 148t141 56h112q94 0 141 -56t47 -148v-307q0 -52 -15.5 -80.5t-42.5 -49.5h54l17 -66h-228v66z" />
    <glyph glyph-name="iotatonos" unicode="&#x3af;" horiz-adv-x="251" 
d="M141 653q6 13 16.5 19.5t22.5 6.5q5 0 13 -2q11 -4 17 -13t6 -20q0 -12 -8 -23l-63 -83h-53zM78 501h72v-501h-72v501z" />
    <glyph glyph-name="etatonos" unicode="&#x3ae;" horiz-adv-x="482" 
d="M298 653q6 13 16.5 19.5t22.5 6.5q5 0 13 -2q11 -4 17 -13t6 -20q0 -12 -8 -23l-63 -83h-53zM376 343q0 52 -31 76.5t-80 24.5q-29 0 -59 -8.5t-56 -22.5v-413h-72v501h69v-25q21 16 53.5 24.5t68.5 8.5q54 0 93 -18q40 -18 62.5 -54t22.5 -91v-556l-71 24v529z" />
    <glyph glyph-name="epsilontonos" unicode="&#x3ad;" horiz-adv-x="458" 
d="M274 653q6 13 16.5 19.5t22.5 6.5q5 0 13 -2q11 -4 17 -13t6 -20q0 -12 -8 -23l-63 -83h-53zM393 12q-24 -8 -61.5 -15.5t-78.5 -7.5q-77 0 -123 41t-51 102l-1 19q0 93 72 127q-20 11 -36 41.5t-16 66.5q0 12 1 18q8 54 52.5 80.5t106.5 26.5q52 0 95 -15l1 -65
q-49 15 -91 15q-92 0 -92 -69q0 -30 22 -53t60 -23h99l-23 -70h-83q-46 0 -71 -21.5t-25 -58.5q0 -44 29 -68t85 -24q34 0 64.5 7t49.5 14.5t24 9.5l21 -67q-6 -3 -30 -11z" />
    <glyph glyph-name="omegatonos" unicode="&#x3ce;" horiz-adv-x="645" 
d="M372 653q6 13 16.5 19.5t22.5 6.5q5 0 13 -2q11 -4 17 -13t6 -20q0 -12 -8 -23l-63 -83h-53zM518.5 408q-19.5 30 -55.5 43l40 49q53 -20 80 -67.5t27 -115.5v-129q0 -200 -161 -200q-31 0 -59 12.5t-46 40.5q-19 -27 -47 -40t-58 -13q-161 0 -161 200v129q0 68 27 115.5
t80 67.5l41 -49q-76 -26 -76 -124v-144q0 -64 24.5 -94t61.5 -30t53 26t18 84v130h73v-130q1 -58 17 -84t55 -26q38 0 62 30.5t24 93.5v144q0 51 -19.5 81z" />
    <glyph glyph-name="upsilontonos" unicode="&#x3cd;" horiz-adv-x="493" 
d="M298 653q6 13 16.5 19.5t22.5 6.5q5 0 13 -2q11 -4 17 -13t6 -20q0 -12 -8 -23l-63 -83h-53zM458 501v-329q0 -182 -192 -182q-188 0 -188 182v329h72v-318q0 -66 29 -95.5t87 -29.5q61 0 90.5 30t29.5 96v317h72z" />
    <glyph glyph-name="omicrontonos" unicode="&#x3cc;" 
d="M288 653q6 13 16.5 19.5t22.5 6.5q5 0 13 -2q11 -4 17 -13t6 -20q0 -12 -8 -23l-63 -83h-53zM405 45q-46 -55 -139 -55t-140.5 55.5t-47.5 138.5v132q0 95 48.5 145.5t139.5 50.5q87 0 136 -52.5t49 -143.5v-132q0 -84 -46 -139zM266 443q-53 0 -84.5 -30t-31.5 -97v-142
q0 -54 31.5 -85.5t84.5 -31.5t83 31.5t30 85.5v142q0 127 -113 127z" />
    <glyph glyph-name="alphatonos" unicode="&#x3ac;" horiz-adv-x="508" 
d="M286 653q6 13 16.5 19.5t22.5 6.5q5 0 13 -2q11 -4 17 -13t6 -20q0 -12 -8 -23l-63 -83h-53zM404 3.5q-10 2.5 -15 1.5q-78 -12 -121 -12q-86 0 -138 39t-52 137v185q0 82 41 118t107 36q69 0 147 -35l16 36l61 -23l-4 -44t-3 -53v-312q0 -4 7.5 -18.5t22.5 -23.5
l-52 -34q-7 0 -17 2.5zM234 440q-85 0 -85 -89v-174q0 -61 30 -89t95 -28q38 0 96 11v335q-85 34 -136 34z" />
    <glyph glyph-name="iotadieresis" unicode="&#x3ca;" horiz-adv-x="277" 
d="M82 549.5q-11 -10.5 -26 -10.5t-25.5 10.5t-10.5 25.5t10.5 26t25.5 11t26 -11t11 -26t-11 -25.5zM179.5 549.5q-10.5 10.5 -10.5 26.5q0 15 10.5 25.5t25.5 10.5t26 -10.5t11 -25.5q0 -16 -11 -26.5t-26 -10.5t-25.5 10.5zM96 501h72v-501h-72v501z" />
    <glyph glyph-name="upsilondieresis" unicode="&#x3cb;" horiz-adv-x="493" 
d="M221 549.5q-11 -10.5 -26 -10.5t-25.5 10.5t-10.5 25.5t10.5 26t25.5 11t26 -11t11 -26t-11 -25.5zM318.5 549.5q-10.5 10.5 -10.5 26.5q0 15 10.5 25.5t25.5 10.5t26 -10.5t11 -25.5q0 -16 -11 -26.5t-26 -10.5t-25.5 10.5zM458 501v-329q0 -182 -192 -182
q-188 0 -188 182v329h72v-318q0 -66 29 -95.5t87 -29.5q61 0 90.5 30t29.5 96v317h72z" />
    <glyph glyph-name="Iotadieresis" unicode="&#x3aa;" horiz-adv-x="375" 
d="M144 741.5q-11 -10.5 -26 -10.5t-25.5 10.5t-10.5 25.5t10.5 26t25.5 11t26 -11t11 -26t-11 -25.5zM241.5 741.5q-10.5 10.5 -10.5 26.5q0 15 10.5 25.5t25.5 10.5t26 -10.5t11 -25.5q0 -16 -11 -26.5t-26 -10.5t-25.5 10.5zM157 632l-66 2v66h138v-700h-72v632z" />
    <glyph glyph-name="Psi" unicode="&#x3a8;" horiz-adv-x="632" 
d="M283 212h-36q-95 0 -141.5 51.5t-46.5 142.5v294h72v-291q0 -68 29 -100.5t87 -32.5h36v424h74v-424h41q116 0 116 134v154q0 40 -5.5 62t-13.5 31.5t-27 27.5l62 24q27 -17 39 -41.5t14.5 -50.5t2.5 -68v-143q0 -91 -46.5 -142.5t-141.5 -51.5h-41v-212h-73z" />
    <glyph glyph-name="psi" unicode="&#x3c8;" horiz-adv-x="641" 
d="M302 -5h-36q-95 0 -141.5 51.5t-46.5 142.5v311h72v-303q0 -135 116 -135h36v438h73v-438h42q116 0 116 135v164q0 40 -6 63t-14.5 33t-26.5 27l63 22q27 -17 39 -41.5t14.5 -50.5t2.5 -68v-157q0 -91 -46.5 -142.5t-141.5 -51.5h-42v-214l-73 13v201z" />
    <glyph glyph-name="omega" unicode="&#x3c9;" horiz-adv-x="635" 
d="M506.5 408q-19.5 30 -55.5 43l40 49q53 -20 80 -67.5t27 -115.5v-129q0 -200 -161 -200q-31 0 -59 12.5t-46 40.5q-19 -27 -47 -40t-58 -13q-161 0 -161 200v129q0 68 27 115.5t80 67.5l41 -49q-76 -26 -76 -124v-144q0 -64 24.5 -94t61.5 -30t53 26t18 84v130h73v-130
q1 -58 17 -84t55 -26q38 0 62 30.5t24 93.5v144q0 51 -19.5 81z" />
    <glyph glyph-name="chi" unicode="&#x3c7;" horiz-adv-x="599" 
d="M451.5 -187q-31.5 26 -54.5 71l-102 208l-151 -296l-66 27l178 348l-162 330h80l122 -253l130 253h81l-173 -332l123 -254q15 -32 32.5 -48t32.5 -20.5t42 -8.5l-35 -50q-46 -1 -77.5 25z" />
    <glyph glyph-name="Chi" unicode="&#x3a7;" horiz-adv-x="641" 
d="M341 279l-174 -279h-89l220 351l-203 349h83l164 -275l164 275h84l-204 -346l220 -354h-91z" />
    <glyph glyph-name="phi" unicode="&#x3c6;" horiz-adv-x="640" 
d="M302 -5h-36q-95 0 -141.5 51.5t-46.5 142.5v125q0 74 29.5 122.5t86.5 66.5l39 -56q-40 -10 -61.5 -41t-21.5 -92v-117q0 -135 116 -135h36v339q3 50 35.5 78t80.5 28q87 0 137 -54.5t50 -145.5v-118q0 -91 -46.5 -142.5t-141.5 -51.5h-41v-211l-73 13zM501.5 412.5
q-31.5 31.5 -71.5 31.5q-28 0 -41 -17t-13 -39v-326h41q116 0 116 134v119q0 66 -31.5 97.5z" />
    <glyph glyph-name="upsilon" unicode="&#x3c5;" horiz-adv-x="483" 
d="M446 501v-329q0 -182 -192 -182q-188 0 -188 182v329h72v-318q0 -66 29 -95.5t87 -29.5q61 0 90.5 30t29.5 96v317h72z" />
    <glyph glyph-name="Upsilon" unicode="&#x3a5;" horiz-adv-x="556" 
d="M413 73.5q18 24.5 18 82.5v116q-24 -20 -63.5 -31t-78.5 -11q-105 0 -167 54.5t-62 156.5v259h73v-263q0 -67 42 -101.5t114 -34.5q55 0 93.5 21.5t48.5 60.5v317h73v-544q0 -152 -118 -167l-20 51q29 9 47 33.5z" />
    <glyph glyph-name="Tau" unicode="&#x3a4;" horiz-adv-x="515" 
d="M240 632h-162v68h402v-68h-168v-632h-72v632z" />
    <glyph glyph-name="tau" unicode="&#x3c4;" horiz-adv-x="414" 
d="M217.5 37q-27.5 36 -27.5 95v300h-112v68h301v-68h-117v-296q0 -38 15.5 -62t49.5 -36l-25 -53q-57 16 -84.5 52z" />
    <glyph glyph-name="Sigma" unicode="&#x3a3;" horiz-adv-x="581" 
d="M304 384l-210 318h428l-23 -71h-273l164 -244l-191 -321h190q77 0 99 66l58 -26q-16 -56 -51 -81t-94 -25h-323z" />
    <glyph glyph-name="sigma" unicode="&#x3c3;" horiz-adv-x="545" 
d="M266 -19q-95 0 -141.5 51.5t-46.5 142.5v179q0 81 47.5 117t121.5 36q26 0 39 -2q40 -5 62 -5q33 0 58 9.5t52 33.5l52 -30q-33 -61 -96 -77q15 -13 26 -46t11 -80v-135q0 -194 -185 -194zM369 373q-9 29 -20 44.5t-14 15.5q-52 9 -82 9q-49 0 -76 -22.5t-27 -76.5v-168
q0 -62 31 -93t85 -31q55 0 83.5 29.5t28.5 94.5v130q0 39 -9 68z" />
    <glyph glyph-name="uni03C2" unicode="&#x3c2;" horiz-adv-x="417" 
d="M316 -76q0 43 -41 70l-24 15q-59 37 -93 64t-57 65t-23 89v140q0 32 16.5 63.5t55 53t100.5 21.5q32 0 56.5 -6t38.5 -12.5t17 -8.5l-21 -61q-3 2 -14 7.5t-31 11t-45 5.5q-46 0 -73.5 -24t-27.5 -65v-103q0 -46 13.5 -75t46 -56t102.5 -71q35 -22 52 -54t17 -67
q0 -44 -22 -75l-55 33q12 19 12 40z" />
    <glyph glyph-name="Rho" unicode="&#x3a1;" horiz-adv-x="547" 
d="M78 700h241q98 0 145.5 -61t47.5 -160q0 -63 -11 -115.5t-52 -93t-123 -40.5h-176v-230h-72v700zM399.5 327.5q27.5 27.5 34 63.5t6.5 81q0 83 -33 120.5t-94 37.5h-163v-330h167q55 0 82.5 27.5z" />
    <glyph glyph-name="rho" unicode="&#x3c1;" 
d="M78 315q0 89 49 140.5t138 51.5q96 0 141 -53.5t45 -146.5v-135q0 -88 -46.5 -135t-138.5 -47q-79 0 -117 42v-227l-71 -16v526zM264 440q-50 0 -82 -29.5t-32 -101.5v-136q0 -59 30.5 -87.5t85.5 -28.5q112 0 112 116v135q0 132 -114 132z" />
    <glyph glyph-name="Pi" unicode="&#x3a0;" horiz-adv-x="581" 
d="M438 628h-286v-628h-72v700h430v-700h-72v628z" />
    <glyph glyph-name="Omicron" unicode="&#x39f;" horiz-adv-x="543" 
d="M420.5 36.5q-61.5 -47.5 -147.5 -47.5q-54 0 -102 19.5t-78.5 63.5t-30.5 113v322q0 103 56.5 156t155.5 53t153.5 -56t54.5 -154v-321q0 -101 -61.5 -148.5zM374.5 607q-35.5 36 -102.5 36t-102.5 -35.5t-35.5 -105.5v-311q0 -64 38 -97.5t100 -33.5t100 33.5t38 99.5
v309q0 69 -35.5 105z" />
    <glyph glyph-name="omicron" unicode="&#x3bf;" 
d="M405 45q-46 -55 -139 -55t-140.5 55.5t-47.5 138.5v132q0 95 48.5 145.5t139.5 50.5q87 0 136 -52.5t49 -143.5v-132q0 -84 -46 -139zM266 443q-53 0 -84.5 -30t-31.5 -97v-142q0 -54 31.5 -85.5t84.5 -31.5t83 31.5t30 85.5v142q0 127 -113 127z" />
    <glyph glyph-name="xi" unicode="&#x3be;" horiz-adv-x="415" 
d="M309 1q-32 -4 -48 -4q-79 0 -131 40t-52 127v184q0 47 19.5 82t49.5 55.5t62 25.5q-34 31 -34 80q0 47 33 82t92 35h45l-21 -71h-29q-22 0 -35 -14t-13 -35q0 -18 10 -35t29 -29q21 -13 44.5 -21t27.5 -9l-21 -60q-43 12 -76 12q-50 0 -81 -26t-31 -83v-167
q0 -55 32 -80.5t85 -25.5q49 0 114 20v-276l-71 -26v219z" />
    <glyph glyph-name="Xi" unicode="&#x39e;" horiz-adv-x="622" 
d="M131 569l-53 26q16 56 51 81t94 25h325l-21 -70h-298q-77 0 -98 -62zM205 413h264v-70h-264v70zM141 67h289q38 0 62.5 15.5t36.5 49.5l58 -26q-16 -56 -51 -81t-94 -25h-325z" />
    <glyph glyph-name="Nu" unicode="&#x39d;" horiz-adv-x="643" 
d="M152 560v-560h-72v700h72l347 -559v559h73v-700h-73z" />
    <glyph glyph-name="nu" unicode="&#x3bd;" horiz-adv-x="509" 
d="M78 501h77l121 -402l122 402h77l-156 -501h-86z" />
    <glyph glyph-name="Mu" unicode="&#x39c;" horiz-adv-x="687" 
d="M544 485l-163 -485h-68l-161 485v-485h-72v700h72l195 -569l197 569h72v-700h-72v485z" />
    <glyph glyph-name="Lambda" unicode="&#x39b;" horiz-adv-x="526" 
d="M265 565l-172 -565h-78l216 700h68l221 -700h-80z" />
    <glyph glyph-name="lambda" unicode="&#x3bb;" horiz-adv-x="582" 
d="M430 27.5q-25 29.5 -41 81.5l-94 313q-19 -11 -29.5 -34t-21.5 -65l-91 -323h-75l108 372q14 42 27 65t23.5 32.5t34.5 28.5l-23 71q-13 38 -33.5 55.5t-55.5 19.5l9 56q61 1 94 -23.5t53 -83.5l139 -459q13 -41 28 -61.5t26.5 -27t38.5 -17.5l-46 -41q-46 11 -71 40.5z
" />
    <glyph glyph-name="kappa" unicode="&#x3ba;" horiz-adv-x="493" 
d="M386.5 14q-26.5 15 -45.5 36.5t-47 59.5l-97 133l-47 -46v-197h-72v512l72 -13v-207l192 209h93l-187 -204l119 -167q28 -38 48.5 -52.5t40.5 -15.5l-8 -63q-35 0 -61.5 15z" />
    <glyph glyph-name="Kappa" unicode="&#x39a;" horiz-adv-x="526" 
d="M188 325l-35 -56v-269h-75v701h75v-306l205 306h85l-210 -310l258 -391h-88z" />
    <glyph glyph-name="Iota" unicode="&#x399;" horiz-adv-x="289" 
d="M145 632l-66 2v66h138v-700h-72v632z" />
    <glyph glyph-name="iota" unicode="&#x3b9;" horiz-adv-x="175" 
d="M66 501h72v-501h-72v501z" />
    <glyph glyph-name="theta" unicode="&#x3b8;" horiz-adv-x="503" 
d="M392.5 48q-49.5 -54 -140.5 -54q-92 1 -141 54.5t-49 142.5v150q2 64 53 97q-34 59 -34 118q0 67 45 110.5t124 43.5q95 -2 143.5 -56t48.5 -149v-314q0 -89 -49.5 -143zM276.5 499.5q51.5 8.5 93.5 6.5q0 71 -33.5 103t-84.5 32q-48 0 -72.5 -24.5t-24.5 -63.5t25 -83
q45 21 96.5 29.5zM266.5 424.5q-55.5 -13.5 -94 -37.5t-38.5 -55v-147q0 -56 35 -87.5t82 -31.5q49 0 84 32.5t35 89.5v248q-48 2 -103.5 -11.5z" />
    <glyph glyph-name="Theta" unicode="&#x398;" horiz-adv-x="578" 
d="M481.5 36.5q-61.5 -47.5 -147.5 -47.5q-54 0 -102 19.5t-78.5 63.5t-30.5 113v322q0 103 56.5 156t155.5 53t153.5 -56t54.5 -154v-321q0 -101 -61.5 -148.5zM435.5 607q-35.5 36 -102.5 36t-102.5 -35.5t-35.5 -105.5v-128h276v128q0 69 -35.5 105zM195 303v-112
q0 -64 38 -97.5t100 -33.5t100 33.5t38 99.5v110h-276z" />
    <glyph glyph-name="Eta" unicode="&#x397;" horiz-adv-x="581" 
d="M438 343h-286v-343h-72v700h72v-287h286v287h72v-700h-72v343z" />
    <glyph glyph-name="eta" unicode="&#x3b7;" horiz-adv-x="482" 
d="M376 343q0 52 -31 76.5t-80 24.5q-29 0 -59 -8.5t-56 -22.5v-413h-72v501h69v-25q21 16 53.5 24.5t68.5 8.5q54 0 93 -18q40 -18 62.5 -54t22.5 -91v-556l-71 24v529z" />
    <glyph glyph-name="zeta" unicode="&#x3b6;" horiz-adv-x="478" 
d="M335 6q-32 -7 -66 -7q-78 0 -128 38.5t-60 100.5q-3 18 -3 38q0 40 9.5 82.5t26.5 77.5q43 88 101 161t123 137h-192v66h272l25 -64q-58 -46 -124.5 -123t-114.5 -164q-23 -41 -37 -84t-14 -81q0 -57 33 -87q34 -30 97 -30q53 0 124 19v-269l-72 -26v215z" />
    <glyph glyph-name="Zeta" unicode="&#x396;" horiz-adv-x="600" 
d="M78 65l390 566h-377v69h468v-68l-390 -565h396v-67h-487v65z" />
    <glyph glyph-name="Epsilon" unicode="&#x395;" horiz-adv-x="447" 
d="M78 700h334v-69h-262v-218h175l-23 -70h-152v-278h260v-65h-332v700z" />
    <glyph glyph-name="epsilon" unicode="&#x3b5;" horiz-adv-x="458" 
d="M393 12q-24 -8 -61.5 -15.5t-78.5 -7.5q-77 0 -123 41t-51 102l-1 19q0 93 72 127q-20 11 -36 41.5t-16 66.5q0 12 1 18q8 54 52.5 80.5t106.5 26.5q52 0 95 -15l1 -65q-49 15 -91 15q-92 0 -92 -69q0 -30 22 -53t60 -23h99l-23 -70h-83q-46 0 -71 -21.5t-25 -58.5
q0 -44 29 -68t85 -24q34 0 64.5 7t49.5 14.5t24 9.5l21 -67q-6 -3 -30 -11z" />
    <glyph glyph-name="delta" unicode="&#x3b4;" 
d="M266 -10q-95 0 -141.5 51.5t-46.5 142.5v126q0 78 32.5 126.5t89.5 62.5q-18 18 -28 41.5t-10 48.5q0 48 34 82t97 34h48l-21 -70h-36q-19 0 -32.5 -14t-13.5 -34q0 -16 10 -32.5t31 -30.5q61 -42 94.5 -70.5t55.5 -69t22 -96.5v-104q0 -194 -185 -194zM354 370.5
q-25 45.5 -88 76.5q-61 -5 -88.5 -41.5t-27.5 -102.5v-128q0 -58 32.5 -88t83.5 -30t82 28t31 90v112q0 38 -25 83.5z" />
    <glyph glyph-name="Gamma" unicode="&#x393;" horiz-adv-x="447" 
d="M78 700h334v-70h-262v-630h-72v700z" />
    <glyph glyph-name="gamma" unicode="&#x3b3;" horiz-adv-x="479" 
d="M185.5 -165q-7.5 20 -7.5 43q0 26 9 52l23 73q-4 3 -22.5 17t-33.5 40.5t-29 68.5l-108 372h75l91 -323q11 -42 21.5 -65.5t28.5 -34.5l95 314q16 53 40.5 82t70.5 40l47 -42q-5 -2 -25.5 -9.5t-37.5 -31t-30 -64.5l-123 -411q-19 -54 -19 -83q0 -19 12 -41l-55 -30
q-15 13 -22.5 33z" />
    <glyph glyph-name="beta" unicode="&#x3b2;" horiz-adv-x="483" 
d="M78 537q0 76 37 120t108 44q40 0 70.5 -18.5t46.5 -48.5t16 -63q0 -48 -33 -80q54 -12 89.5 -53.5t35.5 -107.5v-184q0 -165 -206 -165q-43 0 -92 7v-149h-72v698zM243 507q20 6 30 21.5t10 34.5q0 26 -17 46.5t-44 20.5q-37 0 -54.5 -23.5t-17.5 -70.5v-66q44 22 93 37z
M345.5 402.5q-31.5 26.5 -82.5 26.5q-57 0 -113 -27v-344q61 -9 96 -9q62 0 96.5 24.5t34.5 85.5v159q0 58 -31.5 84.5z" />
    <glyph glyph-name="Beta" unicode="&#x392;" horiz-adv-x="546" 
d="M78 700h216q82 0 131.5 -43t49.5 -129q0 -39 -13 -74.5t-53 -62.5l-1 -2v-1q44 -20 73.5 -64.5t29.5 -115.5q0 -85 -48 -146.5t-158 -61.5h-227v700zM365.5 440q30.5 27 30.5 83q0 60 -32 83.5t-87 23.5h-127v-217h129q56 0 86.5 27zM393.5 98q37.5 31 37.5 113
q0 66 -37.5 99t-90.5 33h-153v-276h139q67 0 104.5 31z" />
    <glyph glyph-name="Alpha" unicode="&#x391;" horiz-adv-x="523" 
d="M367 226h-208l-66 -226h-78l206 700h83l213 -700h-81zM178 300h171l-87 284z" />
    <glyph glyph-name="alpha" unicode="&#x3b1;" horiz-adv-x="508" 
d="M404 3.5q-10 2.5 -15 1.5q-78 -12 -121 -12q-86 0 -138 39t-52 137v185q0 82 41 118t107 36q69 0 147 -35l16 36l61 -23l-4 -44t-3 -53v-312q0 -4 7.5 -18.5t22.5 -23.5l-52 -34q-7 0 -17 2.5zM234 440q-85 0 -85 -89v-174q0 -61 30 -89t95 -28q38 0 96 11v335
q-85 34 -136 34z" />
    <glyph glyph-name="upsilondieresistonos" unicode="&#x3b0;" horiz-adv-x="493" 
d="M287 692q6 13 16.5 19.5t21.5 6.5q17 0 26.5 -10t9.5 -24q0 -12 -8 -23l-63 -84h-53zM152.5 552q-10.5 11 -10.5 26t10.5 25.5t25.5 10.5t25.5 -10.5t10.5 -25.5t-10.5 -26t-25.5 -11t-25.5 11zM327 552q-11 11 -11 26t11 25.5t26 10.5t26 -10.5t11 -25.5t-11 -26
t-26 -11t-26 11zM458 501v-329q0 -182 -192 -182q-188 0 -188 182v329h72v-318q0 -66 29 -95.5t87 -29.5q61 0 90.5 30t29.5 96v317h72z" />
    <glyph glyph-name="iotadieresistonos" unicode="&#x390;" horiz-adv-x="361" 
d="M223 692q6 13 16.5 19.5t22.5 6.5q16 0 25.5 -10t9.5 -24t-8 -23l-63 -84h-52zM88.5 552q-10.5 11 -10.5 26t10.5 25.5t25.5 10.5t26 -10.5t11 -25.5t-11 -26t-26 -11t-25.5 11zM263.5 552q-10.5 11 -10.5 26t10.5 25.5t25.5 10.5q16 0 26.5 -10.5t10.5 -25.5t-10.5 -26
t-26.5 -11q-15 0 -25.5 11zM165 501h72v-501h-72v501z" />
    <glyph glyph-name="Alphatonos" unicode="&#x386;" horiz-adv-x="619" 
d="M131 683q6 13 16.5 19.5t22.5 6.5q5 0 13 -2q11 -4 17 -13t6 -20q0 -12 -8 -23l-63 -83h-53zM434 226h-208l-66 -226h-78l206 700h83l213 -700h-81zM245 300h171l-87 284z" />
    <glyph glyph-name="sterling" unicode="&#xa3;" horiz-adv-x="473" 
d="M78 65q53 18 83.5 61t30.5 99q0 29 -14 78h-77v71h54q-15 45 -22.5 76.5t-7.5 64.5q0 58 25 102t69 68t99 24q69 0 109 -25l-23 -64q-40 22 -86 22q-56 0 -89 -37.5t-33 -91.5q0 -25 8 -54.5t26 -84.5h191v-71h-168q13 -50 12 -82q-6 -97 -71 -152h244v-69h-360v65z" />
    <glyph glyph-name="Hcircumflex" unicode="&#x124;" horiz-adv-x="588" 
d="M317 830l-101 -98l-46 39l148 141l142 -141l-47 -39zM436 343h-286v-343h-72v700h72v-287h286v287h72v-700h-72v343z" />
    <glyph glyph-name="Cdotaccent" unicode="&#x10a;" horiz-adv-x="434" 
d="M237 743q-13 13 -13 29t12.5 28t29.5 12t28.5 -11.5t11.5 -28.5t-12 -29.5t-28 -12.5t-29 13zM261 -10q-87 0 -141 46t-54 147v321q0 76 21.5 115t65.5 66q44 25 108 25q78 0 141 -33l-21 -57q-54 20 -105 20q-55 0 -96.5 -28t-41.5 -99v-328q0 -63 35 -94t99 -31
q62 0 141 27l14 -64q-89 -33 -166 -33z" />
    <glyph glyph-name="Ccircumflex" unicode="&#x108;" horiz-adv-x="434" 
d="M269 830l-101 -98l-46 39l148 141l142 -141l-47 -39zM261 -10q-87 0 -141 46t-54 147v321q0 76 21.5 115t65.5 66q44 25 108 25q78 0 141 -33l-21 -57q-54 20 -105 20q-55 0 -96.5 -28t-41.5 -99v-328q0 -63 35 -94t99 -31q62 0 141 27l14 -64q-89 -33 -166 -33z" />
    <glyph glyph-name="cdotaccent" unicode="&#x10b;" horiz-adv-x="435" 
d="M236 551q-13 13 -13 29t12.5 28t29.5 12t28.5 -11.5t11.5 -28.5t-12 -29.5t-28 -12.5t-29 13zM280 -10q-54 0 -90 12q-59 20 -85.5 61.5t-26.5 116.5v128q0 99 52 150.5t134 51.5q65 0 134 -32l-20 -57q-57 22 -102 22q-57 0 -91.5 -32.5t-34.5 -96.5v-145
q0 -59 38.5 -85.5t98.5 -26.5q47 0 96 13l17 -64q-62 -16 -120 -16z" />
    <glyph glyph-name="ccircumflex" unicode="&#x109;" horiz-adv-x="436" 
d="M259 638l-101 -98l-46 39l148 141l142 -141l-47 -39zM280 -10q-54 0 -90 12q-59 20 -85.5 61.5t-26.5 116.5v128q0 99 52 150.5t134 51.5q65 0 134 -32l-20 -57q-57 22 -102 22q-57 0 -91.5 -32.5t-34.5 -96.5v-145q0 -59 38.5 -85.5t98.5 -26.5q47 0 96 13l17 -64
q-62 -16 -120 -16z" />
    <glyph glyph-name="Idotaccent" unicode="&#x130;" horiz-adv-x="302" 
d="M153 743q-13 13 -13 29t12.5 28t29.5 12t28.5 -11.5t11.5 -28.5t-12 -29.5t-28 -12.5t-29 13zM143 632l-66 2v66h138v-700h-72v632z" />
    <glyph glyph-name="Hbar" unicode="&#x126;" horiz-adv-x="685" 
d="M485 343h-286v-343h-72v480h-49v70h49v150h72v-150h286v150h72v-150h48v-70h-48v-480h-72v343zM199 480v-67h286v67h-286z" />
    <glyph glyph-name="Gbreve" unicode="&#x11e;" horiz-adv-x="537" 
d="M356 761.5q-33 -33.5 -80 -33.5q-46 0 -79.5 33.5t-33.5 79.5v5h56v-5q0 -25 16.5 -41.5t40.5 -16.5t40.5 16.5t16.5 41.5v5h56v-5q0 -46 -33 -79.5zM404 31q-48 -41 -128 -41q-56 0 -104 21t-77.5 66t-29.5 112v314q0 70 22.5 112.5t64.5 68.5q44 25 108 25
q78 0 141 -33l-21 -56q-54 20 -103 20q-140 0 -140 -128v-325q0 -61 38 -93.5t100 -32.5q58 0 94.5 33t36.5 92v44h-63l-24 70h157v-300h-60z" />
    <glyph glyph-name="Jcircumflex" unicode="&#x134;" horiz-adv-x="269" 
d="M195 761.5q-33 -33.5 -80 -33.5q-46 0 -79.5 33.5t-33.5 79.5v5h56v-5q0 -25 16.5 -41.5t40.5 -16.5t40.5 16.5t16.5 41.5v5h56v-5q0 -46 -33 -79.5zM60 41.5q27 24.5 27 85.5v505l-65 2v66h137v-576q0 -80 -34.5 -120t-106.5 -41l-20 54q35 0 62 24.5z" />
    <glyph glyph-name="Zdotaccent" unicode="&#x17b;" horiz-adv-x="550" 
d="M259 739q-13 13 -13 29t12.5 28t29.5 12t28.5 -11.5t11.5 -28.5t-12 -29.5t-28 -12.5t-29 13zM31 65l390 566h-377v69h468v-68l-390 -565h396v-67h-487v65z" />
    <glyph glyph-name="hbar" unicode="&#x127;" horiz-adv-x="543" 
d="M437 332q0 59 -32 85t-82 26q-29 0 -59 -8t-52 -21v-414h-72v554h-62v70h62v76h72v-76h100v-70h-100v-73q21 13 52.5 20.5t65.5 7.5q57 0 94 -18q40 -18 62.5 -54t22.5 -91v-346h-72v332z" />
    <glyph glyph-name="hcircumflex" unicode="&#x125;" horiz-adv-x="602" 
d="M211 830l-101 -98l-46 39l148 141l142 -141l-47 -39zM470 332q0 59 -32 85t-82 26q-29 0 -59 -8t-52 -21v-414h-72v700h72v-219q21 13 52.5 20.5t65.5 7.5q57 0 94 -18q40 -18 62.5 -54t22.5 -91v-346h-72v332z" />
    <glyph glyph-name="scedilla" unicode="&#x15f;" horiz-adv-x="431" 
d="M175 -159q16 -4 37 -4q24 0 43 10t19 31q0 15 -11 25t-29 10q-16 0 -37 -9l-37 -17l-22 35l50 65q-71 8 -110.5 47t-41.5 93l70 3q4 -37 37 -57.5t78 -20.5q41 0 72.5 19.5t31.5 58.5q0 27 -15.5 45t-39 28.5t-64.5 24.5q-49 17 -78.5 30.5t-52 39.5t-27.5 67l-1 12
q0 33 18.5 64.5t57 51.5t96.5 20q32 0 56.5 -6.5t38.5 -13.5t17 -9l-23 -63q-3 2 -13.5 8t-30.5 11.5t-45 5.5q-47 0 -74 -21t-23 -57q3 -27 29.5 -42.5t80.5 -34.5q53 -18 86.5 -34.5t57 -47t23.5 -79.5q0 -59 -40.5 -99.5t-120.5 -44.5l-25 -35q14 7 36 7q34 0 58 -21
t24 -59q0 -50 -39 -72.5t-90 -22.5q-40 0 -95 20l27 59q25 -17 41 -21z" />
    <glyph glyph-name="gbreve" unicode="&#x11f;" horiz-adv-x="490" 
d="M362 565.5q-33 -33.5 -80 -33.5q-46 0 -79.5 33.5t-33.5 79.5v5h56v-5q0 -25 16.5 -41.5t40.5 -16.5t40.5 16.5t16.5 41.5v5h56v-5q0 -46 -33 -79.5zM383 -58v103q-34 -57 -119 -57q-88 0 -137 48t-49 140v149q0 88 51.5 136.5t138.5 48.5q40 0 70.5 -13.5t47.5 -39.5
l3 44h66v-565q0 -63 -28.5 -98t-93.5 -48l-18 56q68 19 68 96zM349.5 413.5q-33.5 28.5 -85.5 28.5q-49 0 -81.5 -30.5t-32.5 -91.5v-146q0 -57 30 -87.5t84 -30.5t86.5 34.5t32.5 99.5v140q0 55 -33.5 83.5z" />
    <glyph glyph-name="jcircumflex" unicode="&#x135;" horiz-adv-x="403" 
d="M225 638l-101 -98l-46 39l148 141l142 -141l-47 -39zM146 437l-23 64h142v-576q-2 -57 -40 -95.5t-93 -38.5l-13 56q0 -3 20.5 6t36.5 31.5t16 65.5v482z" />
    <glyph glyph-name="zdotaccent" unicode="&#x17c;" horiz-adv-x="480" 
d="M232 548q-13 13 -13 29t12.5 28t29.5 12t28.5 -11.5t11.5 -28.5t-12 -29.5t-28 -12.5t-29 13zM78 66l255 368h-246v67h340v-65l-257 -369h275v-67h-367v66z" />
    <glyph glyph-name="Gdotaccent" unicode="&#x120;" horiz-adv-x="566" 
d="M264 742q-13 13 -13 29t12.5 28t29.5 12t28.5 -11.5t11.5 -28.5t-12 -29.5t-28 -12.5t-29 13zM424 31q-48 -41 -128 -41q-56 0 -104 21t-77.5 66t-29.5 112v314q0 70 22.5 112.5t64.5 68.5q44 25 108 25q78 0 141 -33l-21 -56q-54 20 -103 20q-140 0 -140 -128v-325
q0 -61 38 -93.5t100 -32.5q58 0 94.5 33t36.5 92v44h-63l-24 70h157v-300h-60z" />
    <glyph glyph-name="Gcircumflex" unicode="&#x11c;" horiz-adv-x="537" 
d="M283 830l-101 -98l-46 39l148 141l142 -141l-47 -39zM404 31q-48 -41 -128 -41q-56 0 -104 21t-77.5 66t-29.5 112v314q0 70 22.5 112.5t64.5 68.5q44 25 108 25q78 0 141 -33l-21 -56q-54 20 -103 20q-140 0 -140 -128v-325q0 -61 38 -93.5t100 -32.5q58 0 94.5 33
t36.5 92v44h-63l-24 70h157v-300h-60z" />
    <glyph glyph-name="gdotaccent" unicode="&#x121;" horiz-adv-x="490" 
d="M251 550q-13 13 -13 29t12.5 28t29.5 12t28.5 -11.5t11.5 -28.5t-12 -29.5t-28 -12.5t-29 13zM383 -58v103q-34 -57 -119 -57q-88 0 -137 48t-49 140v149q0 88 51.5 136.5t138.5 48.5q40 0 70.5 -13.5t47.5 -39.5l3 44h66v-565q0 -63 -28.5 -98t-93.5 -48l-18 56
q68 19 68 96zM349.5 413.5q-33.5 28.5 -85.5 28.5q-49 0 -81.5 -30.5t-32.5 -91.5v-146q0 -57 30 -87.5t84 -30.5t86.5 34.5t32.5 99.5v140q0 55 -33.5 83.5z" />
    <glyph glyph-name="gcircumflex" unicode="&#x11d;" horiz-adv-x="490" 
d="M304 638l-101 -98l-46 39l148 141l142 -141l-47 -39zM383 -58v103q-34 -57 -119 -57q-88 0 -137 48t-49 140v149q0 88 51.5 136.5t138.5 48.5q40 0 70.5 -13.5t47.5 -39.5l3 44h66v-565q0 -63 -28.5 -98t-93.5 -48l-18 56q68 19 68 96zM349.5 413.5
q-33.5 28.5 -85.5 28.5q-49 0 -81.5 -30.5t-32.5 -91.5v-146q0 -57 30 -87.5t84 -30.5t86.5 34.5t32.5 99.5v140q0 55 -33.5 83.5z" />
    <glyph glyph-name="Ubreve" unicode="&#x16c;" horiz-adv-x="566" 
d="M364 757.5q-33 -33.5 -80 -33.5q-46 0 -79.5 33.5t-33.5 79.5v5h56v-5q0 -25 16.5 -41.5t40.5 -16.5t40.5 16.5t16.5 41.5v5h56v-5q0 -46 -33 -79.5zM495 701v-515q0 -101 -61.5 -147t-148.5 -46t-149 46t-62 147v515h72v-507q0 -62 37.5 -98t100.5 -36q64 0 101.5 36
t37.5 98v507h72z" />
    <glyph glyph-name="Scircumflex" unicode="&#x15c;" horiz-adv-x="561" 
d="M272 830l-101 -98l-46 39l148 141l142 -141l-47 -39zM135.5 122.5q20.5 -28.5 55.5 -46t81 -17.5q71 0 116.5 32.5t45.5 94.5q0 44 -24 73.5t-59 47t-96 40.5q-65 24 -105 44.5t-67.5 56t-27.5 90.5q0 44 25 83.5t75.5 64t124.5 24.5q49 0 81 -7t65 -23l-22 -68
q-62 27 -122 27q-71 0 -111.5 -28.5t-39.5 -77.5q0 -30 21 -51.5t52 -36.5t84 -34q71 -26 116 -49.5t76.5 -65t31.5 -103.5q0 -92 -58.5 -148t-180.5 -56q-74 0 -126.5 27.5t-80 71t-29.5 90.5l75 5q3 -32 23.5 -60.5z" />
    <glyph glyph-name="ubreve" unicode="&#x16d;" 
d="M350 568.5q-33 -33.5 -80 -33.5q-46 0 -79.5 33.5t-33.5 79.5v5h56v-5q0 -25 16.5 -41.5t40.5 -16.5t40.5 16.5t16.5 41.5v5h56v-5q0 -46 -33 -79.5zM382 37q-21 -23 -52 -35.5t-64 -12.5q-188 0 -188 183v329h72v-329q0 -58 30 -86.5t86 -28.5q113 0 113 116v328h72
v-501h-69v37z" />
    <glyph glyph-name="scircumflex" unicode="&#x15d;" horiz-adv-x="476" 
d="M266 638l-101 -98l-46 39l148 141l142 -141l-47 -39zM185 72.5q33 -20.5 78 -20.5q41 0 72.5 19.5t31.5 58.5q0 27 -15.5 45t-39 28.5t-64.5 24.5q-49 17 -78.5 30.5t-52 39.5t-27.5 67l-1 12q0 33 18.5 64.5t57 51.5t96.5 20q32 0 56.5 -6.5t38.5 -13.5t17 -9l-23 -63
q-3 2 -13.5 8t-30.5 11.5t-45 5.5q-47 0 -74 -21t-23 -57q3 -27 29.5 -42.5t80.5 -34.5q53 -18 86.5 -34.5t57 -47t23.5 -79.5q0 -62 -45 -103.5t-133 -41.5q-57 0 -98.5 19.5t-63 51.5t-23.5 71l70 3q4 -37 37 -57.5z" />
    <glyph glyph-name="Rcommaaccent" unicode="&#x156;" horiz-adv-x="564" 
d="M360 232q-18 -2 -32 -2h-178v-230h-72v700h243q96 0 143.5 -61t47.5 -160q0 -75 -15.5 -132.5t-69.5 -91.5l86 -255h-74zM399 328.5q26 28.5 32.5 65t6.5 82.5q0 154 -128 154h-160v-330h169q54 0 80 28.5zM244 -143q15 12 22 19.5t8 9.5l-11 3q-13 8 -17.5 19.5
t-4.5 20.5q1 16 13 26.5t29 9.5q16 -1 27.5 -15t11.5 -29q0 -60 -65 -116l-49 28q21 12 36 24z" />
    <glyph glyph-name="kgreenlandic" unicode="&#x138;" horiz-adv-x="493" 
d="M386.5 14q-26.5 15 -45.5 36.5t-47 59.5l-97 133l-47 -46v-197h-72v512l72 -13v-207l192 209h93l-187 -204l119 -167q28 -38 48.5 -52.5t40.5 -15.5l-8 -63q-35 0 -61.5 15z" />
    <glyph glyph-name="Aogonek" unicode="&#x104;" horiz-adv-x="649" 
d="M572 -202q-24 -11 -59 -11q-30 0 -60 19.5t-30 66.5q0 66 95 127h-19l-69 226h-208l-66 -226h-78l206 700h83l213 -700h-1q-54 -45 -77 -73.5t-23 -49.5q0 -17 10.5 -27t26.5 -10q35 0 57 39l41 -42q-18 -28 -42 -39zM241 300h171l-87 284z" />
    <glyph glyph-name="Itilde" unicode="&#x128;" horiz-adv-x="497" 
d="M326 722q-17 0 -33 5t-42 16q-23 10 -39 15.5t-32 5.5q-37 0 -73 -37l-29 47q45 52 95 52q18 0 34 -5t42 -16q26 -10 40 -14.5t29 -4.5q37 0 69 35l30 -47q-43 -52 -91 -52zM223 632l-66 2v66h138v-700h-72v632z" />
    <glyph glyph-name="Lcommaaccent" unicode="&#x13b;" horiz-adv-x="440" 
d="M78 700h72v-635h289v-65h-361v700zM231 -143q15 12 22 19.5t8 9.5l-11 3q-13 8 -17.5 19.5t-4.5 20.5q1 16 13 26.5t29 9.5q16 -1 27.5 -15t11.5 -29q0 -60 -65 -116l-49 28q21 12 36 24z" />
    <glyph glyph-name="Emacron" unicode="&#x112;" horiz-adv-x="465" 
d="M135 798h217v-68h-217v68zM78 700h334v-69h-262v-218h175l-23 -70h-152v-278h260v-65h-332v700z" />
    <glyph glyph-name="Tbar" unicode="&#x166;" horiz-adv-x="402" 
d="M90 798h217v-68h-217v68zM162 632h-162v68h402v-68h-168v-632h-72v632z" />
    <glyph glyph-name="Gcommaaccent" unicode="&#x122;" horiz-adv-x="537" 
d="M404 31q-48 -41 -128 -41q-56 0 -104 21t-77.5 66t-29.5 112v314q0 70 22.5 112.5t64.5 68.5q44 25 108 25q78 0 141 -33l-21 -56q-54 20 -103 20q-140 0 -140 -128v-325q0 -61 38 -93.5t100 -32.5q58 0 94.5 33t36.5 92v44h-63l-24 70h157v-300h-60zM234 -142
q15 12 22 19.5t8 9.5l-11 3q-13 8 -17.5 19.5t-4.5 20.5q1 16 13 26.5t29 9.5q16 -1 27.5 -15t11.5 -29q0 -60 -65 -116l-49 28q21 12 36 24z" />
    <glyph glyph-name="aogonek" unicode="&#x105;" horiz-adv-x="492" 
d="M414 -202q-24 -11 -59 -11q-30 0 -60 19.5t-30 65.5q0 64 85 121q-56 -4 -84 -4q-105 0 -167 39t-62 141v83q0 99 69 133q33 16 81 16q44 0 89 -13.5t74 -34.5q0 103 -141 103l5 53q96 0 141.5 -30.5t56 -72.5t10.5 -108v-298h-1q-54 -45 -77 -73.5t-23 -49.5
q0 -17 10.5 -27t26.5 -10q35 0 57 39l41 -42q-18 -28 -42 -39zM273 318.5q-42 13.5 -77 13.5q-87 0 -87 -86v-78q0 -114 156 -114q31 0 85 7v227q-35 17 -77 30.5z" />
    <glyph glyph-name="rcommaaccent" unicode="&#x157;" horiz-adv-x="355" 
d="M69 501h70v-26q47 35 111 35q32 0 78 -10l-18 -68q-30 11 -63 11q-44 0 -75 -18.5t-31 -53.5v-371h-72v501zM104 -143q15 12 22 19.5t8 9.5l-11 3q-13 8 -17.5 19.5t-4.5 20.5q1 16 13 26.5t29 9.5q16 -1 27.5 -15t11.5 -29q0 -60 -65 -116l-49 28q21 12 36 24z" />
    <glyph glyph-name="itilde" unicode="&#x129;" horiz-adv-x="452" 
d="M326 523q-17 0 -33 5t-42 16q-23 10 -39 15.5t-32 5.5q-37 0 -73 -37l-29 47q45 52 95 52q18 0 34 -5t42 -16q26 -10 40 -14.5t29 -4.5q37 0 69 35l30 -47q-43 -52 -91 -52zM203 501h72v-501h-72v501z" />
    <glyph glyph-name="lcommaaccent" unicode="&#x13c;" horiz-adv-x="273" 
d="M115 700h72v-700h-72v700zM114 -143q15 12 22 19.5t8 9.5l-11 3q-13 8 -17.5 19.5t-4.5 20.5q1 16 13 26.5t29 9.5q16 -1 27.5 -15t11.5 -29q0 -60 -65 -116l-49 28q21 12 36 24z" />
    <glyph glyph-name="emacron" unicode="&#x113;" horiz-adv-x="537" 
d="M109 606h217v-68h-217v68zM288 0q-46 -12 -92 -12q-74 0 -117.5 36.5t-43.5 109.5v205q0 81 50.5 126t133.5 45t129.5 -44.5t46.5 -123.5v-137l-288 -15v-52q0 -42 26 -63t71 -21q65 0 139 40l27 -59q-36 -23 -82 -35zM289 421.5q-33 22.5 -71 22.5q-50 0 -80.5 -27
t-30.5 -79v-80l215 11v77q0 53 -33 75.5z" />
    <glyph glyph-name="gcommaaccent" unicode="&#x123;" horiz-adv-x="490" 
d="M301.5 598.5q4.5 -11.5 4.5 -20.5q-1 -16 -13 -26.5t-29 -9.5q-16 1 -27.5 15t-11.5 29q0 60 65 116l49 -28q-21 -12 -36 -24t-22 -19.5t-8 -9.5l11 -3q13 -8 17.5 -19.5zM383 -58v103q-34 -57 -119 -57q-88 0 -137 48t-49 140v149q0 88 51.5 136.5t138.5 48.5
q40 0 70.5 -13.5t47.5 -39.5l3 44h66v-565q0 -63 -28.5 -98t-93.5 -48l-18 56q68 19 68 96zM349.5 413.5q-33.5 28.5 -85.5 28.5q-49 0 -81.5 -30.5t-32.5 -91.5v-146q0 -57 30 -87.5t84 -30.5t86.5 34.5t32.5 99.5v140q0 55 -33.5 83.5z" />
    <glyph glyph-name="tbar" unicode="&#x167;" horiz-adv-x="368" 
d="M176 35q-28 36 -28 97v156h-70v70h70v342h73v-199h112l-24 -68h-88v-75h91v-70h-91v-156q0 -71 68 -89l-21 -56q-64 12 -92 48z" />
    <glyph glyph-name="Eng" unicode="&#x14a;" horiz-adv-x="651" 
d="M150 0h-72v700h72q282 -441 347 -558v490l-64 2v66h138v-569q0 -82 -39.5 -125t-102.5 -43q-6 18 -20 54q39 0 62 27l-321 516v-560z" />
    <glyph glyph-name="eng" unicode="&#x14b;" horiz-adv-x="500" 
d="M331 418q-31 25 -80 25q-30 0 -61 -8.5t-54 -21.5v-413h-72v501h69v-25q20 15 53 24t69 9q56 0 93 -18q40 -18 62.5 -54t22.5 -91v-420q-1 -59 -41 -97t-96 -38l-13 56q0 -3 22 5.5t39.5 31t17.5 65.5v389q0 55 -31 80z" />
    <glyph glyph-name="Umacron" unicode="&#x16a;" horiz-adv-x="566" 
d="M174 798h217v-68h-217v68zM495 701v-515q0 -101 -61.5 -147t-148.5 -46t-149 46t-62 147v515h72v-507q0 -62 37.5 -98t100.5 -36q64 0 101.5 36t37.5 98v507h72z" />
    <glyph glyph-name="Utilde" unicode="&#x168;" horiz-adv-x="566" 
d="M368 730q-17 0 -33 5t-42 16q-23 10 -39 15.5t-32 5.5q-37 0 -73 -37l-29 47q45 52 95 52q18 0 34 -5t42 -16q26 -10 40 -14.5t29 -4.5q37 0 69 35l30 -47q-43 -52 -91 -52zM495 701v-515q0 -101 -61.5 -147t-148.5 -46t-149 46t-62 147v515h72v-507q0 -62 37.5 -98
t100.5 -36q64 0 101.5 36t37.5 98v507h72z" />
    <glyph glyph-name="utilde" unicode="&#x169;" 
d="M345 533q-17 0 -33 5t-42 16q-23 10 -39 15.5t-32 5.5q-37 0 -73 -37l-29 47q46 52 95 52q18 0 34 -5t42 -16q26 -10 40 -14.5t29 -4.5q37 0 69 35l30 -47q-43 -52 -91 -52zM382 37q-21 -23 -52 -35.5t-64 -12.5q-188 0 -188 183v329h72v-329q0 -58 30 -86.5t86 -28.5
q113 0 113 116v328h72v-501h-69v37z" />
    <glyph glyph-name="umacron" unicode="&#x16b;" 
d="M151 606h217v-68h-217v68zM382 37q-21 -23 -52 -35.5t-64 -12.5q-188 0 -188 183v329h72v-329q0 -58 30 -86.5t86 -28.5q113 0 113 116v328h72v-501h-69v37z" />
    <glyph glyph-name="uogonek" unicode="&#x173;" horiz-adv-x="481" 
d="M401 -202q-24 -11 -59 -11q-30 0 -60 19.5t-30 66.5q0 66 95 127h-7v37q-21 -23 -52 -35.5t-64 -12.5q-188 0 -188 183v329h72v-329q0 -58 30 -86.5t86 -28.5q113 0 113 116v328h72v-501h-1q-54 -45 -77 -73.5t-23 -49.5q0 -17 10.5 -27t26.5 -10q35 0 57 39l41 -42
q-18 -28 -42 -39z" />
    <glyph glyph-name="Uogonek" unicode="&#x172;" horiz-adv-x="566" 
d="M322 -202q-24 -11 -59 -11q-30 0 -60 19.5t-30 65.5q0 65 86 122q-79 6 -132 52t-53 140v515h72v-507q0 -62 37.5 -98t100.5 -36q64 0 101.5 36t37.5 98v507h72v-515q0 -89 -49 -135.5t-123 -54.5q-50 -42 -72 -70t-22 -49q0 -17 10.5 -27t26.5 -10q35 0 57 39l41 -42
q-18 -28 -42 -39z" />
    <glyph glyph-name="Kcommaaccent" unicode="&#x136;" horiz-adv-x="492" 
d="M189 325l-35 -56v-269h-75v701h75v-306l205 306h85l-210 -310l258 -391h-88zM225 -142q15 12 22 19.5t8 9.5l-11 3q-13 8 -17.5 19.5t-4.5 20.5q1 16 13 26.5t29 9.5q16 -1 27.5 -15t11.5 -29q0 -60 -65 -116l-49 28q21 12 36 24z" />
    <glyph glyph-name="kcommaaccent" unicode="&#x137;" horiz-adv-x="446" 
d="M179 298l-41 -36v-262h-72v700h72v-351l185 171l52 -50l-143 -124q73 -121 215 -346h-89zM201 -143q15 12 22 19.5t8 9.5l-11 3q-13 8 -17.5 19.5t-4.5 20.5q1 16 13 26.5t29 9.5q16 -1 27.5 -15t11.5 -29q0 -60 -65 -116l-49 28q21 12 36 24z" />
    <glyph glyph-name="omacron" unicode="&#x14d;" 
d="M156 606h216v-68h-216v68zM405 45q-46 -55 -139 -55t-140.5 55.5t-47.5 138.5v132q0 95 48.5 145.5t139.5 50.5q87 0 136 -52.5t49 -143.5v-132q0 -84 -46 -139zM266 443q-53 0 -84.5 -30t-31.5 -97v-142q0 -54 31.5 -85.5t84.5 -31.5t83 31.5t30 85.5v142
q0 127 -113 127z" />
    <glyph glyph-name="Omacron" unicode="&#x14c;" horiz-adv-x="549" 
d="M160 798h217v-68h-217v68zM421.5 36.5q-61.5 -47.5 -147.5 -47.5q-54 0 -102 19.5t-78.5 63.5t-30.5 113v322q0 103 56.5 156t155.5 53t153.5 -56t54.5 -154v-321q0 -101 -61.5 -148.5zM375.5 607q-35.5 36 -102.5 36t-102.5 -35.5t-35.5 -105.5v-311q0 -64 38 -97.5
t100 -33.5t100 33.5t38 99.5v309q0 69 -35.5 105z" />
    <glyph glyph-name="Ncommaaccent" unicode="&#x145;" horiz-adv-x="650" 
d="M150 560v-560h-72v700h72l347 -559v559h73v-700h-73zM301 -141q15 12 22 19.5t8 9.5l-11 3q-13 8 -17.5 19.5t-4.5 20.5q1 16 13 26.5t29 9.5q16 -1 27.5 -15t11.5 -29q0 -60 -65 -116l-49 28q21 12 36 24z" />
    <glyph glyph-name="ncommaaccent" unicode="&#x146;" horiz-adv-x="500" 
d="M361 335q0 54 -32.5 80.5t-82.5 26.5q-28 0 -57 -7.5t-53 -21.5v-413h-72v501h68l1 -26q23 16 55.5 25t68.5 9q52 0 91 -18q40 -18 62.5 -54t22.5 -91v-346h-72v335zM209 -143q15 12 22 19.5t8 9.5l-11 3q-13 8 -17.5 19.5t-4.5 20.5q1 16 13 26.5t29 9.5q16 -1 27.5 -15
t11.5 -29q0 -60 -65 -116l-49 28q21 12 36 24z" />
    <glyph glyph-name="dcroat" unicode="&#x111;" horiz-adv-x="544" 
d="M447 0l-55 -5q-65 -7 -102 -7t-69.5 7t-64.5 23q-36 18 -57 53t-21 86v189q0 105 85 144q41 19 96 19q34 0 65 -7.5t51 -20.5v73h-100v70h100v76h72v-76h62v-70h-62v-554zM321.5 433q-29.5 8 -57.5 8q-51 0 -83 -26t-32 -83v-178q0 -52 39 -75.5t103 -23.5q38 0 84 8v349
q-24 13 -53.5 21z" />
    <glyph glyph-name="Dcroat" unicode="&#x110;" horiz-adv-x="576" 
d="M175 798h217v-68h-217v68zM78 701h188q113 0 172.5 -62t59.5 -165v-274q0 -200 -212 -200h-208v701zM382.5 595.5q-43.5 36.5 -106.5 36.5h-126v-567h120q67 0 111.5 25t44.5 100v294q0 75 -43.5 111.5z" />
    <glyph glyph-name="Imacron" unicode="&#x12a;" horiz-adv-x="374" 
d="M78 798h216v-68h-216v68zM175 632l-66 2v66h138v-700h-72v632z" />
    <glyph glyph-name="imacron" unicode="&#x12b;" horiz-adv-x="330" 
d="M78 606h217v-68h-217v68zM154 501h72v-501h-72v501z" />
    <glyph glyph-name="edotaccent" unicode="&#x117;" horiz-adv-x="473" 
d="M239 551q-13 13 -13 29t12.5 28t29.5 12t28.5 -11.5t11.5 -28.5t-12 -29.5t-28 -12.5t-29 13zM331 0q-46 -12 -92 -12q-74 0 -117.5 36.5t-43.5 109.5v205q0 81 50.5 126t133.5 45t129.5 -44.5t46.5 -123.5v-137l-288 -15v-52q0 -42 26 -63t71 -21q65 0 139 40l27 -59
q-36 -23 -82 -35zM332 421.5q-33 22.5 -71 22.5q-50 0 -80.5 -27t-30.5 -79v-80l215 11v77q0 53 -33 75.5z" />
    <glyph glyph-name="Edotaccent" unicode="&#x116;" horiz-adv-x="465" 
d="M227 743q-13 13 -13 29t12.5 28t29.5 12t28.5 -11.5t11.5 -28.5t-12 -29.5t-28 -12.5t-29 13zM78 700h334v-69h-262v-218h175l-23 -70h-152v-278h260v-65h-332v700z" />
    <glyph glyph-name="Eogonek" unicode="&#x118;" horiz-adv-x="497" 
d="M402 -202q-24 -11 -59 -11q-30 0 -60 19.5t-30 66.5q0 66 95 127h-270v700h334v-69h-262v-218h175l-23 -70h-152v-278h260v-65h-1q-54 -45 -77 -73.5t-23 -49.5q0 -17 10.5 -27t26.5 -10q35 0 57 39l41 -42q-18 -28 -42 -39z" />
    <glyph glyph-name="eogonek" unicode="&#x119;" horiz-adv-x="434" 
d="M265 -202q-24 -11 -59 -11q-30 0 -60 19.5t-30 66.5q0 61 77 115q-73 1 -115.5 37.5t-42.5 108.5v205q0 81 50.5 126t133.5 45t129.5 -44.5t46.5 -123.5v-137l-288 -15v-52q0 -42 26 -63t71 -21q65 0 139 40l27 -59q-48 -30 -105 -40q-50 -42 -71.5 -70t-21.5 -48
q0 -17 10.5 -27t26.5 -10q35 0 57 39l41 -42q-18 -28 -42 -39zM289 421.5q-33 22.5 -71 22.5q-50 0 -80.5 -27t-30.5 -79v-80l215 11v77q0 53 -33 75.5z" />
    <glyph glyph-name="ccaron" unicode="&#x10d;" horiz-adv-x="436" 
d="M111 684l46 39l101 -97l96 97l47 -39l-142 -141zM280 -10q-54 0 -90 12q-59 20 -85.5 61.5t-26.5 116.5v128q0 99 52 150.5t134 51.5q65 0 134 -32l-20 -57q-57 22 -102 22q-57 0 -91.5 -32.5t-34.5 -96.5v-145q0 -59 38.5 -85.5t98.5 -26.5q47 0 96 13l17 -64
q-62 -16 -120 -16z" />
    <glyph glyph-name="Ccaron" unicode="&#x10c;" horiz-adv-x="434" 
d="M108 874l46 39l101 -97l96 97l47 -39l-142 -141zM261 -10q-87 0 -141 46t-54 147v321q0 76 21.5 115t65.5 66q44 25 108 25q78 0 141 -33l-21 -57q-54 20 -105 20q-55 0 -96.5 -28t-41.5 -99v-328q0 -63 35 -94t99 -31q62 0 141 27l14 -64q-89 -33 -166 -33z" />
    <glyph glyph-name="Iogonek" unicode="&#x12e;" horiz-adv-x="352" 
d="M230 -202q-24 -11 -59 -11q-30 0 -60 19.5t-30 66.5q0 66 95 127h-11v632l-66 2v66h138v-700q-54 -45 -77 -73.5t-23 -49.5q0 -17 10.5 -27t26.5 -10q35 0 57 39l41 -42q-18 -28 -42 -39z" />
    <glyph glyph-name="iogonek" unicode="&#x12f;" horiz-adv-x="245" 
d="M89.5 640.5q-12.5 12.5 -12.5 28.5t12.5 28.5t29.5 12.5q16 0 28 -12t12 -29t-12 -29t-28 -12q-17 0 -29.5 12.5zM144 -202q-24 -11 -59 -11q-30 0 -60 19.5t-30 66.5q0 66 95 127h-9v501h72v-501h-2q-54 -45 -77 -73.5t-23 -49.5q0 -17 10.5 -27t26.5 -10q35 0 57 39
l41 -42q-18 -28 -42 -39z" />
    <glyph glyph-name="amacron" unicode="&#x101;" horiz-adv-x="498" 
d="M169 606h217v-68h-217v68zM307 -11q-105 0 -167 39t-62 141v83q0 99 69 133q33 16 81 16q44 0 89 -13.5t74 -34.5q0 103 -141 103l5 53q96 0 141.5 -30.5t56 -72.5t10.5 -108v-298q-108 -11 -156 -11zM314 318.5q-42 13.5 -77 13.5q-87 0 -87 -86v-78q0 -114 156 -114
q31 0 85 7v227q-35 17 -77 30.5z" />
    <glyph glyph-name="Amacron" unicode="&#x100;" horiz-adv-x="527" 
d="M151 798h217v-68h-217v68zM367 226h-208l-66 -226h-78l206 700h83l213 -700h-81zM178 300h171l-87 284z" />
    <glyph glyph-name="Lcaron" unicode="&#x13d;" horiz-adv-x="548" 
d="M78 875l46 39l101 -97l96 97l47 -39l-142 -141zM186 700h72v-635h289v-65h-361v700z" />
    <glyph glyph-name="Sacute" unicode="&#x15a;" horiz-adv-x="561" 
d="M289 850q6 13 16.5 19.5t22.5 6.5q5 0 13 -2q11 -4 17 -13t6 -20q0 -12 -8 -23l-63 -83h-53zM135.5 122.5q20.5 -28.5 55.5 -46t81 -17.5q71 0 116.5 32.5t45.5 94.5q0 44 -24 73.5t-59 47t-96 40.5q-65 24 -105 44.5t-67.5 56t-27.5 90.5q0 44 25 83.5t75.5 64
t124.5 24.5q49 0 81 -7t65 -23l-22 -68q-62 27 -122 27q-71 0 -111.5 -28.5t-39.5 -77.5q0 -30 21 -51.5t52 -36.5t84 -34q71 -26 116 -49.5t76.5 -65t31.5 -103.5q0 -92 -58.5 -148t-180.5 -56q-74 0 -126.5 27.5t-80 71t-29.5 90.5l75 5q3 -32 23.5 -60.5z" />
    <glyph glyph-name="Scommaaccent" unicode="&#x218;" horiz-adv-x="561" 
d="M135.5 122.5q20.5 -28.5 55.5 -46t81 -17.5q71 0 116.5 32.5t45.5 94.5q0 44 -24 73.5t-59 47t-96 40.5q-65 24 -105 44.5t-67.5 56t-27.5 90.5q0 44 25 83.5t75.5 64t124.5 24.5q49 0 81 -7t65 -23l-22 -68q-62 27 -122 27q-71 0 -111.5 -28.5t-39.5 -77.5
q0 -30 21 -51.5t52 -36.5t84 -34q71 -26 116 -49.5t76.5 -65t31.5 -103.5q0 -92 -58.5 -148t-180.5 -56q-74 0 -126.5 27.5t-80 71t-29.5 90.5l75 5q3 -32 23.5 -60.5zM237 -142q15 12 22 19.5t8 9.5l-11 3q-13 8 -17.5 19.5t-4.5 20.5q1 16 13 26.5t29 9.5q16 -1 27.5 -15
t11.5 -29q0 -60 -65 -116l-49 28q21 12 36 24z" />
    <glyph glyph-name="Tcaron" unicode="&#x164;" horiz-adv-x="402" 
d="M54 875l46 39l101 -97l96 97l47 -39l-142 -141zM162 632h-162v68h402v-68h-168v-632h-72v632z" />
    <glyph glyph-name="Zacute" unicode="&#x179;" horiz-adv-x="550" 
d="M253 900q6 13 16.5 19.5t22.5 6.5q5 0 13 -2q11 -4 17 -13t6 -20q0 -12 -8 -23l-63 -83h-53zM31 65l390 566h-377v69h468v-68l-390 -565h396v-67h-487v65z" />
    <glyph glyph-name="Ecaron" unicode="&#x11a;" horiz-adv-x="465" 
d="M102 875l46 39l101 -97l96 97l47 -39l-142 -141zM78 700h334v-69h-262v-218h175l-23 -70h-152v-278h260v-65h-332v700z" />
    <glyph glyph-name="ecaron" unicode="&#x11b;" horiz-adv-x="473" 
d="M117 683l46 39l101 -97l96 97l47 -39l-142 -141zM331 0q-46 -12 -92 -12q-74 0 -117.5 36.5t-43.5 109.5v205q0 81 50.5 126t133.5 45t129.5 -44.5t46.5 -123.5v-137l-288 -15v-52q0 -42 26 -63t71 -21q65 0 139 40l27 -59q-36 -23 -82 -35zM332 421.5q-33 22.5 -71 22.5
q-50 0 -80.5 -27t-30.5 -79v-80l215 11v77q0 53 -33 75.5z" />
    <glyph glyph-name="cacute" unicode="&#x107;" horiz-adv-x="435" 
d="M258 653q6 13 16.5 19.5t22.5 6.5q5 0 13 -2q11 -4 17 -13t6 -20q0 -12 -8 -23l-63 -83h-53zM280 -10q-54 0 -90 12q-59 20 -85.5 61.5t-26.5 116.5v128q0 99 52 150.5t134 51.5q65 0 134 -32l-20 -57q-57 22 -102 22q-57 0 -91.5 -32.5t-34.5 -96.5v-145
q0 -59 38.5 -85.5t98.5 -26.5q47 0 96 13l17 -64q-62 -16 -120 -16z" />
    <glyph glyph-name="Cacute" unicode="&#x106;" horiz-adv-x="434" 
d="M280 849q6 13 16.5 19.5t22.5 6.5q5 0 13 -2q11 -4 17 -13t6 -20q0 -12 -8 -23l-63 -83h-53zM261 -10q-87 0 -141 46t-54 147v321q0 76 21.5 115t65.5 66q44 25 108 25q78 0 141 -33l-21 -57q-54 20 -105 20q-55 0 -96.5 -28t-41.5 -99v-328q0 -63 35 -94t99 -31
q62 0 141 27l14 -64q-89 -33 -166 -33z" />
    <glyph glyph-name="Lacute" unicode="&#x139;" horiz-adv-x="440" 
d="M179 845q6 13 16.5 19.5t22.5 6.5q5 0 13 -2q11 -4 17 -13t6 -20q0 -12 -8 -23l-63 -83h-53zM78 700h72v-635h289v-65h-361v700z" />
    <glyph glyph-name="lacute" unicode="&#x13a;" horiz-adv-x="296" 
d="M141 849q6 13 16.5 19.5t22.5 6.5q5 0 13 -2q11 -4 17 -13t6 -20q0 -12 -8 -23l-63 -83h-53zM78 700h72v-700h-72v700z" />
    <glyph glyph-name="abreve" unicode="&#x103;" horiz-adv-x="498" 
d="M389 571.5q-33 -33.5 -80 -33.5q-46 0 -79.5 33.5t-33.5 79.5v5h56v-5q0 -25 16.5 -41.5t40.5 -16.5t40.5 16.5t16.5 41.5v5h56v-5q0 -46 -33 -79.5zM307 -11q-105 0 -167 39t-62 141v83q0 99 69 133q33 16 81 16q44 0 89 -13.5t74 -34.5q0 103 -141 103l5 53
q96 0 141.5 -30.5t56 -72.5t10.5 -108v-298q-108 -11 -156 -11zM314 318.5q-42 13.5 -77 13.5q-87 0 -87 -86v-78q0 -114 156 -114q31 0 85 7v227q-35 17 -77 30.5z" />
    <glyph glyph-name="Abreve" unicode="&#x102;" horiz-adv-x="527" 
d="M345 763.5q-33 -33.5 -80 -33.5q-46 0 -79.5 33.5t-33.5 79.5v5h56v-5q0 -25 16.5 -41.5t40.5 -16.5t40.5 16.5t16.5 41.5v5h56v-5q0 -46 -33 -79.5zM367 226h-208l-66 -226h-78l206 700h83l213 -700h-81zM178 300h171l-87 284z" />
    <glyph glyph-name="Racute" unicode="&#x154;" horiz-adv-x="564" 
d="M276 845q6 13 16.5 19.5t22.5 6.5q5 0 13 -2q11 -4 17 -13t6 -20q0 -12 -8 -23l-63 -83h-53zM360 232q-18 -2 -32 -2h-178v-230h-72v700h243q96 0 143.5 -61t47.5 -160q0 -75 -15.5 -132.5t-69.5 -91.5l86 -255h-74zM399 328.5q26 28.5 32.5 65t6.5 82.5q0 154 -128 154
h-160v-330h169q54 0 80 28.5z" />
    <glyph glyph-name="racute" unicode="&#x155;" horiz-adv-x="372" 
d="M187 653q6 13 16.5 19.5t22.5 6.5q5 0 13 -2q11 -4 17 -13t6 -20q0 -12 -8 -23l-63 -83h-53zM78 501h70v-26q47 35 111 35q32 0 78 -10l-18 -68q-30 11 -63 11q-44 0 -75 -18.5t-31 -53.5v-371h-72v501z" />
    <glyph glyph-name="dcaron" unicode="&#x10f;" horiz-adv-x="622" 
d="M509 601q15 12 22 19.5t8 9.5l-11 3q-13 8 -17.5 19.5t-4.5 20.5q1 16 13 26.5t29 9.5q16 -1 27.5 -15t11.5 -29q0 -60 -65 -116l-49 28q21 12 36 24zM163 490q41 19 96 19q34 0 65 -7.5t51 -20.5v219h72v-700l-55 -5q-65 -7 -102 -7t-69.5 7t-64.5 23q-36 18 -57 53
t-21 86v189q0 105 85 144zM321.5 433q-29.5 8 -57.5 8q-51 0 -83 -26t-32 -83v-178q0 -52 39 -75.5t103 -23.5q38 0 84 8v349q-24 13 -53.5 21z" />
    <glyph glyph-name="Dcaron" unicode="&#x10e;" horiz-adv-x="576" 
d="M126 875l46 39l101 -97l96 97l47 -39l-142 -141zM78 701h188q113 0 172.5 -62t59.5 -165v-274q0 -200 -212 -200h-208v701zM382.5 595.5q-43.5 36.5 -106.5 36.5h-126v-567h120q67 0 111.5 25t44.5 100v294q0 75 -43.5 111.5z" />
    <glyph glyph-name="Nacute" unicode="&#x143;" horiz-adv-x="650" 
d="M327 845q6 13 16.5 19.5t22.5 6.5q5 0 13 -2q11 -4 17 -13t6 -20q0 -12 -8 -23l-63 -83h-53zM150 560v-560h-72v700h72l347 -559v559h73v-700h-73z" />
    <glyph glyph-name="Ncaron" unicode="&#x147;" horiz-adv-x="650" 
d="M184 875l46 39l101 -97l96 97l47 -39l-142 -141zM150 560v-560h-72v700h72l347 -559v559h73v-700h-73z" />
    <glyph glyph-name="ncaron" unicode="&#x148;" horiz-adv-x="482" 
d="M131 732l46 39l101 -97l96 97l47 -39l-142 -141zM375 335q0 54 -32.5 80.5t-82.5 26.5q-28 0 -57 -7.5t-53 -21.5v-413h-72v501h68l1 -26q23 16 55.5 25t68.5 9q52 0 91 -18q40 -18 62.5 -54t22.5 -91v-346h-72v335z" />
    <glyph glyph-name="nacute" unicode="&#x144;" horiz-adv-x="482" 
d="M280 653q6 13 16.5 19.5t22.5 6.5q5 0 13 -2q11 -4 17 -13t6 -20q0 -12 -8 -23l-63 -83h-53zM375 335q0 54 -32.5 80.5t-82.5 26.5q-28 0 -57 -7.5t-53 -21.5v-413h-72v501h68l1 -26q23 16 55.5 25t68.5 9q52 0 91 -18q40 -18 62.5 -54t22.5 -91v-346h-72v335z" />
    <glyph glyph-name="ohungarumlaut" unicode="&#x151;" 
d="M216 658q6 13 16.5 19.5t22.5 6.5q5 0 13 -2q11 -4 17 -13t6 -20q0 -12 -8 -23l-63 -83h-53zM336 658q6 13 16.5 19.5t22.5 6.5q5 0 13 -2q11 -4 17 -13t6 -20q0 -12 -8 -23l-63 -83h-53zM405 45q-46 -55 -139 -55t-140.5 55.5t-47.5 138.5v132q0 95 48.5 145.5
t139.5 50.5q87 0 136 -52.5t49 -143.5v-132q0 -84 -46 -139zM266 443q-53 0 -84.5 -30t-31.5 -97v-142q0 -54 31.5 -85.5t84.5 -31.5t83 31.5t30 85.5v142q0 127 -113 127z" />
    <glyph glyph-name="Ohungarumlaut" unicode="&#x150;" horiz-adv-x="549" 
d="M225 847q6 13 16.5 19.5t22.5 6.5q5 0 13 -2q11 -4 17 -13t6 -20q0 -12 -8 -23l-63 -83h-53zM345 847q6 13 16.5 19.5t22.5 6.5q5 0 13 -2q11 -4 17 -13t6 -20q0 -12 -8 -23l-63 -83h-53zM421.5 36.5q-61.5 -47.5 -147.5 -47.5q-54 0 -102 19.5t-78.5 63.5t-30.5 113v322
q0 103 56.5 156t155.5 53t153.5 -56t54.5 -154v-321q0 -101 -61.5 -148.5zM375.5 607q-35.5 36 -102.5 36t-102.5 -35.5t-35.5 -105.5v-311q0 -64 38 -97.5t100 -33.5t100 33.5t38 99.5v309q0 69 -35.5 105z" />
    <glyph glyph-name="lcaron" unicode="&#x13e;" horiz-adv-x="448" 
d="M78 875l46 39l101 -97l96 97l47 -39l-142 -141zM186 700h72v-700h-72v700z" />
    <glyph glyph-name="sacute" unicode="&#x15b;" horiz-adv-x="476" 
d="M273 653q6 13 16.5 19.5t22.5 6.5q5 0 13 -2q11 -4 17 -13t6 -20q0 -12 -8 -23l-63 -83h-53zM185 72.5q33 -20.5 78 -20.5q41 0 72.5 19.5t31.5 58.5q0 27 -15.5 45t-39 28.5t-64.5 24.5q-49 17 -78.5 30.5t-52 39.5t-27.5 67l-1 12q0 33 18.5 64.5t57 51.5t96.5 20
q32 0 56.5 -6.5t38.5 -13.5t17 -9l-23 -63q-3 2 -13.5 8t-30.5 11.5t-45 5.5q-47 0 -74 -21t-23 -57q3 -27 29.5 -42.5t80.5 -34.5q53 -18 86.5 -34.5t57 -47t23.5 -79.5q0 -62 -45 -103.5t-133 -41.5q-57 0 -98.5 19.5t-63 51.5t-23.5 71l70 3q4 -37 37 -57.5z" />
    <glyph glyph-name="Uring" unicode="&#x16e;" horiz-adv-x="566" 
d="M205.5 691.5q-32.5 32.5 -32.5 78.5t32.5 78.5t78.5 32.5t78.5 -32.5t32.5 -78.5t-32.5 -78.5t-78.5 -32.5t-78.5 32.5zM324 729.5q16 16.5 16 40.5t-16 40t-40 16t-40.5 -16t-16.5 -40t16.5 -40.5t40.5 -16.5t40 16.5zM495 701v-515q0 -101 -61.5 -147t-148.5 -46
t-149 46t-62 147v515h72v-507q0 -62 37.5 -98t100.5 -36q64 0 101.5 36t37.5 98v507h72z" />
    <glyph glyph-name="Rcaron" unicode="&#x158;" horiz-adv-x="564" 
d="M137 875l46 39l101 -97l96 97l47 -39l-142 -141zM360 232q-18 -2 -32 -2h-178v-230h-72v700h243q96 0 143.5 -61t47.5 -160q0 -75 -15.5 -132.5t-69.5 -91.5l86 -255h-74zM399 328.5q26 28.5 32.5 65t6.5 82.5q0 154 -128 154h-160v-330h169q54 0 80 28.5z" />
    <glyph glyph-name="rcaron" unicode="&#x159;" horiz-adv-x="403" 
d="M78 732l46 39l101 -97l96 97l47 -39l-142 -141zM79 501h70v-26q47 35 111 35q32 0 78 -10l-18 -68q-30 11 -63 11q-44 0 -75 -18.5t-31 -53.5v-371h-72v501z" />
    <glyph glyph-name="uring" unicode="&#x16f;" 
d="M191.5 509.5q-32.5 32.5 -32.5 78.5t32.5 78.5t78.5 32.5t78.5 -32.5t32.5 -78.5t-32.5 -78.5t-78.5 -32.5t-78.5 32.5zM310 547.5q16 16.5 16 40.5t-16 40t-40 16t-40.5 -16t-16.5 -40t16.5 -40.5t40.5 -16.5t40 16.5zM382 37q-21 -23 -52 -35.5t-64 -12.5
q-188 0 -188 183v329h72v-329q0 -58 30 -86.5t86 -28.5q113 0 113 116v328h72v-501h-69v37z" />
    <glyph glyph-name="uhungarumlaut" unicode="&#x171;" 
d="M216 658q6 13 16.5 19.5t22.5 6.5q5 0 13 -2q11 -4 17 -13t6 -20q0 -12 -8 -23l-63 -83h-53zM336 658q6 13 16.5 19.5t22.5 6.5q5 0 13 -2q11 -4 17 -13t6 -20q0 -12 -8 -23l-63 -83h-53zM382 37q-21 -23 -52 -35.5t-64 -12.5q-188 0 -188 183v329h72v-329
q0 -58 30 -86.5t86 -28.5q113 0 113 116v328h72v-501h-69v37z" />
    <glyph glyph-name="Uhungarumlaut" unicode="&#x170;" horiz-adv-x="566" 
d="M242 847q6 13 16.5 19.5t22.5 6.5q5 0 13 -2q11 -4 17 -13t6 -20q0 -12 -8 -23l-63 -83h-53zM363 847q6 13 16.5 19.5t22.5 6.5q5 0 13 -2q11 -4 17 -13t6 -20q0 -12 -8 -23l-63 -83h-53zM495 701v-515q0 -101 -61.5 -147t-148.5 -46t-149 46t-62 147v515h72v-507
q0 -62 37.5 -98t100.5 -36q64 0 101.5 36t37.5 98v507h72z" />
    <glyph glyph-name="tcaron" unicode="&#x165;" horiz-adv-x="358" 
d="M44 875l46 39l101 -97l96 97l47 -39l-142 -141zM139 35q-28 36 -28 97v568h73v-199h112l-24 -68h-88v-301q0 -71 68 -89l-21 -56q-64 12 -92 48z" />
    <glyph glyph-name="scommaaccent" unicode="&#x219;" horiz-adv-x="431" 
d="M143 72.5q33 -20.5 78 -20.5q41 0 72.5 19.5t31.5 58.5q0 27 -15.5 45t-39 28.5t-64.5 24.5q-49 17 -78.5 30.5t-52 39.5t-27.5 67l-1 12q0 33 18.5 64.5t57 51.5t96.5 20q32 0 56.5 -6.5t38.5 -13.5t17 -9l-23 -63q-3 2 -13.5 8t-30.5 11.5t-45 5.5q-47 0 -74 -21
t-23 -57q3 -27 29.5 -42.5t80.5 -34.5q53 -18 86.5 -34.5t57 -47t23.5 -79.5q0 -62 -45 -103.5t-133 -41.5q-57 0 -98.5 19.5t-63 51.5t-23.5 71l70 3q4 -37 37 -57.5zM178 -143q15 12 22 19.5t8 9.5l-11 3q-13 8 -17.5 19.5t-4.5 20.5q1 16 13 26.5t29 9.5q16 -1 27.5 -15
t11.5 -29q0 -60 -65 -116l-49 28q21 12 36 24z" />
    <glyph glyph-name="zacute" unicode="&#x17a;" horiz-adv-x="480" 
d="M273 653q6 13 16.5 19.5t22.5 6.5q5 0 13 -2q11 -4 17 -13t6 -20q0 -12 -8 -23l-63 -83h-53zM78 66l255 368h-246v67h340v-65l-257 -369h275v-67h-367v66z" />
    <glyph glyph-name="uni0163" unicode="&#x163;" horiz-adv-x="267" 
d="M87 35q-28 36 -28 97v568h73v-199h112l-24 -68h-88v-301q0 -71 68 -89l-21 -56q-64 12 -92 48zM80 -142q15 12 22 19.5t8 9.5l-11 3q-13 8 -17.5 19.5t-4.5 20.5q1 16 13 26.5t29 9.5q16 -1 27.5 -15t11.5 -29q0 -60 -65 -116l-49 28q21 12 36 24z" />
    <glyph glyph-name="uni0162" unicode="&#x162;" horiz-adv-x="402" 
d="M162 632h-162v68h402v-68h-168v-632h-72v632zM162 -142q15 12 22 19.5t8 9.5l-11 3q-13 8 -17.5 19.5t-4.5 20.5q1 16 13 26.5t29 9.5q16 -1 27.5 -15t11.5 -29q0 -60 -65 -116l-49 28q21 12 36 24z" />
    <glyph glyph-name="Phi" unicode="&#x3a6;" horiz-adv-x="640" 
d="M302 26h-36q-98 0 -143 53t-45 146v292q0 74 29.5 122.5t86.5 66.5l38 -57q-40 -11 -61 -41.5t-21 -90.5v-291q0 -69 29.5 -104t86.5 -35h36v518q3 50 35.5 78t80.5 28q87 0 137 -54.5t50 -145.5v-286q0 -93 -45 -146t-143 -53h-41v-61l-74 13v48zM502.5 606
q-29.5 35 -72.5 35q-33 0 -43.5 -17.5t-10.5 -42.5v-494h41q115 0 115 139v275q0 70 -29.5 105z" />
    <glyph glyph-name="dieresis" unicode="&#xa8;" horiz-adv-x="222" 
d="M62 674.5q-11 -10.5 -26 -10.5t-25.5 10.5t-10.5 25.5t10.5 26t25.5 11t26 -11t11 -26t-11 -25.5zM159.5 674.5q-10.5 10.5 -10.5 26.5q0 15 10.5 25.5t25.5 10.5t26 -10.5t11 -25.5q0 -16 -11 -26.5t-26 -10.5t-25.5 10.5z" />
    <glyph glyph-name="dieresistonos" unicode="&#x385;" horiz-adv-x="335" 
d="M210 846q6 13 16.5 19.5t22.5 6.5q5 0 13 -2q11 -4 17 -13t6 -20q0 -12 -8 -23l-63 -83h-53zM88 674q-10 10 -10 23q0 14 10 23.5t23 9.5q14 0 23.5 -9.5t9.5 -23.5q0 -13 -9.5 -23t-23.5 -10q-13 0 -23 10zM244 674q-10 10 -10 23q0 14 10 23.5t23 9.5q14 0 23.5 -9.5
t9.5 -23.5q0 -13 -9.5 -23t-23.5 -10q-13 0 -23 10z" />
    <glyph glyph-name="Agrave" unicode="&#xc0;" horiz-adv-x="527" 
d="M162 816q-8 11 -8 23q0 11 6 20t17 13q8 2 13 2q12 0 22 -6.5t16 -19.5l50 -115h-53zM367 226h-208l-66 -226h-78l206 700h83l213 -700h-81zM178 300h171l-87 284z" />
    <glyph glyph-name="Aacute" unicode="&#xc1;" horiz-adv-x="527" 
d="M287 846q6 13 16.5 19.5t22.5 6.5q5 0 13 -2q11 -4 17 -13t6 -20q0 -12 -8 -23l-63 -83h-53zM367 226h-208l-66 -226h-78l206 700h83l213 -700h-81zM178 300h171l-87 284z" />
    <glyph glyph-name="Acircumflex" unicode="&#xc2;" horiz-adv-x="527" 
d="M266 830l-101 -98l-46 39l148 141l142 -141l-47 -39zM367 226h-208l-66 -226h-78l206 700h83l213 -700h-81zM178 300h171l-87 284z" />
    <glyph glyph-name="Atilde" unicode="&#xc3;" horiz-adv-x="527" 
d="M344 729q-17 0 -33 5t-42 16q-23 10 -39 15.5t-32 5.5q-37 0 -73 -37l-29 47q45 52 95 52q18 0 34 -5t42 -16q26 -10 40 -14.5t29 -4.5q37 0 69 35l30 -47q-43 -52 -91 -52zM367 226h-208l-66 -226h-78l206 700h83l213 -700h-81zM178 300h171l-87 284z" />
    <glyph glyph-name="Adieresis" unicode="&#xc4;" horiz-adv-x="527" 
d="M213 741.5q-11 -10.5 -26 -10.5t-25.5 10.5t-10.5 25.5t10.5 26t25.5 11t26 -11t11 -26t-11 -25.5zM310.5 741.5q-10.5 10.5 -10.5 26.5q0 15 10.5 25.5t25.5 10.5t26 -10.5t11 -25.5q0 -16 -11 -26.5t-26 -10.5t-25.5 10.5zM367 226h-208l-66 -226h-78l206 700h83
l213 -700h-81zM178 300h171l-87 284z" />
    <glyph glyph-name="Aring" unicode="&#xc5;" horiz-adv-x="527" 
d="M367 226h-208l-66 -226h-78l197 671q-27 14 -43.5 40.5t-16.5 58.5q0 46 32.5 78.5t78.5 32.5t78.5 -32.5t32.5 -78.5q0 -32 -17 -58.5t-44 -40.5l204 -671h-81zM303 729.5q16 16.5 16 40.5t-16 40t-40 16t-40.5 -16t-16.5 -40t16.5 -40.5t40.5 -16.5t40 16.5zM178 300
h171l-87 284z" />
    <glyph glyph-name="AE" unicode="&#xc6;" horiz-adv-x="814" 
d="M445 230h-167l-120 -230h-80l366 700h335v-69h-262v-218h179l-23 -70h-156v-278h260v-65h-333zM314 300h131v252z" />
    <glyph glyph-name="Ccedilla" unicode="&#xc7;" horiz-adv-x="434" 
d="M200 -159q16 -4 37 -4q24 0 43 10t19 31q0 15 -11 25t-29 10q-16 0 -37 -9l-37 -17l-22 35l55 71q-70 10 -111 56t-41 134v321q0 76 21.5 115t65.5 66q44 25 108 25q78 0 141 -33l-21 -57q-54 20 -105 20q-55 0 -96.5 -28t-41.5 -99v-328q0 -63 35 -94t99 -31
q62 0 141 27l14 -64q-82 -32 -161 -33l-28 -39q14 7 36 7q34 0 58 -21t24 -59q0 -50 -39 -72.5t-90 -22.5q-40 0 -95 20l27 59q25 -17 41 -21z" />
    <glyph glyph-name="Egrave" unicode="&#xc8;" horiz-adv-x="465" 
d="M156 815q-8 11 -8 23q0 11 6 20t17 13q8 2 13 2q12 0 22 -6.5t16 -19.5l50 -115h-53zM78 700h334v-69h-262v-218h175l-23 -70h-152v-278h260v-65h-332v700z" />
    <glyph glyph-name="Eacute" unicode="&#xc9;" horiz-adv-x="465" 
d="M286 845q6 13 16.5 19.5t22.5 6.5q5 0 13 -2q11 -4 17 -13t6 -20q0 -12 -8 -23l-63 -83h-53zM78 700h334v-69h-262v-218h175l-23 -70h-152v-278h260v-65h-332v700z" />
    <glyph glyph-name="Ecircumflex" unicode="&#xca;" horiz-adv-x="465" 
d="M248 830l-101 -98l-46 39l148 141l142 -141l-47 -39zM78 700h334v-69h-262v-218h175l-23 -70h-152v-278h260v-65h-332v700z" />
    <glyph glyph-name="Edieresis" unicode="&#xcb;" horiz-adv-x="465" 
d="M193 741.5q-11 -10.5 -26 -10.5t-25.5 10.5t-10.5 25.5t10.5 26t25.5 11t26 -11t11 -26t-11 -25.5zM290.5 741.5q-10.5 10.5 -10.5 26.5q0 15 10.5 25.5t25.5 10.5t26 -10.5t11 -25.5q0 -16 -11 -26.5t-26 -10.5t-25.5 10.5zM78 700h334v-69h-262v-218h175l-23 -70h-152
v-278h260v-65h-332v700z" />
    <glyph glyph-name="Igrave" unicode="&#xcc;" horiz-adv-x="302" 
d="M96 815q-8 11 -8 23q0 11 6 20t17 13q8 2 13 2q12 0 22 -6.5t16 -19.5l50 -115h-53zM150 632l-66 2v66h138v-700h-72v632z" />
    <glyph glyph-name="Iacute" unicode="&#xcd;" horiz-adv-x="360" 
d="M205 845q6 13 16.5 19.5t22.5 6.5q5 0 13 -2q11 -4 17 -13t6 -20q0 -12 -8 -23l-63 -83h-53zM143 632l-66 2v66h138v-700h-72v632z" />
    <glyph glyph-name="Icircumflex" unicode="&#xce;" horiz-adv-x="448" 
d="M225 830l-101 -98l-46 39l148 141l142 -141l-47 -39zM196 632l-66 2v66h138v-700h-72v632z" />
    <glyph glyph-name="Idieresis" unicode="&#xcf;" horiz-adv-x="380" 
d="M140 739.5q-11 -10.5 -26 -10.5t-25.5 10.5t-10.5 25.5t10.5 26t25.5 11t26 -11t11 -26t-11 -25.5zM237.5 739.5q-10.5 10.5 -10.5 26.5q0 15 10.5 25.5t25.5 10.5t26 -10.5t11 -25.5q0 -16 -11 -26.5t-26 -10.5t-25.5 10.5zM165 632l-66 2v66h138v-700h-72v632z" />
    <glyph glyph-name="Eth" unicode="&#xd0;" horiz-adv-x="640" 
d="M127 457h-49v70h49v174h188q97 0 155 -47t72 -127h63v-70h-58v-257q0 -200 -212 -200h-208v457zM199 527h271q-13 53 -53 79t-92 26h-126v-105zM199 457v-392h120q67 0 111.5 25t44.5 100v267h-276z" />
    <glyph glyph-name="Ntilde" unicode="&#xd1;" horiz-adv-x="650" 
d="M406 728q-17 0 -33 5t-42 16q-23 10 -39 15.5t-32 5.5q-37 0 -73 -37l-29 47q46 52 95 52q18 0 34 -5t42 -16q26 -10 40 -14.5t29 -4.5q37 0 69 35l30 -47q-43 -52 -91 -52zM150 560v-560h-72v700h72l347 -559v559h73v-700h-73z" />
    <glyph glyph-name="Ograve" unicode="&#xd2;" horiz-adv-x="549" 
d="M178 815q-8 11 -8 23q0 11 6 20t17 13q8 2 13 2q12 0 22 -6.5t16 -19.5l50 -115h-53zM421.5 36.5q-61.5 -47.5 -147.5 -47.5q-54 0 -102 19.5t-78.5 63.5t-30.5 113v322q0 103 56.5 156t155.5 53t153.5 -56t54.5 -154v-321q0 -101 -61.5 -148.5zM375.5 607
q-35.5 36 -102.5 36t-102.5 -35.5t-35.5 -105.5v-311q0 -64 38 -97.5t100 -33.5t100 33.5t38 99.5v309q0 69 -35.5 105z" />
    <glyph glyph-name="Oacute" unicode="&#xd3;" horiz-adv-x="549" 
d="M306 845q6 13 16.5 19.5t22.5 6.5q5 0 13 -2q11 -4 17 -13t6 -20q0 -12 -8 -23l-63 -83h-53zM421.5 36.5q-61.5 -47.5 -147.5 -47.5q-54 0 -102 19.5t-78.5 63.5t-30.5 113v322q0 103 56.5 156t155.5 53t153.5 -56t54.5 -154v-321q0 -101 -61.5 -148.5zM375.5 607
q-35.5 36 -102.5 36t-102.5 -35.5t-35.5 -105.5v-311q0 -64 38 -97.5t100 -33.5t100 33.5t38 99.5v309q0 69 -35.5 105z" />
    <glyph glyph-name="Ocircumflex" unicode="&#xd4;" horiz-adv-x="549" 
d="M278 830l-101 -98l-46 39l148 141l142 -141l-47 -39zM421.5 36.5q-61.5 -47.5 -147.5 -47.5q-54 0 -102 19.5t-78.5 63.5t-30.5 113v322q0 103 56.5 156t155.5 53t153.5 -56t54.5 -154v-321q0 -101 -61.5 -148.5zM375.5 607q-35.5 36 -102.5 36t-102.5 -35.5
t-35.5 -105.5v-311q0 -64 38 -97.5t100 -33.5t100 33.5t38 99.5v309q0 69 -35.5 105z" />
    <glyph glyph-name="Otilde" unicode="&#xd5;" horiz-adv-x="549" 
d="M359 729q-17 0 -33 5t-42 16q-23 10 -39 15.5t-32 5.5q-37 0 -73 -37l-29 47q46 52 95 52q18 0 34 -5t42 -16q26 -10 40 -14.5t29 -4.5q37 0 69 35l30 -47q-43 -52 -91 -52zM421.5 36.5q-61.5 -47.5 -147.5 -47.5q-54 0 -102 19.5t-78.5 63.5t-30.5 113v322
q0 103 56.5 156t155.5 53t153.5 -56t54.5 -154v-321q0 -101 -61.5 -148.5zM375.5 607q-35.5 36 -102.5 36t-102.5 -35.5t-35.5 -105.5v-311q0 -64 38 -97.5t100 -33.5t100 33.5t38 99.5v309q0 69 -35.5 105z" />
    <glyph glyph-name="Odieresis" unicode="&#xd6;" horiz-adv-x="549" 
d="M222 741.5q-11 -10.5 -26 -10.5t-25.5 10.5t-10.5 25.5t10.5 26t25.5 11t26 -11t11 -26t-11 -25.5zM319.5 741.5q-10.5 10.5 -10.5 26.5q0 15 10.5 25.5t25.5 10.5t26 -10.5t11 -25.5q0 -16 -11 -26.5t-26 -10.5t-25.5 10.5zM421.5 36.5q-61.5 -47.5 -147.5 -47.5
q-54 0 -102 19.5t-78.5 63.5t-30.5 113v322q0 103 56.5 156t155.5 53t153.5 -56t54.5 -154v-321q0 -101 -61.5 -148.5zM375.5 607q-35.5 36 -102.5 36t-102.5 -35.5t-35.5 -105.5v-311q0 -64 38 -97.5t100 -33.5t100 33.5t38 99.5v309q0 69 -35.5 105z" />
    <glyph glyph-name="Oslash" unicode="&#xd8;" horiz-adv-x="540" 
d="M145 34q-65 52 -65 151v322q0 103 56.5 156t155.5 53q47 0 86 -14l40 115h76l-53 -153q29 -27 44 -67.5t15 -90.5v-321q0 -101 -61.5 -148.5t-147.5 -47.5q-40 0 -81 11l-39 -114h-77zM290 643q-67 0 -102.5 -35.5t-35.5 -105.5v-311q0 -48 21 -78l180 519q-28 11 -63 11
zM412 580l-178 -512q27 -8 56 -8q62 0 100 33.5t38 99.5v309q0 44 -16 78z" />
    <glyph glyph-name="Ugrave" unicode="&#xd9;" horiz-adv-x="566" 
d="M195 815q-8 11 -8 23q0 11 6 20t17 13q8 2 13 2q12 0 22 -6.5t16 -19.5l50 -115h-53zM495 701v-515q0 -101 -61.5 -147t-148.5 -46t-149 46t-62 147v515h72v-507q0 -62 37.5 -98t100.5 -36q64 0 101.5 36t37.5 98v507h72z" />
    <glyph glyph-name="Uacute" unicode="&#xda;" horiz-adv-x="566" 
d="M307 846q6 13 16.5 19.5t22.5 6.5q5 0 13 -2q11 -4 17 -13t6 -20q0 -12 -8 -23l-63 -83h-53zM495 701v-515q0 -101 -61.5 -147t-148.5 -46t-149 46t-62 147v515h72v-507q0 -62 37.5 -98t100.5 -36q64 0 101.5 36t37.5 98v507h72z" />
    <glyph glyph-name="Ucircumflex" unicode="&#xdb;" horiz-adv-x="566" 
d="M287 830l-101 -98l-46 39l148 141l142 -141l-47 -39zM495 701v-515q0 -101 -61.5 -147t-148.5 -46t-149 46t-62 147v515h72v-507q0 -62 37.5 -98t100.5 -36q64 0 101.5 36t37.5 98v507h72z" />
    <glyph glyph-name="Udieresis" unicode="&#xdc;" horiz-adv-x="566" 
d="M234 741.5q-11 -10.5 -26 -10.5t-25.5 10.5t-10.5 25.5t10.5 26t25.5 11t26 -11t11 -26t-11 -25.5zM331.5 741.5q-10.5 10.5 -10.5 26.5q0 15 10.5 25.5t25.5 10.5t26 -10.5t11 -25.5q0 -16 -11 -26.5t-26 -10.5t-25.5 10.5zM495 701v-515q0 -101 -61.5 -147t-148.5 -46
t-149 46t-62 147v515h72v-507q0 -62 37.5 -98t100.5 -36q64 0 101.5 36t37.5 98v507h72z" />
    <glyph glyph-name="Yacute" unicode="&#xdd;" horiz-adv-x="556" 
d="M303 846q6 13 16.5 19.5t22.5 6.5q5 0 13 -2q11 -4 17 -13t6 -20q0 -12 -8 -23l-63 -83h-53zM409 73.5q18 24.5 18 82.5v116q-24 -20 -63.5 -31t-78.5 -11q-105 0 -167 54.5t-62 156.5v259h73v-263q0 -67 42 -101.5t114 -34.5q55 0 93.5 21.5t48.5 60.5v317h73v-544
q0 -152 -118 -167l-20 51q29 9 47 33.5z" />
    <glyph glyph-name="Thorn" unicode="&#xde;" horiz-adv-x="490" 
d="M78 700h72v-234q22 20 53.5 31.5t61.5 11.5q93 0 141.5 -54t48.5 -140q0 -94 -51.5 -146.5t-134.5 -52.5q-32 0 -66 14t-53 41v-171h-72v700zM350 217q33 32 33 101q0 60 -33 92t-81 32q-47 0 -82.5 -30t-36.5 -90q0 -70 33 -103.5t86 -33.5q48 0 81 32z" />
    <glyph glyph-name="germandbls" unicode="&#xdf;" horiz-adv-x="527" 
d="M78 537q0 76 37 120t109 44q43 0 73.5 -19.5t46 -50.5t15.5 -65q0 -26 -9 -50t-27 -39h-27q-9 -16 -9 -31q0 -23 18.5 -45t60.5 -60q42 -36 63 -59q63 -69 63 -138q0 -37 -17 -72q-19 -41 -59 -62t-89 -21q-40 0 -78.5 13t-65.5 35l34 64q22 -21 49.5 -31.5t55.5 -10.5
t49.5 10.5t31.5 30.5q13 23 13 47q0 46 -48 96q-11 11 -27.5 26t-25.5 24q-51 45 -76.5 78t-25.5 72q0 32 18 64q27 0 41.5 17t14.5 41q0 27 -16 47t-44 20q-76 0 -76 -102v-530h-73v537z" />
    <glyph glyph-name="agrave" unicode="&#xe0;" horiz-adv-x="498" 
d="M178 623q-8 11 -8 23q0 11 6 20t17 13q8 2 13 2q12 0 22 -6.5t16 -19.5l50 -115h-53zM307 -11q-105 0 -167 39t-62 141v83q0 99 69 133q33 16 81 16q44 0 89 -13.5t74 -34.5q0 103 -141 103l5 53q96 0 141.5 -30.5t56 -72.5t10.5 -108v-298q-108 -11 -156 -11zM314 318.5
q-42 13.5 -77 13.5q-87 0 -87 -86v-78q0 -114 156 -114q31 0 85 7v227q-35 17 -77 30.5z" />
    <glyph glyph-name="aacute" unicode="&#xe1;" horiz-adv-x="498" 
d="M307 653q6 13 16.5 19.5t22.5 6.5q5 0 13 -2q11 -4 17 -13t6 -20q0 -12 -8 -23l-63 -83h-53zM307 -11q-105 0 -167 39t-62 141v83q0 99 69 133q33 16 81 16q44 0 89 -13.5t74 -34.5q0 103 -141 103l5 53q96 0 141.5 -30.5t56 -72.5t10.5 -108v-298q-108 -11 -156 -11z
M314 318.5q-42 13.5 -77 13.5q-87 0 -87 -86v-78q0 -114 156 -114q31 0 85 7v227q-35 17 -77 30.5z" />
    <glyph glyph-name="acircumflex" unicode="&#xe2;" horiz-adv-x="498" 
d="M282 637l-101 -98l-46 39l148 141l142 -141l-47 -39zM307 -11q-105 0 -167 39t-62 141v83q0 99 69 133q33 16 81 16q44 0 89 -13.5t74 -34.5q0 103 -141 103l5 53q96 0 141.5 -30.5t56 -72.5t10.5 -108v-298q-108 -11 -156 -11zM314 318.5q-42 13.5 -77 13.5
q-87 0 -87 -86v-78q0 -114 156 -114q31 0 85 7v227q-35 17 -77 30.5z" />
    <glyph glyph-name="atilde" unicode="&#xe3;" horiz-adv-x="498" 
d="M351 540q-17 0 -33 5t-42 16q-23 10 -39 15.5t-32 5.5q-37 0 -73 -37l-29 47q45 52 95 52q18 0 34 -5t42 -16q26 -10 40 -14.5t29 -4.5q37 0 69 35l30 -47q-43 -52 -91 -52zM307 -11q-105 0 -167 39t-62 141v83q0 99 69 133q33 16 81 16q44 0 89 -13.5t74 -34.5
q0 103 -141 103l5 53q96 0 141.5 -30.5t56 -72.5t10.5 -108v-298q-108 -11 -156 -11zM314 318.5q-42 13.5 -77 13.5q-87 0 -87 -86v-78q0 -114 156 -114q31 0 85 7v227q-35 17 -77 30.5z" />
    <glyph glyph-name="adieresis" unicode="&#xe4;" horiz-adv-x="498" 
d="M232 549.5q-11 -10.5 -26 -10.5t-25.5 10.5t-10.5 25.5t10.5 26t25.5 11t26 -11t11 -26t-11 -25.5zM329.5 549.5q-10.5 10.5 -10.5 26.5q0 15 10.5 25.5t25.5 10.5t26 -10.5t11 -25.5q0 -16 -11 -26.5t-26 -10.5t-25.5 10.5zM307 -11q-105 0 -167 39t-62 141v83
q0 99 69 133q33 16 81 16q44 0 89 -13.5t74 -34.5q0 103 -141 103l5 53q96 0 141.5 -30.5t56 -72.5t10.5 -108v-298q-108 -11 -156 -11zM314 318.5q-42 13.5 -77 13.5q-87 0 -87 -86v-78q0 -114 156 -114q31 0 85 7v227q-35 17 -77 30.5z" />
    <glyph glyph-name="aring" unicode="&#xe5;" horiz-adv-x="498" 
d="M307 -11q-105 0 -167 39t-62 141v83q0 99 69 133q33 16 81 16q44 0 89 -13.5t74 -34.5q0 103 -141 103q-42 5 -71 36.5t-29 74.5q0 46 32.5 78.5t78.5 32.5t78.5 -32.5t32.5 -78.5q0 -39 -24 -69q53 -14 78.5 -45t31 -66t5.5 -89v-298q-108 -11 -156 -11zM301 526.5
q16 16.5 16 40.5t-16 40t-40 16t-40.5 -16t-16.5 -40t16.5 -40.5t40.5 -16.5t40 16.5zM314 318.5q-42 13.5 -77 13.5q-87 0 -87 -86v-78q0 -114 156 -114q31 0 85 7v227q-35 17 -77 30.5z" />
    <glyph glyph-name="ae" unicode="&#xe6;" horiz-adv-x="786" 
d="M644 0.5q-46 -12.5 -91 -12.5q-51 0 -90 17v-5q-108 -11 -156 -11q-105 0 -167 39t-62 141v83q0 99 69 133q33 16 81 16q44 0 89 -13.5t74 -34.5q0 103 -141 103l5 53q127 0 173 -58q25 29 62.5 44t84.5 15q83 0 129.5 -44.5t46.5 -123.5v-137l-288 -15v-59q2 -38 28 -58
t68 -20q64 0 140 41l27 -59q-36 -22 -82 -34.5zM645 421.5q-33 22.5 -71 22.5q-50 0 -80.5 -27t-30.5 -79v-80l215 11v77q0 53 -33 75.5zM314 318.5q-42 13.5 -77 13.5q-87 0 -87 -86v-78q0 -114 156 -114q31 0 85 7v227q-35 17 -77 30.5z" />
    <glyph glyph-name="ccedilla" unicode="&#xe7;" horiz-adv-x="383" 
d="M152 -159q16 -4 37 -4q24 0 43 10t19 31q0 15 -11 25t-29 10q-16 0 -37 -9l-37 -17l-22 35l57 74l-24 6q-59 20 -85.5 61.5t-26.5 116.5v128q0 99 52 150.5t134 51.5q65 0 134 -32l-20 -57q-57 22 -102 22q-57 0 -91.5 -32.5t-34.5 -96.5v-145q0 -59 38.5 -85.5
t98.5 -26.5q47 0 96 13l17 -64q-73 -19 -139 -16l-29 -39q14 7 36 7q34 0 58 -21t24 -59q0 -50 -39 -72.5t-90 -22.5q-40 0 -95 20l27 59q25 -17 41 -21z" />
    <glyph glyph-name="egrave" unicode="&#xe8;" horiz-adv-x="473" 
d="M170 623q-8 11 -8 23q0 11 6 20t17 13q8 2 13 2q12 0 22 -6.5t16 -19.5l50 -115h-53zM331 0q-46 -12 -92 -12q-74 0 -117.5 36.5t-43.5 109.5v205q0 81 50.5 126t133.5 45t129.5 -44.5t46.5 -123.5v-137l-288 -15v-52q0 -42 26 -63t71 -21q65 0 139 40l27 -59
q-36 -23 -82 -35zM332 421.5q-33 22.5 -71 22.5q-50 0 -80.5 -27t-30.5 -79v-80l215 11v77q0 53 -33 75.5z" />
    <glyph glyph-name="eacute" unicode="&#xe9;" horiz-adv-x="473" 
d="M289 653q6 13 16.5 19.5t22.5 6.5q5 0 13 -2q11 -4 17 -13t6 -20q0 -12 -8 -23l-63 -83h-53zM331 0q-46 -12 -92 -12q-74 0 -117.5 36.5t-43.5 109.5v205q0 81 50.5 126t133.5 45t129.5 -44.5t46.5 -123.5v-137l-288 -15v-52q0 -42 26 -63t71 -21q65 0 139 40l27 -59
q-36 -23 -82 -35zM332 421.5q-33 22.5 -71 22.5q-50 0 -80.5 -27t-30.5 -79v-80l215 11v77q0 53 -33 75.5z" />
    <glyph glyph-name="ecircumflex" unicode="&#xea;" horiz-adv-x="473" 
d="M276 637l-101 -98l-46 39l148 141l142 -141l-47 -39zM331 0q-46 -12 -92 -12q-74 0 -117.5 36.5t-43.5 109.5v205q0 81 50.5 126t133.5 45t129.5 -44.5t46.5 -123.5v-137l-288 -15v-52q0 -42 26 -63t71 -21q65 0 139 40l27 -59q-36 -23 -82 -35zM332 421.5
q-33 22.5 -71 22.5q-50 0 -80.5 -27t-30.5 -79v-80l215 11v77q0 53 -33 75.5z" />
    <glyph glyph-name="edieresis" unicode="&#xeb;" horiz-adv-x="537" 
d="M167 549.5q-11 -10.5 -26 -10.5t-25.5 10.5t-10.5 25.5t10.5 26t25.5 11t26 -11t11 -26t-11 -25.5zM264.5 549.5q-10.5 10.5 -10.5 26.5q0 15 10.5 25.5t25.5 10.5t26 -10.5t11 -25.5q0 -16 -11 -26.5t-26 -10.5t-25.5 10.5zM288 0q-46 -12 -92 -12q-74 0 -117.5 36.5
t-43.5 109.5v205q0 81 50.5 126t133.5 45t129.5 -44.5t46.5 -123.5v-137l-288 -15v-52q0 -42 26 -63t71 -21q65 0 139 40l27 -59q-36 -23 -82 -35zM289 421.5q-33 22.5 -71 22.5q-50 0 -80.5 -27t-30.5 -79v-80l215 11v77q0 53 -33 75.5z" />
    <glyph glyph-name="igrave" unicode="&#xec;" horiz-adv-x="254" 
d="M86 623q-8 11 -8 23q0 11 6 20t17 13q8 2 13 2q12 0 22 -6.5t16 -19.5l50 -115h-53zM147 501h72v-501h-72v501z" />
    <glyph glyph-name="iacute" unicode="&#xed;" horiz-adv-x="249" 
d="M139 653q6 13 16.5 19.5t22.5 6.5q5 0 13 -2q11 -4 17 -13t6 -20q0 -12 -8 -23l-63 -83h-53zM78 501h72v-501h-72v501z" />
    <glyph glyph-name="icircumflex" unicode="&#xee;" horiz-adv-x="225" 
d="M111 637l-101 -98l-46 39l148 141l142 -141l-47 -39zM75 501h72v-501h-72v501z" />
    <glyph glyph-name="idieresis" unicode="&#xef;" horiz-adv-x="335" 
d="M140 549.5q-11 -10.5 -26 -10.5t-25.5 10.5t-10.5 25.5t10.5 26t25.5 11t26 -11t11 -26t-11 -25.5zM237.5 549.5q-10.5 10.5 -10.5 26.5q0 15 10.5 25.5t25.5 10.5t26 -10.5t11 -25.5q0 -16 -11 -26.5t-26 -10.5t-25.5 10.5zM153 501h72v-501h-72v501z" />
    <glyph glyph-name="ntilde" unicode="&#xf1;" horiz-adv-x="482" 
d="M340 541q-17 0 -33 5t-42 16q-23 10 -39 15.5t-32 5.5q-37 0 -73 -37l-29 47q45 52 95 52q18 0 34 -5t42 -16q26 -10 40 -14.5t29 -4.5q37 0 69 35l30 -47q-43 -52 -91 -52zM375 335q0 54 -32.5 80.5t-82.5 26.5q-28 0 -57 -7.5t-53 -21.5v-413h-72v501h68l1 -26
q23 16 55.5 25t68.5 9q52 0 91 -18q40 -18 62.5 -54t22.5 -91v-346h-72v335z" />
    <glyph glyph-name="ograve" unicode="&#xf2;" 
d="M169 623q-8 11 -8 23q0 11 6 20t17 13q8 2 13 2q12 0 22 -6.5t16 -19.5l50 -115h-53zM405 45q-46 -55 -139 -55t-140.5 55.5t-47.5 138.5v132q0 95 48.5 145.5t139.5 50.5q87 0 136 -52.5t49 -143.5v-132q0 -84 -46 -139zM266 443q-53 0 -84.5 -30t-31.5 -97v-142
q0 -54 31.5 -85.5t84.5 -31.5t83 31.5t30 85.5v142q0 127 -113 127z" />
    <glyph glyph-name="oacute" unicode="&#xf3;" 
d="M288 653q6 13 16.5 19.5t22.5 6.5q5 0 13 -2q11 -4 17 -13t6 -20q0 -12 -8 -23l-63 -83h-53zM405 45q-46 -55 -139 -55t-140.5 55.5t-47.5 138.5v132q0 95 48.5 145.5t139.5 50.5q87 0 136 -52.5t49 -143.5v-132q0 -84 -46 -139zM266 443q-53 0 -84.5 -30t-31.5 -97v-142
q0 -54 31.5 -85.5t84.5 -31.5t83 31.5t30 85.5v142q0 127 -113 127z" />
    <glyph glyph-name="ocircumflex" unicode="&#xf4;" 
d="M271 637l-101 -98l-46 39l148 141l142 -141l-47 -39zM405 45q-46 -55 -139 -55t-140.5 55.5t-47.5 138.5v132q0 95 48.5 145.5t139.5 50.5q87 0 136 -52.5t49 -143.5v-132q0 -84 -46 -139zM266 443q-53 0 -84.5 -30t-31.5 -97v-142q0 -54 31.5 -85.5t84.5 -31.5t83 31.5
t30 85.5v142q0 127 -113 127z" />
    <glyph glyph-name="otilde" unicode="&#xf5;" 
d="M349 533q-17 0 -33 5t-42 16q-23 10 -39 15.5t-32 5.5q-37 0 -73 -37l-29 47q46 52 95 52q18 0 34 -5t42 -16q26 -10 40 -14.5t29 -4.5q37 0 69 35l30 -47q-43 -52 -91 -52zM405 45q-46 -55 -139 -55t-140.5 55.5t-47.5 138.5v132q0 95 48.5 145.5t139.5 50.5
q87 0 136 -52.5t49 -143.5v-132q0 -84 -46 -139zM266 443q-53 0 -84.5 -30t-31.5 -97v-142q0 -54 31.5 -85.5t84.5 -31.5t83 31.5t30 85.5v142q0 127 -113 127z" />
    <glyph glyph-name="odieresis" unicode="&#xf6;" 
d="M221 549.5q-11 -10.5 -26 -10.5t-25.5 10.5t-10.5 25.5t10.5 26t25.5 11t26 -11t11 -26t-11 -25.5zM318.5 549.5q-10.5 10.5 -10.5 26.5q0 15 10.5 25.5t25.5 10.5t26 -10.5t11 -25.5q0 -16 -11 -26.5t-26 -10.5t-25.5 10.5zM405 45q-46 -55 -139 -55t-140.5 55.5
t-47.5 138.5v132q0 95 48.5 145.5t139.5 50.5q87 0 136 -52.5t49 -143.5v-132q0 -84 -46 -139zM266 443q-53 0 -84.5 -30t-31.5 -97v-142q0 -54 31.5 -85.5t84.5 -31.5t83 31.5t30 85.5v142q0 127 -113 127z" />
    <glyph glyph-name="oslash" unicode="&#xf8;" horiz-adv-x="490" 
d="M136 35q-29 27 -43.5 65.5t-14.5 83.5v132q0 95 48.5 145.5t139.5 50.5q37 0 70 -11l37 87h73l-53 -121q28 -26 43 -64.5t15 -86.5v-132q0 -84 -46 -139t-139 -55q-41 0 -74 11l-29 -68h-71zM266 443q-53 0 -84.5 -30t-31.5 -97v-142q0 -39 17 -67l141 330q-20 6 -42 6z
M362 394l-143 -330q20 -7 47 -7q53 0 83 31.5t30 85.5v142q0 46 -17 78z" />
    <glyph glyph-name="ugrave" unicode="&#xf9;" 
d="M176 623q-8 11 -8 23q0 11 6 20t17 13q8 2 13 2q12 0 22 -6.5t16 -19.5l50 -115h-53zM382 37q-21 -23 -52 -35.5t-64 -12.5q-188 0 -188 183v329h72v-329q0 -58 30 -86.5t86 -28.5q113 0 113 116v328h72v-501h-69v37z" />
    <glyph glyph-name="uacute" unicode="&#xfa;" 
d="M288 653q6 13 16.5 19.5t22.5 6.5q5 0 13 -2q11 -4 17 -13t6 -20q0 -12 -8 -23l-63 -83h-53zM382 37q-21 -23 -52 -35.5t-64 -12.5q-188 0 -188 183v329h72v-329q0 -58 30 -86.5t86 -28.5q113 0 113 116v328h72v-501h-69v37z" />
    <glyph glyph-name="ucircumflex" unicode="&#xfb;" 
d="M268 637l-101 -98l-46 39l148 141l142 -141l-47 -39zM382 37q-21 -23 -52 -35.5t-64 -12.5q-188 0 -188 183v329h72v-329q0 -58 30 -86.5t86 -28.5q113 0 113 116v328h72v-501h-69v37z" />
    <glyph glyph-name="udieresis" unicode="&#xfc;" 
d="M216 549.5q-11 -10.5 -26 -10.5t-25.5 10.5t-10.5 25.5t10.5 26t25.5 11t26 -11t11 -26t-11 -25.5zM313.5 549.5q-10.5 10.5 -10.5 26.5q0 15 10.5 25.5t25.5 10.5t26 -10.5t11 -25.5q0 -16 -11 -26.5t-26 -10.5t-25.5 10.5zM382 37q-21 -23 -52 -35.5t-64 -12.5
q-188 0 -188 183v329h72v-329q0 -58 30 -86.5t86 -28.5q113 0 113 116v328h72v-501h-69v37z" />
    <glyph glyph-name="yacute" unicode="&#xfd;" horiz-adv-x="530" 
d="M285 653q6 13 16.5 19.5t22.5 6.5q5 0 13 -2q11 -4 17 -13t6 -20q0 -12 -8 -23l-63 -83h-53zM383 -61v96q-18 -24 -50 -35.5t-72 -11.5q-88 0 -135.5 47.5t-47.5 140.5v325h71v-323q0 -121 112 -121q121 0 121 121v185q0 59 18.5 96.5t71.5 50.5l23 -54q-21 -7 -31.5 -26
t-10.5 -45v-446q0 -62 -26.5 -98t-87.5 -51l-23 56q67 20 67 93z" />
    <glyph glyph-name="thorn" unicode="&#xfe;" horiz-adv-x="490" 
d="M78 588h72v-122q22 20 53.5 31.5t61.5 11.5q93 0 141.5 -54t48.5 -140q0 -94 -51.5 -146.5t-134.5 -52.5q-32 0 -66 14t-53 41v-171h-72v588zM183 218.5q33 -33.5 86 -33.5q48 0 81 32t33 101q0 60 -33 92t-81 32q-47 0 -82.5 -30t-36.5 -90q0 -70 33 -103.5z" />
    <glyph glyph-name="ydieresis" unicode="&#xff;" horiz-adv-x="530" 
d="M222 549.5q-11 -10.5 -26 -10.5t-25.5 10.5t-10.5 25.5t10.5 26t25.5 11t26 -11t11 -26t-11 -25.5zM319.5 549.5q-10.5 10.5 -10.5 26.5q0 15 10.5 25.5t25.5 10.5t26 -10.5t11 -25.5q0 -16 -11 -26.5t-26 -10.5t-25.5 10.5zM383 -61v96q-18 -24 -50 -35.5t-72 -11.5
q-88 0 -135.5 47.5t-47.5 140.5v325h71v-323q0 -121 112 -121q121 0 121 121v185q0 59 18.5 96.5t71.5 50.5l23 -54q-21 -7 -31.5 -26t-10.5 -45v-446q0 -62 -26.5 -98t-87.5 -51l-23 56q67 20 67 93z" />
    <glyph glyph-name="oe" unicode="&#x153;" horiz-adv-x="784" 
d="M648 0q-46 -12 -91 -12q-105 0 -149 66q-22 -29 -58 -46.5t-84 -17.5q-93 0 -140.5 55.5t-47.5 138.5v132q0 95 48.5 145.5t139.5 50.5q51 0 89 -19.5t61 -54.5q28 37 66.5 54.5t92.5 17.5q81 0 127.5 -47t46.5 -126v-133l-297 -18v-45q0 -43 30 -65t80 -22q68 0 142 37
l27 -56q-37 -23 -83 -35zM643.5 421.5q-33.5 24.5 -73.5 24.5q-53 0 -85.5 -29.5t-32.5 -88.5v-72l225 11v72q0 58 -33.5 82.5zM348 415q-31 30 -82 30q-52 0 -84 -30t-32 -99v-142q0 -57 32.5 -88.5t83.5 -31.5t82 31.5t31 88.5v142q0 69 -31 99z" />
    <glyph glyph-name="zcaron" unicode="&#x17e;" horiz-adv-x="480" 
d="M142 731l46 39l101 -97l96 97l47 -39l-142 -141zM78 66l255 368h-246v67h340v-65l-257 -369h275v-67h-367v66z" />
    <glyph glyph-name="Scaron" unicode="&#x160;" horiz-adv-x="561" 
d="M154 924l46 39l101 -97l96 97l47 -39l-142 -141zM135.5 122.5q20.5 -28.5 55.5 -46t81 -17.5q71 0 116.5 32.5t45.5 94.5q0 44 -24 73.5t-59 47t-96 40.5q-65 24 -105 44.5t-67.5 56t-27.5 90.5q0 44 25 83.5t75.5 64t124.5 24.5q49 0 81 -7t65 -23l-22 -68
q-62 27 -122 27q-71 0 -111.5 -28.5t-39.5 -77.5q0 -30 21 -51.5t52 -36.5t84 -34q71 -26 116 -49.5t76.5 -65t31.5 -103.5q0 -92 -58.5 -148t-180.5 -56q-74 0 -126.5 27.5t-80 71t-29.5 90.5l75 5q3 -32 23.5 -60.5z" />
    <glyph glyph-name="OE" unicode="&#x152;" horiz-adv-x="794" 
d="M425 28q-54 -39 -136 -39q-54 0 -102 19.5t-78.5 63.5t-30.5 113v322q0 103 56.5 156t155.5 53q81 0 135 -40v24h334v-69h-262v-97q1 -9 1 -28v-93h174l-23 -70h-151v-158l-1 -22v-98h260v-65h-332v28zM385 612.5q-35 30.5 -97 30.5q-67 0 -102.5 -35.5t-35.5 -105.5
v-311q0 -64 38 -97.5t100 -33.5q57 0 94 28.5t43 84.5v349q-5 60 -40 90.5z" />
    <glyph glyph-name="Zcaron" unicode="&#x17d;" horiz-adv-x="550" 
d="M154 924l46 39l101 -97l96 97l47 -39l-142 -141zM31 65l390 566h-377v69h468v-68l-390 -565h396v-67h-487v65z" />
    <glyph glyph-name="scaron" unicode="&#x161;" horiz-adv-x="476" 
d="M115 731l46 39l101 -97l96 97l47 -39l-142 -141zM185 72.5q33 -20.5 78 -20.5q41 0 72.5 19.5t31.5 58.5q0 27 -15.5 45t-39 28.5t-64.5 24.5q-49 17 -78.5 30.5t-52 39.5t-27.5 67l-1 12q0 33 18.5 64.5t57 51.5t96.5 20q32 0 56.5 -6.5t38.5 -13.5t17 -9l-23 -63
q-3 2 -13.5 8t-30.5 11.5t-45 5.5q-47 0 -74 -21t-23 -57q3 -27 29.5 -42.5t80.5 -34.5q53 -18 86.5 -34.5t57 -47t23.5 -79.5q0 -62 -45 -103.5t-133 -41.5q-57 0 -98.5 19.5t-63 51.5t-23.5 71l70 3q4 -37 37 -57.5z" />
    <glyph glyph-name="Ydieresis" unicode="&#x178;" horiz-adv-x="556" 
d="M229 741.5q-11 -10.5 -26 -10.5t-25.5 10.5t-10.5 25.5t10.5 26t25.5 11t26 -11t11 -26t-11 -25.5zM326.5 741.5q-10.5 10.5 -10.5 26.5q0 15 10.5 25.5t25.5 10.5t26 -10.5t11 -25.5q0 -16 -11 -26.5t-26 -10.5t-25.5 10.5zM409 73.5q18 24.5 18 82.5v116
q-24 -20 -63.5 -31t-78.5 -11q-105 0 -167 54.5t-62 156.5v259h73v-263q0 -67 42 -101.5t114 -34.5q55 0 93.5 21.5t48.5 60.5v317h73v-544q0 -152 -118 -167l-20 51q29 9 47 33.5z" />
    <glyph glyph-name="Upsilondieresis_alt" unicode="&#x3ab;" horiz-adv-x="510" 
d="M184 739.5q-11 -10.5 -26 -10.5t-25.5 10.5t-10.5 25.5t10.5 26t25.5 11t26 -11t11 -26t-11 -25.5zM281.5 739.5q-10.5 10.5 -10.5 26.5q0 15 10.5 25.5t25.5 10.5t26 -10.5t11 -25.5q0 -16 -11 -26.5t-26 -10.5t-25.5 10.5zM203 332l-200 368h79l156 -286l158 286h79
l-200 -366v-334h-72v332z" />
    <glyph glyph-name="quotedbl" unicode="&#x22;" horiz-adv-x="426" 
d="M105 698q0 18 11.5 28t26.5 10t26 -10t11 -28l-14 -186h-47zM249 698q0 18 11.5 28t26.5 10t26 -10t11 -28l-14 -186h-47z" />
    <glyph glyph-name="exclam" unicode="!" horiz-adv-x="240" 
d="M79 663q0 21 9.5 34t30.5 13q22 0 31.5 -13t9.5 -33l-13 -544h-56zM145.5 11q-11.5 -11 -27.5 -11q-15 0 -26.5 11t-11.5 27t11.5 27t26.5 11q16 0 27.5 -11t11.5 -27t-11.5 -27z" />
    <glyph glyph-name="Euro" unicode="&#x20ac;" horiz-adv-x="531" 
d="M330 -12q-87 0 -141 46t-54 147v55h-57v70h57v50h-57v70h57v76q0 76 21.5 115t65.5 66q44 25 108 25q78 0 141 -33l-21 -57q-54 20 -105 20q-55 0 -96.5 -28t-41.5 -99v-85h191v-70h-191v-50h191v-70h-191v-53q0 -63 35 -94t99 -31q61 0 141 27l14 -64q-89 -33 -166 -33z
" />
    <glyph glyph-name="dotlessi" unicode="&#x131;" horiz-adv-x="146" 
d="M36 501h72v-501h-72v501z" />
    <glyph glyph-name="uni0237" unicode="&#x237;" horiz-adv-x="259" 
d="M106 437l-23 64h142v-576q-2 -57 -40 -95.5t-93 -38.5l-13 56q0 -3 20.5 6t36.5 31.5t16 65.5v482z" />
    <glyph glyph-name="uni03BC" unicode="&#x3bc;" horiz-adv-x="520" 
d="M420 0q-10 6 -19 20q-15 -16 -42 -24t-61 -8q-14 0 -21 1q-60 7 -91 23t-35 18v-240l-73 9v702h73v-394q6 -6 26.5 -18t51.5 -22.5t64 -10.5q92 0 92 110v332l73 12v-441q0 -5 6 -19t21 -23l-49 -33q-6 0 -16 6z" />
    <glyph glyph-name="uni0394" unicode="&#x394;" horiz-adv-x="526" 
d="M229 700h70l221 -700h-505zM111 65h311l-157 509z" />
    </font>
</defs>
</svg>
