<?xml version="1.0" standalone="no"?>
<!DOCTYPE svg PUBLIC "-//W3C//DTD SVG 1.1//EN" "http://www.w3.org/Graphics/SVG/1.1/DTD/svg11.dtd" >
<svg xmlns="http://www.w3.org/2000/svg" xmlns:xlink="http://www.w3.org/1999/xlink" version="1.1">
<metadata>
Created by FontForge 20170812 at Fri Jul  8 11:54:11 2011
 By www-data
Copyright (c) 2011, wmk69, (wmk69@o2.pl),
with Reserved Font Names 'ModernAntiqua' and 'Modern Antiqua'.

This Font Software is licensed under the SIL Open Font License, Version 1.1.
This license is available with a FAQ at:
http://scripts.sil.org/OFL

</metadata>
<defs>
<font id="ModernAntiqua-Regular" horiz-adv-x="1198" >
  <font-face 
    font-family="Modern Antiqua"
    font-weight="500"
    font-stretch="normal"
    units-per-em="2048"
    panose-1="2 10 6 4 2 2 2 6 2 4"
    ascent="1638"
    descent="-410"
    x-height="1077"
    cap-height="1511"
    bbox="-80 -435 2235 1950"
    underline-thickness="122"
    underline-position="-203"
    unicode-range="U+0020-25CA"
  />
<missing-glyph horiz-adv-x="748" 
d="M68 0v1365h544v-1365h-544zM136 68h408v1229h-408v-1229z" />
    <glyph glyph-name=".notdef" horiz-adv-x="748" 
d="M68 0v1365h544v-1365h-544zM136 68h408v1229h-408v-1229z" />
    <glyph glyph-name=".null" horiz-adv-x="0" 
 />
    <glyph glyph-name="nonmarkingreturn" horiz-adv-x="682" 
 />
    <glyph glyph-name="space" unicode=" " horiz-adv-x="600" 
 />
    <glyph glyph-name="exclam" unicode="!" horiz-adv-x="660" 
d="M200 107q0 55 38 93.5t92 38.5t92 -38.5t38 -93.5t-38 -93.5t-92 -38.5t-92 38.5t-38 93.5zM280 312l-78 1070q-2 11 -2 22q0 55 38 93.5t92 38.5t92 -38.5t38 -93.5l-2 -22l-80 -1070h-98z" />
    <glyph glyph-name="quotedbl" unicode="&#x22;" horiz-adv-x="876" 
d="M676 1536v-449h-174v449h174zM374 1536v-449h-174v449h174z" />
    <glyph glyph-name="numbersign" unicode="#" horiz-adv-x="1353" 
d="M200 462v131h240v211h-240v131h240v240h131v-240h211v240h131v-240h240v-131h-240v-211h240v-131h-240v-240h-131v240h-211v-240h-131v240h-240zM571 804v-211h211v211h-211z" />
    <glyph glyph-name="dollar" unicode="$" horiz-adv-x="1306" 
d="M120 -26v772q42 -346 145 -496l19 -22q16 -24 80 -68q82 -57 187 -74v678l-117 49q-210 118 -212 341v20q4 155 112 258q90 86 217 101v282h155v-295q118 -29 172 -110l8 -1q72 8 104 127v-578q-60 247 -124 332l-34 42q-15 14 -52 44t-74 46v-498l240 -98
q225 -92 240 -363v-39q-30 -196 -166 -318q-122 -120 -315 -130v-273h-154v287q-44 10 -99 26l-187 80l-13 5q-100 -8 -132 -127zM705 699v-617h3q129 0 228 156q53 92 53 193v26q-9 125 -171 195zM551 988v444q-53 -13 -91 -50q-64 -62 -64 -166v-6q0 -157 142 -217z" />
    <glyph glyph-name="percent" unicode="%" horiz-adv-x="1771" 
d="M361 -227l908 2042l137 -64l-911 -2048zM1116 298q0 -107 36 -179q38 -76 118 -76q55 0 100 70q44 68 44 206q0 128 -47 194q-45 63 -104 63q-62 0 -106 -63q-41 -59 -41 -215zM1571 311q0 -86 -41 -164q-42 -80 -110 -126t-153 -46q-77 0 -153 46q-75 45 -116 123
q-35 66 -35 168q0 101 41 180q42 81 110 126q70 46 153 46q82 0 153 -46q68 -44 110 -126q41 -80 41 -181zM507 915q55 0 100 70q44 68 44 206q0 128 -47 194q-45 63 -104 63q-62 0 -106 -63q-41 -59 -41 -215q0 -109 36 -179q39 -76 118 -76zM808 1183q0 -86 -41 -164
q-42 -80 -110 -126t-153 -46q-77 0 -153 46q-75 45 -116 123q-35 66 -35 168q0 101 41 180q42 81 110 126q70 46 153 46q82 0 153 -46q68 -44 110 -126q41 -80 41 -181z" />
    <glyph glyph-name="ampersand" unicode="&#x26;" horiz-adv-x="1556" 
d="M130 399l1 41q14 160 102 264q53 63 165 106q79 30 131 46q-116 40 -197 106l-38 38q-70 66 -70 191q0 14 1 29q10 149 141 243q102 73 258 75h3q155 0 250 -88q133 -147 133 -263q0 -55 -38 -95.5t-92 -40.5t-92 38.5t-38 93.5t38 93q36 36 86 39q-17 79 -94 117
q-50 25 -137 25h-19q-65 0 -138 -67l-11 -13q-55 -67 -59 -154q-1 -20 -1 -31q3 -149 71 -208q73 -63 156 -63q47 0 99 21l10 2l462 -558q55 104 70 245q-50 2 -86 38q-38 38 -38 94q0 55 38 93.5t92 38.5t92 -40.5t38 -95.5q0 -257 -138 -455l155 -187l-161 -117l-128 157
q-217 -182 -439 -182q-241 0 -396 103q-162 108 -182 321zM1084 233l-422 515l-27 8q-16 1 -24 1q-179 -7 -240 -127q-26 -51 -26 -173v-26v-19q0 -135 72 -211q114 -120 295 -120q14 0 26 1q177 15 346 151z" />
    <glyph glyph-name="quotesingle" unicode="'" horiz-adv-x="574" 
d="M374 1536v-449h-174v449h174z" />
    <glyph glyph-name="parenleft" unicode="(" horiz-adv-x="657" 
d="M536 -293q-8 2 -99 183q-4 8 -27 51q-85 158 -143 346q-67 215 -67 476q0 226 67 478q45 166 143 345l27 51q12 23 108 176l59 -39l-75 -180q-11 -23 -35 -105q-53 -171 -73 -300q-32 -206 -32 -423q0 -257 38 -432q33 -154 87 -333q18 -61 18 -60l75 -201z" />
    <glyph glyph-name="parenright" unicode=")" horiz-adv-x="657" 
d="M121 -293l-71 33l75 201q0 -1 18 60q54 179 87 333q38 175 38 432q0 217 -32 423q-20 129 -73 300q-24 82 -35 105l-75 180l59 39q96 -153 108 -176l27 -51q98 -179 143 -345q67 -252 67 -478q0 -261 -67 -476q-58 -188 -143 -346q-23 -43 -27 -51q-91 -181 -99 -183z
" />
    <glyph glyph-name="asterisk" unicode="*" horiz-adv-x="1393" 
d="M200 1039l344 106l-80 142l143 -70l90 319l111 -322l148 72l-69 -141l306 -106l-312 -99l75 -145l-151 84l-108 -336l-94 330l-139 -79l79 149z" />
    <glyph glyph-name="plus" unicode="+" horiz-adv-x="1233" 
d="M200 601v197h318v318h197v-318h318v-197h-318v-318h-197v318h-318z" />
    <glyph glyph-name="comma" unicode="," horiz-adv-x="712" 
d="M200 -246l10 10q73 68 100 132q19 46 22 87v21q-33 8 -59 34q-38 38 -38 94q0 55 38 93.5t92 38.5q48 0 92 -36q43 -35 52 -102q3 -23 3 -45q0 -80 -39 -157q-73 -143 -182 -166q-29 -6 -57 -6q-16 0 -34 2z" />
    <glyph glyph-name="hyphen" unicode="-" horiz-adv-x="1233" 
d="M200 798h833v-197h-833v197z" />
    <glyph glyph-name="period" unicode="." horiz-adv-x="660" 
d="M200 107q0 55 38 93.5t92 38.5t92 -38.5t38 -93.5t-38 -93.5t-92 -38.5t-92 38.5t-38 93.5z" />
    <glyph glyph-name="slash" unicode="/" horiz-adv-x="1045" 
d="M0 -227l908 2042l137 -64l-911 -2048z" />
    <glyph glyph-name="zero" unicode="0" horiz-adv-x="1384" 
d="M338 727q0 -157 32 -265q49 -194 132 -284q91 -98 190 -98h3h3q83 0 192 100q76 94 115 237q39 142 39 310v31q0 187 -39 311q-49 184 -135 277q-79 85 -177 85h-2q-97 0 -171 -67q-89 -72 -138 -268q-44 -178 -44 -369zM130 744q0 164 44 316t120 254q76 101 180 161.5
t218 60.5t218 -60.5t180 -161.5q76 -102 120 -254t44 -316t-44 -304.5t-120 -242.5q-76 -101 -180 -161.5t-218 -60.5t-218 60.5t-180 161.5q-76 102 -120 242.5t-44 304.5z" />
    <glyph glyph-name="one" unicode="1" horiz-adv-x="697" 
d="M60 0q124 24 188 140l2 8v951v9q0 127 -190 139l387 304v-1403l2 -9q54 -111 188 -139h-577z" />
    <glyph glyph-name="two" unicode="2" horiz-adv-x="1335" 
d="M130 0q64 451 456 682l67 29q264 102 264 388v19q0 136 -65 210q-89 101 -201 101h-2q-152 0 -252 -87q-78 -68 -100 -167q50 -2 86 -39q38 -38 38 -93t-38 -93.5t-92 -38.5t-92 40.5t-38 95.5q0 198 145 345q146 144 339 145h2q194 0 342 -119q149 -121 149 -324v-32
q-12 -217 -175 -323q-113 -74 -251 -129q-212 -69 -432 -375q55 38 112 38h3h3q108 0 281 -50l218 -47q42 -9 81 -9q133 0 237 104q-111 -296 -269 -296h-4h-4h-4h-1q-125 0 -292 50l-207 47q-48 11 -92 11q-122 0 -211 -82z" />
    <glyph glyph-name="three" unicode="3" horiz-adv-x="1248" 
d="M120 464q0 55 38 95.5t92 40.5t92 -38.5t38 -93.5q0 -56 -38 -94q-36 -36 -86 -38q22 -99 100 -167q100 -87 252 -87q132 0 222 102q66 75 66 229v19q0 125 -30 188q-42 88 -112 134q-54 35 -200 98l132 74q68 47 84 64q55 60 55 191q0 16 -1 31q-6 90 -51 164l-11 13
q-74 68 -167 68q-81 0 -130 -25q-77 -39 -94 -117q50 -2 86 -39q38 -38 38 -93t-38 -93.5t-92 -38.5t-92 40.5t-38 95.5q0 116 133 263q94 87 247 87h3q161 -1 256 -63q141 -92 152 -248q1 -14 1 -28v-3q0 -112 -73 -199l-40 -40q-80 -64 -198 -100q10 -7 131 -46
q77 -25 153 -94q107 -99 117 -277l1 -41q-19 -205 -159.5 -314t-344.5 -109t-349 144q-145 147 -145 345z" />
    <glyph glyph-name="four" unicode="4" horiz-adv-x="1144" 
d="M-60 360l954 1191v-1089h173l-56 -102h-117v-212l2 -9q54 -111 188 -139h-577q124 24 188 140l2 8v212h-757zM697 462v685l-553 -685h553z" />
    <glyph glyph-name="five" unicode="5" horiz-adv-x="1262" 
d="M130 464q0 55 38 95.5t92 40.5t92 -38.5t38 -93.5t-38 -94q-36 -36 -86 -38q22 -99 100 -167q100 -87 252 -87q131 0 222 102q64 73 64 257v19q0 148 -27 208q-57 127 -186 152q-36 7 -72 7q-56 0 -111 -17q-68 -12 -124 -102l-18 -28q-68 150 -205 164l-11 2
q156 152 156 318t-156 347h944q-89 -145 -250 -197q-68 -22 -136 -22h-8q-36 0 -74 8q-161 34 -254 118v-567l24 13q100 63 236 63q42 0 86 -6q176 -24 290 -137q115 -114 123 -319l1 -41q0 -204 -152 -326.5t-356 -122.5t-349 144q-145 147 -145 345z" />
    <glyph glyph-name="six" unicode="6" horiz-adv-x="1312" 
d="M726 1538q119 0 222 -60q116 -80 164 -166q11 -16 30 -63q10 -24 10 -66v-2v-2q0 -47 -39 -89q-35 -38 -92 -38q-54 0 -92 38.5t-38 93.5t38 94q20 20 59 31q-28 42 -73 77q-60 47 -184 61q-9 1 -19 0q-152 -15 -222 -119q-71 -105 -105 -266q-28 -132 -28 -212
q0 -15 1 -28l38 44q128 96 292 96q215 0 358 -142q119 -126 136 -327v-13v-28q0 -190 -141 -332q-145 -145 -349 -145q-114 0 -218 60.5t-180 161.5q-76 102 -120 242.5t-44 294.5q0 180 44 329q44 151 120 251q77 102 180 162q107 62 252 62zM616 862q-115 0 -200 -98
q-14 -16 -54 -87v-8v-7q0 -69 38 -218q40 -155 100 -244q79 -122 239 -122h3q123 0 196 126q38 66 38 197q0 31 -2 65q-20 160 -92 260q-109 136 -266 136z" />
    <glyph glyph-name="seven" unicode="7" horiz-adv-x="1005" 
d="M0 1264q95 272 266 272h3q77 -1 245 -50l172 -47q42 -9 82 -9h2q131 0 235 104q-28 -266 -216 -525q-205 -282 -210 -288q-86 -93 -110 -235q-7 -41 -7 -74q0 -78 62 -133q87 -77 87 -176q0 -28 -3 -37q-30 -91 -121 -91q-53 0 -103 37q-53 39 -82 115q-21 55 -30 155
q-2 23 -2 45q1 118 47 225q39 91 93 153q122 144 134 159q114 134 166 206q85 117 137 213q-57 -45 -119 -45h-5q-73 0 -246 50l-172 47q-49 13 -95 13h-3q-116 0 -207 -84z" />
    <glyph glyph-name="eight" unicode="8" horiz-adv-x="1243" 
d="M698 927q90 38 144 131q34 58 34 129q0 17 -2 35q-13 114 -104 174q-67 44 -147 44q-115 0 -185 -68q-56 -61 -56 -168v-4q0 -149 101 -189l202 -80zM120 414v6q0 60 18 128q26 98 90 174q73 86 156 123l-27 17q-147 118 -148 293v20q3 154 111.5 258t280.5 104
q190 0 298 -103q102 -97 102 -242q0 -119 -62 -210q-46 -68 -108 -102l-9 -5l67 -35q213 -111 234 -375v-39q-15 -190 -137 -317q-136 -133 -331 -133h-8q-177 0 -258 46q-93 52 -157 123q-81 89 -102 179q-10 43 -10 90zM502 774q-70 -18 -146 -74q-52 -48 -86 -130
q-33 -80 -35 -151q0 -9 1 -19q11 -107 83 -186q102 -112 285 -128l24 2q299 47 299 346q0 13 -1 25q-10 125 -121 194z" />
    <glyph glyph-name="nine" unicode="9" horiz-adv-x="1312" 
d="M586 -25q-119 0 -222 60q-116 80 -164 166q-11 16 -30 63q-10 24 -10 66v2v2q0 47 39 89q35 38 92 38q54 0 92 -38.5t38 -93.5t-38 -94q-20 -20 -59 -31q28 -42 73 -77q60 -47 184 -61q9 -1 19 0q152 15 222 119q71 105 105 266q28 132 28 212q0 15 -1 28l-38 -44
q-128 -96 -292 -96q-215 0 -358 142q-119 126 -136 327v13v28q0 190 141 332q145 145 349 145q114 0 218 -60.5t180 -161.5q76 -102 120 -242.5t44 -294.5q0 -180 -44 -329q-44 -151 -120 -251q-77 -102 -180 -162q-107 -62 -252 -62zM696 651q115 0 200 98q14 16 54 87v8v7
q0 69 -38 218q-40 155 -100 244q-79 122 -239 122h-3q-123 0 -196 -126q-38 -66 -38 -197q0 -31 2 -65q20 -160 92 -260q109 -136 266 -136z" />
    <glyph glyph-name="colon" unicode=":" horiz-adv-x="662" 
d="M202 107q0 55 38 93.5t92 38.5t92 -38.5t38 -93.5t-38 -93.5t-92 -38.5t-92 38.5t-38 93.5zM200 686q0 55 38 93.5t92 38.5t92 -38.5t38 -93.5t-38 -93.5t-92 -38.5t-92 38.5t-38 93.5z" />
    <glyph glyph-name="semicolon" unicode=";" horiz-adv-x="712" 
d="M200 -272l10 10q73 68 100 132q19 46 22 87v21q-33 8 -59 34q-38 38 -38 94q0 55 38 93.5t92 38.5q48 0 92 -36q43 -35 52 -102q3 -23 3 -45q0 -80 -39 -157q-73 -143 -182 -166q-29 -6 -57 -6q-16 0 -34 2zM226 684q0 55 38 93.5t92 38.5t92 -38.5t38 -93.5t-38 -93.5
t-92 -38.5t-92 38.5t-38 93.5z" />
    <glyph glyph-name="less" unicode="&#x3c;" horiz-adv-x="1337" 
d="M130 686l944 534l63 -105l-686 -388l686 -378l-83 -182z" />
    <glyph glyph-name="equal" unicode="=" horiz-adv-x="1234" 
d="M200 633h833v-197h-833v197zM201 981h833v-197h-834z" />
    <glyph glyph-name="greater" unicode="&#x3e;" horiz-adv-x="1337" 
d="M1207 701l-944 -534l-63 105l686 388l-686 378l83 182z" />
    <glyph glyph-name="question" unicode="?" horiz-adv-x="1257" 
d="M458 107q0 55 38 93.5t92 38.5t92 -38.5t38 -93.5t-38 -93.5t-92 -38.5t-92 38.5t-38 93.5zM530 388v41q6 141 122 241l30 22q213 156 230 350v30q0 138 -40 200q-88 138 -259 148q-146 -1 -240 -96q-71 -72 -99 -150q45 -4 78 -38q38 -38 38 -93t-38 -93.5t-92 -38.5
t-92 38.5t-38 93.5q0 202 145 349q145 144 349 144t353.5 -127.5t149.5 -331.5l-1 -41q-15 -189 -172 -294l-218 -146q-113 -74 -113 -193v-15h-93z" />
    <glyph glyph-name="at" unicode="@" horiz-adv-x="1350" 
d="M802 634q-43 0 -96 -42q-29 -23 -52 -86q-15 -41 -18 -114q-1 -24 -1 -44q0 -31 3 -56q10 -86 58 -136q50 -52 110 -52h24q75 6 132 36l-1 338q-5 59 -51 106q-49 50 -108 50zM150 368.5q0 154.5 44 295t120 242.5q76 101 180 161.5t218 60.5q117 0 220 -75
q104 -76 161 -206q60 -123 60 -283v-416l4 -8q54 -111 193 -140h-388v35q-47 -25 -90 -35q-26 -6 -59 -6t-72 6q-97 15 -180 100q-56 59 -83 142q-18 56 -18 125q0 22 2 43q10 105 42 162q33 59 104 100q87 50 156 50q73 0 156 -38l32 -18q-14 199 -78 268q-70 76 -166 76
q-108 0 -178 -62q-88 -74 -131 -250q-39 -160 -39 -315v-15q0 -156 38 -292q52 -158 142 -273q62 -79 176 -79q106 0 196 76l100 -73q-39 -32 -82 -57q-105 -61 -218 -61q-114 0 -218 60.5t-180 161.5q-76 102 -120 242.5t-44 295z" />
    <glyph glyph-name="A" unicode="A" horiz-adv-x="1320" 
d="M-70 0q123 24 187 140l3 8l535 1403l545 -1403l1 -3l3 -9q64 -112 186 -136h-578q191 56 191 124q0 7 -2 15l-3 9l-153 392h-461l-147 -392l-3 -10q-2 -6 -2 -13q0 -61 191 -125h-493zM422 642h384l-194 528z" />
    <glyph glyph-name="B" unicode="B" horiz-adv-x="1514" 
d="M549 1419q-50 -18 -73 -46q-26 -32 -28 -92v-1051q0 -44 14 -67q19 -31 48 -48q75 -38 175 -38q16 0 32 1q209 13 289 80q81 55 126 144q31 61 31 159q0 19 -1 39q-7 140 -172 210q-94 40 -208 78q-153 51 -170 58q171 55 191 62q61 22 107 48q40 22 64 46q54 56 54 154
v10q0 121 -104 202q-66 51 -210 72q-14 2 -40 2q-51 -1 -125 -23zM60 148q17 1 116 22q41 9 61 25q13 10 13 35v1051q0 23 -16 38q-22 20 -52 25q-90 15 -122 19l344 131q110 42 306 42q135 0 246 -44q114 -45 178 -110q84 -85 96 -203q1 -10 1 -20q0 -52 -23 -103
q-27 -60 -87 -104q-33 -24 -124 -58q-8 -3 -177 -48q99 -8 155 -15q147 -19 211 -49q152 -71 187 -228q11 -49 11 -97q0 -81 -30 -163q-43 -118 -166 -200q-60 -40 -216 -86q-113 -33 -262 -33q-13 0 -49 1q-147 6 -281 56q-250 93 -320 116z" />
    <glyph glyph-name="C" unicode="C" horiz-adv-x="1366" 
d="M130 744q0 164 44 316q45 156 120 254q78 103 180 162q103 60 208 60h10q116 0 215 -52q68 -36 108 -73l8 -1q100 8 132 127v-578q-52 204 -122 320q-34 53 -87 92q-82 60 -194 60q-129 0 -238 -86q-79 -91 -126 -261q-46 -167 -46 -325v-13q0 -156 32 -284
q74 -220 178 -306q85 -70 219 -70q23 0 47 2q74 6 166 64q51 31 114 110q40 50 66 132l102 -40q-38 -87 -88 -154q-77 -102 -180 -161q-113 -64 -259 -64h-5q-153 0 -258 60q-106 61 -182 162q-75 100 -120 243q-44 140 -44 304z" />
    <glyph glyph-name="D" unicode="D" horiz-adv-x="1504" 
d="M549 1419q-49 -18 -73 -46q-26 -30 -28 -92v-1051q0 -44 14 -67q19 -31 48 -48q74 -37 199 -37h7q116 0 232 106q104 112 156 246q50 129 50 300v26q0 190 -39 311q-65 176 -173 267q-96 81 -231 97q-26 3 -55 3q-55 -1 -107 -15zM60 148q16 1 116 22q41 9 61 25
q13 10 13 35v1051q0 23 -16 38q-21 20 -50 25q-104 17 -124 19l344 131q121 42 278 42h28q115 0 246 -63q123 -60 223 -171q85 -94 140 -244t55 -314t-56 -306q-55 -141 -139 -237q-85 -98 -220 -163q-131 -63 -271 -63q-155 0 -308 57q-238 89 -320 116z" />
    <glyph glyph-name="E" unicode="E" horiz-adv-x="1322" 
d="M60 0q124 24 188 140l2 8v1215l-2 8q-64 116 -188 140h946l186 -322q-206 212 -277 219l-14 1h-453v-767h313l14 1q71 7 277 219l-289 -501q9 33 9 61q0 74 -60 115l-7 3h-257v-438h583l14 1q71 7 277 219l-186 -322h-1076z" />
    <glyph glyph-name="F" unicode="F" horiz-adv-x="1272" 
d="M60 0q124 24 188 140l2 8v1215l-2 8q-64 116 -188 140h946l186 -322q-206 212 -277 219l-14 1h-453v-767h313l14 1q71 7 277 219l-289 -501q9 33 9 61q0 74 -60 115l-7 3h-257v-392l2 -9q54 -111 188 -139h-578z" />
    <glyph glyph-name="G" unicode="G" horiz-adv-x="1350" 
d="M130 744q0 164 44 316q45 156 120 254q78 103 180 162q103 60 208 60h10q116 0 215 -52q68 -36 108 -73l8 -1q100 8 132 127v-578q-52 204 -122 320q-34 53 -87 92q-82 60 -194 60q-118 0 -228 -87q-87 -85 -136 -260q-46 -165 -46 -323v-13q0 -156 32 -284
q58 -215 124 -286q91 -98 202 -98q94 0 187 85q101 112 117 205q5 29 5 54q0 52 -19 86l-5 7q-75 105 -255 125h520q-10 -107 -40 -202q-44 -142 -120 -243q-75 -100 -180 -161q-104 -61 -218 -61t-218 60.5t-180 161.5q-76 102 -120 242.5t-44 304.5z" />
    <glyph glyph-name="H" unicode="H" horiz-adv-x="1547" 
d="M60 0q124 24 188 140l2 8v1215l-2 8q-64 116 -188 140h578q-134 -28 -188 -139l-2 -9v-721h651v721l-2 8q-64 116 -188 140h578q-134 -28 -188 -139l-2 -9v-1215l2 -9q54 -111 188 -139h-578q124 24 188 140l2 8v392h-651v-392l2 -9q54 -111 188 -139h-578z" />
    <glyph glyph-name="I" unicode="I" horiz-adv-x="698" 
d="M60 0q124 24 188 140l2 8v1215l-2 8q-64 116 -188 140h578q-134 -28 -188 -139l-2 -9v-1215l2 -9q54 -111 188 -139h-578z" />
    <glyph glyph-name="J" unicode="J" horiz-adv-x="698" 
d="M60 -312q190 203 190 449v3v8v1215l-2 8q-64 116 -188 140h578q-134 -28 -188 -139l-2 -9v-1215v-8q0 -335 -381 -451z" />
    <glyph glyph-name="K" unicode="K" horiz-adv-x="1496" 
d="M60 0q124 24 188 140l2 8v1215l-2 8q-64 116 -188 140h578q-134 -28 -188 -139l-2 -9v-775l645 805l8 11q4 7 4 17q0 39 -173 90h471q-71 -21 -183 -139l-7 -9l-585 -723q55 21 100 21h4q173 0 278 -126q52 -62 180 -352l21 -44q42 -83 105 -83h3q55 0 100 38
q50 44 77 64q-13 -126 -84 -200q-78 -81 -163 -81h-2q-91 0 -165 94q-15 19 -60 104l-143 303q-68 133 -143 161q-90 34 -161 36l-4 -5l-123 -153v-269l2 -9q54 -111 188 -139h-578z" />
    <glyph glyph-name="L" unicode="L" horiz-adv-x="1161" 
d="M60 0q124 24 188 140l2 8v1215l-2 8q-64 116 -188 140h578q-134 -28 -188 -139l-2 -9v-1261h502l14 1q71 7 277 219l-186 -322h-995z" />
    <glyph glyph-name="M" unicode="M" horiz-adv-x="1814" 
d="M-20 0q134 28 188 139l2 9l210 1403l539 -1214l516 1214l209 -1403l2 -9q54 -111 188 -139h-578q191 71 191 135v5l-1 8l-131 863l-455 -1051l-460 1060l-118 -872l-1 -12q2 -60 191 -136h-492z" />
    <glyph glyph-name="N" unicode="N" horiz-adv-x="1550" 
d="M60 0q124 24 188 140l2 8v1403l938 -1111v923l-2 8q-64 116 -188 140h492q-134 -28 -188 -139l-2 -9v-1403l-938 1121v-933l2 -9q54 -111 188 -139h-492z" />
    <glyph glyph-name="O" unicode="O" horiz-adv-x="1384" 
d="M338 727q0 -157 32 -265q49 -194 132 -284q91 -98 190 -98h3h3q83 0 192 100q76 94 115 237q39 142 39 310v31q0 187 -39 311q-49 184 -135 277q-79 85 -177 85h-2q-97 0 -171 -67q-89 -72 -138 -268q-44 -178 -44 -369zM130 744q0 164 44 316t120 254q76 101 180 161.5
t218 60.5t218 -60.5t180 -161.5q76 -102 120 -254t44 -316t-44 -304.5t-120 -242.5q-76 -101 -180 -161.5t-218 -60.5t-218 60.5t-180 161.5q-76 102 -120 242.5t-44 304.5z" />
    <glyph glyph-name="P" unicode="P" horiz-adv-x="1368" 
d="M50 0q124 24 188 140l2 8v1132q0 24 -13 35q-18 15 -61 25q-88 20 -116 22q69 31 306 114q168 59 290 59h8q149 0 250 -41q102 -40 170 -102q93 -85 132 -180q26 -54 32 -180q-5 -197 -114 -312q-98 -103 -220 -148q-84 -31 -189 -31q-20 0 -41 1q-145 7 -236 84v-478
l2 -9q54 -111 188 -139h-578zM653 1432q-78 0 -153 -37q-30 -18 -48 -48q-14 -24 -14 -67v-498q50 -93 162 -128q48 -14 93 -14h11q4 0 40 2q95 10 160 62q118 95 118 328q0 120 -48 216q-42 84 -128 138q-74 46 -193 46z" />
    <glyph glyph-name="Q" unicode="Q" horiz-adv-x="1384" 
d="M130 744q0 164 44 316t120 254q76 101 180 161.5t218 60.5t218 -60.5t180 -161.5q76 -102 120 -254t44 -316t-44 -304q-45 -145 -120 -243q-13 -17 -27 -34q2 -26 -1 -49l-16 -122l-5 -60v-13q0 -57 146 -57q15 0 29 1l-40 -78q-126 -52 -202 -52q-113 0 -113 116v11
q0 40 8 132l2 23q-86 -40 -179 -40q-114 0 -218 60.5t-180 161.5q-76 102 -120 242.5t-44 304.5zM336 695q0 -105 34 -235q54 -203 128 -284q88 -96 204 -96q47 0 101 29q-30 6 -72 6q-17 0 -33 -1l40 78q139 66 219 67q19 38 52 158q39 142 39 310v31q0 188 -39 311
q-36 148 -135 267q-79 95 -183 95q-92 0 -171 -71q-95 -79 -138 -266q-46 -199 -46 -399z" />
    <glyph glyph-name="R" unicode="R" horiz-adv-x="1436" 
d="M663 1432q-78 0 -153 -37q-30 -18 -48 -48q-14 -24 -14 -67v-498q50 -93 162 -128q48 -14 93 -14h11q4 0 40 2q95 10 160 62q118 95 118 328q0 120 -48 216q-42 84 -128 138q-74 46 -193 46zM60 0q124 24 188 140l2 8v1132q0 24 -13 35q-18 15 -61 25q-88 20 -116 22
q69 31 306 114q168 59 290 59h8q149 0 250 -41q102 -40 170 -102q93 -85 132 -180q26 -54 32 -180q-5 -196 -114 -312q-83 -88 -186 -134q37 -21 62 -51q51 -62 180 -352l21 -44q43 -83 104 -83h4q54 0 100 38q50 44 77 64q-13 -126 -84 -200q-78 -81 -161 -81h-4
q-95 0 -165 94q-15 20 -60 104l-143 303q-67 130 -143 161l-6 2q-22 0 -46 1q-144 6 -236 84v-478l2 -9q54 -111 188 -139h-578z" />
    <glyph glyph-name="S" unicode="S" horiz-adv-x="1306" 
d="M120 746q42 -346 145 -496l19 -22q16 -23 80 -68q114 -80 270 -80h4q62 0 70 2q148 30 228 156q53 92 53 193v26q-9 125 -171 195l-340 156q-254 118 -256 346v20q4 155 112 258q109 104 274 104h6q166 0 261 -125l8 -1q75 8 107 126v-578q-60 247 -124 332l-34 42
q-15 14 -52 44q-77 63 -158 64h-3q-97 0 -159 -58q-64 -60 -64 -166v-6q0 -139 186 -222l364 -162q225 -100 240 -363v-39q-30 -196 -166 -318q-133 -131 -352 -131h-8q-72 0 -208 41l-187 80l-13 5q-100 -8 -132 -127v772z" />
    <glyph glyph-name="T" unicode="T" horiz-adv-x="1194" 
d="M308 0q124 24 188 140l2 8v1261h-287l-14 -1q-71 -7 -277 -219l186 322h982l186 -322q-206 212 -277 219l-14 1h-287v-1261l2 -9q54 -111 188 -139h-578z" />
    <glyph glyph-name="U" unicode="U" horiz-adv-x="1547" 
d="M60 1511h578q-134 -28 -188 -139l-2 -9v-865q5 -149 106 -254q108 -112 262 -112t262 112q101 105 107 254v865l-2 8q-64 116 -188 140h492q-134 -28 -188 -139l-2 -9v-865v-3q0 -106 -41.5 -202t-110.5 -166q-70 -70 -167 -111t-204 -41t-204 41t-167 111
q-69 70 -111 166t-42 202v3v865l-2 8q-64 116 -188 140z" />
    <glyph glyph-name="V" unicode="V" horiz-adv-x="1320" 
d="M-70 1511h578q-191 -85 -191 -131q0 -4 2 -8l3 -9l386 -993l372 993l3 10q2 5 2 11q-5 60 -191 127h496q-123 -24 -187 -140l-3 -8l-535 -1403l-545 1403l-1 3l-3 9q-64 112 -186 136z" />
    <glyph glyph-name="W" unicode="W" horiz-adv-x="1877" 
d="M-70 1511h578q-191 -69 -191 -126q0 -7 2 -13l3 -9l393 -973l172 438l-259 683h202l157 -425l165 425h117l-223 -567l220 -569l374 988l2 8q2 6 2 12v1q0 57 -190 127h493q-123 -24 -187 -140l-3 -8l-535 -1403l-276 729l-281 -729l-545 1403l-1 3l-3 9q-64 112 -186 136
z" />
    <glyph glyph-name="X" unicode="X" horiz-adv-x="1248" 
d="M-2 0q95 24 163 105l26 41l353 574l-380 643l-5 9q-57 103 -185 139h578q-178 -76 -178 -127q0 -7 4 -14l3 -7l279 -478l286 479l5 9q8 13 8 26v1q0 59 -184 111h485q-107 -30 -164 -107l-23 -36l-343 -594l367 -636l6 -10q58 -94 179 -128h-578q182 57 182 118
q0 11 -6 22l-4 8l-266 461l-294 -461l-5 -8q-9 -15 -9 -29q0 -63 185 -111h-485z" />
    <glyph glyph-name="Y" unicode="Y" horiz-adv-x="1320" 
d="M370 0q124 24 188 140l2 8v494h-85l-355 721l-1 3l-3 9q-64 112 -186 136h578q-194 -69 -194 -124q0 -8 4 -15l4 -9l352 -721h48l361 721l4 9q4 7 4 15q-1 55 -194 124h493q-123 -24 -187 -140l-3 -8l-369 -721h-73v-494l2 -9q54 -111 188 -139h-578z" />
    <glyph glyph-name="Z" unicode="Z" horiz-adv-x="1181" 
d="M0 0l849 1409h-502l-14 -1q-71 -7 -277 -219l186 322h886l-827 -1409h589l14 1q71 7 277 219l-186 -322h-995z" />
    <glyph glyph-name="bracketleft" unicode="[" horiz-adv-x="765" 
d="M200 -297v2112h515v-120h-318v-1877h318v-115h-515z" />
    <glyph glyph-name="backslash" unicode="\" horiz-adv-x="1045" 
d="M911 -297l-911 2048l137 64l908 -2042z" />
    <glyph glyph-name="bracketright" unicode="]" horiz-adv-x="765" 
d="M565 -297h-515v115h318v1877h-318v120h515v-2112z" />
    <glyph glyph-name="asciicircum" unicode="^" horiz-adv-x="1320" 
d="M150 1168l525 350l495 -350l-161 -154l-414 300l-357 -234z" />
    <glyph glyph-name="underscore" unicode="_" horiz-adv-x="1233" 
d="M200 197h833v-197h-833v197z" />
    <glyph glyph-name="grave" unicode="`" horiz-adv-x="800" 
d="M580 1148l-327 183l-17 14q-31 23 -35 68q-1 10 -1 18q0 44 29 73q32 32 76 32q14 0 29 -3q38 -8 64 -37q11 -12 14 -17l188 -310z" />
    <glyph glyph-name="a" unicode="a" 
d="M327 542q0 -225 50 -332q65 -139 178 -139h30q83 0 160 77l10 15q15 16 15 67v617q0 51 -14 67l-10 15q-77 77 -160 77h-30q-113 0 -178 -139q-51 -109 -51 -325zM110 551q0 148 59 275q59 128 162 201q106 75 238 75q115 0 283 -59q241 -85 306 -114q-22 -1 -116 -22
q-40 -9 -61 -25q-13 -10 -13 -35v-617q0 -26 12 -35q21 -16 61 -25q94 -21 116 -22q-65 -29 -306 -114q-168 -59 -283 -59q-132 0 -238 75q-103 73 -162 201q-58 125 -58 300z" />
    <glyph glyph-name="b" unicode="b" 
d="M642 72q113 1 178 139q50 107 50 332q0 221 -64 330q-65 107 -188 108h-3q-105 0 -158 -79q-27 -40 -29 -72v-9v-590q0 -51 14 -67l10 -15q63 -63 172 -76q9 -1 18 -1zM40 149q23 2 116 22q40 9 61 25q13 10 13 35v1083q0 25 -13 35q-21 17 -64 25q-103 21 -113 22
q9 4 306 114q27 10 82 26v-503q99 70 216 70q122 0 223 -75q100 -74 161 -206q60 -130 60 -295q0 -148 -59 -275q-60 -130 -162 -201q-107 -75 -238 -75q-115 0 -283 59q-249 87 -306 114z" />
    <glyph glyph-name="c" unicode="c" horiz-adv-x="1088" 
d="M110 539q0 152 60 283t161 206q99 73 223 74h3q117 0 220 -74q104 -75 150 -180l14 -32l1 -2q18 -49 18 -92q0 -55 -38 -96q-37 -40 -92 -40q-54 0 -92 38.5t-38 93.5t38 93q23 23 51 33q-17 28 -47 62q-61 69 -158 78h-2q-131 0 -200 -107q-70 -109 -70 -335v-4
q0 -231 89.5 -340t186.5 -109h2q122 0 209 107q35 43 63 117l116 -33q-3 -13 -7 -23q-53 -125 -161 -206q-101 -76 -238 -76h-3q-138 0 -238 74.5t-161 206.5q-60 130 -60 283z" />
    <glyph glyph-name="d" unicode="d" 
d="M328 543q0 -225 50 -332q65 -139 193 -139q97 0 175 77l10 15q14 18 14 67v599q-2 32 -29 72q-53 79 -158 79h-3q-123 -1 -188 -108q-64 -109 -64 -330zM110 527q0 165 60 295q61 132 161 206q101 75 223 75q117 0 216 -70v281q0 22 -13 35q-12 12 -66 23q-55 12 -111 24
q63 28 306 114q31 11 82 26v-1305q1 -24 13 -35q16 -14 61 -25q82 -20 116 -22q-61 -28 -306 -114q-168 -59 -290 -59h-8q-117 0 -223 75q-102 72 -162 201q-59 127 -59 275z" />
    <glyph glyph-name="e" unicode="e" horiz-adv-x="1088" 
d="M110 539q0 150 60 282q59 130 161 206q101 75 223 75q116 0 219 -68q75 -41 134 -139q42 -70 47 -152q-1 -177 -159 -290q-134 -96 -317 -96q-2 0 -143 8q25 -103 67 -167q71 -108 186 -108h2q123 0 209 106q35 43 63 118l116 -34q-4 -16 -7 -22q-84 -154 -161 -206
q-125 -76 -238 -76h-3q-137 0 -238 74t-161 206t-60 283zM766 744q0 113 -60 178q-52 57 -144 65h-2q-110 0 -176 -107q-50 -82 -62 -204q-7 -71 -7 -154q0 -28 4 -65q91 -2 182 -2q47 0 67 5q101 25 140 84q58 97 58 200z" />
    <glyph glyph-name="f" unicode="f" horiz-adv-x="1027" 
d="M40 0q124 24 188 140l2 8v1133q0 23 -13 35q-17 15 -61 25q-91 21 -116 22q63 29 306 114q168 59 290 59h8q162 0 282 -112q101 -117 101 -233v-5q0 -55 -38 -96q-37 -40 -92 -40t-92 38q-38 39 -38 91v3q0 56 38 94q36 36 86 38q-9 44 -99 94q-26 15 -120 25q-9 1 -21 0
q-123 -10 -180 -59q-7 -6 -29 -26q-14 -13 -14 -67v-431h201h8q126 7 189 76l-179 -294q6 25 6 51q0 65 -71 65h-5h-4h-145v-600l2 -9q54 -111 188 -139h-578z" />
    <glyph glyph-name="g" unicode="g" 
d="M110 551q0 148 59 275q60 129 162 201q106 75 245 75q108 0 276 -59q248 -87 306 -114q-23 -2 -116 -22q-40 -9 -61 -25q-13 -10 -13 -35v-847q-13 -222 -168 -332q-144 -102 -292 -102q-12 0 -24 1q-158 12 -239 97q-41 43 -41 95q0 57 36 93q38 38 93 38q54 0 93 -43
t39 -97q0 -44 -34 -80q21 -12 57 -12t86 12q96 23 140 84q56 81 56 226v20v45q-99 -70 -216 -70q-122 0 -223 75q-100 74 -161 206q-60 130 -60 295zM328 535q0 -221 64 -330q66 -108 196 -108q100 0 153 79q27 40 29 72v9v590q0 51 -14 67l-10 15q-78 77 -177 77h-13
q-115 -4 -178 -139q-50 -107 -50 -332z" />
    <glyph glyph-name="h" unicode="h" horiz-adv-x="1288" 
d="M40 0q124 24 188 140l2 8v1166q0 25 -13 35q-21 16 -61 25q-88 20 -116 22q34 15 306 114q42 15 82 26v-511l3 2q100 75 223 75q121 0 223 -75q101 -74 161 -206t60 -283v-6v-335q0 -25 13 -35q20 -16 61 -25q91 -20 116 -22q-56 -25 -306 -114q-42 -15 -82 -26v559v4
q0 228 -87 338q-82 104 -197 104h-4q-127 0 -184 -92v-740l2 -9q54 -111 188 -139h-578z" />
    <glyph glyph-name="i" unicode="i" horiz-adv-x="658" 
d="M40 962q72 32 306 114q37 13 82 26v-954l2 -9q54 -111 188 -139h-578q124 24 188 140l2 8v732q0 25 -13 35q-21 17 -67 26q-98 21 -110 21zM199 1404q0 55 38 93.5t92 38.5t92 -38.5t38 -93.5t-38 -93.5t-92 -38.5t-92 38.5t-38 93.5z" />
    <glyph glyph-name="j" unicode="j" horiz-adv-x="659" 
d="M199 1404q0 55 38 93.5t92 38.5t92 -38.5t38 -93.5t-38 -93.5t-92 -38.5t-92 38.5t-38 93.5zM40 962q72 32 306 114q37 13 82 26v-1075v-8q0 -335 -381 -451l-7 -1q190 203 190 452v8v853q0 25 -13 35q-20 17 -64 25q-105 21 -113 22z" />
    <glyph glyph-name="k" unicode="k" horiz-adv-x="1273" 
d="M40 0q124 24 188 140l2 8v1166q0 25 -13 35q-21 17 -65 25q-104 21 -112 22q9 4 306 114q27 10 82 26v-1072l407 495l8 11q4 7 4 17q0 39 -173 90h471q-71 -21 -183 -139l-7 -9l-349 -419h152l345 -378l3 -4l4 -4q116 -97 203 -124h-675q209 51 209 109q0 15 -14 30l-9 9
l-275 294l-121 -145v-149l2 -9q54 -111 188 -139h-578z" />
    <glyph glyph-name="l" unicode="l" horiz-adv-x="658" 
d="M40 1396q51 22 306 114q38 14 82 26v-1388l2 -9q54 -111 188 -139h-578q124 24 188 140l2 8v1166q0 25 -13 35q-19 16 -63 25q-105 21 -114 22z" />
    <glyph glyph-name="m" unicode="m" horiz-adv-x="1957" 
d="M40 0q124 24 188 140l2 8v732q0 25 -13 35q-22 17 -61 25q-107 21 -116 22q51 22 306 114q39 14 82 26v-77l3 2q113 75 223 75q121 0 223 -75q60 -44 105 -108q93 100 148 137q71 46 188 46h5q128 0 223 -75q105 -83 161 -206q60 -133 60 -283v-6v-335q0 -25 13 -35
q22 -17 61 -25q107 -21 116 -22q-33 -15 -306 -114q-39 -14 -82 -26v559v4q0 232 -87 338q-85 104 -224 104q-104 0 -161 -92v-740l3 -9q54 -111 188 -139h-578q124 24 188 140l2 8v384v2v4q0 228 -87 338q-82 104 -197 104h-4q-127 0 -184 -92v-740l2 -9q54 -111 188 -139
h-578z" />
    <glyph glyph-name="n" unicode="n" horiz-adv-x="1288" 
d="M40 0q124 24 188 140l2 8v732q0 25 -13 35q-20 16 -61 25q-91 20 -116 22q34 15 306 114q42 15 82 26v-77l3 2q100 75 223 75q121 0 223 -75q101 -74 161 -206t60 -283v-6v-335q0 -25 13 -35q20 -16 61 -25q91 -20 116 -22q-56 -25 -306 -114q-42 -15 -82 -26v559v4
q0 228 -87 338q-82 104 -197 104h-4q-127 0 -184 -92v-740l2 -9q54 -111 188 -139h-578z" />
    <glyph glyph-name="o" unicode="o" horiz-adv-x="1108" 
d="M328 542q0 -223 50 -332q64 -139 185 -139q108 0 171 157q52 130 54 306v4q0 208 -80 336q-66 106 -155 106h-3q-95 0 -158 -108q-64 -109 -64 -330zM110 526q0 165 60 295q61 132 161 206q101 75 223 75q121 0 223 -75q101 -74 161 -206t60 -283q0 -152 -60 -282
t-161 -206q-100 -75 -223 -75q-117 0 -223 75q-102 72 -162 201q-59 127 -59 275z" />
    <glyph glyph-name="p" unicode="p" 
d="M870 535q0 225 -50 332q-65 139 -193 139q-97 0 -175 -77l-10 -15q-14 -16 -14 -67v-590v-9q2 -32 29 -72q53 -79 158 -79h3q122 0 188 108q64 109 64 330zM40 -433q124 24 188 140l2 8v1132q0 24 -13 35q-18 16 -61 25q-90 20 -116 22q65 29 306 114q168 59 290 59h8
q117 0 223 -75q102 -72 162 -201q59 -127 59 -275q0 -165 -60 -295q-61 -132 -161 -206q-101 -75 -223 -75q-117 0 -216 70v-330l2 -9q54 -111 188 -139h-578z" />
    <glyph glyph-name="q" unicode="q" 
d="M328 535q0 -221 64 -330q66 -108 196 -108q100 0 153 79q27 40 29 72v9v590q0 51 -14 67l-10 15q-78 77 -172 77h-18q-115 -4 -178 -139q-50 -107 -50 -332zM110 551q0 148 59 275q59 128 162 201q106 75 238 75q115 0 283 -59q241 -85 306 -114q-22 -1 -116 -22
q-40 -9 -61 -25q-13 -10 -13 -35v-1132l2 -8q64 -116 188 -140h-578q134 28 188 139l2 9v330q-99 -70 -216 -70q-122 0 -223 75q-100 74 -161 206q-60 130 -60 295z" />
    <glyph glyph-name="r" unicode="r" horiz-adv-x="1026" 
d="M40 0q124 24 188 140l2 8v699q0 24 -13 35q-18 16 -61 25q-90 20 -116 22q69 31 306 114q168 59 290 59h8q162 0 282 -112q100 -116 100 -233v-5q0 -55 -38 -96q-37 -40 -92 -40t-92 38q-38 39 -38 91v3q0 57 38 94q37 36 86 38q-7 41 -98 94q-45 26 -117 26
q-12 0 -24 -1q-109 -9 -180 -59q-5 -3 -29 -26q-14 -13 -14 -67v-699l2 -9q54 -111 188 -139h-578z" />
    <glyph glyph-name="s" unicode="s" horiz-adv-x="1006" 
d="M90 262q0 55 38 93.5t92 38.5t92 -38.5t38 -93.5q0 -51 -38 -94q-8 -9 -18 -17l12 -10q90 -68 209 -68h3q95 0 157 50q54 44 58 153v19q-5 107 -101 139l-272 80q-153 45 -192 217q-4 30 -4 59q0 99 79 196q95 116 265 116q159 0 271 -106q37 -35 57 -72q15 -28 15 -64
q0 -54 -38 -93t-92 -39t-92 39t-38 94t38 93l19 13q-61 34 -139 34h-3q-67 -5 -121 -50q-44 -46 -44 -131v-14q0 -84 85 -120l237 -62q104 -38 155 -82q96 -83 98 -249q-10 -123 -110 -227q-89 -91 -293 -91q-179 0 -314 116q-70 61 -92 104q-6 12 -9 20q-8 21 -8 47z" />
    <glyph glyph-name="t" unicode="t" horiz-adv-x="920" 
d="M-50 848l179 294q-6 -25 -6 -51q0 -65 71 -65h5h4h157v288q0 23 -13 35q-15 14 -65 24q-56 11 -112 23q91 40 306 114q38 13 82 26v-510h215h8q126 7 189 76l-179 -294q6 25 6 51q0 65 -71 65h-5h-4h-159v-776l2 -9q54 -111 188 -139h-578q124 24 188 140l2 8v776h-213
h-8q-126 -7 -189 -76z" />
    <glyph glyph-name="u" unicode="u" horiz-adv-x="1288" 
d="M1248 1077q-124 -24 -188 -140l-2 -8v-732q0 -25 13 -35q20 -16 61 -25q91 -20 116 -22q-56 -25 -306 -114q-42 -15 -82 -26v77l-3 -2q-100 -75 -223 -75q-121 0 -223 75q-101 74 -161 206t-60 283v6v335q0 25 -13 35q-21 16 -61 25q-88 20 -116 22q56 25 306 114
q42 15 82 26v-559v-4q0 -228 87 -338q82 -104 197 -104h4q127 0 184 92v740l-2 9q-54 111 -188 139h578z" />
    <glyph glyph-name="v" unicode="v" horiz-adv-x="1140" 
d="M-40 1077h578q-191 -85 -191 -131q0 -4 2 -8l3 -9l268 -599l260 599l3 10q2 5 2 11q-5 60 -191 127h486q-123 -24 -187 -140l-3 -8l-415 -969l-425 969l-1 3l-3 9q-64 112 -186 136z" />
    <glyph glyph-name="w" unicode="w" horiz-adv-x="1812" 
d="M917 753l-342 -793l-425 969l-1 3l-3 9q-64 112 -186 136h578q-191 -85 -191 -131q0 -4 2 -8l3 -9l270 -589l342 777l336 -781l256 592l3 10q2 5 2 11q0 58 -191 127l482 1q-123 -24 -187 -140l-3 -8l-415 -969z" />
    <glyph glyph-name="x" unicode="x" horiz-adv-x="1220" 
d="M0 0q94 46 187 140l8 9l320 355l-320 425l-9 12q-79 112 -186 136h578q-157 -50 -157 -105q0 -15 11 -30l6 -9l210 -281l248 276l6 7q13 15 13 31q0 19 -21 40q-37 34 -145 71h471q-100 -42 -187 -140l-6 -7l-321 -355l322 -430l6 -7q83 -98 186 -138h-578
q162 43 162 102q0 18 -16 38l-7 10l-209 278l-251 -278l-9 -10q-15 -17 -15 -34q0 -57 174 -106h-471z" />
    <glyph glyph-name="y" unicode="y" horiz-adv-x="1140" 
d="M-40 1077h578q-191 -85 -191 -131q0 -4 2 -8l3 -9l250 -675l269 675l3 10q2 7 2 11q-5 60 -191 127h495q-123 -24 -187 -140l-3 -8l-468 -1169l-12 -30q-68 -152 -210 -163h-13h-12q-118 0 -214 97q-41 48 -41 95q0 57 36 93q38 38 93 38q54 0 93 -42t39 -96
q0 -46 -34 -82q28 -12 52 -12q39 1 67 30l24 32q63 154 102 262l-342 947l-1 3l-3 9q-64 112 -186 136z" />
    <glyph glyph-name="z" unicode="z" horiz-adv-x="997" 
d="M0 0l650 975h-318l-14 -1q-71 -7 -277 -219l186 322h702l-628 -975h405l14 1q71 7 277 219l-186 -322h-811z" />
    <glyph glyph-name="braceleft" unicode="{" horiz-adv-x="776" 
d="M50 753q23 12 70 34q130 61 130 154v6l1 426q0 169 121 291q122 123 283 123h8q33 -3 63 -9v-83q-29 8 -63 8q-87 0 -148 -56q-70 -63 -70 -259l1 -441v-9q0 -116 -160 -178l-19 -7l19 -4q157 -38 159 -181v-12l-1 -430q0 -196 70 -259q62 -56 148 -56q34 0 64 8v-85
q-34 -6 -69 -6q-143 0 -280 122q-127 113 -127 286v5l1 97l-1 318v7q0 92 -130 156q-52 26 -70 34z" />
    <glyph glyph-name="bar" unicode="|" horiz-adv-x="555" 
d="M200 -297v2112h155l-1 -2112h-154z" />
    <glyph glyph-name="braceright" unicode="}" horiz-adv-x="776" 
d="M726 753q-18 -8 -70 -34q-130 -64 -130 -156v-7l-1 -318l1 -97v-5q0 -173 -127 -286q-137 -122 -280 -122q-35 0 -69 6v85q30 -8 64 -8q86 0 148 56q70 63 70 259l-1 430v12q2 143 159 181l19 4l-19 7q-160 62 -160 178v9l1 441q0 196 -70 259q-61 56 -148 56
q-34 0 -63 -8v83q30 6 63 9h8q161 0 283 -123q121 -122 121 -291l1 -426v-6q0 -93 130 -154q47 -22 70 -34z" />
    <glyph glyph-name="asciitilde" unicode="~" horiz-adv-x="1430" 
d="M200 614q96 284 299 284q24 0 48 -4q63 -11 210 -81l140 -69q42 -25 98 -25q99 0 235 125q-87 -294 -294 -306q-18 -1 -38 2q-64 10 -212 84l-138 66q-46 23 -101 24h-2q-103 0 -245 -100z" />
    <glyph glyph-name="uni00A0" unicode="&#xa0;" horiz-adv-x="600" 
 />
    <glyph glyph-name="exclamdown" unicode="&#xa1;" horiz-adv-x="660" 
d="M200 1404q0 55 38 93.5t92 38.5t92 -38.5t38 -93.5t-38 -93.5t-92 -38.5t-92 38.5t-38 93.5zM280 1199h98l80 -1070l2 -22q0 -55 -38 -93.5t-92 -38.5t-92 38.5t-38 93.5q0 11 2 22z" />
    <glyph glyph-name="cent" unicode="&#xa2;" horiz-adv-x="1128" 
d="M130 539q0 152 60 283t161 206q62 45 133 63v253h155v-247q83 -15 158 -69q104 -75 150 -180l14 -32l1 -2q18 -49 18 -92q0 -55 -38 -96q-37 -40 -92 -40t-92 38q-38 39 -38 94t38 93q23 23 51 33q-17 27 -47 62q-48 56 -123 73l-1 -889q104 12 181 106q35 42 63 117
l116 -33q-3 -14 -7 -23q-53 -125 -161 -206q-84 -63 -192 -74v-275h-154v285q-73 18 -133 63q-100 73 -161 206q-60 131 -60 283zM484 136v820q-48 -27 -82 -79q-70 -107 -70 -335v-4q0 -228 90 -340q30 -38 62 -62z" />
    <glyph glyph-name="sterling" unicode="&#xa3;" horiz-adv-x="1311" 
d="M130 0q124 24 188 140l2 8l1 450h-166v197h166v369v10q4 155 112 258q109 104 274 104h6q159 0 271 -106q37 -35 57 -72q15 -28 15 -64q0 -54 -38 -93t-92 -39t-92 39t-38 94t38 93l5 5q-51 44 -106 44h-2q-79 0 -131 -36q-76 -53 -80 -177q-1 -29 -1 -60v-369h469v-197
h-469l-1 -496h502l14 1q71 7 277 219l-186 -322h-995z" />
    <glyph glyph-name="currency" unicode="&#xa4;" horiz-adv-x="1555" 
d="M499 756q0 -223 69 -297q94 -111 204 -111q114 0 204 111q81 100 81 293v3q-1 170 -78 280q-80 114 -215 114q-95 0 -179 -89q-86 -91 -86 -304zM1355 299l-139 -139l-153 153q-126 -87 -287 -87q-159 0 -283 87l-154 -153l-139 139l153 153q-94 133 -94 304
q0 157 79 282l-138 138l139 139l132 -132q133 103 307 103q172 0 306 -103l132 132l139 -139l-138 -138q78 -124 79 -284v-5q0 -165 -94 -297z" />
    <glyph glyph-name="yen" unicode="&#xa5;" horiz-adv-x="1420" 
d="M420 0q124 24 188 140l2 8v146h-327v197h327v151h-327l1 197h144l-258 524l-1 3l-3 9q-64 112 -186 136h578q-194 -69 -194 -124q0 -8 4 -15l4 -9l256 -524h265l262 524l4 9q4 7 4 15q-1 55 -194 124h471q-123 -24 -187 -140l-3 -8l-268 -524h135v-197h-309v-151h308
v-197h-308v-146l2 -9q54 -111 188 -139h-578z" />
    <glyph glyph-name="brokenbar" unicode="&#xa6;" horiz-adv-x="555" 
d="M200 -297v958h154v-958h-154zM200 850v965h155v-965h-155z" />
    <glyph glyph-name="section" unicode="&#xa7;" horiz-adv-x="1226" 
d="M200 784q10 118 110 227q12 13 27 24q-41 52 -59 130q-4 30 -4 59q0 99 79 196q95 116 265 116q159 0 271 -106q37 -35 57 -72q15 -28 15 -64q0 -54 -38 -93t-92 -39t-92 39t-38 93q0 58 38 94l18 17q-58 33 -136 33h-3q-74 -5 -124 -56q-43 -46 -43 -128v-14
q0 -84 85 -120l237 -62q104 -38 155 -82q96 -83 98 -249q-10 -123 -110 -227q-13 -12 -29 -22q43 -52 61 -132q4 -30 4 -59q0 -99 -79 -196q-95 -116 -265 -116q-159 0 -271 106q-37 35 -57 72q-15 28 -15 63q0 56 38 94t92 38t92 -38t38 -94q0 -54 -38 -93l-18 -16
q61 -34 136 -34h3q68 5 122 52q45 46 45 132v15q0 83 -85 119l-237 62q-104 38 -155 82q-96 83 -98 249zM769 559q5 3 10 7q60 48 64 144v19q-5 107 -101 139l-272 80q-7 2 -13 4q-5 -3 -10 -7q-60 -48 -64 -144v-19q5 -107 101 -139l272 -80q7 -2 13 -4z" />
    <glyph glyph-name="dieresis" unicode="&#xa8;" horiz-adv-x="997" 
d="M537 1404q0 55 38 93.5t92 38.5t92 -38.5t38 -93.5t-38 -93.5t-92 -38.5t-92 38.5t-38 93.5zM200 1404q0 55 38 93.5t92 38.5t92 -38.5t38 -93.5t-38 -93.5t-92 -38.5t-92 38.5t-38 93.5z" />
    <glyph glyph-name="copyright" unicode="&#xa9;" horiz-adv-x="1401" 
d="M689 1163q49 0 102 -28q32 -17 52 -34q30 5 43 48q5 18 22 15q18 -3 18 -20v-289q0 -18 -18 -20t-22 15q-22 96 -58 154q-13 21 -39 40q-37 27 -82 27h-3q-56 0 -105 -38q-37 -43 -58 -121q-22 -82 -22 -157v-45q1 -42 15 -99q35 -103 83 -143q36 -30 96 -30q11 0 22 1
q31 3 74 29q20 12 52 51q20 25 30 59l6 20l90 -35l-8 -19q-18 -42 -46 -81q-43 -57 -96 -86q-61 -34 -140 -34h-2q-13 -3 -28 -3q-54 2 -111 35t-97 86q-39 53 -63 128q-23 73 -23 158q0 86 23 165q24 82 63 132q48 61 100 88q60 31 130 31zM701 1331q110 0 210 -43
q96 -41 179 -127q80 -83 121 -186q40 -101 40 -221q0 -116 -40 -219q-38 -98 -121 -185q-79 -83 -179 -127q-98 -43 -210 -43q-111 0 -211 43q-96 41 -179 127q-81 84 -121 185t-40 219q0 119 40 221t121 186q81 85 179 127.5t211 42.5zM701 1251q-98 0 -181 -36t-154 -110
q-70 -73 -106 -161t-36 -185v-5q0 -99 36 -188q34 -83 106 -160q70 -74 153 -110q85 -37 182 -37t182 37q83 36 154 110q69 72 104 159t35 189q0 103 -35 191q-34 86 -104 160q-69 73 -154 110q-85 36 -182 36z" />
    <glyph glyph-name="ordfeminine" unicode="&#xaa;" horiz-adv-x="1233" 
d="M420 1108q0 -75 24 -138t73 -116q52 -47 102 -47h1q60 0 92 16q10 5 17 17q4 7 4 23v525v3v1q7 12 -9 30q-8 10 -33 17q-20 6 -45 6q-15 0 -22 -1q-62 -9 -105 -44q-50 -41 -81 -125q-18 -57 -18 -167zM950 1410q-31 -4 -61 -10q-9 -1 -15 -7q-2 -2 -2 -4v-1v-563
q28 -49 79 -58q18 -3 16 -21t-20 -18h-211q-53 -13 -109 -13h-5q-96 15 -133 34q-71 36 -116 86t-74 125t-29 160q0 84 29 163q28 75 74 129q52 61 118 91q71 33 131 33h14q82 0 146 -22l247 -94zM200 626h833v-197h-833v197z" />
    <glyph glyph-name="guillemotleft" unicode="&#xab;" horiz-adv-x="1251" 
d="M897 1221l88 -88l-234 -357l300 -414l-154 -161l-350 495zM500 1221l88 -88l-234 -357l300 -414l-154 -161l-350 495z" />
    <glyph glyph-name="logicalnot" unicode="&#xac;" horiz-adv-x="1233" 
d="M200 601v197h833v-449h-174v252h-659z" />
    <glyph glyph-name="uni00AD" unicode="&#xad;" horiz-adv-x="1233" 
d="M200 798h833v-197h-833v197z" />
    <glyph glyph-name="registered" unicode="&#xae;" horiz-adv-x="1401" 
d="M701 1251q-98 0 -181 -36t-154 -110q-23 -24 -43 -50l69 29q45 20 154 58q87 30 152 30h4q13 2 26 2q51 -1 106 -23q57 -23 91 -55q50 -47 71 -97q8 -18 12 -41q4 -25 5 -39q1 -16 1 -18q-13 -119 -63 -170q-32 -33 -70 -56q4 -4 9 -10q28 -34 93 -180l10 -22
q16 -30 34 -30h1q23 1 38 14l19 16q34 48 56 102q35 86 35 189t-35 191q-34 86 -104 160q-69 73 -154 110q-85 36 -182 36zM701 1331q110 0 210 -43q96 -41 179 -127q80 -83 121 -186q40 -101 40 -221q0 -116 -40 -219q-38 -98 -121 -185q-79 -83 -179 -127
q-98 -43 -210 -43q-111 0 -211 43q-96 41 -179 127q-81 84 -121 185t-40 219q0 120 40 221t121 186q82 85 179 127.5t211 42.5zM614 1025v-244q21 -37 66 -50q20 -6 46 -6q11 0 19 1q43 5 69 26q52 42 52 139v5q0 66 -22 104q-21 39 -57 61q-33 20 -82 20h-2q-37 0 -69 -16
q-10 -5 -17 -18q-3 -6 -3 -22zM396 404q52 12 79 58v563l-1 3q-7 5 -21 8q-38 9 -55 10l-76 7q-38 -51 -62 -109q-36 -87 -36 -185v-5q0 -99 36 -188q34 -83 106 -160l14 -14q3 9 16 12zM409 365q52 -44 110 -69q86 -37 182 -37q95 0 182 37q26 11 50 26q-21 13 -38 36
q-9 12 -32 55l-72 152q-29 57 -60 70q-11 0 -21 1q-60 6 -96 25v-200q24 -47 79 -57q16 -3 15 -21t-19 -18h-280z" />
    <glyph glyph-name="macron" unicode="&#xaf;" horiz-adv-x="1233" 
d="M200 1511l833 1v-197h-833v196z" />
    <glyph glyph-name="degree" unicode="&#xb0;" horiz-adv-x="1008" 
d="M353 1170q0 -109 36 -179q39 -76 118 -76q55 0 100 70q44 68 44 206q0 128 -47 194q-45 63 -104 63q-62 0 -106 -63q-41 -59 -41 -215zM200 1184q0 101 41 180q42 81 110 126q70 46 153 46q82 0 153 -46q68 -44 110 -126q41 -80 41 -181q0 -86 -41 -164
q-42 -80 -110 -126t-153 -46q-77 0 -153 46q-75 45 -116 123q-35 66 -35 168z" />
    <glyph glyph-name="plusminus" unicode="&#xb1;" horiz-adv-x="1233" 
d="M200 362h833v-197h-833v197zM200 786v197h318v318h197v-318h318v-197h-318v-318h-197v318h-318z" />
    <glyph glyph-name="uni00B2" unicode="&#xb2;" horiz-adv-x="1021" 
d="M200 695l8 56q20 137 238 355l1 1l35 15q119 46 119 167v8v10q0 61 -27 92q-38 43 -86 43h-1q-70 0 -113 -38q-26 -23 -37 -53q16 -7 31 -21q25 -24 25 -61q0 -36 -25 -61t-57 -25h-3q-33 0 -60 27q-25 25 -25 61q1 107 79 187q76 78 177 78h7h6h6q94 0 173 -65
q80 -66 81 -177l-1 -21q-7 -115 -96 -173q-54 -35 -129 -66q-83 -27 -168 -130h3h1q58 0 145 -25l108 -24q18 -4 37 -4q59 1 104 46l65 65l-4 -18q-51 -231 -158 -231q-18 0 -30 2q-66 11 -151 26l-102 23q-22 5 -42 5q-52 0 -92 -36z" />
    <glyph glyph-name="uni00B3" unicode="&#xb3;" horiz-adv-x="939" 
d="M224.5 1041q24.5 26 60 26t60.5 -25t25 -60.5t-25 -60.5q-14 -15 -32 -21q12 -30 38 -53q44 -39 113 -39q57 0 96 45q28 31 28 101v10v6q0 51 -13 79q-19 39 -49 59q-25 16 -97 47l-37 16l35 20q2 1 27.5 15t37.5 21q26 16 38 29q22 24 22 82v15q-2 37 -22 71l-3 4
q-30 27 -57 28h-6q-42 0 -62 -10t-30 -26q17 -7 31 -20q25 -25 25 -61t-25 -61t-60.5 -25t-60 26.5t-24.5 61.5q0 66 72 146q53 49 137 49h2q86 -1 139 -35q78 -51 85 -139q1 -8 1 -16q0 -66 -42 -114q-1 0 -21 -21h-1l-1 -1q-24 -19 -54 -34l15 -4q43 -15 84 -52
q59 -54 64 -152l1 -22v-1q-10 -111 -86.5 -170.5t-186.5 -59.5t-188 78t-78 186q0 36 24.5 62z" />
    <glyph glyph-name="acute" unicode="&#xb4;" horiz-adv-x="800" 
d="M200 1169l188 310q3 5 14 17q26 29 64 37q15 3 29 3q44 0 76 -32q29 -29 29 -73q0 -8 -1 -18q-4 -45 -35 -68l-17 -14l-327 -183z" />
    <glyph glyph-name="uni00B5" unicode="&#xb5;" horiz-adv-x="1287" 
d="M20 -433q190 203 190 452v8v853q0 25 -13 35q-21 16 -61 25q-88 20 -116 22q56 25 306 114q42 15 82 26v-559v-4q0 -228 87 -338q82 -104 197 -104h4q127 0 184 92v740l-2 9q-54 111 -188 139h578q-124 -24 -188 -140l-2 -8v-732q0 -25 13 -35q20 -16 61 -25
q91 -20 116 -22q-56 -25 -306 -114q-42 -15 -82 -26v77l-3 -2q-100 -75 -223 -75t-223 75q-12 9 -23 18v-41v-8q0 -335 -381 -451z" />
    <glyph glyph-name="paragraph" unicode="&#xb6;" horiz-adv-x="1248" 
d="M150 984q0 148 59 275q60 130 162 201q107 75 239 75q115 0 282 -59q246 -87 306 -114q-22 -1 -116 -22q-40 -9 -61 -25q-13 -10 -13 -35v-1132l2 -8q64 -116 188 -140h-260v1282h-59v-1282h-259q134 28 188 139l2 9v330q-99 -70 -216 -70q-122 0 -223 75
q-100 74 -161 206q-60 130 -60 295zM368 968q0 -221 64 -330q66 -108 196 -108q100 0 153 79q27 40 29 72v9v590q0 51 -14 67l-10 15q-78 76 -172 77h-18q-113 -2 -178 -139q-50 -107 -50 -332z" />
    <glyph glyph-name="periodcentered" unicode="&#xb7;" horiz-adv-x="660" 
d="M200 694q0 55 38 93.5t92 38.5t92 -38.5t38 -93.5t-38 -93.5t-92 -38.5t-92 38.5t-38 93.5z" />
    <glyph glyph-name="cedilla" unicode="&#xb8;" horiz-adv-x="697" 
d="M266 84q12 2 31 4q34 2 59 -9q97 -43 133 -208q8 -37 8 -90q0 -33 -11 -71q-6 -22 -15 -43q-26 -62 -77 -85q-34 -15 -65 -15q-17 0 -33 4q-53 13 -79 61q-17 31 -17 64q0 18 5 36q16 56 64 85q27 16 60 16q24 0 51 -9l1 26v13q0 38 -13 86q-26 94 -95 132z" />
    <glyph glyph-name="uni00B9" unicode="&#xb9;" horiz-adv-x="762" 
d="M233.5 725q-1.5 18 16.5 21q51 10 79 57v470q0 9 -3 16t-10 14.5t-23 12.5t-41 7l-52 3l267 210v-733q23 -45 79 -57q18 -3 16 -21t-20 -18h-288q-19 0 -20.5 18z" />
    <glyph glyph-name="ordmasculine" unicode="&#xba;" horiz-adv-x="1233" 
d="M200 626h833v-197h-833v197zM628 808q24 0 73 44q35 44 53 110q19 69 19 149v16q-7 112 -19 150q-23 88 -63 130q-35 37 -74 37h-1q-40 0 -73 -29q-38 -30 -62 -124q-23 -90 -23 -153q1 -11 1 -19q1 -18 1 -36q0 -38 15 -99q23 -93 61 -133q41 -43 92 -43zM606 716
q-54 0 -108 32q-56 33 -97 87q-41 52 -62 121q-23 73 -23 164q0 81 23 164q22 80 62 133q42 56 97 87q56 32 118 32q61 0 119 -33q54 -31 96 -86q41 -54 64 -133t23 -164q0 -89 -23 -159q-25 -75 -63 -126q-42 -55 -97 -87t-129 -32z" />
    <glyph glyph-name="guillemotright" unicode="&#xbb;" horiz-adv-x="1251" 
d="M354 201l-88 88l234 357l-300 414l154 161l350 -495zM751 201l-88 88l234 357l-300 414l154 161l350 -495z" />
    <glyph glyph-name="onequarter" unicode="&#xbc;" horiz-adv-x="1536" 
d="M884 271h214v259zM1098 180h-400l538 664v-573h101l-50 -91h-51v-84q23 -45 80 -56q17 -4 15.5 -22t-19.5 -18h-289q-18 0 -20 18t16 22q52 10 79 56v84zM233.5 725q-1.5 18 16.5 21q51 10 79 57v470q0 9 -3 16t-10 14.5t-23 12.5t-41 7l-52 3l267 210v-733
q23 -45 79 -57q18 -3 16 -21t-20 -18h-288q-19 0 -20.5 18zM212 -227l908 2042l137 -64l-911 -2048z" />
    <glyph glyph-name="onehalf" unicode="&#xbd;" horiz-adv-x="1691" 
d="M870 -21q-1 12 -1 24v4v4q0 56 31 135q41 104 99 162q51 50 118 83l35 15q119 46 119 167v8v10q0 61 -27 92q-37 43 -86 43h-1q-70 0 -113 -38q-26 -23 -37 -53q15 -7 31 -21q25 -23 25 -61v-3q1 -32 -25 -58q-25 -25 -57 -25h-3q-33 0 -60 27q-25 25 -25 61
q1 108 79 187q77 78 177 78h7h6h6q94 0 173 -65q80 -66 81 -177l-1 -21q-7 -115 -96 -173q-52 -34 -129 -66q-83 -27 -168 -130h3h1q58 0 145 -25l108 -24q18 -4 37 -4q58 0 104 46l65 65l-4 -18q-51 -231 -158 -231q-18 0 -30 2q-91 15 -151 26l-102 23q-22 5 -42 5
q-52 0 -92 -36zM234 725q-2 18 16 21q49 8 79 57v470q0 9 -3 16q-4 9 -10 15q-7 7 -23 12t-41 7l-52 3l267 210v-733q24 -48 79 -57q18 -3 16 -21t-20 -18h-288q-18 0 -20 18zM212 -227l908 2042l137 -64l-911 -2048z" />
    <glyph glyph-name="threequarters" unicode="&#xbe;" horiz-adv-x="1729" 
d="M1077 271h214v259zM1291 180h-400l539 664v-573h100l-50 -91h-50v-84q22 -45 79 -56q17 -4 15.5 -22t-20.5 -18h-288q-18 0 -20 18t16 22q52 10 79 56v84zM224.5 1041q24.5 26 60 26t60.5 -25t25 -60.5t-25 -60.5q-14 -15 -32 -21q12 -30 38 -53q44 -39 113 -39
q57 0 96 45q28 31 28 101v10v6q0 51 -13 79q-19 39 -49 59q-25 16 -97 47l-37 16l35 20q2 1 27.5 15t37.5 21q26 16 38 29q22 24 22 82v15q-2 37 -22 71l-3 4q-30 27 -57 28h-6q-42 0 -62 -10t-30 -26q17 -7 31 -20q25 -25 25 -61t-25 -61t-60.5 -25t-60 26.5t-24.5 61.5
q0 66 72 146q53 49 137 49h2q86 -1 139 -35q78 -51 85 -139q1 -8 1 -16q0 -66 -42 -114q-1 0 -21 -21h-1l-1 -1q-24 -19 -54 -34l15 -4q43 -15 84 -52q59 -54 64 -152l1 -22v-1q-10 -111 -86.5 -170.5t-186.5 -59.5t-188 78t-78 186q0 36 24.5 62zM391 -227l908 2042
l137 -64l-911 -2048z" />
    <glyph glyph-name="questiondown" unicode="&#xbf;" horiz-adv-x="1257" 
d="M799 1404q0 -55 -38 -93.5t-92 -38.5t-92 38.5t-38 93.5t38 93.5t92 38.5t92 -38.5t38 -93.5zM727 1123v-41q-6 -141 -122 -241l-30 -22q-213 -156 -230 -350v-30q0 -138 40 -200q88 -138 259 -148q147 1 240 96q71 72 99 150q-45 4 -78 37q-38 39 -38 94t38 93.5
t92 38.5t92 -38.5t38 -93.5q0 -202 -145 -349q-145 -144 -349 -144t-353.5 127.5t-149.5 331.5l1 41q15 189 172 294l218 146q113 74 113 193v15h93z" />
    <glyph glyph-name="Agrave" unicode="&#xc0;" horiz-adv-x="1320" 
d="M611 1583l-20 -21l-327 183l-17 14q-31 23 -35 68q-1 10 -1 18q0 44 29 73q32 32 76 32q14 0 29 -3q38 -8 64 -37q11 -12 14 -17zM-70 0q123 24 187 140l3 8l535 1403l545 -1403l1 -3l3 -9q64 -112 186 -136h-578q191 56 191 124q0 7 -2 15l-3 9l-153 392h-461l-147 -392
l-3 -10q-2 -6 -2 -13q0 -61 191 -125h-493zM422 642h384l-194 528z" />
    <glyph glyph-name="Aacute" unicode="&#xc1;" horiz-adv-x="1320" 
d="M673 1583l188 310q3 5 14 17q26 29 64 37q15 3 29 3q44 0 76 -32q29 -29 29 -73q0 -8 -1 -18q-4 -45 -35 -68l-17 -14l-327 -183zM-70 0q123 24 187 140l3 8l535 1403l545 -1403l1 -3l3 -9q64 -112 186 -136h-578q191 56 191 124q0 7 -2 15l-3 9l-153 392h-461l-147 -392
l-3 -10q-2 -6 -2 -13q0 -61 191 -125h-493zM422 642h384l-194 528z" />
    <glyph glyph-name="Acircumflex" unicode="&#xc2;" horiz-adv-x="1320" 
d="M367 1583l188 310q2 3 14 17q18 23 50 33q22 7 38 7h3h2q14 0 38 -7q27 -8 50 -33q11 -12 14 -17l188 -310l-20 -21l-270 180l-275 -180zM-70 0q123 24 187 140l3 8l535 1403l545 -1403l1 -3l3 -9q64 -112 186 -136h-578q191 56 191 124q0 7 -2 15l-3 9l-153 392h-461
l-147 -392l-3 -10q-2 -6 -2 -13q0 -61 191 -125h-493zM422 642h384l-194 528z" />
    <glyph glyph-name="Atilde" unicode="&#xc3;" horiz-adv-x="1320" 
d="M391 1700q59 250 185 250q13 0 30 -4q38 -9 130 -71l87 -61q26 -22 58 -22h3q61 0 145 110q-54 -257 -182 -269q-12 -1 -24 2q-40 10 -131 74l-86 58q-28 20 -62 21h-1q-64 0 -152 -88zM-70 0q123 24 187 140l3 8l535 1403l545 -1403l1 -3l3 -9q64 -112 186 -136h-578
q191 56 191 124q0 7 -2 15l-3 9l-153 392h-461l-147 -392l-3 -10q-2 -6 -2 -13q0 -61 191 -125h-493zM422 642h384l-194 528z" />
    <glyph glyph-name="Adieresis" unicode="&#xc4;" horiz-adv-x="1320" 
d="M688 1804q0 55 38 93.5t92 38.5t92 -38.5t38 -93.5t-38 -93.5t-92 -38.5t-92 38.5t-38 93.5zM351 1804q0 55 38 93.5t92 38.5t92 -38.5t38 -93.5t-38 -93.5t-92 -38.5t-92 38.5t-38 93.5zM-70 0q123 24 187 140l3 8l535 1403l545 -1403l1 -3l3 -9q64 -112 186 -136h-578
q191 56 191 124q0 7 -2 15l-3 9l-153 392h-461l-147 -392l-3 -10q-2 -6 -2 -13q0 -61 191 -125h-493zM422 642h384l-194 528z" />
    <glyph glyph-name="Aring" unicode="&#xc5;" horiz-adv-x="1320" 
d="M594 1752q0 -53 16 -83t45 -30q19 0 37 28q20 32 20 95q0 59 -20 88q-18 26 -40 26q-23 0 -40.5 -25.5t-17.5 -98.5zM487 1765q0 45 23 91q21 43 59 68q38 26 85 26q48 0 85 -25q36 -24 59 -69q22 -43 23 -98q-1 -46 -23 -89q-23 -45 -59 -69q-37 -25 -85 -25
q-43 0 -85 25q-46 28 -63 68q-19 45 -19 80v3v14zM-70 0q123 24 187 140l3 8l535 1403l545 -1403l1 -3l3 -9q64 -112 186 -136h-578q191 56 191 124q0 7 -2 15l-3 9l-153 392h-461l-147 -392l-3 -10q-2 -6 -2 -13q0 -61 191 -125h-493zM422 642h384l-194 528z" />
    <glyph glyph-name="AE" unicode="&#xc6;" horiz-adv-x="1944" 
d="M-70 0q123 24 187 140l3 8l692 1363h816l186 -322q-206 212 -277 219l-14 1h-453v-767h313l14 1q71 7 277 219l-289 -501q9 33 9 61q0 74 -60 115l-7 3h-257v-438h583l14 1q71 7 277 219l-186 -322h-1076q124 24 188 140l2 8v392h-416l-208 -392l-3 -10q-2 -6 -2 -13
q0 -61 191 -125h-504zM872 1364l-378 -722h378v721v1z" />
    <glyph glyph-name="Ccedilla" unicode="&#xc7;" horiz-adv-x="1366" 
d="M130 744q0 164 44 316q45 155 120 254q78 103 180 162q103 60 208 60h10q116 0 215 -52q68 -36 108 -73l8 -1q100 8 132 127v-578q-52 204 -122 320q-34 53 -87 92q-82 60 -194 60q-129 0 -238 -86q-79 -91 -126 -261q-46 -167 -46 -325v-13q0 -156 32 -284
q74 -220 178 -306q85 -70 219 -70q23 0 47 2q74 6 166 64q51 31 114 110q40 50 66 132l102 -40q-39 -89 -88 -154q-78 -104 -180 -161q-89 -50 -199 -61q22 -45 36 -107q8 -35 8 -90q0 -33 -11 -71q-6 -21 -15 -43q-26 -62 -77 -85q-34 -15 -65 -15q-17 0 -33 4
q-53 13 -79 61q-17 31 -17 64q0 18 5 36q16 56 64 85q27 16 60 16q24 0 51 -9l1 26v13q0 41 -13 86q-4 14 -9 27q-134 5 -229 59q-105 60 -182 162q-75 100 -120 243q-44 140 -44 304z" />
    <glyph glyph-name="Egrave" unicode="&#xc8;" horiz-adv-x="1322" 
d="M713 1583l-20 -21l-327 183l-17 14q-31 23 -35 68q-1 10 -1 18q0 44 29 73q32 32 76 32q14 0 29 -3q38 -8 64 -37q11 -12 14 -17zM60 0q124 24 188 140l2 8v1215l-2 8q-64 116 -188 140h946l186 -322q-206 212 -277 219l-14 1h-453v-767h313l14 1q71 7 277 219l-289 -501
q9 33 9 61q0 74 -60 115l-7 3h-257v-438h583l14 1q71 7 277 219l-186 -322h-1076z" />
    <glyph glyph-name="Eacute" unicode="&#xc9;" horiz-adv-x="1322" 
d="M673 1583l188 310q3 5 14 17q26 29 64 37q15 3 29 3q44 0 76 -32q29 -29 29 -73q0 -8 -1 -18q-4 -45 -35 -68l-17 -14l-327 -183zM60 0q124 24 188 140l2 8v1215l-2 8q-64 116 -188 140h946l186 -322q-206 212 -277 219l-14 1h-453v-767h313l14 1q71 7 277 219l-289 -501
q9 33 9 61q0 74 -60 115l-7 3h-257v-438h583l14 1q71 7 277 219l-186 -322h-1076z" />
    <glyph glyph-name="Ecircumflex" unicode="&#xca;" horiz-adv-x="1322" 
d="M407 1583l188 310q2 3 14 17q18 23 50 33q22 7 38 7h3h2q14 0 38 -7q27 -8 50 -33q11 -12 14 -17l188 -310l-20 -21l-270 180l-275 -180zM60 0q124 24 188 140l2 8v1215l-2 8q-64 116 -188 140h946l186 -322q-206 212 -277 219l-14 1h-453v-767h313l14 1q71 7 277 219
l-289 -501q9 33 9 61q0 74 -60 115l-7 3h-257v-438h583l14 1q71 7 277 219l-186 -322h-1076z" />
    <glyph glyph-name="Edieresis" unicode="&#xcb;" horiz-adv-x="1322" 
d="M649 1804q0 55 38 93.5t92 38.5t92 -38.5t38 -93.5t-38 -93.5t-92 -38.5t-92 38.5t-38 93.5zM312 1804q0 55 38 93.5t92 38.5t92 -38.5t38 -93.5t-38 -93.5t-92 -38.5t-92 38.5t-38 93.5zM60 0q124 24 188 140l2 8v1215l-2 8q-64 116 -188 140h946l186 -322
q-206 212 -277 219l-14 1h-453v-767h313l14 1q71 7 277 219l-289 -501q9 33 9 61q0 74 -60 115l-7 3h-257v-438h583l14 1q71 7 277 219l-186 -322h-1076z" />
    <glyph glyph-name="Igrave" unicode="&#xcc;" horiz-adv-x="698" 
d="M369 1583l-20 -21l-327 183l-17 14q-31 23 -35 68q-1 10 -1 18q0 44 29 73q32 32 76 32q14 0 29 -3q38 -8 64 -37q11 -12 14 -17zM60 0q124 24 188 140l2 8v1215l-2 8q-64 116 -188 140h578q-134 -28 -188 -139l-2 -9v-1215l2 -9q54 -111 188 -139h-578z" />
    <glyph glyph-name="Iacute" unicode="&#xcd;" horiz-adv-x="698" 
d="M329 1583l188 310q3 5 14 17q26 29 64 37q15 3 29 3q44 0 76 -32q29 -29 29 -73q0 -8 -1 -18q-4 -45 -35 -68l-17 -14l-327 -183zM60 0q124 24 188 140l2 8v1215l-2 8q-64 116 -188 140h578q-134 -28 -188 -139l-2 -9v-1215l2 -9q54 -111 188 -139h-578z" />
    <glyph glyph-name="Icircumflex" unicode="&#xce;" horiz-adv-x="698" 
d="M60 0q124 24 188 140l2 8v1215l-2 8q-64 116 -188 140h578q-134 -28 -188 -139l-2 -9v-1215l2 -9q54 -111 188 -139h-578zM56 1583l188 310q4 6 14 17q23 25 50 33q23 7 38 7h4h2q14 0 38 -7q29 -9 50 -33q11 -13 14 -17l188 -310l-20 -21l-270 180l-276 -180z" />
    <glyph glyph-name="Idieresis" unicode="&#xcf;" horiz-adv-x="698" 
d="M60 0q124 24 188 140l2 8v1215l-2 8q-64 116 -188 140h578q-134 -28 -188 -139l-2 -9v-1215l2 -9q54 -111 188 -139h-578zM388 1804q0 56 38 94t92 38q55 0 92 -38q38 -39 38 -94q0 -56 -38 -94t-92 -38t-92 38.5t-38 93.5zM50 1804q0 56 38 94t92 38q55 0 92 -38
q38 -39 38 -94q0 -56 -38 -94t-92 -38t-92 38.5t-38 93.5z" />
    <glyph glyph-name="Eth" unicode="&#xd0;" horiz-adv-x="1504" 
d="M60 148q16 1 116 22q41 9 61 25q13 10 13 35v470h-47h-8q-126 -7 -189 -76l179 294q-6 -25 -6 -51q0 -65 71 -65v479q0 23 -16 38q-21 20 -50 25q-104 17 -124 19l344 131q121 42 278 42h28q115 0 246 -63q123 -60 223 -171q85 -94 140 -244t55 -314q0 -163 -56 -306
q-55 -141 -139 -237q-86 -98 -220 -163q-131 -63 -271 -63q-155 0 -308 57q-246 92 -320 116zM549 1419q-49 -18 -73 -46q-26 -30 -28 -92v-479h183h8q126 7 189 76l-179 -294q6 25 6 51q0 65 -71 65h-5h-4h-127v-470q0 -44 14 -67q19 -31 48 -48q74 -37 199 -37h7
q116 0 232 106q104 112 156 246q50 129 50 300v26q0 190 -39 311q-65 176 -173 267q-96 81 -231 97q-26 3 -55 3q-55 -1 -107 -15z" />
    <glyph glyph-name="Ntilde" unicode="&#xd1;" horiz-adv-x="1550" 
d="M473 1700q59 250 185 250q13 0 30 -4q38 -9 130 -71l87 -61q26 -22 58 -22h3q61 0 145 110q-54 -257 -182 -269q-12 -1 -24 2q-40 10 -131 74l-86 58q-28 20 -62 21h-1q-64 0 -152 -88zM60 0q124 24 188 140l2 8v1215l-2 8q-64 116 -188 140h331l797 -1071v923l-2 8
q-64 116 -188 140h492q-134 -28 -188 -139l-2 -9v-1403l-938 1243v-1055l2 -9q54 -111 188 -139h-492z" />
    <glyph glyph-name="Ograve" unicode="&#xd2;" horiz-adv-x="1384" 
d="M713 1583l-20 -21l-327 183l-17 14q-31 23 -35 68q-1 10 -1 18q0 44 29 73q32 32 76 32q14 0 29 -3q38 -8 64 -37q11 -12 14 -17zM338 727q0 -157 32 -265q49 -194 132 -284q91 -98 190 -98h3h3q83 0 192 100q76 94 115 237q39 142 39 310v31q0 187 -39 311
q-49 184 -135 277q-79 85 -177 85h-2q-97 0 -171 -67q-89 -72 -138 -268q-44 -178 -44 -369zM130 744q0 164 44 316t120 254q76 101 180 161.5t218 60.5t218 -60.5t180 -161.5q76 -102 120 -254t44 -316t-44 -304.5t-120 -242.5q-76 -101 -180 -161.5t-218 -60.5t-218 60.5
t-180 161.5q-76 102 -120 242.5t-44 304.5z" />
    <glyph glyph-name="Oacute" unicode="&#xd3;" horiz-adv-x="1384" 
d="M673 1583l188 310q3 5 14 17q26 29 64 37q15 3 29 3q44 0 76 -32q29 -29 29 -73q0 -8 -1 -18q-4 -45 -35 -68l-17 -14l-327 -183zM338 727q0 -157 32 -265q49 -194 132 -284q91 -98 190 -98h3h3q83 0 192 100q76 94 115 237q39 142 39 310v31q0 187 -39 311
q-49 184 -135 277q-79 85 -177 85h-2q-97 0 -171 -67q-89 -72 -138 -268q-44 -178 -44 -369zM130 744q0 164 44 316t120 254q76 101 180 161.5t218 60.5t218 -60.5t180 -161.5q76 -102 120 -254t44 -316t-44 -304.5t-120 -242.5q-76 -101 -180 -161.5t-218 -60.5t-218 60.5
t-180 161.5q-76 102 -120 242.5t-44 304.5z" />
    <glyph glyph-name="Ocircumflex" unicode="&#xd4;" horiz-adv-x="1384" 
d="M130 744q0 164 44 316q44 153 120 254q75 100 180 162q104 60 218 60t218 -60.5t180 -161.5q76 -102 120 -254t44 -316t-44 -304.5t-120 -242.5q-76 -101 -180 -161.5t-218 -60.5t-218 61q-104 60 -180 161q-75 100 -120 243q-44 140 -44 304zM338 727q0 -157 32 -265
q49 -194 132 -284q91 -98 190 -98h3h3q83 0 192 100q76 94 115 237q39 142 39 310v31q0 187 -39 311q-49 184 -135 277q-79 85 -177 85h-2q-97 0 -171 -67q-89 -72 -138 -268q-44 -178 -44 -369zM407 1583l188 310q2 3 14 17q18 23 50 33q22 7 38 7h3h2q14 0 38 -7
q27 -8 50 -33q11 -12 14 -17l188 -310l-20 -21l-270 180l-275 -180z" />
    <glyph glyph-name="Otilde" unicode="&#xd5;" horiz-adv-x="1384" 
d="M391 1700q59 250 185 250q13 0 30 -4q38 -9 130 -71l87 -61q26 -22 58 -22h3q61 0 145 110q-54 -257 -182 -269q-12 -1 -24 2q-40 10 -131 74l-86 58q-28 20 -62 21h-1q-64 0 -152 -88zM338 727q0 -157 32 -265q49 -194 132 -284q91 -98 190 -98h3h3q83 0 192 100
q76 94 115 237q39 142 39 310v31q0 187 -39 311q-49 184 -135 277q-79 85 -177 85h-2q-97 0 -171 -67q-89 -72 -138 -268q-44 -178 -44 -369zM130 744q0 164 44 316t120 254q76 101 180 161.5t218 60.5t218 -60.5t180 -161.5q76 -102 120 -254t44 -316t-44 -304.5
t-120 -242.5q-76 -101 -180 -161.5t-218 -60.5t-218 60.5t-180 161.5q-76 102 -120 242.5t-44 304.5z" />
    <glyph glyph-name="Odieresis" unicode="&#xd6;" horiz-adv-x="1384" 
d="M733 1804q0 55 38 93.5t92 38.5t92 -38.5t38 -93.5t-38 -93.5t-92 -38.5t-92 38.5t-38 93.5zM396 1804q0 55 38 93.5t92 38.5t92 -38.5t38 -93.5t-38 -93.5t-92 -38.5t-92 38.5t-38 93.5zM338 727q0 -157 32 -265q49 -194 132 -284q91 -98 190 -98h3h3q83 0 192 100
q76 94 115 237q39 142 39 310v31q0 187 -39 311q-49 184 -135 277q-79 85 -177 85h-2q-97 0 -171 -67q-89 -72 -138 -268q-44 -178 -44 -369zM130 744q0 164 44 316t120 254q76 101 180 161.5t218 60.5t218 -60.5t180 -161.5q76 -102 120 -254t44 -316t-44 -304.5
t-120 -242.5q-76 -101 -180 -161.5t-218 -60.5t-218 60.5t-180 161.5q-76 102 -120 242.5t-44 304.5z" />
    <glyph glyph-name="multiply" unicode="&#xd7;" horiz-adv-x="1128" 
d="M339 335l-139 140l225 225l-225 224l139 140l225 -225l225 225l139 -140l-225 -224l225 -225l-139 -140l-225 225z" />
    <glyph glyph-name="Oslash" unicode="&#xd8;" horiz-adv-x="1384" 
d="M130 744q0 164 44 316t120 254q76 101 180 161.5t218 60.5t218 -60l9 -6l72 162l137 -64l-87 -196q26 -27 49 -58q76 -102 120 -254t44 -316t-44 -304.5t-120 -242.5q-76 -101 -180 -161.5t-218 -60.5t-218 61q-12 6 -23 14l-75 -168l-134 70l89 200q-19 21 -37 45
q-76 102 -120 242.5t-44 304.5zM338 727q0 -157 32 -265q18 -72 41 -130l455 1019q-78 80 -173 80h-2q-97 0 -171 -67q-89 -72 -138 -268q-44 -178 -44 -369zM962 1196l-456 -1022q89 -94 186 -94h3h3q83 0 192 100q76 94 115 237q39 142 39 310v31q0 187 -39 311
q-19 70 -43 127z" />
    <glyph glyph-name="Ugrave" unicode="&#xd9;" horiz-adv-x="1547" 
d="M713 1583l-20 -21l-327 183l-17 14q-31 23 -35 68q-1 10 -1 18q0 44 29 73q32 32 76 32q14 0 29 -3q38 -8 64 -37q11 -12 14 -17zM60 1511h578q-134 -28 -188 -139l-2 -9v-865q5 -149 106 -254q108 -112 262 -112t262 112q101 105 107 254v865l-2 8q-64 116 -188 140h492
q-134 -28 -188 -139l-2 -9v-865v-3q0 -106 -41.5 -202t-110.5 -166q-70 -70 -167 -111t-204 -41t-204 41t-167 111q-69 70 -111 166t-42 202v3v865l-2 8q-64 116 -188 140z" />
    <glyph glyph-name="Uacute" unicode="&#xda;" horiz-adv-x="1547" 
d="M673 1583l188 310q3 5 14 17q26 29 64 37q15 3 29 3q44 0 76 -32q29 -29 29 -73q0 -8 -1 -18q-4 -45 -35 -68l-17 -14l-327 -183zM60 1511h578q-134 -28 -188 -139l-2 -9v-865q5 -149 106 -254q108 -112 262 -112t262 112q101 105 107 254v865l-2 8q-64 116 -188 140h492
q-134 -28 -188 -139l-2 -9v-865v-3q0 -106 -41.5 -202t-110.5 -166q-70 -70 -167 -111t-204 -41t-204 41t-167 111q-69 70 -111 166t-42 202v3v865l-2 8q-64 116 -188 140z" />
    <glyph glyph-name="Ucircumflex" unicode="&#xdb;" horiz-adv-x="1547" 
d="M548 1583l188 310q2 3 14 17q18 23 50 33q22 7 38 7h3h2q14 0 38 -7q27 -8 50 -33q11 -12 14 -17l188 -310l-20 -21l-270 180l-275 -180zM60 1511h578q-134 -28 -188 -139l-2 -9v-865q5 -149 106 -254q108 -112 262 -112t262 112q101 105 107 254v865l-2 8
q-64 116 -188 140h492q-134 -28 -188 -139l-2 -9v-865v-3q0 -106 -41.5 -202t-110.5 -166q-70 -70 -167 -111t-204 -41t-204 41t-167 111q-69 70 -111 166t-42 202v3v865l-2 8q-64 116 -188 140z" />
    <glyph glyph-name="Udieresis" unicode="&#xdc;" horiz-adv-x="1547" 
d="M884 1804q0 55 38 93.5t92 38.5t92 -38.5t38 -93.5t-38 -93.5t-92 -38.5t-92 38.5t-38 93.5zM547 1804q0 55 38 93.5t92 38.5t92 -38.5t38 -93.5t-38 -93.5t-92 -38.5t-92 38.5t-38 93.5zM60 1511h578q-134 -28 -188 -139l-2 -9v-865q5 -149 106 -254q108 -112 262 -112
t262 112q101 105 107 254v865l-2 8q-64 116 -188 140h492q-134 -28 -188 -139l-2 -9v-865v-3q0 -106 -41.5 -202t-110.5 -166q-70 -70 -167 -111t-204 -41t-204 41t-167 111q-69 70 -111 166t-42 202v3v865l-2 8q-64 116 -188 140z" />
    <glyph glyph-name="Yacute" unicode="&#xdd;" horiz-adv-x="1320" 
d="M673 1583l188 310q3 5 14 17q26 29 64 37q15 3 29 3q44 0 76 -32q29 -29 29 -73q0 -8 -1 -18q-4 -45 -35 -68l-17 -14l-327 -183zM370 0q124 24 188 140l2 8v494h-85l-355 721l-1 3l-3 9q-64 112 -186 136h578q-194 -69 -194 -124q0 -8 4 -15l4 -9l352 -721h48l361 721
l4 9q4 7 4 15q-1 55 -194 124h493q-123 -24 -187 -140l-3 -8l-369 -721h-73v-494l2 -9q54 -111 188 -139h-578z" />
    <glyph glyph-name="Thorn" unicode="&#xde;" horiz-adv-x="1378" 
d="M60 0q124 24 188 140l2 8v1215l-2 8q-64 116 -188 140h578q-134 -28 -188 -139l-2 -9v-157q117 33 208 33h8q145 0 250 -41q102 -40 170 -102q93 -85 132 -180q26 -54 32 -180q-5 -197 -114 -312q-98 -103 -220 -148q-84 -31 -189 -31q-20 0 -41 1q-145 7 -236 84v-182
l2 -9q54 -111 188 -139h-578zM663 1136q-78 0 -153 -37q-30 -18 -48 -48q-14 -24 -14 -67v-498q50 -93 162 -128q48 -14 93 -14h11q4 0 40 2q95 10 160 62q118 95 118 328q0 120 -48 216q-42 84 -128 138q-74 46 -193 46z" />
    <glyph glyph-name="germandbls" unicode="&#xdf;" horiz-adv-x="1271" 
d="M60 0q134 28 188 139l2 9v928v8q0 210 141 365q94 87 247 87h3q161 -1 256 -63q141 -92 152 -248q1 -14 1 -28v-3q0 -112 -73 -199l-40 -40q-80 -64 -198 -100q9 -6 131 -46q77 -25 153 -94q107 -99 117 -277l1 -41q-19 -206 -159 -314q-137 -106 -332 -109v108
q120 6 203 101q66 76 66 229v19q0 125 -30 188q-42 88 -112 134q-54 35 -200 98l132 74q68 47 84 64q55 60 55 191q0 16 -1 31q-6 90 -51 164l-11 13q-54 65 -129 66h-3q-82 0 -131 -54q-33 -37 -54 -122q-13 -53 -19 -152q-1 -21 -1 -39v-3v-8v-928l2 -8q64 -116 188 -140
h-578z" />
    <glyph glyph-name="agrave" unicode="&#xe0;" 
d="M578 1169l-20 -21l-327 183l-17 14q-31 23 -35 68q-1 10 -1 18q0 44 29 73q32 32 76 32q14 0 29 -3q38 -8 64 -37q11 -12 14 -17zM327 542q0 -225 50 -332q65 -139 178 -139h30q83 0 160 77l10 15q15 16 15 67v617q0 51 -14 67l-10 15q-77 77 -160 77h-30
q-113 0 -178 -139q-51 -109 -51 -325zM110 551q0 148 59 275q59 128 162 201q106 75 238 75q115 0 283 -59q241 -85 306 -114q-22 -1 -116 -22q-40 -9 -61 -25q-13 -10 -13 -35v-617q0 -26 12 -35q21 -16 61 -25q94 -21 116 -22q-65 -29 -306 -114q-168 -59 -283 -59
q-132 0 -238 75q-103 73 -162 201q-58 125 -58 300z" />
    <glyph glyph-name="aacute" unicode="&#xe1;" 
d="M538 1169l188 310q3 5 14 17q26 29 64 37q15 3 29 3q44 0 76 -32q29 -29 29 -73q0 -8 -1 -18q-4 -45 -35 -68l-17 -14l-327 -183zM327 542q0 -225 50 -332q65 -139 178 -139h30q83 0 160 77l10 15q15 16 15 67v617q0 51 -14 67l-10 15q-77 77 -160 77h-30
q-113 0 -178 -139q-51 -109 -51 -325zM110 551q0 148 59 275q59 128 162 201q106 75 238 75q115 0 283 -59q241 -85 306 -114q-22 -1 -116 -22q-40 -9 -61 -25q-13 -10 -13 -35v-617q0 -26 12 -35q21 -16 61 -25q94 -21 116 -22q-65 -29 -306 -114q-168 -59 -283 -59
q-132 0 -238 75q-103 73 -162 201q-58 125 -58 300z" />
    <glyph glyph-name="acircumflex" unicode="&#xe2;" 
d="M263 1169l188 310q2 3 14 17q18 23 50 33q22 7 38 7h3h2q14 0 38 -7q27 -8 50 -33q11 -12 14 -17l188 -310l-20 -21l-270 180l-275 -180zM327 542q0 -225 50 -332q65 -139 178 -139h30q83 0 160 77l10 15q15 16 15 67v617q0 51 -14 67l-10 15q-77 77 -160 77h-30
q-113 0 -178 -139q-51 -109 -51 -325zM110 551q0 148 59 275q59 128 162 201q106 75 238 75q115 0 283 -59q241 -85 306 -114q-22 -1 -116 -22q-40 -9 -61 -25q-13 -10 -13 -35v-617q0 -26 12 -35q21 -16 61 -25q94 -21 116 -22q-65 -29 -306 -114q-168 -59 -283 -59
q-132 0 -238 75q-103 73 -162 201q-58 125 -58 300z" />
    <glyph glyph-name="atilde" unicode="&#xe3;" 
d="M287 1286q59 250 185 250q13 0 30 -4q38 -9 130 -71l87 -61q26 -22 58 -22h3q61 0 145 110q-54 -257 -182 -269q-12 -1 -24 2q-40 10 -131 74l-86 58q-28 20 -62 21h-1q-64 0 -152 -88zM327 542q0 -225 50 -332q65 -139 178 -139h30q83 0 160 77l10 15q15 16 15 67v617
q0 51 -14 67l-10 15q-77 77 -160 77h-30q-113 0 -178 -139q-51 -109 -51 -325zM110 551q0 148 59 275q59 128 162 201q106 75 238 75q115 0 283 -59q241 -85 306 -114q-22 -1 -116 -22q-40 -9 -61 -25q-13 -10 -13 -35v-617q0 -26 12 -35q21 -16 61 -25q94 -21 116 -22
q-65 -29 -306 -114q-168 -59 -283 -59q-132 0 -238 75q-103 73 -162 201q-58 125 -58 300z" />
    <glyph glyph-name="adieresis" unicode="&#xe4;" 
d="M620 1404q0 55 38 93.5t92 38.5t92 -38.5t38 -93.5t-38 -93.5t-92 -38.5t-92 38.5t-38 93.5zM283 1404q0 55 38 93.5t92 38.5t92 -38.5t38 -93.5t-38 -93.5t-92 -38.5t-92 38.5t-38 93.5zM327 542q0 -225 50 -332q65 -139 178 -139h30q83 0 160 77l10 15q15 16 15 67v617
q0 51 -14 67l-10 15q-77 77 -160 77h-30q-113 0 -178 -139q-51 -109 -51 -325zM110 551q0 148 59 275q59 128 162 201q106 75 238 75q115 0 283 -59q241 -85 306 -114q-22 -1 -116 -22q-40 -9 -61 -25q-13 -10 -13 -35v-617q0 -26 12 -35q21 -16 61 -25q94 -21 116 -22
q-65 -29 -306 -114q-168 -59 -283 -59q-132 0 -238 75q-103 73 -162 201q-58 125 -58 300z" />
    <glyph glyph-name="aring" unicode="&#xe5;" 
d="M510 1338q0 -53 16 -83t45 -30q19 0 37 28q20 32 20 95q0 59 -20 88q-18 26 -40 26q-23 0 -40.5 -25.5t-17.5 -98.5zM403 1351q0 45 23 91q21 43 59 68q38 26 85 26q48 0 85 -25q36 -24 59 -69q22 -43 23 -98q-1 -46 -23 -89q-23 -45 -59 -69q-37 -25 -85 -25
q-43 0 -85 25q-46 28 -63 68q-19 45 -19 80v3v14zM327 542q0 -225 50 -332q65 -139 178 -139h30q83 0 160 77l10 15q15 16 15 67v617q0 51 -14 67l-10 15q-77 77 -160 77h-30q-113 0 -178 -139q-51 -109 -51 -325zM110 551q0 148 59 275q59 128 162 201q106 75 238 75
q115 0 283 -59q241 -85 306 -114q-22 -1 -116 -22q-40 -9 -61 -25q-13 -10 -13 -35v-617q0 -26 12 -35q21 -16 61 -25q94 -21 116 -22q-65 -29 -306 -114q-168 -59 -283 -59q-132 0 -238 75q-103 73 -162 201q-58 125 -58 300z" />
    <glyph glyph-name="ae" unicode="&#xe6;" horiz-adv-x="1753" 
d="M110 551q0 148 59 275q59 128 162 201q106 75 238 75q165 0 283 -59q60 -30 105 -50q18 18 39 33q101 75 223 75q116 0 219 -68q75 -41 134 -139q42 -70 47 -152q-1 -177 -159 -290q-134 -96 -317 -96q-2 0 -143 8q25 -103 67 -167q71 -108 186 -108h2q123 0 209 106
q35 43 63 118l116 -34q-4 -16 -7 -22q-84 -154 -161 -206q-125 -76 -238 -76h-3q-80 0 -147 25h-317v45q-99 -70 -216 -70q-122 0 -223 75q-100 74 -161 206q-60 130 -60 295zM328 535q0 -221 64 -330q66 -108 188 -108h3h3q102 0 155 79q27 40 29 72v9v590q0 51 -14 67
l-10 15q-77 77 -160 77h-30q-115 -4 -178 -139q-50 -107 -50 -332zM1431 743q0 113 -60 178q-52 57 -144 65h-2q-110 0 -176 -107q-50 -82 -62 -204q-7 -71 -7 -154q0 -28 4 -65q91 -2 182 -2q47 0 67 5q101 25 140 84q58 97 58 200z" />
    <glyph glyph-name="ccedilla" unicode="&#xe7;" horiz-adv-x="1088" 
d="M110 539q0 152 60 283t161 206q99 73 223 74h3q117 0 220 -74q104 -75 150 -180l14 -32l1 -2q18 -49 18 -92q0 -55 -38 -96q-37 -40 -92 -40q-54 0 -92 38.5t-38 93.5t38 93q23 23 51 33q-17 28 -47 62q-61 69 -158 78h-2q-131 0 -200 -107q-70 -109 -70 -335v-4
q0 -231 89.5 -340t186.5 -109h2q122 0 209 107q35 43 63 117l116 -33q-3 -14 -7 -23q-53 -124 -161 -206q-78 -59 -177 -72q22 -45 36 -108q8 -36 8 -90q0 -33 -11 -71q-6 -21 -15 -43q-26 -62 -77 -85q-34 -15 -65 -15q-17 0 -33 4q-53 13 -79 61q-17 31 -17 64q0 18 5 36
q16 56 64 85q27 16 60 16q24 0 51 -9l1 26v13q0 41 -13 86q-4 14 -9 27q-119 7 -208 74q-100 74 -161 206q-60 130 -60 283z" />
    <glyph glyph-name="egrave" unicode="&#xe8;" horiz-adv-x="1088" 
d="M578 1169l-20 -21l-327 183l-17 14q-31 23 -35 68q-1 10 -1 18q0 44 29 73q32 32 76 32q14 0 29 -3q38 -8 64 -37q11 -12 14 -17zM110 539q0 150 60 282q59 130 161 206q101 75 223 75q116 0 219 -68q75 -41 134 -139q42 -70 47 -152q-1 -177 -159 -290
q-134 -96 -317 -96q-2 0 -143 8q25 -103 67 -167q71 -108 186 -108h2q123 0 209 106q35 43 63 118l116 -34q-4 -16 -7 -22q-84 -154 -161 -206q-125 -76 -238 -76h-3q-137 0 -238 74t-161 206t-60 283zM766 744q0 113 -60 178q-52 57 -144 65h-2q-110 0 -176 -107
q-50 -82 -62 -204q-7 -71 -7 -154q0 -28 4 -65q91 -2 182 -2q47 0 67 5q101 25 140 84q58 97 58 200z" />
    <glyph glyph-name="eacute" unicode="&#xe9;" horiz-adv-x="1088" 
d="M538 1169l188 310q3 5 14 17q26 29 64 37q15 3 29 3q44 0 76 -32q29 -29 29 -73q0 -8 -1 -18q-4 -45 -35 -68l-17 -14l-327 -183zM110 539q0 150 60 282q59 130 161 206q101 75 223 75q116 0 219 -68q75 -41 134 -139q42 -70 47 -152q-1 -177 -159 -290
q-134 -96 -317 -96q-2 0 -143 8q25 -103 67 -167q71 -108 186 -108h2q123 0 209 106q35 43 63 118l116 -34q-4 -16 -7 -22q-84 -154 -161 -206q-125 -76 -238 -76h-3q-137 0 -238 74t-161 206t-60 283zM766 744q0 113 -60 178q-52 57 -144 65h-2q-110 0 -176 -107
q-50 -82 -62 -204q-7 -71 -7 -154q0 -28 4 -65q91 -2 182 -2q47 0 67 5q101 25 140 84q58 97 58 200z" />
    <glyph glyph-name="ecircumflex" unicode="&#xea;" horiz-adv-x="1088" 
d="M263 1169l188 310q2 3 14 17q18 23 50 33q22 7 38 7h3h2q14 0 38 -7q27 -8 50 -33q11 -12 14 -17l188 -310l-20 -21l-270 180l-275 -180zM110 539q0 150 60 282q59 130 161 206q101 75 223 75q116 0 219 -68q75 -41 134 -139q42 -70 47 -152q-1 -177 -159 -290
q-134 -96 -317 -96q-2 0 -143 8q25 -103 67 -167q71 -108 186 -108h2q123 0 209 106q35 43 63 118l116 -34q-4 -16 -7 -22q-84 -154 -161 -206q-125 -76 -238 -76h-3q-137 0 -238 74t-161 206t-60 283zM766 744q0 113 -60 178q-52 57 -144 65h-2q-110 0 -176 -107
q-50 -82 -62 -204q-7 -71 -7 -154q0 -28 4 -65q91 -2 182 -2q47 0 67 5q101 25 140 84q58 97 58 200z" />
    <glyph glyph-name="edieresis" unicode="&#xeb;" horiz-adv-x="1088" 
d="M593 1404q0 55 38 93.5t92 38.5t92 -38.5t38 -93.5t-38 -93.5t-92 -38.5t-92 38.5t-38 93.5zM256 1404q0 55 38 93.5t92 38.5t92 -38.5t38 -93.5t-38 -93.5t-92 -38.5t-92 38.5t-38 93.5zM110 539q0 150 60 282q59 130 161 206q101 75 223 75q116 0 219 -68
q75 -41 134 -139q42 -70 47 -152q-1 -177 -159 -290q-134 -96 -317 -96q-2 0 -143 8q25 -103 67 -167q71 -108 186 -108h2q123 0 209 106q35 43 63 118l116 -34q-4 -16 -7 -22q-84 -154 -161 -206q-125 -76 -238 -76h-3q-137 0 -238 74t-161 206t-60 283zM766 744
q0 113 -60 178q-52 57 -144 65h-2q-110 0 -176 -107q-50 -82 -62 -204q-7 -71 -7 -154q0 -28 4 -65q91 -2 182 -2q47 0 67 5q101 25 140 84q58 97 58 200z" />
    <glyph glyph-name="igrave" unicode="&#xec;" horiz-adv-x="658" 
d="M412 1169l-20 -21l-327 183l-17 14q-31 23 -35 68q-1 10 -1 18q0 44 29 73q32 32 76 32q14 0 29 -3q38 -8 64 -37q11 -12 14 -17zM40 962q72 32 306 114q37 13 82 26v-954l2 -9q54 -111 188 -139h-578q124 24 188 140l2 8v732q0 25 -13 35q-21 17 -67 26q-98 21 -110 21z
" />
    <glyph glyph-name="iacute" unicode="&#xed;" horiz-adv-x="658" 
d="M245 1169l188 310q3 5 14 17q26 29 64 37q15 3 29 3q44 0 76 -32q29 -29 29 -73q0 -8 -1 -18q-4 -45 -35 -68l-17 -14l-327 -183zM40 962q72 32 306 114q37 13 82 26v-954l2 -9q54 -111 188 -139h-578q124 24 188 140l2 8v732q0 25 -13 35q-21 17 -67 26q-98 21 -110 21z
" />
    <glyph glyph-name="icircumflex" unicode="&#xee;" horiz-adv-x="658" 
d="M39 1169l188 310q2 3 14 17q18 23 50 33q22 7 38 7h3h2q14 0 38 -7q27 -8 50 -33q11 -12 14 -17l188 -310l-20 -21l-270 180l-275 -180zM40 962q72 32 306 114q37 13 82 26v-954l2 -9q54 -111 188 -139h-578q124 24 188 140l2 8v732q0 25 -13 35q-21 17 -67 26
q-98 21 -110 21z" />
    <glyph glyph-name="idieresis" unicode="&#xef;" horiz-adv-x="658" 
d="M40 962q72 32 306 114q37 13 82 26v-954l2 -9q54 -111 188 -139h-578q124 24 188 140l2 8v732q0 25 -13 35q-21 17 -67 26q-98 21 -110 21zM368 1404q0 56 38 94t92 38q55 0 92 -38q38 -39 38 -94q0 -56 -38 -94t-92 -38t-92 38.5t-38 93.5zM30 1404q0 56 38 94t92 38
q55 0 92 -38q38 -39 38 -94q0 -56 -38 -94t-92 -38t-92 38.5t-38 93.5z" />
    <glyph glyph-name="eth" unicode="&#xf0;" horiz-adv-x="1108" 
d="M110 526q0 165 60 295q61 132 161 206q101 75 223 75q100 0 188 -52q-22 89 -52 158h-300l56 102h187q-12 16 -29 36q-73 85 -177 85h-2q-56 -2 -115 -29q-78 -34 -188 -154l103 237q96 51 201 51q115 0 218 -60q98 -57 180 -162l3 -4h139h8q126 7 189 76l-179 -294
q6 25 6 51q0 65 -71 65h-5h-4h-19q33 -67 53 -148q51 -202 54 -522q0 -152 -60 -282t-161 -206q-100 -75 -223 -75q-117 0 -223 75q-102 72 -162 201q-59 127 -59 275zM328 542q0 -223 50 -332q64 -139 185 -139q108 0 171 157q52 130 54 306v4q0 208 -80 336
q-66 106 -155 106h-3q-95 0 -158 -108q-64 -109 -64 -330z" />
    <glyph glyph-name="ntilde" unicode="&#xf1;" horiz-adv-x="1288" 
d="M338 1286q59 250 185 250q13 0 30 -4q38 -9 130 -71l87 -61q26 -22 58 -22h3q61 0 145 110q-54 -257 -182 -269q-12 -1 -24 2q-40 10 -131 74l-86 58q-28 20 -62 21h-1q-64 0 -152 -88zM40 0q124 24 188 140l2 8v732q0 25 -13 35q-20 16 -61 25q-91 20 -116 22
q34 15 306 114q42 15 82 26v-77l3 2q100 75 223 75q121 0 223 -75q101 -74 161 -206t60 -283v-6v-335q0 -25 13 -35q20 -16 61 -25q91 -20 116 -22q-56 -25 -306 -114q-42 -15 -82 -26v559v4q0 228 -87 338q-82 104 -197 104h-4q-127 0 -184 -92v-740l2 -9q54 -111 188 -139
h-578z" />
    <glyph glyph-name="ograve" unicode="&#xf2;" horiz-adv-x="1108" 
d="M578 1169l-20 -21l-327 183l-17 14q-31 23 -35 68q-1 10 -1 18q0 44 29 73q32 32 76 32q14 0 29 -3q38 -8 64 -37q11 -12 14 -17zM328 542q0 -223 50 -332q64 -139 185 -139q108 0 171 157q52 130 54 306v4q0 208 -80 336q-66 106 -155 106h-3q-95 0 -158 -108
q-64 -109 -64 -330zM110 526q0 165 60 295q61 132 161 206q101 75 223 75q121 0 223 -75q101 -74 161 -206t60 -283q0 -152 -60 -282t-161 -206q-100 -75 -223 -75q-117 0 -223 75q-102 72 -162 201q-59 127 -59 275z" />
    <glyph glyph-name="oacute" unicode="&#xf3;" horiz-adv-x="1108" 
d="M538 1169l188 310q3 5 14 17q26 29 64 37q15 3 29 3q44 0 76 -32q29 -29 29 -73q0 -8 -1 -18q-4 -45 -35 -68l-17 -14l-327 -183zM328 542q0 -223 50 -332q64 -139 185 -139q108 0 171 157q52 130 54 306v4q0 208 -80 336q-66 106 -155 106h-3q-95 0 -158 -108
q-64 -109 -64 -330zM110 526q0 165 60 295q61 132 161 206q101 75 223 75q121 0 223 -75q101 -74 161 -206t60 -283q0 -152 -60 -282t-161 -206q-100 -75 -223 -75q-117 0 -223 75q-102 72 -162 201q-59 127 -59 275z" />
    <glyph glyph-name="ocircumflex" unicode="&#xf4;" horiz-adv-x="1108" 
d="M263 1169l188 310q2 3 14 17q18 23 50 33q22 7 38 7h3h2q14 0 38 -7q27 -8 50 -33q11 -12 14 -17l188 -310l-20 -21l-270 180l-275 -180zM328 542q0 -223 50 -332q64 -139 185 -139q108 0 171 157q52 130 54 306v4q0 208 -80 336q-66 106 -155 106h-3q-95 0 -158 -108
q-64 -109 -64 -330zM110 526q0 165 60 295q61 132 161 206q101 75 223 75q121 0 223 -75q101 -74 161 -206t60 -283q0 -152 -60 -282t-161 -206q-100 -75 -223 -75q-117 0 -223 75q-102 72 -162 201q-59 127 -59 275z" />
    <glyph glyph-name="otilde" unicode="&#xf5;" horiz-adv-x="1108" 
d="M253 1286q59 250 185 250q13 0 30 -4q38 -9 130 -71l87 -61q26 -22 58 -22h3q61 0 145 110q-54 -257 -182 -269q-12 -1 -24 2q-40 10 -131 74l-86 58q-28 20 -62 21h-1q-64 0 -152 -88zM328 542q0 -223 50 -332q64 -139 185 -139q108 0 171 157q52 130 54 306v4
q0 208 -80 336q-66 106 -155 106h-3q-95 0 -158 -108q-64 -109 -64 -330zM110 526q0 165 60 295q61 132 161 206q101 75 223 75q121 0 223 -75q101 -74 161 -206t60 -283q0 -152 -60 -282t-161 -206q-100 -75 -223 -75q-117 0 -223 75q-102 72 -162 201q-59 127 -59 275z
" />
    <glyph glyph-name="odieresis" unicode="&#xf6;" horiz-adv-x="1108" 
d="M597 1404q0 55 38 93.5t92 38.5t92 -38.5t38 -93.5t-38 -93.5t-92 -38.5t-92 38.5t-38 93.5zM260 1404q0 55 38 93.5t92 38.5t92 -38.5t38 -93.5t-38 -93.5t-92 -38.5t-92 38.5t-38 93.5zM328 542q0 -223 50 -332q64 -139 185 -139q108 0 171 157q52 130 54 306v4
q0 208 -80 336q-66 106 -155 106h-3q-95 0 -158 -108q-64 -109 -64 -330zM110 526q0 165 60 295q61 132 161 206q101 75 223 75q121 0 223 -75q101 -74 161 -206t60 -283q0 -152 -60 -282t-161 -206q-100 -75 -223 -75q-117 0 -223 75q-102 72 -162 201q-59 127 -59 275z
" />
    <glyph glyph-name="divide" unicode="&#xf7;" horiz-adv-x="1233" 
d="M200 798h833v-197h-833v197zM488 406q0 55 38 93.5t92 38.5t92 -38.5t38 -93.5t-38 -93.5t-92 -38.5t-92 38.5t-38 93.5zM486 985q0 55 38 93.5t92 38.5t92 -38.5t38 -93.5t-38 -93.5t-92 -38.5t-92 38.5t-38 93.5z" />
    <glyph glyph-name="oslash" unicode="&#xf8;" horiz-adv-x="1108" 
d="M110 526q0 165 60 295q61 132 161 206q101 75 223 75q82 0 156 -35l55 123l137 -64l-67 -149q61 -64 103 -156q60 -132 60 -283q0 -152 -60 -282t-161 -206q-100 -75 -223 -75q-80 0 -154 35l-58 -128l-134 70l66 146q-63 63 -105 153q-59 127 -59 275zM750 788
l-304 -674q50 -43 117 -43q108 0 171 157q52 130 54 306v4q0 144 -38 250zM653 941q-46 39 -100 39h-3q-95 0 -158 -108q-64 -109 -64 -330q0 -162 27 -264z" />
    <glyph glyph-name="ugrave" unicode="&#xf9;" horiz-adv-x="1288" 
d="M578 1169l-20 -21l-327 183l-17 14q-31 23 -35 68q-1 10 -1 18q0 44 29 73q32 32 76 32q14 0 29 -3q38 -8 64 -37q11 -12 14 -17zM1248 1077q-124 -24 -188 -140l-2 -8v-732q0 -25 13 -35q20 -16 61 -25q91 -20 116 -22q-56 -25 -306 -114q-42 -15 -82 -26v77l-3 -2
q-100 -75 -223 -75q-121 0 -223 75q-101 74 -161 206t-60 283v6v335q0 25 -13 35q-21 16 -61 25q-88 20 -116 22q56 25 306 114q42 15 82 26v-559v-4q0 -228 87 -338q82 -104 197 -104h4q127 0 184 92v740l-2 9q-54 111 -188 139h578z" />
    <glyph glyph-name="uacute" unicode="&#xfa;" horiz-adv-x="1288" 
d="M538 1169l188 310q3 5 14 17q26 29 64 37q15 3 29 3q44 0 76 -32q29 -29 29 -73q0 -8 -1 -18q-4 -45 -35 -68l-17 -14l-327 -183zM1248 1077q-124 -24 -188 -140l-2 -8v-732q0 -25 13 -35q20 -16 61 -25q91 -20 116 -22q-56 -25 -306 -114q-42 -15 -82 -26v77l-3 -2
q-100 -75 -223 -75q-121 0 -223 75q-101 74 -161 206t-60 283v6v335q0 25 -13 35q-21 16 -61 25q-88 20 -116 22q56 25 306 114q42 15 82 26v-559v-4q0 -228 87 -338q82 -104 197 -104h4q127 0 184 92v740l-2 9q-54 111 -188 139h578z" />
    <glyph glyph-name="ucircumflex" unicode="&#xfb;" horiz-adv-x="1288" 
d="M339 1169l188 310q2 3 14 17q18 23 50 33q22 7 38 7h3h2q14 0 38 -7q27 -8 50 -33q11 -12 14 -17l188 -310l-20 -21l-270 180l-275 -180zM1248 1077q-124 -24 -188 -140l-2 -8v-732q0 -25 13 -35q20 -16 61 -25q91 -20 116 -22q-56 -25 -306 -114q-42 -15 -82 -26v77
l-3 -2q-100 -75 -223 -75q-121 0 -223 75q-101 74 -161 206t-60 283v6v335q0 25 -13 35q-21 16 -61 25q-88 20 -116 22q56 25 306 114q42 15 82 26v-559v-4q0 -228 87 -338q82 -104 197 -104h4q127 0 184 92v740l-2 9q-54 111 -188 139h578z" />
    <glyph glyph-name="udieresis" unicode="&#xfc;" horiz-adv-x="1288" 
d="M662 1404q0 55 38 93.5t92 38.5t92 -38.5t38 -93.5t-38 -93.5t-92 -38.5t-92 38.5t-38 93.5zM325 1404q0 55 38 93.5t92 38.5t92 -38.5t38 -93.5t-38 -93.5t-92 -38.5t-92 38.5t-38 93.5zM1248 1077q-124 -24 -188 -140l-2 -8v-732q0 -25 13 -35q20 -16 61 -25
q91 -20 116 -22q-56 -25 -306 -114q-42 -15 -82 -26v77l-3 -2q-100 -75 -223 -75q-121 0 -223 75q-101 74 -161 206t-60 283v6v335q0 25 -13 35q-21 16 -61 25q-88 20 -116 22q56 25 306 114q42 15 82 26v-559v-4q0 -228 87 -338q82 -104 197 -104h4q127 0 184 92v740l-2 9
q-54 111 -188 139h578z" />
    <glyph glyph-name="yacute" unicode="&#xfd;" horiz-adv-x="1140" 
d="M-40 1077h578q-191 -85 -191 -131q0 -4 2 -8l3 -9l250 -675l269 675l3 10q2 7 2 11q-5 60 -191 127h495q-123 -24 -187 -140l-3 -8l-468 -1169l-12 -30q-68 -152 -210 -163h-13h-12q-118 0 -214 97q-41 48 -41 95q0 57 36 93q38 38 93 38q54 0 93 -42t39 -96
q0 -46 -34 -82q28 -12 52 -12q39 1 67 30l24 32q63 154 102 262l-342 947l-1 3l-3 9q-64 112 -186 136zM538 1169l188 310q3 5 14 17q26 29 64 37q15 3 29 3q44 0 76 -32q29 -29 29 -73q0 -8 -1 -18q-4 -45 -35 -68l-17 -14l-327 -183z" />
    <glyph glyph-name="thorn" unicode="&#xfe;" 
d="M40 -433q124 24 188 140l2 8v1599q0 25 -13 35q-19 16 -63 25q-105 21 -114 22q18 8 306 114q38 14 82 26v-467q117 33 208 33h8q117 0 223 -75q102 -72 162 -201q59 -127 59 -275q0 -165 -60 -295q-61 -132 -161 -206q-101 -75 -223 -75q-117 0 -216 70v-330l2 -9
q54 -111 188 -139h-578zM870 535q0 225 -50 332q-65 139 -193 139q-97 0 -175 -77l-10 -15q-14 -16 -14 -67v-590v-9q2 -32 29 -72q53 -79 158 -79h3q122 0 188 108q64 109 64 330z" />
    <glyph glyph-name="ydieresis" unicode="&#xff;" horiz-adv-x="1140" 
d="M-40 1077h578q-191 -85 -191 -131q0 -4 2 -8l3 -9l250 -675l269 675l3 10q2 7 2 11q-5 60 -191 127h495q-123 -24 -187 -140l-3 -8l-468 -1169l-12 -30q-68 -152 -210 -163h-13h-12q-118 0 -214 97q-41 48 -41 95q0 57 36 93q38 38 93 38q54 0 93 -42t39 -96
q0 -46 -34 -82q28 -12 52 -12q39 1 67 30l24 32q63 154 102 262l-342 947l-1 3l-3 9q-64 112 -186 136zM652 1404q0 55 38 93.5t92 38.5t92 -38.5t38 -93.5t-38 -93.5t-92 -38.5t-92 38.5t-38 93.5zM315 1404q0 55 38 93.5t92 38.5t92 -38.5t38 -93.5t-38 -93.5t-92 -38.5
t-92 38.5t-38 93.5z" />
    <glyph glyph-name="Amacron" unicode="&#x100;" horiz-adv-x="1320" 
d="M351 1950h583v-177h-583v177zM-70 0q123 24 187 140l3 8l535 1403l545 -1403l1 -3l3 -9q64 -112 186 -136h-578q191 56 191 124q0 7 -2 15l-3 9l-153 392h-461l-147 -392l-3 -10q-2 -6 -2 -13q0 -61 191 -125h-493zM422 642h384l-194 528z" />
    <glyph glyph-name="amacron" unicode="&#x101;" 
d="M282 1511h583v-177h-583v177zM327 542q0 -225 50 -332q65 -139 178 -139h30q83 0 160 77l10 15q15 16 15 67v617q0 51 -14 67l-10 15q-77 77 -160 77h-30q-113 0 -178 -139q-51 -109 -51 -325zM110 551q0 148 59 275q59 128 162 201q106 75 238 75q115 0 283 -59
q241 -85 306 -114q-22 -1 -116 -22q-40 -9 -61 -25q-13 -10 -13 -35v-617q0 -26 12 -35q21 -16 61 -25q94 -21 116 -22q-65 -29 -306 -114q-168 -59 -283 -59q-132 0 -238 75q-103 73 -162 201q-58 125 -58 300z" />
    <glyph glyph-name="Abreve" unicode="&#x102;" horiz-adv-x="1320" 
d="M328 1833l114 117q34 -29 40 -35q79 -61 191 -61q92 0 159 60l33 33l133 -102q-57 -60 -127 -102q-100 -60 -213 -60t-217 63q-68 41 -113 87zM-70 0q123 24 187 140l3 8l535 1403l545 -1403l1 -3l3 -9q64 -112 186 -136h-578q191 56 191 124q0 7 -2 15l-3 9l-153 392
h-461l-147 -392l-3 -10q-2 -6 -2 -13q0 -61 191 -125h-493zM422 642h384l-194 528z" />
    <glyph glyph-name="abreve" unicode="&#x103;" 
d="M224 1419l114 117q34 -29 40 -35q79 -61 191 -61q92 0 159 60l33 33l133 -102q-57 -60 -127 -102q-100 -60 -213 -60t-217 63q-68 41 -113 87zM327 542q0 -225 50 -332q65 -139 178 -139h30q83 0 160 77l10 15q15 16 15 67v617q0 51 -14 67l-10 15q-77 77 -160 77h-30
q-113 0 -178 -139q-51 -109 -51 -325zM110 551q0 148 59 275q59 128 162 201q106 75 238 75q115 0 283 -59q241 -85 306 -114q-22 -1 -116 -22q-40 -9 -61 -25q-13 -10 -13 -35v-617q0 -26 12 -35q21 -16 61 -25q94 -21 116 -22q-65 -29 -306 -114q-168 -59 -283 -59
q-132 0 -238 75q-103 73 -162 201q-58 125 -58 300z" />
    <glyph glyph-name="Aogonek" unicode="&#x104;" horiz-adv-x="1320" 
d="M422 642h384l-194 528zM-70 0q123 24 187 140l3 8l535 1403l545 -1403l1 -3l3 -9q64 -112 186 -136h-264q-11 -23 -19 -51q-13 -45 -13 -86v-13l1 -26q27 9 51 9q33 0 60 -16q48 -29 64 -85q5 -18 5 -36q0 -33 -17 -64q-26 -48 -79 -61q-16 -4 -33 -4q-31 0 -65 15
q-52 23 -77 85q-9 22 -15 43q-11 38 -11 71q0 53 8 90q17 78 48 129h-222q191 56 191 124q0 7 -2 15l-3 9l-153 392h-461l-147 -392l-3 -10q-2 -6 -2 -13q0 -61 191 -125h-493z" />
    <glyph glyph-name="aogonek" unicode="&#x105;" 
d="M110 551q0 148 59 275q59 128 162 201q106 75 238 75q115 0 283 -59q241 -85 306 -114q-22 -1 -116 -22q-40 -9 -61 -25q-13 -10 -13 -35v-617q0 -26 12 -35q21 -16 61 -25q94 -21 116 -22q-23 -10 -69 -28q-54 -46 -88 -171q-13 -48 -13 -86v-13l1 -26q27 9 51 9
q33 0 60 -16q48 -29 64 -85q5 -18 5 -36q0 -33 -17 -64q-26 -48 -79 -61q-16 -4 -33 -4q-31 0 -65 15q-52 23 -77 85q-9 22 -15 43q-11 38 -11 71q0 51 8 90q27 132 69 198l-97 -35q-168 -59 -283 -59q-132 0 -238 75q-103 73 -162 201q-58 125 -58 300zM327 542
q0 -225 50 -332q65 -139 178 -139h30q83 0 160 77l10 15q15 16 15 67v617q0 51 -14 67l-10 15q-77 77 -160 77h-30q-113 0 -178 -139q-51 -109 -51 -325z" />
    <glyph glyph-name="Cacute" unicode="&#x106;" horiz-adv-x="1366" 
d="M673 1583l188 310q3 5 14 17q26 29 64 37q15 3 29 3q44 0 76 -32q29 -29 29 -73q0 -8 -1 -18q-4 -45 -35 -68l-17 -14l-327 -183zM130 744q0 164 44 316q45 156 120 254q78 103 180 162q103 60 208 60h10q116 0 215 -52q68 -36 108 -73l8 -1q100 8 132 127v-578
q-52 204 -122 320q-34 53 -87 92q-82 60 -194 60q-129 0 -238 -86q-79 -91 -126 -261q-46 -167 -46 -325v-13q0 -156 32 -284q74 -220 178 -306q85 -70 219 -70q23 0 47 2q74 6 166 64q51 31 114 110q40 50 66 132l102 -40q-38 -87 -88 -154q-77 -102 -180 -161
q-113 -64 -259 -64h-5q-153 0 -258 60q-106 61 -182 162q-75 100 -120 243q-44 140 -44 304z" />
    <glyph glyph-name="cacute" unicode="&#x107;" horiz-adv-x="1088" 
d="M538 1169l188 310q3 5 14 17q26 29 64 37q15 3 29 3q44 0 76 -32q29 -29 29 -73q0 -8 -1 -18q-4 -45 -35 -68l-17 -14l-327 -183zM110 539q0 152 60 283t161 206q99 73 223 74h3q117 0 220 -74q104 -75 150 -180l14 -32l1 -2q18 -49 18 -92q0 -55 -38 -96
q-37 -40 -92 -40q-54 0 -92 38.5t-38 93.5t38 93q23 23 51 33q-17 28 -47 62q-61 69 -158 78h-2q-131 0 -200 -107q-70 -109 -70 -335v-4q0 -231 89.5 -340t186.5 -109h2q122 0 209 107q35 43 63 117l116 -33q-3 -13 -7 -23q-53 -125 -161 -206q-101 -76 -238 -76h-3
q-138 0 -238 74.5t-161 206.5q-60 130 -60 283z" />
    <glyph glyph-name="Ccircumflex" unicode="&#x108;" horiz-adv-x="1366" 
d="M407 1583l188 310q2 3 14 17q18 23 50 33q22 7 38 7h3h2q14 0 38 -7q27 -8 50 -33q11 -12 14 -17l188 -310l-20 -21l-270 180l-275 -180zM130 744q0 164 44 316q45 156 120 254q78 103 180 162q103 60 208 60h10q116 0 215 -52q68 -36 108 -73l8 -1q100 8 132 127v-578
q-52 204 -122 320q-34 53 -87 92q-82 60 -194 60q-129 0 -238 -86q-79 -91 -126 -261q-46 -167 -46 -325v-13q0 -156 32 -284q74 -220 178 -306q85 -70 219 -70q23 0 47 2q74 6 166 64q51 31 114 110q40 50 66 132l102 -40q-38 -87 -88 -154q-77 -102 -180 -161
q-113 -64 -259 -64h-5q-153 0 -258 60q-106 61 -182 162q-75 100 -120 243q-44 140 -44 304z" />
    <glyph glyph-name="ccircumflex" unicode="&#x109;" horiz-adv-x="1088" 
d="M263 1169l188 310q2 3 14 17q18 23 50 33q22 7 38 7h3h2q14 0 38 -7q27 -8 50 -33q11 -12 14 -17l188 -310l-20 -21l-270 180l-275 -180zM110 539q0 152 60 283t161 206q99 73 223 74h3q117 0 220 -74q104 -75 150 -180l14 -32l1 -2q18 -49 18 -92q0 -55 -38 -96
q-37 -40 -92 -40q-54 0 -92 38.5t-38 93.5t38 93q23 23 51 33q-17 28 -47 62q-61 69 -158 78h-2q-131 0 -200 -107q-70 -109 -70 -335v-4q0 -231 89.5 -340t186.5 -109h2q122 0 209 107q35 43 63 117l116 -33q-3 -13 -7 -23q-53 -125 -161 -206q-101 -76 -238 -76h-3
q-138 0 -238 74.5t-161 206.5q-60 130 -60 283z" />
    <glyph glyph-name="Cdotaccent" unicode="&#x10a;" horiz-adv-x="1366" 
d="M560 1804q0 55 38 93.5t92 38.5t92 -38.5t38 -93.5t-38 -93.5t-92 -38.5t-92 38.5t-38 93.5zM130 744q0 164 44 316q45 156 120 254q78 103 180 162q103 60 208 60h10q116 0 215 -52q68 -36 108 -73l8 -1q100 8 132 127v-578q-52 204 -122 320q-34 53 -87 92
q-82 60 -194 60q-129 0 -238 -86q-79 -91 -126 -261q-46 -167 -46 -325v-13q0 -156 32 -284q74 -220 178 -306q85 -70 219 -70q23 0 47 2q74 6 166 64q51 31 114 110q40 50 66 132l102 -40q-38 -87 -88 -154q-77 -102 -180 -161q-113 -64 -259 -64h-5q-153 0 -258 60
q-106 61 -182 162q-75 100 -120 243q-44 140 -44 304z" />
    <glyph glyph-name="cdotaccent" unicode="&#x10b;" horiz-adv-x="1088" 
d="M432 1404q0 55 38 93.5t92 38.5t92 -38.5t38 -93.5t-38 -93.5t-92 -38.5t-92 38.5t-38 93.5zM110 539q0 152 60 283t161 206q99 73 223 74h3q117 0 220 -74q104 -75 150 -180l14 -32l1 -2q18 -49 18 -92q0 -55 -38 -96q-37 -40 -92 -40q-54 0 -92 38.5t-38 93.5t38 93
q23 23 51 33q-17 28 -47 62q-61 69 -158 78h-2q-131 0 -200 -107q-70 -109 -70 -335v-4q0 -231 89.5 -340t186.5 -109h2q122 0 209 107q35 43 63 117l116 -33q-3 -13 -7 -23q-53 -125 -161 -206q-101 -76 -238 -76h-3q-138 0 -238 74.5t-161 206.5q-60 130 -60 283z" />
    <glyph glyph-name="Ccaron" unicode="&#x10c;" horiz-adv-x="1366" 
d="M397 1929l20 21l275 -180l270 180l20 -21l-188 -310q-3 -5 -14 -17q-23 -25 -50 -33q-24 -7 -38 -7h-2h-3q-16 0 -38 7q-32 10 -50 33q-12 14 -14 17zM130 744q0 164 44 316q45 156 120 254q78 103 180 162q103 60 208 60h10q116 0 215 -52q68 -36 108 -73l8 -1
q100 8 132 127v-578q-52 204 -122 320q-34 53 -87 92q-82 60 -194 60q-129 0 -238 -86q-79 -91 -126 -261q-46 -167 -46 -325v-13q0 -156 32 -284q74 -220 178 -306q85 -70 219 -70q23 0 47 2q74 6 166 64q51 31 114 110q40 50 66 132l102 -40q-38 -87 -88 -154
q-77 -102 -180 -161q-113 -64 -259 -64h-5q-153 0 -258 60q-106 61 -182 162q-75 100 -120 243q-44 140 -44 304z" />
    <glyph glyph-name="ccaron" unicode="&#x10d;" horiz-adv-x="1088" 
d="M263 1515l20 21l275 -180l270 180l20 -21l-188 -310q-3 -5 -14 -17q-23 -25 -50 -33q-24 -7 -38 -7h-2h-3q-16 0 -38 7q-32 10 -50 33q-12 14 -14 17zM110 539q0 152 60 283t161 206q99 73 223 74h3q117 0 220 -74q104 -75 150 -180l14 -32l1 -2q18 -49 18 -92
q0 -55 -38 -96q-37 -40 -92 -40q-54 0 -92 38.5t-38 93.5t38 93q23 23 51 33q-17 28 -47 62q-61 69 -158 78h-2q-131 0 -200 -107q-70 -109 -70 -335v-4q0 -231 89.5 -340t186.5 -109h2q122 0 209 107q35 43 63 117l116 -33q-3 -13 -7 -23q-53 -125 -161 -206
q-101 -76 -238 -76h-3q-138 0 -238 74.5t-161 206.5q-60 130 -60 283z" />
    <glyph glyph-name="Dcaron" unicode="&#x10e;" horiz-adv-x="1504" 
d="M397 1929l20 21l275 -180l270 180l20 -21l-188 -310q-3 -5 -14 -17q-23 -25 -50 -33q-24 -7 -38 -7h-2h-3q-16 0 -38 7q-32 10 -50 33q-12 14 -14 17zM549 1419q-49 -18 -73 -46q-26 -30 -28 -92v-1051q0 -44 14 -67q19 -31 48 -48q74 -37 199 -37h7q116 0 232 106
q104 112 156 246q50 129 50 300v26q0 190 -39 311q-65 176 -173 267q-96 81 -231 97q-26 3 -55 3q-55 -1 -107 -15zM60 148q16 1 116 22q41 9 61 25q13 10 13 35v1051q0 23 -16 38q-21 20 -50 25q-104 17 -124 19l344 131q121 42 278 42h28q115 0 246 -63q123 -60 223 -171
q85 -94 140 -244t55 -314t-56 -306q-55 -141 -139 -237q-85 -98 -220 -163q-131 -63 -271 -63q-155 0 -308 57q-238 89 -320 116z" />
    <glyph glyph-name="dcaron" unicode="&#x10f;" horiz-adv-x="1419" 
d="M1019 1169l188 310q3 5 14 17q26 29 64 37q15 3 29 3q44 0 76 -32q29 -29 29 -73q0 -8 -1 -18q-4 -45 -35 -68l-17 -14l-327 -183zM328 543q0 -225 50 -332q65 -139 193 -139q97 0 175 77l10 15q14 18 14 67v599q-2 32 -29 72q-53 79 -158 79h-3q-123 -1 -188 -108
q-64 -109 -64 -330zM110 527q0 165 60 295q61 132 161 206q101 75 223 75q117 0 216 -70v281q0 22 -13 35q-12 12 -66 23q-55 12 -111 24q63 28 306 114q31 11 82 26v-1305q1 -24 13 -35q16 -14 61 -25q82 -20 116 -22q-61 -28 -306 -114q-168 -59 -290 -59h-8
q-117 0 -223 75q-102 72 -162 201q-59 127 -59 275z" />
    <glyph glyph-name="Dcroat" unicode="&#x110;" horiz-adv-x="1504" 
d="M60 148q16 1 116 22q41 9 61 25q13 10 13 35v470h-47h-8q-126 -7 -189 -76l179 294q-6 -25 -6 -51q0 -65 71 -65v479q0 23 -16 38q-21 20 -50 25q-104 17 -124 19l344 131q121 42 278 42h28q115 0 246 -63q123 -60 223 -171q85 -94 140 -244t55 -314q0 -163 -56 -306
q-55 -141 -139 -237q-86 -98 -220 -163q-131 -63 -271 -63q-155 0 -308 57q-246 92 -320 116zM549 1419q-49 -18 -73 -46q-26 -30 -28 -92v-479h183h8q126 7 189 76l-179 -294q6 25 6 51q0 65 -71 65h-5h-4h-127v-470q0 -44 14 -67q19 -31 48 -48q74 -37 199 -37h7
q116 0 232 106q104 112 156 246q50 129 50 300v26q0 190 -39 311q-65 176 -173 267q-96 81 -231 97q-26 3 -55 3q-55 -1 -107 -15z" />
    <glyph glyph-name="dcroat" unicode="&#x111;" 
d="M110 527q0 165 60 295q61 132 161 206q101 75 223 75q117 0 216 -70v151h-211h-8q-126 -7 -189 -76l179 294q-6 -25 -6 -51q0 -65 71 -65h5h4h155v28q0 22 -13 35q-12 12 -66 23l-111 24q62 27 306 114q31 11 82 26v-250h19h8q126 7 189 76l-179 -294q6 25 6 51
q0 51 -43 62v-950q1 -24 13 -35q16 -14 61 -25q82 -20 116 -22q-61 -28 -306 -114q-168 -59 -290 -59h-8q-117 0 -223 75q-102 72 -162 201q-59 127 -59 275zM328 543q0 -225 50 -332q65 -139 193 -139q97 0 175 77l10 15q14 18 14 67v599q-2 32 -29 72q-53 79 -158 79h-3
q-123 -1 -188 -108q-64 -109 -64 -330z" />
    <glyph glyph-name="Emacron" unicode="&#x112;" horiz-adv-x="1322" 
d="M399 1950h583v-177h-583v177zM60 0q124 24 188 140l2 8v1215l-2 8q-64 116 -188 140h946l186 -322q-206 212 -277 219l-14 1h-453v-767h313l14 1q71 7 277 219l-289 -501q9 33 9 61q0 74 -60 115l-7 3h-257v-438h583l14 1q71 7 277 219l-186 -322h-1076z" />
    <glyph glyph-name="emacron" unicode="&#x113;" horiz-adv-x="1088" 
d="M282 1511h583v-177h-583v177zM110 539q0 150 60 282q59 130 161 206q101 75 223 75q116 0 219 -68q75 -41 134 -139q42 -70 47 -152q-1 -177 -159 -290q-134 -96 -317 -96q-2 0 -143 8q25 -103 67 -167q71 -108 186 -108h2q123 0 209 106q35 43 63 118l116 -34
q-4 -16 -7 -22q-84 -154 -161 -206q-125 -76 -238 -76h-3q-137 0 -238 74t-161 206t-60 283zM766 744q0 113 -60 178q-52 57 -144 65h-2q-110 0 -176 -107q-50 -82 -62 -204q-7 -71 -7 -154q0 -28 4 -65q91 -2 182 -2q47 0 67 5q101 25 140 84q58 97 58 200z" />
    <glyph glyph-name="Ebreve" unicode="&#x114;" horiz-adv-x="1322" 
d="M363 1833l114 117q34 -29 40 -35q79 -61 191 -61q92 0 159 60l33 33l133 -102q-57 -60 -127 -102q-100 -60 -213 -60t-217 63q-68 41 -113 87zM60 0q124 24 188 140l2 8v1215l-2 8q-64 116 -188 140h946l186 -322q-206 212 -277 219l-14 1h-453v-767h313l14 1
q71 7 277 219l-289 -501q9 33 9 61q0 74 -60 115l-7 3h-257v-438h583l14 1q71 7 277 219l-186 -322h-1076z" />
    <glyph glyph-name="ebreve" unicode="&#x115;" horiz-adv-x="1088" 
d="M224 1419l114 117q34 -29 40 -35q79 -61 191 -61q92 0 159 60l33 33l133 -102q-57 -60 -127 -102q-100 -60 -213 -60t-217 63q-68 41 -113 87zM110 539q0 150 60 282q59 130 161 206q101 75 223 75q116 0 219 -68q75 -41 134 -139q42 -70 47 -152q-1 -177 -159 -290
q-134 -96 -317 -96q-2 0 -143 8q25 -103 67 -167q71 -108 186 -108h2q123 0 209 106q35 43 63 118l116 -34q-4 -16 -7 -22q-84 -154 -161 -206q-125 -76 -238 -76h-3q-137 0 -238 74t-161 206t-60 283zM766 744q0 113 -60 178q-52 57 -144 65h-2q-110 0 -176 -107
q-50 -82 -62 -204q-7 -71 -7 -154q0 -28 4 -65q91 -2 182 -2q47 0 67 5q101 25 140 84q58 97 58 200z" />
    <glyph glyph-name="Edotaccent" unicode="&#x116;" horiz-adv-x="1322" 
d="M560 1804q0 55 38 93.5t92 38.5t92 -38.5t38 -93.5t-38 -93.5t-92 -38.5t-92 38.5t-38 93.5zM60 0q124 24 188 140l2 8v1215l-2 8q-64 116 -188 140h946l186 -322q-206 212 -277 219l-14 1h-453v-767h313l14 1q71 7 277 219l-289 -501q9 33 9 61q0 74 -60 115l-7 3h-257
v-438h583l14 1q71 7 277 219l-186 -322h-1076z" />
    <glyph glyph-name="edotaccent" unicode="&#x117;" horiz-adv-x="1088" 
d="M432 1404q0 55 38 93.5t92 38.5t92 -38.5t38 -93.5t-38 -93.5t-92 -38.5t-92 38.5t-38 93.5zM110 539q0 150 60 282q59 130 161 206q101 75 223 75q116 0 219 -68q75 -41 134 -139q42 -70 47 -152q-1 -177 -159 -290q-134 -96 -317 -96q-2 0 -143 8q25 -103 67 -167
q71 -108 186 -108h2q123 0 209 106q35 43 63 118l116 -34q-4 -16 -7 -22q-84 -154 -161 -206q-125 -76 -238 -76h-3q-137 0 -238 74t-161 206t-60 283zM766 744q0 113 -60 178q-52 57 -144 65h-2q-110 0 -176 -107q-50 -82 -62 -204q-7 -71 -7 -154q0 -28 4 -65
q91 -2 182 -2q47 0 67 5q101 25 140 84q58 97 58 200z" />
    <glyph glyph-name="Eogonek" unicode="&#x118;" horiz-adv-x="1322" 
d="M60 0q124 24 188 140l2 8v1215l-2 8q-64 116 -188 140h946l186 -322q-206 212 -277 219l-14 1h-453v-767h313l14 1q71 7 277 219l-289 -501q9 33 9 61q0 74 -60 115l-7 3h-257v-438h583l14 1q71 7 277 219l-186 -322h-91q-11 -23 -19 -51q-13 -45 -13 -86v-13l1 -26
q27 9 51 9q33 0 60 -16q48 -29 64 -85q5 -18 5 -36q0 -33 -17 -64q-26 -48 -79 -61q-16 -4 -33 -4q-31 0 -65 15q-52 23 -77 85q-9 22 -15 43q-11 38 -11 71q0 53 8 90q17 78 48 129h-893z" />
    <glyph glyph-name="eogonek" unicode="&#x119;" horiz-adv-x="1088" 
d="M766 744q0 113 -60 178q-52 57 -144 65h-2q-110 0 -176 -107q-50 -82 -62 -204q-7 -71 -7 -154q0 -28 4 -65q91 -2 182 -2q47 0 67 5q101 25 140 84q58 97 58 200zM110 539q0 150 60 282q59 130 161 206q101 75 223 75q116 0 219 -68q75 -41 134 -139q42 -70 47 -152
q-1 -177 -159 -290q-134 -96 -317 -96q-2 0 -143 8q25 -103 67 -167q71 -108 186 -108h2q123 0 209 106q35 43 63 118l116 -34q-4 -17 -7 -22q-83 -151 -158 -204q-22 -43 -39 -105q-13 -47 -13 -86v-13l1 -26q27 9 51 9q33 0 60 -16q48 -29 64 -85q5 -18 5 -36
q0 -33 -17 -64q-26 -48 -79 -61q-16 -4 -33 -4q-31 0 -65 15q-52 23 -77 85q-9 22 -15 43q-11 38 -11 71q0 52 8 90q15 72 34 124q-59 -19 -115 -19h-3q-137 0 -238 74t-161 206t-60 283z" />
    <glyph glyph-name="Ecaron" unicode="&#x11a;" horiz-adv-x="1322" 
d="M397 1929l20 21l275 -180l270 180l20 -21l-188 -310q-3 -5 -14 -17q-23 -25 -50 -33q-24 -7 -38 -7h-2h-3q-16 0 -38 7q-32 10 -50 33q-12 14 -14 17zM60 0q124 24 188 140l2 8v1215l-2 8q-64 116 -188 140h946l186 -322q-206 212 -277 219l-14 1h-453v-767h313l14 1
q71 7 277 219l-289 -501q9 33 9 61q0 74 -60 115l-7 3h-257v-438h583l14 1q71 7 277 219l-186 -322h-1076z" />
    <glyph glyph-name="ecaron" unicode="&#x11b;" horiz-adv-x="1088" 
d="M263 1515l20 21l275 -180l270 180l20 -21l-188 -310q-3 -5 -14 -17q-23 -25 -50 -33q-24 -7 -38 -7h-2h-3q-16 0 -38 7q-32 10 -50 33q-12 14 -14 17zM110 539q0 150 60 282q59 130 161 206q101 75 223 75q116 0 219 -68q75 -41 134 -139q42 -70 47 -152
q-1 -177 -159 -290q-134 -96 -317 -96q-2 0 -143 8q25 -103 67 -167q71 -108 186 -108h2q123 0 209 106q35 43 63 118l116 -34q-4 -16 -7 -22q-84 -154 -161 -206q-125 -76 -238 -76h-3q-137 0 -238 74t-161 206t-60 283zM766 744q0 113 -60 178q-52 57 -144 65h-2
q-110 0 -176 -107q-50 -82 -62 -204q-7 -71 -7 -154q0 -28 4 -65q91 -2 182 -2q47 0 67 5q101 25 140 84q58 97 58 200z" />
    <glyph glyph-name="Gcircumflex" unicode="&#x11c;" horiz-adv-x="1350" 
d="M407 1583l188 310q2 3 14 17q18 23 50 33q22 7 38 7h3h2q14 0 38 -7q27 -8 50 -33q11 -12 14 -17l188 -310l-20 -21l-270 180l-275 -180zM130 744q0 164 44 316q45 156 120 254q78 103 180 162q103 60 208 60h10q116 0 215 -52q68 -36 108 -73l8 -1q100 8 132 127v-578
q-52 204 -122 320q-34 53 -87 92q-82 60 -194 60q-118 0 -228 -87q-87 -85 -136 -260q-46 -165 -46 -323v-13q0 -156 32 -284q58 -215 124 -286q91 -98 202 -98q94 0 187 85q101 112 117 205q5 29 5 54q0 52 -19 86l-5 7q-75 105 -255 125h520q-10 -107 -40 -202
q-44 -142 -120 -243q-75 -100 -180 -161q-104 -61 -218 -61t-218 60.5t-180 161.5q-76 102 -120 242.5t-44 304.5z" />
    <glyph glyph-name="gcircumflex" unicode="&#x11d;" 
d="M263 1169l188 310q2 3 14 17q18 23 50 33q22 7 38 7h3h2q14 0 38 -7q27 -8 50 -33q11 -12 14 -17l188 -310l-20 -21l-270 180l-275 -180zM110 551q0 148 59 275q60 129 162 201q106 75 245 75q108 0 276 -59q248 -87 306 -114q-23 -2 -116 -22q-40 -9 -61 -25
q-13 -10 -13 -35v-847q-13 -222 -168 -332q-144 -102 -292 -102q-12 0 -24 1q-158 12 -239 97q-41 43 -41 95q0 57 36 93q38 38 93 38q54 0 93 -43t39 -97q0 -44 -34 -80q21 -12 57 -12t86 12q96 23 140 84q56 81 56 226v20v45q-99 -70 -216 -70q-122 0 -223 75
q-100 74 -161 206q-60 130 -60 295zM328 535q0 -221 64 -330q66 -108 196 -108q100 0 153 79q27 40 29 72v9v590q0 51 -14 67l-10 15q-78 77 -177 77h-13q-115 -4 -178 -139q-50 -107 -50 -332z" />
    <glyph glyph-name="Gbreve" unicode="&#x11e;" horiz-adv-x="1350" 
d="M363 1833l114 117q34 -29 40 -35q79 -61 191 -61q92 0 159 60l33 33l133 -102q-57 -60 -127 -102q-100 -60 -213 -60t-217 63q-68 41 -113 87zM130 744q0 164 44 316q45 156 120 254q78 103 180 162q103 60 208 60h10q116 0 215 -52q68 -36 108 -73l8 -1q100 8 132 127
v-578q-52 204 -122 320q-34 53 -87 92q-82 60 -194 60q-118 0 -228 -87q-87 -85 -136 -260q-46 -165 -46 -323v-13q0 -156 32 -284q58 -215 124 -286q91 -98 202 -98q94 0 187 85q101 112 117 205q5 29 5 54q0 52 -19 86l-5 7q-75 105 -255 125h520q-10 -107 -40 -202
q-44 -142 -120 -243q-75 -100 -180 -161q-104 -61 -218 -61t-218 60.5t-180 161.5q-76 102 -120 242.5t-44 304.5z" />
    <glyph glyph-name="gbreve" unicode="&#x11f;" 
d="M224 1419l114 117q34 -29 40 -35q79 -61 191 -61q92 0 159 60l33 33l133 -102q-57 -60 -127 -102q-100 -60 -213 -60t-217 63q-68 41 -113 87zM110 551q0 148 59 275q60 129 162 201q106 75 245 75q108 0 276 -59q248 -87 306 -114q-23 -2 -116 -22q-40 -9 -61 -25
q-13 -10 -13 -35v-847q-13 -222 -168 -332q-144 -102 -292 -102q-12 0 -24 1q-158 12 -239 97q-41 43 -41 95q0 57 36 93q38 38 93 38q54 0 93 -43t39 -97q0 -44 -34 -80q21 -12 57 -12t86 12q96 23 140 84q56 81 56 226v20v45q-99 -70 -216 -70q-122 0 -223 75
q-100 74 -161 206q-60 130 -60 295zM328 535q0 -221 64 -330q66 -108 196 -108q100 0 153 79q27 40 29 72v9v590q0 51 -14 67l-10 15q-78 77 -177 77h-13q-115 -4 -178 -139q-50 -107 -50 -332z" />
    <glyph glyph-name="Gdotaccent" unicode="&#x120;" horiz-adv-x="1350" 
d="M560 1804q0 55 38 93.5t92 38.5t92 -38.5t38 -93.5t-38 -93.5t-92 -38.5t-92 38.5t-38 93.5zM130 744q0 164 44 316q45 156 120 254q78 103 180 162q103 60 208 60h10q116 0 215 -52q68 -36 108 -73l8 -1q100 8 132 127v-578q-52 204 -122 320q-34 53 -87 92
q-82 60 -194 60q-118 0 -228 -87q-87 -85 -136 -260q-46 -165 -46 -323v-13q0 -156 32 -284q58 -215 124 -286q91 -98 202 -98q94 0 187 85q101 112 117 205q5 29 5 54q0 52 -19 86l-5 7q-75 105 -255 125h520q-10 -107 -40 -202q-44 -142 -120 -243q-75 -100 -180 -161
q-104 -61 -218 -61t-218 60.5t-180 161.5q-76 102 -120 242.5t-44 304.5z" />
    <glyph glyph-name="gdotaccent" unicode="&#x121;" 
d="M450 1404q0 55 38 93.5t92 38.5t92 -38.5t38 -93.5t-38 -93.5t-92 -38.5t-92 38.5t-38 93.5zM110 551q0 148 59 275q60 129 162 201q106 75 245 75q108 0 276 -59q248 -87 306 -114q-23 -2 -116 -22q-40 -9 -61 -25q-13 -10 -13 -35v-847q-13 -222 -168 -332
q-144 -102 -292 -102q-12 0 -24 1q-158 12 -239 97q-41 43 -41 95q0 57 36 93q38 38 93 38q54 0 93 -43t39 -97q0 -44 -34 -80q21 -12 57 -12t86 12q96 23 140 84q56 81 56 226v20v45q-99 -70 -216 -70q-122 0 -223 75q-100 74 -161 206q-60 130 -60 295zM328 535
q0 -221 64 -330q66 -108 196 -108q100 0 153 79q27 40 29 72v9v590q0 51 -14 67l-10 15q-78 77 -177 77h-13q-115 -4 -178 -139q-50 -107 -50 -332z" />
    <glyph glyph-name="Gcommaaccent" unicode="&#x122;" horiz-adv-x="1350" 
d="M712 -66l-188 -310q-3 -5 -14 -17q-26 -29 -64 -37q-15 -3 -29 -3q-44 0 -76 32q-29 29 -29 73q0 8 1 18q4 45 35 68l17 14l327 183zM130 744q0 164 44 316q45 156 120 254q78 103 180 162q103 60 208 60h10q116 0 215 -52q68 -36 108 -73l8 -1q100 8 132 127v-578
q-52 204 -122 320q-34 53 -87 92q-82 60 -194 60q-118 0 -228 -87q-87 -85 -136 -260q-46 -165 -46 -323v-13q0 -156 32 -284q58 -215 124 -286q91 -98 202 -98q94 0 187 85q101 112 117 205q5 29 5 54q0 52 -19 86l-5 7q-75 105 -255 125h520q-10 -107 -40 -202
q-44 -142 -120 -243q-75 -100 -180 -161q-104 -61 -218 -61t-218 60.5t-180 161.5q-76 102 -120 242.5t-44 304.5z" />
    <glyph glyph-name="gcommaaccent" unicode="&#x123;" 
d="M538 1169l188 310q3 5 14 17q26 29 64 37q15 3 29 3q44 0 76 -32q29 -29 29 -73q0 -8 -1 -18q-4 -45 -35 -68l-17 -14l-327 -183zM110 551q0 148 59 275q60 129 162 201q106 75 245 75q108 0 276 -59q248 -87 306 -114q-23 -2 -116 -22q-40 -9 -61 -25q-13 -10 -13 -35
v-847q-13 -222 -168 -332q-144 -102 -292 -102q-12 0 -24 1q-158 12 -239 97q-41 43 -41 95q0 57 36 93q38 38 93 38q54 0 93 -43t39 -97q0 -44 -34 -80q21 -12 57 -12t86 12q96 23 140 84q56 81 56 226v20v45q-99 -70 -216 -70q-122 0 -223 75q-100 74 -161 206
q-60 130 -60 295zM328 535q0 -221 64 -330q66 -108 196 -108q100 0 153 79q27 40 29 72v9v590q0 51 -14 67l-10 15q-78 77 -177 77h-13q-115 -4 -178 -139q-50 -107 -50 -332z" />
    <glyph glyph-name="Hcircumflex" unicode="&#x124;" horiz-adv-x="1547" 
d="M492 1583l188 310q2 3 14 17q18 23 50 33q22 7 38 7h3h2q14 0 38 -7q27 -8 50 -33q11 -12 14 -17l188 -310l-20 -21l-270 180l-275 -180zM60 0q124 24 188 140l2 8v1215l-2 8q-64 116 -188 140h578q-134 -28 -188 -139l-2 -9v-721h651v721l-2 8q-64 116 -188 140h578
q-134 -28 -188 -139l-2 -9v-1215l2 -9q54 -111 188 -139h-578q124 24 188 140l2 8v392h-651v-392l2 -9q54 -111 188 -139h-578z" />
    <glyph glyph-name="hcircumflex" unicode="&#x125;" horiz-adv-x="1288" 
d="M56 1583l188 310q4 6 14 17q23 25 50 33q23 7 38 7h4h2q14 0 38 -7q29 -9 50 -33q11 -13 14 -17l188 -310l-20 -21l-270 180l-276 -180zM40 0q124 24 188 140l2 8v1166q0 25 -13 35q-21 16 -61 25q-88 20 -116 22q34 15 306 114q42 15 82 26v-511l3 2q100 75 223 75
q121 0 223 -75q101 -74 161 -206t60 -283v-6v-335q0 -25 13 -35q20 -16 61 -25q91 -20 116 -22q-56 -25 -306 -114q-42 -15 -82 -26v559v4q0 228 -87 338q-82 104 -197 104h-4q-127 0 -184 -92v-740l2 -9q54 -111 188 -139h-578z" />
    <glyph glyph-name="Hbar" unicode="&#x126;" horiz-adv-x="1547" 
d="M60 0q124 24 188 140l2 8v836h-85h-8q-126 -7 -189 -76l179 294q-6 -25 -6 -51q0 -65 71 -65h5h4h29v277l-2 8q-64 116 -188 140h578q-134 -28 -188 -139l-2 -9v-277h651v277l-2 8q-64 116 -188 140h578q-134 -28 -188 -139l-2 -9v-277h87h8q126 7 189 76l-179 -294
q6 25 6 51q0 65 -71 65h-5h-4h-31v-836l2 -9q54 -111 188 -139h-578q124 24 188 140l2 8v392h-651v-392l2 -9q54 -111 188 -139h-578zM1099 984h-651v-342h651v342z" />
    <glyph glyph-name="hbar" unicode="&#x127;" horiz-adv-x="1288" 
d="M40 0q124 24 188 140l2 8v1166q0 25 -13 35q-21 16 -61 25q-89 20 -116 22q54 24 306 114q42 15 82 26v-178h300h8q126 7 189 76l-179 -294q6 25 6 51q0 65 -71 65h-5h-4h-244v-231l3 2q100 75 223 75q121 0 223 -75q101 -74 161 -206t60 -283v-6v-335q0 -25 13 -35
q20 -16 61 -25q91 -20 116 -22q-54 -24 -306 -114q-42 -15 -82 -26v559v4q0 228 -87 338q-82 104 -197 104h-4q-127 0 -184 -92v-740l2 -9q54 -111 188 -139h-578z" />
    <glyph glyph-name="Itilde" unicode="&#x128;" horiz-adv-x="698" 
d="M60 0q124 24 188 140l2 8v1215l-2 8q-64 116 -188 140h578q-134 -28 -188 -139l-2 -9v-1215l2 -9q54 -111 188 -139h-578zM30 1700q59 250 185 250q13 0 30 -4q38 -9 130 -71l87 -61q26 -22 58 -22h3q61 0 145 110q-54 -257 -182 -269q-12 -1 -24 2q-40 10 -131 74
l-86 58q-28 20 -62 21h-1q-64 0 -152 -88z" />
    <glyph glyph-name="itilde" unicode="&#x129;" horiz-adv-x="658" 
d="M10 1286q59 250 185 250q13 0 30 -4q38 -9 130 -71l87 -61q26 -22 58 -22h3q61 0 145 110q-54 -257 -182 -269q-12 -1 -24 2q-40 10 -131 74l-86 58q-28 20 -62 21h-1q-64 0 -152 -88zM40 962q72 32 306 114q37 13 82 26v-954l2 -9q54 -111 188 -139h-578q124 24 188 140
l2 8v732q0 25 -13 35q-21 17 -67 26q-98 21 -110 21z" />
    <glyph glyph-name="Imacron" unicode="&#x12a;" horiz-adv-x="698" 
d="M60 0q124 24 188 140l2 8v1215l-2 8q-64 116 -188 140h578q-134 -28 -188 -139l-2 -9v-1215l2 -9q54 -111 188 -139h-578zM58 1950h582v-177h-582v177z" />
    <glyph glyph-name="imacron" unicode="&#x12b;" horiz-adv-x="658" 
d="M40 962q72 32 306 114q37 13 82 26v-954l2 -9q54 -111 188 -139h-578q124 24 188 140l2 8v732q0 25 -13 35q-21 17 -67 26q-98 21 -110 21zM38 1511h582v-177h-582v177z" />
    <glyph glyph-name="Ibreve" unicode="&#x12c;" horiz-adv-x="698" 
d="M14 1833l114 117q34 -29 40 -35q79 -61 191 -61q92 0 159 60l33 33l133 -102q-57 -60 -127 -102q-100 -60 -213 -60t-217 63q-68 41 -113 87zM60 0q124 24 188 140l2 8v1215l-2 8q-64 116 -188 140h578q-134 -28 -188 -139l-2 -9v-1215l2 -9q54 -111 188 -139h-578z" />
    <glyph glyph-name="ibreve" unicode="&#x12d;" horiz-adv-x="658" 
d="M-6 1419l114 117q34 -29 40 -35q79 -61 191 -61q92 0 159 60l33 33l133 -102q-57 -60 -127 -102q-100 -60 -213 -60t-217 63q-68 41 -113 87zM40 962q72 32 306 114q37 13 82 26v-954l2 -9q54 -111 188 -139h-578q124 24 188 140l2 8v732q0 25 -13 35q-21 17 -67 26
q-98 21 -110 21z" />
    <glyph glyph-name="Iogonek" unicode="&#x12e;" horiz-adv-x="698" 
d="M60 0q124 24 188 140l2 8v1215l-2 8q-64 116 -188 140h578q-134 -28 -188 -139l-2 -9v-1215l2 -9q54 -111 188 -139h-290q-11 -23 -19 -51q-13 -45 -13 -86v-13l1 -26q27 9 51 9q33 0 60 -16q48 -29 64 -85q5 -18 5 -36q0 -33 -17 -64q-26 -48 -79 -61q-16 -4 -33 -4
q-31 0 -65 15q-52 23 -77 85q-9 22 -15 43q-11 38 -11 71q0 53 8 90q17 78 48 129h-196z" />
    <glyph glyph-name="iogonek" unicode="&#x12f;" horiz-adv-x="658" 
d="M199 1404q0 55 38 93.5t92 38.5t92 -38.5t38 -93.5t-38 -93.5t-92 -38.5t-92 38.5t-38 93.5zM40 962q71 31 306 114q37 13 82 26v-954l2 -9q54 -111 188 -139h-270q-11 -23 -19 -51q-13 -45 -13 -86v-13l1 -26q27 9 51 9q33 0 60 -16q48 -29 64 -85q5 -18 5 -36
q0 -33 -17 -64q-26 -48 -79 -61q-16 -4 -33 -4q-31 0 -65 15q-52 23 -77 85q-9 22 -15 43q-11 38 -11 71q0 53 8 90q17 78 48 129h-216q124 24 188 140l2 8v732q0 25 -13 35q-21 17 -67 26q-98 21 -110 21z" />
    <glyph glyph-name="Idotaccent" unicode="&#x130;" horiz-adv-x="698" 
d="M232 1804q0 55 38 93.5t92 38.5t92 -38.5t38 -93.5t-38 -93.5t-92 -38.5t-92 38.5t-38 93.5zM60 0q124 24 188 140l2 8v1215l-2 8q-64 116 -188 140h578q-134 -28 -188 -139l-2 -9v-1215l2 -9q54 -111 188 -139h-578z" />
    <glyph glyph-name="dotlessi" unicode="&#x131;" horiz-adv-x="658" 
d="M40 962q72 32 306 114q37 13 82 26v-954l2 -9q54 -111 188 -139h-578q124 24 188 140l2 8v732q0 25 -13 35q-21 17 -67 26q-98 21 -110 21z" />
    <glyph glyph-name="IJ" unicode="&#x132;" horiz-adv-x="1392" 
d="M754 -312q190 203 190 449v3v8v1215l-2 8q-64 116 -188 140h578q-134 -28 -188 -139l-2 -9v-1215v-8q0 -335 -381 -451zM60 0q124 24 188 140l2 8v1215l-2 8q-64 116 -188 140h578q-134 -28 -188 -139l-2 -9v-1215l2 -9q54 -111 188 -139h-578z" />
    <glyph glyph-name="ij" unicode="&#x133;" horiz-adv-x="1323" 
d="M863 1404q0 55 38 93.5t92 38.5t92 -38.5t38 -93.5t-38 -93.5t-92 -38.5t-92 38.5t-38 93.5zM704 962q72 32 306 114q37 13 82 26v-1075v-8q0 -335 -381 -451l-7 -1q190 203 190 452v8v853q0 25 -13 35q-20 17 -64 25q-105 21 -113 22zM40 962q72 32 306 114q37 13 82 26
v-954l2 -9q54 -111 188 -139h-578q124 24 188 140l2 8v732q0 25 -13 35q-21 17 -67 26q-98 21 -110 21zM199 1404q0 55 38 93.5t92 38.5t92 -38.5t38 -93.5t-38 -93.5t-92 -38.5t-92 38.5t-38 93.5z" />
    <glyph glyph-name="Jcircumflex" unicode="&#x134;" horiz-adv-x="698" 
d="M56 1583l188 310q4 6 14 17q23 25 50 33q23 7 38 7h4h2q14 0 38 -7q29 -9 50 -33q11 -13 14 -17l188 -310l-20 -21l-270 180l-276 -180zM60 -312q190 203 190 449v3v8v1215l-2 8q-64 116 -188 140h578q-134 -28 -188 -139l-2 -9v-1215v-8q0 -335 -381 -451z" />
    <glyph glyph-name="jcircumflex" unicode="&#x135;" horiz-adv-x="659" 
d="M39 1169l188 310q2 3 14 17q18 23 50 33q22 7 38 7h3h2q14 0 38 -7q27 -8 50 -33q11 -12 14 -17l188 -310l-20 -21l-270 180l-275 -180zM40 962q72 32 306 114q37 13 82 26v-1075v-8q0 -335 -381 -451l-7 -1q190 203 190 452v8v853q0 25 -13 35q-20 17 -64 25
q-105 21 -113 22z" />
    <glyph glyph-name="Kcommaaccent" unicode="&#x136;" horiz-adv-x="1496" 
d="M865 -66l-188 -310q-3 -5 -14 -17q-26 -29 -64 -37q-15 -3 -29 -3q-44 0 -76 32q-29 29 -29 73q0 8 1 18q4 45 35 68l17 14l327 183zM60 0q124 24 188 140l2 8v1215l-2 8q-64 116 -188 140h578q-134 -28 -188 -139l-2 -9v-775l645 805l8 11q4 7 4 17q0 39 -173 90h471
q-71 -21 -183 -139l-7 -9l-585 -723q55 21 100 21h4q173 0 278 -126q52 -62 180 -352l21 -44q42 -83 105 -83h3q55 0 100 38q50 44 77 64q-13 -126 -84 -200q-78 -81 -163 -81h-2q-91 0 -165 94q-15 19 -60 104l-143 303q-68 133 -143 161q-90 34 -161 36l-4 -5l-123 -153
v-269l2 -9q54 -111 188 -139h-578z" />
    <glyph glyph-name="kcommaaccent" unicode="&#x137;" horiz-adv-x="1273" 
d="M712 -66l-188 -310q-3 -5 -14 -17q-26 -29 -64 -37q-15 -3 -29 -3q-44 0 -76 32q-29 29 -29 73q0 8 1 18q4 45 35 68l17 14l327 183zM40 0q124 24 188 140l2 8v1166q0 25 -13 35q-21 17 -65 25q-104 21 -112 22q9 4 306 114q27 10 82 26v-1072l407 495l8 11q4 7 4 17
q0 39 -173 90h471q-71 -21 -183 -139l-7 -9l-349 -419h152l345 -378l3 -4l4 -4q116 -97 203 -124h-675q209 51 209 109q0 15 -14 30l-9 9l-275 294l-121 -145v-149l2 -9q54 -111 188 -139h-578z" />
    <glyph glyph-name="kgreenlandic" unicode="&#x138;" horiz-adv-x="1273" 
d="M40 0q124 24 188 140l2 8v732q0 25 -13 35q-21 17 -65 25q-104 21 -112 22q9 4 306 114q27 10 82 26v-638l407 495l8 11q4 7 4 17q0 39 -173 90h471q-71 -21 -183 -139l-7 -9l-349 -419h152l345 -378l3 -4l4 -4q116 -97 203 -124h-675q209 51 209 109q0 15 -14 30l-9 9
l-275 294l-121 -145v-149l2 -9q54 -111 188 -139h-578z" />
    <glyph glyph-name="Lacute" unicode="&#x139;" horiz-adv-x="1161" 
d="M329 1583l188 310q3 5 14 17q26 29 64 37q15 3 29 3q44 0 76 -32q29 -29 29 -73q0 -8 -1 -18q-4 -45 -35 -68l-17 -14l-327 -183zM60 0q124 24 188 140l2 8v1215l-2 8q-64 116 -188 140h578q-134 -28 -188 -139l-2 -9v-1261h502l14 1q71 7 277 219l-186 -322h-995z" />
    <glyph glyph-name="lacute" unicode="&#x13a;" horiz-adv-x="658" 
d="M329 1583l188 310q3 5 14 17q26 29 64 37q15 3 29 3q44 0 76 -32q29 -29 29 -73q0 -8 -1 -18q-4 -45 -35 -68l-17 -14l-327 -183zM40 1396q51 22 306 114q38 14 82 26v-1388l2 -9q54 -111 188 -139h-578q124 24 188 140l2 8v1166q0 25 -13 35q-19 16 -63 25
q-105 21 -114 22z" />
    <glyph glyph-name="Lcommaaccent" unicode="&#x13b;" horiz-adv-x="1161" 
d="M712 -66l-188 -310q-3 -5 -14 -17q-26 -29 -64 -37q-15 -3 -29 -3q-44 0 -76 32q-29 29 -29 73q0 8 1 18q4 45 35 68l17 14l327 183zM60 0q124 24 188 140l2 8v1215l-2 8q-64 116 -188 140h578q-134 -28 -188 -139l-2 -9v-1261h502l14 1q71 7 277 219l-186 -322h-995z
" />
    <glyph glyph-name="lcommaaccent" unicode="&#x13c;" horiz-adv-x="658" 
d="M418 -66l-188 -310q-3 -5 -14 -17q-26 -29 -64 -37q-15 -3 -29 -3q-44 0 -76 32q-29 29 -29 73q0 8 1 18q4 45 35 68l17 14l327 183zM40 1396q51 22 306 114q38 14 82 26v-1388l2 -9q54 -111 188 -139h-578q124 24 188 140l2 8v1166q0 25 -13 35q-19 16 -63 25
q-105 21 -114 22z" />
    <glyph glyph-name="Lcaron" unicode="&#x13d;" horiz-adv-x="1161" 
d="M538 1169l188 310q3 5 14 17q26 29 64 37q15 3 29 3q44 0 76 -32q29 -29 29 -73q0 -8 -1 -18q-4 -45 -35 -68l-17 -14l-327 -183zM60 0q124 24 188 140l2 8v1215l-2 8q-64 116 -188 140h578q-134 -28 -188 -139l-2 -9v-1261h502l14 1q71 7 277 219l-186 -322h-995z" />
    <glyph glyph-name="lcaron" unicode="&#x13e;" horiz-adv-x="938" 
d="M538 1169l188 310q3 5 14 17q26 29 64 37q15 3 29 3q44 0 76 -32q29 -29 29 -73q0 -8 -1 -18q-4 -45 -35 -68l-17 -14l-327 -183zM40 1396q51 22 306 114q38 14 82 26v-1388l2 -9q54 -111 188 -139h-578q124 24 188 140l2 8v1166q0 25 -13 35q-19 16 -63 25
q-105 21 -114 22z" />
    <glyph glyph-name="Ldot" unicode="&#x13f;" horiz-adv-x="1161" 
d="M586 970q0 55 38 93.5t92 38.5t92 -38.5t38 -93.5t-38 -93.5t-92 -38.5t-92 38.5t-38 93.5zM60 0q124 24 188 140l2 8v1215l-2 8q-64 116 -188 140h578q-134 -28 -188 -139l-2 -9v-1261h502l14 1q71 7 277 219l-186 -322h-995z" />
    <glyph glyph-name="ldot" unicode="&#x140;" horiz-adv-x="846" 
d="M586 970q0 55 38 93.5t92 38.5t92 -38.5t38 -93.5t-38 -93.5t-92 -38.5t-92 38.5t-38 93.5zM40 1396q51 22 306 114q38 14 82 26v-1388l2 -9q54 -111 188 -139h-578q124 24 188 140l2 8v1166q0 25 -13 35q-19 16 -63 25q-105 21 -114 22z" />
    <glyph glyph-name="Lslash" unicode="&#x141;" horiz-adv-x="1161" 
d="M60 0q124 24 188 140l2 8v398l-12 -12l-5 -5q-80 -90 -80 -179v-9l-81 335q11 -19 31 -40q22 -23 45 -23q25 1 51 27l4 3l3 3l44 44v673l-2 8q-64 116 -188 140h578q-134 -28 -188 -139l-2 -9v-475l21 21l6 6q79 89 79 177v10l82 -334q-14 22 -32 40q-22 22 -45 22
q-25 0 -51 -26l-4 -4l-3 -3l-53 -53v-642h502l14 1q71 7 277 219l-186 -322h-995z" />
    <glyph glyph-name="lslash" unicode="&#x142;" horiz-adv-x="658" 
d="M40 0q124 24 188 140l2 8v400l-14 -14l-6 -5q-80 -91 -80 -180v-8l-81 335q15 -25 32 -41q22 -21 44 -21q25 -1 52 26l4 3l2 3l47 47v621q0 25 -13 35q-19 16 -63 25q-105 21 -114 22q36 16 306 114q40 14 82 26v-645l18 18l6 6q80 90 80 179v8l81 -334q-12 20 -32 40
q-22 22 -45 22q-24 0 -51 -26l-3 -4l-3 -3l-51 -51v-598l2 -9q54 -111 188 -139h-578z" />
    <glyph glyph-name="Nacute" unicode="&#x143;" horiz-adv-x="1550" 
d="M673 1583l188 310q3 5 14 17q26 29 64 37q15 3 29 3q44 0 76 -32q29 -29 29 -73q0 -8 -1 -18q-4 -45 -35 -68l-17 -14l-327 -183zM60 0q124 24 188 140l2 8v1403l938 -1111v923l-2 8q-64 116 -188 140h492q-134 -28 -188 -139l-2 -9v-1403l-938 1121v-933l2 -9
q54 -111 188 -139h-492z" />
    <glyph glyph-name="nacute" unicode="&#x144;" horiz-adv-x="1288" 
d="M538 1169l188 310q3 5 14 17q26 29 64 37q15 3 29 3q44 0 76 -32q29 -29 29 -73q0 -8 -1 -18q-4 -45 -35 -68l-17 -14l-327 -183zM40 0q124 24 188 140l2 8v732q0 25 -13 35q-20 16 -61 25q-91 20 -116 22q34 15 306 114q42 15 82 26v-77l3 2q100 75 223 75
q121 0 223 -75q101 -74 161 -206t60 -283v-6v-335q0 -25 13 -35q20 -16 61 -25q91 -20 116 -22q-56 -25 -306 -114q-42 -15 -82 -26v559v4q0 228 -87 338q-82 104 -197 104h-4q-127 0 -184 -92v-740l2 -9q54 -111 188 -139h-578z" />
    <glyph glyph-name="Ncommaaccent" unicode="&#x145;" horiz-adv-x="1550" 
d="M880 -66l-188 -310q-3 -5 -14 -17q-26 -29 -64 -37q-15 -3 -29 -3q-44 0 -76 32q-29 29 -29 73q0 8 1 18q4 45 35 68l17 14l327 183zM60 0q124 24 188 140l2 8v1403l938 -1111v923l-2 8q-64 116 -188 140h492q-134 -28 -188 -139l-2 -9v-1403l-938 1121v-933l2 -9
q54 -111 188 -139h-492z" />
    <glyph glyph-name="ncommaaccent" unicode="&#x146;" horiz-adv-x="1288" 
d="M712 -66l-188 -310q-3 -5 -14 -17q-26 -29 -64 -37q-15 -3 -29 -3q-44 0 -76 32q-29 29 -29 73q0 8 1 18q4 45 35 68l17 14l327 183zM40 0q124 24 188 140l2 8v732q0 25 -13 35q-20 16 -61 25q-91 20 -116 22q34 15 306 114q42 15 82 26v-77l3 2q100 75 223 75
q121 0 223 -75q101 -74 161 -206t60 -283v-6v-335q0 -25 13 -35q20 -16 61 -25q91 -20 116 -22q-56 -25 -306 -114q-42 -15 -82 -26v559v4q0 228 -87 338q-82 104 -197 104h-4q-127 0 -184 -92v-740l2 -9q54 -111 188 -139h-578z" />
    <glyph glyph-name="Ncaron" unicode="&#x147;" horiz-adv-x="1550" 
d="M478 1929l20 21l275 -180l270 180l20 -21l-188 -310q-3 -5 -14 -17q-23 -25 -50 -33q-24 -7 -38 -7h-2h-3q-16 0 -38 7q-32 10 -50 33q-12 14 -14 17zM60 0q124 24 188 140l2 8v1403l938 -1111v923l-2 8q-64 116 -188 140h492q-134 -28 -188 -139l-2 -9v-1403l-938 1121
v-933l2 -9q54 -111 188 -139h-492z" />
    <glyph glyph-name="ncaron" unicode="&#x148;" horiz-adv-x="1288" 
d="M365 1515l20 21l275 -180l270 180l20 -21l-188 -310q-3 -5 -14 -17q-23 -25 -50 -33q-24 -7 -38 -7h-2h-3q-16 0 -38 7q-32 10 -50 33q-12 14 -14 17zM40 0q124 24 188 140l2 8v732q0 25 -13 35q-20 16 -61 25q-91 20 -116 22q34 15 306 114q42 15 82 26v-77l3 2
q100 75 223 75q121 0 223 -75q101 -74 161 -206t60 -283v-6v-335q0 -25 13 -35q20 -16 61 -25q91 -20 116 -22q-56 -25 -306 -114q-42 -15 -82 -26v559v4q0 228 -87 338q-82 104 -197 104h-4q-127 0 -184 -92v-740l2 -9q54 -111 188 -139h-578z" />
    <glyph glyph-name="napostrophe" unicode="&#x149;" horiz-adv-x="1497" 
d="M0 1001l188 310q3 5 14 17q26 29 64 37q15 3 29 3q44 0 76 -32q29 -29 29 -73q0 -8 -1 -18q-4 -45 -35 -68l-17 -14l-327 -183zM249 0q124 24 188 140l2 8v732q0 25 -13 35q-20 16 -61 25q-91 20 -116 22q34 15 306 114q42 15 82 26v-77l3 2q100 75 223 75q121 0 223 -75
q101 -74 161 -206t60 -283v-6v-335q0 -25 13 -35q20 -16 61 -25q91 -20 116 -22q-56 -25 -306 -114q-42 -15 -82 -26v559v4q0 228 -87 338q-82 104 -197 104h-4q-127 0 -184 -92v-740l2 -9q54 -111 188 -139h-578z" />
    <glyph glyph-name="Eng" unicode="&#x14a;" horiz-adv-x="1550" 
d="M0 0q184 24 248 140l2 8v1403l938 -1111v923l-2 8q-64 116 -188 140h492q-134 -28 -188 -139l-2 -9v-1363q-13 -200 -158 -333q-83 -75 -196 -75q-11 0 -24 1q-159 13 -239 97q-41 43 -41 95q0 57 36 93q38 38 93 38q54 0 93 -43t39 -97q0 -44 -34 -80q13 -7 57 -12
q34 -4 63 6q197 104 197 292q0 2 2 147l-826 952v-933l2 -9q54 -111 188 -139h-552z" />
    <glyph glyph-name="eng" unicode="&#x14b;" horiz-adv-x="1288" 
d="M40 0q124 24 188 140l2 8v732q0 25 -13 35q-20 16 -61 25q-91 20 -116 22q54 24 306 114q42 15 82 26v-77l3 2q113 75 223 75q121 0 223 -75q101 -74 161 -206t60 -283v-6v-559q-16 -213 -148 -329q-91 -79 -206 -79q-11 0 -24 1q-159 13 -239 97q-41 43 -41 95
q0 57 36 93q38 38 93 38q54 0 93 -43t39 -97q0 -44 -34 -80q17 -10 57 -12q34 -2 60 10q37 20 60 60q56 81 56 226v20v561v4q0 228 -87 338q-82 104 -197 104h-4q-127 0 -184 -92v-740l2 -9q54 -111 188 -139h-578z" />
    <glyph glyph-name="Omacron" unicode="&#x14c;" horiz-adv-x="1384" 
d="M399 1950h583v-177h-583v177zM338 727q0 -157 32 -265q49 -194 132 -284q91 -98 190 -98h3h3q83 0 192 100q76 94 115 237q39 142 39 310v31q0 187 -39 311q-49 184 -135 277q-79 85 -177 85h-2q-97 0 -171 -67q-89 -72 -138 -268q-44 -178 -44 -369zM130 744
q0 164 44 316t120 254q76 101 180 161.5t218 60.5t218 -60.5t180 -161.5q76 -102 120 -254t44 -316t-44 -304.5t-120 -242.5q-76 -101 -180 -161.5t-218 -60.5t-218 60.5t-180 161.5q-76 102 -120 242.5t-44 304.5z" />
    <glyph glyph-name="omacron" unicode="&#x14d;" horiz-adv-x="1108" 
d="M282 1511h583v-177h-583v177zM328 542q0 -223 50 -332q64 -139 185 -139q108 0 171 157q52 130 54 306v4q0 208 -80 336q-66 106 -155 106h-3q-95 0 -158 -108q-64 -109 -64 -330zM110 526q0 165 60 295q61 132 161 206q101 75 223 75q121 0 223 -75q101 -74 161 -206
t60 -283q0 -152 -60 -282t-161 -206q-100 -75 -223 -75q-117 0 -223 75q-102 72 -162 201q-59 127 -59 275z" />
    <glyph glyph-name="Obreve" unicode="&#x14e;" horiz-adv-x="1384" 
d="M363 1833l114 117q34 -29 40 -35q79 -61 191 -61q92 0 159 60l33 33l133 -102q-57 -60 -127 -102q-100 -60 -213 -60t-217 63q-68 41 -113 87zM338 727q0 -157 32 -265q49 -194 132 -284q91 -98 190 -98h3h3q83 0 192 100q76 94 115 237q39 142 39 310v31q0 187 -39 311
q-49 184 -135 277q-79 85 -177 85h-2q-97 0 -171 -67q-89 -72 -138 -268q-44 -178 -44 -369zM130 744q0 164 44 316t120 254q76 101 180 161.5t218 60.5t218 -60.5t180 -161.5q76 -102 120 -254t44 -316t-44 -304.5t-120 -242.5q-76 -101 -180 -161.5t-218 -60.5t-218 60.5
t-180 161.5q-76 102 -120 242.5t-44 304.5z" />
    <glyph glyph-name="obreve" unicode="&#x14f;" horiz-adv-x="1108" 
d="M224 1419l114 117q34 -29 40 -35q79 -61 191 -61q92 0 159 60l33 33l133 -102q-57 -60 -127 -102q-100 -60 -213 -60t-217 63q-68 41 -113 87zM328 542q0 -223 50 -332q64 -139 185 -139q108 0 171 157q52 130 54 306v4q0 208 -80 336q-66 106 -155 106h-3
q-95 0 -158 -108q-64 -109 -64 -330zM110 526q0 165 60 295q61 132 161 206q101 75 223 75q121 0 223 -75q101 -74 161 -206t60 -283q0 -152 -60 -282t-161 -206q-100 -75 -223 -75q-117 0 -223 75q-102 72 -162 201q-59 127 -59 275z" />
    <glyph glyph-name="Ohungarumlaut" unicode="&#x150;" horiz-adv-x="1384" 
d="M514 1583l188 310q3 5 14 17q26 29 64 37q15 3 29 3q44 0 76 -32q29 -29 29 -73q0 -8 -1 -18q-4 -45 -35 -68l-17 -14l-327 -183zM830 1583l188 310q3 5 14 17q26 29 64 37q15 3 29 3q44 0 76 -32q29 -29 29 -73q0 -8 -1 -18q-4 -45 -35 -68l-17 -14l-327 -183zM338 727
q0 -157 32 -265q49 -194 132 -284q91 -98 190 -98h3h3q83 0 192 100q76 94 115 237q39 142 39 310v31q0 187 -39 311q-49 184 -135 277q-79 85 -177 85h-2q-97 0 -171 -67q-89 -72 -138 -268q-44 -178 -44 -369zM130 744q0 164 44 316t120 254q76 101 180 161.5t218 60.5
t218 -60.5t180 -161.5q76 -102 120 -254t44 -316t-44 -304.5t-120 -242.5q-76 -101 -180 -161.5t-218 -60.5t-218 60.5t-180 161.5q-76 102 -120 242.5t-44 304.5z" />
    <glyph glyph-name="ohungarumlaut" unicode="&#x151;" horiz-adv-x="1108" 
d="M376 1169l188 310q3 5 14 17q26 29 64 37q15 3 29 3q44 0 76 -32q29 -29 29 -73q0 -8 -1 -18q-4 -45 -35 -68l-17 -14l-327 -183zM692 1169l188 310q3 5 14 17q26 29 64 37q15 3 29 3q44 0 76 -32q29 -29 29 -73q0 -8 -1 -18q-4 -45 -35 -68l-17 -14l-327 -183zM328 542
q0 -223 50 -332q64 -139 185 -139q108 0 171 157q52 130 54 306v4q0 208 -80 336q-66 106 -155 106h-3q-95 0 -158 -108q-64 -109 -64 -330zM110 526q0 165 60 295q61 132 161 206q101 75 223 75q121 0 223 -75q101 -74 161 -206t60 -283q0 -152 -60 -282t-161 -206
q-100 -75 -223 -75q-117 0 -223 75q-102 72 -162 201q-59 127 -59 275z" />
    <glyph glyph-name="OE" unicode="&#x152;" horiz-adv-x="2130" 
d="M130 744q0 164 44 316t120 254q76 101 180 161.5t218 60.5q73 0 142 -25h980l186 -322q-206 212 -277 219l-14 1h-453v-767h313l14 1q71 7 277 219l-289 -501q9 33 9 61q0 74 -60 115l-7 3h-257v-438h583l14 1q71 7 277 219l-186 -322h-1110q-69 -25 -142 -25
q-114 0 -218 60.5t-180 161.5q-76 102 -120 242.5t-44 304.5zM338 727q0 -157 32 -265q49 -194 132 -284q91 -98 190 -98h3h3q83 0 192 100q76 94 115 237q39 142 39 310v31q0 187 -39 311q-49 184 -135 277q-79 85 -177 85h-2q-97 0 -171 -67q-89 -72 -138 -268
q-44 -178 -44 -369z" />
    <glyph glyph-name="oe" unicode="&#x153;" horiz-adv-x="1774" 
d="M110 526q0 165 60 295q61 132 161 206q101 75 223 75q121 0 223 -75q70 -51 120 -131q50 78 120 130q101 75 223 75q116 0 219 -68q75 -41 134 -139q42 -70 47 -152q-1 -177 -159 -290q-134 -96 -317 -96q-2 0 -143 8q25 -103 67 -167q71 -108 186 -108h2q123 0 209 106
q35 43 63 118l116 -34q-4 -16 -7 -22q-84 -154 -161 -206q-125 -76 -238 -76h-3q-137 0 -238 74q-70 51 -121 131q-50 -78 -119 -130q-100 -75 -223 -75q-117 0 -223 75q-102 72 -162 201q-59 127 -59 275zM328 542q0 -223 50 -332q64 -139 185 -139q108 0 171 157
q52 130 54 306v4q0 208 -80 336q-66 106 -155 106h-3q-95 0 -158 -108q-64 -109 -64 -330zM1452 743q0 113 -60 178q-52 57 -144 65h-2q-110 0 -176 -107q-50 -82 -62 -204q-7 -71 -7 -154q0 -28 4 -65q91 -2 182 -2q47 0 67 5q101 25 140 84q58 97 58 200z" />
    <glyph glyph-name="Racute" unicode="&#x154;" horiz-adv-x="1436" 
d="M641 1583l188 310q3 5 14 17q26 29 64 37q15 3 29 3q44 0 76 -32q29 -29 29 -73q0 -8 -1 -18q-4 -45 -35 -68l-17 -14l-327 -183zM663 1432q-78 0 -153 -37q-30 -18 -48 -48q-14 -24 -14 -67v-498q50 -93 162 -128q48 -14 93 -14h11q4 0 40 2q95 10 160 62
q118 95 118 328q0 120 -48 216q-42 84 -128 138q-74 46 -193 46zM60 0q124 24 188 140l2 8v1132q0 24 -13 35q-18 15 -61 25q-88 20 -116 22q69 31 306 114q168 59 290 59h8q149 0 250 -41q102 -40 170 -102q93 -85 132 -180q26 -54 32 -180q-5 -196 -114 -312
q-83 -88 -186 -134q37 -21 62 -51q51 -62 180 -352l21 -44q43 -83 104 -83h4q54 0 100 38q50 44 77 64q-13 -126 -84 -200q-78 -81 -161 -81h-4q-95 0 -165 94q-15 20 -60 104l-143 303q-67 130 -143 161l-6 2q-22 0 -46 1q-144 6 -236 84v-478l2 -9q54 -111 188 -139h-578z
" />
    <glyph glyph-name="racute" unicode="&#x155;" horiz-adv-x="1026" 
d="M538 1169l188 310q3 5 14 17q26 29 64 37q15 3 29 3q44 0 76 -32q29 -29 29 -73q0 -8 -1 -18q-4 -45 -35 -68l-17 -14l-327 -183zM40 0q124 24 188 140l2 8v699q0 24 -13 35q-18 16 -61 25q-90 20 -116 22q69 31 306 114q168 59 290 59h8q162 0 282 -112
q100 -116 100 -233v-5q0 -55 -38 -96q-37 -40 -92 -40t-92 38q-38 39 -38 91v3q0 57 38 94q37 36 86 38q-7 41 -98 94q-45 26 -117 26q-12 0 -24 -1q-109 -9 -180 -59q-5 -3 -29 -26q-14 -13 -14 -67v-699l2 -9q54 -111 188 -139h-578z" />
    <glyph glyph-name="Rcommaaccent" unicode="&#x156;" horiz-adv-x="1436" 
d="M849 -66l-188 -310q-3 -5 -14 -17q-26 -29 -64 -37q-15 -3 -29 -3q-44 0 -76 32q-29 29 -29 73q0 8 1 18q4 45 35 68l17 14l327 183zM663 1432q-78 0 -153 -37q-30 -18 -48 -48q-14 -24 -14 -67v-498q50 -93 162 -128q48 -14 93 -14h11q4 0 40 2q95 10 160 62
q118 95 118 328q0 120 -48 216q-42 84 -128 138q-74 46 -193 46zM60 0q124 24 188 140l2 8v1132q0 24 -13 35q-18 15 -61 25q-88 20 -116 22q69 31 306 114q168 59 290 59h8q149 0 250 -41q102 -40 170 -102q93 -85 132 -180q26 -54 32 -180q-5 -196 -114 -312
q-83 -88 -186 -134q37 -21 62 -51q51 -62 180 -352l21 -44q43 -83 104 -83h4q54 0 100 38q50 44 77 64q-13 -126 -84 -200q-78 -81 -161 -81h-4q-95 0 -165 94q-15 20 -60 104l-143 303q-67 130 -143 161l-6 2q-22 0 -46 1q-144 6 -236 84v-478l2 -9q54 -111 188 -139h-578z
" />
    <glyph glyph-name="rcommaaccent" unicode="&#x157;" horiz-adv-x="1026" 
d="M412 -66l-188 -310q-3 -5 -14 -17q-26 -29 -64 -37q-15 -3 -29 -3q-44 0 -76 32q-29 29 -29 73q0 8 1 18q4 45 35 68l17 14l327 183zM40 0q124 24 188 140l2 8v699q0 24 -13 35q-18 16 -61 25q-90 20 -116 22q69 31 306 114q168 59 290 59h8q162 0 282 -112
q100 -116 100 -233v-5q0 -55 -38 -96q-37 -40 -92 -40t-92 38q-38 39 -38 91v3q0 57 38 94q37 36 86 38q-7 41 -98 94q-45 26 -117 26q-12 0 -24 -1q-109 -9 -180 -59q-5 -3 -29 -26q-14 -13 -14 -67v-699l2 -9q54 -111 188 -139h-578z" />
    <glyph glyph-name="Rcaron" unicode="&#x158;" horiz-adv-x="1436" 
d="M397 1929l20 21l275 -180l270 180l20 -21l-188 -310q-3 -5 -14 -17q-23 -25 -50 -33q-24 -7 -38 -7h-2h-3q-16 0 -38 7q-32 10 -50 33q-12 14 -14 17zM663 1432q-78 0 -153 -37q-30 -18 -48 -48q-14 -24 -14 -67v-498q50 -93 162 -128q48 -14 93 -14h11q4 0 40 2
q95 10 160 62q118 95 118 328q0 120 -48 216q-42 84 -128 138q-74 46 -193 46zM60 0q124 24 188 140l2 8v1132q0 24 -13 35q-18 15 -61 25q-88 20 -116 22q69 31 306 114q168 59 290 59h8q149 0 250 -41q102 -40 170 -102q93 -85 132 -180q26 -54 32 -180q-5 -196 -114 -312
q-83 -88 -186 -134q37 -21 62 -51q51 -62 180 -352l21 -44q43 -83 104 -83h4q54 0 100 38q50 44 77 64q-13 -126 -84 -200q-78 -81 -161 -81h-4q-95 0 -165 94q-15 20 -60 104l-143 303q-67 130 -143 161l-6 2q-22 0 -46 1q-144 6 -236 84v-478l2 -9q54 -111 188 -139h-578z
" />
    <glyph glyph-name="rcaron" unicode="&#x159;" horiz-adv-x="1026" 
d="M263 1515l20 21l275 -180l270 180l20 -21l-188 -310q-3 -5 -14 -17q-23 -25 -50 -33q-24 -7 -38 -7h-2h-3q-16 0 -38 7q-32 10 -50 33q-12 14 -14 17zM40 0q124 24 188 140l2 8v699q0 24 -13 35q-18 16 -61 25q-90 20 -116 22q69 31 306 114q168 59 290 59h8
q162 0 282 -112q100 -116 100 -233v-5q0 -55 -38 -96q-37 -40 -92 -40t-92 38q-38 39 -38 91v3q0 57 38 94q37 36 86 38q-7 41 -98 94q-45 26 -117 26q-12 0 -24 -1q-109 -9 -180 -59q-5 -3 -29 -26q-14 -13 -14 -67v-699l2 -9q54 -111 188 -139h-578z" />
    <glyph glyph-name="Sacute" unicode="&#x15a;" horiz-adv-x="1306" 
d="M591 1583l188 310q3 5 14 17q26 29 64 37q15 3 29 3q44 0 76 -32q29 -29 29 -73q0 -8 -1 -18q-4 -45 -35 -68l-17 -14l-327 -183zM120 746q42 -346 145 -496l19 -22q16 -23 80 -68q114 -80 270 -80h4q62 0 70 2q148 30 228 156q53 92 53 193v26q-9 125 -171 195l-340 156
q-254 118 -256 346v20q4 155 112 258q109 104 274 104h6q166 0 261 -125l8 -1q75 8 107 126v-578q-60 247 -124 332l-34 42q-15 14 -52 44q-77 63 -158 64h-3q-97 0 -159 -58q-64 -60 -64 -166v-6q0 -139 186 -222l364 -162q225 -100 240 -363v-39q-30 -196 -166 -318
q-133 -131 -352 -131h-8q-72 0 -208 41l-187 80l-13 5q-100 -8 -132 -127v772z" />
    <glyph glyph-name="sacute" unicode="&#x15b;" horiz-adv-x="1006" 
d="M489 1169l188 310q3 5 14 17q26 29 64 37q15 3 29 3q44 0 76 -32q29 -29 29 -73q0 -8 -1 -18q-4 -45 -35 -68l-17 -14l-327 -183zM90 262q0 55 38 93.5t92 38.5t92 -38.5t38 -93.5q0 -51 -38 -94q-8 -9 -18 -17l12 -10q90 -68 209 -68h3q95 0 157 50q54 44 58 153v19
q-5 107 -101 139l-272 80q-153 45 -192 217q-4 30 -4 59q0 99 79 196q95 116 265 116q159 0 271 -106q37 -35 57 -72q15 -28 15 -64q0 -54 -38 -93t-92 -39t-92 39t-38 94t38 93l19 13q-61 34 -139 34h-3q-67 -5 -121 -50q-44 -46 -44 -131v-14q0 -84 85 -120l237 -62
q104 -38 155 -82q96 -83 98 -249q-10 -123 -110 -227q-89 -91 -293 -91q-179 0 -314 116q-70 61 -92 104q-6 12 -9 20q-8 21 -8 47z" />
    <glyph glyph-name="Scircumflex" unicode="&#x15c;" horiz-adv-x="1306" 
d="M329 1583l188 310q2 3 14 17q18 23 50 33q22 7 38 7h3h2q14 0 38 -7q27 -8 50 -33q11 -12 14 -17l188 -310l-20 -21l-270 180l-275 -180zM120 746q42 -346 145 -496l19 -22q16 -23 80 -68q114 -80 270 -80h4q62 0 70 2q148 30 228 156q53 92 53 193v26q-9 125 -171 195
l-340 156q-254 118 -256 346v20q4 155 112 258q109 104 274 104h6q166 0 261 -125l8 -1q75 8 107 126v-578q-60 247 -124 332l-34 42q-15 14 -52 44q-77 63 -158 64h-3q-97 0 -159 -58q-64 -60 -64 -166v-6q0 -139 186 -222l364 -162q225 -100 240 -363v-39
q-30 -196 -166 -318q-133 -131 -352 -131h-8q-72 0 -208 41l-187 80l-13 5q-100 -8 -132 -127v772z" />
    <glyph glyph-name="scircumflex" unicode="&#x15d;" horiz-adv-x="1006" 
d="M217 1169l188 310q2 3 14 17q18 23 50 33q22 7 38 7h3h2q14 0 38 -7q27 -8 50 -33q11 -12 14 -17l188 -310l-20 -21l-270 180l-275 -180zM90 262q0 55 38 93.5t92 38.5t92 -38.5t38 -93.5q0 -51 -38 -94q-8 -9 -18 -17l12 -10q90 -68 209 -68h3q95 0 157 50q54 44 58 153
v19q-5 107 -101 139l-272 80q-153 45 -192 217q-4 30 -4 59q0 99 79 196q95 116 265 116q159 0 271 -106q37 -35 57 -72q15 -28 15 -64q0 -54 -38 -93t-92 -39t-92 39t-38 94t38 93l19 13q-61 34 -139 34h-3q-67 -5 -121 -50q-44 -46 -44 -131v-14q0 -84 85 -120l237 -62
q104 -38 155 -82q96 -83 98 -249q-10 -123 -110 -227q-89 -91 -293 -91q-179 0 -314 116q-70 61 -92 104q-6 12 -9 20q-8 21 -8 47z" />
    <glyph glyph-name="Scedilla" unicode="&#x15e;" horiz-adv-x="1306" 
d="M120 746q42 -346 145 -496l19 -22q16 -23 80 -68q114 -80 270 -80h4q62 0 70 2q148 30 228 156q53 92 53 193v26q-9 125 -171 195l-340 156q-254 118 -256 346v20q4 155 112 258q109 104 274 104h6q166 0 261 -125l8 -1q75 8 107 126v-578q-60 247 -124 332l-34 42
q-14 13 -52 44q-77 63 -158 64h-3q-97 0 -159 -58q-64 -60 -64 -166v-6q0 -139 186 -222l364 -162q225 -100 240 -363v-39q-30 -196 -166 -318q-120 -118 -310 -130q26 -43 39 -105q8 -38 8 -90q0 -33 -11 -71q-6 -21 -15 -43q-26 -62 -77 -85q-34 -15 -65 -15q-17 0 -33 4
q-53 13 -79 61q-17 31 -17 64q0 18 5 36q16 56 64 85q27 16 60 16q24 0 51 -9l1 26v13q0 37 -13 86q-4 15 -9 29q-66 8 -167 38l-187 80l-13 5q-100 -8 -132 -127v772z" />
    <glyph glyph-name="scedilla" unicode="&#x15f;" horiz-adv-x="1006" 
d="M90 262q0 55 38 93.5t92 38.5t92 -38.5t38 -93.5q0 -51 -38 -94q-8 -9 -18 -17l12 -10q90 -68 209 -68h3q95 0 157 50q54 44 58 153v19q-5 107 -101 139l-272 80q-153 45 -192 217q-4 30 -4 59q0 99 79 196q95 116 265 116q159 0 271 -106q37 -35 57 -72q15 -28 15 -64
q0 -54 -38 -93t-92 -39t-92 39t-38 94t38 93l19 13q-61 34 -139 34h-3q-67 -5 -121 -50q-44 -46 -44 -131v-14q0 -84 85 -120l237 -62q104 -38 155 -82q96 -83 98 -249q-10 -124 -110 -227q-75 -77 -232 -89q27 -43 41 -106q8 -36 8 -90q0 -33 -11 -71q-6 -21 -15 -43
q-26 -62 -77 -85q-34 -15 -65 -15q-17 0 -33 4q-53 13 -79 61q-17 31 -17 64q0 18 5 36q16 56 64 85q27 16 60 16q24 0 51 -9l1 26v13q0 25 -13 86q-3 14 -7 27q-163 7 -288 115q-70 60 -92 104q-6 12 -9 20q-8 21 -8 47z" />
    <glyph glyph-name="Scaron" unicode="&#x160;" horiz-adv-x="1306" 
d="M318 1929l20 21l275 -180l270 180l20 -21l-188 -310q-3 -5 -14 -17q-23 -25 -50 -33q-24 -7 -38 -7h-2h-3q-16 0 -38 7q-32 10 -50 33q-12 14 -14 17zM120 746q42 -346 145 -496l19 -22q16 -23 80 -68q114 -80 270 -80h4q62 0 70 2q148 30 228 156q53 92 53 193v26
q-9 125 -171 195l-340 156q-254 118 -256 346v20q4 155 112 258q109 104 274 104h6q166 0 261 -125l8 -1q75 8 107 126v-578q-60 247 -124 332l-34 42q-15 14 -52 44q-77 63 -158 64h-3q-97 0 -159 -58q-64 -60 -64 -166v-6q0 -139 186 -222l364 -162q225 -100 240 -363v-39
q-30 -196 -166 -318q-133 -131 -352 -131h-8q-72 0 -208 41l-187 80l-13 5q-100 -8 -132 -127v772z" />
    <glyph glyph-name="scaron" unicode="&#x161;" horiz-adv-x="1006" 
d="M215 1515l20 21l275 -180l270 180l20 -21l-188 -310q-3 -5 -14 -17q-23 -25 -50 -33q-24 -7 -38 -7h-2h-3q-16 0 -38 7q-32 10 -50 33q-12 14 -14 17zM90 262q0 55 38 93.5t92 38.5t92 -38.5t38 -93.5q0 -51 -38 -94q-8 -9 -18 -17l12 -10q90 -68 209 -68h3q95 0 157 50
q54 44 58 153v19q-5 107 -101 139l-272 80q-153 45 -192 217q-4 30 -4 59q0 99 79 196q95 116 265 116q159 0 271 -106q37 -35 57 -72q15 -28 15 -64q0 -54 -38 -93t-92 -39t-92 39t-38 94t38 93l19 13q-61 34 -139 34h-3q-67 -5 -121 -50q-44 -46 -44 -131v-14
q0 -84 85 -120l237 -62q104 -38 155 -82q96 -83 98 -249q-10 -123 -110 -227q-89 -91 -293 -91q-179 0 -314 116q-70 61 -92 104q-6 12 -9 20q-8 21 -8 47z" />
    <glyph glyph-name="Tcommaaccent" unicode="&#x162;" horiz-adv-x="1194" 
d="M308 0q124 24 188 140l2 8v1261h-287l-14 -1q-71 -7 -277 -219l186 322h982l186 -322q-206 212 -277 219l-14 1h-287v-1261l2 -9q54 -111 188 -139h-237q31 -51 48 -129q8 -37 8 -90q0 -33 -11 -71q-6 -21 -15 -43q-26 -62 -77 -85q-34 -15 -65 -15q-17 0 -33 4
q-53 13 -79 61q-17 31 -17 64q0 18 5 36q16 56 64 85q27 16 60 16q24 0 51 -9l1 26v13q0 41 -13 86q-8 28 -19 51h-249z" />
    <glyph glyph-name="tcommaaccent" unicode="&#x163;" horiz-adv-x="920" 
d="M-50 848l179 294q-6 -25 -6 -51q0 -65 71 -65h5h4h157v288q0 23 -13 35q-15 14 -65 24l-112 23q91 40 306 114q38 13 82 26v-510h215h8q126 7 189 76l-179 -294q6 25 6 51q0 65 -71 65h-5h-4h-159v-776l2 -9q54 -111 188 -139h-237q31 -51 48 -129q8 -37 8 -90
q0 -33 -11 -71q-6 -21 -15 -43q-26 -62 -77 -85q-34 -15 -65 -15q-17 0 -33 4q-53 13 -79 61q-17 31 -17 64q0 18 5 36q16 56 64 85q27 16 60 16q24 0 51 -9l1 26v13q0 41 -13 86q-8 28 -19 51h-249q124 24 188 140l2 8v776h-213h-8q-126 -7 -189 -76z" />
    <glyph glyph-name="Tcaron" unicode="&#x164;" horiz-adv-x="1194" 
d="M313 1929l20 21l275 -180l270 180l20 -21l-188 -310q-3 -5 -14 -17q-23 -25 -50 -33q-24 -7 -38 -7h-2h-3q-16 0 -38 7q-32 10 -50 33q-12 14 -14 17zM308 0q124 24 188 140l2 8v1261h-287l-14 -1q-71 -7 -277 -219l186 322h982l186 -322q-206 212 -277 219l-14 1h-287
v-1261l2 -9q54 -111 188 -139h-578z" />
    <glyph glyph-name="tcaron" unicode="&#x165;" horiz-adv-x="920" 
d="M580 1169l188 310q3 5 14 17q26 29 64 37q15 3 29 3q44 0 76 -32q29 -29 29 -73q0 -8 -1 -18q-4 -45 -35 -68l-17 -14l-327 -183zM-50 848l179 294q-6 -25 -6 -51q0 -65 71 -65h5h4h157v288q0 23 -13 35q-15 14 -65 24q-56 11 -112 23q91 40 306 114q38 13 82 26v-510
h215h8q126 7 189 76l-179 -294q6 25 6 51q0 65 -71 65h-5h-4h-159v-776l2 -9q54 -111 188 -139h-578q124 24 188 140l2 8v776h-213h-8q-126 -7 -189 -76z" />
    <glyph glyph-name="Tbar" unicode="&#x166;" horiz-adv-x="1194" 
d="M308 0q124 24 188 140l2 8v635h-117h-8q-126 -7 -189 -76l179 294q-6 -25 -6 -51q0 -65 71 -65h5h4h61v524h-287l-14 -1q-71 -7 -277 -219l186 322h982l186 -322q-206 212 -277 219l-14 1h-287v-524h113h8q126 7 189 76l-179 -294q6 25 6 51q0 65 -71 65h-5h-4h-57v-635
l2 -9q54 -111 188 -139h-578z" />
    <glyph glyph-name="tbar" unicode="&#x167;" horiz-adv-x="920" 
d="M-50 848l179 294q-6 -25 -6 -51q0 -65 71 -65h5h4h157v288q0 23 -13 35q-15 14 -65 24l-112 23q91 40 306 114q38 13 82 26v-510h215h8q126 7 189 76l-179 -294q6 25 6 51q0 65 -71 65h-5h-4h-159v-264h119h8q126 7 189 76l-179 -294q6 25 6 51q0 65 -71 65h-5h-4h-63
v-410l2 -9q54 -111 188 -139h-578q124 24 188 140l2 8v410h-111h-8q-126 -7 -189 -76l179 294q-6 -25 -6 -51q0 -65 71 -65h5h4h55v264h-213h-8q-126 -7 -189 -76z" />
    <glyph glyph-name="Utilde" unicode="&#x168;" horiz-adv-x="1547" 
d="M514 1700q59 250 185 250q13 0 30 -4q38 -9 130 -71l87 -61q26 -22 58 -22h3q61 0 145 110q-54 -257 -182 -269q-12 -1 -24 2q-40 10 -131 74l-86 58q-28 20 -62 21h-1q-64 0 -152 -88zM60 1511h578q-134 -28 -188 -139l-2 -9v-865q5 -149 106 -254q108 -112 262 -112
t262 112q101 105 107 254v865l-2 8q-64 116 -188 140h492q-134 -28 -188 -139l-2 -9v-865v-3q0 -106 -41.5 -202t-110.5 -166q-70 -70 -167 -111t-204 -41t-204 41t-167 111q-69 70 -111 166t-42 202v3v865l-2 8q-64 116 -188 140z" />
    <glyph glyph-name="utilde" unicode="&#x169;" horiz-adv-x="1288" 
d="M286 1286q59 250 185 250q13 0 30 -4q38 -9 130 -71l87 -61q26 -22 58 -22h3q61 0 145 110q-54 -257 -182 -269q-12 -1 -24 2q-40 10 -131 74l-86 58q-28 20 -62 21h-1q-64 0 -152 -88zM1248 1077q-124 -24 -188 -140l-2 -8v-732q0 -25 13 -35q20 -16 61 -25
q91 -20 116 -22q-56 -25 -306 -114q-42 -15 -82 -26v77l-3 -2q-100 -75 -223 -75q-121 0 -223 75q-101 74 -161 206t-60 283v6v335q0 25 -13 35q-21 16 -61 25q-88 20 -116 22q56 25 306 114q42 15 82 26v-559v-4q0 -228 87 -338q82 -104 197 -104h4q127 0 184 92v740l-2 9
q-54 111 -188 139h578z" />
    <glyph glyph-name="Umacron" unicode="&#x16a;" horiz-adv-x="1547" 
d="M499 1950h583v-177h-583v177zM60 1511h578q-134 -28 -188 -139l-2 -9v-865q5 -149 106 -254q108 -112 262 -112t262 112q101 105 107 254v865l-2 8q-64 116 -188 140h492q-134 -28 -188 -139l-2 -9v-865v-3q0 -106 -41.5 -202t-110.5 -166q-70 -70 -167 -111t-204 -41
t-204 41t-167 111q-69 70 -111 166t-42 202v3v865l-2 8q-64 116 -188 140z" />
    <glyph glyph-name="umacron" unicode="&#x16b;" horiz-adv-x="1288" 
d="M339 1511h583v-177h-583v177zM1248 1077q-124 -24 -188 -140l-2 -8v-732q0 -25 13 -35q20 -16 61 -25q91 -20 116 -22q-56 -25 -306 -114q-42 -15 -82 -26v77l-3 -2q-100 -75 -223 -75q-121 0 -223 75q-101 74 -161 206t-60 283v6v335q0 25 -13 35q-21 16 -61 25
q-88 20 -116 22q56 25 306 114q42 15 82 26v-559v-4q0 -228 87 -338q82 -104 197 -104h4q127 0 184 92v740l-2 9q-54 111 -188 139h578z" />
    <glyph glyph-name="Ubreve" unicode="&#x16c;" horiz-adv-x="1547" 
d="M513 1833l114 117q34 -29 40 -35q79 -61 191 -61q92 0 159 60l33 33l133 -102q-57 -60 -127 -102q-100 -60 -213 -60t-217 63q-68 41 -113 87zM60 1511h578q-134 -28 -188 -139l-2 -9v-865q5 -149 106 -254q108 -112 262 -112t262 112q101 105 107 254v865l-2 8
q-64 116 -188 140h492q-134 -28 -188 -139l-2 -9v-865v-3q0 -106 -41.5 -202t-110.5 -166q-70 -70 -167 -111t-204 -41t-204 41t-167 111q-69 70 -111 166t-42 202v3v865l-2 8q-64 116 -188 140z" />
    <glyph glyph-name="ubreve" unicode="&#x16d;" horiz-adv-x="1288" 
d="M322 1419l114 117q34 -29 40 -35q79 -61 191 -61q92 0 159 60l33 33l133 -102q-57 -60 -127 -102q-100 -60 -213 -60t-217 63q-68 41 -113 87zM1248 1077q-124 -24 -188 -140l-2 -8v-732q0 -25 13 -35q20 -16 61 -25q91 -20 116 -22q-56 -25 -306 -114q-42 -15 -82 -26
v77l-3 -2q-100 -75 -223 -75q-121 0 -223 75q-101 74 -161 206t-60 283v6v335q0 25 -13 35q-21 16 -61 25q-88 20 -116 22q56 25 306 114q42 15 82 26v-559v-4q0 -228 87 -338q82 -104 197 -104h4q127 0 184 92v740l-2 9q-54 111 -188 139h578z" />
    <glyph glyph-name="Uring" unicode="&#x16e;" horiz-adv-x="1547" 
d="M763 1752q0 -53 16 -83t45 -30q19 0 37 28q20 32 20 95q0 59 -20 88q-18 26 -40 26q-23 0 -40.5 -25.5t-17.5 -98.5zM656 1765q0 45 23 91q21 43 59 68q38 26 85 26q48 0 85 -25q36 -24 59 -69q22 -43 23 -98q-1 -46 -23 -89q-23 -45 -59 -69q-37 -25 -85 -25
q-43 0 -85 25q-46 28 -63 68q-19 45 -19 80v3v14zM60 1511h578q-134 -28 -188 -139l-2 -9v-865q5 -149 106 -254q108 -112 262 -112t262 112q101 105 107 254v865l-2 8q-64 116 -188 140h492q-134 -28 -188 -139l-2 -9v-865v-3q0 -106 -41.5 -202t-110.5 -166
q-70 -70 -167 -111t-204 -41t-204 41t-167 111q-69 70 -111 166t-42 202v3v865l-2 8q-64 116 -188 140z" />
    <glyph glyph-name="uring" unicode="&#x16f;" horiz-adv-x="1288" 
d="M576 1338q0 -53 16 -83t45 -30q19 0 37 28q20 32 20 95q0 59 -20 88q-18 26 -40 26q-23 0 -40.5 -25.5t-17.5 -98.5zM469 1351q0 45 23 91q21 43 59 68q38 26 85 26q48 0 85 -25q36 -24 59 -69q22 -43 23 -98q-1 -46 -23 -89q-23 -45 -59 -69q-37 -25 -85 -25
q-43 0 -85 25q-46 28 -63 68q-19 45 -19 80v3v14zM1248 1077q-124 -24 -188 -140l-2 -8v-732q0 -25 13 -35q20 -16 61 -25q91 -20 116 -22q-56 -25 -306 -114q-42 -15 -82 -26v77l-3 -2q-100 -75 -223 -75q-121 0 -223 75q-101 74 -161 206t-60 283v6v335q0 25 -13 35
q-21 16 -61 25q-88 20 -116 22q56 25 306 114q42 15 82 26v-559v-4q0 -228 87 -338q82 -104 197 -104h4q127 0 184 92v740l-2 9q-54 111 -188 139h578z" />
    <glyph glyph-name="Uhungarumlaut" unicode="&#x170;" horiz-adv-x="1547" 
d="M514 1583l188 310q3 5 14 17q26 29 64 37q15 3 29 3q44 0 76 -32q29 -29 29 -73q0 -8 -1 -18q-4 -45 -35 -68l-17 -14l-327 -183zM830 1583l188 310q3 5 14 17q26 29 64 37q15 3 29 3q44 0 76 -32q29 -29 29 -73q0 -8 -1 -18q-4 -45 -35 -68l-17 -14l-327 -183zM60 1511
h578q-134 -28 -188 -139l-2 -9v-865q5 -149 106 -254q108 -112 262 -112t262 112q101 105 107 254v865l-2 8q-64 116 -188 140h492q-134 -28 -188 -139l-2 -9v-865v-3q0 -106 -41.5 -202t-110.5 -166q-70 -70 -167 -111t-204 -41t-204 41t-167 111q-69 70 -111 166t-42 202
v3v865l-2 8q-64 116 -188 140z" />
    <glyph glyph-name="uhungarumlaut" unicode="&#x171;" horiz-adv-x="1288" 
d="M376 1169l188 310q3 5 14 17q26 29 64 37q15 3 29 3q44 0 76 -32q29 -29 29 -73q0 -8 -1 -18q-4 -45 -35 -68l-17 -14l-327 -183zM692 1169l188 310q3 5 14 17q26 29 64 37q15 3 29 3q44 0 76 -32q29 -29 29 -73q0 -8 -1 -18q-4 -45 -35 -68l-17 -14l-327 -183z
M1248 1077q-124 -24 -188 -140l-2 -8v-732q0 -25 13 -35q20 -16 61 -25q91 -20 116 -22q-56 -25 -306 -114q-42 -15 -82 -26v77l-3 -2q-100 -75 -223 -75q-121 0 -223 75q-101 74 -161 206t-60 283v6v335q0 25 -13 35q-21 16 -61 25q-88 20 -116 22q56 25 306 114
q42 15 82 26v-559v-4q0 -228 87 -338q82 -104 197 -104h4q127 0 184 92v740l-2 9q-54 111 -188 139h578z" />
    <glyph glyph-name="Uogonek" unicode="&#x172;" horiz-adv-x="1547" 
d="M60 1511h578q-134 -28 -188 -139l-2 -9v-865q5 -149 106 -254q108 -112 262 -112t262 112q101 105 107 254v865l-2 8q-64 116 -188 140h492q-134 -28 -188 -139l-2 -9v-865v-3q0 -106 -41 -202q-43 -98 -111 -166q-65 -65 -153 -105q-20 -31 -32 -73q-13 -45 -13 -86v-13
l1 -26q27 9 51 9q33 0 60 -16q48 -29 64 -85q5 -18 5 -36q0 -33 -17 -64q-26 -48 -79 -61q-16 -4 -33 -4q-31 0 -65 15q-52 23 -77 85q-9 22 -15 43q-11 38 -11 71q0 54 8 90q15 67 39 114q-51 -10 -104 -10q-107 0 -204 41t-167 111q-69 70 -111 166t-42 202v3v865l-2 8
q-64 116 -188 140z" />
    <glyph glyph-name="uogonek" unicode="&#x173;" horiz-adv-x="1288" 
d="M1248 1077q-124 -24 -188 -140l-2 -8v-732q0 -25 13 -35q20 -16 61 -25q91 -20 116 -22q-43 -19 -205 -78q-28 -35 -43 -88q-13 -46 -13 -86v-13l1 -26q27 9 51 9q33 0 60 -16q48 -29 64 -85q5 -18 5 -36q0 -33 -17 -64q-26 -48 -79 -61q-16 -4 -33 -4q-31 0 -65 15
q-52 23 -77 85q-9 22 -15 43q-11 38 -11 71q0 53 8 90q16 74 45 124q-33 -11 -64 -20v77l-3 -2q-100 -75 -223 -75q-121 0 -223 75q-101 74 -161 206t-60 283v6v335q0 25 -13 35q-21 16 -61 25q-89 20 -116 22q54 24 306 114q42 15 82 26v-559v-4q0 -228 87 -338
q82 -104 197 -104h4q127 0 184 92v740l-2 9q-54 111 -188 139h578z" />
    <glyph glyph-name="Wcircumflex" unicode="&#x174;" horiz-adv-x="1877" 
d="M663 1583l188 310q2 3 14 17q18 23 50 33q22 7 38 7h3h2q14 0 38 -7q27 -8 50 -33q11 -12 14 -17l188 -310l-20 -21l-270 180l-275 -180zM-70 1511h578q-191 -69 -191 -126q0 -7 2 -13l3 -9l393 -973l172 438l-259 683h202l157 -425l165 425h117l-223 -567l220 -569
l374 988l2 8q2 6 2 12v1q0 57 -190 127h493q-123 -24 -187 -140l-3 -8l-535 -1403l-276 729l-281 -729l-545 1403l-1 3l-3 9q-64 112 -186 136z" />
    <glyph glyph-name="wcircumflex" unicode="&#x175;" horiz-adv-x="1812" 
d="M917 753l-342 -793l-425 969l-1 3l-3 9q-64 112 -186 136h578q-191 -85 -191 -131q0 -4 2 -8l3 -9l270 -589l342 777l336 -781l256 592l3 10q2 5 2 11q0 58 -191 127l482 1q-123 -24 -187 -140l-3 -8l-415 -969zM667 1169l188 310q2 3 14 17q18 23 50 33q22 7 38 7h3h2
q14 0 38 -7q27 -8 50 -33q11 -12 14 -17l188 -310l-20 -21l-270 180l-275 -180z" />
    <glyph glyph-name="Ycircumflex" unicode="&#x176;" horiz-adv-x="1320" 
d="M407 1583l188 310q2 3 14 17q18 23 50 33q22 7 38 7h3h2q14 0 38 -7q27 -8 50 -33q11 -12 14 -17l188 -310l-20 -21l-270 180l-275 -180zM370 0q124 24 188 140l2 8v494h-85l-355 721l-1 3l-3 9q-64 112 -186 136h578q-194 -69 -194 -124q0 -8 4 -15l4 -9l352 -721h48
l361 721l4 9q4 7 4 15q-1 55 -194 124h493q-123 -24 -187 -140l-3 -8l-369 -721h-73v-494l2 -9q54 -111 188 -139h-578z" />
    <glyph glyph-name="ycircumflex" unicode="&#x177;" horiz-adv-x="1140" 
d="M-40 1077h578q-191 -85 -191 -131q0 -4 2 -8l3 -9l250 -675l269 675l3 10q2 7 2 11q-5 60 -191 127h495q-123 -24 -187 -140l-3 -8l-468 -1169l-12 -30q-68 -152 -210 -163h-13h-12q-118 0 -214 97q-41 48 -41 95q0 57 36 93q38 38 93 38q54 0 93 -42t39 -96
q0 -46 -34 -82q28 -12 52 -12q39 1 67 30l24 32q63 154 102 262l-342 947l-1 3l-3 9q-64 112 -186 136zM348 1169l188 310q2 3 14 17q18 23 50 33q22 7 38 7h3h2q14 0 38 -7q27 -8 50 -33q11 -12 14 -17l188 -310l-20 -21l-270 180l-275 -180z" />
    <glyph glyph-name="Ydieresis" unicode="&#x178;" horiz-adv-x="1320" 
d="M790 1804q0 55 38 93.5t92 38.5t92 -38.5t38 -93.5t-38 -93.5t-92 -38.5t-92 38.5t-38 93.5zM453 1804q0 55 38 93.5t92 38.5t92 -38.5t38 -93.5t-38 -93.5t-92 -38.5t-92 38.5t-38 93.5zM370 0q124 24 188 140l2 8v494h-85l-355 721l-1 3l-3 9q-64 112 -186 136h578
q-194 -69 -194 -124q0 -8 4 -15l4 -9l352 -721h48l361 721l4 9q4 7 4 15q-1 55 -194 124h493q-123 -24 -187 -140l-3 -8l-369 -721h-73v-494l2 -9q54 -111 188 -139h-578z" />
    <glyph glyph-name="Zacute" unicode="&#x179;" horiz-adv-x="1181" 
d="M545 1583l188 310q3 5 14 17q26 29 64 37q15 3 29 3q44 0 76 -32q29 -29 29 -73q0 -8 -1 -18q-4 -45 -35 -68l-17 -14l-327 -183zM0 0l849 1409h-502l-14 -1q-71 -7 -277 -219l186 322h886l-827 -1409h589l14 1q71 7 277 219l-186 -322h-995z" />
    <glyph glyph-name="zacute" unicode="&#x17a;" horiz-adv-x="997" 
d="M428 1169l188 310q3 5 14 17q26 29 64 37q15 3 29 3q44 0 76 -32q29 -29 29 -73q0 -8 -1 -18q-4 -45 -35 -68l-17 -14l-327 -183zM0 0l650 975h-318l-14 -1q-71 -7 -277 -219l186 322h702l-628 -975h405l14 1q71 7 277 219l-186 -322h-811z" />
    <glyph glyph-name="Zdotaccent" unicode="&#x17b;" horiz-adv-x="1181" 
d="M545 1803q0 55 38 93.5t92 38.5t92 -38.5t38 -93.5t-38 -93.5t-92 -38.5t-92 38.5t-38 93.5zM0 0l849 1409h-502l-14 -1q-71 -7 -277 -219l186 322h886l-827 -1409h589l14 1q71 7 277 219l-186 -322h-995z" />
    <glyph glyph-name="zdotaccent" unicode="&#x17c;" horiz-adv-x="997" 
d="M448 1404q0 55 38 93.5t92 38.5t92 -38.5t38 -93.5t-38 -93.5t-92 -38.5t-92 38.5t-38 93.5zM0 0l650 975h-318l-14 -1q-71 -7 -277 -219l186 322h702l-628 -975h405l14 1q71 7 277 219l-186 -322h-811z" />
    <glyph glyph-name="Zcaron" unicode="&#x17d;" horiz-adv-x="1181" 
d="M397 1929l20 21l275 -180l270 180l20 -21l-188 -310q-3 -5 -14 -17q-23 -25 -50 -33q-24 -7 -38 -7h-2h-3q-16 0 -38 7q-32 10 -50 33q-12 14 -14 17zM0 0l849 1409h-502l-14 -1q-71 -7 -277 -219l186 322h886l-827 -1409h589l14 1q71 7 277 219l-186 -322h-995z" />
    <glyph glyph-name="zcaron" unicode="&#x17e;" horiz-adv-x="997" 
d="M263 1515l20 21l275 -180l270 180l20 -21l-188 -310q-3 -5 -14 -17q-23 -25 -50 -33q-24 -7 -38 -7h-2h-3q-16 0 -38 7q-32 10 -50 33q-12 14 -14 17zM0 0l650 975h-318l-14 -1q-71 -7 -277 -219l186 322h702l-628 -975h405l14 1q71 7 277 219l-186 -322h-811z" />
    <glyph glyph-name="longs" unicode="&#x17f;" horiz-adv-x="1141" 
d="M154 0q124 24 188 140l2 8v596h-197h-8q-126 -7 -189 -76l179 294q-6 -25 -6 -51q0 -65 71 -65h5h4h141v435q0 23 -13 35q-17 15 -61 25q-92 21 -116 22q61 28 306 114q168 59 290 59h8q162 0 282 -112q101 -117 101 -233v-5q0 -55 -38 -96q-37 -40 -92 -40t-92 38
q-38 39 -38 91v3q0 56 38 94q36 36 86 38q-9 42 -99 94q-26 15 -120 25q-9 1 -21 0q-123 -10 -180 -59l-29 -26q-14 -13 -14 -67v-1133l2 -9q54 -111 188 -139h-578z" />
    <glyph glyph-name="florin" unicode="&#x192;" horiz-adv-x="1027" 
d="M40 -433q190 203 190 452v8v1254q0 21 -13 35q-15 16 -64 25q-105 19 -113 22q61 28 306 114q168 59 290 59h8q162 0 282 -112q101 -117 101 -233v-5q0 -55 -38 -96q-37 -40 -92 -40t-92 38q-38 39 -38 91v3q0 56 38 94q36 36 86 38q-9 42 -99 94q-26 15 -120 25
q-9 1 -21 0q-123 -10 -180 -59l-29 -26q-7 -6 -10 -23l-2 -475h199h8q126 7 189 76l-179 -294q6 25 6 51q0 65 -71 65h-5h-4h-143l-2 -721v-8q0 -335 -381 -451z" />
    <glyph glyph-name="uni01E4" unicode="&#x1e4;" horiz-adv-x="1350" 
d="M130 744q0 164 44 316q45 155 120 254q78 103 180 162q103 60 208 60h10q116 0 215 -52q68 -36 108 -73l8 -1q100 8 132 127v-578q-52 204 -122 320q-34 53 -87 92q-82 60 -194 60q-118 0 -228 -87q-87 -85 -136 -260q-46 -165 -46 -323v-13q0 -156 32 -284
q58 -215 124 -286q91 -98 202 -98q94 0 187 85q70 78 100 147h-11h-213h-8q-126 -7 -189 -76l179 294q-6 -25 -6 -51q0 -65 71 -65h5h4h157h33v10q0 52 -19 86l-5 7q-75 105 -255 125h520q-10 -106 -40 -202l-8 -26q124 8 186 76l-179 -294q6 25 6 51q0 58 -56 64
q-30 -62 -69 -114q-75 -100 -180 -161q-104 -61 -218 -61t-218 60.5t-180 161.5q-76 102 -120 242.5t-44 304.5z" />
    <glyph glyph-name="uni01E5" unicode="&#x1e5;" 
d="M328 535q0 -221 64 -330q66 -108 196 -108q100 0 153 79q27 40 29 72v9v590q0 51 -14 67l-10 15q-78 77 -177 77h-13q-115 -4 -178 -139q-50 -107 -50 -332zM110 551q0 148 59 275q60 129 162 201q106 75 245 75q108 0 276 -59q248 -87 306 -114q-23 -2 -116 -22
q-40 -9 -61 -25q-13 -10 -13 -35v-847q-3 -54 -15 -102h45h8q126 7 189 76l-179 -294q6 25 6 51q0 65 -71 65h-5h-4h-28q-41 -76 -114 -128q-143 -102 -292 -102q-11 0 -24 1q-159 13 -239 97q-41 43 -41 95q0 57 36 93q38 38 93 38q54 0 93 -43t39 -97q0 -44 -34 -80
q21 -12 57 -12t86 12q97 23 140 84q12 17 23 42h-167l56 102h139q5 38 5 82v20v45q-99 -70 -216 -70q-122 0 -223 75q-100 74 -161 206q-60 130 -60 295z" />
    <glyph glyph-name="Scommaaccent" unicode="&#x218;" horiz-adv-x="1306" 
d="M682 -66l-188 -310q-3 -5 -14 -17q-26 -29 -64 -37q-15 -3 -29 -3q-44 0 -76 32q-29 29 -29 73q0 8 1 18q4 45 35 68l17 14l327 183zM120 746q42 -346 145 -496l19 -22q16 -23 80 -68q114 -80 270 -80h4q62 0 70 2q148 30 228 156q53 92 53 193v26q-9 125 -171 195
l-340 156q-254 118 -256 346v20q4 155 112 258q109 104 274 104h6q166 0 261 -125l8 -1q75 8 107 126v-578q-60 247 -124 332l-34 42q-15 14 -52 44q-77 63 -158 64h-3q-97 0 -159 -58q-64 -60 -64 -166v-6q0 -139 186 -222l364 -162q225 -100 240 -363v-39
q-30 -196 -166 -318q-133 -131 -352 -131h-8q-72 0 -208 41l-187 80l-13 5q-100 -8 -132 -127v772z" />
    <glyph glyph-name="scommaaccent" unicode="&#x219;" horiz-adv-x="1006" 
d="M533 -66l-188 -310q-3 -5 -14 -17q-26 -29 -64 -37q-15 -3 -29 -3q-44 0 -76 32q-29 29 -29 73q0 8 1 18q4 45 35 68l17 14l327 183zM90 262q0 55 38 93.5t92 38.5t92 -38.5t38 -93.5q0 -51 -38 -94q-8 -9 -18 -17l12 -10q90 -68 209 -68h3q95 0 157 50q54 44 58 153v19
q-5 107 -101 139l-272 80q-153 45 -192 217q-4 30 -4 59q0 99 79 196q95 116 265 116q159 0 271 -106q37 -35 57 -72q15 -28 15 -64q0 -54 -38 -93t-92 -39t-92 39t-38 94t38 93l19 13q-61 34 -139 34h-3q-67 -5 -121 -50q-44 -46 -44 -131v-14q0 -84 85 -120l237 -62
q104 -38 155 -82q96 -83 98 -249q-10 -123 -110 -227q-89 -91 -293 -91q-179 0 -314 116q-70 61 -92 104q-6 12 -9 20q-8 21 -8 47z" />
    <glyph glyph-name="uni021A" unicode="&#x21a;" horiz-adv-x="1194" 
d="M619 -66l-188 -310q-3 -5 -14 -17q-26 -29 -64 -37q-15 -3 -29 -3q-44 0 -76 32q-29 29 -29 73q0 8 1 18q4 45 35 68l17 14l327 183zM308 0q124 24 188 140l2 8v1261h-287l-14 -1q-71 -7 -277 -219l186 322h982l186 -322q-206 212 -277 219l-14 1h-287v-1261l2 -9
q54 -111 188 -139h-578z" />
    <glyph glyph-name="uni021B" unicode="&#x21b;" horiz-adv-x="920" 
d="M484 -66l-188 -310q-3 -5 -14 -17q-26 -29 -64 -37q-15 -3 -29 -3q-44 0 -76 32q-29 29 -29 73q0 8 1 18q4 45 35 68l17 14l327 183zM-50 848l179 294q-6 -25 -6 -51q0 -65 71 -65h5h4h157v288q0 23 -13 35q-15 14 -65 24q-56 11 -112 23q91 40 306 114q38 13 82 26v-510
h215h8q126 7 189 76l-179 -294q6 25 6 51q0 65 -71 65h-5h-4h-159v-776l2 -9q54 -111 188 -139h-578q124 24 188 140l2 8v776h-213h-8q-126 -7 -189 -76z" />
    <glyph glyph-name="Delta" unicode="&#x394;" horiz-adv-x="1420" 
d="M-20 0q123 24 187 140l3 8l535 1403l545 -1403l1 -3l3 -9q64 -112 186 -136h-1460zM282 106h760l-379 1007z" />
    <glyph glyph-name="Pi" unicode="&#x3a0;" horiz-adv-x="1488" 
d="M60 0q124 24 188 140l2 8v1215l-2 8q-64 116 -188 140h1368q-134 -28 -188 -139l-2 -9v-1215l2 -9q54 -111 188 -139h-578q124 24 188 140l2 8v1243h-592v-1243l2 -9q54 -111 188 -139h-578z" />
    <glyph glyph-name="Sigma" unicode="&#x3a3;" horiz-adv-x="1382" 
d="M470 102h561l14 1q71 7 277 219l-186 -322h-1076q97 39 183 137l7 11l436 596l-436 619l-7 11q-83 115 -183 137h946l186 -322q-206 212 -277 219l-14 1h-431l477 -662z" />
    <glyph glyph-name="Omega" unicode="&#x3a9;" horiz-adv-x="1516" 
d="M0 414q206 -212 277 -219l14 -1h221v77q-8 4 -9 4q-40 29 -136 138q-90 103 -126 207q-43 124 -43 231v9q0 125 43 248q34 97 134 221q76 94 167 147q103 60 218 60q108 0 218 -60q92 -50 177 -150q70 -83 123 -219q44 -113 44 -241v-6q0 -143 -45 -240
q-51 -110 -117 -189q-91 -109 -150 -155l-9 -5v-78h224l14 1q71 7 277 219l-186 -414h-430v375q29 20 57 47q88 95 115 177q40 122 40 248q1 13 0 28q-11 167 -36 254q-40 115 -138 218q-81 85 -177 85h-2q-98 -1 -171 -67q-76 -69 -139 -222q-43 -105 -43 -280
q0 -132 31 -220q42 -120 132 -224q19 -22 47 -43v-375h-430z" />
    <glyph glyph-name="mu" unicode="&#x3bc;" horiz-adv-x="1287" 
d="M20 -433q190 203 190 452v8v853q0 25 -13 35q-21 16 -61 25q-88 20 -116 22q56 25 306 114q42 15 82 26v-559v-4q0 -228 87 -338q82 -104 197 -104h4q127 0 184 92v740l-2 9q-54 111 -188 139h578q-124 -24 -188 -140l-2 -8v-732q0 -25 13 -35q20 -16 61 -25
q91 -20 116 -22q-56 -25 -306 -114q-42 -15 -82 -26v77l-3 -2q-100 -75 -223 -75t-223 75q-12 9 -23 18v-41v-8q0 -335 -381 -451z" />
    <glyph glyph-name="pi" unicode="&#x3c0;" horiz-adv-x="1270" 
d="M20 0q124 24 188 140l2 8v804l-2 8q-64 116 -188 140h1230q-134 -28 -188 -139l-2 -9v-804l2 -9q54 -111 188 -139h-578q124 24 188 140l2 8v832h-454v-832l2 -9q54 -111 188 -139h-578z" />
    <glyph glyph-name="uni2010" unicode="&#x2010;" horiz-adv-x="920" 
d="M200 798l520 -1v-197l-520 1v197z" />
    <glyph glyph-name="uni2011" unicode="&#x2011;" horiz-adv-x="920" 
d="M200 798l520 -1v-197l-520 1v197z" />
    <glyph glyph-name="figuredash" unicode="&#x2012;" horiz-adv-x="1233" 
d="M200 798h833v-197h-833v197z" />
    <glyph glyph-name="endash" unicode="&#x2013;" horiz-adv-x="1233" 
d="M200 798h833v-197h-833v197z" />
    <glyph glyph-name="emdash" unicode="&#x2014;" horiz-adv-x="1073" 
d="M0 797h1073v-197h-1073v197z" />
    <glyph glyph-name="afii00208" unicode="&#x2015;" horiz-adv-x="1073" 
d="M0 797h1073v-197h-1073v197z" />
    <glyph glyph-name="underscoredbl" unicode="&#x2017;" horiz-adv-x="1233" 
d="M200 197h833v-197h-833v197z" />
    <glyph glyph-name="quoteleft" unicode="&#x2018;" horiz-adv-x="712" 
d="M512 1536l-10 -10q-73 -68 -100 -132q-19 -46 -22 -87v-21q33 -8 59 -34q38 -38 38 -94q0 -55 -38 -93.5t-92 -38.5q-48 0 -92 36q-43 35 -52 102q-3 23 -3 45q0 80 39 157q73 143 182 166q29 6 57 6q16 0 34 -2z" />
    <glyph glyph-name="quoteright" unicode="&#x2019;" horiz-adv-x="712" 
d="M200 1028l10 10q73 68 100 132q19 46 22 87v21q-33 8 -59 34q-38 38 -38 94q0 55 38 93.5t92 38.5q48 0 92 -36q43 -35 52 -102q3 -23 3 -45q0 -80 -39 -157q-73 -143 -182 -166q-29 -6 -57 -6q-16 0 -34 2z" />
    <glyph glyph-name="quotesinglbase" unicode="&#x201a;" horiz-adv-x="712" 
d="M200 -275l10 10q73 68 100 132q19 46 22 87v21q-33 8 -59 34q-38 38 -38 94q0 55 38 93.5t92 38.5q48 0 92 -36q43 -35 52 -102q3 -23 3 -45q0 -80 -39 -157q-73 -143 -182 -166q-29 -6 -57 -6q-16 0 -34 2z" />
    <glyph glyph-name="quotereversed" unicode="&#x201b;" horiz-adv-x="712" 
d="M512 1028q-18 -2 -34 -2q-28 0 -57 6q-109 23 -182 166q-39 77 -39 157q0 22 3 45q9 67 52 102q44 36 92 36q54 0 92 -38.5t38 -93.5q0 -56 -38 -94q-26 -26 -59 -34v-21q3 -41 22 -87q27 -64 100 -132z" />
    <glyph glyph-name="quotedblleft" unicode="&#x201c;" horiz-adv-x="1069" 
d="M869 1536l-10 -10q-73 -68 -100 -132q-19 -46 -22 -87v-21q33 -8 59 -34q38 -38 38 -94q0 -55 -38 -93.5t-92 -38.5q-48 0 -92 36q-43 35 -52 102q-3 23 -3 45q0 80 39 157q73 143 182 166q29 6 57 6q16 0 34 -2zM512 1536l-10 -10q-73 -68 -100 -132q-19 -46 -22 -87
v-21q33 -8 59 -34q38 -38 38 -94q0 -55 -38 -93.5t-92 -38.5q-48 0 -92 36q-43 35 -52 102q-3 23 -3 45q0 80 39 157q73 143 182 166q29 6 57 6q16 0 34 -2z" />
    <glyph glyph-name="quotedblright" unicode="&#x201d;" horiz-adv-x="1069" 
d="M200 1028l10 10q73 68 100 132q19 46 22 87v21q-33 8 -59 34q-38 38 -38 94q0 55 38 93.5t92 38.5q48 0 92 -36q43 -35 52 -102q3 -23 3 -45q0 -80 -39 -157q-73 -143 -182 -166q-29 -6 -57 -6q-16 0 -34 2zM557 1028l10 10q73 68 100 132q19 46 22 87v21q-33 8 -59 34
q-38 38 -38 94q0 55 38 93.5t92 38.5q48 0 92 -36q43 -35 52 -102q3 -23 3 -45q0 -80 -39 -157q-73 -143 -182 -166q-29 -6 -57 -6q-16 0 -34 2z" />
    <glyph glyph-name="quotedblbase" unicode="&#x201e;" horiz-adv-x="1069" 
d="M557 -275l10 10q73 68 100 132q19 46 22 87v21q-33 8 -59 34q-38 38 -38 94q0 55 38 93.5t92 38.5q48 0 92 -36q43 -35 52 -102q3 -23 3 -45q0 -80 -39 -157q-73 -143 -182 -166q-29 -6 -57 -6q-16 0 -34 2zM200 -275l10 10q73 68 100 132q19 46 22 87v21q-33 8 -59 34
q-38 38 -38 94q0 55 38 93.5t92 38.5q48 0 92 -36q43 -35 52 -102q3 -23 3 -45q0 -80 -39 -157q-73 -143 -182 -166q-29 -6 -57 -6q-16 0 -34 2z" />
    <glyph glyph-name="uni201F" unicode="&#x201f;" horiz-adv-x="1069" 
d="M869 1028q-18 -2 -34 -2q-28 0 -57 6q-109 23 -182 166q-39 77 -39 157q0 22 3 45q9 67 52 102q44 36 92 36q54 0 92 -38.5t38 -93.5q0 -56 -38 -94q-26 -26 -59 -34v-21q3 -41 22 -87q27 -64 100 -132zM512 1028q-18 -2 -34 -2q-28 0 -57 6q-109 23 -182 166
q-39 77 -39 157q0 22 3 45q9 67 52 102q44 36 92 36q54 0 92 -38.5t38 -93.5q0 -56 -38 -94q-26 -26 -59 -34v-21q3 -41 22 -87q27 -64 100 -132z" />
    <glyph glyph-name="dagger" unicode="&#x2020;" horiz-adv-x="1233" 
d="M200 996v197h318v318h197v-318h318v-197h-318v-996h-197v996h-318z" />
    <glyph glyph-name="daggerdbl" unicode="&#x2021;" horiz-adv-x="1233" 
d="M518 0v318h-318v197h318v481h-318v197h318v318h197v-318h318v-197h-318v-481h318v-197h-318v-318h-197z" />
    <glyph glyph-name="bullet" unicode="&#x2022;" horiz-adv-x="980" 
d="M200 696q0 118 85 202t205 84t205 -84t85 -202t-85 -202t-205 -84t-205 84t-85 202z" />
    <glyph glyph-name="uni2023" unicode="&#x2023;" horiz-adv-x="978" 
d="M200 296v779l628 -375z" />
    <glyph glyph-name="onedotenleader" unicode="&#x2024;" horiz-adv-x="660" 
d="M200 107q0 55 38 93.5t92 38.5t92 -38.5t38 -93.5t-38 -93.5t-92 -38.5t-92 38.5t-38 93.5z" />
    <glyph glyph-name="twodotenleader" unicode="&#x2025;" horiz-adv-x="1076" 
d="M616 107q0 55 38 93.5t92 38.5t92 -38.5t38 -93.5t-38 -93.5t-92 -38.5t-92 38.5t-38 93.5zM200 107q0 55 38 93.5t92 38.5t92 -38.5t38 -93.5t-38 -93.5t-92 -38.5t-92 38.5t-38 93.5z" />
    <glyph glyph-name="ellipsis" unicode="&#x2026;" horiz-adv-x="1490" 
d="M1030 107q0 55 38 93.5t92 38.5t92 -38.5t38 -93.5t-38 -93.5t-92 -38.5t-92 38.5t-38 93.5zM616 107q0 55 38 93.5t92 38.5t92 -38.5t38 -93.5t-38 -93.5t-92 -38.5t-92 38.5t-38 93.5zM200 107q0 55 38 93.5t92 38.5t92 -38.5t38 -93.5t-38 -93.5t-92 -38.5t-92 38.5
t-38 93.5z" />
    <glyph glyph-name="uni2027" unicode="&#x2027;" horiz-adv-x="660" 
d="M200 700q0 55 38 93.5t92 38.5t92 -38.5t38 -93.5t-38 -93.5t-92 -38.5t-92 38.5t-38 93.5z" />
    <glyph glyph-name="perthousand" unicode="&#x2030;" horiz-adv-x="2435" 
d="M1780 298q0 -107 36 -179q38 -76 118 -76q55 0 100 70q44 68 44 206q0 128 -47 194q-45 63 -104 63q-62 0 -106 -63q-41 -59 -41 -215zM1627 312q0 101 41 180q42 81 110 126q70 46 153 46q82 0 153 -46q68 -44 110 -126q41 -80 41 -181q0 -86 -41 -164
q-42 -80 -110 -126t-153 -46q-77 0 -153 46q-75 45 -116 123q-35 66 -35 168zM361 -227l908 2042l137 -64l-911 -2048zM1116 298q0 -107 36 -179q38 -76 118 -76q55 0 100 70q44 68 44 206q0 128 -47 194q-45 63 -104 63q-62 0 -106 -63q-41 -59 -41 -215zM963 312
q0 101 41 180q42 81 110 126q70 46 153 46q82 0 153 -46q68 -44 110 -126q41 -80 41 -181q0 -86 -41 -164q-42 -80 -110 -126t-153 -46q-77 0 -153 46q-75 45 -116 123q-35 66 -35 168zM353 1170q0 -109 36 -179q39 -76 118 -76q55 0 100 70q44 68 44 206q0 128 -47 194
q-45 63 -104 63q-62 0 -106 -63q-41 -59 -41 -215zM200 1184q0 101 41 180q42 81 110 126q70 46 153 46q82 0 153 -46q68 -44 110 -126q41 -80 41 -181q0 -86 -41 -164q-42 -80 -110 -126t-153 -46q-77 0 -153 46q-75 45 -116 123q-35 66 -35 168z" />
    <glyph glyph-name="minute" unicode="&#x2032;" horiz-adv-x="717" 
d="M517 1476l-153 -421l-164 59l154 422z" />
    <glyph glyph-name="second" unicode="&#x2033;" horiz-adv-x="1000" 
d="M801 1476l-154 -421l-164 59l154 422zM517 1476l-153 -421l-164 59l154 422z" />
    <glyph glyph-name="uni2034" unicode="&#x2034;" horiz-adv-x="1283" 
d="M1084 1476l-154 -421l-163 59l153 422zM801 1476l-154 -421l-164 59l154 422zM517 1476l-153 -421l-164 59l154 422z" />
    <glyph glyph-name="uni2035" unicode="&#x2035;" horiz-adv-x="717" 
d="M200 1476l164 60l153 -422l-163 -59z" />
    <glyph glyph-name="uni2036" unicode="&#x2036;" horiz-adv-x="1000" 
d="M200 1476l164 60l153 -422l-163 -59zM483 1476l164 60l154 -422l-164 -59z" />
    <glyph glyph-name="uni2037" unicode="&#x2037;" horiz-adv-x="1283" 
d="M200 1476l164 60l153 -422l-163 -59zM483 1476l164 60l154 -422l-164 -59zM767 1476l163 60l154 -422l-164 -59z" />
    <glyph glyph-name="guilsinglleft" unicode="&#x2039;" horiz-adv-x="854" 
d="M500 1221l88 -88l-234 -357l300 -414l-154 -161l-350 495z" />
    <glyph glyph-name="guilsinglright" unicode="&#x203a;" horiz-adv-x="854" 
d="M354 201l-88 88l234 357l-300 414l154 161l350 -495z" />
    <glyph glyph-name="uni2043" unicode="&#x2043;" horiz-adv-x="1393" 
d="M200 721l344 106l-80 142l143 -70l90 319l111 -322l148 72l-69 -141l306 -106l-312 -99l75 -145l-151 84l-108 -336l-94 330l-139 -79l79 149z" />
    <glyph glyph-name="fraction" unicode="&#x2044;" horiz-adv-x="1045" 
d="M0 -227l908 2042l137 -64l-911 -2048z" />
    <glyph glyph-name="Euro" unicode="&#x20ac;" horiz-adv-x="1505" 
d="M1405 354q-37 -85 -88 -154q-79 -104 -180 -161q-113 -64 -259 -64h-5q-153 0 -257 60q-107 61 -183 162q-75 100 -120 243h-163v197h124q-5 52 -5 107q0 22 1 44h-120l1 197h143q8 38 19 75q46 155 120 254q78 103 180 162q103 60 208 60h10q116 0 215 -52
q68 -36 108 -73l8 -1q100 8 132 127v-578q-52 204 -122 320q-34 53 -87 92q-82 60 -194 60q-129 0 -238 -86q-84 -97 -127 -261q-13 -50 -23 -99h481v-197h-503v-42q0 -48 5 -109h497v-197h-463q72 -202 171 -284q82 -70 218 -70q23 0 48 2q74 6 166 64q51 31 114 110
q40 50 66 132z" />
    <glyph glyph-name="afii61248" unicode="&#x2105;" horiz-adv-x="1860" 
d="M522 1443q-48 0 -96 -37q-37 -43 -58 -121q-22 -82 -22 -157v-45q1 -42 15 -99q35 -103 83 -143q36 -30 96 -30q6 0 22 1q28 2 74 29q22 13 52 50q19 23 30 60l6 20l90 -35l-8 -19q-17 -41 -46 -81q-40 -54 -96 -86q-61 -35 -140 -35h-2q-84 1 -139 33q-58 34 -97 86
q-41 55 -63 127q-23 74 -23 159q0 84 23 164t63 133t96 86t114 33h6q69 -2 116 -28q31 -17 52 -34q30 5 43 48q5 16 22 14t17 -20v-289q0 -16 -17 -19q-18 -3 -22 14q-21 99 -58 155q-15 23 -39 40q-36 26 -94 26zM1202 343q1 -43 15 -99q23 -91 62 -133q40 -43 92 -43
q24 0 72 44q34 42 53 110q19 69 19 149v16q0 90 -19 150q-22 84 -63 130q-33 37 -73 37h-1q-40 0 -73 -29q-42 -34 -63 -124q-21 -87 -21 -208zM1058 380q0 78 23 160q24 85 63 137q40 54 96 86q57 33 119 33t119 -33q56 -32 96 -86t63 -133t23 -164q0 -86 -23 -159
t-63 -127q-42 -56 -96 -86q-58 -32 -135 -32q-47 0 -103 32q-49 28 -96 87q-36 46 -59 115q-27 79 -27 170zM419 -227l908 2042l137 -64l-911 -2048z" />
    <glyph glyph-name="afii61289" unicode="&#x2113;" horiz-adv-x="951" 
d="M100 449l177 235v455q0 226 71.5 301t182.5 75q96 0 158 -65t62 -174q0 -92 -60 -224.5t-225 -362.5v-415q0 -89 14.5 -110.5t41.5 -21.5q26 0 60 16.5t139 90.5v-162q-111 -87 -225 -87q-92 0 -155.5 58.5t-63.5 185.5v225l-79 -98zM466 923q98 169 121.5 233t23.5 119
q0 61 -26 95q-20 25 -50 25q-31 0 -46 -26q-23 -42 -23 -219v-227z" />
    <glyph glyph-name="trademark" unicode="&#x2122;" horiz-adv-x="1937" 
d="M411 719q52 10 79 57v608h-123l-6 -1h-1q-32 -7 -125 -103q-12 -12 -26 -1.5t-6 25.5l99 171h514l99 -171q9 -15 -5 -25.5t-26 1.5q-94 96 -125 103h-1l-6 1h-123v-608q23 -45 79 -57q18 -4 16 -22t-20 -18h-289q-18 0 -20 18.5t16 21.5zM866 776v1l115 759l279 -600
l268 602l114 -761l1 -1q23 -45 79 -57q18 -4 16 -22t-20 -18h-289q-17 0 -20 16.5t13 22.5q61 23 78 42q4 4 4 7v0v4l-55 357l-218 -477l-220 480l-49 -360l-1 -3q1 -2 4 -6q17 -19 79 -44q16 -6 12.5 -22.5t-19.5 -16.5h-246q-18 0 -20 18t16 22q56 12 79 57z" />
    <glyph glyph-name="uni2126" unicode="&#x2126;" horiz-adv-x="1516" 
d="M0 414q206 -212 277 -219l14 -1h221v77q-8 4 -9 4q-40 29 -136 138q-90 103 -126 207q-43 124 -43 231v9q0 125 43 248q34 97 134 221q76 94 167 147q103 60 218 60q108 0 218 -60q92 -50 177 -150q70 -83 123 -219q44 -113 44 -241v-6q0 -143 -45 -240
q-51 -110 -117 -189q-91 -109 -150 -155l-9 -5v-78h224l14 1q71 7 277 219l-186 -414h-430v375q29 20 57 47q88 95 115 177q40 122 40 248q1 13 0 28q-11 167 -36 254q-40 115 -138 218q-81 85 -177 85h-2q-98 -1 -171 -67q-76 -69 -139 -222q-43 -105 -43 -280
q0 -132 31 -220q42 -120 132 -224q19 -22 47 -43v-375h-430z" />
    <glyph glyph-name="estimated" unicode="&#x212e;" horiz-adv-x="1358" 
d="M381 565v-371q120 -121 298 -121q254 0 395 246l72 -43q-120 -173 -232 -224.5t-235 -51.5q-237 0 -383 160t-146 405q0 247 147 406t382 159q214 0 366 -142t163 -423h-827zM977 639v297q-128 121 -300 121q-175 0 -296 -122v-296h596z" />
    <glyph glyph-name="partialdiff" unicode="&#x2202;" horiz-adv-x="1217" 
d="M886 940q1 18 1 36q0 97 -27 202q-23 88 -68 136q-43 44 -98 44q-54 0 -104 -66q-12 -16 -70 -154l-135 60q70 157 168 225t192 68q76 0 137.5 -39.5t92.5 -90.5q47 -79 69.5 -187t22.5 -248q0 -288 -86.5 -512.5t-233.5 -331.5t-289 -107q-137 0 -222.5 91t-85.5 256
q0 209 153 387q200 233 478 233h7q57 0 98 -2zM862 758q-28 24 -82 24q-16 0 -34 -2q-84 -9 -152 -50q-84 -52 -158 -174t-74 -248q0 -81 51 -137q46 -51 101 -51h4q77 0 118 44q63 68 130 204q102 207 114 322v12q-1 36 -18 56z" />
    <glyph glyph-name="uni2206" unicode="&#x2206;" horiz-adv-x="1420" 
d="M-20 0q123 24 187 140l3 8l535 1403l545 -1403l1 -3l3 -9q64 -112 186 -136h-1460zM282 106h760l-379 1007z" />
    <glyph glyph-name="gradient" unicode="&#x2207;" horiz-adv-x="1420" 
d="M1440 1511q-123 -24 -187 -140l-3 -8l-535 -1403l-545 1403l-1 3l-3 9q-64 112 -186 136h1460zM1138 1405h-760l379 -1007z" />
    <glyph glyph-name="product" unicode="&#x220f;" horiz-adv-x="1488" 
d="M60 0q124 24 188 140l2 8v1215l-2 8q-64 116 -188 140h1368q-134 -28 -188 -139l-2 -9v-1215l2 -9q54 -111 188 -139h-578q124 24 188 140l2 8v1243h-592v-1243l2 -9q54 -111 188 -139h-578z" />
    <glyph glyph-name="uni2210" unicode="&#x2210;" horiz-adv-x="1488" 
d="M60 0q124 24 188 140l2 8v1215l-2 8q-64 116 -188 140h578q-134 -28 -188 -139l-2 -9v-1243h592v1243l-2 8q-64 116 -188 140h578q-134 -28 -188 -139l-2 -9v-1215l2 -9q54 -111 188 -139h-1368z" />
    <glyph glyph-name="summation" unicode="&#x2211;" horiz-adv-x="1382" 
d="M470 102h561l14 1q71 7 277 219l-186 -322h-1076q97 39 183 137l7 11l436 596l-436 619l-7 11q-83 115 -183 137h946l186 -322q-206 212 -277 219l-14 1h-431l477 -662z" />
    <glyph glyph-name="minus" unicode="&#x2212;" horiz-adv-x="1233" 
d="M200 798h833v-197h-833v197z" />
    <glyph glyph-name="uni2215" unicode="&#x2215;" horiz-adv-x="1045" 
d="M0 -227l908 2042l137 -64l-911 -2048z" />
    <glyph glyph-name="asteriskmath" unicode="&#x2217;" horiz-adv-x="1393" 
d="M200 721l344 106l-80 142l143 -70l90 319l111 -322l148 72l-69 -141l306 -106l-312 -99l75 -145l-151 84l-108 -336l-94 330l-139 -79l79 149z" />
    <glyph glyph-name="uni2218" unicode="&#x2218;" horiz-adv-x="980" 
d="M358 698q0 -55 38 -93.5t92 -38.5t92 38.5t38 93.5t-38 93.5t-92 38.5t-92 -38.5t-38 -93.5zM200 696q0 118 85 202t205 84t205 -84t85 -202t-85 -202t-205 -84t-205 84t-85 202z" />
    <glyph glyph-name="uni2219" unicode="&#x2219;" horiz-adv-x="660" 
d="M200 694q0 55 38 93.5t92 38.5t92 -38.5t38 -93.5t-38 -93.5t-92 -38.5t-92 38.5t-38 93.5z" />
    <glyph glyph-name="radical" unicode="&#x221a;" horiz-adv-x="1427" 
d="M150 686v145h370l155 -405l466 1240h286v-142h-198l-587 -1564l-289 725z" />
    <glyph glyph-name="uni221B" unicode="&#x221b;" horiz-adv-x="1427" 
d="M150 686v145h370l155 -405l466 1240h286v-142h-198l-587 -1564l-289 725zM593 1016q41 0 73 36q23 26 23 82v7v6q0 40 -11 63q-15 31 -39 48q-15 10 -79 38l-30 13l29 17q16 9 22 11q3 1 31 18q19 11 30 23q18 20 18 67v11q-1 30 -18 58l-3 4q-24 22 -46 22h-5
q-30 3 -50 -8q-16 -9 -24 -21q15 -5 25 -16q20 -21 20 -50t-20 -49t-49 -20t-49 21q-21 22 -20 50q1 54 59 118q43 40 111 40h1q71 0 113 -28q69 -46 69 -113v-13q-2 -61 -33 -92q-25 -25 -62 -45l11 -4q33 -12 68 -42q48 -43 53 -123v-18v-1q0 -84 -70 -138
q-61 -47 -145 -47h-4q-97 0 -151 61q-67 76 -67 140q0 4 1 12q0 28 20 50t49 22q27 0 48 -21q20 -20 20 -49q0 -27 -20 -49q-11 -12 -25 -17q9 -26 30 -43q37 -31 96 -31z" />
    <glyph glyph-name="infinity" unicode="&#x221e;" horiz-adv-x="1984" 
d="M1086 742q0 -216 82 -326q77 -101 172 -101q101 0 171 109t71 330q-1 213 -74 316q-70 100 -171 100q-95 0 -172 -101q-79 -151 -79 -307v-4v-16zM400 738q0 -216 82 -326q77 -101 172 -101q101 0 171 109t71 330q-1 213 -74 316q-70 100 -171 100q-95 0 -172 -101
q-79 -151 -79 -307v-4v-16zM1784 753q0 -152 -60 -282q-62 -133 -161 -206q-103 -75 -223 -75q-122 0 -223 75q-72 53 -123 134q-53 -88 -127 -142q-103 -75 -223 -75q-122 0 -223 75q-102 76 -161 206q-60 132 -60 282q0 152 60 284q59 130 161 206q101 75 223 75
q120 0 223 -75q74 -54 127 -142q51 81 123 134q101 75 223 75q120 0 223 -75q99 -73 161 -206q60 -130 60 -268z" />
    <glyph glyph-name="approxequal" unicode="&#x2248;" horiz-adv-x="1436" 
d="M200 400q96 284 299 284q24 0 48 -4q63 -11 210 -81l140 -69q42 -25 98 -25q99 0 235 125q-87 -294 -294 -306q-18 -1 -38 2q-64 10 -212 84l-138 66q-46 23 -101 24h-2q-103 0 -245 -100zM206 792q96 284 299 284q24 0 48 -4q63 -11 210 -81l140 -69q42 -25 98 -25
q99 0 235 125q-87 -294 -294 -306q-18 -1 -38 2q-64 10 -212 84l-138 66q-46 23 -101 24h-2q-103 0 -245 -100z" />
    <glyph glyph-name="notequal" unicode="&#x2260;" horiz-adv-x="1234" 
d="M201 981h453l195 376l137 -64l-161 -312h209v-197h-311l-79 -151h389v-197h-490l-178 -343l-134 70l141 273h-172v197h274l78 151h-352z" />
    <glyph glyph-name="equivalence" unicode="&#x2261;" horiz-adv-x="1234" 
d="M201 457h833v-197h-833v197zM200 806h833v-197h-833v197zM201 1154h833v-197h-834z" />
    <glyph glyph-name="lessequal" unicode="&#x2264;" horiz-adv-x="1337" 
d="M217 332h833v-197h-833v197zM130 898l944 534l63 -105l-686 -388l686 -378l-83 -182z" />
    <glyph glyph-name="greaterequal" unicode="&#x2265;" horiz-adv-x="1337" 
d="M1096 339v-197h-833v197h833zM1207 913l-944 -534l-63 105l686 388l-686 378l83 182z" />
    <glyph glyph-name="lozenge" unicode="&#x25ca;" horiz-adv-x="1234" 
d="M575 1231l-251 -421l339 -546l249 408zM617 1515l467 -774l-467 -741l-467 738z" />
  </font>
</defs>
</svg>
