<?xml version="1.0" standalone="no"?>
<!DOCTYPE svg PUBLIC "-//W3C//DTD SVG 1.1//EN" "http://www.w3.org/Graphics/SVG/1.1/DTD/svg11.dtd" >
<svg xmlns="http://www.w3.org/2000/svg" xmlns:xlink="http://www.w3.org/1999/xlink" version="1.1">
<metadata>
Created by FontForge 20170812 at Tue Oct 22 04:08:00 2013
 By www-data
Freeware from Tipografia Leone
</metadata>
<defs>
<font id="WindSansSerif-Regular" horiz-adv-x="271" >
  <font-face 
    font-family="Wind Sans Serif"
    font-weight="400"
    font-stretch="normal"
    units-per-em="1000"
    panose-1="0 0 4 0 0 0 0 0 0 0"
    ascent="800"
    descent="-200"
    x-height="471"
    cap-height="706"
    bbox="-73 -285 1160 944"
    underline-thickness="50"
    underline-position="-125"
    unicode-range="U+0008-F002"
  />
<missing-glyph horiz-adv-x="500" 
d="M63 0v944h375v-944h-375zM125 63h250v819h-250v-819z" />
    <glyph glyph-name=".notdef" horiz-adv-x="500" 
d="M63 0v944h375v-944h-375zM125 63h250v819h-250v-819z" />
    <glyph glyph-name="controlBS" horiz-adv-x="0" 
 />
    <glyph glyph-name="controlBS" horiz-adv-x="0" 
 />
    <glyph glyph-name="glyph2" 
 />
    <glyph glyph-name="space" unicode="&#x9;" 
 />
    <glyph glyph-name="space" unicode=" " 
 />
    <glyph glyph-name="space" unicode="&#xd;" 
 />
    <glyph glyph-name="exclam" unicode="!" 
d="M198 328l-40 -181h-6l-41 182v386l46 43l41 -43v-387zM197 45q0 -18 -11 -31.5t-31 -13.5q-18 0 -30.5 13.5t-12.5 31.5t11 31.5t32 13.5q17 0 29.5 -13.5t12.5 -31.5z" />
    <glyph glyph-name="quotedbl" unicode="&#x22;" horiz-adv-x="396" 
d="M338 614l-39 -141h-8l-40 142v131l44 32l43 -32v-132zM148 614l-39 -141h-8l-40 142v131l43 32l44 -32v-132z" />
    <glyph glyph-name="numbersign" unicode="#" horiz-adv-x="575" 
d="M532 406h-117l-10 -83h67l39 -81h-117l-15 -117l-74 50l8 67h-83l-15 -117l-74 50l8 67h-67l-39 81h117l10 83h-67l-39 81h117l15 117l74 -50l-8 -67h83l15 117l74 -50l-8 -67h67zM334 406h-83l-10 -83h83z" />
    <glyph glyph-name="dollar" unicode="$" horiz-adv-x="625" 
d="M580 199q0 -108 -82 -168q-57 -42 -147 -48v-77l-39 -19l-38 19v78q-198 22 -229 208h93q22 -112 136 -134v270q-197 48 -201 190q0 82 59 135q55 50 142 58v73l37 17l40 -17v-74q176 -16 214 -189h-86q-17 101 -128 117v-231l12 -4q38 -9 106 -30q111 -51 111 -174z
M274 428v209q-108 -17 -112 -106q0 -45 33 -71q23 -18 79 -32zM487 193q0 92 -126 116l-10 2v-255q60 7 98 42.5t38 94.5z" />
    <glyph glyph-name="percent" unicode="%" horiz-adv-x="896" 
d="M858 225q0 -229 -164 -229q-167 0 -167 225q0 234 169 234q162 0 162 -230zM614 666l-297 -666l-47 -25l-7 51l293 656l45 27zM350 454q0 -230 -165 -230q-166 0 -166 226q0 233 169 233q162 0 162 -229zM783 234q0 87 -9 112q-17 47 -76 47q-66 0 -84 -51
q-11 -31 -11 -122q0 -88 10 -115q18 -48 80 -48q65 0 82 55q8 26 8 122zM275 463q0 83 -10 111q-17 48 -75 48q-66 0 -85 -51q-11 -30 -11 -122q0 -85 11 -115q18 -49 80 -49q65 0 82 55q8 26 8 123z" />
    <glyph glyph-name="ampersand" unicode="&#x26;" horiz-adv-x="519" 
d="M486 38q0 -98 -62.5 -155.5t-161.5 -57.5l-47 32l46 33q67 0 106 37.5t42 104.5q-59 -46 -147 -46q-101 0 -154 54q-64 56 -64 156q0 61 29 113t82 78q-56 51 -56 131q0 79 47.5 128.5t118.5 49.5q77 0 120 -49t42 -126q-1 -78 -47 -126.5t-117 -48.5q-9 0 -17 1
q-126 -11 -118 -152q0 -144 133 -144q136 0 149 148l31 48l37 -48zM347 521q4 110 -81 110q-47 0 -65 -34q-23 -30 -23 -79q0 -41 20 -70q22 -32 53 -36h14v-1q42 1 59 36q21 30 23 74z" />
    <glyph glyph-name="quotesingle" unicode="'" horiz-adv-x="208" 
d="M144 614l-36 -141h-7l-36 142v127l38 46l41 -46v-128z" />
    <glyph glyph-name="parenleft" unicode="(" horiz-adv-x="313" 
d="M293 -126l-22 -42l-38 42q-50 70 -88 169q-58 143 -58 275q0 187 97 360q18 31 41 87l43 47l29 -47q-152 -265 -139 -444q0 -106 46 -233q40 -112 89 -214z" />
    <glyph glyph-name="parenright" unicode=")" horiz-adv-x="313" 
d="M227 320q0 -216 -148 -446l-31 -33l-28 33q152 257 138 444q0 201 -138 447l30 34l29 -34q148 -224 148 -445z" />
    <glyph glyph-name="asterisk" unicode="*" horiz-adv-x="375" 
d="M345 573l-54 -19l-66 -23l42 -59l33 -47l2 -35l-33 12l-33 47l-44 68l-44 -69l-33 -47l-33 -12l-1 38l33 47l46 59l-76 27l-54 19l-17 31l33 8l54 -20l72 -33l-7 82v57l22 29l25 -28v-58l-7 -85l71 29l55 19l31 -7z" />
    <glyph glyph-name="plus" unicode="+" horiz-adv-x="551" 
d="M493 251h-181v-181l-40 -22l-40 22v181h-179l-26 40l26 40h179v179l39 24l41 -24v-179h181l26 -39z" />
    <glyph glyph-name="comma" unicode="," horiz-adv-x="229" 
d="M162 55q0 -117 -54 -181h-10q29 67 8 126q-20 2 -33 18t-13 37q0 22 14.5 38.5t36.5 16.5t36.5 -16.5t14.5 -38.5z" />
    <glyph glyph-name="hyphen" unicode="-" horiz-adv-x="389" 
d="M332 259h-289l-14 32l14 33h289l17 -32z" />
    <glyph glyph-name="hyphen" unicode="&#x2010;" horiz-adv-x="389" 
d="M332 259h-289l-14 32l14 33h289l17 -32z" />
    <glyph glyph-name="period" unicode="." horiz-adv-x="229" 
d="M162 55q0 -22 -13.5 -35.5t-34.5 -13.5t-34 17t-13 32q0 21 13 34.5t34 13.5t34.5 -16.5t13.5 -31.5z" />
    <glyph glyph-name="slash" unicode="/" horiz-adv-x="399" 
d="M371 668l-287 -669l-33 -34l-18 48l283 669l42 23z" />
    <glyph glyph-name="zero" unicode="0" horiz-adv-x="583" 
d="M522 347q0 -141 -46 -233q-60 -120 -184 -120q-125 0 -182 112q-48 89 -48 225q0 139 47 231q60 118 181 118q125 0 183 -110q49 -88 49 -223zM432 343q0 259 -139 259q-145 0 -142 -276q0 -255 142 -255t139 272z" />
    <glyph glyph-name="one" unicode="1" horiz-adv-x="380" 
d="M277 0h-94v543l-115 -40v17l179 154h30v-674z" />
    <glyph glyph-name="two" unicode="2" horiz-adv-x="583" 
d="M520 0h-441v86q0 60 89 127l163 123q88 67 88 136q0 61 -33.5 95.5t-93.5 34.5q-127 0 -127 -95l-88 -38q0 99 58.5 155t158.5 56q98 0 158 -57.5t60 -154.5q0 -74 -87 -159q-20 -20 -162 -129q-87 -67 -87 -103h344v-77z" />
    <glyph glyph-name="three" unicode="3" horiz-adv-x="583" 
d="M529 189q0 -96 -72 -148q-64 -47 -163 -47q-239 0 -244 229l91 -16q4 -78 37 -106t110 -28q147 0 147 121q0 63 -53 94q-43 25 -111 25v72q148 0 148 107q0 55 -41 86q-37 28 -94 28q-132 0 -142 -134l-89 -18q1 18 5 55q9 84 78 130q61 41 149 41q94 0 155 -46
q69 -51 69 -142q0 -92 -82 -142q102 -51 102 -161z" />
    <glyph glyph-name="four" unicode="4" horiz-adv-x="560" 
d="M513 162h-78v-162h-88v162h-305v90l336 440h57v-454h78v-76zM347 238l1 295l-215 -295h214z" />
    <glyph glyph-name="five" unicode="5" horiz-adv-x="583" 
d="M525 235q0 -91 -54 -159q-65 -82 -184 -82q-193 0 -225 179l90 -14q18 -102 131 -88q72 0 112 49q38 46 38 119q0 70 -39 112.5t-108 42.5q-54 0 -79 -10q-37 -15 -54 -57h-81l2 346l404 1v-79h-317l-3 -155q26 23 65 29q20 3 80 3q103 0 164 -68q58 -64 58 -169z" />
    <glyph glyph-name="six" unicode="6" horiz-adv-x="583" 
d="M517 495l-78 24q-7 78 -131 78q-72 0 -108.5 -47.5t-36.5 -120.5v-30l2 2q50 50 138 50q101 0 158 -62.5t57 -164.5q0 -87 -53 -152q-64 -78 -178 -78q-141 0 -196 106q-20 35 -20 66v267q0 92 54 159q66 82 179 82q193 0 213 -179zM431 228q0 68 -38.5 108t-106.5 40
q-47 0 -81 -24q-46 -27 -46 -71v-116q3 -29 22 -52q38 -45 102 -45q70 0 110 46q38 43 38 114z" />
    <glyph glyph-name="seven" unicode="7" horiz-adv-x="558" 
d="M501 597q-8 -33 -41 -119l-216 -478h-106l234 507q24 52 23 87h-329v80h462z" />
    <glyph glyph-name="eight" unicode="8" horiz-adv-x="583" 
d="M528 203q0 -101 -72 -157q-66 -52 -164 -52q-103 0 -162 51q-72 55 -72 155q0 102 92 162h7q-61 46 -61 130q0 85 60 134q55 46 136 46q90 0 139 -46q58 -49 58 -137q0 -81 -62 -127h5q96 -58 96 -159zM407 489q1 51 -32.5 79t-80.5 28q-52 0 -80 -26q-37 -28 -37 -79
t35 -78q31 -24 78 -24q121 0 117 100zM435 203q-1 61 -47 92q-40 27 -99 27q-64 0 -96 -28q-44 -32 -44 -93q0 -62 46 -95q41 -30 99 -30q64 0 98 31q44 34 43 96z" />
    <glyph glyph-name="nine" unicode="9" horiz-adv-x="583" 
d="M523 235q0 -92 -54 -159q-66 -82 -178 -82q-193 0 -218 179l90 -27q5 -73 124 -75q72 0 106 49q38 46 38 119v30l-2 -2q-50 -50 -137 -50q-101 0 -156 63t-55 164q0 87 53 152q64 78 174 78q143 0 196 -106q19 -34 19 -66v-267zM435 387v116q-3 29 -22 52q-38 45 -101 45
q-70 0 -105.5 -44.5t-35.5 -115.5q0 -68 38.5 -108t99.5 -40q47 0 80 24q46 27 46 71z" />
    <glyph glyph-name="colon" unicode=":" 
d="M202 425q0 -22 -13.5 -34t-34.5 -12t-34 17t-13 29q0 21 13 34.5t34 13.5t34.5 -16.5t13.5 -31.5zM202 55q0 -22 -13.5 -34t-34.5 -12t-34 17t-13 29q0 21 13 33.5t34 12.5t34.5 -16.5t13.5 -29.5z" />
    <glyph glyph-name="semicolon" unicode=";" 
d="M202 425q0 -22 -13.5 -34t-34.5 -12t-34 17t-13 29q0 21 13 34.5t34 13.5t34.5 -16.5t13.5 -31.5zM202 55q-23 -117 -55 -181h-13q29 67 12 126q-20 2 -33 18t-13 37q0 22 14.5 38.5t36.5 16.5t36.5 -16.5t14.5 -38.5z" />
    <glyph glyph-name="less" unicode="&#x3c;" horiz-adv-x="573" 
d="M568 32l-100 33l-427 193v74l425 183l104 37l-38 -89l-387 -166l387 -175z" />
    <glyph glyph-name="equal" unicode="=" horiz-adv-x="544" 
d="M488 331h-434v80h434v-80zM488 171h-434v80h434v-80z" />
    <glyph glyph-name="greater" unicode="&#x3e;" horiz-adv-x="573" 
d="M532 258l-427 -193l-102 -38l38 95l387 175l-387 166l-34 97l100 -38l425 -190v-74z" />
    <glyph glyph-name="question" unicode="?" horiz-adv-x="562" 
d="M518 496q0 -58 -44 -106q-40 -44 -98 -64q-47 -16 -40 -84v-92h-79v106q0 66 33 97q22 21 88 53q27 12 42.5 41t15.5 60q0 61 -45 97q-41 33 -97 33q-128 -6 -144 -106l-79 -60q-3 129 79 193q61 48 145 48q100 0 157 -57q66 -60 66 -159zM336 47q0 -18 -11 -27.5
t-28 -9.5q-18 0 -29 13.5t-11 23.5q0 18 11 28t29 10q17 0 28 -13.5t11 -24.5z" />
    <glyph glyph-name="at" unicode="@" horiz-adv-x="896" 
d="M827 422q0 -125 -62 -229q-73 -123 -168 -123q-77 0 -84 85q-17 -32 -69 -53q-45 -18 -58 -19q-49 -1 -80 20q-36 24 -36 71q0 49 36 90q55 62 179 77h4q45 4 65 17q7 23 7 45q0 72 -70 71q-92 -2 -113 -53l-72 -34q6 19 31 63q58 76 164 78q55 1 91 -20q44 -26 44 -78
q0 -20 -13 -77l-40 -175q-6 -49 34 -49q64 0 112 119q40 99 40 173q0 112 -67 174t-180 62q-172 0 -286 -126q-111 -122 -111 -296q0 -155 109 -237q89 -67 217 -67q78 0 158 26q94 30 136 80l151 71q-152 -174 -442 -232q-148 0 -254 79q-131 98 -131 281q0 201 131 338.5
t331 137.5q137 0 216.5 -77t79.5 -213zM544 309q-10 -8 -85 -28q-110 -21 -110 -91q0 -48 65 -47q81 1 95 65q17 25 35 101z" />
    <glyph glyph-name="A" unicode="A" horiz-adv-x="646" 
d="M627 0h-99l-70 216h-269l-71 -216h-100l304 706h27zM430 295l-103 248l-108 -248h211z" />
    <glyph glyph-name="B" unicode="B" horiz-adv-x="673" 
d="M610 195q0 -195 -227 -195h-296v706h261q48 0 63 -5q71 -13 109 -59t38 -117q0 -96 -65 -139q126 -52 117 -191zM452 520q0 103 -107 103h-169v-214h167q137 0 109 111zM506 202q-6 82 -52 113q-9 4 -23 11q-14 3 -52 3h-203v-246h219q31 0 45 6q69 15 66 113z" />
    <glyph glyph-name="C" unicode="C" horiz-adv-x="699" 
d="M663 227q-34 -106 -117 -181q-81 -64 -190 -64q-152 0 -229 113q-76 101 -76 258q0 161 80 261q87 110 237 110q199 0 282 -185l-101 36q-60 83 -182 74q-117 0 -170 -91q-52 -78 -52 -200q0 -123 51 -203q60 -95 170 -95q73 0 125.5 41t82.5 81z" />
    <glyph glyph-name="D" unicode="D" horiz-adv-x="675" 
d="M616 353q0 -353 -275 -353h-254v706h232q67 0 100 -11q197 -48 197 -342zM520 352q0 135 -44 197q-53 74 -171 74h-122v-542h136q121 0 160 79q41 64 41 192z" />
    <glyph glyph-name="E" unicode="E" horiz-adv-x="604" 
d="M577 0h-499v706h487l-41 -83h-355v-218h311v-83h-311v-240h377z" />
    <glyph glyph-name="F" unicode="F" horiz-adv-x="510" 
d="M478 623h-301v-209h289l-27 -82h-262v-332h-94v707h428z" />
    <glyph glyph-name="G" unicode="G" horiz-adv-x="729" 
d="M649 154l-38 -42l-33 -31q-90 -96 -227 -96q-151 0 -233 112q-74 100 -74 256q0 160 78 259q85 109 241 109q96 0 169.5 -44t110.5 -129l-88 20q-65 87 -193 79q-116 0 -175 -91q-51 -77 -51 -198q0 -123 50 -202q59 -94 175 -94q75 0 135.5 41t81.5 111v73l-135 6
l-56 70h262v-209z" />
    <glyph glyph-name="H" unicode="H" horiz-adv-x="713" 
d="M626 0l-95 26v297h-352v-297l-94 -26v707l94 -27v-274h352v274l95 27v-707z" />
    <glyph glyph-name="I" unicode="I" horiz-adv-x="229" 
d="M160 26l-91 -26v683l91 23v-680z" />
    <glyph glyph-name="J" unicode="J" horiz-adv-x="375" 
d="M297 230q0 -232 -267 -232l23 82q158 -10 148 160v423l96 44v-477z" />
    <glyph glyph-name="K" unicode="K" horiz-adv-x="625" 
d="M601 0l-114 11l-258 304l-68 -69v-215l-94 -31v706l94 -22v-323l312 327l116 18l-295 -324z" />
    <glyph glyph-name="L" unicode="L" horiz-adv-x="521" 
d="M472 0h-404v675l94 31v-622h343z" />
    <glyph glyph-name="M" unicode="M" horiz-adv-x="812" 
d="M745 0h-93l-1 517l14 75l-244 -703h-12l-259 694l10 -63v-520h-92v706h121l217 -608l218 608h121v-706z" />
    <glyph glyph-name="N" unicode="N" horiz-adv-x="708" 
d="M630 -89l-85 107l-387 556l8 -34v-498l-88 -42v706h88l383 -566l-4 36v489l85 41v-795z" />
    <glyph glyph-name="O" unicode="O" horiz-adv-x="769" 
d="M696 360q0 -164 -81 -261q-87 -104 -239 -104q-158 0 -236 102q-81 95 -81 256q0 162 82 257q86 101 238 101q154 0 233 -100q84 -95 84 -251zM602 359q0 123 -53 194q-60 81 -170 81q-120 0 -173 -84q-53 -73 -53 -198t53 -198q61 -84 173 -84q123 0 173 87
q50 73 50 202z" />
    <glyph glyph-name="P" unicode="P" horiz-adv-x="625" 
d="M594 506q0 -67 -33 -120q-35 -57 -97 -76q-36 -11 -93 -11h-204v-257l-91 -42v706h295q66 0 102 -12q121 -40 121 -188zM501 508q0 117 -126 117h-208v-243h197q137 0 137 126z" />
    <glyph glyph-name="Q" unicode="Q" horiz-adv-x="812" 
d="M762 360q0 -157 -82 -258q-86 -107 -240 -119q42 -43 56 -53q32 -23 72 -35q28 -18 66 -28l107 -58q-13 -18 -120 -11q-49 0 -77 12q-34 9 -50 20q-32 13 -103 88q-62 65 -105 65q-57 0 -237 -101l61 94q44 44 81 71q-140 101 -140 306q0 172 92 266.5t264 94.5
q169 0 262 -92.5t93 -261.5zM660 359q-2 279 -253 279q-254 0 -254 -286q0 -129 62 -208q68 -88 193 -88q128 0 194 91q59 80 58 212z" />
    <glyph glyph-name="R" unicode="R" horiz-adv-x="653" 
d="M591 500q0 -106 -82 -165q74 -45 74 -163v-172h-94v171q0 51 -27 85t-77 41q-13 2 -39 2l-164 1v-254l-92 -46v706h236q64 0 100 -6q79 -13 122 -66t43 -134zM497 499q0 51 -27 85t-77 41q-21 3 -65 3h-146v-250h161q154 0 154 121z" />
    <glyph glyph-name="S" unicode="S" horiz-adv-x="667" 
d="M618 203q0 -111 -89 -170q-76 -51 -193 -51q-118 0 -193 48q-85 54 -103 219l103 -92q2 -47 66 -79q51 -33 131 -23q73 0 121 33q55 38 55 108q0 91 -134 118l-59 12q-110 22 -164 54q-88 52 -88 147q0 96 82 150q71 47 172 47q235 0 277 -226l-94 88q-38 51 -180 65
q-63 0 -106 -24q-54 -29 -54 -87q0 -50 47 -78q25 -15 92 -32l78 -20q41 -11 111 -31q122 -51 122 -176z" />
    <glyph glyph-name="T" unicode="T" horiz-adv-x="542" 
d="M458 624h-141v-632l-95 -112v744h-212l72 83h446z" />
    <glyph glyph-name="U" unicode="U" horiz-adv-x="688" 
d="M603 236q0 -253 -265 -253q-226 0 -248 163q-5 26 -5 103v380l95 78v-445q0 -66 4 -90q18 -110 154 -110q103 0 135 51q35 45 35 151v371l95 72v-471z" />
    <glyph glyph-name="V" unicode="V" horiz-adv-x="604" 
d="M592 706l-291 -860h-10l-280 860h100l187 -662l194 662h100z" />
    <glyph glyph-name="W" unicode="W" horiz-adv-x="1021" 
d="M963 706l-214 -792h-14l-236 671l-228 -671h-16l-217 792l99 -26l125 -592l2 -53l10 53l179 618h92l184 -616l12 -55l2 53l123 578z" />
    <glyph glyph-name="X" unicode="X" horiz-adv-x="625" 
d="M605 -30l-111 74l-183 243l-181 -243l-109 -74l235 400l-222 336l112 -20l165 -234l157 234l111 20l-215 -336z" />
    <glyph glyph-name="Y" unicode="Y" horiz-adv-x="625" 
d="M611 706l-254 -383l-10 -349h-71l-14 349l-249 383l112 -36l185 -263l189 263z" />
    <glyph glyph-name="Z" unicode="Z" horiz-adv-x="604" 
d="M574 0h-543v92l426 527h-349l-72 87h538v-88l-434 -533h370z" />
    <glyph glyph-name="bracketleft" unicode="[" horiz-adv-x="313" 
d="M282 -111h-164v896h164l-48 -62h-36v-774h36z" />
    <glyph glyph-name="backslash" unicode="\" horiz-adv-x="399" 
d="M392 0l-69 28l-315 655l76 -39z" />
    <glyph glyph-name="bracketright" unicode="]" horiz-adv-x="313" 
d="M195 -111h-164l44 62h40v774h-40l-44 60h164v-896z" />
    <glyph glyph-name="asciicircum" unicode="^" horiz-adv-x="412" 
d="M338 396l-50 86l-76 127l-74 -127l-47 -86v150l83 147h74l90 -145v-152z" />
    <glyph glyph-name="underscore" unicode="_" horiz-adv-x="500" 
d="M434 -159h-434l54 64h446z" />
    <glyph glyph-name="grave" unicode="`" 
d="M225 516l-63 45l-50 47l-53 135l100 -38z" />
    <glyph glyph-name="a" unicode="a" horiz-adv-x="500" 
d="M420 38l-77 -38v39q-50 -52 -151 -52q-66 0 -103 34q-49 37 -49 101q0 83 82 128q37 20 149 36q42 5 69 29v0l-4 32q-15 69 -103 69q-104 0 -96 -43l-84 -42q18 156 177 156q67 0 111 -25q60 -30 73 -88q6 -27 6 -87v-249zM341 239q-14 -12 -70 -22q-73 -11 -93 -24
q-50 -23 -50 -69q0 -35 28 -54q24 -16 53 -16q86 0 110 54q22 39 22 131z" />
    <glyph glyph-name="b" unicode="b" horiz-adv-x="562" 
d="M516 235q0 -108 -54 -175q-59 -74 -156 -74q-112 0 -161 65l-1 -26l-79 -25l7 616l73 91v-290q54 69 162 69q105 0 155 -75q54 -69 54 -176zM441 239q0 75 -35 122q-38 52 -103 52q-142 0 -158 -143v-71q16 -146 157 -146q74 0 105 58q34 50 34 128z" />
    <glyph glyph-name="c" unicode="c" horiz-adv-x="521" 
d="M486 167q-38 -171 -212 -181q-110 0 -172.5 67t-62.5 178q0 112 57 181q61 74 171 74q175 0 210 -165l-89 46q-20 57 -118 51q-142 0 -143 -181q0 -79 34 -126q38 -54 114 -54q107 0 123 60z" />
    <glyph glyph-name="d" unicode="d" horiz-adv-x="562" 
d="M504 74l-80 -74v51q-49 -65 -161 -65q-105 0 -154 74q-54 67 -54 175q0 107 54 176q58 75 153 75q108 0 162 -69v252l80 72v-667zM424 199v71q-16 143 -158 143q-73 0 -101 -52q-35 -47 -35 -122q0 -78 34 -128q39 -58 103 -58q141 0 157 146z" />
    <glyph glyph-name="e" unicode="e" horiz-adv-x="521" 
d="M477 223h-348v-7q0 -73 39 -120q41 -50 109 -50q90 0 113 57l83 52q-49 -155 -203 -169q-111 0 -169 73q-58 68 -58 181q0 108 59 175q63 71 165 71q111 0 161 -79q49 -69 49 -184zM390 290q-8 125 -129 125q-122 0 -130 -125h259z" />
    <glyph glyph-name="f" unicode="f" 
d="M229 623q-35 1 -27 1q-44 -20 -39 -49q-9 -25 -12 -104h95l-24 -66h-71v-352l-78 -52v404h-70l28 66h42v3q0 121 36 171q44 59 160 59z" />
    <glyph glyph-name="g" unicode="g" horiz-adv-x="562" 
d="M491 26q0 -110 -59 -178q-62 -72 -165 -72q-108 0 -165 70q-26 29 -41 102l90 -54q34 -62 115 -44q148 0 142 204v15q-59 -83 -149 -83q-104 0 -157 73q-55 67 -55 174q0 109 54 177q59 76 159 76q96 0 148 -68v53l83 70v-515zM408 191v101q-22 123 -151 122
q-71 -1 -104 -56q-34 -48 -34 -122q0 -77 35 -125q39 -54 108 -54q131 0 146 134z" />
    <glyph glyph-name="h" unicode="h" horiz-adv-x="521" 
d="M458 48l-81 -58v269q0 78 -13 108q-21 49 -89 49q-128 0 -128 -207v-161l-81 -58v655l81 62v-283q11 27 58 46q40 16 75 16q178 0 178 -222v-216z" />
    <glyph glyph-name="i" unicode="i" horiz-adv-x="208" 
d="M148 640q0 -18 -11.5 -27.5t-28.5 -9.5t-28 13.5t-11 23.5q0 18 11 28.5t28 10.5t28.5 -13.5t11.5 -25.5zM146 16l-75 -38v471l75 38v-471z" />
    <glyph glyph-name="j" unicode="j" horiz-adv-x="208" 
d="M145 632q0 -18 -11 -28.5t-28 -10.5q-18 0 -29 13.5t-11 25.5q0 18 11 28.5t29 10.5q17 0 28 -13.5t11 -25.5zM143 -31q0 -188 -143 -194l20 85q45 33 45 120v454l78 88v-553z" />
    <glyph glyph-name="k" unicode="k" horiz-adv-x="458" 
d="M452 0h-100l-164 211l-42 -45v-144l-81 -36v662l81 58v-435l178 168l116 48l-198 -217z" />
    <glyph glyph-name="l" unicode="l" horiz-adv-x="208" 
d="M143 44l-77 -44v666l77 40v-662z" />
    <glyph glyph-name="m" unicode="m" horiz-adv-x="771" 
d="M707 41l-78 -62v298q0 68 -10 92q-18 42 -76 42q-39 0 -72.5 -31.5t-43.5 -70.5q-8 -14 -8 -64l-32 -324h-10l-32 383q0 107 -87 107q-36 0 -71 -31t-44 -67q-4 -16 -4 -63v-212l-78 -72v505h78v-53q58 68 131 68q94 0 138 -77q13 13 65 50q38 27 82 27q115 0 143 -96
q9 -31 9 -94v-255z" />
    <glyph glyph-name="n" unicode="n" horiz-adv-x="521" 
d="M455 38l-79 -74v304q0 77 -11 102q-18 42 -85 41q-71 -1 -106 -59q-29 -47 -29 -123v-191l-80 -74v507l80 84v-143q42 74 137 74q55 0 102.5 -29t62.5 -79q8 -27 8 -97v-243z" />
    <glyph glyph-name="o" unicode="o" horiz-adv-x="542" 
d="M496 236q0 -110 -59 -178q-62 -72 -165 -72q-108 0 -165 70q-61 67 -61 176q0 112 61 181q64 73 168 73q107 0 163 -73q58 -68 58 -177zM419 246q0 77 -35 124q-38 52 -107 52q-81 0 -117 -57q-37 -50 -37 -134q0 -81 36 -128q40 -53 112 -53q80 0 114 61q34 51 34 135z
" />
    <glyph glyph-name="p" unicode="p" horiz-adv-x="562" 
d="M511 237q0 -107 -54 -176q-58 -75 -155 -75q-108 0 -156 69v-234l-80 -106v757l80 68v-119q49 65 155 65q105 0 156 -74q54 -67 54 -175zM436 233q0 78 -34 128q-39 58 -105 58q-141 0 -151 -146v-71q16 -143 152 -143q73 0 103 52q35 47 35 122z" />
    <glyph glyph-name="q" unicode="q" horiz-adv-x="562" 
d="M499 -193l-80 -74v322q-54 -69 -162 -69q-105 0 -155 75q-54 69 -54 176q0 108 54 175q59 74 156 74q112 0 161 -65v35l80 58v-707zM419 202v71q-16 146 -157 146q-74 0 -105 -58q-34 -50 -34 -128q0 -75 35 -122q38 -52 103 -52q142 0 158 143z" />
    <glyph glyph-name="r" unicode="r" horiz-adv-x="328" 
d="M287 391q-20 2 -33 2q-57 0 -89 -86q-20 -33 -20 -119v-138l-80 -70v491l80 50v-126q40 78 162 82z" />
    <glyph glyph-name="s" unicode="s" horiz-adv-x="479" 
d="M442 134q0 -73 -65 -114q-55 -35 -129 -35q-188 0 -208 178l89 -42q10 -91 123 -75q111 0 107 78q0 37 -32 55q-19 11 -62 20l-45 9q-79 16 -107 37q-56 35 -56 100q0 71 58 108q49 32 118 32q77 0 125 -34q57 -37 71 -123l-86 42q-15 54 -119 54q-36 0 -56 -16
q-31 -19 -31 -53q0 -30 33 -48q21 -12 74 -26l45 -11q67 -16 95 -36q58 -36 58 -100z" />
    <glyph glyph-name="t" unicode="t" horiz-adv-x="292" 
d="M232 405h-56v-260q0 -64 65 -67l17 -91q-143 3 -160 138v280h-81l30 66h51v111l78 60v-171h84z" />
    <glyph glyph-name="u" unicode="u" horiz-adv-x="521" 
d="M446 -52l-71 52v62q-55 -74 -151 -74q-58 0 -99 28q-46 31 -56 85q-4 21 -4 94v262l79 74v-329q0 -73 12 -98q20 -41 84 -41q135 0 135 202v192l71 74v-583z" />
    <glyph glyph-name="v" unicode="v" horiz-adv-x="437" 
d="M434 535l-204 -603h-18l-200 539l61 58l141 -386l6 -43l8 40l116 331z" />
    <glyph glyph-name="w" unicode="w" horiz-adv-x="729" 
d="M699 471l-181 -553h-16l-139 433l-143 -433h-19l-170 553h86l98 -350l2 31l114 319h69l110 -316l2 -34l103 350h84z" />
    <glyph glyph-name="x" unicode="x" horiz-adv-x="396" 
d="M387 0h-90l-100 168l-98 -146l-91 -56l147 273l-139 232h92l94 -162l95 162l96 40l-148 -272z" />
    <glyph glyph-name="y" unicode="y" horiz-adv-x="521" 
d="M452 26q0 -111 -48 -176q-54 -74 -160 -74q-137 0 -188 168l90 -62q17 -40 97 -32q82 0 108 65q18 42 18 142q-54 -69 -145 -69q-57 0 -95 28q-46 31 -56 85q-4 22 -4 60v286l79 66v-311q0 -73 12 -98q20 -41 80 -41q135 0 133 202v182l79 66v-487z" />
    <glyph glyph-name="z" unicode="z" horiz-adv-x="417" 
d="M393 0h-368v66l263 336h-206l-52 69h357v-64l-265 -341h219z" />
    <glyph glyph-name="braceleft" unicode="{" horiz-adv-x="303" 
d="M306 -142l-113 32q-64 15 -64 123v198q0 51 -16 68q-5 5 -69 43v10q44 24 69 53q16 17 16 68v198q0 49 10 75q14 36 54 48q2 1 111 37l-32 -63q-44 -24 -49 -29q-16 -17 -16 -68v-198q0 -98 -58 -121q58 -23 58 -121v-198q0 -51 16 -68q5 -5 49 -29z" />
    <glyph glyph-name="bar" unicode="|" horiz-adv-x="229" 
d="M154 -250h-80v1000h80v-1000z" />
    <glyph glyph-name="braceright" unicode="}" horiz-adv-x="318" 
d="M273 330q-73 -46 -70 -51q-16 -17 -16 -68v-198q0 -49 -10 -75q-14 -36 -54 -48q-2 -1 -118 -32l39 58q44 24 49 29q16 17 16 68v198q0 98 58 121q-58 23 -58 121v198q0 51 -16 68q-5 5 -49 29l-39 52l118 -26q64 -15 64 -123v-198q0 -51 16 -68q5 -5 74 -44z" />
    <glyph glyph-name="asciitilde" unicode="~" horiz-adv-x="554" 
d="M514 385q-62 -80 -127 -72q-34 0 -110.5 35t-108.5 27q-31 0 -55 -21q-7 -6 -40 -38l-59 -74l19 137q56 84 123 78q34 0 115.5 -34.5t108.5 -28.5q49 0 96 56l59 70z" />
    <glyph glyph-name="quotesinglbase" unicode="&#x201a;" horiz-adv-x="229" 
d="M162 55q0 -117 -32 -181h-56q29 67 32 126q-20 2 -33 18t-13 37q0 22 14.5 38.5t36.5 16.5t36.5 -16.5t14.5 -38.5z" />
    <glyph glyph-name="florin" unicode="&#x192;" horiz-adv-x="437" 
d="M423 741l-18 -85q-72 -34 -95 -147l-11 -54h88v-80h-104l-80 -388q-39 -188 -189 -222l18 85q72 34 95 147l78 378h-61v80h77l13 64q38 188 189 222z" />
    <glyph glyph-name="quotedblbase" unicode="&#x201e;" horiz-adv-x="375" 
d="M312 55q0 -117 -32 -181h-56q29 67 32 126q-20 2 -33 18t-13 37q0 22 14.5 38.5t36.5 16.5t36.5 -16.5t14.5 -38.5zM162 55q0 -117 -32 -181h-56q29 67 32 126q-20 2 -33 18t-13 37q0 22 14.5 38.5t36.5 16.5t36.5 -16.5t14.5 -38.5z" />
    <glyph glyph-name="ellipsis" unicode="&#x2026;" horiz-adv-x="859" 
d="M752 55q0 -22 -13.5 -38.5t-34.5 -16.5t-34 17t-13 38t13 38t34 17t34.5 -16.5t13.5 -38.5zM462 55q0 -22 -13.5 -38.5t-34.5 -16.5t-34 17t-13 38t13 38t34 17t34.5 -16.5t13.5 -38.5zM182 55q0 -22 -13.5 -38.5t-34.5 -16.5t-34 17t-13 38t13 38t34 17t34.5 -16.5
t13.5 -38.5z" />
    <glyph glyph-name="dagger" unicode="&#x2020;" horiz-adv-x="458" 
d="M424 498h-77l-76 23v-551h-80v551l-79 -23h-77v79h78l78 -23v152h80v-152l75 23h78v-79z" />
    <glyph glyph-name="daggerdbl" unicode="&#x2021;" horiz-adv-x="458" 
d="M424 78h-77l-76 23v-131h-80v131l-79 -23h-77v79h78l78 -23v387l-79 -23h-77v79h78l78 -23v152h80v-152l75 23h78v-79h-77l-76 23v-387l75 23h78v-79z" />
    <glyph glyph-name="circumflex" unicode="&#x2c6;" 
d="M258 523h-35l-91 95l-89 -95h-32v56l86 95h67l94 -93v-58z" />
    <glyph glyph-name="perthousand" unicode="&#x2030;" horiz-adv-x="1195" 
d="M1160 225q0 -229 -156 -229q-157 0 -157 225q0 234 160 234q153 0 153 -230zM810 225q0 -229 -155 -229q-157 0 -157 225q0 234 159 234q153 0 153 -230zM597 683l-298 -683h-65l291 682zM330 454q0 -230 -155 -230q-157 0 -157 226q0 233 159 233q153 0 153 -229z
M1088 234q0 87 -8 112q-15 47 -72 47q-62 0 -80 -51q-10 -29 -10 -122q0 -87 10 -115q17 -48 75 -48q62 0 78 55q7 24 7 122zM739 234q0 84 -9 112q-15 47 -71 47q-62 0 -80 -51q-10 -29 -10 -122q0 -87 10 -115q17 -48 75 -48q61 0 77 55q8 27 8 122zM259 463q0 87 -8 111
q-16 48 -72 48q-62 0 -80 -51q-10 -29 -10 -122q0 -86 10 -115q17 -49 75 -49q63 0 78 55q7 25 7 123z" />
    <glyph glyph-name="Scaron" unicode="&#x160;" horiz-adv-x="667" 
d="M618 203q0 -111 -89 -170q-76 -51 -193 -51q-118 0 -193 48q-85 54 -103 165h103q14 -71 70 -107q51 -33 127 -33q73 0 121 33q55 38 55 108q0 91 -134 118l-59 12q-110 22 -164 54q-88 52 -88 147q0 96 82 150q71 47 172 47q235 0 277 -194h-94q-23 121 -180 121
q-63 0 -106 -24q-54 -29 -54 -87q0 -50 47 -78q25 -15 92 -32l78 -20q41 -11 111 -31q122 -51 122 -176zM457 911h-35l-91 -95l-89 95h-32v-56l86 -95h67l94 93v58z" />
    <glyph glyph-name="guilsinglleft" unicode="&#x2039;" horiz-adv-x="260" 
d="M203 171h-56l-95 86v67l93 94h58v-35l-95 -91l95 -89v-32z" />
    <glyph glyph-name="OE" unicode="&#x152;" horiz-adv-x="1033" 
d="M977 0h-439v51q-66 -56 -182 -56q-295 0 -295 358t298 358q113 0 179 -56v51h427v-83h-336v-218h274v-83h-274v-240h348v-82zM538 257v191q0 186 -179 186q-120 0 -168 -87q-36 -65 -36 -195q0 -128 37 -195q49 -87 167 -87q179 0 179 187z" />
    <glyph glyph-name="quoteleft" unicode="&#x2018;" horiz-adv-x="229" 
d="M162 526q0 -22 -14.5 -38.5t-36.5 -16.5t-36.5 16.5t-14.5 38.5q0 117 32 181h56q-29 -67 -32 -126q21 -2 33.5 -18t12.5 -37z" />
    <glyph glyph-name="quoteright" unicode="&#x2019;" horiz-adv-x="229" 
d="M162 652q0 -117 -32 -181h-56q28 63 32 126q-21 2 -33.5 18t-12.5 37q0 22 14.5 38.5t36.5 16.5t36.5 -16.5t14.5 -38.5z" />
    <glyph glyph-name="quotedblleft" unicode="&#x201c;" horiz-adv-x="375" 
d="M322 526q0 -22 -14.5 -38.5t-36.5 -16.5t-36.5 16.5t-14.5 38.5q0 117 32 181h56q-29 -67 -32 -126q21 -2 33.5 -18t12.5 -37zM162 526q0 -22 -14.5 -38.5t-36.5 -16.5t-36.5 16.5t-14.5 38.5q0 117 32 181h56q-29 -67 -32 -126q21 -2 33.5 -18t12.5 -37z" />
    <glyph glyph-name="quotedblright" unicode="&#x201d;" horiz-adv-x="375" 
d="M312 652q0 -117 -32 -181h-56q28 63 32 126q-21 2 -33.5 18t-12.5 37q0 22 14.5 38.5t36.5 16.5t36.5 -16.5t14.5 -38.5zM162 652q0 -117 -32 -181h-56q28 63 32 126q-21 2 -33.5 18t-12.5 37q0 22 14.5 38.5t36.5 16.5t36.5 -16.5t14.5 -38.5z" />
    <glyph glyph-name="bullet" unicode="&#x2022;" horiz-adv-x="294" 
d="M241 293q0 -40 -30 -67.5t-70 -27.5q-41 0 -70.5 27t-29.5 68t29.5 67.5t70.5 26.5q40 0 70 -27t30 -67z" />
    <glyph glyph-name="endash" unicode="&#x2013;" horiz-adv-x="522" 
d="M521 265h-526v79h526v-79z" />
    <glyph glyph-name="emdash" unicode="&#x2014;" horiz-adv-x="581" 
d="M582 265h-587v79h587v-79z" />
    <glyph glyph-name="tilde" unicode="&#x2dc;" 
d="M259 581q-33 -59 -67 -59q-13 0 -58 25t-53 25q-18 0 -36 -30q-3 -5 -11 -18h-24v53q29 62 65 62q16 0 62 -24.5t51 -24.5q24 0 47 44h23z" />
    <glyph glyph-name="trademark" unicode="&#x2122;" horiz-adv-x="540" 
d="M494 448h-36l-1 186l2 10l-74 -196h-28l-72 187v-187h-36v255h46l76 -204l77 204h46v-255zM216 671h-75v-223h-37v223h-76v32h188v-32z" />
    <glyph glyph-name="scaron" unicode="&#x161;" horiz-adv-x="479" 
d="M442 134q0 -73 -65 -114q-55 -35 -129 -35q-188 0 -208 178l89 -42q10 -91 123 -75q111 0 107 78q0 37 -32 55q-19 11 -62 20l-45 9q-79 16 -107 37q-56 35 -56 100q0 71 58 108q49 32 118 32q77 0 125 -34q57 -37 71 -123l-86 42q-15 54 -119 54q-36 0 -56 -16
q-31 -19 -31 -53q0 -30 33 -48q21 -12 74 -26l45 -11q67 -16 95 -36q58 -36 58 -100zM366 616l-94 -93h-67l-86 95v56h32l89 -95l91 95h35v-58z" />
    <glyph glyph-name="guilsinglright" unicode="&#x203a;" horiz-adv-x="260" 
d="M203 257l-95 -86h-56v32l95 89l-95 91v35h58l93 -94v-67z" />
    <glyph glyph-name="oe" unicode="&#x153;" horiz-adv-x="903" 
d="M873 223h-358v-7q0 -73 39 -120q41 -50 113 -50q90 0 119 87h83q-57 -147 -209 -147q-133 0 -194 103q-62 -103 -194 -103q-108 0 -171 70q-61 67 -61 176q0 112 61 181q64 73 174 73q129 0 191 -103q63 103 191 103q111 0 167 -79q49 -69 49 -184zM786 290
q-8 125 -135 125q-122 0 -134 -125h269zM425 246q0 77 -35 124q-38 52 -113 52q-81 0 -123 -57q-37 -50 -37 -134q0 -81 36 -128q40 -53 118 -53q80 0 120 61q34 51 34 135z" />
    <glyph glyph-name="Ydieresis" unicode="&#x178;" horiz-adv-x="625" 
d="M446 840q0 -22 -13.5 -38.5t-34.5 -16.5q-22 0 -35 16.5t-13 38.5t13.5 38.5t34.5 16.5t34.5 -17t13.5 -38zM276 840q0 -22 -13.5 -38.5t-34.5 -16.5q-22 0 -35 16.5t-13 38.5t13.5 38.5t34.5 16.5t34.5 -17t13.5 -38zM611 706l-254 -383v-323h-95v323l-249 383h112
l185 -299l189 299h112z" />
    <glyph glyph-name="nonbreakingspace" unicode="&#xa0;" horiz-adv-x="770" 
d="M715 711q0 36 -30 36q-32 0 -32 -34q0 -35 32 -35q21 0 29 20h-11q-5 -12 -17 -12q-21 0 -21 24v1h50zM643 736v9h-12v21h-10v-21h-12v-9h12v-39q0 -17 19 -17v10q-9 1 -9 10v36h12zM601 713q0 34 -31 34q-33 0 -33 -35q0 -34 32 -34t32 35zM750 535q0 11 -18 16l-5 1
q-13 3 -13 9q0 8 11 8q13 0 14 -10h10q-3 17 -23 17q-21 0 -21 -16q0 -12 19 -16l5 -1q12 -2 12 -9q0 -9 -13 -9t-15 11h-10q3 -18 24 -18q23 0 23 17zM691 520v30q0 26 -21 26q-12 0 -15 -8v34h-9v-82h9v24q0 24 15 24q12 0 12 -18v-30h9zM522 680v65h-11v-28
q0 -28 -19 -28q-13 0 -13 19v37h-11v-51q3 -16 22 -16q14 0 21 10v-8h11zM631 523v51h-10v-7q-8 9 -18 9q-25 0 -25 -29t25 -29q11 0 18 10v-2q0 -24 -17 -24q-9 0 -14 8h-10q6 -16 24 -16q27 0 27 29zM452 730q0 51 -50 51q-49 0 -49 -52q0 -30 19 -43q-9 -4 -14 -10v-13
q20 14 28 14q2 0 16 -11t20 -11q15 0 19 7v13q-8 -8 -16 -8t-18 10q45 4 45 53zM565 520v54h-9v-24q0 -23 -16 -23q-11 0 -11 16v31h-9v-32q0 -9 1 -11q1 -13 18 -13q11 0 17 9v-7h9zM690 384v51h-9v-24q0 -23 -16 -23q-11 0 -11 16v31h-9v-36q0 -20 19 -20q9 0 17 8
q0 -24 -15 -24q-8 0 -12 7h-10q6 -15 22 -15q24 0 24 29zM630 381v81h-9v-81h9zM504 520v33q0 23 -21 23t-22 -18h10q0 11 12 11t12 -14q-4 -2 -8 -2h-1q-28 0 -28 -19q0 -16 19 -16q11 0 18 7v-5h9zM304 736v9h-12v21h-11v-21h-11v-9h11v-39q0 -17 20 -17v10q-9 1 -9 10v36
h12zM447 520v82h-9v-82h9zM609 408q0 29 -25 29q-12 0 -19 -9v34h-9v-81h9v7q6 -9 19 -9q25 0 25 29zM258 680v39q0 28 -24 28q-11 0 -19 -11v9h-11v-65h11v32q0 25 19 25q13 0 13 -20v-37h11zM540 381v33q0 8 -1 10q-3 13 -21 13q-20 0 -21 -18h10q0 11 12 11t12 -14
q-4 -2 -9 -2q-28 0 -28 -19q0 -16 19 -16q11 0 18 7v-5h9zM394 547q0 29 -26 29q-27 0 -27 -29t27 -29q26 0 26 29zM486 408q0 29 -25 29q-12 0 -19 -9v34h-9v-81h9v7q6 -9 19 -9q25 0 25 29zM189 713q0 34 -31 34q-33 0 -33 -35q0 -34 32 -34t32 35zM329 520v30
q0 26 -21 26q-12 0 -15 -8v34h-10v-82h10v24q0 24 15 24q12 0 12 -18v-30h9zM120 766v12h-63v-98h13v46h44v11h-44v29h50zM420 408q0 29 -26 29q-27 0 -27 -29t27 -29q26 0 26 29zM272 574h-9l-12 -40v4l-13 36h-8l-14 -37v-3l-11 40h-10l17 -54h8l13 40l14 -40h8zM362 426
v10q-15 -1 -19 -10v9h-10v-54h10v21q0 24 15 24h4zM509 248q0 6 -5 6q-6 0 -6 -6q0 -7 6 -7q5 0 5 7zM484 241v82h-9v-34q-8 9 -19 9q-25 0 -25 -29t25 -29q11 0 19 9v-8h9zM321 408q0 29 -25 29q-13 0 -19 -9v7h-9v-82h9v35q7 -9 19 -9q25 0 25 29zM155 535h-10
q-3 -10 -13 -10q-18 0 -18 20v1h41q0 30 -25 30q-26 0 -26 -28q0 -30 27 -30q16 0 24 17zM421 267q0 31 -25 31q-27 0 -27 -29t27 -29q18 0 24 17h-9q-4 -10 -14 -10q-18 0 -18 20h42zM226 428v7h-10v17h-9v-17h-9v-7h9v-33q0 -14 17 -14v8q-8 2 -8 8v31h10zM361 288v8h-9
v17h-9v-17h-10v-8h10v-32q0 -14 16 -15v9q-7 1 -7 8v30h9zM90 520v82h-11v-35h-42v35h-11v-82h11v37h42v-37h11zM330 287v10q-15 -2 -19 -10v9h-9v-55h9v22q0 9 3 14q6 10 12 10h4zM192 396q0 11 -18 16l-6 1q-13 1 -13 9t11 8q13 0 14 -10h10q-3 17 -23 17q-21 0 -21 -16
q0 -11 20 -16l5 -1q11 -2 11 -9q0 -9 -13 -9q-14 0 -15 10h-10q3 -17 25 -17q23 0 23 17zM96 455q0 5 -4 5t-4 -5q0 -6 4 -6t4 6zM139 426v10q-15 -2 -19 -10v9h-9v-54h9v21q0 9 3 14q6 10 12 10h4zM286 241v34q0 8 -1 10q-1 13 -20 13q-21 0 -22 -18h10q0 11 12 11t12 -14
q-4 -2 -8 -2h-1q-27 0 -27 -19q0 -16 18 -16q11 0 18 7v-6h9zM236 314v9q-22 0 -22 -27h-7v-8h7v-46h9v46h11v8h-11q1 18 10 18h3zM96 381v54h-8v-54h8zM79 453v9q-22 0 -22 -27h-8v-7h8v-47h9v47h11v7h-11q0 18 10 18h3zM703 720h-38q2 17 19 17t19 -17zM590 714
q0 -27 -21 -27q-22 0 -22 25q0 27 23 27q20 0 20 -25zM621 542q-1 -16 -17 -16q-18 0 -18 21t17 21q16 0 18 -14v-12zM438 730q1 -42 -35 -42t-36 41t35 41q36 0 36 -40zM495 547q0 -10 -1 -13q-5 -8 -15 -8t-10 8t19 11zM600 408q0 -21 -17 -21q-16 0 -18 17v8q1 16 18 16
t17 -20zM385 548q0 -22 -17 -22q-18 0 -18 21q0 22 18 22q17 0 17 -21zM531 408q0 -9 -2 -13q-5 -8 -14 -8q-11 0 -11 8t20 11q2 1 3 1q2 0 4 1zM179 714q0 -27 -22 -27q-21 0 -21 25q0 27 22 27q21 0 21 -25zM477 408q0 -21 -17 -21q-16 0 -18 17v8q1 16 18 16t17 -20z
M412 409q0 -23 -18 -23t-18 21q0 23 18 23t18 -21zM475 265q-2 -17 -19 -17t-17 21q0 20 17 20q18 0 19 -16v-8zM312 408q0 -20 -17 -20t-18 16v8q2 17 18 17q17 0 17 -21zM145 553h-31q1 15 16 15q13 0 15 -15zM411 275h-32q1 15 16 15q14 0 16 -15zM277 269q0 -11 -1 -13
q-5 -8 -15 -8t-10 8t19 11z" />
    <glyph glyph-name="exclamdown" unicode="&#xa1;" 
d="M154 561q0 -18 -11 -31.5t-28 -13.5q-18 0 -29 13.5t-11 31.5t11 31.5t29 13.5q17 0 28 -13.5t11 -31.5zM154 -100h-79v377l24 182h31l24 -181v-378z" />
    <glyph glyph-name="cent" unicode="&#xa2;" horiz-adv-x="521" 
d="M492 157q-8 -35 -25 -67q-50 -93 -164 -103v-87h-77v90q-92 14 -141 82q-46 63 -46 159q0 98 45 165q49 74 142 87v73h77v-72q143 -14 180 -147h-89q-19 75 -91 88v-376q81 13 101 108h88zM226 54v368q-99 -30 -99 -185q0 -149 99 -183z" />
    <glyph glyph-name="sterling" unicode="&#xa3;" horiz-adv-x="667" 
d="M600 143q0 -80 -42 -113q-38 -30 -120 -30h-363v78l1 1h-1q72 76 72 167q0 22 -4 45h-85v80h63q-46 125 -45 156q4 98 83 151q68 46 171 46q106 0 165 -45.5t82 -148.5h-94q-12 68 -46 94.5t-104 26.5q-63 0 -106 -24q-52 -29 -54 -87q-2 -45 13 -87q1 -2 32 -82h219v-80
h-195q3 -19 3 -38q0 -82 -63 -175h246q43 0 61 11q23 14 26 54h85z" />
    <glyph glyph-name="currency" unicode="&#xa4;" horiz-adv-x="551" 
d="M499 268l-56 -57l-45 45q-51 -35 -113 -35q-61 0 -112 33l-41 -41l-57 56l41 41q-37 52 -37 116q0 63 35 114l-39 39l57 56l40 -40q48 30 106 30q64 0 117 -36l48 48l56 -57l-49 -49q34 -51 34 -112q0 -57 -31 -105zM413 421q0 55 -39.5 94t-94.5 39q-54 0 -91.5 -37.5
t-37.5 -91.5q0 -31 5 -46q7 -20 34 -48q39 -40 95 -40q54 0 91.5 38t37.5 92z" />
    <glyph glyph-name="yen" unicode="&#xa5;" horiz-adv-x="625" 
d="M611 706l-202 -305h133v-80h-185v-80h185v-80h-185v-161h-95v161h-189v80h189v80h-189v80h138l-198 305h112l185 -299l189 299h112z" />
    <glyph glyph-name="brokenbar" unicode="&#xa6;" horiz-adv-x="229" 
d="M154 325h-80v350h80v-350zM154 -175h-80v350h80v-350z" />
    <glyph glyph-name="section" unicode="&#xa7;" horiz-adv-x="625" 
d="M563 60q0 -87 -70 -137q-62 -45 -153 -45q-212 0 -241 186h100q11 -111 146 -111q125 0 125 95q0 45 -36 67q-22 14 -75 25l-51 11q-89 19 -127 45q-63 43 -63 123q0 83 65 132l4 3q-88 43 -88 135q0 88 70 138q62 45 153 45q212 0 241 -187h-100q-11 112 -146 112
q-125 0 -125 -96q0 -45 36 -67q20 -12 75 -24l51 -11q86 -18 127 -46q63 -42 63 -122q0 -83 -65 -132l-4 -3q88 -43 88 -136zM454 319q0 36 -37 58q-23 13 -91 32l-22 6q-39 -2 -66 -23q-30 -23 -30 -61q0 -37 37 -59q25 -15 90 -32l23 -6q41 3 66 23q30 23 30 62z" />
    <glyph glyph-name="dieresis" unicode="&#xa8;" 
d="M268 588q0 -22 -13.5 -38.5t-34.5 -16.5t-34.5 16.5t-13.5 38.5t13.5 38.5t34.5 16.5t34.5 -16.5t13.5 -38.5zM98 588q0 -22 -13.5 -38.5t-34.5 -16.5t-34.5 16.5t-13.5 38.5t13.5 38.5t34.5 16.5t34.5 -16.5t13.5 -38.5z" />
    <glyph glyph-name="copyright" unicode="&#xa9;" horiz-adv-x="509" 
d="M471 502q0 -93 -60.5 -153t-154.5 -60q-92 0 -152.5 60.5t-60.5 153.5t60.5 153.5t154.5 60.5q93 0 153 -60.5t60 -154.5zM435 503q1 77 -49.5 127.5t-127.5 50.5t-128 -51t-51 -128t51 -127t128 -50q78 0 127 50t50 128zM365 455q-28 -86 -110 -86q-55 0 -85 41
q-27 36 -27 93q0 58 29 94q32 40 88 40q71 0 99 -65h-37q-22 35 -63 35t-62 -32q-18 -27 -18 -70t18 -71q21 -34 62 -34q53 0 70 55h36z" />
    <glyph glyph-name="ordfeminine" unicode="&#xaa;" horiz-adv-x="313" 
d="M282 400h-50v26q-32 -34 -102 -34q-43 0 -72 22q-32 24 -32 66q0 55 53 83q43 23 103 23q31 0 48 12v7q0 66 -73 66q-68 0 -68 -55h-54q11 101 120 101q107 0 123 -73q4 -18 4 -57v-187zM231 556q-9 -8 -49 -14q-48 -8 -66 -16q-32 -15 -32 -45q0 -45 57 -45q55 0 75 35
q15 26 15 85z" />
    <glyph glyph-name="guillemotleft" unicode="&#xab;" horiz-adv-x="409" 
d="M363 171h-56l-95 86v67l93 94h58v-35l-95 -91l95 -89v-32zM203 171h-56l-95 86v67l93 94h58v-35l-95 -91l95 -89v-32z" />
    <glyph glyph-name="logicalnot" unicode="&#xac;" horiz-adv-x="552" 
d="M482 128h-81v123h-358v80h439v-203z" />
    <glyph glyph-name="minus" unicode="&#xad;" horiz-adv-x="552" 
d="M482 251h-439v80h439v-80z" />
    <glyph glyph-name="minus" unicode="&#x2212;" horiz-adv-x="552" 
d="M482 251h-439v80h439v-80z" />
    <glyph glyph-name="registered" unicode="&#xae;" horiz-adv-x="513" 
d="M471 502q0 -93 -60.5 -153t-154.5 -60q-92 0 -152.5 60.5t-60.5 153.5t60.5 153.5t154.5 60.5q93 0 153 -60.5t60 -154.5zM435 503q1 77 -49.5 127.5t-127.5 50.5t-128 -51t-51 -128t51 -127t128 -50q78 0 127 50t50 128zM361 555q0 -37 -28 -58q25 -17 25 -58v-63h-37
v62q0 38 -35 44h-14l-66 1v-107h-35v254h94q96 0 96 -75zM324 555q0 44 -58 44h-60v-86h65q53 0 53 42z" />
    <glyph glyph-name="macron" unicode="&#xaf;" 
d="M275 555h-279v80h279v-80z" />
    <glyph glyph-name="macron" unicode="&#x2c9;" 
d="M275 555h-279v80h279v-80z" />
    <glyph glyph-name="degree" unicode="&#xb0;" horiz-adv-x="354" 
d="M324 597q0 -68 -40.5 -110.5t-108.5 -42.5q-66 0 -107 42.5t-41 108.5q0 67 41 109t108 42q65 0 106.5 -42t41.5 -107zM239 597q0 69 -63 69q-64 0 -64 -72q0 -31 17 -51t47 -20q63 0 63 74z" />
    <glyph glyph-name="plusminus" unicode="&#xb1;" horiz-adv-x="667" 
d="M553 251h-181v-170h180v-80h-439v80h179v170h-179v80h179v179h80v-179h181v-80z" />
    <glyph glyph-name="twosuperior" unicode="&#xb2;" horiz-adv-x="375" 
d="M337 241h-287v56q0 38 66 90q33 24 98 72q57 43 57 89q0 84 -82 84q-83 0 -83 -86h-57q0 65 38 101t103 36q62 0 102 -38t40 -100q0 -48 -57 -103q-15 -15 -105 -84q-57 -44 -57 -67h224v-50z" />
    <glyph glyph-name="threesuperior" unicode="&#xb3;" horiz-adv-x="375" 
d="M344 364q0 -63 -47 -97q-41 -30 -106 -30q-155 0 -159 149h59q3 -52 24 -75t72 -23q95 0 95 79q0 77 -106 77v47q96 0 96 70q0 36 -25.5 55t-62.5 19q-85 0 -92 -99h-58q1 9 3 36q5 54 51 84q41 27 97 27q61 0 101 -30q45 -33 45 -92q0 -60 -54 -92q67 -34 67 -105z" />
    <glyph glyph-name="acute" unicode="&#xb4;" 
d="M210 665l-41 -97l-50 -47h-48l51 144h88z" />
    <glyph glyph-name="mu" unicode="&#xb5;" horiz-adv-x="521" 
d="M456 -64h-37q-40 18 -70 59q-25 -7 -54 -7q-103 0 -151 64v-262h-79v681h79v-206q0 -202 135 -202q64 0 84 41q12 25 12 98v269h79v-276q0 -73 -4 -94q-6 -32 -24 -55q-5 -26 30 -110z" />
    <glyph glyph-name="mu" unicode="&#x3bc;" horiz-adv-x="521" 
d="M456 -64h-37q-40 18 -70 59q-25 -7 -54 -7q-103 0 -151 64v-262h-79v681h79v-206q0 -202 135 -202q64 0 84 41q12 25 12 98v269h79v-276q0 -73 -4 -94q-6 -32 -24 -55q-5 -26 30 -110z" />
    <glyph glyph-name="paragraph" unicode="&#xb6;" horiz-adv-x="594" 
d="M549 642h-44v-808h-88v808h-85v-808h-87v459h-6q-93 0 -156 62t-63 155q0 75 44 132t116 76q21 8 59 8h310v-84z" />
    <glyph glyph-name="periodcentered" unicode="&#xb7;" horiz-adv-x="229" 
d="M162 285q0 -22 -13.5 -38.5t-34.5 -16.5t-34 17t-13 38t13 38t34 17t34.5 -16.5t13.5 -38.5z" />
    <glyph glyph-name="periodcentered" unicode="&#x2219;" horiz-adv-x="229" 
d="M162 285q0 -22 -13.5 -38.5t-34.5 -16.5t-34 17t-13 38t13 38t34 17t34.5 -16.5t13.5 -38.5z" />
    <glyph glyph-name="cedilla" unicode="&#xb8;" 
d="M222 -115q0 -85 -102 -85q-32 0 -74 8v35q28 -6 50 -6q62 0 62 31q0 38 -21 38h-72l20 112h44l-10 -62l44 1q29 1 45 -22q14 -19 14 -50z" />
    <glyph glyph-name="onesuperior" unicode="&#xb9;" horiz-adv-x="375" 
d="M233 246h-61v333h-81v28l111 77h31v-438z" />
    <glyph glyph-name="ordmasculine" unicode="&#xba;" horiz-adv-x="333" 
d="M309 563q0 -144 -139 -144q-66 0 -101.5 37.5t-35.5 103.5q0 68 35.5 109.5t102.5 41.5q65 0 101.5 -41t36.5 -107zM245 563q0 91 -74 91q-75 0 -75 -94q0 -84 75 -84q74 0 74 87z" />
    <glyph glyph-name="guillemotright" unicode="&#xbb;" horiz-adv-x="409" 
d="M363 257l-95 -86h-56v32l95 89l-95 91v35h58l93 -94v-67zM203 257l-95 -86h-56v32l95 89l-95 91v35h58l93 -94v-67z" />
    <glyph glyph-name="onequarter" unicode="&#xbc;" horiz-adv-x="854" 
d="M819 105h-51v-105h-57v105h-198v59l203 274h52v-283h51v-50zM612 683l-315 -683h-69l308 682zM213 246h-61v333h-81v28l111 77h31v-438zM711 155v191l-139 -191h139z" />
    <glyph glyph-name="onehalf" unicode="&#xbd;" horiz-adv-x="903" 
d="M854 0h-287v56q0 38 66 90q33 24 98 72q57 43 57 89q0 84 -82 84q-83 0 -83 -86h-57q0 65 38 101t103 36q62 0 102 -38t40 -100q0 -48 -57 -103q-15 -15 -105 -84q-57 -44 -57 -67h224v-50zM612 683l-315 -683h-69l308 682zM213 246h-61v333h-81v28l111 77h31v-438z" />
    <glyph glyph-name="threequarters" unicode="&#xbe;" horiz-adv-x="915" 
d="M869 105h-51v-105h-57v105h-198v59l203 274h52v-283h51v-50zM662 683l-315 -683h-69l308 682zM344 364q0 -63 -47 -97q-41 -30 -106 -30q-155 0 -159 149h59q3 -52 24 -75t72 -23q95 0 95 79q0 77 -106 77v47q96 0 96 70q0 36 -25.5 55t-62.5 19q-85 0 -92 -99h-58
q1 9 3 36q5 54 51 84q41 27 97 27q61 0 101 -30q45 -33 45 -92q0 -60 -54 -92q67 -34 67 -105zM761 155v191l-139 -191h139z" />
    <glyph glyph-name="questiondown" unicode="&#xbf;" horiz-adv-x="562" 
d="M309 567q0 -18 -11 -31.5t-28 -13.5q-18 0 -29 13.5t-11 31.5t11 31.5t29 13.5q17 0 28 -13.5t11 -31.5zM495 143q3 -129 -79 -193q-61 -48 -145 -48q-97 0 -162 59q-68 61 -68 157q0 58 44 106q40 44 98 64q47 16 47 84v92h79v-106q0 -66 -33 -97q-22 -21 -95 -53
q-58 -26 -58 -101q0 -59 46 -96q42 -34 103 -34q141 0 136 166h87z" />
    <glyph glyph-name="Agrave" unicode="&#xc0;" horiz-adv-x="646" 
d="M635 0h-99l-77 216h-269l-79 -216h-100l269 706h98zM431 295l-103 294l-108 -294h211zM393 765h-48l-50 47l-41 97h88z" />
    <glyph glyph-name="Aacute" unicode="&#xc1;" horiz-adv-x="646" 
d="M635 0h-99l-77 216h-269l-79 -216h-100l269 706h98zM431 295l-103 294l-108 -294h211zM254 765h48l50 47l41 97h-88z" />
    <glyph glyph-name="Acircumflex" unicode="&#xc2;" horiz-adv-x="646" 
d="M635 0h-99l-77 216h-269l-79 -216h-100l269 706h98zM431 295l-103 294l-108 -294h211zM450 760h-35l-91 95l-89 -95h-32v56l86 95h67l94 -93v-58z" />
    <glyph glyph-name="Atilde" unicode="&#xc3;" horiz-adv-x="646" 
d="M635 0h-99l-77 216h-269l-79 -216h-100l269 706h98zM431 295l-103 294l-108 -294h211zM448 831q-33 -59 -67 -59q-13 0 -58 25t-53 25q-19 0 -36 -30q-2 -4 -11 -18h-24v53q28 62 65 62q16 0 61.5 -24.5t51.5 -24.5q24 0 47 44h23z" />
    <glyph glyph-name="Adieresis" unicode="&#xc4;" horiz-adv-x="646" 
d="M635 0h-99l-77 216h-269l-79 -216h-100l269 706h98zM431 295l-103 294l-108 -294h211zM456 833q0 -22 -13.5 -38.5t-34.5 -16.5t-34.5 16.5t-13.5 38.5t13.5 38.5t34.5 16.5t34.5 -16.5t13.5 -38.5zM286 833q0 -22 -13.5 -38.5t-34.5 -16.5t-34.5 16.5t-13.5 38.5
t13.5 38.5t34.5 16.5t34.5 -16.5t13.5 -38.5z" />
    <glyph glyph-name="Aring" unicode="&#xc5;" horiz-adv-x="646" 
d="M635 0h-99l-77 216h-269l-79 -216h-100l269 706h98zM431 295l-103 294l-108 -294h211zM435 845q0 -97 -113 -97q-111 0 -111 95q0 49 31 75t81 26q49 0 79 -24q33 -27 33 -75zM383 845q0 61 -60 61q-61 0 -61 -63q0 -57 61 -57q60 0 60 59z" />
    <glyph glyph-name="AE" unicode="&#xc6;" horiz-adv-x="1040" 
d="M538 583l-211 -288h211v288zM1017 0h-482l2 216h-269l-158 -216h-110l527 706h478v-83h-370v-218h308v-83h-308l-1 -240h383v-82z" />
    <glyph glyph-name="Ccedilla" unicode="&#xc7;" horiz-adv-x="699" 
d="M657 213q-32 -99 -104 -160q-75 -64 -176 -70l-4 -27l44 1q58 1 58 -72q0 -85 -102 -85q-31 0 -73 8v35q27 -6 49 -6q63 0 63 31q0 38 -22 38h-72l14 77q-143 8 -221 121q-69 99 -69 249q0 161 80 261q87 110 244 110q199 0 275 -174h-97q-62 99 -179 99t-177 -91
q-52 -78 -52 -200q0 -123 51 -203q60 -95 177 -95q73 0 125.5 41t74.5 112h93z" />
    <glyph glyph-name="Egrave" unicode="&#xc8;" horiz-adv-x="604" 
d="M577 0h-499v706h487v-83h-396v-218h334v-83h-334v-240h408v-82zM372 765h-48l-50 47l-41 97h88z" />
    <glyph glyph-name="Eacute" unicode="&#xc9;" horiz-adv-x="604" 
d="M577 0h-499v706h487v-83h-396v-218h334v-83h-334v-240h408v-82zM233 765h48l50 47l41 97h-88z" />
    <glyph glyph-name="Ecircumflex" unicode="&#xca;" horiz-adv-x="604" 
d="M577 0h-499v706h487v-83h-396v-218h334v-83h-334v-240h408v-82zM426 760h-35l-91 95l-89 -95h-32v56l86 95h67l94 -93v-58z" />
    <glyph glyph-name="Edieresis" unicode="&#xcb;" horiz-adv-x="604" 
d="M577 0h-499v706h487v-83h-396v-218h334v-83h-334v-240h408v-82zM435 833q0 -22 -13.5 -38.5t-34.5 -16.5t-34.5 16.5t-13.5 38.5t13.5 38.5t34.5 16.5t34.5 -16.5t13.5 -38.5zM265 833q0 -22 -13.5 -38.5t-34.5 -16.5t-34.5 16.5t-13.5 38.5t13.5 38.5t34.5 16.5
t34.5 -16.5t13.5 -38.5z" />
    <glyph glyph-name="Igrave" unicode="&#xcc;" horiz-adv-x="229" 
d="M162 0h-95v706h95v-706zM184 765h-48l-50 47l-41 97h88z" />
    <glyph glyph-name="Iacute" unicode="&#xcd;" horiz-adv-x="229" 
d="M162 0h-95v706h95v-706zM45 765h48l50 47l41 97h-88z" />
    <glyph glyph-name="Icircumflex" unicode="&#xce;" horiz-adv-x="229" 
d="M162 0h-95v706h95v-706zM238 760h-35l-91 95l-89 -95h-32v56l86 95h67l94 -93v-58z" />
    <glyph glyph-name="Idieresis" unicode="&#xcf;" horiz-adv-x="229" 
d="M162 0h-95v706h95v-706zM248 833q0 -22 -13.5 -38.5t-34.5 -16.5q-22 0 -35 16.5t-13 38.5t13 38.5t35 16.5q21 0 34.5 -16.5t13.5 -38.5zM78 833q0 -22 -13.5 -38.5t-34.5 -16.5q-22 0 -35.5 16.5t-13.5 38.5t13.5 38.5t35.5 16.5q21 0 34.5 -16.5t13.5 -38.5z" />
    <glyph glyph-name="Eth" unicode="&#xd0;" horiz-adv-x="675" 
d="M78 311h-65v80h65v315h241q67 0 112 -11q197 -48 197 -342q0 -353 -287 -353h-263v311zM302 311h-128v-230h145q121 0 172 79q41 64 41 192q0 135 -44 197q-53 74 -183 74h-131v-232h128v-80z" />
    <glyph glyph-name="Ntilde" unicode="&#xd1;" horiz-adv-x="708" 
d="M630 0h-85l-387 574l8 -34v-540h-88v706h88l383 -566l-4 36v530h85v-706zM479 831q-33 -59 -67 -59q-14 0 -58.5 25t-52.5 25q-19 0 -36 -30q-2 -4 -11 -18h-24v53q27 62 65 62q15 0 60.5 -24.5t52.5 -24.5q24 0 47 44h23z" />
    <glyph glyph-name="Ograve" unicode="&#xd2;" horiz-adv-x="769" 
d="M705 360q0 -164 -81 -261q-87 -104 -248 -104q-158 0 -244 102q-81 95 -81 256q0 162 82 257q86 101 246 101q154 0 242 -100q84 -95 84 -251zM611 359q0 123 -53 194q-60 81 -179 81q-120 0 -181 -84q-53 -73 -53 -198t53 -198q61 -84 181 -84q123 0 182 87
q50 73 50 202zM454 765h-48l-50 47l-41 97h88z" />
    <glyph glyph-name="Oacute" unicode="&#xd3;" horiz-adv-x="769" 
d="M705 360q0 -164 -81 -261q-87 -104 -248 -104q-158 0 -244 102q-81 95 -81 256q0 162 82 257q86 101 246 101q154 0 242 -100q84 -95 84 -251zM611 359q0 123 -53 194q-60 81 -179 81q-120 0 -181 -84q-53 -73 -53 -198t53 -198q61 -84 181 -84q123 0 182 87
q50 73 50 202zM315 765h48l50 47l41 97h-88z" />
    <glyph glyph-name="Ocircumflex" unicode="&#xd4;" horiz-adv-x="769" 
d="M705 360q0 -164 -81 -261q-87 -104 -248 -104q-158 0 -244 102q-81 95 -81 256q0 162 82 257q86 101 246 101q154 0 242 -100q84 -95 84 -251zM611 359q0 123 -53 194q-60 81 -179 81q-120 0 -181 -84q-53 -73 -53 -198t53 -198q61 -84 181 -84q123 0 182 87
q50 73 50 202zM508 760h-35l-91 95l-89 -95h-32v56l86 95h67l94 -93v-58z" />
    <glyph glyph-name="Otilde" unicode="&#xd5;" horiz-adv-x="769" 
d="M705 360q0 -164 -81 -261q-87 -104 -248 -104q-158 0 -244 102q-81 95 -81 256q0 162 82 257q86 101 246 101q154 0 242 -100q84 -95 84 -251zM611 359q0 123 -53 194q-60 81 -179 81q-120 0 -181 -84q-53 -73 -53 -198t53 -198q61 -84 181 -84q123 0 182 87
q50 73 50 202zM509 831q-33 -59 -67 -59q-13 0 -58 25t-53 25q-19 0 -36 -30q-2 -4 -11 -18h-24v53q28 62 65 62q16 0 61.5 -24.5t51.5 -24.5q24 0 47 44h23z" />
    <glyph glyph-name="Odieresis" unicode="&#xd6;" horiz-adv-x="769" 
d="M705 360q0 -164 -81 -261q-87 -104 -248 -104q-158 0 -244 102q-81 95 -81 256q0 162 82 257q86 101 246 101q154 0 242 -100q84 -95 84 -251zM611 359q0 123 -53 194q-60 81 -179 81q-120 0 -181 -84q-53 -73 -53 -198t53 -198q61 -84 181 -84q123 0 182 87
q50 73 50 202zM518 833q0 -22 -13.5 -38.5t-34.5 -16.5q-22 0 -35 16.5t-13 38.5t13 38.5t35 16.5q21 0 34.5 -16.5t13.5 -38.5zM348 833q0 -22 -13.5 -38.5t-34.5 -16.5q-22 0 -35 16.5t-13 38.5t13 38.5t35 16.5q21 0 34.5 -16.5t13.5 -38.5z" />
    <glyph glyph-name="multiply" unicode="&#xd7;" horiz-adv-x="551" 
d="M456 418l-128 -128l128 -128l-56 -57l-128 128l-127 -126l-57 56l127 127l-127 127l57 56l127 -126l128 128z" />
    <glyph glyph-name="Oslash" unicode="&#xd8;" horiz-adv-x="769" 
d="M221 128l221 500q-29 6 -63 6q-120 0 -181 -84q-53 -73 -53 -198q0 -150 76 -224zM513 597l-230 -510q42 -17 96 -17q123 0 182 87q50 73 50 202q0 170 -98 238zM572 728l-26 -56q42 -24 75 -61q84 -95 84 -251q0 -164 -81 -261q-87 -104 -248 -104q-70 0 -126 20
l-13 -30h-79l27 63q-134 94 -134 305q0 162 82 257q86 101 246 101q51 0 95 -11l12 27z" />
    <glyph glyph-name="Ugrave" unicode="&#xd9;" horiz-adv-x="688" 
d="M611 236q0 -253 -273 -253q-226 0 -258 163q-5 26 -5 103v458h95v-445q0 -66 4 -90q18 -110 164 -110q103 0 143 51q35 45 35 151v443h95v-471zM414 765h-48l-50 47l-41 97h88z" />
    <glyph glyph-name="Uacute" unicode="&#xda;" horiz-adv-x="688" 
d="M611 236q0 -253 -273 -253q-226 0 -258 163q-5 26 -5 103v458h95v-445q0 -66 4 -90q18 -110 164 -110q103 0 143 51q35 45 35 151v443h95v-471zM275 765h48l50 47l41 97h-88z" />
    <glyph glyph-name="Ucircumflex" unicode="&#xdb;" horiz-adv-x="688" 
d="M611 236q0 -253 -273 -253q-226 0 -258 163q-5 26 -5 103v458h95v-445q0 -66 4 -90q18 -110 164 -110q103 0 143 51q35 45 35 151v443h95v-471zM468 760h-35l-91 95l-89 -95h-32v56l86 95h67l94 -93v-58z" />
    <glyph glyph-name="Udieresis" unicode="&#xdc;" horiz-adv-x="688" 
d="M611 236q0 -253 -273 -253q-226 0 -258 163q-5 26 -5 103v458h95v-445q0 -66 4 -90q18 -110 164 -110q103 0 143 51q35 45 35 151v443h95v-471zM477 833q0 -22 -13.5 -38.5t-34.5 -16.5t-34.5 16.5t-13.5 38.5t13.5 38.5t34.5 16.5t34.5 -16.5t13.5 -38.5zM307 833
q0 -22 -13.5 -38.5t-34.5 -16.5t-34.5 16.5t-13.5 38.5t13.5 38.5t34.5 16.5t34.5 -16.5t13.5 -38.5z" />
    <glyph glyph-name="Yacute" unicode="&#xdd;" horiz-adv-x="625" 
d="M611 706l-254 -383v-323h-95v323l-249 383h112l185 -299l189 299h112zM243 765h48l50 47l41 97h-88z" />
    <glyph glyph-name="Thorn" unicode="&#xde;" horiz-adv-x="625" 
d="M584 377q0 -72 -17 -113q-23 -55 -83 -73q-36 -11 -103 -11h-214v-180h-91v706h91v-139h224q110 0 151.5 -40t41.5 -150zM491 379q0 63 -17 83q-19 24 -79 24h-228v-223h207q40 0 60 4q40 8 51 39q6 17 6 73z" />
    <glyph glyph-name="germandbls" unicode="&#xdf;" horiz-adv-x="542" 
d="M312 12q65 0 98 46q29 40 29 107q0 138 -126 138q-50 6 -68 15q-31 16 -32 56q-1 91 116 109q41 6 41 77q0 44 -33 69q-29 22 -75 22q-99 0 -115 -82q-4 -21 -4 -77v-492h-79v496q0 68 8 102q30 126 188 126q83 0 133 -38q57 -43 57 -123q0 -106 -90 -138q-23 -6 -45 -13
q-31 -10 -31 -27q0 -13 8 -17q3 -1 19 -4q95 0 149.5 -56t54.5 -151q0 -94 -54.5 -150.5t-147.5 -56.5q-25 0 -48 5v64q21 -7 47 -7z" />
    <glyph glyph-name="agrave" unicode="&#xe0;" horiz-adv-x="500" 
d="M420 38l-77 -38v39q-50 -52 -151 -52q-66 0 -103 34q-49 37 -49 101q0 83 82 128q37 20 149 36q42 5 69 29v0l-4 32q-15 69 -103 69q-104 0 -96 -43l-84 -42q18 156 177 156q67 0 111 -25q60 -30 73 -88q6 -27 6 -87v-249zM341 239q-14 -12 -70 -22q-73 -11 -93 -24
q-50 -23 -50 -69q0 -35 28 -54q24 -16 53 -16q86 0 110 54q22 39 22 131zM325 477l-63 45l-50 47l-53 135l100 -38z" />
    <glyph glyph-name="aacute" unicode="&#xe1;" horiz-adv-x="500" 
d="M420 38l-77 -38v39q-50 -52 -151 -52q-66 0 -103 34q-49 37 -49 101q0 83 82 128q37 20 149 36q42 5 69 29v0l-4 32q-15 69 -103 69q-104 0 -96 -43l-84 -42q18 156 177 156q67 0 111 -25q60 -30 73 -88q6 -27 6 -87v-249zM341 239q-14 -12 -70 -22q-73 -11 -93 -24
q-50 -23 -50 -69q0 -35 28 -54q24 -16 53 -16q86 0 110 54q22 39 22 131zM306 665l-41 -97l-50 -47h-48l51 144h88z" />
    <glyph glyph-name="acircumflex" unicode="&#xe2;" horiz-adv-x="500" 
d="M420 38l-77 -38v39q-50 -52 -151 -52q-66 0 -103 34q-49 37 -49 101q0 83 82 128q37 20 149 36q42 5 69 29v0l-4 32q-15 69 -103 69q-104 0 -96 -43l-84 -42q18 156 177 156q67 0 111 -25q60 -30 73 -88q6 -27 6 -87v-249zM341 239q-14 -12 -70 -22q-73 -11 -93 -24
q-50 -23 -50 -69q0 -35 28 -54q24 -16 53 -16q86 0 110 54q22 39 22 131zM367 523h-35l-91 95l-89 -95h-32v56l86 95h67l94 -93v-58z" />
    <glyph glyph-name="atilde" unicode="&#xe3;" horiz-adv-x="500" 
d="M420 38l-77 -38v39q-50 -52 -151 -52q-66 0 -103 34q-49 37 -49 101q0 83 82 128q37 20 149 36q42 5 69 29v0l-4 32q-15 69 -103 69q-104 0 -96 -43l-84 -42q18 156 177 156q67 0 111 -25q60 -30 73 -88q6 -27 6 -87v-249zM341 239q-14 -12 -70 -22q-73 -11 -93 -24
q-50 -23 -50 -69q0 -35 28 -54q24 -16 53 -16q86 0 110 54q22 39 22 131zM364 581q-33 -59 -67 -59q-13 0 -58 25t-53 25q-18 0 -36 -30q-3 -5 -11 -18h-24v53q29 62 65 62q16 0 62 -24.5t51 -24.5q24 0 47 44h23z" />
    <glyph glyph-name="adieresis" unicode="&#xe4;" horiz-adv-x="500" 
d="M420 38l-77 -38v39q-50 -52 -151 -52q-66 0 -103 34q-49 37 -49 101q0 83 82 128q37 20 149 36q42 5 69 29v0l-4 32q-15 69 -103 69q-104 0 -96 -43l-84 -42q18 156 177 156q67 0 111 -25q60 -30 73 -88q6 -27 6 -87v-249zM341 239q-14 -12 -70 -22q-73 -11 -93 -24
q-50 -23 -50 -69q0 -35 28 -54q24 -16 53 -16q86 0 110 54q22 39 22 131zM380 588q0 -22 -13.5 -38.5t-34.5 -16.5t-34.5 16.5t-13.5 38.5t13.5 38.5t34.5 16.5t34.5 -16.5t13.5 -38.5zM210 588q0 -22 -13.5 -38.5t-34.5 -16.5t-34.5 16.5t-13.5 38.5t13.5 38.5t34.5 16.5
t34.5 -16.5t13.5 -38.5z" />
    <glyph glyph-name="aring" unicode="&#xe5;" horiz-adv-x="500" 
d="M420 38l-77 -38v39q-50 -52 -151 -52q-66 0 -103 34q-49 37 -49 101q0 83 82 128q37 20 149 36q42 5 69 29v0l-4 32q-15 69 -103 69q-104 0 -96 -43l-84 -42q18 156 177 156q67 0 111 -25q60 -30 73 -88q6 -27 6 -87v-249zM341 239q-14 -12 -70 -22q-73 -11 -93 -24
q-50 -23 -50 -69q0 -35 28 -54q24 -16 53 -16q86 0 110 54q22 39 22 131zM349 611q0 -97 -113 -97q-111 0 -111 95q0 49 31 75t81 26q49 0 79 -24q33 -27 33 -75zM297 611q0 61 -60 61q-61 0 -61 -63q0 -57 61 -57q60 0 60 59z" />
    <glyph glyph-name="ae" unicode="&#xe6;" horiz-adv-x="821" 
d="M347 239q-14 -12 -76 -22q-73 -11 -101 -24q-50 -23 -50 -69q0 -35 28 -54q24 -16 61 -16q86 0 116 54q22 39 22 131zM793 223h-358v-7q0 -73 39 -120q41 -50 113 -50q90 0 119 87h83q-57 -147 -209 -147q-139 0 -199 112l-32 -59q-50 -52 -157 -52q-66 0 -111 34
q-49 37 -49 101q0 83 82 128q37 20 157 36q42 5 75 29l-4 32q-15 69 -109 69q-104 0 -104 -85h-84q18 156 185 156q129 0 175 -76q63 75 172 75q111 0 167 -79q49 -69 49 -184zM706 290q-8 125 -135 125q-122 0 -134 -125h269z" />
    <glyph glyph-name="ccedilla" unicode="&#xe7;" horiz-adv-x="521" 
d="M492 157q-36 -163 -201 -171l-5 -30l44 1q58 1 58 -72q0 -85 -102 -85q-31 0 -73 8v35q27 -6 49 -6q63 0 63 31q0 38 -22 38h-72l15 81q-100 9 -155 77q-52 64 -52 167q0 112 57 181q61 74 171 74q175 0 216 -149h-89q-20 81 -124 81q-143 0 -143 -181q0 -79 34 -126
q38 -54 114 -54q107 0 129 100h88z" />
    <glyph glyph-name="egrave" unicode="&#xe8;" horiz-adv-x="521" 
d="M477 223h-348v-7q0 -73 39 -120q41 -50 109 -50q90 0 113 57l83 52q-49 -155 -203 -169q-111 0 -169 73q-58 68 -58 181q0 108 59 175q63 71 165 71q111 0 161 -79q49 -69 49 -184zM390 290q-8 125 -129 125q-122 0 -130 -125h259zM339 477l-63 45l-50 47l-53 135
l100 -38z" />
    <glyph glyph-name="eacute" unicode="&#xe9;" horiz-adv-x="521" 
d="M477 223h-348v-7q0 -73 39 -120q41 -50 109 -50q90 0 113 57l83 52q-49 -155 -203 -169q-111 0 -169 73q-58 68 -58 181q0 108 59 175q63 71 165 71q111 0 161 -79q49 -69 49 -184zM390 290q-8 125 -129 125q-122 0 -130 -125h259zM346 665l-41 -97l-50 -47h-48l51 144
h88z" />
    <glyph glyph-name="ecircumflex" unicode="&#xea;" horiz-adv-x="521" 
d="M477 223h-348v-7q0 -73 39 -120q41 -50 109 -50q90 0 113 57l83 52q-49 -155 -203 -169q-111 0 -169 73q-58 68 -58 181q0 108 59 175q63 71 165 71q111 0 161 -79q49 -69 49 -184zM390 290q-8 125 -129 125q-122 0 -130 -125h259zM386 523h-35l-91 95l-89 -95h-32v56
l86 95h67l94 -93v-58z" />
    <glyph glyph-name="edieresis" unicode="&#xeb;" horiz-adv-x="521" 
d="M477 223h-348v-7q0 -73 39 -120q41 -50 109 -50q90 0 113 57l83 52q-49 -155 -203 -169q-111 0 -169 73q-58 68 -58 181q0 108 59 175q63 71 165 71q111 0 161 -79q49 -69 49 -184zM390 290q-8 125 -129 125q-122 0 -130 -125h259zM405 588q0 -22 -13.5 -38.5
t-34.5 -16.5t-34.5 16.5t-13.5 38.5t13.5 38.5t34.5 16.5t34.5 -16.5t13.5 -38.5zM235 588q0 -22 -13.5 -38.5t-34.5 -16.5t-34.5 16.5t-13.5 38.5t13.5 38.5t34.5 16.5t34.5 -16.5t13.5 -38.5z" />
    <glyph glyph-name="igrave" unicode="&#xec;" horiz-adv-x="208" 
d="M144 0h-77v471h77v-471zM194 477l-63 45l-50 47l-53 135l100 -38z" />
    <glyph glyph-name="iacute" unicode="&#xed;" horiz-adv-x="208" 
d="M144 0h-77v471h77v-471zM185 665l-41 -97l-50 -47h-48l51 144h88z" />
    <glyph glyph-name="icircumflex" unicode="&#xee;" horiz-adv-x="208" 
d="M144 0h-77v471h77v-471zM231 523h-35l-91 95l-89 -95h-32v56l86 95h67l94 -93v-58z" />
    <glyph glyph-name="idieresis" unicode="&#xef;" horiz-adv-x="208" 
d="M144 0h-77v471h77v-471zM249 588q0 -22 -13.5 -38.5t-34.5 -16.5t-34.5 16.5t-13.5 38.5t13.5 38.5t34.5 16.5t34.5 -16.5t13.5 -38.5zM79 588q0 -22 -13.5 -38.5t-34.5 -16.5t-34.5 16.5t-13.5 38.5t13.5 38.5t34.5 16.5t34.5 -16.5t13.5 -38.5z" />
    <glyph glyph-name="eth" unicode="&#xf0;" horiz-adv-x="542" 
d="M405 345h-1l-6 13q-38 64 -121 64q-81 0 -123 -57q-37 -50 -37 -134q0 -81 36 -128q40 -53 118 -53q80 0 120 61q34 51 34 135q0 58 -20 99zM181 605l90 31l-38 83l86 -1l25 -57l91 32l22 -63l-86 -30l98 -222q33 -59 33 -142q0 -110 -59 -178q-62 -72 -171 -72
q-108 0 -171 70q-61 67 -61 176q0 112 61 181q64 73 174 73q37 0 69 -9l-45 98l-97 -33z" />
    <glyph glyph-name="ntilde" unicode="&#xf1;" horiz-adv-x="521" 
d="M455 38l-79 -74v304q0 77 -11 102q-18 42 -85 41q-71 -1 -106 -59q-29 -47 -29 -123v-191l-80 -74v507l80 84v-143q42 74 137 74q55 0 102.5 -29t62.5 -79q8 -27 8 -97v-243zM383 581q-33 -59 -67 -59q-13 0 -58 25t-53 25q-18 0 -36 -30q-3 -5 -11 -18h-24v53
q29 62 65 62q16 0 62 -24.5t51 -24.5q24 0 47 44h23z" />
    <glyph glyph-name="ograve" unicode="&#xf2;" horiz-adv-x="542" 
d="M496 236q0 -110 -59 -178q-62 -72 -165 -72q-108 0 -165 70q-61 67 -61 176q0 112 61 181q64 73 168 73q107 0 163 -73q58 -68 58 -177zM419 246q0 77 -35 124q-38 52 -107 52q-81 0 -117 -57q-37 -50 -37 -134q0 -81 36 -128q40 -53 112 -53q80 0 114 61q34 51 34 135z
M351 477l-63 45l-50 47l-53 135l100 -38z" />
    <glyph glyph-name="oacute" unicode="&#xf3;" horiz-adv-x="542" 
d="M496 236q0 -110 -59 -178q-62 -72 -165 -72q-108 0 -165 70q-61 67 -61 176q0 112 61 181q64 73 168 73q107 0 163 -73q58 -68 58 -177zM419 246q0 77 -35 124q-38 52 -107 52q-81 0 -117 -57q-37 -50 -37 -134q0 -81 36 -128q40 -53 112 -53q80 0 114 61q34 51 34 135z
M342 665l-41 -97l-50 -47h-48l51 144h88z" />
    <glyph glyph-name="ocircumflex" unicode="&#xf4;" horiz-adv-x="542" 
d="M496 236q0 -110 -59 -178q-62 -72 -165 -72q-108 0 -165 70q-61 67 -61 176q0 112 61 181q64 73 168 73q107 0 163 -73q58 -68 58 -177zM419 246q0 77 -35 124q-38 52 -107 52q-81 0 -117 -57q-37 -50 -37 -134q0 -81 36 -128q40 -53 112 -53q80 0 114 61q34 51 34 135z
M398 523h-35l-91 95l-89 -95h-32v56l86 95h67l94 -93v-58z" />
    <glyph glyph-name="otilde" unicode="&#xf5;" horiz-adv-x="542" 
d="M496 236q0 -110 -59 -178q-62 -72 -165 -72q-108 0 -165 70q-61 67 -61 176q0 112 61 181q64 73 168 73q107 0 163 -73q58 -68 58 -177zM419 246q0 77 -35 124q-38 52 -107 52q-81 0 -117 -57q-37 -50 -37 -134q0 -81 36 -128q40 -53 112 -53q80 0 114 61q34 51 34 135z
M395 581q-33 -59 -67 -59q-13 0 -58 25t-53 25q-18 0 -36 -30q-3 -5 -11 -18h-24v53q29 62 65 62q16 0 62 -24.5t51 -24.5q24 0 47 44h23z" />
    <glyph glyph-name="odieresis" unicode="&#xf6;" horiz-adv-x="542" 
d="M496 236q0 -110 -59 -178q-62 -72 -165 -72q-108 0 -165 70q-61 67 -61 176q0 112 61 181q64 73 168 73q107 0 163 -73q58 -68 58 -177zM419 246q0 77 -35 124q-38 52 -107 52q-81 0 -117 -57q-37 -50 -37 -134q0 -81 36 -128q40 -53 112 -53q80 0 114 61q34 51 34 135z
M399 588q0 -22 -13.5 -38.5t-34.5 -16.5t-34.5 16.5t-13.5 38.5t13.5 38.5t34.5 16.5t34.5 -16.5t13.5 -38.5zM229 588q0 -22 -13.5 -38.5t-34.5 -16.5t-34.5 16.5t-13.5 38.5t13.5 38.5t34.5 16.5t34.5 -16.5t13.5 -38.5z" />
    <glyph glyph-name="divide" unicode="&#xf7;" horiz-adv-x="552" 
d="M496 251h-439v80h439v-80zM324 455q0 -22 -13.5 -38.5t-34.5 -16.5t-34 17t-13 38t13 38t34 17t34.5 -16.5t13.5 -38.5zM324 125q0 -22 -13.5 -38.5t-34.5 -16.5t-34 17t-13 38t13 38t34 17t34.5 -16.5t13.5 -38.5z" />
    <glyph glyph-name="oslash" unicode="&#xf8;" horiz-adv-x="542" 
d="M502 236q0 -110 -59 -178q-62 -72 -171 -72q-37 0 -69 8l-13 -29h-69l24 54q-105 65 -105 213q0 112 61 181q64 73 174 73q40 0 74 -10l19 42l76 1l-34 -74q92 -69 92 -209zM323 416q-21 6 -46 6q-81 0 -123 -57q-37 -50 -37 -134q0 -102 56 -149zM425 246q0 87 -44 135
l-150 -327q18 -4 40 -4q80 0 120 61q34 51 34 135z" />
    <glyph glyph-name="ugrave" unicode="&#xf9;" horiz-adv-x="521" 
d="M446 -52l-71 52v62q-55 -74 -151 -74q-58 0 -99 28q-46 31 -56 85q-4 21 -4 94v262l79 74v-329q0 -73 12 -98q20 -41 84 -41q135 0 135 202v192l71 74v-583zM339 477l-63 45l-50 47l-53 135l100 -38z" />
    <glyph glyph-name="uacute" unicode="&#xfa;" horiz-adv-x="521" 
d="M446 -52l-71 52v62q-55 -74 -151 -74q-58 0 -99 28q-46 31 -56 85q-4 21 -4 94v262l79 74v-329q0 -73 12 -98q20 -41 84 -41q135 0 135 202v192l71 74v-583zM330 665l-41 -97l-50 -47h-48l51 144h88z" />
    <glyph glyph-name="ucircumflex" unicode="&#xfb;" horiz-adv-x="521" 
d="M446 -52l-71 52v62q-55 -74 -151 -74q-58 0 -99 28q-46 31 -56 85q-4 21 -4 94v262l79 74v-329q0 -73 12 -98q20 -41 84 -41q135 0 135 202v192l71 74v-583zM376 523h-35l-91 95l-89 -95h-32v56l86 95h67l94 -93v-58z" />
    <glyph glyph-name="udieresis" unicode="&#xfc;" horiz-adv-x="521" 
d="M446 -52l-71 52v62q-55 -74 -151 -74q-58 0 -99 28q-46 31 -56 85q-4 21 -4 94v262l79 74v-329q0 -73 12 -98q20 -41 84 -41q135 0 135 202v192l71 74v-583zM381 588q0 -22 -13.5 -38.5t-34.5 -16.5t-34.5 16.5t-13.5 38.5t13.5 38.5t34.5 16.5t34.5 -16.5t13.5 -38.5z
M211 588q0 -22 -13.5 -38.5t-34.5 -16.5t-34.5 16.5t-13.5 38.5t13.5 38.5t34.5 16.5t34.5 -16.5t13.5 -38.5z" />
    <glyph glyph-name="yacute" unicode="&#xfd;" horiz-adv-x="491" 
d="M443 26q0 -111 -48 -176q-54 -74 -160 -74q-137 0 -188 168l90 -62q17 -40 97 -32q82 0 108 65q18 42 18 142q-54 -69 -145 -69q-57 0 -95 28q-46 31 -56 85q-4 22 -4 60v286l79 66v-311q0 -73 12 -98q20 -41 80 -41q135 0 133 202v182l79 66v-487zM324 665l-41 -97
l-50 -47h-48l51 144h88z" />
    <glyph glyph-name="thorn" unicode="&#xfe;" horiz-adv-x="562" 
d="M527 232q0 -110 -59 -178q-62 -72 -171 -72q-94 0 -154 53v-248h-79v910h79v-271q61 56 157 56q107 0 169 -73q58 -68 58 -177zM450 242q0 77 -35 124q-38 52 -113 52q-70 0 -114.5 -47t-44.5 -117v-53q0 -67 43 -111t110 -44q80 0 120 61q34 51 34 135z" />
    <glyph glyph-name="ydieresis" unicode="&#xff;" horiz-adv-x="497" 
d="M443 26q0 -111 -48 -176q-54 -74 -160 -74q-137 0 -188 168l90 -62q17 -40 97 -32q82 0 108 65q18 42 18 142q-54 -69 -145 -69q-57 0 -95 28q-46 31 -56 85q-4 22 -4 60v286l79 66v-311q0 -73 12 -98q20 -41 80 -41q135 0 133 202v182l79 66v-487zM383 588
q0 -22 -13.5 -38.5t-34.5 -16.5t-34.5 16.5t-13.5 38.5t13.5 38.5t34.5 16.5t34.5 -16.5t13.5 -38.5zM213 588q0 -22 -13.5 -38.5t-34.5 -16.5t-34.5 16.5t-13.5 38.5t13.5 38.5t34.5 16.5t34.5 -16.5t13.5 -38.5z" />
    <glyph glyph-name="dotlessi" unicode="&#x131;" horiz-adv-x="208" 
d="M144 0h-77v471h77v-471z" />
    <glyph glyph-name="caron" unicode="&#x2c7;" 
d="M258 616l-94 -93h-67l-86 95v56h32l89 -95l91 95h35v-58z" />
    <glyph glyph-name="ring" unicode="&#x2da;" 
d="M248 611q0 -97 -113 -97q-111 0 -111 95q0 49 31 75t81 26q49 0 79 -24q33 -27 33 -75zM196 611q0 61 -60 61q-61 0 -61 -63q0 -57 61 -57q60 0 60 59z" />
    <glyph glyph-name="uniF001" unicode="&#xf001;" horiz-adv-x="469" 
d="M408 660q0 -18 -11.5 -31.5t-28.5 -13.5t-28 13.5t-11 31.5t11 31.5t28 13.5t28.5 -13.5t11.5 -31.5zM406 0h-77v405h-178v-404h-78v404h-62v66h62v3q0 121 36 171q44 59 160 59v-81q-16 1 -28 1q-60 0 -78 -49q-9 -25 -12 -104h255v-471z" />
    <glyph glyph-name="uniF002" unicode="&#xf002;" horiz-adv-x="472" 
d="M413 0h-77v405h-185v-404h-78v404h-62v66h62v3q0 121 36 171q44 59 160 59v-81q-16 1 -28 1q-60 0 -78 -49q-9 -25 -12 -104h185v235h77v-706z" />
    <glyph glyph-name="glyph223" 
 />
    <glyph glyph-name="glyph224" 
 />
    <glyph glyph-name="glyph225" horiz-adv-x="542" 
d="M312 12q65 0 98 46q29 40 29 107q0 138 -126 138q-50 6 -68 15q-31 16 -32 56q-1 91 116 109q41 6 41 77q0 44 -33 69q-29 22 -75 22q-99 0 -115 -82q-4 -21 -4 -77v-492h-79v496q0 68 8 102q30 126 188 126q83 0 133 -38q57 -43 57 -123q0 -106 -90 -138q-23 -6 -45 -13
q-31 -10 -31 -27q0 -13 8 -17q3 -1 19 -4q95 0 149.5 -56t54.5 -151q0 -94 -54.5 -150.5t-147.5 -56.5q-25 0 -48 5v64q21 -7 47 -7z" />
    <glyph glyph-name="glyph226" 
 />
    <glyph glyph-name="glyph227" 
 />
    <glyph glyph-name="ch336" 
 />
    <glyph glyph-name="ch337" 
 />
    <glyph glyph-name="ch338" 
 />
    <glyph glyph-name="ch339" 
 />
    <glyph glyph-name="glyph232" horiz-adv-x="375" 
d="M337 351h-51v-105h-57v105h-198v59l203 274h52v-283h51v-50zM229 401v191l-139 -191h139z" />
    <glyph glyph-name="glyph233" 
 />
    <glyph glyph-name="glyph234" 
 />
    <glyph glyph-name="glyph235" horiz-adv-x="761" 
 />
    <glyph glyph-name="ch344" horiz-adv-x="437" 
d="M423 470l-167 -473h1q-72 -200 -242 -224l1 92q50 0 79 26q56 51 82 109l-163 471h85l117 -370l14 51l113 318h80z" />
    <glyph glyph-name="glyph237" horiz-adv-x="354" 
d="M985 720q-44 -24 -49 -29q-16 -17 -16 -68v-213h-78v213q0 49 10 75q14 36 54 48q2 1 79 19v-45z" />
    <glyph glyph-name="glyph238" horiz-adv-x="521" 
d="M454 26q0 -111 -48 -176q-54 -74 -162 -74q-137 0 -192 136h90q34 -62 101 -62q82 0 110 65q18 42 18 142q-54 -69 -147 -69q-57 0 -99 28q-46 31 -56 85q-4 22 -4 60v310h79v-269q0 -73 12 -98q20 -41 84 -41q135 0 135 202v206h79v-445z" />
    <glyph glyph-name="ch342" 
 />
    <glyph glyph-name="ch343" 
 />
    <glyph glyph-name="ch346" horiz-adv-x="208" 
d="M143 -3q0 -230 -216 -230v81q138 -10 138 159v463h78v-473z" />
    <glyph glyph-name="ch350" 
 />
    <glyph glyph-name="ch340" 
 />
    <glyph glyph-name="ch334" horiz-adv-x="542" 
d="M502 236q0 -108 -60 -177q-63 -73 -170 -73q-108 0 -171 70q-61 67 -61 176q0 112 61 181q64 73 174 73q107 0 169 -73q58 -68 58 -177zM415 245q0 75 -31 122q-36 55 -107 55q-78 0 -117 -59q-33 -50 -33 -132q0 -79 32 -126q37 -55 112 -55q144 0 144 195z" />
    <glyph glyph-name="ch353" horiz-adv-x="715" 
d="M549 788l-112 -61l-41 -134l109 51zM458 781l-22 124l-90 -131l23 -176q21 82 30 136zM695 197l-66 7l12 71l-90 24l50 60l-63 62l89 16l-30 79l82 6l-175 80l-134 -34l-136 34l-162 -72l-57 -170l65 -230l165 -147l63 16l63 56l62 -56l62 -16l126 77zM489 375
q-5 -23 -19 -23q-20 0 -20 40q0 39 20 39q19 0 19 -41h-32v-2q0 -27 14 -27q8 0 10 14h8zM441 354h-7v10q-5 -12 -14 -12q-20 0 -20 39q0 40 20 40q8 0 14 -12v47h7v-112zM390 354h-7v8q-4 -10 -14 -10q-14 0 -14 21q0 26 21 26q4 0 7 3q0 20 -10 20q-9 -2 -9 -15h-7
q1 24 16 24q17 0 17 -31v-46zM348 375q-5 -23 -18 -23q-21 0 -21 40q0 39 20 39q19 0 19 -41h-31v-2q0 -27 13 -27q8 0 11 14h7zM300 354h-9v82l-18 -82h-7l-19 93l1 -93h-8v112h10l20 -92l19 92h11v-112zM207 353h-7v14q-8 -15 -20 -15q-27 0 -27 58t28 58q17 0 25 -27h-9
q-4 16 -16 16q-20 0 -20 -46q0 -47 20 -47q14 0 19 24v11h-17v13h24v-59zM228 363q0 -9 -5 -9q-4 0 -4 9q0 8 4 8q5 0 5 -8zM385 227h-7v-42q0 -9 5 -11v-12q-12 1 -12 20v45h-8v10h8v23h7v-23h7v-10zM356 162h-7v43q0 23 -9 22q-12 0 -12 -28v-37h-7v75h7v-11q4 13 13 13
q15 0 15 -32v-45zM312 200q0 -40 -20 -40q-21 0 -21 39q0 40 21 40q20 0 20 -39zM268 261h-32v-33h28v-13h-28v-53h-8v112h40v-13zM481 400q0 20 -12 20q-10 0 -12 -20h24zM434 385v12q0 23 -14 23q-13 0 -13 -28q0 -30 13 -30q14 0 14 23zM383 392q-2 -2 -5 -3
q-15 -5 -15 -15q0 -11 8 -11t11 11q1 3 1 18zM341 400q-2 20 -12 20t-12 -20h24zM305 201q0 28 -13 28q-14 0 -14 -30q0 -29 13 -29q14 0 14 31z" />
    <glyph glyph-name="glyph246" horiz-adv-x="0" 
 />
    <glyph glyph-name="controlEM" horiz-adv-x="500" 
 />
    </font>
</defs>
</svg>
