<svg xmlns="http://www.w3.org/2000/svg" viewBox="0 0 182.7 125.44"><defs><style>.cls-1{fill:#e29b4d;}.cls-2{fill:#e02230;}.cls-3{fill:#22e050;}</style></defs><g id="Layer_2" data-name="Layer 2"><g id="Слой_1" data-name="Слой 1"><path d="M179.1,60.75a10,10,0,0,1-1-1.1,25.27,25.27,0,0,0,.6-12.2,16.19,16.19,0,0,0-2.3-5.6,20.48,20.48,0,0,0-16.9-9.2c-.7,0-1.4.1-2,.1a.35.35,0,0,1-.2-.1c-1.2-.7-1.6-4.8-2.3-6.3-2.6-5.5-11.3-5.8-15.3-10.1-4.5-4.8-4.8-8.6-12.3-8-5.3.4-8.1,2.4-13.3-1.4A12.29,12.29,0,0,0,104.3,5,28.64,28.64,0,0,0,93.6.65C81.8-1.85,68,3.15,59.2,11.55a5,5,0,0,0-1.2.2c-3.3.9-5.6,1.8-7.9,4.5-3.3,4-5.3,7-11.1,8.2-2.5.5-5.7,1.2-7.3,3.3-2.2,2.8-2.8,5.8-3.7,9.2-1.5,5.7-7,5.8-11,8.6-4.3,2.9-5.4,6.7-5.8,11.3a22.92,22.92,0,0,0-8.9,12.4,27,27,0,0,0,1.3,19.6,14.36,14.36,0,0,1-.8,2.5c-1.4,3.4-2.9,6.1-2.8,9.8.2,6.1,7.9,7.8,11.6,11.1.1.1.1.1.2.1,1.3,6.2,4.5,11.5,11.3,12.9,3.3.7,7.8-.7,11.2-1.1,4.1-.5,8.1-1.1,12.2-1.7,16.2-2.5,32.2-5.5,48.4-8.1,15.8-2.5,31.6-5.1,47.4-7.7,5.6-.9,11.1-2,16.6-3.1,4.5-.9,11.8-1.1,15.4-4.2,3.9-3.4,4.8-8.4,4.3-13.7a17.8,17.8,0,0,0,1.7-2.6c2.2-4,2.2-7.8,2.4-12.2C182.5,67,181.8,63.55,179.1,60.75Z"/><path class="cls-1" d="M153,44.45c-17.5-19.2-43-27.2-68.5-23.3C61,24.75,36.3,38.15,25.9,61a118.16,118.16,0,0,0-10,33.9c-.9,6.5-2.7,14,.6,20.2a13,13,0,0,0,2.7,3.6c4.5,4.1,10.5,1.4,17.3.1,19.2-3.6,38.6-6.2,57.8-9.4,14.1-2.3,28.1-4.7,42.2-7,7.5-1.2,14.9-2.4,22.4-3.7,5.2-.8,12.5-1,15.1-6.7,2.2-4.7-1.1-11.7-2.7-16.3A88.61,88.61,0,0,0,153,44.45ZM50.1,56.55a4.13,4.13,0,0,1,3.2-4.7,4,4,0,0,1,4.5,3.4,3.88,3.88,0,0,1-3.2,4.5A4,4,0,0,1,50.1,56.55Zm12.5,40.6a3.39,3.39,0,1,1,2.8-3.9A3.33,3.33,0,0,1,62.6,97.15Zm29-18.7a3.39,3.39,0,1,1,2.8-3.9A3.46,3.46,0,0,1,91.6,78.45Zm6.7-26.1a4.71,4.71,0,1,1,3.9-5.4A4.78,4.78,0,0,1,98.3,52.35Zm37.4,20a3.9,3.9,0,1,1,3.2-4.5A3.88,3.88,0,0,1,135.7,72.35Z"/><path class="cls-2" d="M172,44.25c-4.2-6.4-10.5-7.5-17.2-6.2a84.17,84.17,0,0,1,17.1,25.8C175.6,57.65,176.5,51.15,172,44.25Z"/><path class="cls-2" d="M6.6,71c-2.2,8.8-.2,15.2,5.5,21.3a98.34,98.34,0,0,1,10.8-35C15.3,58.25,8.8,62,6.6,71Z"/><path class="cls-2" d="M109.1,15.75c-2.3-2.7-4.1-5.3-7.2-7.4a23.82,23.82,0,0,0-11.9-4,35.09,35.09,0,0,0-23.2,6.4,34,34,0,0,0-9.9,11.1,33.58,33.58,0,0,0-2,4.3,87.39,87.39,0,0,1,28.8-9.6A93.94,93.94,0,0,1,109.1,15.75Z"/><path class="cls-3" d="M150.6,34.05c1.1-.3,2.2-.6,3.3-.8-.1-.2-.3-.4-.4-.6-2.5-3.9-3.9-7.5-8.1-9.9-2.7-1.5-5.8-2.4-8.2-4.3-1.5-1.2-2.7-2.9-4.3-4.1-3.2-2.6-7.5-1.6-11.2-1.3a12.4,12.4,0,0,1-8.2-1.7c-1-.6-1.9-1.2-2.9-1.7a52.63,52.63,0,0,1,5.7,7.3A72.38,72.38,0,0,1,150.6,34.05Z"/><path class="cls-3" d="M177.1,63.55a12.75,12.75,0,0,1-1.5,2.5,28.26,28.26,0,0,1-1.7,2.5,88.82,88.82,0,0,1,3.8,11v-.1c1.2-4.2,1.9-8.7.6-13A8.13,8.13,0,0,0,177.1,63.55Z"/><path class="cls-3" d="M5,94.15a15.23,15.23,0,0,0-.7,7.3c.5,2.4,2.1,3.8,4.2,4.8a28.5,28.5,0,0,1,3,1.6,72.19,72.19,0,0,1,0-10.4,22.84,22.84,0,0,1-5.8-5.8C5.5,92.45,5.3,93.25,5,94.15Z"/><path class="cls-3" d="M25.9,52a76.12,76.12,0,0,1,24.7-23.5A23.57,23.57,0,0,1,53,20a8.21,8.21,0,0,0-1.5,1.2c-1.2,1.5-2.6,3.6-4.5,4.5-4.5,2.2-9.4.8-13,5.1a21.06,21.06,0,0,0-3.1,5.7c-1.5,3.6-2.2,7.4-5.9,9.2-3,1.4-6.8,2.4-8.6,5.5a9.37,9.37,0,0,0-1.1,3.2A29.28,29.28,0,0,1,25.9,52Z"/></g></g></svg>