<svg xmlns="http://www.w3.org/2000/svg" viewBox="0 0 152.82 168.09"><defs><style>.cls-1{fill:#fff;}.cls-2{fill:#e02230;}.cls-3{fill:#e6e139;}.cls-4{fill:#e29b4d;}</style></defs><g id="Layer_2" data-name="Layer 2"><g id="Слой_1" data-name="Слой 1"><path d="M.2,27.33a13.29,13.29,0,0,0,10,10.6,19.78,19.78,0,0,0,5.4.5c-.1,10.3,5.9,19.4,11.1,28,7.8,12.9,7.4,27.5,12.9,41.1,4.7,11.6,11.9,22.1,17.1,33.6l5.4,12c1.6,3.5,2,7.4,4,10.7,1.8,3.1,4.3,5,7.9,4a17.77,17.77,0,0,0,7.2-4.3c4.2-4.1,6.7-9.5,9.4-14.5,6.6-12.3,10.6-25.8,14.1-39.2,3.7-14.2,12.3-26.7,18.4-39.9,4.7-10.2,10-22.4,10.2-34a22.43,22.43,0,0,0,6.1,1.4c5.3.3,11.1-2.6,12.8-7.9,1.8-5.5-.4-10.7-5.1-13.8-3.4-2.2-9.4-2.4-14.1,1.2-1.1-4.2-4.1-6.9-8.7-8.3-4.3-1.2-9.7-1.6-13.3,1.4-1.6-3.4-6.2-5.9-9.6-7-5.1-1.7-12.2,0-16.5,3.5A14.15,14.15,0,0,0,74.5.13c-6.8-.5-10.7.4-16,4.5C55.7,1.73,50.6.73,47.4.93c-5.4.5-9.9,4.7-13,8.9-7.5-2.8-16.5-3-23.5,1C5.1,14.13-1.2,20,.2,27.33Z"/><path class="cls-1" d="M61.2,98.73a8.32,8.32,0,0,0,2.6-1.9,7.1,7.1,0,0,0,1-1.4,1.23,1.23,0,0,0,.1-1.3,2.7,2.7,0,0,0-.8-.7c-1.6-1-3.3-1.9-5-2.9a3.51,3.51,0,0,1-.8-.5c-.7-.7-.2-1.4.4-1.9a22.58,22.58,0,0,0,3.4-3.5c.3-.4.7-.7,1-1.1.5-.7.3-.9-.3-1.4a22.54,22.54,0,0,0-3-2.4c-1-.6-1.5.3-2.1,1a17.55,17.55,0,0,0-2.9,4.7c-.5,1.4-1.9.7-2.7.1a19.12,19.12,0,0,0-3.4-2.4,3.2,3.2,0,0,0-2.7-.3c-1.2.5-1.5,2.1-1.8,3.2v.2c-.6,3.3,0,7,2.5,9.4C50.3,99.13,56.5,100.93,61.2,98.73Z"/><path class="cls-1" d="M110.3,42.73c-1.4.6-2.8,1.3-4.2,2a4.42,4.42,0,0,1-1.5.5,1.56,1.56,0,0,1-1.3-.8,11.07,11.07,0,0,1-.7-2.6c-.3-1.1-.6-2.3-.9-3.4a2.22,2.22,0,0,0-.5-1.1c-.7-.8-2.4.1-3.1.5a15.09,15.09,0,0,0-2.8,1.5c-1,.8-.5,1.7.1,2.7.6.8,1.1,1.6,1.7,2.4a4,4,0,0,1,.9,2c.1,1.5-1.2,1.9-2.3,2.3a21.55,21.55,0,0,0-4.8,2.4c-3.5,2.3.9,6.6,2.7,7.6a14.46,14.46,0,0,0,13.7,0c3.8-2.2,7.3-5.9,6.9-10.7C114,46.23,113.6,41.33,110.3,42.73Z"/><path class="cls-2" d="M72.8,114.53c-4.9,1.9-11,7.9-5.8,13.1a9.44,9.44,0,0,0,10.6,1.5c3-1.6,6.3-3.8,5.9-7.6C82.9,116,78.3,112.33,72.8,114.53Z"/><path class="cls-2" d="M79,75.53c-6.2,3.9-8.7,16.8.6,19,5.1,1.2,11,1,15.1-2.6a10.83,10.83,0,0,0,3.1-12.1C94.9,72.73,84.9,71.83,79,75.53Z"/><path class="cls-2" d="M48.7,65.53c5.2,2.2,13.1,3.6,17.4-1.1s6.7-11.6,2.9-17.3c-4.3-6.4-18.2-10.7-24.2-3.9C38.1,50.63,38.6,61.23,48.7,65.53Z"/><path class="cls-3" d="M127,30.13c-5.9,2.9-15.4.9-19.1-5.2-7.4,5.9-18.7,3.9-24.3-3.3-5.7,6.9-17.1,6-23.6,1-1.9,4.7-8,8-12.2,8.7-5.9,1-10.5-1.8-15.2-4.8a20.89,20.89,0,0,1-4.2,6.4,21.46,21.46,0,0,1-10.6,5.2c1.3,11.5,8.6,20,13.3,30.4,4.7,10.6,5.3,22.5,10.4,33.1,4.9,10.3,10.7,20.2,15.4,30.5,2.5,5.4,4.7,10.9,6.7,16.4,1.4,3.8,2.9,15.9,8.5,14.9s8.6-8.5,11-12.8a180,180,0,0,0,8.9-18.2c4.2-10.5,6-22,10.5-32.3,4.8-11,11.6-21.1,16.6-32.1,5-11.2,7.4-22.3,10.6-33.9A9.76,9.76,0,0,1,127,30.13Zm-44.7,4.2a4.84,4.84,0,0,1,2.5,4.3,4.66,4.66,0,0,1-3.6,5.2,4.1,4.1,0,0,1-3.7-.8h0a1.76,1.76,0,0,1-.5-.4c-.1-.1-.3-.2-.4-.4a8.64,8.64,0,0,1-1-1.6C74.2,36.93,78.5,32.23,82.3,34.33ZM32.9,49.93a4.62,4.62,0,0,1-.7.7c-2.6,1.7-5.7-.2-6.8-2.7a4.79,4.79,0,0,1,3-6.2,4.93,4.93,0,0,1,6,3.2C34.8,46.53,34.3,48.93,32.9,49.93Zm10.7-10c3.7-3.4,11.4-4.1,16.1-2.9,5.9,1.4,10.7,4.3,13.3,10,4.8,10.4-3.6,24-14.9,24.2a24.51,24.51,0,0,1-14.5-4.6C34.7,59.93,36.2,46.83,43.6,39.93Zm-.7,53.9a12.41,12.41,0,0,1,.2-8.9,10.38,10.38,0,0,1,2.5-4.3c1.2-1,3.1,0,4.2.7a37.82,37.82,0,0,1,3.4,2.5c1.2-2.3,2.6-5.5,4.7-6.7s4.3.9,5.8,2.2,3.3,2.6,2.2,4.8a14.38,14.38,0,0,1-2.7,2.8c-.7.6-1.5,1.2-2.3,1.9a9.73,9.73,0,0,1,1.9.8c.7.3,1.4.7,2.1,1a5.36,5.36,0,0,1,2.8,3.1c.6,2.4-1.1,4.7-2.8,6.1a13.29,13.29,0,0,1-7.1,3,13.66,13.66,0,0,1-9.6-2.6A13.73,13.73,0,0,1,42.9,93.83Zm18.5,18.3a.37.37,0,0,1-.1.3,3.51,3.51,0,0,1-1.3,3,3.78,3.78,0,0,1-4.4.6c-1.9-1.2-3-4.2-1.6-6.1a4.36,4.36,0,0,1,3.3-1.9,3.62,3.62,0,0,1,3.1,1.2A3.83,3.83,0,0,1,61.4,112.13Zm15.7,21.6c-5.1,2.2-12-1.1-13.8-6.2-2.6-7.4,1.4-13.1,8.2-16.1,7-3.2,13.8,1.3,15.5,8.4C88.5,126.43,82.5,131.33,77.1,133.73Zm23.7-45.1c-3.7,10.8-18,14-26.8,7.4-6.7-5-5-18.5,1.5-22.9,7.7-5.3,20.4-5.7,24.9,3.9A16,16,0,0,1,100.8,88.63Zm11.1-14.9a3.78,3.78,0,0,1-6.8-.5,4.45,4.45,0,0,1,0-3.9,4.24,4.24,0,0,1,6.6-1,4,4,0,0,1,1.2,3.3A3,3,0,0,1,111.9,73.73Zm-4.7-11.4c-7.3,2.6-15.4,1.1-19.5-6-1.3-2.3-1.2-5.9,1.1-7.5a10.76,10.76,0,0,1,2.9-1.3c.9-.3,2.7-.3,3.1-1.4s-1.7-3.8-2.2-4.8a2.74,2.74,0,0,1,.2-3A6.11,6.11,0,0,1,95,37c.9-.5,1.9-.9,2.8-1.3,1.4-.7,3.5-1.6,4.9-.3s1.6,4.1,2,5.8c.6,2.2,3.5-.3,4.7-1a8.49,8.49,0,0,1,2.2-.9c3.5-.7,5.4,4.5,5.6,7.1A15,15,0,0,1,107.2,62.33Z"/><path class="cls-4" d="M90.1,7.23a25,25,0,0,0-3.8,1.5c-.8.4-1.7,1.6-2.7,1.3-.8-.3-1.4-1.6-2.1-2.2a15.65,15.65,0,0,0-7-3.6,18.12,18.12,0,0,0-9.8.7A25.31,25.31,0,0,0,60.3,7c-1.9,1.2-2.2,1.5-4.1,0-5.2-4.1-12.1-2.2-16.9,1.5-1.4,1.1-2.7,4-4.6,4.5a2.23,2.23,0,0,1-1.4,0,27.63,27.63,0,0,0-8.8-1.8c-6.4,0-13.3,2.3-17.9,7.2a11,11,0,0,1-1,1.1c-2.8,3.5-3.1,9.3.7,12.3,2.7,2.2,6.4,2.8,10,2.5.2,0,.3-.1.5-.1a21.17,21.17,0,0,0,6.2-1.8,18.16,18.16,0,0,0,5.1-3.6c1.5-1.5,2.2-3.4,3.2-5.2.7-1.4,1.4-1,2.9-.6,2.4.8,4.6,2.3,7,3.2,3.2,1.2,6.7,1.7,10,.4a13.74,13.74,0,0,0,7-5.3c.4-.6.7-1.6,1.4-1.9,1-.5,2.4.7,3.2,1.2a13.86,13.86,0,0,0,11.8,2.1,21.76,21.76,0,0,0,7.9-4.3c1.5-1.1,2.2-.9,3.6.2,1.1.9,2.2,1.9,3.4,2.8,2.3,1.8,4.9,3.2,7.8,3.2a27.34,27.34,0,0,0,4.9-.6,18.47,18.47,0,0,0,4.5-2.1c1.5-.8,2.4-1.6,3.8-.3.9.9,1.6,2,2.4,2.8a11,11,0,0,0,5.1,3c3,.7,5.9-.1,8.9-.5.5-.1,1.7-.5,2.1-.2s.6,1.4.8,1.8c1.9,3.4,5.4,4.7,9.2,4.6s8.4-1.7,9.1-6.1a7.46,7.46,0,0,0-7.8-8.8,34.49,34.49,0,0,0-5.4,1.1c-1,.2-2.7,1.4-3.7,1s-1.3-2.4-1.7-3.3c-2.7-5.8-10.7-6.8-16-4.3-.8.4-2.5,1.1-3.4.8-1.9-.7-3.1-3.5-4.8-4.7a11.37,11.37,0,0,0-6.8-2.5A32.32,32.32,0,0,0,90.1,7.23Zm-72,10.2A19,19,0,0,0,12.4,21a10.18,10.18,0,0,0-1.8,2.3c-.5.9-.6,1.9-1.1,2.8a1.78,1.78,0,0,1-.4,1,.52.52,0,0,1-.9,0c-1-1-1.1-3-.9-4.3a7.09,7.09,0,0,1,2.3-4,14.19,14.19,0,0,1,4.8-2.7c.9-.3,4.7-1.7,5.2-.2C20,16.73,18.6,17.23,18.1,17.43Zm31.4-6.8a8.89,8.89,0,0,0-6.5,1.8c-.3.2-.5.4-.8.6-.1.1-.3.1-.4.2-1.4.3-1.1-1.2-.7-1.9a4.59,4.59,0,0,1,2-1.9,10.64,10.64,0,0,1,5.5-1.3c1.1.1,2.7.4,3.3,1.4C52.9,10.93,50.4,10.73,49.5,10.63Zm25.8.2c-2.8-.9-5.2-1.5-8.1-.2-.2.1-.3.2-.5.2a1.42,1.42,0,0,1-.6.2c-1,.1-1.5-.7-.9-1.5A8.42,8.42,0,0,1,76,8.13a5.71,5.71,0,0,1,1.3,2.1C77.8,11.83,76.3,11.13,75.3,10.83Zm29.7,2.5c.7,1.4,0,2.3-1.6,1.6a8.27,8.27,0,0,1-1.6-.9,10.8,10.8,0,0,0-5.8-1.6h-.7a3.75,3.75,0,0,1-1.1-.1c-1-.3-1.7-1.4-.7-2.2a2.2,2.2,0,0,1,1.2-.5,9.8,9.8,0,0,1,6.1.4C102.2,10.63,104.3,11.83,105,13.33Z"/></g></g></svg>