<svg xmlns="http://www.w3.org/2000/svg" viewBox="0 0 168.24 143.28"><defs><style>.cls-1{fill:#e6e139;}.cls-2{fill:#e29b4d;}.cls-3{fill:#e02230;}.cls-4{fill:#22e050;}</style></defs><g id="Layer_2" data-name="Layer 2"><g id="Слой_1" data-name="Слой 1"><path d="M167.89,73.67c-.9-2.3-3.5-4-3.2-6.7.2-1.7,2-2.6,2-4.3,0-1.9-4.6-6-7-5.6,1.8-5.2,1.8-11.2-.7-17.9-3.2-9-8.7-16.2-15.8-22.4-7.7-6.7-17.8-10.2-27.5-12.7A125.54,125.54,0,0,0,68.39,1C57,2.37,46,6.77,36.09,12.77c-11.8,7.2-27.9,23.5-23.7,38.9-1.6-.4-3.4-.6-4.6.5-1,.9-1.1,2.3-1.2,3.6-.3,3.9-2.1,3.9-5.6,5.1a1.71,1.71,0,0,0-.8,2.4c1,2.2,1.2,2.4,3.6,3.7a11.74,11.74,0,0,1,5.9,12.8,1.43,1.43,0,0,0,1.3,1.5,12.71,12.71,0,0,0,4.3-.9,9.86,9.86,0,0,0-.3,2.4,7.54,7.54,0,0,0,2.6,6.1c-.3.4-.6.9-.9,1.3a9,9,0,0,0-.2,7.2,6.48,6.48,0,0,0,1.9,3c-9.1,7.7-9.6,22.5.3,30.2,6.7,5.3,14.2,7.2,22.5,8.1,11.3,1.2,22.5,3,33.9,3.5,21.8,1,43.2,1.7,58.4.4,12.3-1.1,19.8-7.4,23.3-14.6,2.8-5.8.4-13.6-4.6-17.4a8.28,8.28,0,0,0,1.4-6.3,7.12,7.12,0,0,0,2.1-.4,6.5,6.5,0,0,0,3.9-5,8.22,8.22,0,0,0-1.6-6.4,5.28,5.28,0,0,0-3.3-1.7,4.45,4.45,0,0,0-.3-2.3h0c2.2-3.6.6-8.3,6.7-8.7C164.69,79.37,169.59,78.27,167.89,73.67Z"/><path class="cls-1" d="M105.89,112.07c1.6,2.1,3.9,6,6.9,6.2s6.2-4.3,8.2-6a65.9,65.9,0,0,0,7.2-6.8c5.7-6.3,11.3-12.6,14.6-20.5-.1,0-.1,0-.2-.1-1.6-.4-1.3,0-2.5,1.1-.4.4-2.3,1.7-2.4,2.1a2,2,0,0,1-1.6,1.2c-3.5.3-5.5-1.2-8.7-2-2.6-.7-3.6.4-5.5,1.9a10,10,0,0,1-4.1,1.4c-3.1.6-6.9-1.1-9.2-3-2.6-2.1-6.9-7.3-10.9-1.5-3.3,4.8-4.6,5.3-9.2,2.2-2.9-2-6.2-3.6-8.5.2a3,3,0,0,1-.5.7C89.09,95.87,99,102.87,105.89,112.07Z"/><path class="cls-2" d="M31.59,61c6,1.2,11.9,2.4,17.9,3.7,12.6,2.6,25.2,5.2,38,6.4a304.91,304.91,0,0,0,37,1.1c7.1-.2,14.7-1.6,21-5.4,7.1-4.3,11.8-8.4,10.2-17a47.72,47.72,0,0,0-3.2-11c-3.3-7.5-7.9-14.8-14.7-19.6-7.6-5.4-16.5-8.6-25.5-10.8-22.1-5.6-48.4-4.7-68.7,6.6-6.6,3.7-13,8.2-17.7,14.2-3.7,4.7-7.7,10.6-9,16.7C15.19,55.17,23.79,59.37,31.59,61ZM121,53a3.59,3.59,0,0,1,5.3,4.1,3.76,3.76,0,0,1-3.9,2.7C118.49,59.47,118.09,54.87,121,53Zm-21.3-34.5c1.8-1.8,4.9-2.2,6.2,1.5a3.75,3.75,0,0,1-5.7,4.3A3.58,3.58,0,0,1,99.69,18.47Zm-7.1,24.6c2.6-1.5,7.7.9,5.1,4.4a3.6,3.6,0,0,1-5.1.9,3.42,3.42,0,0,1-1.4-3.1A2.72,2.72,0,0,1,92.59,43.07Zm-13.3-19.4c0-.1.1-.2.1-.3a4.44,4.44,0,0,1,1.7-1.9c1.3-.9,3-1.6,4.5-.9a3.88,3.88,0,0,1,1.9,3.7c-.2,2.4-1.7,5.1-4.5,4.7C81,28.77,78.79,25.67,79.29,23.67Zm-15,17.9c.2-1.8,1.7-3.9,3.3-4.1a3.47,3.47,0,0,1,3.3,1.3,4.89,4.89,0,0,1,.9,3.3,3.54,3.54,0,0,1-2.1,3c-1.8.7-4.6-.1-5.3-2A7.57,7.57,0,0,1,64.29,41.57Zm-14.6-21.2a3.44,3.44,0,0,1,3.9-.8,4.19,4.19,0,0,1,2,6.1c-2.1,2.8-5.6,1.5-6.7-1.3A3.6,3.6,0,0,1,49.69,20.37Zm-7.1,23.9c.2-.1.5-.3.7-.4,3-1.4,6.7,2.2,4.6,5.1C44.49,53.67,38.49,47.07,42.59,44.27Z"/><path class="cls-3" d="M21.29,90.87a4.47,4.47,0,0,0-1.1,4.1c.4,1.6,1,3,3,2.9a11.45,11.45,0,0,0,4.1-1.2c2.2-.9,2.6,1,2.6,2.7a4.33,4.33,0,0,0,4.2,4.4,7.83,7.83,0,0,0,4.3-1.8,16.44,16.44,0,0,1,2.2-1.4c1.1-.7,1.3-.5,2.3.4,1.5,1.4,2,3.3,3.9,4.2,2.7,1.3,5.4-.1,7.4-1.9.8-.7,2.1-2.3,3.3-2.2.9.1,1,1,1.4,1.6a9.35,9.35,0,0,0,2.8,2.8,6.31,6.31,0,0,0,4.6,1,11.23,11.23,0,0,0,3.7-1.7,6.9,6.9,0,0,1,2-1.3c1-.3,1.2.3,2,1a12.76,12.76,0,0,0,5.1,3.1,7.3,7.3,0,0,0,6.2-1.4,13.44,13.44,0,0,1,1.4-1.1c1.2-.7,3.9,2.2,5.3,2.7a5.09,5.09,0,0,0,4.8-.5c-2.9-2.6-6-5-9.1-7.4s-6.2-4.8-9.3-7.1a5.35,5.35,0,0,1-1.3-1.3v-.1a2.77,2.77,0,0,1-1.3.1,10.08,10.08,0,0,1-7-3.8c-4.6-5.2-6,1.3-10.1,2.1-3.3.7-6.5-4.6-8.7-6.3-3.4-2.8-7.3-4.4-11.5-2.4-3,1.4-4.9,2.3-7.6-.1-1.8-1.6-3.2-4.1-5.6-4.6a6,6,0,0,0-4.7,1.2,8.58,8.58,0,0,0-1.8,4.7c-.1,3.1,1.4,4,3.9,5.3C24.69,88.57,22.09,90,21.29,90.87Z"/><path class="cls-2" d="M149,113.37c-.1,0-.1.1-.2.1-2.5.9-7.3.1-9.6-2.1-2.6,3.7-10.1,3.2-12,0a61.36,61.36,0,0,1-7.5,6.9,30.21,30.21,0,0,1-6.3,3.6c-2.5.9-4.2-1.1-5.8-3-.9-1-1.8-2.1-2.8-3.1a80.8,80.8,0,0,0-5.7-6l-.4-.4a4.43,4.43,0,0,1-1.2,1.5,7.45,7.45,0,0,1-10.1-1.3c-3.3,3.1-11,1.6-14.3-1.9.4.4-2.1,2.1-2.4,2.3a8.42,8.42,0,0,1-3.5.7,16.54,16.54,0,0,1-7.2-2,22.74,22.74,0,0,1-3.2-3c-2.6,2-5.2,3.6-8.7,3.1a8.45,8.45,0,0,1-6.6-4.8,10.41,10.41,0,0,1-11,3,5.47,5.47,0,0,1-3.9-5v-.4a9.22,9.22,0,0,1-5.2.1c-13.2,10.9-3.5,27.5,11.1,31.2,14.1,3.5,29,4.2,43.5,5.1,15.1.9,28.3,1,43.5.9,4.2,0,8.4-.1,12.6-.4,7.6-.7,14.4-2.9,18.9-9.3,3.3-4.6,5.3-11.8-1.1-14.8A9,9,0,0,0,149,113.37Z"/><path class="cls-3" d="M150.89,92.17c0-.4.7-1.1.8-1.5a6.47,6.47,0,0,0,.4-1.3,14.76,14.76,0,0,1-4.9-1.8c-.4-.2-.8-.5-1.3-.8-3.9,8-9.5,14.7-15.5,21.2l-.6.6a3.85,3.85,0,0,0,2.4,1.7,4.94,4.94,0,0,0,3.9-.8c.6-.4,1.1-1,1.7-1.4,1.4-.8,2.3,0,3.5.7,1.6,1,3.7,1.9,5.6,1.4a4.92,4.92,0,0,0,3-2.1c.9-1.4.6-3,.6-4.6,0-1.9,1-1.7,2.6-2.2a6.53,6.53,0,0,0,2.9-1.4,3.39,3.39,0,0,0,1-2.7,3.55,3.55,0,0,0-1.4-2.5,8.8,8.8,0,0,0-2.7-1C152.19,93.47,150.89,93.07,150.89,92.17Z"/><path class="cls-4" d="M161.39,66c.5-1.4,1.5-2,.8-3.5-.5-1.1-2.3-1.7-3.1-2.8-4.6,9.4-15.4,15.3-27.9,16.4A231.1,231.1,0,0,1,84.89,75a374.21,374.21,0,0,1-48.2-8.6c-5.6-1.4-18.3-4.1-22.1-10.6A2.26,2.26,0,0,0,13,56c-.9.5-.9,1.8-1,2.8-.3,3.3-6.4,2.8-5.8,5.3a4.81,4.81,0,0,0,1.5,2,20.69,20.69,0,0,1,3.8,4.6c.7,1.1,1.7,5.1,2.6,5.6,1.8,1,6.8-4.5,9.5-4.6,3.5-.2,5.1,3.4,7.8,5.1,4,2.6,7.6.1,11.9-.2a9.47,9.47,0,0,1,4.4,1c3.1,1.2,5.3,4.3,8.3,5.9,4.1,2.2,4.9-2.2,8.9-2.5,2.9-.2,4.7,2.6,6.3,4.5,7.1,7.7,6.7-1.9,11.3-2.9,3.4-.7,6.3,4.4,10,3.5,1.7-.4,2.5-2.2,3.6-3.3a12.87,12.87,0,0,1,5.2-3.3c3.3-1,5.9,2.4,8,4,3.7,2.9,8,5.2,12.1.7a6.72,6.72,0,0,1,2.8-2.2c2.9-.6,5,1.7,7.6,2.5,1.2.4,3.2.8,4.3.2,1.3-.7,1.8-2.6,3.3-3.4,3.6-1.7,11.9,8.2,13.5,1.4a9.07,9.07,0,0,1,2.3-4.7,7,7,0,0,1,3.9-1.8c3.2-.4,5.1-1.5,3-4.6A6.08,6.08,0,0,1,161.39,66Z"/></g></g></svg>