<?xml version="1.0" encoding="utf-8"?>
<!-- Generator: Adobe Illustrator 26.3.1, SVG Export Plug-In . SVG Version: 6.00 Build 0)  -->
<svg version="1.1" id="Layer_1" xmlns="http://www.w3.org/2000/svg" xmlns:xlink="http://www.w3.org/1999/xlink" x="0px" y="0px"
	 viewBox="0 0 105.2 208.8" style="enable-background:new 0 0 105.2 208.8;" xml:space="preserve">
<style type="text/css">
	.st0{fill:#FFFFFF;}
	.st1{fill:#EDFF00;}
</style>
<g id="Layer_2_00000067209235069907422680000014215692648825350069_">
	<g id="Слой_1">
		<path d="M104.7,69.7c-1.9-3.3-3.5-7.2-6.5-9.8c-1.7-1.3-3.8-2.1-5.9-2c-0.7,0-5.6,0.8-5.9,0.4L83.5,54c-1.2-1.7-3.2-2.6-5.2-2.5
			l-20.5,1.1L33.4,4.3C32,1.6,29.5-0.1,27,0c-0.7,0-1.4,0.2-2,0.5c-2.9,1.5-3.8,5.4-2,9l20.8,44l-19.4,1.1c-2.1,0.1-4.1,1.4-5,3.3
			l-2,4.3c-2.7,0.1-5.4,0.1-8.1,0.4c-3.8,0.5-5.5,3.7-6.8,7.1c-0.7,1.9-1.5,3.9-2.2,5.8c-0.5,1.2-0.3,2.6,0.5,3.6
			C1.6,80.3,3,81,4.5,80.8l3.2-0.2l23.1,120.6c0.9,4.6,5.1,7.9,9.8,7.6l36.8-2c4.7-0.3,8.5-3.9,8.9-8.6L97.7,75.6l3.4-0.2
			c1.5-0.1,2.9-0.9,3.6-2.2C105.4,72.1,105.4,70.8,104.7,69.7z"/>
		<path class="st0" d="M93.6,61.6c-4.2-0.1-8.6,0.6-12.8,0.6c-3.9,0-7.9,0.3-11.7-0.2c-0.3,0-0.4-0.4-0.1-0.6c2.3-1,4.7-1.6,7.2-1.9
			c1.1-0.1,8.1-0.2,5.4-2.9c-1.4-1.4-2.7-1.5-4.6-1.4c-2.9,0.1-5.9,0.3-8.8,0.5c-8.8,0.5-17.5,1-26.3,1.4c-4.9,0.3-9.8,0.5-14.7,0.8
			c-1.4,0.1-3.4,0.3-3.6,1.8c-0.1,1.2,0.8,2.4,2,2.5c0,0,0.1,0,0.1,0c1.9,0.1,3.9,0,5.8-0.1c3.9,0,7.9-0.3,11.7,0.2
			c0.3,0,0.4,0.4,0.1,0.6c-4.8,2.2-10.4,2.3-15.6,2.5c-5.4,0.1-10.8,0.2-16.2,0.5c-2.2,0.1-3,0.3-4.2,2.2c-1.4,1.9-2.1,4.2-2.2,6.5
			c0.2,3.2,4.2,2.2,6.3,2.1c4.2-0.2,8.3-0.5,12.5-0.7c15.8-0.9,31.5-1.7,47.3-2.6l16.9-0.9c2.8-0.2,5.6-0.3,8.5-0.5
			c1.7-0.1,3.2-0.3,3.8-1.4c0.3-0.7,0.3-1.5,0.1-2.3C99.7,64.9,97.5,61.7,93.6,61.6z"/>
		<path class="st1" d="M23.3,136.9c2-0.1,4.5,0.2,5.3,0.2c3.9,0.1,7.7-0.1,11.5-0.8C47,135.1,53.7,133,60,130
			c12.9-6.3,23-15.6,31.2-27.3l0.3-0.3l2.4-26.6l-82.1,4.5L23.3,136.9z M20.1,86.6c2.4,6.3,3.1,13.5,4.4,20.1
			c1,5.3,2.9,10.7,2.8,16.1c0,0.6-0.5,1.1-1.1,1.2c-0.5,0-0.9-0.3-1.1-0.8c-2.3-5.6-2.5-12.3-3.6-18.3s-2.8-12-2.8-18
			c0-0.4,0.3-0.7,0.7-0.7C19.7,86.2,20,86.3,20.1,86.6z"/>
		<path class="st1" d="M54.5,52.8l-23.7-47c-1.9-3.7-5.5-1.4-3.9,2c0.2,0.3,21.5,45.4,21.5,45.4L54.5,52.8z"/>
		<path class="st1" d="M43.5,177.5c-4.5-0.6-8.4-2.2-12.8-3.3l0,0l5.2,26.1c0.5,2.9,2,5.1,4.9,4.9l36.5-2c2.9-0.2,5.2-2.4,5.4-5.3
			l2.7-29c-8.6,5.3-18.4,8.4-28.5,8.9C52.4,178.1,47.9,178,43.5,177.5z M39,190.3c-0.2-1.2-1.8-8.9,0.7-7.5c0.8,0.4,1.7,4.2,2,5.2
			c1.5,3.8,2.7,7.6,3.6,11.6C40.8,202.7,39.6,193.8,39,190.3z"/>
		<path d="M61.1,133c-6.6,3-13.6,5.5-20.7,6.4c-3.3,0.4-6.7,1-10.1,1.1c-2.1,0.1-4.2,0.1-6.3-0.2l6.1,30.5c4.1,0.8,7.9,2.4,12.1,3
			c4.9,0.8,9.8,0.9,14.7,0.5c10.7-1.1,20.1-4.8,29.1-10.5l0,0l5.1-55.4C83.4,119.1,73.1,127.6,61.1,133z M70,157.8
			c-2.9,4.1-7,7.1-11.1,9.9c-0.4,0.3-5.8-2.9-6.4-3.3c-1.8-1.2-3.7-2.5-5.4-3.8c-3.9-3.2-6.9-8.8-3.5-13.6c1.5-1.8,3.8-2.7,6.1-2.3
			c3,0.4,5.7,2,7.4,4.5c1.2-2.1,3.1-3.8,5.4-4.8c2.3-1,4.9-0.8,7.1,0.3c0.9,0.5,1.6,1.2,2.2,2.1C73.7,150,72.1,154.7,70,157.8z"/>
	</g>
</g>
</svg>
