<?xml version="1.0" encoding="utf-8"?>
<!-- Generator: Adobe Illustrator 26.3.1, SVG Export Plug-In . SVG Version: 6.00 Build 0)  -->
<svg version="1.1" id="Layer_1" xmlns="http://www.w3.org/2000/svg" xmlns:xlink="http://www.w3.org/1999/xlink" x="0px" y="0px"
	 viewBox="0 0 125.5 171.6" style="enable-background:new 0 0 125.5 171.6;" xml:space="preserve">
<style type="text/css">
	.st0{fill:#E6E139;}
	.st1{fill:#FFFFFF;}
</style>
<g id="Layer_2_00000093162122122299884420000002424065927075842698_">
	<g id="Слой_1">
		<path d="M123.1,76.7c-0.2-0.4-0.4-0.8-0.7-1.2c-2.1-2.3-4.6-4.1-7.5-5.2c0.4-0.8,0.7-1.6,0.9-2.5c1-2.5,2-5,3-7.4
			c2-5,4.1-9.9,6.1-14.9c0.3-0.8,0.5-1.6,0.6-2.4c0-0.3-0.1-0.7-0.2-1c-0.6-1.2-2.4-1.6-3.5-2.1c-1.6-0.7-3.2-1.4-4.8-2
			c-2.4-0.9-4.9-1.7-7.4-2.5c-0.4-0.1-0.9-0.4-1.4-0.5c0.6-2.3,1.2-4.6,1.7-6.9c0.2-0.6,0.2-1.1,0.2-1.7c-0.1-0.5-0.3-0.9-0.7-1.2
			c-1.1-0.8-2.2-1.5-3.5-1.9c-1.5-0.7-3-1.3-4.6-2c-3-1.2-6.1-2.4-9.2-3.4c-1.2-0.4-2.5-0.7-3.8-0.9c-0.9-0.3-1.8,0-2.5,0.6
			c-0.4,0.6-0.7,1.2-0.8,1.9c-0.4,2.3-0.6,4.5-0.9,6.7v0.3c-0.5-0.1-1-0.2-1.4-0.3c-1.7-0.4-3.5-0.9-5.2-1.3
			c-3.5-0.9-7-1.7-10.5-2.6c-0.5-0.1-1.1-0.2-1.6-0.2c-0.2-7.3-0.4-14.6-0.6-22C62.3,0,59.8,0,57.3,0c-3.6-0.1-7.2,0.1-10.8,0.3
			c-1.3,0.1-3.5-0.4-4,1.2c-0.2,0.5-0.2,1.1-0.1,1.6c0.2,4.8,0.3,9.5,0.5,14.3c-1.9-0.1-3.8,0.1-5.6,0.4c-4,0.3-7.9,0.8-11.8,1.5
			c-1.4,0.2-2.1,0.4-2.1,1.9s0.3,3.3,0.4,4.9c0.1,0.7,0.1,1.5,0.2,2.2c-0.5-0.1-1.1,0-1.6,0.1c-2.2,0.4-4.3,0.8-6.5,1.1
			c-2.4,0.4-6.5,0.2-7.2,3.3c-0.1,0.8-0.1,1.6,0,2.4c1,7.8,2.2,15.5,3.3,23.3c-2.4,0.3-4.7,0.8-7,1.4c-3.4,1-5.1,1.8-5,5.9
			c0.1,1.7,0.4,3.5,0.4,5.2c0.1,2.7,0.2,5.3,0.4,8c0.6,10.9,1.6,21.8,2.6,32.7c0.7,8.2,1.5,16.3,2.6,24.4c0.6,4.9,1.1,9.9,1.9,14.8
			c0.5,3,0.6,6.4,2.4,9c2.3,3.2,6.1,2.7,9.6,2.7c4.8,0,9.6-1,14.5-1.1c5.1-0.1,10.2,0.3,15.2,1.1c7.5,1.4,14.8,3.1,22.1,5.3
			c3.3,0.9,6.6,2,10,3c2,0.6,5.3,1.4,6.9-0.6c2.1-2.6,2.8-7.4,3.9-10.5c1.4-4.1,2.6-8.3,4-12.5c2.5-7.6,5.3-15.1,8-22.5
			c3.4-9.3,7.1-18.5,11-27.6c1.9-4.6,3.9-9.1,5.8-13.7C122.1,81.2,123.7,78.7,123.1,76.7z"/>
		<path class="st0" d="M17.2,58.5c1.7,1,2,3.3,2.8,5c1.2,2.4,2.2,5,3.5,7.4c1.8,3,3.7,5.9,5.9,8.7c-1.2-9.2-2-18.6-2.8-27.9
			c-0.6-7.1-1.2-14.1-1.9-21.1c-0.3,0.1-0.7,0.2-1,0.3c-1.9,0.3-3.9,0.6-5.8,1c-1.3,0.2-3.6,0-4.6,1.1c-1.2,1.4-0.4,4.2-0.2,5.8
			c0.3,2.4,0.6,4.8,0.8,7.2c0.5,4,0.9,8.1,1.4,12.1C16,58.1,16.6,58.2,17.2,58.5z"/>
		<path class="st0" d="M29,36.5c0.4,4.8,0.8,9.8,1.3,14.6c0.7,6.2,1.5,12.4,2.3,18.7c0.4,3.1,0.8,6.1,1.1,9.2c0.3,2.8,0,5.1,2.3,7
			c3.1,2.6,6.6,4.7,10.4,6.3c-1.1-15.3-1.5-30.7-2.1-46.1c-0.3-8.4-0.6-16.7-0.9-25.1c-0.6,0-1.1,0-1.7,0.1
			c-2.2,0.2-4.5,0.3-6.7,0.5c-1.8,0.1-3.7,0.1-5.5,0.3c-0.6,0.1-1.2,0.4-1.5,0.9c-0.2,0.6-0.3,1.2-0.1,1.8
			C28.4,28.6,28.7,32.5,29,36.5z"/>
		<path class="st0" d="M51.1,93.9c2.4,0.7,4.8,1.2,7.2,1.5c1.5,0.2,2.6,0.3,4,0.4c-0.3-15.5-0.4-31-0.4-46.5
			c0-14.9-1.4-30.3-0.6-45.2c-1,0-14.6-0.4-14.6,0c0.3,14.5,1,29.1,1.7,43.6C49.1,63.1,50.4,78.5,51.1,93.9z"/>
		<path class="st1" d="M5.7,75.3c0.2,4.2,0.5,8.5,0.7,12.7c0.5,8.3,1,16.6,1.7,24.9c0.6,7.4,1.2,14.7,2.1,22.1
			c0.7,6,0.6,12.4,3,18.2c2,4.9,4.6,5.5,9.7,5c3.5-0.3,7-0.8,10.6-1c6.4-0.3,12.9,0.1,19.2,1.2c6.7,1.2,13.3,2.8,19.9,4.4
			c3.3,0.8,6.5,2.4,9.9,2.3c4.4-0.1,6.3-5.2,7.3-8.7c1.1-3.7,2.4-7.3,3.6-11c2.5-7.6,5-15.2,7.8-22.6c3.3-8.9,6.5-17.9,10-26.8
			c1.8-4.5,3.7-8.9,5.7-13.3c0.7-1.6,2.2-3.3,1.1-4.9c-0.9-1.3-4.6-3.8-6.3-3.3c-1.1,0.4-2,1-2.7,1.9c-5.7,5.5-11.2,10.8-17.7,15.1
			c-0.2,0.2-0.4,0.3-0.6,0.4c-1.4,0.9-2.8,1.7-4.2,2.5c-3.5,1.9-7.1,3.3-10.9,4.3l0,0c-7.1,1.9-14.5,2.1-21.7,0.4
			C44,96.7,34.8,91.8,28,84c-1.8-2.1-4-4-5.4-6.4c-1.8-3.4-3.5-6.8-5.3-10.2c-0.8-1.6-1.5-4.1-3.1-4.7c-1.3-0.5-3.7,0.2-5.1,0.5
			c-2.9,0.6-4.3,2.7-4.1,5.6C5.4,70.9,5.7,73.1,5.7,75.3z M16.9,132c0.1-0.5,0.5-0.8,1-0.8c0.3,0,0.6,0.2,0.7,0.5
			c1.5,3.5,1.5,7.4,2.3,11.1c0.5,2.3,1.1,4.6,3.7,5.1c1.7,0.2,3.4,0.7,4.9,1.4c0.6,0.2,0.8,0.9,0.6,1.4c-0.1,0.3-0.4,0.6-0.8,0.7
			c-3.6,0.5-8.9,0.2-10.6-3.8c-0.9-2.4-1.4-4.9-1.6-7.5C17,137.4,16.5,134.6,16.9,132z"/>
		<path class="st0" d="M66.4,49.8c0.2,15.3,0,30.6-0.3,45.9c2.5-0.2,5-0.5,7.4-1.1c0.7-5.7,1.2-10.4,1.9-15.3
			c0.8-5.8,1.7-11.7,2.7-17.5c1.6-9.5,3.1-18.9,4.2-28.5c0.2-0.9,0.1-1.8-0.1-2.6c-0.4-1.3-1.5-1.4-2.7-1.6L75,27.9
			c-2-0.5-4-1-6-1.6c-1-0.2-2-0.5-3-1c0.1,7.2,0.3,14.4,0.3,21.6C66.4,47.9,66.4,48.9,66.4,49.8z"/>
		<path class="st0" d="M93.9,84.6c5.8-4.4,11.3-9.2,16.3-14.5c0.5-0.5,1.2-0.7,1.9-0.7c0.4-1.2,1-2.4,1.1-2.8
			c1.1-2.8,2.2-5.7,3.3-8.5c1.4-3.6,2.6-7.3,3.8-10.9c0.3-0.9,1.1-2.3,1-3.2c-0.1-1.6-2.4-2.4-3.7-2.8c-1.9-0.6-3.7-1.2-5.6-1.8
			c-1.4-0.5-2.7-1.1-4.1-1.6c-0.3,1.1-0.6,2.3-0.9,3.4c-1.7,6.1-3.8,12.1-5.5,18.1C98.9,67.7,96.5,76.2,93.9,84.6z"/>
		<path class="st0" d="M89.5,87.6c2.7-9.9,5.9-19.7,8.8-29.6c2.8-9.3,5.3-18.7,8-28c0.3-0.7,0.3-1.4,0-2.1c-0.4-0.7-1.5-0.9-2.2-1.3
			c-0.9-0.4-1.7-0.8-2.6-1.3c-3.6-1.7-7.4-3.9-11.3-4.9c-0.6-0.3-1.3-0.2-1.9,0.1c-0.4,0.4-0.7,1-0.6,1.6c-0.2,1.9-0.3,3.8-0.6,5.6
			c-0.2,0.9-0.9,7.2-1.5,9.3c-1,9.1-2.6,18.1-3.7,27.1c-0.7,5.9-1.4,11.7-2.2,17.6c-0.4,3.6-0.6,7.5-1.3,11.2
			C82.3,91.6,86,89.8,89.5,87.6z"/>
	</g>
</g>
</svg>
