<?xml version="1.0" encoding="utf-8"?>
<!-- Generator: Adobe Illustrator 26.3.1, SVG Export Plug-In . SVG Version: 6.00 Build 0)  -->
<svg version="1.1" id="Layer_1" xmlns="http://www.w3.org/2000/svg" xmlns:xlink="http://www.w3.org/1999/xlink" x="0px" y="0px"
	 viewBox="0 0 555.9 438.9" style="enable-background:new 0 0 555.9 438.9;" xml:space="preserve">
<style type="text/css">
	.st0{fill:#FFDCAE;}
	.st1{fill:#FFB300;}
	.st2{fill:#CCA35C;}
</style>
<g id="Слой_2">
	<path class="st0" d="M232.7,183.9c29.7-8.1,61-7.5,90.3,1.9c1.5-5,1.5-10.4,0-15.4c-3.1-9.6-12.1-16.7-23.2-18.8
		c0.3-2.8,0-5.6-0.8-8.2c-3.6-12.6-17.5-17.4-19.5-18c2,5.6,1.1,8.7,0,10.5c-4.1,6.5-16.1,2.5-22.5,9.9c-2.2,2.7-3.4,6.1-3.4,9.6
		c-6.4,0.4-12.3,3.4-16.5,8.3C230.1,172.3,232.5,182.7,232.7,183.9z"/>
	<path class="st1" d="M477.2,301.9c-2.8-7.1-8.9-10.4-13.9-13.1c-2-1.1-4-2-6.2-2.7c-7.3-2.5-13.7-7.2-18.2-13.5
		c-10.5-14.8-22.8-28.1-36.7-39.7c-10.6-8.8-40.9-33.4-85.1-42c-13.1-2.4-26.4-3.7-39.7-3.8c-14.4-0.3-28.9,0.7-43.1,3
		c-14.2,2.4-34.6,5.8-56.6,17.6c-25.5,13.7-49.9,36.9-59.6,53.6c-4.8,8.3-10.9,15.7-18,22.1c-3,2.8-6.2,5.2-9.8,7.2
		c-7.9,4.3-11,2.9-15.8,6.5c-5,3.9-7.9,9.7-8.2,16c-0.2,10.9,9,17.6,10.5,18.7c5.7,4.2,11.8,4.8,15.7,5.2c8.8,1,9.5-1.8,15.8-0.8
		c7.4,1.3,8,5.5,21.4,14.2c7.6,5,11.5,7.5,16.9,8.6c8.3,1.7,15.9-0.2,22.5-1.9c7-1.8,8.4-3.2,15.7-4.5c4.4-0.9,9-1.3,13.5-1.1
		c7.1,0.4,10.9,2.4,22.9,7.5c13.4,5.7,20.1,8.5,23.2,9c11.8,1.7,21.8-1.9,27-3.7c10.4-3.8,10.1-6.5,21.4-10.5
		c6.2-2.2,13.3-4.7,22.5-4.1c7.8,0.5,15.5,3,22.1,7.1c15.5,7.5,25,6.3,30.7,3.8c1.9-0.8,1.2-0.9,16.1-10.9c9.4-6.3,12-7.9,16.1-8.6
		c3.2-0.6,7.2,0.1,15,1.5c15.4,2.7,16,4.3,21.4,3.8c6.6-0.8,12.8-3.7,17.6-8.3c1.2-1.2,2.4-2.6,3.3-4c2.5-3.6,5.9-6.4,9.9-8.1
		c3.5-1.4,6.4-3.8,8.5-7C480.9,311.5,477.7,303.3,477.2,301.9z M330.5,250.7c-1.8,3.7-6.6,6.3-10.7,5.6c-13.8-2.4-15.9-43-16-45.3
		C324,226.6,334.6,242.2,330.5,250.7z M275.3,213.5c10.6,23.2,12.8,42,5.2,47.6c-3.3,2.4-8.8,2.5-12.1,0
		C257.3,252.5,274.2,215.6,275.3,213.5z M243.8,213.4c-2.3,25.5-9.8,42.8-19.1,43.9c-4.1,0.5-8.9-2.2-10.5-6
		C208.8,238.3,241.9,214.8,243.8,213.4L243.8,213.4z M433.9,296c-50.8,22.4-105.5,34.8-161,36.3c-4.1,0.1-8.3,0.2-12.4,0.2
		c-52.2,0-104-9.5-152.7-28.1c-1.7-0.7-2.6-2.6-1.9-4.3c0.7-1.7,2.6-2.6,4.3-2c103.9,39.6,219.2,36.6,321-8.2c1.7-0.8,3.7,0,4.4,1.7
		C436.4,293.3,435.6,295.3,433.9,296L433.9,296z"/>
</g>
<g id="Слой_3">
	<path class="st2" d="M305,430c17-1.3,33.2-3.4,48.2-6c-0.9-17.9-1.8-35.8-2.7-53.7c-1-0.2-2-0.3-2.7-0.4
		c-13.6-2.4-14.9-8.1-28.5-10.1c-5.2-0.7-10.5-0.7-15.7,0C304.1,383.1,304.6,406.6,305,430z"/>
	<path class="st2" d="M194.5,425.7c14.3,2.2,29.6,3.9,45.8,4.9l0.3-55.8c-19.6-3.2-26.4-16.3-45.7-15.5L194.5,425.7z"/>
	<path class="st2" d="M360.4,422.6c16.3-3.1,31.3-6.9,44.9-10.8c-0.9-20.5-1.8-41-2.7-61.4c-1.3-0.1-2.6-0.1-3.9,0
		c-13.1,2.7-13.5,13.3-27.7,18.4c-4,1.4-8.3,2.2-12.6,2.2L360.4,422.6z"/>
	<path class="st2" d="M296.1,361.2c-9.8,2.7-11.7,6.3-21.8,10.1c-8,2.7-16.3,4.1-24.7,4.1h-0.5c-0.4,18.5-0.9,37-1.3,55.5
		c13,0.6,26.6,0.6,40.7,0c2.7-0.1,5.3-0.2,7.9-0.4C296.3,407.4,296.2,384.3,296.1,361.2z"/>
	<path class="st2" d="M442.3,351.4c-6.7,1.9-11.4,1.1-25.1,0l-8.3-0.6l2.5,59.2c13-4,24.6-8.1,34.7-12.1l8.2-52.5
		C450.7,348.1,446.6,350.2,442.3,351.4z"/>
	<path class="st2" d="M132.3,362c-9.8-4.9-12.2-11.4-24.4-15.9c-6.7-2.4-13.9-3.4-21-3c5.4,19.7,10.7,39.5,16.1,59.2
		c8.8,3.2,18.9,6.5,30.3,9.8C133,395.5,132.6,378.8,132.3,362z"/>
	<path class="st2" d="M140.5,414.2c13.9,3.8,29.5,7.4,46.6,10.3c0.1-21.4,0.2-42.8,0.4-64.2c-6.1,1.6-8.9,4.6-21.7,5.8
		c-8,0.7-16.7,1.5-26.2-1.2C139.8,381.3,140.1,397.7,140.5,414.2z"/>
</g>
</svg>
