<?xml version="1.0" encoding="utf-8"?>
<!-- Generator: Adobe Illustrator 26.3.1, SVG Export Plug-In . SVG Version: 6.00 Build 0)  -->
<svg version="1.1" id="Layer_1" xmlns="http://www.w3.org/2000/svg" xmlns:xlink="http://www.w3.org/1999/xlink" x="0px" y="0px"
	 viewBox="0 0 889 407.4" style="enable-background:new 0 0 889 407.4;" xml:space="preserve">
<style type="text/css">
	.st0{fill:#2D2D2D;}
	.st1{fill:#A00000;}
	.st2{fill:#FFFFFF;}
	.st3{fill:#606060;}
	.st4{fill:none;}
</style>
<g id="Layer_2_00000164502347889126819780000004662648694408921767_">
	<g id="Layer_1-2">
		<circle class="st0" cx="181.1" cy="331.6" r="68.1"/>
		<circle class="st0" cx="778.8" cy="330.9" r="68.1"/>
		<path class="st1" d="M885.4,212.9c-3.3-11.1-13.2-11.9-23.4-14.3c-11-2.6-22.4-3.9-33.6-5c-13.5-1.4-27.1-2.6-40.7-2.6
			c-20.6,0-41.3,0.3-61.9,2c-14.5,1.2-28.9,4.4-43.1,7.7c-24.4,5.6-49,11.4-61,37.4c-0.7,1.2-1.5,2.3-2.4,3.3
			c-0.2-0.8-0.4-1.7-0.5-2.6c0-1.2,0.2-2.4,0.5-3.5c6-17,18.5-27.4,34.7-33.7c29.6-11.4,60.7-15.9,92.1-17.5
			c20.5-1.1,41-1.1,61.5,0.1c16.8,1.1,33.6,4.6,50.2,7.7c5.6,1.1,7.4-0.1,6.6-5.3c-1.5-10.4-3.8-20.8-4.7-31.3
			c-0.8-9.6-5.8-14.4-14.2-18c-19.2-8.2-39.7-5.4-59.3-5.9c-50.2-1.5-100.5-0.7-150.8-0.5h-10.6c-7.8,0-12.5-2.5-15.1-10.3
			c-5.5-16.6-12.5-32.8-17.5-49.5c-6.8-22.8-21.7-36.4-44.2-41.6c-32.3-7.4-65.4-10.7-98.5-9.8C423,20.5,409.3,37.5,407.4,58
			c-2.4,25.4-2.8,51-3.3,76.5c-0.2,8.5-0.6,17-0.7,25.6c-0.1,4.3,0,8.7,0,13c0,3.9,0.5,8.1-0.2,11.9c-0.4,1.7-1.3,3.2-2.6,4.4
			c-1.2,0.8-2.4,1.4-3.7,2l0.3-34.4c0-1.9,0-4-1-5.7c-1.1-2-2.8-2-4.7-2.2c-12.3-1.3-25.4-0.1-37.8-0.1H20.5c-5.8,0-9.8-1.7-15,2.1
			c-1.1,0.7-2,1.7-2.8,2.8c-1.2,2.2-1.1,4.7-0.9,7.2c0.5,9.8-1.8,19.3-1.8,29c0,26.8,0.1,53.5,0.2,80.3c0,19.8,0,39.2,3.7,58.9
			c0.4,2,0.8,4.1,2.2,5.5c1,1,2.3,1.6,3.6,2c3.9,1.2,7.8,1,11.8,0.8c28.2-1,56.7,3.2,85-2.9c4.6,39.8,27.6,66.9,66.1,71.4
			c46.5,5.5,73.6-22.5,84.3-67.2c1.7,1.2,3,1.7,3,2.1c-0.1,2.8,0,6.9,2.9,8.4c2.7,1.4,7.3,0.9,10.2,0.8c18.3-0.6,36.5-1,54.8-1.4
			h365c3.4,0,4.7-4.3,5.6-7c1.3-4,3.4-6.6,6-9.7c2.5,23.5,10,42,26.8,56s36.2,22.4,57.6,18.6c20.7-3.7,40.1-13.2,52.1-31.7
			c16.4-25.4,18.6-52.4,5.1-80.7c1.7,3.5,5.1,5.5,7.1,8.6c2.8,4.5,5,17.6,10.2,19.6c2,0.6,4.1,0.9,6.2,0.7l7.5-0.1
			c2.2,0.2,4.3-0.2,6.3-1c4.3-2.2,2.3-7.3,2.5-11.1c0.2-6.5,0.8-13,1.2-19.5c0.7-12.6,1.4-25.3,1.8-38
			C889.2,239.9,889.3,226,885.4,212.9z M454.5,104.2c0.8-9.8,0.8-19.6,0.1-29.4c-0.8-13.4,9.5-21.2,23.6-20.4
			c17.1,1,34.2,1.6,51.3,3.3c10.4,1.1,21.1,2.5,30.6,6.4c14.1,5.8,15.5,20.9,19.8,33.5c1.7,5,2.6,10.2,3.7,14.5
			c-0.4,12-9.7,18.5-21.3,17.9c-19.1-1-38.2-0.4-57.4-0.8c-11.9-0.2-24.1,0.3-35.6-2C456.1,124.7,453.2,117.6,454.5,104.2z
			 M183.7,398.1c-38.9,0.6-68-29.1-68-66.7c0.1-36.1,29.8-67.8,68.3-67.1c32.8,0.5,65.3,31.6,64.2,66.3
			C248.2,369.3,219.1,397.5,183.7,398.1z M251.5,301.2c-12.4-22.2-28.5-38.5-54.4-43.5c-25.1-4.9-46.6,2.6-66.7,17.3
			c4.6-11.8,14.5-17.4,25.2-21.1c29.2-10.1,57.4-9.2,81.2,13.1C246,275.6,253.8,286.4,251.5,301.2L251.5,301.2z M221.9,202.4
			c-40.4-14.2-79-9.2-115.8,11.4C91.5,222,78,232,64,241.2c-1.3,0.9-2.9,1.5-4.5,1.7c10.7-13.5,23.9-23.6,38.7-32
			c29-16.5,59.9-26.7,93.3-22.8s63.7,17.1,83.6,46c10.3,14.9,15.3,32.6,17.4,50.9c1.2,10.5,3.5,20.9,3.7,31.3
			c0.1,10-4.1,18.9-13.8,23.8c-2.1,1.1-4.8,1-7.3,1.4l-0.5-1.9l8.9-7.5c10.6-9,8.2-21.5,6.6-32.3c-2.4-15.6-6.5-30.8-12.1-45.5
			C268,228.1,248.1,211.7,221.9,202.4L221.9,202.4z M766.8,250.9c20.1-3.9,39.5,0.8,54.9,16.5c-45.1-19.9-82.8-13.2-110.8,30.2
			C719.1,269,740.7,256,766.8,250.9z M778.9,398.2c-36.3-0.1-65.1-28.8-65.5-66.7c-0.4-35.8,28.3-67.5,65.7-67.2
			c37.7,0.3,66.6,30.1,66.6,66.6C845.7,369,817.4,398.4,778.9,398.2z"/>
		<path class="st2" d="M779.1,373.3c25.1,2,43.4-19.3,42.6-43.1c-0.8-24.7-17.8-41.4-41.6-41.4c-24.9,0-41.6,16-42.7,42
			C736.3,354.5,756.2,374.1,779.1,373.3z"/>
		<path class="st2" d="M251.5,301.2c-12.4-22.2-28.5-38.5-54.4-43.5c-25.1-4.9-46.6,2.6-66.7,17.3c4.6-11.8,14.5-17.4,25.2-21.1
			c29.2-10.1,57.4-9.2,81.2,13.1C246,275.6,253.8,286.5,251.5,301.2z"/>
		<path class="st3" d="M779.1,373.3c-22.9,0.9-42.8-18.8-41.7-42.5c1.1-25.9,17.8-42,42.7-42c23.8,0,40.8,16.8,41.6,41.4
			C822.5,354,804.2,375.3,779.1,373.3z M806.7,331.1c0-16.4-11-27.4-27.5-27.4c-15.2,0-28.4,12.8-28.3,27.5
			c0.1,15.4,13.5,28.3,28.9,28.3C793.1,359.5,809.5,345.3,806.7,331.1L806.7,331.1z"/>
		<path class="st3" d="M181.1,373.3c-23.7,0-42.4-18.6-41.5-42.9c0.9-25.6,16.9-40.2,41.3-41.7c25.4-1.5,43.8,20.4,43.4,44.3
			C224,352.7,207.9,374.6,181.1,373.3z M182,303.1c-7.4,0.1-14.5,3.1-19.7,8.3c-4.9,4.8-9.8,12.2-9.1,19.5
			c1.4,14.1,9.9,28.4,29.5,28.6c14.1,0.1,28.5-14.2,27.9-28.4c-0.4-10.6-8-21.3-17.6-25.6C189.6,303.9,185.8,303.1,182,303.1
			L182,303.1z"/>
		<path class="st0" d="M806.6,331.1c2.9,14.2-13.6,28.4-26.8,28.4c-15.4,0-28.8-12.9-28.9-28.3c-0.1-14.7,13.1-27.5,28.3-27.5
			C795.6,303.7,806.7,314.7,806.6,331.1z M779.5,352.3c12.9,0,21.4-8.5,21.4-21.5c0.1-11.6-9.2-21.1-20.8-21.2c0,0,0,0,0,0h-0.4
			c-12.8,0-22.3,9-22.2,21.3S767,352.2,779.5,352.3L779.5,352.3z"/>
		<path class="st0" d="M779.5,352.3c-12.5,0-22-9.3-22-21.4s9.5-21.4,22.2-21.3c11.6-0.1,21.1,9.3,21.2,20.8c0,0,0,0,0,0v0.3
			C800.8,343.8,792.3,352.3,779.5,352.3z"/>
		<path class="st3" d="M203.2,332c-0.2,11.2-10.2,21.5-21.1,21.6c-10.6,0.1-23-12.2-23-22.8c-0.1-11.3,11.2-21.5,23.6-21.3
			C194.6,309.7,203.4,319.3,203.2,332z M198.3,331.2c0.1-9.8-6.6-17-15.9-17c-10,0-17.7,4.4-18,18.9c-0.1,7,10,15.8,17.6,15.7
			C190.5,348.7,198.2,340.3,198.3,331.2L198.3,331.2z"/>
		<path class="st4" d="M377,0h0.3"/>
		<ellipse class="st2" cx="199" cy="166.1" rx="186.5" ry="3.5"/>
		<ellipse class="st2" cx="504.2" cy="166.1" rx="87.6" ry="3.5"/>
		<ellipse class="st2" cx="566.7" cy="201.6" rx="1.9" ry="14.9"/>
		<path class="st2" d="M847.5,147.7c4,4.9,4.8,11.6,4.9,17.8c0.1,0.8-0.1,1.5-0.5,2.2c-0.6,0.5-1.4,0.7-2.2,0.6l-19.5-0.1
			c-0.7,0-6.8-26.1,1.7-27.9C837.4,139.2,844.1,143.5,847.5,147.7z"/>
		<ellipse class="st2" cx="501.5" cy="318.1" rx="187.7" ry="4"/>
		<path d="M461,68.3c1.3-1.3,2.7-2.5,4.2-3.5c1.5-1,3.1-2,4.8-2.8l1.8-0.9L471,63c-0.8,1.8-1.6,3.5-2.4,5.2l-1.2,2.6
			c-0.2,0.4-0.3,0.7-0.4,1.1c0,0.2,0,0.4,0,0.5l-1.2-0.2c1.3-0.9,2.6-1.8,3.8-2.9c1.3-1.1,2.6-2.1,4-3c1.4-1,3-1.7,4.6-2.1
			c1.6-0.4,3.4-0.4,5,0.2c-1.6-0.2-3.2,0-4.7,0.6c-1.5,0.6-2.8,1.4-4.1,2.4c-1.2,1-2.4,2.1-3.6,3.2c-1.2,1.1-2.5,2.2-3.9,3.1
			l-0.6,0.4l-0.5-0.6c-0.3-0.3-0.5-0.7-0.5-1.1c-0.1-0.3-0.1-0.7,0-1c0.1-0.5,0.3-1.1,0.6-1.5l1.3-2.6c0.9-1.7,1.8-3.4,2.7-5.1l1,1
			c-1.6,0.7-3.3,1.4-4.9,2.3S462.5,67.4,461,68.3z"/>
		<path d="M568.4,95.8c-2.2,1.8-4.2,3.9-6,6.1c-1.9,2.2-3.7,4.4-5.4,6.7s-3.4,4.6-5,7c-1.6,2.4-3.1,4.8-4.5,7.3l-1.6-0.9
			c1.2-2.2,2.7-4.2,4.6-5.9c1.8-1.6,3.8-3.1,5.8-4.4c4.1-2.7,8.5-4.8,13.1-6.3c-2.2,1.1-4.3,2.2-6.3,3.4s-4,2.6-6,4
			c-1.9,1.4-3.7,2.9-5.5,4.5c-1.7,1.6-3.1,3.4-4.2,5.5l-1.6-0.9c2.8-5.1,6.1-9.9,9.9-14.3c1.9-2.2,3.8-4.4,5.9-6.4
			C563.7,99.2,566,97.3,568.4,95.8z"/>
		<path d="M543.6,95.6c2.3-1.8,5-3.2,7.8-4l1.3-0.4l-0.9,1.1c-3.2,3.9-6.1,8.1-8.8,12.4c-1.3,2.1-2.6,4.3-3.8,6.5s-2.3,4.5-3.4,6.7
			l-1.6-0.9c3.7-4.7,8.2-8.8,13.2-12.1c2.4-1.7,5-3.3,7.5-4.8s5.1-3,7.7-4.4c-2.4,1.7-4.8,3.4-7.2,5.1s-4.8,3.4-7.1,5.2
			c-2.3,1.8-4.6,3.6-6.7,5.6c-2.1,2-4.1,4.1-5.8,6.4l-5.2,6.9l3.6-7.8c1.1-2.3,2.2-4.6,3.5-6.8s2.6-4.4,4-6.5
			c2.9-4.3,6.1-8.3,9.6-12l0.4,0.7C548.7,93.1,546,94.1,543.6,95.6z"/>
		<path class="st2" d="M397.9,198.5h4.1c0.4,0,0.8,0.3,0.8,0.8v109.4c0,0.4-0.3,0.8-0.8,0.8h-4.1c-0.4,0-0.8-0.3-0.8-0.8V199.3
			C397.1,198.9,397.4,198.5,397.9,198.5z"/>
		<path class="st2" d="M592.5,195.4h4.1c0.4,0,0.8,0.3,0.8,0.8v109.4c0,0.4-0.3,0.8-0.8,0.8h-4.1c-0.4,0-0.8-0.3-0.8-0.8V196.2
			C591.8,195.8,592.1,195.4,592.5,195.4z"/>
		<path class="st3" d="M801.6,332c-0.2,11.2-10.2,21.5-21.1,21.6c-10.6,0.1-23-12.2-23-22.8c-0.1-11.3,11.2-21.5,23.6-21.3
			C793,309.7,801.8,319.4,801.6,332z M796.7,331.2c0.1-9.8-6.7-17-15.9-17c-10,0-17.7,4.4-18,18.9c-0.1,7,10,15.8,17.6,15.7
			C788.9,348.7,796.6,340.4,796.7,331.2L796.7,331.2z"/>
	</g>
</g>
</svg>
