<?xml version="1.0" encoding="utf-8"?>
<!-- Generator: Adobe Illustrator 26.3.1, SVG Export Plug-In . SVG Version: 6.00 Build 0)  -->
<svg version="1.1" id="Layer_1" xmlns="http://www.w3.org/2000/svg" xmlns:xlink="http://www.w3.org/1999/xlink" x="0px" y="0px"
	 viewBox="0 0 338.2 225.1" style="enable-background:new 0 0 338.2 225.1;" xml:space="preserve">
<style type="text/css">
	.st0{fill:#162213;}
	.st1{fill:#FBF5B0;}
	.st2{fill:#BA5E28;}
	.st3{fill:#ACDAF5;}
</style>
<g id="Layer_2_00000105427047732336923620000001629710106464232379_">
	<g id="Layer_1-2">
		<g id="_1">
			<path class="st0" d="M332,153.6c3.9-4.2,4.9-10.6,5.4-16.1c0.6-6.4,0.8-11.9-2.4-17.9c-0.9-1.7-1.9-3.5-2.9-5
				c-1.2-1.6-2.8-2.8-3.8-4.6c-1.6-2.8-1.4-6.6-2-9.6c-0.9-4.5-1.8-8.9-3-13.3c-2.3-8.2-5.4-16.1-9.1-23.8
				c-3.8-8-8.3-15.6-13.3-22.9c-2.8-4.2-5.8-8.3-9-12.2c-2.5-2.8-5.4-5.2-5.8-9.2c-0.2-1.7-0.6-3.3-1.2-4.8c-2.6-6-12.6-6.8-18-7.9
				c-4-0.8-8-1.5-11.9-2.1c-32.1-5-64.6-4.6-97-3.4c-15.6,0.6-31.4,1.2-46.9,3c-14.3,1.6-28.6,4-42.2,8.8
				C46.3,20.4,26,34.9,16.1,57.3c-7.3,16.4-8.2,34.5-7.9,52c0.1,8.3,0.6,16.6,1.3,24.9c0.9,11,1.3,24,4.5,35.3
				c-6.4,0.7-12.1,3.5-13.6,10.2c-3.7,16.5,20.1,18,30.4,15.7c3.6-1,6.8-3.1,9.1-6.1c2.6-3.5,1.4-7.6,3.6-10.9c2.1-3.5,4.5-6.8,7-10
				c5.9-6.8,13.8-12.2,22.5-14.3c11-2.7,23.1-1.3,32.5,5.4c6.9,5,9.6,14.8,10.5,22.1c0.2,1.6,0.2,3.1,0.2,4.7
				c0.1,3.7,1.9,4.6,5.7,4.5c20.7-0.5,41.5,0.2,62.2,0.4c7.3,0.1,14.5-0.4,21.8-1c3.6-0.3,7.2-0.6,10.9-0.8c2.8-0.2,6.3,0.8,7.9-2
				c0.6-1.2,1-2.5,1.2-3.8c3.6-16.9,14.5-33.1,32.4-36.5c5.8-1,11.7-0.3,17.2,1.8c4.1,1.7,7.9,4,11.2,6.9c3.9,3.3,5.7,7.4,7.8,12
				c2.6,5.8,2.5,12.1,3.8,18.3c1.1,5.3,4.1,10.3,10.1,10.6c10.5,0.5,22.9,1,27.7-10.3C340.2,176.7,338.1,162,332,153.6z"/>
			<path class="st0" d="M109.5,180.1c-0.5-7.8-4.8-14.8-11.6-18.6c-17.7-10.2-38.1,3.5-46.7,19c-4.3,7.8-6.8,17-4.3,25.7
				c1.7,5.8,5.5,10.8,10.6,14c17.9,11.6,36.5-2.9,46.3-17.8C107.9,195.7,109.9,187.9,109.5,180.1z M82.2,215.4
				c-16.1,10.1-36.1-7.3-28.3-24.3c0.3-0.8,1.6-0.2,1.3,0.6c-2.1,6.9,0.9,15.4,7.3,18.9c6,3.3,12.3,3.2,18.9,2.4
				C82.9,212.8,83.2,214.8,82.2,215.4L82.2,215.4z M90,183.4c-0.3,5.4-3.7,9.1-7.8,12.2c-1.3,1-2.7,1.8-4.2,2.4
				c-2.5,1-5.3,1.3-7.7-0.1c-1.8-1.2-3-3.2-3.1-5.4c-0.5-6.5,5.6-13.4,11-16.4c1.7-1.1,3.7-1.7,5.7-1.6
				C88.5,174.9,90.3,179.3,90,183.4L90,183.4z M98,177.3c-0.1,0.7-0.5,1.7-1.4,1.5s-0.9-2-1.1-2.7c-0.4-1.1-0.9-2.2-1.6-3.2
				c-1.3-2-3.2-3.4-5.5-4.1c-1.4-0.4-2.8-0.6-4.2-0.6c-0.7,0-3.1,0.6-3.6,0.2c-1.1-1,4.5-2.8,5.3-2.9c2.4-0.5,4.9-0.3,7.1,0.8
				c2.7,1.2,4.1,3.6,4.8,6.3C98.1,174.1,98.2,175.7,98,177.3L98,177.3z"/>
			<path class="st0" d="M274.6,155.2c-0.7-0.3-1.4-0.5-2.2-0.7c-5.2-1.5-10.7-1.2-15.8,0.7c-5.7,2.1-10.4,6.4-13.8,11.3
				c-2.9,4.2-5.2,8.7-6.8,13.5c-3.6,10.6-4.1,21.4,1.3,31.7c5.1,9.8,14.9,15.3,26,12.9C288.9,218.9,302.7,166.5,274.6,155.2z
				 M268.6,216.8c-1.6,1.2-3.4,2.2-5.3,2.8c-8.6,2.7-17.9-2.4-21.5-10.4c-1-2.5-1.6-5.2-1.7-7.9c0-3,1-3,2.3-0.6
				c2.1,3.8,3.9,8.4,7.4,11c5.1,3.7,12,4.3,18,3C269,214.4,269.4,216.1,268.6,216.8L268.6,216.8z M259.1,199.2
				c-7.6-4.8-6-15.2-1.8-21.7c3-4.6,9-7.6,14.2-4.8C283.9,179.4,271.4,206.9,259.1,199.2L259.1,199.2z M279.9,175.4
				c-1,0-1.3-1.8-1.6-2.4c-0.6-1-1.4-2-2.2-2.9c-1.7-1.7-3.9-2.7-6.2-3c-1.4-0.1-2.8,0-4.2,0.3c-0.7,0.1-2.9,1.2-3.5,0.9
				c-1.3-0.7,3.9-3.6,4.6-3.9c2.2-0.9,4.7-1.2,7.1-0.7c2.7,0.7,4.9,2.7,6,5.3c0.7,1.4,1.2,3,1.3,4.6
				C281,174.3,280.8,175.4,279.9,175.4L279.9,175.4z"/>
		</g>
		<g id="_2">
			<path class="st1" d="M16.3,95.4c2.4,1.1,6.4-0.6,8.9-1.1c4-0.7,8-1.5,12.1-2.1c32.3-5.4,64.9-8.7,97.6-10.1c0.5,0,1,0,1.5-0.1
				c21.6-0.9,43.2-1.2,64.9-0.6c19.7,0.5,40.1,0.4,59.6,3.4c0.1-0.9,0.2-1.7,0.3-2.4c0.3-2,0.8-5,1.6-8.2c-4.7,0.8-9.8,0.1-14.5-0.2
				l-12.7-0.9c-3.3-0.3-7-0.1-10.1-1c-6-1.7-8.5-5.7-10-11.5c-0.9-4.3-1.5-8.7-1.7-13.1c-0.4-5.3-0.9-10.7-0.3-16
				c0.5-4.1,1.8-9.1,4.6-12.4c3.9-4.5,11.9-2.9,17.1-2.5c12.2,1,27.2,3.8,36.4,12.6c6.4,6.1,11,13.3,15.8,20.7
				c5,7.8,9.6,15.7,13,24.4c1.2,3,3.5,10.1-1.8,9.7c-3.4-0.2-4.9-0.7-5.2,3.3c-0.2,2.7,0.4,5.1,3,6.3c2.1,1,4.1,2.2,6.1,3.5
				c2.9,1.8,5.7,3.8,8.3,6.1c2.3,2,8.9,9.3,9.3,1.8c0.2-4.4-1.9-9.5-3-13.6c-1.5-5.3-3.6-10.3-5.6-15.4
				c-5.7-13.8-13.4-26.7-22.8-38.3c-2.2-2.7-4.4-5.2-6.8-7.7c-1.7-1.8-5.7-4.3-5.5-6.9c0.1-2.3,1.7-4.7-0.7-6.5
				c-1.8-1.4-4.4-2-6.5-2.7c-4.1-1.1-8.3-2-12.5-2.6c-8-1.5-16.1-2.6-24.2-3.4c-15.2-1.5-30.6-2.2-45.9-1.8
				c-15.5,0.4-30.8,1.7-46.2,2.9c-7.7,0.6-15.4,1.4-23.1,1.9c-17.2,1.1-34.5,3-50.7,9.2c-21.4,8.2-40.7,23.1-48.1,45.6
				c-2.3,6.9-4.4,14.3-4.7,21.6C13.6,89.7,13.5,94,16.3,95.4z M151.1,42.3c0.2-5.7-0.2-11.1,1.8-16.6c1.5-4.2,3.6-6.4,7.5-8.7
				s7-1.9,11.4-1.9c6.6,0,13.2-0.2,19.8,0.7c4.3,0.6,10,1.7,12.1,6.2c4,8.7,2.5,19.8,2.8,29.1c0.1,5.9,1.3,14-4.4,17.8
				c-3.3,2.3-8.9,2.4-12.8,3c-4.7,0.6-9.5,0.9-14.3,0.7c-4.9-0.2-10,0.1-14.6-1.6s-6.7-6.1-7.8-10.5
				C151.2,54.5,150.7,48.4,151.1,42.3z M87.9,34.6c0.4-3.8,1.9-7.5,4.2-10.6c2.4-3.3,4.6-4.2,8.5-5.3c9.4-2.7,18.9-2.9,28.5-2.8
				c7.1,0.1,13.1,3.9,15,11c2.7,10.1,1.6,20.7,1.2,31c-0.2,6.1-1.6,13.3-8.2,15.7c-4.3,1.5-9,1.6-13.5,2c-5,0.6-10.1,0.7-15.2,0.4
				c-7.9-0.6-15.6-3.6-18.2-11.7C87.3,55.2,86.9,44,87.9,34.6z M23.7,76.2c3.1-16.9,13.7-31.6,28.8-39.9c4-2.1,7.4,3.6,3.6,6.1
				c-13.2,8.2-23.5,20.3-29.4,34.7c-0.3,0.8-1.2,1.2-2,0.9C23.9,77.7,23.5,76.9,23.7,76.2z"/>
			<path class="st1" d="M13.4,175.5c-2.5,0.4-5.3,1.1-6.9,2.9h0.3c2.7,0.6,5.4,1.1,8.1,1.5c2.2,0.2,3.4,0.3,5.1,1.8
				c0.3,0.3,0.3,0.8,0,1.1c-1.8,1.9-3.7,1.9-6.2,2.1c-2.6,0.4-5.2,0.6-7.8,0.7c3.9,5.8,19,5,23.7,4.1c2.5-0.5,4.6-1.9,6.1-3.9
				c1.5-2.2,1.2-5.2-0.7-7C30.3,173.8,19.6,174.5,13.4,175.5z"/>
			<path class="st1" d="M312,132.2c0.2,5.9,1.4,13.7,4.7,18.7s9.1,3.7,12.1-0.7c3.8-5.4,3.9-13.2,3.3-19.5c-0.4-3.6-1.3-8.9-4-12.2
				c-0.9-1.1-2.1-2-3.5-2.5c-2.3-0.6-4.7-0.3-6.7,1C312.8,120.2,311.8,126.5,312,132.2z"/>
			<path class="st1" d="M328.1,158.9c-1.8,3.9-5.6,8.4-9.8,9.6c-4.4,1.3-9.2-0.1-12.8,3.7c-1.6,1.8-2.5,4-2.6,6.4
				c1.1-1.4,2.5-2.7,4-3.6c4.7-2.6,11.7-2.1,16.9-2.8c0.8-0.1,1.2,1.3,0.4,1.6c-2.3,1-4.5,2.3-6.7,3.4c-4.2,2-11.2,2.6-11.7,8.6
				c-0.6,7.8,7.7,5.8,12.6,5.4c5.4-0.5,10.4-2.6,12.1-8.3c1.2-4.1,1.7-8.5,1.3-12.8C331.5,167.3,330.8,160.4,328.1,158.9z"/>
		</g>
		<g id="_3">
			<path class="st2" d="M272.1,67.6c-5.5,0.6-6.1,7.7-6.2,12s-0.7,13.5,2.8,16.6c6.2,5.5,11.9-2.5,16.4-6.1c1.2-0.9,2.3-1.9,3.1-3.2
				c2.3-3.9-1.4-8.9-4.4-11.5c-0.6-0.6-1.6,4.6-1.8,5c-0.7,1.8-2.6,5.7-4.6,6.3C277,82,281.7,66.6,272.1,67.6z"/>
			<path class="st2" d="M205.9,89.4c-1.5-2.7-3.6-3.3-7.1-3.4c-20.9-0.3-41.7-0.2-62.5,0.7c-11.8,0.5-23.7,1.3-35.5,2.3
				c-16.4,1.4-32.7,3.3-49,5.7c-13.8,2.1-26.9,7.4-33.1,20.9c-1.9,4-2.5,8.9-3.2,13.3c-0.6,5.3-0.8,10.6-0.3,15.9
				c0.2,3.8,0.7,7.6,1,11.3c0.3,3.7,0.5,8.3,3.1,11.1c2,2.1,4,2,6.5,2.2c1.1-8.3,4.3-16.6,10.2-22.6c0.4-0.3,1.1-0.3,1.4,0.2
				c0.2,0.2,0.3,0.5,0.2,0.8c-2.8,7.7-4.6,15-4.3,23.2c2.3,0.4,4.6-0.7,5.9-2.7c3.6-5,7.6-10.1,12.8-13.5c8.2-5.3,19.5-8.2,29.3-7.9
				c10.3,0.3,21,3.1,28.6,10.3c4.1,4,7.2,8.8,9.1,14.1c1.7,4.7,1.9,8.7,7.4,10.6c2.2,0.7,4.6,1,6.9,1.1c18.7,1.1,37.2-0.1,55.9-0.1
				c7.6-0.2,17.4,1.5,16.9-9.1c-0.6-12.1-0.2-24.1-0.2-36.2c0-10.6,0.4-21.3,0.9-31.9c0.3-5.1,1.5-10.2-0.5-15.2
				C206.2,90.1,206.1,89.7,205.9,89.4z M51.8,107.6c0.2-0.3,0.6-0.7,0.9-0.9c1.6-1,3.3-1.8,5.2-2.2c3.5-0.8,7-1.2,10.5-1.4
				c6.3-0.6,12.6-0.3,18.8,1c3,0.6,2.9,3.1,0.3,3.9s-6.3,0.5-9.2,0.7c-6.4,0.5-12.7,1-19.1,1.4c-1.5,0.1-6.4,1.4-7.6,0.1
				C50.8,109.5,51.2,108.4,51.8,107.6z M89.5,132.6c-4.9,0.6-10.3-0.2-15.3,0.3c-4.8,0.5-9.6,1.4-14.3,2.5c-1.5,0.4-6.6,2.1-7.7,0.4
				c-0.8-1.2,1.3-3,2.2-3.6c2.3-1.7,5.5-2.2,8.2-3c3.6-1,7.2-1.7,10.9-1.9c3.1-0.2,6.1-0.2,9.2,0c2.6,0.2,5.2,1.1,7.5,2.4
				C92.1,131,92,132.3,89.5,132.6z M82.9,120.6c-7.3,0.5-14.5,0.9-21.8,1.4c-2.7,0.2-5.8,1.1-8.4,1c-1.6-0.1-4.3-1.5-2.5-3.3
				c1.2-1,2.6-1.7,4.2-1.8c3.2-0.4,6.6-1.1,9.9-1.6c6.9-1.2,13.9-1.3,20.9-0.5c1.5,0.2,7.9,0.7,6.9,3.3
				C91.4,121.1,84.6,120.5,82.9,120.6z M127.1,172.8c-0.6-0.6-1.1-1.3-1.3-2.1c-0.9-2.6-1.9-5.2-3.2-7.7c-3.5-6-7-11.5-12.8-15.5
				c-1.6-1.1-3.3-2-4.8-3.1c-0.7-0.5-2.2-1.7-2.2-2.6c-0.2-6.3,9.4-0.7,11.3,0.7c2.8,1.9,5.2,4.2,7.2,6.9c1.4,1.9,2.6,3.8,3.7,5.9
				c1.9,3.3,3.3,6.8,4.2,10.4C129.4,166.9,130.5,175.3,127.1,172.8z M197,171.7c-3.2,4.7-9.5,5.6-15,5.2c-4.5-0.3-9,0-13.4-0.3
				c-2.4-0.1-6.5,0.1-8.2-2c-2.3-2.9,5.2-3.2,6.8-3.4c2.5-0.2,5.1-0.3,7.6-0.3c6.1-0.1,12.5-0.2,17.9-3.4
				C195.3,166,198.8,169.1,197,171.7L197,171.7z M156,124c-1.5,4.2-4.2,12.2-6.9,12s-3.5-8.8-4.9-25.2c-0.4-4.2-0.5-6.7,1.1-9.1
				c3.6-5.3,12.4-4.8,14.3-4.6C160.2,106.2,159,115.3,156,124z"/>
			<path class="st2" d="M305.8,164.9c1-2.3-1.5-7.7-2.1-9.4c-1.6-4.3-3.9-8.3-6.9-11.7c-0.7-0.7-0.6-1.9,0.2-2.5
				c0.6-0.5,1.4-0.6,2-0.2c1.7,0.8,3.1,2.4,4.9,3.1c3.4,1.3,1.1-2.1,0.6-4.2c-1.5-6.6-0.8-13.5,2-19.6c0.9-2,2.1-3.9,3.5-5.7
				c1.7-2.3,2.4-2.9,0.3-5.2c-3.3-3.4-7.5-5.9-11.5-8.4c-3.7-2.3-8.8-6.6-13.4-4.7c-6.3,2.6-15.6,13-22,3.6c-2.1-3.1-1.8-6.8-3-10.2
				c-9.2-2-18.2-1.9-27.5-2.4c-5.6-0.3-13.9-2.4-18.2,2.2c-2.3,2.4-2.2,5.7-2.6,8.8c-0.5,3.9-0.6,7.9-0.9,11.8
				c-0.6,9.1-1,18.3-1.3,27.5c-0.3,8.5,0,16.9,0.2,25.4c0.1,4.4-0.2,8.8,0.3,13.2c0.2,1.7,0.4,5.5,2,6.6c5,3.5,7.7-8.1,8.6-10.5
				c2.3-6,5.5-11.6,9.4-16.7c6.7-8.7,15.9-14.8,27.1-15.9c10.6-1.2,21.3,1.8,29.8,8.4c3.3,2.7,6.4,5.8,9.1,9.1c1.6,2,5,10.1,8.5,8.5
				C305.3,165.6,305.6,165.3,305.8,164.9z M236.3,104c2.9-0.2,9.9,0,13.5,2c0.7,0.4,1.4,1,1.8,1.7c1.2,2.2-1.3,3.7-3,4.3
				c-5.2,1.9-10.8,2.4-16.2,1.4c-2.3-0.5-7.3-1.4-7.5-4.2C224.6,104.9,233.4,104.1,236.3,104z M255,132.8c-0.1,0.7-0.6,1.2-1.2,1.5
				c-1.9,1-4.3,1.1-6.3,1.7c-2.2,0.6-4.3,1.5-6.3,2.5c-4.1,2.1-7.7,5-10.8,8.4c-2.1,2.4-4,4.9-5.7,7.6c-0.9,1.3-4.1,7.1-6,6.7
				c-3.2-0.7,1.7-9.2,2.5-10.6c2.1-3.8,4.9-7.3,8.1-10.2c3.4-3.1,7.2-5.7,11.4-7.5c3.5-1.5,8.4-3.9,12.3-2.6c0.2,0,0.3,0.1,0.4,0.2
				C254.4,130.8,255.1,131.7,255,132.8L255,132.8z"/>
			<path class="st0" d="M179.5,102.8c1.8,0.5,10.4,2.8,12,9c0.7,2.7-0.2,5.1-1.9,9c-6.7,15-10.3,22.9-12.9,22.2s-2.6-9.1-2.6-13.6
				C174.1,120.4,176,111.3,179.5,102.8z"/>
		</g>
		<g id="_4">
			<path class="st3" d="M290.5,75.3c1,0.6,3.2,1.3,3.9-0.1c0.6-1-0.6-2.5-0.9-3.5c-1.4-3.4-3-6.8-4.8-10c-2.2-4.4-4.8-8.7-7.6-12.8
				c-2-2.9-3.7-6.2-6.3-8.7c-1.1-1.1-2.5-2.5-3.9-1.5s-1.2,4.5-1.1,6c0.1,3.8,0.4,7.6,1.1,11.3c0.6,3.2,1.2,4.3,4.4,5.2
				c0.7,0.2,1.3,0.3,2,0.5c3.6,1,6.2,3.5,8.3,6.5C287.3,70.4,288,73.8,290.5,75.3z"/>
			<path class="st3" d="M249.7,24.9c-6.2-1.9-12.6-2.9-19.1-3c-2.6-0.1-5.2,0.5-7.5,1.8c-6.8,4.1-4.9,16.3-4.2,23
				c0.5,4.3,0.8,8.8,2.5,12.9c2.4,5.9,6.6,6.9,12.5,7.5c7.7,0.8,15.3,1.4,23,2.1c6.2,0.5,9.1-2.2,8.9-8.4c0-4.8-0.2-9.6-0.7-14.4
				c-0.7-5.4-0.2-10.8-3.9-15.2C258.4,27.7,253.8,26.1,249.7,24.9z M228.4,59.6c-0.4,0.3-0.9,0.3-1.3,0c-0.2-0.2-0.3-0.6-0.2-0.9
				c1.1-5.6,4.5-10.8,7.7-15.4c2.9-4.2,6-9.6,10.4-12.3c0.9-0.5,2-0.2,2.5,0.7c0.2,0.4,0.3,0.9,0.2,1.3c-2,5.3-6.6,9.7-9.8,14.3
				C234.9,51.6,232.1,56.2,228.4,59.6z M252.8,48.7c-1.6,2.7-3.6,5.2-5.8,7.5c-1.8,1.8-3.7,4.4-6.3,5c-0.3,0.1-0.6-0.1-0.7-0.4
				c0,0,0-0.1,0-0.1c0-2.6,2-5.2,3.4-7.3c1.7-2.7,3.7-5.1,5.9-7.4c0.6-0.6,1.4-0.8,2.2-0.6c0.6,0.1,1,0.5,1.3,1
				C253.2,47.1,253.2,48,252.8,48.7z"/>
			<path class="st3" d="M96.3,65.2c1.7,2.7,4.5,4.4,7.7,4.7l10.2,0.6c4.4,0.3,8.8,0.1,13.1-0.8c2.7-0.5,5.6-0.7,8.1-2.1
				c1-0.6,1.8-1.3,2.6-2.1c3.5-3.9,3.5-10.7,3.6-15.6c0.1-5.8-0.1-12.3-1.4-17.9c-1-4.4-3.2-9.7-8.1-10.5c-5.7-1-10.6-0.6-16.3-0.1
				c-7.2,0.6-18.7,1.6-21.7,9.5c-1.6,4.2-1.4,8.9-1.3,13.3C93.1,50.9,92.7,59.3,96.3,65.2z M131.1,48.6c0.5,0.1,0.9,0.5,1.2,0.9
				c0.4,0.6,0.4,1.4,0,2c-2,4-5.6,7.5-8.3,11c-1.1,1.4-3.3-0.4-2.4-1.8c2.4-3.8,4.5-8.3,7.6-11.5C129.6,48.6,130.4,48.3,131.1,48.6z
				 M126,32c0.7-0.3,1.8,0,1.7,1c-0.5,5.4-4.8,9.9-7.8,14.3c-3.8,5.6-7.6,11.2-11.3,16.8c-0.4,0.5-1.1,0.6-1.6,0.3
				c-0.5-0.3-0.6-1-0.4-1.5c2.6-6.2,5.7-12.3,9.1-18.1C118.3,40.4,121.1,34.3,126,32z M101.3,50.3c0.9-3.5,2.4-6.9,4.3-10
				c1.5-2.2,3.2-5.4,6.1-5.9c0.6-0.1,1.2,0.3,1.3,0.8c0,0.1,0,0.1,0,0.2c0.3,2.8-2.2,5.6-3.8,7.6c-2.1,2.6-4.2,5.3-6.2,8
				c-0.2,0.5-0.7,0.7-1.2,0.5S101.1,50.7,101.3,50.3L101.3,50.3L101.3,50.3z"/>
			<path class="st3" d="M159.6,62.7c4,4.7,11.5,3.9,17,3.8c4.1-0.1,8.3,0,12.4-0.2c3-0.2,5.5-0.3,7.7-1.5c1.3-0.7,2.3-1.8,3.1-3
				c4.3-6.7,1.5-16.8,1.3-24.1c-0.1-3.3-0.3-6.8-1.6-9.8c-3-7.1-9-5.8-15.5-6.6c-5.2-0.5-10.5-0.3-15.7,0.3c-4.1,0.4-8,2-9.9,5.8
				c-3.2,6.6-2.3,14.7-2.1,21.8C156.4,53.7,156.5,59,159.6,62.7z M189.5,44.6c0.1,2.6-3,4.5-4.7,6.1l-6.3,5.9
				c-1.2,1.1-2.8-0.6-1.8-1.8c2.1-2.4,4.2-4.8,6.3-7.1c1.4-1.7,3-4.3,5.4-4.2C189,43.5,189.5,44,189.5,44.6L189.5,44.6z M161.8,53.6
				c6.1-9.5,13.2-18.4,21.1-26.5c2.2-2.3,5,1.5,3.2,3.2c-7.9,7.8-15.3,16.1-22.3,24.8C162.8,56.1,161,54.7,161.8,53.6z"/>
		</g>
	</g>
</g>
</svg>
