<?xml version="1.0" encoding="UTF-8"?><svg id="Layer_2" xmlns="http://www.w3.org/2000/svg" viewBox="0 0 84.36 116.4"><defs><style>.cls-1{fill:#fcee3d;}.cls-2{fill:#83f205;}</style></defs><g id="_лой_1"><g><path class="cls-1" d="M57.6,63c-7.3,4.2-10.4,13.3-11.1,15.6,1.3,.3,4.4,1,8.2,1h0c4.2,0,7.9-.9,10.9-2.6,7.3-4.2,10.4-13.3,11.1-15.6-1.3-.3-4.4-1-8.2-1-4.2,0-7.9,.9-10.9,2.6Z"/><path class="cls-2" d="M77.2,3.2c-3.2-2-6.6-3.2-8.6-3.2-.7,0-1.2,.1-1.3,.4-.2,.3-.1,1,.8,2.2,2.2,2.9,2.4,6.7,.6,9.7l-3.9,6.4-.5-.4c-6.3-4.1-13.4-6.3-20.7-6.3-8.3,0-16.3,2.8-23.2,8.1l-.5,.4-4.8-7.9c-1.8-3-1.7-6.9,.3-9.8,.6-.9,.8-1.7,.6-2.1-.2-.3-.7-.5-1.4-.5-1.9,0-5,1.1-8,2.9C1.7,6.1-.5,9.3,.1,10.3c.2,.3,.9,.5,1.7,.4h.6c3.6,0,7.1,2,9,5.2l4.7,7.8-.3,.3C8,32,3.6,42.9,3.6,53.8c0,21.7,21.1,62.6,39.9,62.6s39.9-40.8,39.9-62.6c0-12-5.2-23.5-14.2-31.7l-.3-.1,4.1-6.8c1.6-2.6,4.5-4.2,7.7-4.2,.5,0,.9,0,1.4,.1,1.1,.2,2,0,2.2-.3,.5-1-1.9-4.4-7.1-7.6ZM44.3,87.1c.1-.5,.3-1,.6-1.4,.2-.2,.9-.7,.9-.9-.4,1.5,.1,2.5,.6,3.8,.1,.2,.1,.3,.2,.5,.3,.8,1.3,2.3,.4,2.8-1.1,.6-2.1-.9-2.4-1.6-.3-1-.5-2.2-.3-3.2Zm-2.7-1.4c.3,.4,.5,.9,.6,1.4,.2,1,0,2.2-.4,3.1-.3,.7-1.3,2.2-2.4,1.6-1-.5,.1-2,.4-2.8,.1-.2,.1-.4,.2-.5,.5-1.3,1-2.3,.7-3.8,0,.3,.7,.8,.9,1ZM8.4,61.2l-.1-.6,.5-.2c.2-.1,4.1-1.3,9.1-1.3,4.4,0,8.3,.9,11.5,2.7,8.9,5,11.7,16.5,11.8,17l.1,.6-.5,.2c-.2,.1-4.1,1.3-9.1,1.3-4.4,0-8.3-.9-11.5-2.7-8.9-5.1-11.7-16.5-11.8-17Zm52.9,31.2c-.1,.9-.5,2-.8,2.5-1,2.3-2.4,4.8-4.2,6.6-3.3,3.5-7.9,6-12.8,6s-9-2.4-12.3-5.8c-1.1-1.1-8.6-11.1-3.9-11,1.6,0,2.1,2.7,2.7,3.8,.9,1.7,2.1,3.4,3.4,4.8,2.6,2.8,6.1,4.9,10,4.9s7.6-2,10.3-4.7c1.3-1.4,2.5-2.9,3.3-4.6,.5-1,1.7-4.8,3.4-4.1,.8,.2,1,.9,.9,1.6Zm16.3-31.9l.5,.2-.1,.6c-.1,.5-2.9,11.9-11.8,17-3.2,1.8-7,2.7-11.5,2.7h0c-5.1,0-9-1.2-9.1-1.3l-.5-.2,.1-.6c.1-.5,2.9-11.9,11.8-17,3.2-1.8,7-2.7,11.5-2.7,5,0,9,1.2,9.1,1.3Z"/><path class="cls-1" d="M39.8,78.6c-.7-2.4-3.7-11.5-11.1-15.6-3-1.7-6.7-2.6-10.9-2.6-3.8,0-7,.7-8.2,1,.7,2.4,3.7,11.5,11.1,15.6,3,1.7,6.7,2.6,10.9,2.6,3.8,.1,7-.6,8.2-1Z"/></g></g></svg>