<?xml version="1.0" encoding="UTF-8"?><svg id="Layer_2" xmlns="http://www.w3.org/2000/svg" viewBox="0 0 92.6 90.6"><defs><style>.cls-1{fill:#696969;}</style></defs><g id="_лой_1"><g><path class="cls-1" d="M27,26.5h0c-.3-.2-.6-.3-1-.3-2.2,0-5.6,2.6-8.3,6.3-3.6,4.9-4.5,9.6-3,10.6,.2,.2,.6,.3,1,.3,2.2,0,5.6-2.6,8.3-6.3,1.7-2.3,2.9-4.7,3.4-6.8,.5-1.9,.3-3.3-.4-3.8Z"/><path class="cls-1" d="M39.9,69.2c-1.5-1.2-3.2-1.8-4.7-1.8-1.2,0-2.2,.4-2.8,1.2-1.4,1.8-.3,5,2.4,7.2,1.5,1.2,3.2,1.8,4.7,1.8,1.2,0,2.2-.4,2.8-1.2h0c.7-.8,.8-2,.4-3.4-.5-1.4-1.5-2.8-2.8-3.8Z"/><path class="cls-1" d="M9.8,17.9c1.5,0,3.5-.9,5.1-2.4,2.4-2.3,3.5-5.3,2.3-6.5-.5-.5-1.1-.6-1.6-.6-1.5,0-3.5,.9-5.1,2.4-1.2,1.2-2.2,2.5-2.6,3.8-.4,1.2-.3,2.1,.3,2.7,.5,.5,1.1,.6,1.6,.6Z"/><path class="cls-1" d="M14.4,72.6c-3.1-2.7-6.5-4.4-8.8-4.4-.7,0-1.3,.2-1.6,.6-.9,1-.1,3.7,2.2,6.6,0,.1,.1,.1,.1,.2,.1,.2,.3,.3,.4,.5,.1,.1,.1,.2,.2,.3l.4,.4,.3,.3c.1,.2,.3,.3,.5,.5l.3,.3c.3,.2,.5,.5,.8,.7,3.1,2.7,6.5,4.4,8.8,4.4,.7,0,1.3-.2,1.6-.6,.6-.7,.4-2.1-.4-3.8-.9-2-2.6-4.1-4.8-6Z"/><path class="cls-1" d="M70.3,38.8c.4,0,.7-.1,1-.2,2-1,2-5.2,0-9.1-1.7-3.2-4.3-5.5-6.4-5.5-.4,0-.7,.1-1,.2h0c-.9,.5-1.5,1.6-1.5,3.3,0,1.8,.5,3.8,1.5,5.8,1.7,3.3,4.3,5.5,6.4,5.5Z"/><path class="cls-1" d="M67.6,9.5c3.2,1.6,6.6,2.5,9,2.5,1.5,0,2.5-.4,2.8-1,.8-1.6-2.5-5.5-8.5-8.5-3.2-1.6-6.6-2.5-9-2.5-1.4,0-2.4,.3-2.8,.9v.2c-.4,.8,.3,2.2,1.7,3.7,1.5,1.6,3.9,3.3,6.8,4.7Z"/><path class="cls-1" d="M85.9,32.9c-.7-2-.6-4.4-.6-6.6,0-3,.1-5.9-1.3-7.8-1-1.4-2.7-2.2-4.5-2.9-.2,3,.8,5.4,.8,5.5l-1.1,.5c-.1-.2-1.3-2.9-.9-6.4h0v-.1c.1-.7,.2-1.3,.4-2.1-.5,.2-1.2,.3-2.1,.3-2.6,0-6.1-1-9.6-2.7-2.9-1.4-5.5-3.2-7.2-5-.9-1-1.5-1.9-1.8-2.7-2.7,3.7-6.9,4.7-7.1,4.8l-.3-1.2s4.4-1.1,6.8-5c-1.4,.2-2.9,.7-4.5,1.3-2.2,.7-4.4,1.5-6.6,1.5s-4.4-.8-6.6-1.5c-2.1-.7-4.1-1.4-5.9-1.4-.7,0-1.3,.1-1.8,.3-2.4,.8-4.1,3.3-5.8,5.6-1,1.5-2.1,3-3.4,4.2,1.1,.4,1.9,.6,1.9,.6l-.2,1.2c-.1,0-1.2-.2-2.7-.9h-.1c-.8-.3-1.6-.8-2.5-1.5h-.1c-.1-.1-.2-.2-.3-.2,0,1.8-1.1,4-3.1,5.9-1.9,1.7-4.1,2.8-5.9,2.8h-.2c2,3,2.3,5.7,2.3,5.8l-1.2,.1s-.3-2.8-2.4-5.7c-.9,1.9-.9,4.4-.8,7,0,2.3,.1,4.6-.6,6.6-.6,1.9-2,3.7-3.3,5.5-1.8,2.3-3.6,4.8-3.6,7.4s1.8,5,3.6,7.4c1.3,1.8,2.7,3.6,3.3,5.5,0,.1,.1,.3,.1,.4h.3c0,.2,.4,3.8-1.6,7.5h0c-.1,.2-.2,.4-.3,.5h.3c2.6,0,6.2,1.8,9.6,4.7,2.3,2,4.1,4.2,5.1,6.3,.5,1.1,.8,2,.9,2.9,.3-.3,.7-.5,1-.8l.3-.2h0c3.1-2,6.3-2.1,6.4-2.1v1.2s-2.8,.1-5.6,1.8c1,1.1,1.9,2.3,2.7,3.5,1.7,2.4,3.4,4.9,5.8,5.6,.6,.2,1.1,.3,1.8,.3,1.8,0,3.8-.7,5.9-1.4,2.2-.7,4.4-1.5,6.6-1.5s4.4,.8,6.6,1.5c2.1,.7,4.1,1.4,5.9,1.4h0c.7,0,1.3-.1,1.8-.3,2.4-.8,4.1-3.3,5.8-5.6,1.3-1.8,2.6-3.7,4.3-4.9,1.7-1.2,3.9-1.9,6.1-2.6,2.9-.9,5.6-1.7,7.1-3.7,1.4-2,1.4-4.8,1.3-7.8,0-2.3-.1-4.6,.6-6.6,.6-1.9,2-3.7,3.3-5.5,1.8-2.3,3.6-4.8,3.6-7.4s-1.8-5-3.6-7.4c-1.1-2.2-2.5-4-3.1-5.9Zm-57.1-5.3c.1,.8,.1,1.9-.2,3-.6,2.2-1.8,4.8-3.6,7.2-2.7,3.7-6.1,6.3-8.6,6.7,3.2,3.3,3.6,7.3,3.7,7.5l-1.2,.1s-.6-4.9-4.8-8h0c-2.3-1.7-1.1-7.1,2.7-12.4,3-4.1,6.7-6.8,9.3-6.8,.7,0,1.2,.2,1.7,.5,4.2,3.1,9.1,2.2,9.1,2.2l.2,1.2c-.1,0-.9,.2-2.1,.2-1.6,0-3.9-.3-6.2-1.4Zm14.5,49.5c-.8,1.1-2.2,1.6-3.8,1.6-1.8,0-3.8-.8-5.5-2.1-3.3-2.6-4.5-6.6-2.6-8.9h0c3.5-4.5,3.9-8.7,3.9-8.8l1.2,.1c0,.2-.3,3.3-2.6,7.2,.4-.1,.8-.1,1.3-.1,1.8,0,3.8,.8,5.5,2.1,1.6,1.2,2.7,2.8,3.2,4.4,.2,.6,.3,1.1,.3,1.7,3.2-3.1,6.2-4.2,6.3-4.2l.4,1.2c-.1-.1-4.1,1.4-7.6,5.8Zm10.2-51.1l.3-1.2s4.6,.9,9.6-1.7h0c.5-.2,1-.4,1.6-.4,2.6,0,5.5,2.5,7.4,6.1,2.4,4.6,2.2,9.3-.5,10.7h0c-5,2.6-6.9,6.8-6.9,6.8l-1.1-.5c.1-.2,1.5-3.4,5.3-6.1-2.3-.6-4.7-2.8-6.3-6-1.1-2.1-1.7-4.4-1.6-6.4,0-.9,.2-1.6,.4-2.2-2.2,.8-4.3,1-5.7,1-1.5,.1-2.4,0-2.5-.1Zm28.3,35.8c-1,2-2.8,4.1-5,5.9-3,2.4-6.4,3.9-8.9,3.9-1.3,0-2.4-.4-3-1.2-3.5-4.4-8.4-5-8.5-5l.1-1.2c.2,0,4.1,.5,7.7,3.8,.1-.8,.3-1.7,.8-2.7,1-2,2.8-4.1,5-5.9,3-2.4,6.4-3.9,8.9-3.9,.3,0,.5,0,.8,.1-2.4-4.2-2-8.1-2-8.3l1.2,.1c0,.1-.4,5,3.1,9.4,.9,1,.9,2.8-.2,5Z"/><path class="cls-1" d="M78.9,56.6c-2.2,0-5.3,1.4-8.1,3.6-2.1,1.7-3.7,3.6-4.7,5.5-.8,1.7-1,3.1-.3,3.9,.5,.6,1.4,.8,2.1,.8,2.2,0,5.3-1.4,8.1-3.6,2.1-1.7,3.7-3.6,4.7-5.5,.8-1.7,1-3.1,.3-3.9-.5-.7-1.4-.8-2.1-.8Z"/></g></g></svg>