<?xml version="1.0" encoding="UTF-8"?><svg id="Layer_2" xmlns="http://www.w3.org/2000/svg" viewBox="0 0 119.7 118.6"><defs><style>.cls-1{fill:#e8e8e8;}.cls-2{fill:#161616;}</style></defs><g id="_лой_1"><g><path class="cls-1" d="M57.7,43.4c-1.3-.3-3.4,.3-4.3,.4-1.5,.2-3.1,.5-4.5,.9-2.8,.7-5.6,1.8-8.1,3.2-6.9,3.8-12.5,10.5-12.5,18.7,0,4.1,1.4,8.1,3.8,11.4,1.3,1.8,2.9,3.4,4.6,4.8,1.1,.9,5.8,4.9,7,3,.2-.4,.3-.8,.1-1.2-1.8-3.8-2.8-8-2.8-12.2,0-9.2,4.5-17.8,11.8-23.3,1.2-.9,2.5-1.5,3.7-2.2,.9-.5,2.7-1.2,2.4-2.4-.1-.7-.6-1-1.2-1.1Z"/><path class="cls-2" d="M60.1,34.2c-22.7,0-41.1,14.6-41.1,32.6s18.5,32.6,41.1,32.6,41.1-14.6,41.1-32.6-18.4-32.6-41.1-32.6Zm-1.4,12.8c-10.2,4.8-16.5,14.5-16.5,25.4,0,4.1,.9,8,2.6,11.7,.4,.8,.3,1.7-.1,2.4-.5,.7-1.3,1.2-2.1,1.2-.4,0-.7-.1-1.1-.3-9.1-4.5-14.5-12.2-14.5-20.7,0-13.1,13.4-23.8,30.5-24.4h.2c1.2,0,2.1,.8,2.4,1.9s-.3,2.3-1.4,2.8Z"/><path class="cls-1" d="M10,76.6c-.1-.4-.2-.7-.3-1.1-2.1-8.3-1.8-17,1.3-25-3.3,.8-5.9,2.3-7.9,5.2-2.2,3.2-3.1,7.2-3.1,11.1,0,8.9,5.2,16.2,11.5,16.2,.3,0,.5,0,.8-.1-.7-2.1-1.7-4.2-2.3-6.3Z"/><path class="cls-1" d="M99.4,12.1v22.4c0,.3,1,1.1,1.2,1.4,.5,.5,1,1.1,1.4,1.7,.9,1.1,1.5,2.4,2.4,3.5,.2-1.5,0-3.1,0-4.6V12.1l.3-.2c2.1-1.1,3.5-3.2,3.5-5.6,0-3.5-2.8-6.3-6.3-6.3s-6.3,2.8-6.3,6.3c0,2.4,1.3,4.5,3.5,5.6l.3,.2Z"/><path class="cls-1" d="M108.4,77.3c.5-1.6,.8-3.3,1.1-4.9,3.4-20.6-8.6-40.2-27.1-48.8-7-3.2-14.7-4.9-22.4-4.9-11.9,0-23.8,4-33.1,11.5-14.7,11.9-21.2,32.5-14.3,50.3,.7,1.9,1.7,3.9,2.6,5.6l-.2,.3c-.8,1.4-1.2,2.8-1.2,4.2,0,1.5,.4,2.9,1.3,4.4l.2,.3-.2,.3c-.9,1.4-1.3,2.9-1.3,4.4,0,10.3,20.8,18.6,46.3,18.6s46.3-8.4,46.3-18.6c0-1.5-.4-2.9-1.3-4.4l-.2-.3,.2-.3c.9-1.4,1.3-2.9,1.3-4.4s-.5-3-1.4-4.4l-.2-.3,.2-.3c1.5-2.6,2.6-5.4,3.4-8.3Zm-48.3,23.3c-23.4,0-42.4-15.2-42.4-33.8s19-33.8,42.4-33.8,42.4,15.2,42.4,33.8-19,33.8-42.4,33.8Z"/><path class="cls-1" d="M109,50.6q0,.1,0,0c2.6,7.6,3.5,15.8,1.6,23.6-.1,.6-2.3,8.9-2.9,8.7h.5c6.3,0,11.5-7.3,11.5-16.2s-4.7-15.5-10.7-16.1Z"/></g></g></svg>