<?xml version="1.0" encoding="utf-8"?>
<!-- Generator: Adobe Illustrator 26.0.3, SVG Export Plug-In . SVG Version: 6.00 Build 0)  -->
<svg version="1.1" id="Layer_1" xmlns="http://www.w3.org/2000/svg" xmlns:xlink="http://www.w3.org/1999/xlink" x="0px" y="0px"
	 viewBox="0 0 42 42" style="enable-background:new 0 0 42 42;" xml:space="preserve">
<style type="text/css">
	.st0{fill:#BFBFBF;}
	.st1{fill:#DBDBDB;}
	.st2{fill:#959596;}
</style>
<circle class="st0" cx="21" cy="21" r="21"/>
<g id="Layer_1-2">
	<ellipse transform="matrix(0.4263 -0.9046 0.9046 0.4263 -9.4086 16.2671)" class="st1" cx="8.1" cy="15.6" rx="5.1" ry="3.5"/>
	<ellipse transform="matrix(0.739 -0.6737 0.6737 0.739 1.7526 24.7977)" class="st2" cx="32.9" cy="10.1" rx="2.9" ry="4.6"/>
	<ellipse transform="matrix(0.9838 -0.179 0.179 0.9838 -6.0659 3.9214)" class="st2" cx="18.7" cy="35.6" rx="1.4" ry="0.6"/>
	<ellipse transform="matrix(0.6143 -0.7891 0.7891 0.6143 -10.462 28.0601)" class="st2" cx="23.5" cy="24.7" rx="0.6" ry="1"/>
	<ellipse transform="matrix(0.6143 -0.7891 0.7891 0.6143 -2.2013 21.4794)" class="st2" cx="20.9" cy="13" rx="0.3" ry="0.5"/>
	<ellipse transform="matrix(0.6292 -0.7773 0.7773 0.6292 0.5248 17.7217)" class="st2" cx="18.8" cy="8.3" rx="1" ry="0.6"/>
	<ellipse transform="matrix(0.6293 -0.7771 0.7771 0.6293 -10.2343 37.0632)" class="st2" cx="33.7" cy="29.3" rx="1.1" ry="0.7"/>
	<ellipse transform="matrix(0.8791 -0.4767 0.4767 0.8791 -14.5365 16.3583)" class="st2" cx="25" cy="36.8" rx="1.3" ry="2.1"/>
	
		<ellipse transform="matrix(1 -3.905946e-03 3.905946e-03 1 -5.061775e-02 6.455700e-02)" class="st2" cx="16.5" cy="13" rx="2.2" ry="1.4"/>
	<ellipse transform="matrix(0.7585 -0.6517 0.6517 0.7585 -7.2938 16.5582)" class="st2" cx="18.7" cy="18.1" rx="1.4" ry="0.9"/>
	<ellipse transform="matrix(0.7302 -0.6832 0.6832 0.7302 -3.4002 25.3162)" class="st1" cx="30.4" cy="17" rx="1.6" ry="1.2"/>
	<ellipse transform="matrix(0.5852 -0.8109 0.8109 0.5852 -13.1236 33.8043)" class="st2" cx="26.5" cy="29.7" rx="3.4" ry="2.1"/>
	<ellipse transform="matrix(0.6874 -0.7263 0.7263 0.6874 1.8036 20.6531)" class="st2" cx="24.9" cy="8.2" rx="1.5" ry="2.5"/>
	<ellipse transform="matrix(0.4532 -0.8914 0.8914 0.4532 3.1503 43.0328)" class="st2" cx="36.7" cy="18.9" rx="2.2" ry="1.4"/>
</g>
</svg>
