<?xml version="1.0" encoding="UTF-8"?><svg id="Layer_2" xmlns="http://www.w3.org/2000/svg" viewBox="0 0 143.03 99.5"><defs><style>.cls-1{fill:#fcee3d;}.cls-2{fill:#3bffff;}.cls-3{fill:#4aff63;}</style></defs><g id="_лой_1"><g><path class="cls-2" d="M23.27,55.8c.2,1.2,.4,2.4,.6,3.6,.2,.9,.4,1.9,.5,2.8,.1,.5,.4,1.2,.4,1.7,.6-11.6,8.8-19.3,19.9-29.5l1-.9c12.8-11.9,14.3-21.6,14.5-31.3C38.67,7.4,22.67,26.8,22.67,49.9c.1,2,.3,4,.6,5.9Z"/><path class="cls-2" d="M57.77,44.7l-.7,.5c-13,8.7-20.7,17.5-21.4,36.5,3.7-.7,8-1.9,12.7-3.7,3.9-9.2,12.1-16.3,25.8-22.5,21.8-9.7,33.1-24.9,31-41.6-.3-.3-.6-.6-1-.9l-.2-.2c-.5-.4-1-.8-1.4-1.2l-.3-.2c-.5-.4-1-.8-1.5-1.1l-.3-.2c-.5-.4-1-.7-1.5-1h0s-.1,0-.1-.1h0c-1.2-.8-2.4-1.5-3.6-2.2-3.3-1.8-6.9-3.2-10.6-4.2,3.4,21.9-13.3,33.1-26.9,42.1Z"/><path class="cls-3" d="M46.57,34.4l-1,.9c-12.4,11.5-20.6,19.1-19.4,32.4,.2,.6,.5,1.2,.8,1.8,.4,.9,.9,1.9,1.3,2.8l.3,.6c1.7,3.1,3.7,6,6,8.8,.7-19.6,8.6-28.6,21.9-37.5l.7-.5c13.3-8.9,29.9-19.9,26.4-41.5-.8-.2-1.6-.4-2.4-.5h-.1c-1-.2-2-.3-3-.5-.2,0-.4,0-.5-.1-.8-.1-1.5-.2-2.3-.2-.5,0-.9,0-1.4-.1h-4c-2.8,.1-5.5,.5-8.3,1.1-.3,10.1-1.7,20.1-15,32.5Z"/><path class="cls-3" d="M74.67,56.6c-12.9,5.7-20.8,12.4-24.7,20.7,.1-.2,1.4-.6,1.6-.7,.7-.3,1.3-.5,2-.8,1.3-.6,2.6-1.1,3.9-1.7,2.7-1.3,5.4-2.6,8.1-4,5.4-2.9,10.6-6.1,15.8-9.4,9.4-5.9,18.3-12.6,26.2-20.4,1.9-1.9,3.8-3.8,5.6-5.8,1.2-1.3,4.1-3.6,3.2-5.6-.5-1.1-1.1-2.2-1.7-3.2-1.2-2-2.5-3.9-3.9-5.7-1.1-1.5-2.5-3.6-4.1-4.6-.1,1.1,.1,2.3,0,3.5-.3,7.9-3.6,15.3-8.7,21.3-6.2,7.3-14.6,12.6-23.3,16.4Z"/><path class="cls-1" d="M126.67,0c-7.9,0-18.1,2.2-29.6,6.4,.1,0,.2,.1,.2,.1,.8,.5,1.5,.9,2.3,1.4l.1,.1c.2,.1,.3,.2,.5,.3s.4,.3,.5,.4c.2,.1,.3,.2,.5,.4l.3,.2c.5,.4,1,.8,1.5,1.1l.3,.2,.1,.1c.2,.1,.3,.3,.5,.4,.3,.3,.6,.5,.9,.8l.1,.1,.7,.7c.3,.3,.6,.5,.9,.8h.1l.1,.1c.5,.5,1,.9,1.4,1.4,0,0,.1,.1,.1,.2,.4,.4,.8,.8,1.1,1.2l.1,.1c5.8-.8,9.7,0,11.2,2.5,1.7,2.8,.2,6.5-1.2,9-2,3.6-4.5,7-7.5,9.9-2.1,2.1-4.3,4.2-6.5,6.2-3,2.7-6.4,5.6-10.2,8.4h-.1c-1.8,1.4-3.7,2.8-5.7,4.2h-.1l-.1,.1c-.8,.6-1.7,1.2-2.6,1.8-.2,.2-.5,.3-.7,.5-2,1.3-3.9,2.6-5.9,3.9-1.6,1-3.2,2-4.8,2.9-1.3,.8-2.5,1.5-3.8,2.2-2,1.1-3.9,2.2-6,3.3h-.1c-.9,.5-1.9,1-2.9,1.5-4.9,2.5-10,5-15.3,6.6-5.7,1.7-11.1,3.9-17.1,3.9-3.7,0-6.1-1-7.3-2.8-1.6-2.5-.7-6.3,2.5-11.2-.2-.4-.3-.8-.5-1.2,0,0,0-.1-.1-.1v-.1c-1.3-3.4-2.3-7-2.8-10.7v-.2c0-.1,0-.3-.1-.4-.1-.5-.1-1-.2-1.5,0-.2,0-.3-.1-.5v-.4c0-.2,0-.4-.1-.6C4.07,70.6-3.43,85.9,1.47,93.7c2.4,3.8,7.6,5.8,15.1,5.8,8.4,0,19.1-2.4,30.9-6.8,1.6-.6,3.3-1.3,5-1.9,.5-.2,1.1-.5,1.6-.7l3.6-1.5c.6-.3,1.2-.6,1.8-.8,1.2-.5,2.3-1.1,3.5-1.6,.6-.3,1.2-.6,1.8-.9,1.2-.6,2.4-1.2,3.7-1.9,4.3-2.2,8.6-4.6,12.8-7.1l.1-.1c1.6-1,3.3-2,4.9-3,1.5-.9,2.9-1.9,4.4-2.8,.3-.2,.7-.4,1-.7,4.6-3.1,9.1-6.3,13.5-9.7,2.1-1.6,4.2-3.3,6.3-5.1,1.7-1.4,3.3-2.9,5-4.3,5.4-4.9,10.5-10,15.1-15.7,10.3-12.7,13.8-23.1,9.9-29.3-2.1-3.6-7.3-5.6-14.8-5.6Z"/><path class="cls-3" d="M114.07,54.8c-2,4.2-4.2,8-6.5,11.3-2.9,4.2-5.6,7.3-7.8,9.8-5.4,6.3-7.8,9-5,17.4,.1,0,.2-.1,.2-.1,9.1-4.9,16.5-12.6,21-21.9,1.3-2.7,2.5-5.8,3.3-8.8,.1-.5,.2-1,.4-1.5,.8-3.4,1.4-7.2,1.2-10.7,0-.3-.2-1.4,0-1.6-2.1,2-4.4,4-6.8,6.1Z"/><path class="cls-3" d="M68.67,85.2c-.1-.1-.2-.1-.6,0-.6,.1-1.4,.7-1.9,1-5.3,2.7-10.7,5.1-16.2,7.3-.1,0-.2,.1-.4,.1,.7,.3,1.4,.7,2.1,1,0,0,.1,0,.1,.1l1.5,.6c.4,.1,.7,.3,1.1,.4s.8,.3,1.2,.4c.5,.2,1,.4,1.5,.5l.9,.3c.6,.2,1.3,.4,1.9,.5,.2,.1,.4,.1,.7,.2,.9,.2,1.7,.4,2.6,.5,.3,0,.5,.1,.8,.1,.6,.1,1.2,.2,1.8,.3,.5,.1,1,.1,1.5,.2,.2,0,.5,0,.7,.1-.7-2.7-.8-5.5-.4-8.3,.2-1.5,.6-2.9,1-4.4,0-.5,.2-.8,.1-.9Z"/><path class="cls-2" d="M98.87,75.1c2.1-2.5,4.8-5.5,7.7-9.7,1.8-2.6,3.5-5.5,5.2-8.7-4.7,3.9-9.7,7.7-15,11.4-.2,.1-.4,.3-.6,.4-1.2,.8-2.4,1.6-3.6,2.4-.3,.2-.7,.4-1,.7-1.4,.9-2.8,1.9-4.3,2.8-1.6,1-3.2,2-4.8,3-.6,.4-1.2,.7-1.8,1-1,.6-2,1.2-3.1,1.8-.6,.4-1.3,.7-1.9,1.1-1,.5-2,1.1-2.9,1.6-.6,.3-1.2,.6-1.8,1-.2,.1-.3,.2-.5,.3-2.2,5.3-2.7,10.2-1.3,14.8,.9,0,1.8,.1,2.7,.1,7.8,0,15.2-1.9,21.8-5.1-3-9.3-.3-12.6,5.2-18.9Z"/></g></g></svg>