<?xml version="1.0" encoding="UTF-8"?><svg id="Layer_2" xmlns="http://www.w3.org/2000/svg" viewBox="0 0 225.7 78.63"><defs><style>.cls-1{fill:#f93535;}.cls-2{fill:#fcee3d;}.cls-3{fill:#83f205;}.cls-4{fill:#3bffff;}</style></defs><g id="_лой_1"><g><path class="cls-4" d="M52.2,15.5c-23.9,0-43.5,6.7-49.9,13.1-1.5,1.5-2.3,3-2.3,4.3,0,2.5,4.5,6.8,14.5,10.7l1,.3-.3,1.3c1.5,4.2-1.9,12-4.9,18.9-1.8,4.1-3.5,8-3.5,9.8,0,1.5,2,3.1,5.1,4,5.9,1.7,13.6,.6,17.2-4.9,2.1-3.3,3.5-7.3,4.1-11.6,.4-2.9,.5-6.7-.3-11h0v-.1c-.9-4.8-2.8-10.3-6.4-16.4l-.7-1.2,58.3,.1v-12.3c-10.1-3.2-20.5-4.9-31.1-4.9-.5-.1-.6-.1-.8-.1Z"/><path class="cls-3" d="M34.1,48.9c6.1,1,12.4,1.5,18.6,1.5,10.9,0,21.4-1.5,31.1-4.5v-11.6l-55.4-.1c3,5.4,4.8,10.3,5.7,14.7Z"/><path class="cls-2" d="M13,20.6c.6-.3,1.3-.5,2-.7l.9-.3c3.9-1.4,8.4-2.5,13.3-3.5-7.2-2.6-14.5-4.3-19-4.3-2.2,0-3,.4-3.3,.6q-.1,.1-.2,.4c-.1,.6,.3,2.7,5,8.3,.4-.2,.9-.4,1.3-.5Z"/><path class="cls-1" d="M34.7,60.7c8.2-.2,11.8-2.8,12.1-8.8-4.2-.2-8.3-.6-12.5-1.3,.7,3.9,.7,7.3,.4,10.1Z"/><path class="cls-2" d="M127.1,27c-2.8-.7-5.6,.7-6.9,3.2l-.2,.4h-10.8c-2.6,0-4.9-1.1-7-2.3-3.1-1.7-6.3-3.3-9.6-4.7v19.2c3.4-1.4,6.7-3,9.8-4.7l.9-.5c2-1.1,4.1-2.3,6.6-2.3h10.1l.2,.4c1.1,2.1,3.2,3.4,5.5,3.4,1.9,0,3.6-.8,4.8-2.3s1.6-3.4,1.2-5.3c-.6-2.2-2.4-4-4.6-4.5Z"/><path class="cls-1" d="M88.2,16.1c-1.5,0-2.8,1.3-2.8,2.8v28.2c0,1.5,1.3,2.8,2.8,2.8s2.8-1.3,2.8-2.8V18.9c0-1.6-1.3-2.8-2.8-2.8Z"/><path class="cls-3" d="M216.1,8c-5.4,0-9.6,10.9-9.6,24.8s4.2,24.8,9.6,24.8,9.6-10.9,9.6-24.8-4.2-24.8-9.6-24.8Zm0,41.2c-1.3-2.7-2.8-8.2-2.8-16.4s1.6-13.7,2.8-16.4c1.3,2.7,2.8,8.2,2.8,16.4s-1.5,13.7-2.8,16.4Z"/><path class="cls-3" d="M187.2,3.8c-6.3,0-11.1,12.7-11.1,29s4.9,29,11.1,29,11.1-12.7,11.1-29c.1-16.3-4.8-29-11.1-29Zm0,50.5c-1.7-2.6-4.4-9.9-4.4-21.5s2.7-18.9,4.4-21.5c1.7,2.6,4.4,9.9,4.4,21.5s-2.7,18.9-4.4,21.5Z"/><path class="cls-3" d="M155.8,0c-7,0-12.6,14.4-12.6,32.8s5.5,32.8,12.6,32.8,12.6-14.4,12.6-32.8S162.9,0,155.8,0Zm0,58.5c-2-2.1-5.8-11-5.8-25.7s3.8-23.6,5.8-25.7c2,2.1,5.8,11,5.8,25.7,0,14.7-3.8,23.6-5.8,25.7Z"/></g></g></svg>