<?xml version="1.0" encoding="UTF-8"?><svg id="Layer_2" xmlns="http://www.w3.org/2000/svg" viewBox="0 0 56.7 197.24"><defs><style>.cls-1{fill:#f93535;}.cls-2{fill:#e8e8e8;}.cls-3{fill:#fcee3d;}.cls-4{fill:#3bffff;}</style></defs><g id="_лой_1"><g><path class="cls-1" d="M29.8,.34c-1.3-.5-2.8-.5-4.3,.3-2.5,1.4-4.5,3.9-6.1,6.2-2.5,3.6-4,7.7-5.6,11.7-2,5.2-3.5,10.5-4.6,16,5.9,3.1,12.5,4.7,19.1,4.7s13.2-1.6,19-4.6c0,0-.2-1.1-.3-1.2-1.6-6.8-3.7-13.6-6.8-19.9-1.2-2.4-2.5-4.8-4-7-1.5-2.4-3.6-5.1-6.4-6.2Z"/><path class="cls-4" d="M28.3,85.14c-3.7,0-6.6,3-6.6,6.6s3,6.6,6.6,6.6,6.6-3,6.6-6.6c.1-3.7-2.9-6.6-6.6-6.6Z"/><path class="cls-1" d="M43.2,107.04c2.3,3.4,3.5,7.5,3.5,11.7,0,3-.6,6-1.8,8.7,7.4-5.3,11.8-13.8,11.8-23,0-7.1-2.6-13.9-7.4-19.1-1.4,8.3-3.5,15.8-6.1,21.7Z"/><path class="cls-1" d="M0,104.34c0,9.3,4.4,17.7,11.8,23-1.2-2.7-1.8-5.7-1.8-8.7,0-4.2,1.2-8.3,3.5-11.7-2.6-5.9-4.7-13.4-6.1-21.8-4.8,5.4-7.4,12.1-7.4,19.2Z"/><polygon class="cls-3" points="40.1 140.04 44.2 138.34 27.8 130.94 12.5 141.04 17.6 142.14 9.9 166.24 17.5 163.94 15.9 179.64 22.7 173.24 30.8 197.24 37.1 172.94 45.9 176.14 41.1 159.74 49.7 160.04 40.1 140.04"/><path class="cls-2" d="M41.8,107.14l.1-.3c2.7-6.2,4.9-14.1,6.3-23l.2-1.2h0c1-7,1.6-14.6,1.6-22.5,0-8.8-.9-17.1-2.4-24.4-5.9,3.1-12.6,4.7-19.3,4.7s-13.4-1.6-19.4-4.7c-1.4,7.4-2.3,15.7-2.3,24.5,0,8,.6,15.6,1.6,22.5h0l.2,1.2c1.4,8.9,3.6,16.8,6.3,23l.1,.3h0c3.7,8.2,8.4,13.1,13.5,13.1s9.9-4.9,13.5-13.2h0Zm-13.5-7.6c-4.3,0-7.8-3.5-7.8-7.8s3.5-7.8,7.8-7.8,7.8,3.5,7.8,7.8c.1,4.3-3.4,7.8-7.8,7.8Zm0-23.5c-7.3,0-13.3-6-13.3-13.3s6-13.3,13.3-13.3,13.3,6,13.3,13.3-5.9,13.3-13.3,13.3Z"/><path class="cls-4" d="M28.3,50.74c-6.7,0-12.1,5.4-12.1,12.1s5.4,12.1,12.1,12.1,12.1-5.5,12.1-12.2-5.4-12-12.1-12Z"/></g></g></svg>