<?xml version="1.0" encoding="UTF-8"?><svg id="Layer_2" xmlns="http://www.w3.org/2000/svg" viewBox="0 0 91.73 138"><defs><style>.cls-1{fill:#f93535;}.cls-2{fill:#e8e8e8;}.cls-3{fill:#fcee3d;}</style></defs><g id="_лой_1"><g><path class="cls-3" d="M41.1,78.2h-.3c-.5,.1-1,.1-1.5,.1s-1,0-1.5-.1h-.3c-.4-.1-.9-.2-1.3-.3h-.2v60.1h6.6v-60.1h-.1c-.5,.2-.9,.3-1.4,.3Z"/><path class="cls-3" d="M33.9,77c-.2-.1-.3-.2-.5-.3l-.9-.6c-.1-.1-.3-.2-.4-.3-.3-.3-.7-.6-1-.9l-.3-.3c-.3-.4-.7-.8-.9-1.2h0L4.2,128.8l5.9,2.8,25-53.9c-.1,0-.1-.1-.1-.1-.3-.2-.7-.4-1.1-.6Z"/><polygon class="cls-3" points="22.2 49.9 19.6 46.6 20.6 45.9 14.1 37.8 9.1 41.8 18.2 53.2 22.2 49.9"/><rect class="cls-2" x="52.17" y="6.73" width="33" height="32.6" transform="translate(.62 47.83) rotate(-38.56)"/><path class="cls-2" d="M29.7,61.8c.1-.1,.1-.2,.2-.3l.6-.9,.1-.1-5.8-7.3h0l-1.8-2.2-2.1,1.7-3,2.4h0L0,69.4l8.2,10.3,21-16.7c0-.1,.1-.2,.1-.3,.2-.4,.3-.7,.4-.9Z"/><path class="cls-1" d="M41.3,57.7c-1.1-.2-2.3-.3-3.4-.1-.9,.1-1.8,.4-2.7,.8-2.1,1-3.9,2.8-4.8,5-.5,1.2-.8,2.5-.8,3.9,0,1.6,.4,3,1,4.4,1.4,2.8,3.9,4.7,7,5.3h.1c1.1,.2,2.1,.2,3.2,0h.1c1.4-.2,2.7-.8,3.8-1.6,.5-.3,1-.8,1.5-1.2,.7-.7,1.3-1.5,1.7-2.4,.7-1.3,1.1-2.8,1.1-4.4,0-4.8-3.3-8.7-7.8-9.7h0Z"/><path class="cls-3" d="M48.6,73.4l-.9,1.2-.3,.3-1,1c-.1,.1-.2,.2-.3,.2l-.9,.6c-.1,.1-.3,.2-.4,.2l-1.2,.6c-.1,0-.1,.1-.2,.1l25,53.8,5.9-2.8-25.7-55.2h0Z"/><path class="cls-2" d="M22.4,46.1h0l-.9,.7,1.8,2.3h0l8.3,10.4c1.5-1.5,3.5-2.6,5.6-3h.2c.3-.1,.6-.1,.9-.1,.4,0,.7-.1,1.1-.1s.7,0,1.1,.1h.3c.2,0,.5,.1,.7,.1,.1,0,.2,.1,.4,.1,.2,.1,.4,.1,.7,.2,.1,0,.2,.1,.4,.1,.1,0,.3,.1,.4,.1l17.8-14.2-13.4-16.8-25.4,20.1Z"/></g></g></svg>