<?xml version="1.0" encoding="UTF-8"?><svg id="Layer_2" xmlns="http://www.w3.org/2000/svg" viewBox="0 0 119 158.8"><defs><style>.cls-1{fill:#f93535;}.cls-2{fill:#e8e8e8;}.cls-3{fill:#fcee3d;}.cls-4{fill:#bf0040;}.cls-5{fill:#3bffff;}</style></defs><g id="_лой_1"><g><path class="cls-3" d="M73.4,78.8c-.1,0-.3,0-.4,.3l-3.4,8.4c-.3,.7-.9,1.1-1.6,1.1s-1.3-.4-1.6-1l-3.9-9.2c0-.1-.1-.2-.2-.2l-4.5-2.2c-.2-.1-.5,0-.6,.2l-3.3,6.1c-.3,.6-.9,.9-1.5,.9s-1.2-.3-1.5-.9l-2.1-3.9c-.1-.2-.3-.2-.4-.2-.2,0-.4,.1-.4,.4l-7.1,72.5c0,4.2,9.3,7.7,20.4,7.7s20.4-3.6,20.4-7.8l-7.9-71.7c0-.5-.4-.5-.4-.5Z"/><path class="cls-1" d="M116.8,40.8c-2.6,2.2-6.1,3.7-9.2,4.9-7.7,2.9-15.9,4.7-24.1,5.5-1.9,.2-3.8,.4-5.8,.6-3.8,.4-7.7,.7-11.5,.7-8.8,.1-17.5,0-26.2-.9-8.4-.8-17.1-2-25.1-4.8-2.3-.8-4.5-1.6-6.7-2.6s-4.1-2.3-6.1-3.7c3,4.5,7.2,7.9,11.6,11,5,3.4,10.3,6.3,15.8,8.8,5.4,2.5,11,4.7,16.7,6.3,4.4,1.3,9,2.5,13.6,2.6h.5c14.7,0,49.3-14.7,57.2-29.1-.2,.3-.5,.5-.7,.7Z"/><path class="cls-4" d="M88.1,18.9v.1c.3,.7,.5,1.5,.7,2.3v.1c.2,.7,.4,1.5,.5,2.3,0,.1,.1,.3,.1,.4,.1,.7,.2,1.5,.3,2.2v.4c.1,.8,.1,1.6,.1,2.3,0,.8,0,1.6-.1,2.5v.2l-.2,.2c-3.9,3.9-16,6.6-30,6.6s-26-2.6-30-6.6l-.2-.2v-.2c-.1-.9-.1-1.7-.1-2.5s0-1.6,.1-2.4v-.4c.1-.8,.2-1.5,.3-2.2,0-.1,.1-.3,.1-.4,.1-.8,.3-1.5,.5-2.2q0-.1,.1-.2c.2-.8,.4-1.5,.7-2.2v-.1C12,23.4,0,31.1,0,34.6c0,9.1,27.2,16.8,59.5,16.8s59.5-7.7,59.5-16.8c.1-3.4-12.2-11.2-30.9-15.7Z"/><path class="cls-5" d="M88.5,26.4c-.2-1.8-.5-3.6-1-5.4,0-.1,0-.2-.1-.3-.2-.8-.5-1.6-.8-2.4C82.3,7.6,71.9,0,59.7,0s-22.6,7.6-26.9,18.2c-.3,.8-.6,1.6-.8,2.4,0,.1,0,.2-.1,.2-.2,.8-.4,1.6-.6,2.5v.3c-.2,.8-.3,1.7-.4,2.5v.2c-.1,.9-.1,1.8-.1,2.7,0,.7,0,1.4,.1,2.1,3.8,3.6,15.6,6,28.9,6s25.1-2.5,28.9-6c.1-.8,.1-1.5,.1-2.1-.2-.8-.2-1.7-.3-2.6ZM54.7,11.4l-6.9,5.3c-1.9,1.5-3.1,2.8-4.5,4.5-1.4,1.8-2.7,3.7-4.1,6-.3,.5-.8,.8-1.4,.8-.5,0-1-.2-1.3-.6-.3-.4-.4-.9-.3-1.3,2.2-11.4,7.1-18.1,14.9-20.5,.6-.2,1.3-.4,2.1-.4,.3,0,.7,0,1,.1,1.4,.3,2.4,1.4,2.5,2.7,.2,1.7-1.3,2.9-2,3.4Z"/><path class="cls-2" d="M38.3,26.6c-.3,.5-1.1,.2-1-.4,1.6-8.4,5.3-16.9,14.1-19.7,.8-.3,1.7-.4,2.5-.3s1.6,.9,1.7,1.7c.1,1-.8,1.9-1.7,2.5-2.3,1.8-4.6,3.5-6.9,5.3-1.9,1.5-3.2,2.8-4.7,4.7-1.4,2.1-2.7,4.2-4,6.2Z"/></g></g></svg>