<?xml version="1.0" encoding="utf-8"?>
<!-- Generator: Adobe Illustrator 26.3.1, SVG Export Plug-In . SVG Version: 6.00 Build 0)  -->
<svg version="1.1" id="Layer_2_00000160188284056026017930000010139600565554230941_"
	 xmlns="http://www.w3.org/2000/svg" xmlns:xlink="http://www.w3.org/1999/xlink" x="0px" y="0px" viewBox="0 0 631.6 385"
	 style="enable-background:new 0 0 631.6 385;" xml:space="preserve">
<style type="text/css">
	.st0{fill:#A9A9A9;stroke:#000000;stroke-miterlimit:10;}
	.st1{fill:#C1C1C1;stroke:#000000;stroke-miterlimit:10;}
	.st2{fill:#D7D7D7;stroke:#000000;stroke-miterlimit:10;}
	.st3{fill:#F6F6F6;stroke:#000000;stroke-miterlimit:10;}
	.st4{fill:#B2B2B2;stroke:#000000;stroke-miterlimit:10;}
	.st5{fill:none;stroke:#000000;stroke-width:0.5;stroke-miterlimit:10;}
	.st6{fill:#ECECEC;stroke:#000000;stroke-width:0.5;stroke-miterlimit:10;}
	.st7{fill:none;stroke:#000000;stroke-miterlimit:10;}
</style>
<g id="Layer_1-2">
	<path class="st0" d="M192.9,345c14.8,10.6,58.6,39.3,121.5,39.5c65,0.2,110-29.9,124.5-40.5"/>
	<path class="st1" d="M1.9,218c10.8,14.8,119.1,145,312.5,144.5C506.6,362,616.8,233.1,627.9,218"/>
	<path class="st2" d="M627.9,218c-77.5,21.4-185,42.5-314,42.5c-128.5,0-235.7-21.1-313-42.5c9.9-12.4,70.4-85.4,174.3-125
		c13.4-52.8,71.4-92.5,140.9-92.5s128.8,40.6,141.3,94.4C558.2,134.8,617,205.6,626.9,218H627.9z"/>
	<path class="st3" d="M175.6,93.6c30.1,11.4,78.8,25.6,140,26c62.1,0.4,111.6-13.8,142-25l0,0.4C445,41.2,385.7,0.6,316.3,0.6
		S188.8,40.3,175.4,93.1"/>
	<g>
		<circle class="st4" cx="591.4" cy="221.5" r="4"/>
		<circle class="st4" cx="520.4" cy="236.5" r="4"/>
		<circle class="st4" cx="438.4" cy="248.5" r="4"/>
		<circle class="st4" cx="355.4" cy="254.5" r="4"/>
		<circle class="st4" cx="266.4" cy="253.5" r="4"/>
		<circle class="st4" cx="195.4" cy="248.5" r="4"/>
		<circle class="st4" cx="113.4" cy="237.5" r="4"/>
		<circle class="st4" cx="30.4" cy="219.5" r="4"/>
	</g>
	<g>
		<path class="st5" d="M179.4,80.5c10.6,4.9,24.4,10.2,41,14c15.7,3.6,29.7,4.8,41,5"/>
		<path class="st5" d="M187.4,64.5c8.3,3.9,18.7,7.9,31,11c11.6,2.9,22.2,4.4,31,5"/>
		<path class="st5" d="M197.4,50.5c5.6,2.5,12.3,5,20,7c9,2.4,17.2,3.5,24,4"/>
		<path class="st5" d="M211.4,37.5c3.3,1.1,7,2.1,11,3c4.7,1,9.1,1.6,13,2"/>
		<path class="st5" d="M225.4,26.5c2,0.3,4,0.7,6,1"/>
	</g>
	<path class="st6" d="M360.4,19.5c1-0.5,9.9,13.3,16.6,27.5c4.3,9.1,7.1,17.1,9,23.1l17.4-6c-1.7-6.2-6.8-21.1-21.1-32.9
		C374.1,24.5,365.9,21.2,360.4,19.5"/>
	<path class="st7" d="M175.4,93.5c30.1,11.4,78.8,25.6,140,26c62.1,0.4,111.6-13.8,142-25"/>
	<path class="st7" d="M148.9,104c31.3,14.6,89.6,36.9,165.8,37.2c76.5,0.3,135.3-21.7,166.8-36.2"/>
</g>
</svg>
