<?xml version="1.0" encoding="utf-8"?>
<!-- Generator: Adobe Illustrator 26.3.1, SVG Export Plug-In . SVG Version: 6.00 Build 0)  -->
<svg version="1.1" id="Layer_2_00000094615731546243496800000008367314732186224532_"
	 xmlns="http://www.w3.org/2000/svg" xmlns:xlink="http://www.w3.org/1999/xlink" x="0px" y="0px" viewBox="0 0 641.2 461.4"
	 style="enable-background:new 0 0 641.2 461.4;" xml:space="preserve">
<style type="text/css">
	.st0{stroke:#000000;stroke-width:15;stroke-miterlimit:10;}
</style>
<g id="Layer_1-2">
	<path class="st0" d="M177.1,165c1-0.2,2.1-0.1,2.8-0.7c2.3-1.8,4.5-3.7,6.6-5.6c2.4-2.1,4.6-4.4,7-6.6c2.7-2.4,5.3-5.3,8.4-7.1
		c5.8-3.4,10.6-7.7,15.5-12.4c11.9-11.4,24.6-21.9,36.9-32.9c5.2-4.6,10.1-9.6,15.3-14.2c29.6-26.2,27.7-22.5,38-33.2
		c5.4-5.6,23.3-25.1,34.5-29.3c1.4-0.5,4.9-1.3,7.7-0.2c1.3,0.5,2.1,3.9,2,5.9c-0.3,5-1.1,10-1.9,14.9c-2.4,13.4-4.9,26.7-7.4,40
		c-1.7,9.2-3.4,18.4-5,27.6c-1.1,6.1-1.7,12.3-3,18.4c-1.5,6.9-3.7,13.7-4.3,20.8c-0.2,2.9-0.1,4.3,3.2,4.5
		c10.5,0.9,21,1.9,31.5,3.2c4.2,0.5,8.4,1.8,12.6,2.7c3.6,0.8,7.3,1.3,10.8,2.1c3.8,0.9,7.8,1.6,11.4,3.2c11.1,4.8,22,9.8,33,15
		c2.2,1,4.1,2.8,5.7,4.6c0.8,0.8,1.4,2.7,1,3.6c-0.4,1-2.3,2.1-3.3,1.9c-3.1-0.5-6.2-1.3-9-2.5c-8.4-3.7-16.5-7.9-25-11.4
		c-17.6-7.2-36.1-10.9-55.1-12c-5.1-0.3-10.2-0.8-15.3-1.4c-3-0.3-4.4,0.7-5,3.9c-2.5,12.6-6.2,24.9-8.1,37.6
		c-1,6.5-3.1,13.1-7.4,26.2c-7,21.4-14.8,37.1-22,51.4c-3.8,7.7-8.7,17.3-16.2,29.6c-8.5,13.9-15.9,23.9-18.4,27.3
		c-7.9,10.5-14.2,17.9-19.2,23.2c-9.8,10.6-19.7,21.1-30.3,31c-21.6,20.2-45.4,37.5-72.4,49.9c-18.1,8.3-37.3,10.9-57,9
		c-9.3-0.9-18-3.3-26-7.3c-1.6-0.8-9.1-4.7-17.2-12.1c-6.5-6-10.6-11.8-12.6-14.8c-1.9-2.8-3.4-5.2-4.5-7.1c0,0-3.3-6.1-5.4-13.1
		c-5.7-19.5-0.2-46.7,0.8-51.8c0.2-0.9,0.3-1.6,0.5-2.5c0.6-2.7,1.4-6.7,1.8-8.1c0.7-3.1,4-16.7,10-31.5c1-2.5,2.2-5.2,4-8.5
		c1.6-2.8,3.9-5.3,5.3-8.2C38,276,46.7,266,55,255.7c5.9-7.4,13.5-13.5,20.6-19.9c5.8-5.2,12-9.9,18.2-14.7c2.5-1.9,5.1-3.8,7.8-5.3
		c19.4-11.1,36.7-20.6,36.7-20.6c7.9-3.7,18.3-8.4,32.9-12.5c3.4-1,2.4-0.6,7.2-1.9c16.5-4.5,20.8-7,36.6-11.4
		c5.8-1.6,10.6-2.8,13.1-3.4c0,0,6.7-1.6,12.7-2.8c19-3.7,71.1-0.3,80-9c1.1-1.1,1.8-2.2,1.8-2.2c0.6-3.2,1.4-7.9,2.4-13.5
		c1.8-10.2,2.9-16.1,4-22.5c2.1-12.3,1.5-10.7,3.4-20.8c2.6-14.4,5.4-28.7,7.8-43.1c1-6,1.3-12.1,1.8-18.2c0-0.5-0.5-1.6-0.8-1.6
		c-0.7-0.1-1.6,0.2-2.2,0.7c-8.2,6.6-16.5,13.1-24.6,19.9c-15.4,13.2-30.8,26.4-45.9,39.8c-13.3,11.9-26.2,24.2-39.4,36.2
		c-6.1,5.6-12.5,11-18.7,16.5c-4.2,3.8-8,8-12.5,11.4c-7.9,5.9-16.1,11.5-24.5,16.8c-4.1,2.6-8.4,1.6-10.6-1.6
		c-0.5-0.8-0.8-1.9-0.9-2.8c-0.4-2.3-0.6-4.6-0.9-6.9c0,0,0-1.2,0.1-2.4c2.4-24.4,14.3-38.1,36.1-70.1c0,0,8.4-12.2,27.3-53.7
		c0.5-1.1,2.3-7,2-14.1c-0.1-3.2-1.5-5.9-3.6-7.5c-0.9-0.6-1.5-0.7-6.3-1.8c-5.6-1.3-5.9-1.4-5.9-1.7c-0.2-1.3,6.3-5,11.7-3
		c5.4,1.9,7,8.5,7.9,11.9c1,4.1,1.2,8.9-0.6,16.1c-2,8-5.2,12-10.9,23.2c-4,7.9-8.4,15.7-12.6,23.6c-4.4,8.1-8.4,16.3-13.3,24.1
		c-8.3,13.3-15.4,27.1-21.4,41.5c-1.5,3.6-2.8,7.4-3.8,11.2c-0.4,1.7,0,3,0.8,4C170.7,166.7,176.8,165.1,177.1,165L177.1,165z
		 M14.8,384.1c0.6,4.3,1.4,7.9,2,10.4c0,0,1.2,4.5,2.7,8.3c8.9,23.6,29.6,35.8,29.6,35.8c14.4,8.4,28.2,8.8,37.5,9
		c15.1,0.4,28.2-3.3,33.9-4.8c2.7-0.7,5.5-1.3,7.9-2.5c6.3-3,12.6-6.3,18.7-9.6c3.9-2.1,7.8-4.3,11.4-6.9
		c6.5-4.5,12.9-9.3,19.2-14.1c8.1-6.1,16.2-12.2,23.9-18.7c3.7-3.1,6.6-7.3,10-10.9c3.1-3.4,6.3-6.8,9.5-10.3
		c2.4-2.7,4.9-5.4,7.3-8.1c4.9-5.6,9.9-11.1,14.8-16.7c1.7-1.9,3-3.5,3.4-4c12.1-14.4,23.7-36.4,30.3-49c4.1-7.9,7-13.8,9.2-18.5
		c2.2-4.7,4.7-10.3,7.4-16.8c5.5-13.4,3.6-10.6,12-32.9c0.3-0.9,0.5-1.3,14.1-56.3c0.1-0.5,0.5-1.9-0.3-2.8
		c-0.6-0.7-1.6-0.9-3.2-0.8c-8.2,0.6-16.4,0.8-24.6,1.7c-19.3,2.1-38.8,3.7-57.9,6.9c-15.3,2.6-30.4,6.6-45.4,11
		c-13.6,3.9-27,8.6-40.1,14c-17.8,7.3-34.9,16-50.5,27.5c-10.6,7.8-20.9,15.7-30.2,24.9c-12.3,12.2-22.8,25.5-31.3,40.5
		c-4,7-11.4,21.4-16.6,41C16.2,344.2,11.6,361.9,14.8,384.1L14.8,384.1z"/>
	<g>
		<path class="st0" d="M263.7,238.8c1.4-0.6,3.2-1.2,4.1-0.4c2,1.9-6,9.4-8.1,19.1c-2,9.6-2.6,23-1.2,34.9c1.8,15.4,6,25.6,8.8,31.3
			c5.6,11.5,12.7,19.6,20,26.8c7.4,7.4,13.9,10.5,18.7,12.9c20.9,10.5,38.7,13.3,43.6,14c24.2,3.6,42.8,1.3,56.2-0.4
			c1-0.1,25.1-3.3,46.3-9.9c5.5-1.7,8.7-2.7,11.9-3.6c4.6-1.4,7.7-2.3,8.7-2.6c10-2.9,20.3-7.8,24.9-9.9c2.9-1.4,14.7-7,30.5-16.9
			c13.5-8.5,22.5-14.2,33.3-24.1c7.2-6.6,14.7-14.5,22.1-24.6c6-8.1,10.6-15.5,13.1-19.7c11.3-18.4,16.6-28.2,21.7-42.7
			c7-19.7,11.4-41.4,6.9-65.5c-2-10.7-5-20.4-9.4-28.6c-12.4-23.6-26.5-42.7-42.5-57.6c-11.5-10.7-23.6-18.6-35.6-26.9
			c-4.5-3.1-9.4-4.6-14.1-6.4c-8.2-3.1-16.3-7.1-24.6-8.5c-12.3-2.1-24.6-3.1-37-3c-10.3,0.1-20.7,1.6-30.9,4.2
			c-9.6,2.5-19.1,7.4-28.6,11.3c-4.5,1.8-8.9,3.8-13.4,5.5c-0.6,0.2-1.6,0.4-1.9,0c-0.8-1.2,5.4-6.9,6.9-8.4
			c6.8-6.2,22.5-14.9,51.2-17.9c8.6-0.9,23-2.3,41.8,0.5c24.5,3.7,42.1,12.1,52.3,17.7c13.8,7.5,28.8,15.8,46.1,35.3
			c3.5,3.9,11.8,13.7,26.8,36.9c9.3,14.3,11.5,19,13.5,24.2c2.6,6.7,6.4,16.9,7.5,31.9c0.6,9,0.2,18.8-2.2,31.8
			c-7.6,40.4-32.6,76.8-32.6,76.8c-17.6,25.9-38.6,45-53,54.6c-3.5,2.3-12,7.8-21.5,13.3c-11,6.4-16.5,9.6-22.8,12.7
			c-3,1.5-13.2,6.4-27,10.9c-1.6,0.5-7.1,2.6-12.7,4.4c-7.4,2.4-22.7,7.3-41.9,10.2c0,0-30.7,4.8-71.6,0.1
			c-7.2-0.8-13.6-2.3-13.6-2.3c-2.7-0.6-5.4-1.4-8.2-2.3c-6.3-2-12.7-3.4-18.8-8.3c-6.6-5.4-13.8-8.6-20.3-14.2
			c-11.1-9.4-20.9-22.5-27.9-41.4c-3.2-8.6-6.9-20-6.7-34.7c0.2-16.4,5.5-34.2,5.7-35c0-0.1,0-0.1,0.1-0.2
			C259.3,241.7,261.4,240,263.7,238.8z"/>
		<path class="st0" d="M486,75.6c2.7,2.5,1.8,7.4,1.5,9.2c-2.7,18.2-5.7,36.2-8.3,54.5c-1.1,7.8-1.6,16-2.1,24.1
			c-0.8,12-1.4,24-2.1,36c-0.4,5.7-2.7,6.4-4.7,6.4c-0.6,0-1.9-4.5-1.8-6.9c0.1-9.6,0.5-19.2,1.1-28.6c0.8-13.1,1.4-26.4,3-39
			c5.1-39.4,2.9-55.9,8.8-57.2C482.5,73.7,484,74,486,75.6z"/>
	</g>
</g>
</svg>
