<?xml version="1.0" encoding="utf-8"?>
<!-- Generator: Adobe Illustrator 26.3.1, SVG Export Plug-In . SVG Version: 6.00 Build 0)  -->
<svg version="1.1" id="Layer_2_00000170979413496674648490000003158115637344078482_"
	 xmlns="http://www.w3.org/2000/svg" xmlns:xlink="http://www.w3.org/1999/xlink" x="0px" y="0px" viewBox="0 0 2143.5 668.4"
	 style="enable-background:new 0 0 2143.5 668.4;" xml:space="preserve">
<style type="text/css">
	.st0{fill:#FFFFFF;stroke:#FFFFFF;stroke-width:15;stroke-miterlimit:10;}
	.st1{fill:#FFFFFF;stroke:#FFFFFF;stroke-width:8;stroke-miterlimit:10;}
</style>
<g id="Layer_1-2">
	<g>
		<path class="st0" d="M634.2,125.6c8.2-4.9,17.3-7.3,26.7-8.1c6.5-0.6,13.2-1.7,19.6-0.9c8.8,1.1,16.6,5.1,23.2,11.5
			c5.7,5.6,12.1,10.5,15.1,18.3c0.1,0.3,0.3,0.6,0.5,0.9c3.3,6.9,3.4,7.1,8.4,1c7.6-9.5,17-16.7,27.3-23c6.2-3.8,19.2-1,19.5,8.9
			c0.2,7.4,1.1,15-0.1,22.2c-3.5,20.9,12.4,29.4,28.8,25.2c10-2.6,18-8.7,23.7-17.3c5.2-7.9,9.6-16.4,14.3-24.6
			c2-3.4,3.6-7.6,8.6-6.9c3.8,0.5,6,5.2,5.5,10.9c-0.2,2.3-0.8,4.6-1.2,6.9c-0.3,2.2-0.5,4.4-0.7,6.6c0.4,0.2,0.8,0.5,1.2,0.7
			c1.7-1.4,3.5-2.7,5.1-4.1c8-6.7,15.7-13.8,24.2-19.7c2.3-1.6,7.5-0.2,10.9,1.2c1.5,0.6,2.4,4.4,2.4,6.8
			c-0.1,6.1-1.4,12.3-1.2,18.4c0.3,9.6,2.7,18.7,10,25.8c4.9,4.7,18.5,7,24.9,4.5c3.2-1.2,6.7-1.3,10-2.2c2.8-0.7,5.6-1.8,8.4-2.7
			c7.3-2.2,13.3-6.8,19.3-11.1c2.7-1.9,5.2-5.5,5.8-8.7c1.8-9.2,6-17.2,12.6-23.2c3.1-2.8,9.2-3.3,13.9-3.2
			c3.9,0.1,6.4,9.1,3.9,13.1c-3.2,5.2-7,9.9-10.2,15.2c-1.2,1.9-1.5,4.6-1.3,6.9c0.2,2,3.8,1.7,4.6,1.7c5.1,0.1,17,2.8,37.9,8.7
			c4.8-0.3,8.5-0.3,12.1-0.9c6.6-1.1,13.1-2.6,19.7-4.1c2.1-0.5,4.1-1.5,6.2-1.8c1.7-0.2,3.5,0.4,5.3,0.6c-0.7,1.8-0.9,4.4-2.3,5.2
			c-4.3,2.8-8.9,5.2-13.6,7.3c-19.4,8.4-39.7,11.1-60.4,7.6c-6-1-11.5-5-17.4-7.2c-2.7-1-6.3-2.5-8.6-1.6
			c-12.6,5.2-28.6,14.3-34.7,29.9c-5.5,14.1-3,26.8-2,31.4c3,13.9,10,23,14.8,28.2c9.4,10.3,21.3,17.7,33.3,24.1
			c12.4,6.6,23.2,9.5,31.3,11.7c34.8,9.4,64.7,12,72.8,12.6c40.4,3.2,71.5,1.2,93.9-0.4c1.7-0.1,41.9-3,77.3-8.9
			c16.5-2.8,20.8-3.5,34.4-5.6c8.9-1.4,18-2.3,26.9-4.1c5-1,9.8-3.3,14.8-4.9c4.8-1.5,9.6-3.4,14.5-4c12.4-1.6,24.5-7.2,36.5-11.2
			c26.8-8.9,59.5-19.8,92.8-43.9c10.1-7.3,17.7-14,21.9-17.7c18.9-16.6,27.7-25.4,36.3-38.5c11.7-17.8,19-37.3,11.5-59.1
			c-3.3-9.6-8.4-18.3-15.7-25.8c-20.8-21.3-44.3-38.5-71-51.9c-19.3-9.7-39.4-16.7-59.5-24.2c-7.5-2.8-15.7-4.1-23.6-5.7
			c-13.7-2.8-27.3-6.4-41.1-7.7c-20.5-1.9-41.2-2.8-61.8-2.7c-17.2,0.1-34.6,1.4-51.7,3.8c-16.1,2.3-31.9,6.7-47.8,10.1
			c-7.5,1.6-14.9,3.4-22.3,5c-3,0.6-5-0.1-4.2-2.8c3.4-1.2,6-2,8.6-3c1.4-0.5,2.7-1.4,4.1-1.7c9.7-2.4,28.3-6.7,28.3-6.7
			c20.2-2.8,49.8-9.7,57.2-9.5c0.2,0,1.7,0.1,3.9,0.1c3.3,0.1,5.9,0.1,6.9,0.1c1.5,0,52.9,0.2,59.2,0.2c33.6,0.3,67.9,10.2,87.5,16
			c23,6.8,48.1,14.2,77.1,31.8c5.8,3.5,19.7,12.4,44.8,33.3c15.5,12.9,19.2,17.1,22.6,21.8c4.3,6,10.7,15.3,12.4,28.8
			c1.1,8.1,0.4,16.9-3.8,28.7c-12.3,35.1-41.7,59-54.6,69.2c-18.6,14.8-35,24.9-55.1,33.8c-11.2,5-22.1,11-33.5,15.5
			c-11.7,4.6-23.8,8.2-35.9,12c-18.4,5.8-27.6,8.6-38.2,11.4c-5.1,1.3-22.1,5.7-45.2,9.8c-18.7,3.3-19.2,4.4-51.2,7.5
			c-10.1,1-19.9,3.5-29.8,4.7c-14,1.6-24.5,1.9-43.9,2.1c-40.4,0.4-61.1,0.6-86-1c-13.5-0.9-24.1-2-36.6-4.2
			c-10.6-1.8-21.2-3-31.3-7.5c-11.1-4.8-23-7.8-34-12.8c-18.6-8.5-34.9-20.3-46.6-37.3c-12.2-17.7-15-36.6-5.7-56.6
			c1-2.2,2.8-4.1,4.1-6.2c0.8-1.3,1.3-2.8,2-4.2c-1.7,0-3.4-0.2-5,0.1c-4.9,0.8-9.7,2.4-14.6,2.7c-16.4,1.1-30.5-8.7-34.8-24.6
			c-2.4-8.9-3.7-18.1-5.6-27.1c-0.2-0.9-1-2.4-1.3-2.3c-1.2,0.2-2.7,0.6-3.4,1.5c-7.1,8.1-14.1,16.4-21.2,24.6
			c-3.8,4.4-7.4,9.1-11.8,12.8c-2.1,1.7-6.4,2.1-9.2,1.3c-1.5-0.4-2.1-4.5-3.1-6.9c-0.5-1.3-0.9-2.7-1.3-4.1
			c-1.4,0.5-3.3,0.6-4.3,1.6c-8.2,9.1-19.2,12.3-30.6,14.2c-9.2,1.5-24.5-7.1-28.9-15.4c-6.3-11.8-5.5-24.2-4.2-36.8
			c0.1-0.7,0.5-1.3,0.3-1.9c-0.4-2.3-1-4.6-1.5-6.9c-2.3,0.6-5,0.6-6.9,1.8c-12.4,8.3-19.2,21.2-26.9,33.4
			c-3.5,5.6-6.8,11.4-10.3,16.9c-2,3.2-8.4,5.4-10.5,3.1c-2.1-2.4-3.3-6.3-3.3-9.6c0-3.1,1.6-6.5,3.2-9.3c5.4-9.5,3-18.1-2.8-26.1
			c-7.4-10.2-17.5-16.3-30.2-17.5c-5.9-0.6-6.4,0.4-5.1,6c0.5,1.9-0.8,5-2.3,6.4c-3.4,3.2-2.8,5.6-0.3,9c6.4,8.7,8.1,19,6.1,29.1
			c-2.5,12.3-13.5,23.6-27.5,24.3c-4,0.2-8.7-4.5-9.8-9.2c-2.7-11.9-1.7-23.4,3.1-34.6c2.2-5.2,4.6-10.3,6.1-15.6
			c0.5-1.6-1.3-4.8-2.9-5.8c-2.8-1.8-4.1,0.9-4.7,3.3c-4.1,15.2-13.3,27.1-24.8,37.4c-11,9.9-23.4,17.5-37.5,22.3
			c-9.7,3.4-18.4-1.8-18.4-12.1c0-9.9,2.4-19.8,2.7-29.7c0.3-7.2,0-14.7-2-21.5c-1.9-6.4-12.4-6.9-17.4-1.7
			c-7.7,7.9-11.5,17.4-13.8,28.1c-2.2,10.5-5.1,21.1-9.7,30.8c-3.7,7.7-9.8,14.6-20.5,14.2c-5-0.2-7.3-2.6-8.5-6.6
			c-2.2-8-3-15.9-1.2-24.5c2.5-11.8,5.5-23.2,11.9-33.5c3.6-5.7,7.5-11.3,11.6-16.7c3-3.9,6.1-3.6,10.1,0.3c3.4,3.3,3.6,6.1,0,9.3
			c-11.1,10.1-16.9,23.2-21.4,37.1c-1.1,3.4-1.6,7.1-1.9,10.7c-0.1,1.7,0.8,3.5,1.2,5.3c2-0.6,4.9-0.6,5.8-1.9
			c3.1-4.6,6.1-9.5,8-14.7c4.1-11.1,6.7-22.9,11.4-33.7c5-11.3,14.9-17.5,26.9-20.1c4.3-0.9,13.4,4,15.7,8.1
			c5.3,9.3,7.3,19.2,5.8,29.8c-0.9,6.9-2,13.8-3.2,20.6c-0.8,4.5,0.7,5.5,5.3,5.6c8.4,0,14.4-4.8,20.5-8.9
			c11.6-7.8,21.6-17.3,28.3-29.9c2.2-4.1,2.3-7.6-0.3-11.6c-1.8-2.8-5.2-6.3-0.6-9.4c5.2-3.6,7.8-5.6,12.6-0.5
			C633.5,125.5,633.9,125.5,634.2,125.6L634.2,125.6z M660.3,169.4c-0.8-3.2-1.4-6.4-2.4-9.6c-0.4-1.2-1.8-3.2-2.5-3.1
			c-1.3,0.2-3.3,1.4-3.7,2.5c-2.4,7.7-4.5,15.5-6.4,23.3c-0.3,1.3,0.6,3.9,1.4,4.1c1.5,0.4,3.8,0.1,5-0.9
			C656.6,181.6,659.8,176.3,660.3,169.4L660.3,169.4z"/>
		<path class="st0" d="M248.1,251.2c1.4-0.3,3-0.2,4-1c3.3-2.5,6.3-5.2,9.4-8c3.4-3.1,6.5-6.3,9.9-9.3c3.9-3.5,7.5-7.5,11.9-10.1
			c8.2-4.8,15.1-10.9,22-17.5c16.9-16.1,34.9-31.1,52.3-46.6c7.4-6.6,14.3-13.6,21.6-20.1c42-37.2,39.3-31.8,53.9-47.2
			c7.6-8,33-35.7,48.9-41.6c2-0.8,7-1.9,10.9-0.2c1.9,0.8,3,5.5,2.9,8.4c-0.4,7.1-1.5,14.2-2.8,21.2c-3.4,18.9-7,37.8-10.4,56.7
			c-2.4,13.1-4.8,26.1-7.1,39.2c-1.5,8.7-2.4,17.5-4.3,26.1c-2.2,9.8-5.2,19.4-6.1,29.6c-0.4,4.1-0.2,6,4.5,6.4
			c14.9,1.3,29.8,2.8,44.7,4.6c6,0.7,11.9,2.6,17.8,3.8c5.1,1.1,10.3,1.8,15.4,3c5.4,1.3,11.1,2.3,16.1,4.5
			c15.7,6.8,31.3,13.9,46.7,21.2c3.1,1.5,5.8,4,8.1,6.5c1.1,1.2,2,3.8,1.5,5.1c-0.6,1.4-3.2,3-4.7,2.8c-4.3-0.7-8.8-1.8-12.8-3.6
			c-11.9-5.2-23.4-11.3-35.4-16.2c-25-10.2-51.2-15.5-78.1-17.1c-7.3-0.4-14.5-1.2-21.7-1.9c-4.2-0.4-6.2,1-7.1,5.5
			c-3.5,17.8-8.8,35.4-11.5,53.4c-1.4,9.2-4.4,18.5-10.5,37.1c-10,30.3-21,52.6-31.2,72.9c-5.5,10.9-12.4,24.5-23,42
			c-12,19.7-22.5,33.9-26.1,38.7c-11.1,14.8-20.2,25.4-27.2,33c-13.9,15.1-28,30-42.9,44c-30.6,28.7-64.3,53.2-102.7,70.8
			c-25.7,11.8-52.9,15.4-80.8,12.8c-13.2-1.2-25.5-4.7-36.8-10.4c-2.2-1.1-13-6.7-24.4-17.2c-9.2-8.5-15-16.8-17.9-21
			c-2.7-4-4.9-7.4-6.4-10.1c0,0-4.7-8.7-7.6-18.6c-8-27.7-0.3-66.3,1.2-73.5c0.3-1.3,0.5-2.3,0.7-3.5c0.8-3.8,2-9.5,2.5-11.5
			c1-4.4,5.7-23.7,14.2-44.7c1.4-3.6,3.1-7.5,5.7-12.1c2.2-4,5.5-7.5,7.5-11.7c8.1-17.2,20.4-31.5,32.1-46
			c8.4-10.5,19.1-19.2,29.2-28.2c8.2-7.4,17.1-14.1,25.8-20.9c3.5-2.8,7.2-5.4,11-7.6c27.4-15.7,52.1-29.3,52.1-29.3
			c11.2-5.2,26-12,46.6-17.8c4.9-1.4,3.4-0.8,10.2-2.7c23.4-6.4,29.4-9.9,51.8-16.2c8.2-2.3,15-4,18.6-4.8c0,0,9.5-2.2,18-3.9
			c27-5.3,100.9-0.4,113.5-12.8c1.6-1.5,2.6-3.1,2.6-3.1c1.3-6.3,2.1-12.8,3.4-19.1c0.9-4.4,2.4-8.8,3.6-13.1
			c0.2-0.8,0.5-1.5,0.6-2.3c0.5-5.5,0.6-11.1,1.4-16.5c1.4-9.8,3-19.6,4.7-29.4c3.6-20.4,7.6-40.7,11-61.2
			c1.4-8.5,1.8-17.2,2.5-25.8c0.1-0.8-0.7-2.3-1.2-2.3c-1-0.1-2.3,0.3-3.1,1c-11.7,9.4-23.5,18.6-34.8,28.3
			c-21.8,18.7-43.6,37.4-65.1,56.5c-18.9,16.9-37.2,34.3-55.8,51.4c-8.7,8-17.8,15.6-26.6,23.4c-6,5.3-11.4,11.4-17.7,16.1
			c-11.3,8.4-22.9,16.4-34.8,23.9c-5.8,3.7-11.9,2.2-15-2.3c-0.8-1.1-1.1-2.6-1.3-4c-0.5-3.3-0.9-6.5-1.3-9.8c0,0,0-1.7,0.2-3.3
			c3.5-34.6,20.2-54,51.2-99.4c0,0,11.9-17.4,38.8-76.2c0.7-1.6,3.3-9.9,2.9-20c-0.2-4.6-2.1-8.3-5.2-10.6c-1.2-0.9-2.1-1-8.9-2.5
			c-7.9-1.8-8.4-2-8.4-2.4c-0.2-1.8,9-7.1,16.6-4.3c7.6,2.8,10,12.1,11.2,16.9c1.5,5.8,1.7,12.7-0.9,22.9
			c-2.9,11.3-7.5,17-15.5,32.9c-5.7,11.3-11.9,22.3-17.9,33.4c-6.2,11.4-12,23.1-18.8,34.2c-11.7,18.8-21.8,38.4-30.4,58.8
			c-2.2,5.2-3.9,10.5-5.3,15.9c-0.6,2.4,0,4.2,1.1,5.7C239,253.6,247.7,251.3,248.1,251.2L248.1,251.2z M17.9,562
			c0.9,6.1,2,11.2,2.8,14.7c0,0,1.8,6.4,3.8,11.8c12.5,33.5,42,50.7,42,50.7c20.5,12,40,12.5,53.1,12.8c21.4,0.5,40-4.7,48.1-6.8
			c3.8-1,7.8-1.9,11.3-3.6c9-4.3,17.8-8.9,26.6-13.7c5.6-3,11.1-6.2,16.2-9.8c9.2-6.5,18.3-13.2,27.3-20
			c11.4-8.7,22.9-17.3,33.9-26.5c5.3-4.5,9.4-10.3,14.2-15.5c4.5-4.9,9-9.7,13.5-14.5c3.5-3.8,6.9-7.6,10.3-11.4
			c7-7.9,14-15.8,20.9-23.7c2.4-2.7,4.3-5,4.8-5.7c17.1-20.4,33.6-51.6,43-69.6c5.9-11.2,9.9-19.5,13-26.3
			c3.1-6.7,6.6-14.6,10.5-23.8c7.8-19,5-15,17-46.6c0.5-1.2,0.7-1.8,20-79.8c0.2-0.7,0.7-2.7-0.4-3.9c-0.8-1-2.3-1.3-4.5-1.1
			c-11.6,0.9-23.3,1.1-34.9,2.4c-27.4,2.9-55,5.3-82.1,9.8c-21.7,3.6-43.2,9.4-64.3,15.5c-19.2,5.6-38.3,12.3-56.8,19.9
			c-25.3,10.3-49.5,22.7-71.7,39c-15,11-29.6,22.2-42.9,35.4c-17.4,17.2-32.3,36.2-44.3,57.4c-5.6,9.9-16.2,30.3-23.6,58.1
			C19.8,505.3,13.4,530.4,17.9,562L17.9,562z"/>
		<path class="st1" d="M2132.6,117c4.2-0.9,6.2,0.6,6.3,4.1c0.3,7.2,0.8,14.3,0.4,21.5c-0.2,3.4-1.8,6.9-3.4,10.1
			c-9,18.2-25.5,27.2-43.7,32.9c-17.4,5.4-35.3,9.3-53.2,12.9c-9.1,1.8-18.5,1.8-27.8,2.2c-10.8,0.4-21.6,0.2-32.4,0.6
			c-2.8,0.1-5.5,1.9-8.4,2.3c-2.5,0.4-5.4,0.6-7.7-0.3c-6.7-2.8-13.2-6.3-19.8-9.4c-4.2-2-6.1-7.2-3.9-11.3c2-3.9,3.3-8.8,10.8-6.5
			c-2.5-7.1-4.4-12.8-6.8-18.3c-0.2-0.6-4.1-0.7-4.8,0.1c-8.9,12.1-18.9,23.5-31.3,31.9c-17.1,11.7-35.8,18.5-56.8,10
			c-12-4.9-15.8-14.8-16.8-26.6c-0.2-2.3-0.2-4.6-0.3-7c-0.1-3.2-1.5-4.8-4.8-5.1c-3.4-0.3-4.6,1.4-5.8,4.1
			c-3.2,7.1-6.5,14.2-10.2,21c-2.9,5.4-8.5,7.3-14,8.6c-8.1,1.9-16.3,0.9-23.1-3.5c-4.2-2.7-6.8-7.9-9.9-12
			c-0.9-1.2-1.2-2.8-2.2-3.9c-1.8-2.2-3.6-2.5-5.5,0.2c-5.9,8.1-13.8,13.9-22.9,17.9c-10,4.4-18.7,0.2-23.8-11.3
			c-2.6-5.8-2.8-5.9-8.2-2.7c-9.6,5.6-19.6,9.8-31,9.1c-8.4-0.5-12.5-3.8-14.8-12c-0.4-1.4-1.6-2.6-2.3-4c-1.2,0.8-2.5,1.4-3.4,2.5
			c-5.4,6-10.7,11.7-18.7,14.4c-8.2,2.8-15.4,0.7-20.4-6.3c-3.2-4.5-5.4-9-6.7-13.7c-0.9-3.2-3.8-15.2,1.2-28.4
			c8-21.3,31.7-33.9,39.5-29.6c8.7,4.8,10.6,6.8,10.6,6.8c2.5,2.7,5,3,8.3,0.7c1.9-1.3,5.5-1.7,7.4-0.7c1.8,1,3.2,4.4,3,6.6
			c-0.9,8.2-2.5,16.4-3.8,24.6c-0.8,5.3-1.6,10.5-2.2,15.8c-0.5,4.2,2.2,6.9,6.4,6.9c9.7,0.1,18.3-2.6,26-8.6
			c5.9-4.6,8-11.2,9.7-18.1c0.9-3.5,1.6-7.2,2.9-10.5c2.2-5.5,9.3-7.3,12.3-3c1.2,1.7,1.4,4.7,0.9,6.9c-1.5,6.7-4,13.2-5.2,20
			c-0.7,4.1-0.4,8.6,0.6,12.7c1.2,4.9,5.4,6.7,9.7,4.1c8-4.7,16.1-9.5,23.1-15.4c3.3-2.8,4.4-8.2,6.2-12.6c1.1-2.7,1.7-5.6,2.5-8.4
			c1.4-5.2,5.8-4.5,9.2-3.9c3.8,0.7,4.4,4.4,3.8,7.6c-1.1,5.7-2.7,11.3-3.9,16.9c-0.8,3.7,4.7,15,8.4,17.3
			c6.1,3.9,12.3,3.8,17.9-0.8c10.8-8.7,15.4-19.7,12.2-33.5c-0.8-3.5-2.2-7-2.7-10.5c-0.3-2,0.1-5,1.4-6.2c2.8-2.7,4-8.5,9.9-6.6
			c3.3,1.1,7.6,9.3,7.1,14.4c-0.4,4.6,0.3,8.2,4.9,10.4c4.4,2,7.2,1.3,9.1-3.1c4.7-10.8,12.9-17.8,23.3-22.8
			c2.5-1.2,14.1,0.3,15.6,2.5c3,4,2.7,8.2,0.7,13c-5.4,13.1-14.6,21.4-28.4,24.9c-8.3,2.1-10.6,13.9-4.3,20.7
			c7.4,8.1,24.9,11.2,34.8,6.3c1.5-0.7,3.6-1.3,5.1-0.8c3.5,1.1,6.2,0.2,8.7-2c5.4-4.7,11.5-8.7,16.3-13.9
			c15.2-16.6,23.8-16.3,24.4-24.7c0.2-3.6,1.4-4.7-1.9-13.1c-3.2-8.3,1.4-16.2,10.2-16.1c0.9,0,2.1,0.1,2.8,0.6
			c3.7,2.5,7.8,12.2,5.9,16.3c-3,6.6-1.7,12.8,0.4,18.9c3.2,9.2,6.8,18.4,10.5,27.4c0.8,1.9,2.9,3.5,4.8,4.5
			c7.6,4.1,15.9,4.3,24.3,4.4c6.7,0.1,10.1,0.3,12.4,0.3c43.2-1.1,84.2-12.9,94.5-17c1.6-0.6,2.7-1.1,3.1-1.4
			c4.8-3.8,9.5-7.5,14.1-11.4c1.5-1.2,2.8-2.8,3.7-4.5c3.3-6,6.9-11.9,9.4-18.2c1.4-3.5,0.9-7.8,1-11.7
			C2133.3,121.7,2132.9,119.6,2132.6,117L2132.6,117z M1615.7,158.1c-0.8,4.5,2.4,8.3,5.4,12.3c3.2,4.2,7.2,4.4,11,2
			c5.5-3.6,10.6-7.9,15.4-12.4c1-0.9,0.6-3.8,0.1-5.6c-0.6-2.3-2.9-4.6-2.6-6.6c0.5-3.3,2.1-6.6,3.9-9.6c3.1-5.1,0.5-12.7-5.2-13.2
			c-7-0.6-13.6,1.1-18.6,6.5C1618.7,138.8,1615.9,147.4,1615.7,158.1L1615.7,158.1z M1854.7,137.3c1.7,1.3,3.4,2.6,5.1,3.9
			c2.6,2.2,6.5,1.6,8.1-0.9c1.6-2.4,0.7-6.1-2.2-7.7c-0.5-0.2-3.4-1.4-6.6,0C1856,133.9,1854.9,136.8,1854.7,137.3L1854.7,137.3z"/>
		<path class="st0" d="M1313.6,66c2.8,1,4.8,1.8,6.8,2.4c4.2,1.4,3.3,4.9,2.5,7.5c-4.5,14.7-9.5,29.3-13.9,44.1
			c-1.8,6.3-2.7,13-3.6,19.5c-1.3,9.7-2.3,19.4-3.6,29.1c-0.6,4.6-4.5,5.2-7.8,5.2c-1.1,0-3.1-3.6-3-5.6c0.2-7.7,0.8-15.5,1.8-23.2
			c1.4-10.6,2.3-21.3,5.1-31.6c4.2-15.6,9.7-30.9,14.8-46.3C1312.9,66.5,1313.5,66.1,1313.6,66L1313.6,66z"/>
	</g>
</g>
</svg>
