<?xml version="1.0" encoding="utf-8"?>
<!-- Generator: Adobe Illustrator 26.3.1, SVG Export Plug-In . SVG Version: 6.00 Build 0)  -->
<svg version="1.1" id="Layer_2_00000153701994827017754860000018193514238288168331_"
	 xmlns="http://www.w3.org/2000/svg" xmlns:xlink="http://www.w3.org/1999/xlink" x="0px" y="0px" viewBox="0 0 2200.3 800.8"
	 style="enable-background:new 0 0 2200.3 800.8;" xml:space="preserve">
<style type="text/css">
	.st0{fill:#FFFFFF;}
</style>
<g id="Layer_1-2">
	<g>
		<path class="st0" d="M1600.4,418.1c-1.4,1.2-3,2.3-4.2,3.8c-8.8,10.4-17.8,20.7-26.3,31.4c-3.8,4.9-6.5,10.7-9.8,16
			c-12.4,19.3-26.1,38-36.9,58.1c-9.9,18.5-16.7,38.7-24.7,58.2c-1.8,4.3-3.1,8.8-4.5,13.2c-1.7,5-3.4,10-4.8,15.2
			c-2.3,8.9-16.8,15.6-23.9,10.9c-6.8-4.6-10.4-16.4-7.1-24.3c4.8-11.5,10.5-22.7,14.6-34.5c7.3-21.2,14.7-42.3,20-64.2
			c3.8-15.5,5.7-31.7,13.1-46.4c3.1-6.1,3.6-13.4,5.5-20.2c4.2-15,8.5-30.1,12.8-45.1c1.4-5,2.7-10.1,4.2-15.8c-2.9,0-4.7-0.5-6,0.1
			c-11.4,4.4-22.8,9-34.2,13.6c-6.9,2.8-13.9,5.5-20.7,8.7c-4.4,2.1-8.4,5.3-12.7,7.8c-1.8,1-3.8,1.7-5.6,2.6
			c-6.4,3.3-12.4,7.2-18.9,10.4c-2,1-3.6,7.6-2.3,9.8c5.5,9.3,4.8,19.6,6.6,29.5c4.8,25.4-1.1,49.6-8.7,73.6
			c-4.4,13.9-10.3,27.3-19.5,38.6c-11.2,13.8-22.2,28.2-39.5,35c-5.9,2.3-12.7,3.5-18.9,3.2c-7.3-0.4-11.4-6.8-15.1-12.6
			c-6.1-9.7-5.2-20.4-3.9-31c0.2-1.5,0.3-3,0.4-4.5c0-0.4-0.3-0.8-0.9-2.1c-2.2,2.4-4.2,4.2-5.8,6.4c-19.4,25.2-40.6,48.6-65.4,68.4
			c-22.5,17.9-47.6,31.7-74.9,41.1c-24.3,8.4-53.6-2.3-65.4-19c-11-15.5-15.5-33-14.6-51.9c0.7-14.8,3.4-29,9-42.8
			c3.8-9.2,5.8-19.1,9.1-28.5c2.2-6.3,5.2-12.2,8-18.3c6.1-13.1,14.1-25.7,18-39.4c4.8-16.7,13.8-31,22.3-45.4
			c7.6-12.9,13.4-27.3,24.9-37.8c12.1-11.1,24.2-22.3,36.6-33.1c3-2.6,7.2-4.1,11.1-5.7c6.4-2.7,11.3,1.4,16.1,4.5
			c8.3,5.5,11.8,14.7,15.8,23.2c1,2,0.6,5.8-0.7,7.6c-11.4,15.3-14.9,33.6-20.3,51.2c-1.6,5.2-2.6,10.6-3.3,16
			c-0.9,6.8-3.2,9.6-10.4,11.5c-8,2-12.6,0.7-16-5.2c-2.1-3.7-3.7-7.8-5.2-11.9c-0.5-1.4-0.3-3.3,0.2-4.8
			c4.7-13.8,9.5-27.6,14.5-41.4c1.2-3.3,3.1-6.3,4.4-9.5c1-2.4,1.5-5.1,2.2-7.6c-0.5-0.3-0.9-0.6-1.4-1c-1.8,1-3.9,1.6-5.2,3
			c-9.1,9.7-19,18.9-26.7,29.6c-9.7,13.4-18.3,27.8-26.1,42.3c-15.3,28.5-27.3,58.5-38.7,88.7c-7.4,19.6-14.5,39.7-13.2,61.1
			c0.6,9.1,3,18.4,6.5,26.8c3.1,7.6,10.2,11.6,18.8,13.2c14.2,2.7,26.4-2.5,38.1-8.9c14.4-7.9,28-17.2,42.1-25.8
			c16.8-10.3,30.1-24.5,43.4-38.7c13.8-14.8,27.5-29.9,40.9-45.1c3.6-4.1,6.1-9.1,9.2-13.6c10.2-14.9,19.6-30.1,26.8-46.7
			c2.2-5,4-10.2,5.6-15.5c0.6-1.9,0.7-4.6-0.2-6.3c-2.9-5.6-0.2-9.8,3.2-13.5c2.5-2.8,2.6-4.8,0.4-7.8c-8.1-11.1-4.9-22.5,7.8-27.8
			c7.7-3.2,15.7-4.2,24-2.6c7,1.4,13.3,1.6,19.9-2.9c5.7-3.9,13.3-4.9,19.8-7.9c7.7-3.5,15-8,22.6-11.6
			c14.8-6.9,29.5-13.9,44.6-19.9c10.3-4.1,21.2-7,32-9.7c8.4-2.1,16.4-1.3,23.2,5.4c3.8,3.8,5.6,7.9,5.9,13.2
			c0.8,11.9-4.9,21.9-8.4,32.6c-7.6,23.2-14.8,46.6-22,70c-0.5,1.7-0.7,3.5-0.1,6c1-1.2,2.2-2.4,3.1-3.7c7.4-11.4,14-23.5,22.3-34.2
			c11.4-14.7,23.5-28.9,36.5-42.1c4.4-4.5,12.4-6.2,19-7.5c3-0.6,7.6,2.4,10,5c3.2,3.6,5.4,8.4,7.4,12.9c1.1,2.6,1.4,5.8,1.2,8.7
			c-0.8,11.4-1.9,22.9-3,35c1.2-0.7,2.2-1,2.8-1.8c6.3-8.1,12.6-16.3,18.9-24.5c9.4-12.1,19.2-23.9,32-32.6c0.8-0.5,1.7-1.2,2.3-1.9
			c10-12.4,24.7-17,38.6-22.9c7.5-3.2,20.1,2.4,24.4,9.5c7.8,12.8,9.1,26.3,4.8,40.4c-4.8,15.7-10,31.4-15.2,47
			c-14.5,43.2-35.7,83.6-54.8,124.8c-6.4,13.7-12.9,27.4-19,41.3c-6.3,14.5-12.6,29-18,43.8c-3.9,10.7-6.3,22-9.5,33
			c-5,17.5-9.1,35.1-9.8,53.4c-0.6,14.4,0.2,16,14.1,14.5c7-0.8,13.8-3.3,20.5-5.7c8.1-2.9,11.5-2.7,17.3,3.8
			c2.6,2.9,4.9,6.3,6.6,9.9c3,6.3,0,13.1-6.2,16.4c-12.6,6.5-26.4,6.5-40,6.9c-5.8,0.2-11.9,0.3-17.3-1.4
			c-13.2-4.1-19.8-14.7-22.7-27.5c-3-13.1-1.3-26.2,1.4-39.2c2.3-10.9,4.8-21.7,7.3-32.6c0.5-2.3,1-4.6,1.8-6.8
			c6.7-17,13.3-34,20.5-50.8c4.1-9.6,9.2-18.7,13.9-28c0.1-0.2,0.2-0.3,0.3-0.4c5.1-12.6,10-25.2,15.4-37.7
			c4.7-10.9,9.9-21.5,14.8-32.2c6.4-14.3,12.6-28.6,18.9-43c2.5-5.8,4.9-11.7,7.4-17.5c11.4-25.5,19.4-52,25.5-79.2
			c0.8-3.5,0.6-7.3,0.9-10.9c0.3-3.2-1.4-4.7-4.2-3.6c-5.5,2.3-11.1,4.6-15.9,7.9c-21.6,14.6-38.7,33.3-52,55.7
			c-9.9,16.7-20.7,33-30.1,50c-5,9.1-8.3,19.2-11.9,29c-5.5,15-10.8,30.1-15.7,45.3c-2.5,7.9-3.4,16.3-6.3,24
			c-1.6,4.3-5.2,9.4-9.2,10.9c-5.1,1.9-11.6,2.6-16.4-3.2c-6.2-7.4-7.1-15.5-4.9-24.3c5.1-19.9,13.5-38.5,22-57.2
			c6.1-13.4,8.9-28.6,11.6-43.3c3.2-16.8,4.7-33.9,7-50.9c0.3-2.1,1.4-4.1,1.8-6.2c0.5-3,0.6-6,0.8-9
			C1601.4,418.6,1600.9,418.3,1600.4,418.1L1600.4,418.1z M1410.4,441.3c-0.5-0.4-1.1-0.8-1.6-1.2c-2.7,1.7-6.3,2.8-7.8,5.3
			c-7.2,11.7-14.6,23.4-20.3,35.9c-7.6,16.6-14.5,33.6-20,51c-4.1,12.9-5.4,26.7-7.8,40.1c-0.2,1.4,0.8,3,1.2,4.5
			c1.7-0.5,3.7-0.5,5-1.5c6.4-5.3,13-10.4,18.6-16.5c12.4-13.3,20.8-29.2,26-46.6c2.3-7.6,2.4-15.9,5.1-23.4
			C1414.5,473,1409.6,457.1,1410.4,441.3L1410.4,441.3z"/>
		<path class="st0" d="M283.4,505.1c-2.6,3.7-5.2,7.4-7.7,11.1c-13.7,20-27.2,40.2-41.2,59.9c-7.7,10.8-16.2,21.2-24.6,31.5
			c-12.7,15.5-26.9,29.5-42.5,42.1c-9.6,7.7-18.9,15.8-28.8,23.1c-17.4,12.9-36.5,22.4-58.2,26.2c-31.5,5.5-63.2-16.1-72.2-45.4
			C0,627.1-2.4,600.1,2.6,573c3-16.4,5.4-33.1,12.2-48.8c6.7-15.4,10.5-31.9,16.9-47.4c8-19.4,17-38.3,26.1-57.2
			c3.9-8.2,9.1-15.8,13.4-23.8c6.3-11.7,11.7-24,18.8-35.2c12.6-19.8,26.2-38.9,39.4-58.2c5.4-7.8,10.3-16,16.3-23.3
			c20.9-25.6,21.1-21.7,36.6-42.8c2.7-3.7,8.7-12,19.2-19.3c9.4-6.4,13.4-5.8,14.8-5.5c7.5,1.7,13.1,12.1,11.5,20.8
			c-1.2,6.4-6,10.5-7.4,11.6c-3.1,2.4-6.2,3.3-7.3,3.6c-9.4,2.8-15.2,13.5-26,24.7c-8.9,9.2-17.5,18.6-25.5,28.6
			c-9.1,11.4-17.3,23.6-25.8,35.4c-6.8,9.4-14,18.6-20.1,28.5c-10.2,16.7-20.3,33.6-29.3,51.1c-11.6,22.5-22.7,45.3-32.6,68.5
			c-11.4,27-20.5,54.9-25,84c-3.5,22.4-6.1,45,0.1,67.5c2.1,7.8,4.8,15.8,9.1,22.6c5.2,8.3,13.8,13,23.8,14
			c14.4,1.5,27.7-2,40.3-8.9c24.7-13.6,46.1-31.4,66.6-50.6c13-12.3,24.8-25.4,35.6-39.7c10.2-13.5,21.9-25.8,32.2-39.3
			c6.5-8.5,11.4-18.2,17.1-27.4c2.8-4.5,5.6-9,8.4-13.5c2.8-4.5,5.8-8.9,8.6-13.5c8-13.2,16.4-26.2,23.8-39.8
			c4.2-7.6,7.3-16,10.1-24.3c2.9-8.4,4.4-17.3,7.2-25.8c1.9-5.6,4.3-11.2,7.5-16.1c5.6-8.4,12.6-9,20.4-2.5c2.9,2.5,5.7,5.2,8,8.2
			c3.2,4.1,5.6,8,2.3,13.9c-5,8.8-9.1,18.2-13,27.5c-4.5,11-8.7,22.3-12.3,33.7c-3.3,10.5-5.7,21.2-8,31.9c-1,4.7-0.8,9.6-1.7,14.4
			c-5.4,28.9-9.1,57.9-7.4,87.3c0.9,15.1,4,30.1,13.2,42.9c2,2.8,4.2,5.7,5.7,8.8c10.2,22.1,45,32,67.1,23.1
			c15-6,29.5-12.8,42.7-22.5c13.2-9.8,27.5-18.1,40.3-28.3c12.7-10.2,24.4-21.6,36-33.1c15.4-15.2,30.3-30.9,45.2-46.6
			c4.3-4.6,7.8-10,11.8-14.8c3.5-4.1,6.2-5.7,10.3-10.8c2.4-3,4.2-5.6,6.5-9.1c3.6-5.4,6.1-9.5,6.9-10.8c5.1-8.4,9.9-13.6,15.1-21.6
			c8.2-12.4,15.2-25.9,24.6-37.3c7.2-8.8,11.2-19.4,18.1-28.2c3.6-4.6,6.1-9.9,9-15c11.4-19.9,23.1-39.7,34-59.9
			c17.8-33,35-66.2,52.3-99.5c9.3-18,13.2-28,14.8-31.6c6.4-14.6,7.6-18.4,23.2-57.9c7.8-19.8,10.6-24.6,13.6-35.3
			C801,87.9,808,76.8,808,63.5c0-7.6,2-15.1,3-22.7c0.2-1.6,0.3-3.3,0.1-5c-1-6-1.8-12.2-3.6-18c-1.9-6.1-0.1-11.1,4-14.9
			c4.3-4,13.5-3.8,18.5,0.3c4.8,4,9.4,8.5,13.1,13.5c1.5,2,1.6,6.6,0.4,8.9c-5.4,10.3-6.2,21.7-8.5,32.8
			c-4.6,21.6-10.7,42.6-19.3,62.9c-11.2,26.3-21.6,52.9-33.2,79.1c-9.9,22.4-21,44.2-31.6,66.3c-7,14.5-13.6,29.3-21.5,43.4
			c-22.5,40.2-45.2,80.4-68.6,120.1c-11.1,18.9-23.6,37.1-36.3,55c-13.7,19.4-27.9,38.5-42.6,57.2c-9.1,11.6-19.2,22.6-29.5,33.2
			c-14.9,15.5-29.7,31.1-45.7,45.3c-14.5,12.9-29.2,25.5-45.3,36.7c-19.6,13.5-40.1,24.9-62,33.8c-10.5,4.3-21.5,3.5-32.5,2.8
			c-29.9-2.2-48.7-20.8-65.5-43.1c-10.5-14-16.1-29.8-17.9-46.5c-2-18.8-2.5-37.9-2.3-56.8c0.1-12.1,2.4-24.2,3.7-36.2
			c0.2-1.8,0.2-3.6,0.3-5.3L283.4,505.1L283.4,505.1z"/>
		<path class="st0" d="M829.7,592.9c19.7-1.4,45.2-8.6,69.3-21.2c2.4-1.2,4.8-2.3,7.2-3.4c8.8-4.1,14-12.1,13.3-21.8
			c-2.9-40.6,3.1-80.1,14-119c4.3-15.5,9.1-30.9,14.1-46.2c5.4-16.6,10.5-33.4,17.5-49.3c2.9-6.5,4.2-13.5,7.5-19.7
			c8.8-16.6,17.3-33.4,26.1-50.1c1.6-3.1,3.8-5.8,5.8-8.8c7-10.6,13.6-21.5,20.9-31.9c15.9-22.6,32.2-44.9,52.9-63.4
			c0.7-0.7,1.5-1.4,2.3-1.9c10.4-6.2,20.3-13.6,31.3-18.3c12.8-5.6,26.5-6.4,40.4-1.8c13.4,4.5,22.8,13,29.4,25.1
			c0.7,1.3,1.5,2.7,1.8,4.1c2.3,12.5,5.9,24.8,4.9,37.9c-1.7,22.7-6.9,44.6-13.7,66.3c-9.6,31-20.7,61.5-35.3,90.5
			c-11.6,23-24.3,45.6-37.2,67.9c-8.1,13.9-16.8,27.7-26.6,40.4c-9.5,12.3-20.3,23.9-31.5,34.7c-13.9,13.4-28.3,26.2-43.5,38.2
			c-13.9,11-28.9,20.6-43.7,30.5c-10.6,7.2-10.2,9.8-7.7,19.3c2.3,8.5,3.4,17.3,4.9,26c1.5,8.8,5,16.8,9.2,24.7
			c9.1,17,3.4,24.1-14.3,25.6c-7.2,0.6-10.7-1.7-13.6-8.2c-3.1-7-5.1-14-5.8-21.8c-1.2-13.5-4.7-26.8-7.5-40.2
			c-0.6-2.7-1.5-5.6-5.7-3.7c-15.5,7-30.7,14.7-46.6,20.3c-20.7,7.3-42.4,10.3-64.2,5.4c-16.9-3.8-32.8-10-44.6-23.8
			c-1-1.1-2.3-1.9-3.4-2.9c-2.8-2.7-4.8-2.1-7.4,0.7c-17.5,18.3-35.4,36.2-59.4,46.2c-12.4,5.2-25.5,9.8-38.7,8.5
			c-13.5-1.3-26-7.3-33.9-19.6c-2.9-4.6-5.6-9.4-5.1-15.3c0.5-5.4,4.2-8.5,8-10.7c3.6-2.1,6.4,1.4,8.9,3.9c1.3,1.3,3,2.4,3.8,4
			c6.1,11.5,17,10.9,27.1,9.6c9.4-1.2,18.5-4.5,26.7-10.2c6.3-4.4,13.7-7.2,19.4-12.7c9.2-8.9,18.6-17.6,28-26.4
			c3-2.8,2.8-6.1,2.2-9.7c-1.8-11.5-4.2-22.9-5.1-34.4c-2.4-28.9,6-55.5,20.3-80.1c12.5-21.5,30.8-37.2,54.8-45
			c11-3.6,21.9-3.8,31.8,5c11.9,10.5,15,22.9,11.2,37.4c-5.2,19.5-12.6,38.4-23.2,55.6c-6.4,10.4-14.2,20.1-21.8,29.8
			c-10.2,12.9-20.6,25.6-31.2,38.3c-2.3,2.8-2.4,4.5,0,7.2C784.5,586.1,803.8,593.7,829.7,592.9L829.7,592.9z M943.9,516.8
			c0,8.7,0,17.3,0,26c0,4.7,1.2,5.5,5.3,3c4.2-2.6,8.2-5.7,12.2-8.6c8.6-6.2,17.9-11.7,25.8-18.7c17.5-15.6,35.5-30.5,51.6-47.7
			c12.1-12.8,5.8-8.2,33.5-42.1c0,0,12.5-15.3,21.2-30.3c4.5-7.8,7.9-15.7,7.9-15.7c0.8-1.8,1.3-3.2,1.5-3.6
			c7.6-15.5,16.3-30.5,23.7-46.1c6.1-12.9,10.3-26.7,16.6-39.5c4.2-8.5,7.8-17,9.3-26.4c0.6-3.6,3.9-6.8,4.4-10.5
			c2.5-17.2,8.8-33.8,8.8-51.5c-0.1-11.6,0.2-23.1-6.2-33.3c-5.6-8.8-13-14.5-24.1-14c-12.5,0.5-23.1,4.9-33.3,12.6
			c-19.6,14.9-35.9,32.6-49.4,53c-10.6,16.1-22,31.8-31.4,48.6c-14.2,25.5-28.3,51.2-37.5,79.2c-4.9,15-11.5,29.4-16.2,44.4
			c-4.9,15.7-8.7,31.8-12.5,47.8C949.2,467.4,944.2,491.7,943.9,516.8L943.9,516.8z M757.9,544.7c2.1-1.5,3.3-2.1,4.1-3
			c10.4-12.3,21.9-23.9,30.8-37.2c9.8-14.7,17.5-30.9,25.7-46.7c3.7-7.2,7-14.7,6.4-23.3c-0.5-7.9-6-11.3-13.4-8.5
			c-19.9,7.7-30.7,24.2-40.6,41.4c-8,13.9-11.3,29.4-13.1,45.2C756.5,523,756.1,533.2,757.9,544.7L757.9,544.7z"/>
		<path class="st0" d="M1830.4,424.7c2.3-3.1,3.4-5.6,4.1-6.3c14.9-14.7,31-27.8,50.8-35.4c4.9-1.9,10.3-2.8,15.5-3.4
			c8-0.9,14.2,3,19,9c10,12.7,12.1,26,5.1,41.4c-11.4,25.2-28.1,46.2-47.8,65.1c-5.2,5-12.5,8.1-17.2,13.5
			c-9.7,11-23,16.7-34.3,25.1c-5.8,4.3-12.4,7.6-18.7,11.4c-2.9,1.8-2,8.2,1.4,11.9c7.6,8.3,17.8,11.5,28.2,14
			c16.9,4,33.5,2.2,50.3-1.7c19.8-4.6,39.9-7.8,59.8-12c27.2-5.7,54.3-11.4,81.4-17.5c24-5.5,48-11.2,71.8-17.4
			c24.3-6.3,48.5-13.1,72.7-19.9c13.7-3.8,24.2,2.1,27.4,15.7c1.1,4.5,0.2,8.2-3,11.5c-2.2,2.2-4.3,4.6-6.8,6.6
			c-1.3,1.1-3.3,2.1-4.8,2c-14-1.5-27.6-0.9-41.1,3.7c-9.1,3.1-18.6,4.8-28,7.3c-13.8,3.6-27.6,7.4-41.5,10.8
			c-11.1,2.8-22.4,5.1-33.5,7.7c-8.1,1.9-16.2,4-24.3,5.6c-16.8,3.4-33.7,6.5-50.5,9.7c-17.6,3.4-35.2,7.4-52.9,10.2
			c-21.8,3.5-43.3,9.8-65.8,7.4c-16.5-1.7-32.2-5.8-46-15.2c-8.2-5.6-14.9-13.2-19.4-22.4c-2.2-4.6-5.6-6.9-10.6-6.9
			c-8.6,0-14.3-5-18.6-11.7c-3.4-5.4-0.5-10.9,5.8-11.6c6.3-0.7,12.9-0.8,16.3-7.5c0.8-1.5,1.6-3,2-4.5c6.3-27.7,18.5-52.6,35.9-75
			c5-6.4,6.1-9,7.8-11C1824.4,431.4,1826.9,429.4,1830.4,424.7L1830.4,424.7z M1806,512.2l1.2,1c2.8-2,5.4-4.2,8.3-6
			c19.2-12.4,36.8-26.7,52.4-43.5c11.9-12.8,24.6-25,30.1-42.3c1.2-3.8,0.7-8.2,1-12.4c-4.1,0.6-8.8,0.2-12.3,2
			c-15.3,7.8-27.4,20-38.9,32.3c-8.8,9.4-15.6,20.6-23.2,31c-0.4,0.5-0.6,1.2-0.9,1.8c-4.8,9.3-9.6,18.6-14.3,28
			C1807.9,506.6,1807.1,509.4,1806,512.2L1806,512.2z"/>
	</g>
</g>
</svg>
