    <svg id="Layer_1"  data-name="Layer 1" xmlns="http://www.w3.org/2000/svg" viewBox="0 0 76.25 40.75">

        <path class="cls-1 no_teeth oscillate" d="M75.87,17C75.24,6.1,74.5.56,73.67.56h0c-1,0-1.78,9.25-2.22,17v-.06c-.43,7.74-1.21,17-2.21,17h0c-.82,0-1.61-6.58-2.25-17.46S65.61.56,64.78.56h0c-1,0-1.78,9.25-2.2,17v-.06c-.43,7.74-1.16,17-2.21,17h0c-.83,0-1.57-5.5-2.2-16.44v0C57.54,7.14,56.52.46,55.69.46h0c-1,0-1.78,9.25-2.22,17-.63,10.94-1.37,17-2.2,17h0c-1.05,0-1.78-9.24-2.21-17v.06c-.42-7.73-1.16-17-2.2-17h0C46,.56,45.29,6.1,44.65,17S43.22,34.44,42.4,34.44h0c-1,0-1.78-9.25-2.21-17v.06C39.75,9.81,39,.58,38,.56h0C37.14.56,36.4,6.1,35.77,17s-1.37,17.48-2.2,17.48h0c-1,0-1.78-9.24-2.21-17v.06c-.42-7.73-1.16-17-2.2-17h0C28.33.56,27.59,6.1,27,17S25.52,34.44,24.7,34.44h0c-1,0-1.78-9.19-2.21-16.93h0c-.44-7.7-1.17-16.93-2.22-17h0C19.44.56,18.7,6.1,18.07,17s-1.37,17.48-2.2,17.48h0c-1,0-1.78-9.18-2.21-16.92h0c-.42-7.73-1.16-17-2.2-17h0C10.63.56,9.89,6.1,9.25,17S7.82,34.44,7,34.44H7c-1,0-1.78-9.19-2.21-16.93h0C4.35,9.81,3.62.58,2.57.56h0C1.74.56,1,6.1.37,17" transform="translate(0 -0.09)"/>
    </svg>