<svg id="Layer_1" data-name="Layer 1" xmlns="http://www.w3.org/2000/svg" viewBox="0 0 76.25 40.75"><defs><style>.cls-1{fill:none;stroke:#fff;stroke-miterlimit:10;stroke-width:0.75px;}</style></defs><path class="cls-1" d="M75.87,17C75.24,6,74.5.47,73.67.47h0c-1,0-1.78,9.29-2.22,17v-.06c-.43,7.77-1.21,17.05-2.21,17.05h0c-.82,0-1.61-6.6-2.25-17.53S65.61.47,64.78.47h0c-1,0-1.78,9.29-2.2,17.06v-.06c-.43,7.77-1.16,17.05-2.21,17.05h0c-.83,0-1.57-5.52-2.2-16.51v.17l-.05-.65C57.69,9.76,57,.49,55.91.47h0c-.82,0-1.56,6-2.19,17a30.69,30.69,0,0,1-.92,6.1c-.19,1-.44,2-.65,3a49.29,49.29,0,0,1-1.57,6c-.57,1.61-1.2,3.16-1.81,4.73-.4,1-.82,2.07-1.23,3.09h0a1.81,1.81,0,0,0,.09-.31c.28-1.08.62-2.14.82-3.25a56.26,56.26,0,0,0,.78-9.16V17.5c-.4-7.74-1.13-17-2.18-17h0c-.83,0-1.63,6.75-2.26,17.71V18c-.63,11-1.37,16.51-2.2,16.51h0c-1,0-1.78-9.28-2.21-17.05v.06c-.42-7.77-1.16-17-2.2-17.06h0C37.3.47,36.56,6,35.92,17s-1.43,17.53-2.25,17.53h0c-1,0-1.78-9.28-2.21-17v.06C31,9.76,30.29.49,29.24.47h0C28.41.47,27.67,6,27,17V27.65a57.41,57.41,0,0,0,.79,9.16c.19,1.11.53,2.17.81,3.25l.09.32h-.05l-1.21-3c-.61-1.57-1.24-3.12-1.85-4.73a51.15,51.15,0,0,1-1.56-6c-.22-1-.46-2-.66-3a32.21,32.21,0,0,1-.91-6.1v.06C22.1,9.76,21.37.49,20.32.47h0C19.49.47,18.75,6,18.12,17l-.05,1.12v-.17c-.63,11-1.37,16.51-2.2,16.51h0c-1,0-1.78-9.28-2.21-17v.06c-.42-7.77-1.16-17-2.2-17h0c-.83,0-1.57,5.55-2.21,16.48S7.82,34.39,7,34.39H7c-1,0-1.78-9.28-2.21-17v.06C4.35,9.66,3.62.39,2.57.38h0C1.74.38,1,5.93.37,16.86"/></svg>