<svg xmlns="http://www.w3.org/2000/svg" viewBox="0 0 488.04 488.04"><defs><style>.cls-1{fill:none;}.cls-2{fill:#091c2b;}.cls-3{fill:#fff;}</style></defs><g id="Layer_2" data-name="Layer 2"><g id="Layer_1-2" data-name="Layer 1"><rect class="cls-1" width="488.04" height="488.04"/><circle class="cls-2" cx="244.02" cy="244.02" r="205.51"/><path class="cls-3" d="M214.28,80A213.28,213.28,0,0,0,96.49,174c-3.74,6.3-12.62,7.46-17.55,2.05l-.48-.56c-3.41-4.24-2.29-10-.13-14.69.18-.39.64-1.32.64-1.32a213.21,213.21,0,0,1,120-97.78"/><path class="cls-3" d="M101.41,163A213.19,213.19,0,0,1,226.27,78.57c7.13-1.69,10.88-9.82,7.18-16.14-.12-.21-.25-.42-.39-.62-3-4.52-8.85-5.17-14-4.5-.42,0-1.44.21-1.44.21A213.29,213.29,0,0,0,88.55,142.9"/><path class="cls-3" d="M273.76,408.05a213.28,213.28,0,0,0,117.79-94c3.74-6.3,12.61-7.46,17.55-2.05l.48.56c3.41,4.24,2.29,10,.13,14.69-.18.39-.64,1.32-.64,1.32a213.21,213.21,0,0,1-119.95,97.78"/><path class="cls-3" d="M386.63,325a213.15,213.15,0,0,1-124.86,84.43c-7.13,1.69-10.88,9.82-7.18,16.14.12.21.25.42.39.62,3,4.52,8.85,5.17,14,4.5.43-.05,1.45-.21,1.45-.21a213.29,213.29,0,0,0,129.08-85.38"/><ellipse class="cls-3" cx="242.71" cy="238.06" rx="42.08" ry="45.31"/><ellipse class="cls-3" cx="279.63" cy="262.96" rx="33.84" ry="32.33"/><ellipse class="cls-3" cx="197.58" cy="268.76" rx="23" ry="26.53"/><rect class="cls-3" x="197.58" y="242.23" width="82.05" height="53.06"/></g></g></svg>