<?xml version="1.0" encoding="utf-8"?>
<!-- Generator: Adobe Illustrator 26.3.1, SVG Export Plug-In . SVG Version: 6.00 Build 0)  -->
<svg version="1.1" id="Layer_1" xmlns="http://www.w3.org/2000/svg" xmlns:xlink="http://www.w3.org/1999/xlink" x="0px" y="0px"
	 viewBox="0 0 1140.5 222.6" style="enable-background:new 0 0 1140.5 222.6;" xml:space="preserve">
<style type="text/css">
	.st0{font-family:'ArialMT';}
	.st1{font-size:100.49px;}
	.st2{fill:none;}
	.st3{font-family:'Chalkboard';}
	.st4{font-size:200px;}
</style>
<path d="M73.6,19.7c-0.8-1-1.6-2-2.3-3.1c-2-3.3-2.2-5.1-4.2-7.3c-0.8-1-1.8-1.8-2.9-2.4c6.1-1.2,12.2,2,14.8,7.7
	c1.3-3.8,3.6-7.1,6.7-9.6c3.8-3.1,8.6-4.8,13.5-4.9c-2.2,1.5-4.1,3.5-5.5,5.7c-1.4,2.2-1.7,3.7-3.3,7.2c-1,2.2-2.1,4.3-3.4,6.4
	c-2.1-0.2-4.2-0.2-6.4-0.2C78.2,19.1,75.9,19.4,73.6,19.7z"/>
<path d="M61.6,185c-0.6,2.3-1.1,4.7-1.6,7.2c-0.6,2.9-1.1,5.7-1.6,8.5c-2.3,2-4.6,4.2-7,6.4c-3.1,2.9-6.1,5.8-9,8.6l0.8,1
	c2.6-1.7,5.3-3.6,8-5.5c2.2-1.6,4.2-3.2,6.2-4.7c-0.4,2.5-0.8,5.1-1.1,8s-0.4,5.6-0.5,8.1l1.1,0.2c0.6-1.7,1.2-3.4,1.8-5.2
	c1.2-3.5,2.2-6.9,3.1-10.3c1.3,2.1,2.7,4.4,4.2,6.7s3.3,4.6,4.9,6.7l1-0.7c-1.1-2.5-2.2-5-3.4-7.5c-1.8-3.8-3.6-7.4-5.4-10.9
	c0.6-2.5,1.2-5,1.8-7.5c0.6-2.5,1.1-4.9,1.6-7.3c-0.9-0.2-1.8-0.5-2.8-0.8C63,185.5,62.3,185.3,61.6,185z"/>
<path d="M103.1,184.9c0.6,2.3,1.1,4.7,1.6,7.2c0.6,2.9,1.1,5.7,1.6,8.5c2.3,2,4.6,4.2,7,6.4c3.1,2.9,6.1,5.8,9,8.6l-0.8,1
	c-2.6-1.7-5.3-3.5-8-5.5c-2.2-1.6-4.2-3.2-6.2-4.7c0.5,2.5,0.9,5.1,1.1,8s0.4,5.6,0.5,8.1l-1.1,0.2c-0.6-1.7-1.2-3.4-1.8-5.2
	c-1.2-3.5-2.2-6.9-3.1-10.3c-1.3,2.1-2.7,4.4-4.2,6.7c-1.6,2.4-3.3,4.6-4.9,6.7l-1-0.7c1.1-2.5,2.2-5,3.4-7.5
	c1.8-3.8,3.6-7.4,5.4-10.9c-0.6-2.5-1.2-5-1.8-7.5c-0.6-2.5-1.1-4.9-1.6-7.3c0.9-0.2,1.8-0.5,2.8-0.8
	C101.8,185.4,102.5,185.1,103.1,184.9z"/>
<circle cx="55.5" cy="87.8" r="5.7"/>
<circle cx="109.4" cy="87.8" r="5.7"/>
<path d="M126.5,141.8c1-6.1,2.4-12.2,4.2-18.1c3.7-11.8,7.3-17,9-19.2c1.9-2.5,4-4.9,6.4-7c3.3-3.4,8.8-3.5,12.2-0.2
	c0.1,0.1,0.1,0.1,0.2,0.2c1.6,2.3,3,4.8,4.1,7.5c0.8,1.9,3.5,9.1,2.1,21c-1.5,11.2-5.6,21.9-11.9,31.3
	c-12.5,18.8-29.8,27.7-38.6,31.5c4.1-5.9,7.1-12.5,9-19.4C125.5,160.1,123.9,156.9,126.5,141.8z"/>
<path d="M38.5,142c-1-6.1-2.4-12.2-4.2-18.1c-3.7-11.8-7.3-17-9-19.2c-1.9-2.5-4-4.9-6.4-7c-3.3-3.4-8.8-3.5-12.2-0.2
	c-0.1,0.1-0.1,0.1-0.2,0.2c-1.6,2.3-3,4.9-4.1,7.5c-0.8,1.9-3.5,9.1-2.1,21c1.5,11.2,5.5,21.9,11.9,31.3
	c12.5,18.8,29.8,27.7,38.6,31.5c-4.1-5.9-7.1-12.5-9-19.4C39.5,160.3,41.1,157,38.5,142z"/>
<path d="M82.4,19.7c-35.7,0-65.1,32.5-69.1,74.3h0.2c2.4,0,4.7,0.9,6.4,2.6c2.3,2.1,4.5,4.5,6.4,7c1.7,2.2,5.3,7.5,9,19.2
	c1.8,5.9,3.2,12,4.2,18.1c2.5,15.1,1,18.3,3.4,27.6c0.5,2,1.2,4,1.9,6c22,17.9,53.6,17.8,75.5-0.2c0.7-1.9,1.4-3.9,1.9-5.9
	c2.4-9.2,0.9-12.5,3.4-27.6c1-6.1,2.4-12.2,4.2-18.1c3.7-11.8,7.3-17,9-19.2c1.9-2.5,4-4.9,6.4-7c1.7-1.7,4-2.6,6.4-2.6l0,0
	C147.5,52.2,118.1,19.7,82.4,19.7z M90.8,87.4l-8.3,12.2l-8.5-12.1L90.8,87.4z M24.8,80.3c0-13.1,10.6-23.6,23.6-23.6
	S72,67.2,72,80.3s-10.6,23.6-23.6,23.6h0C35.3,103.9,24.8,93.3,24.8,80.3z M115.7,167c-2.2,2.2-4.6,4.2-7.2,5.9
	c-15.8,10.9-36.7,10.9-52.5,0c-2.6-1.7-5-3.7-7.2-5.9c-1.1-2.7-9.9-24.9,2.1-41.9c2.5-3.6,5.7-6.6,9.4-9h43.7c3.7,2.4,6.9,5.4,9.5,9
	C125.6,142.1,116.8,164.3,115.7,167L115.7,167z M116.7,105.4c-13.1,0-23.6-10.6-23.7-23.6s10.6-23.6,23.6-23.7
	c13.1,0,23.6,10.6,23.7,23.6c0,0,0,0,0,0C140.3,94.8,129.7,105.4,116.7,105.4C116.7,105.4,116.7,105.4,116.7,105.4L116.7,105.4z"/>
<text transform="matrix(0 1.31 -1 0 762.3906 60.2002)" class="st0 st1">l</text>
<text transform="matrix(0 1.31 -1 0 439.0928 58.8208)" class="st0 st1">l</text>
<rect x="174" y="50" class="st2" width="678" height="184"/>
<text transform="matrix(1 0 0 1 174 191.7695)" class="st3 st4">CHePLe</text>
</svg>
