<?xml version="1.0" encoding="utf-8"?>
<!-- Generator: Adobe Illustrator 25.0.1, SVG Export Plug-In . SVG Version: 6.00 Build 0)  -->
<svg version="1.1" id="Layer_1" xmlns="http://www.w3.org/2000/svg" xmlns:xlink="http://www.w3.org/1999/xlink" x="0px" y="0px"
	 viewBox="0 0 800 1200" style="enable-background:new 0 0 800 1200;" xml:space="preserve">
<style type="text/css">
	.st0{fill:#231F20;stroke:#231F20;stroke-width:2.5;stroke-miterlimit:10;}
</style>
<g>
	<path d="M556.1,233c-25.6-9-75.9-20.8-130,0.4c-58.4,23-86.2,70.8-102,97.9c-10.2,17.5-36.2,66.8-36.8,133.9
		c-0.9,94.5,49,162.3,73.6,190.4c-91.2-17.9-201.8-108.2-202-237C158.7,288.1,271.8,178,401.7,178
		C460.3,178.1,514.1,198.6,556.1,233z"/>
	<path d="M556.1,233l0.2-0.5c-15-5.3-38.6-11.5-66.4-11.5c-19.7,0-41.5,3.1-63.9,12c-58.6,23.1-86.4,71-102.2,98.1
		c-10.2,17.6-36.3,66.9-36.9,134.2c0,0.8,0,1.7,0,2.5c0,93.4,49.3,160.3,73.7,188.2l0.4-0.3l0.1-0.5c-45.5-8.9-95.9-35.9-134.9-76.7
		s-66.6-95.5-66.7-159.8c0-0.1,0-0.2,0-0.3c0-65,28.2-125,72.6-168.6c44.4-43.7,105-71.1,169.7-71.1c58.5,0,112.2,20.5,154.1,54.8
		L556.1,233l0.2-0.5L556.1,233l0.3-0.4c-42.1-34.4-96-55-154.7-55c-130.1,0-243.3,110-243.3,240.7c0,0.1,0,0.2,0,0.3
		c0.1,64.6,27.9,119.5,67,160.5s89.7,68.1,135.4,77l1.4,0.3l-1-1.1c-24.3-27.8-73.5-94.5-73.5-187.5c0-0.8,0-1.7,0-2.5
		c0.6-67.1,26.6-116.2,36.7-133.7c15.8-27.1,43.5-74.8,101.8-97.7c22.3-8.8,44-11.9,63.6-11.9c27.7,0,51.1,6.2,66.1,11.5l2.7,0.9
		l-2.2-1.8L556.1,233z"/>
	<path d="M399.7,174.7v4.5c65.3,0,124.4,26.4,167.2,69.1s69.3,101.7,69.3,166.8c0,65.2-26.5,124.1-69.3,166.8S465,651,399.7,651
		s-124.4-26.4-167.2-69.1c-42.8-42.7-69.3-101.7-69.3-166.8c0-65.2,26.5-124.1,69.3-166.8s101.9-69.1,167.2-69.1V174.7v-4.5
		c-67.8,0-129.2,27.4-173.6,71.7s-71.9,105.6-71.9,173.2s27.5,128.9,71.9,173.2S331.9,660,399.7,660s129.2-27.4,173.6-71.7
		s71.9-105.6,71.9-173.2s-27.5-128.9-71.9-173.2s-105.8-71.7-173.6-71.7L399.7,174.7L399.7,174.7z"/>
	<path d="M526.1,232.9c2.5,0,4.6,2.1,4.6,4.7c0,2.6-2.1,4.7-4.6,4.7s-4.6-2.1-4.6-4.7S523.5,232.9,526.1,232.9z"/>
	<path d="M420.5,251.5c2.5,0,4.6,2.1,4.6,4.7s-2.1,4.7-4.6,4.7s-4.6-2.1-4.6-4.7S417.9,251.5,420.5,251.5z"/>
	<path d="M352.9,322.5c2.5,0,4.6,2.1,4.6,4.7s-2.1,4.7-4.6,4.7s-4.6-2.1-4.6-4.7S350.3,322.5,352.9,322.5z"/>
	<ellipse cx="319.3" cy="423.4" rx="4.6" ry="4.7"/>
	<ellipse cx="319.3" cy="534.9" rx="4.6" ry="4.7"/>
	<path d="M374.9,614.3c2.5,0,4.6,2.1,4.6,4.6s-2.1,4.6-4.6,4.6s-4.6-2.1-4.6-4.6S372.3,614.3,374.9,614.3z"/>
	<path d="M345.3,574.8c5.2,0,9.4,4.2,9.4,9.4s-4.2,9.4-9.4,9.4s-9.4-4.2-9.4-9.4S340.1,574.8,345.3,574.8z"/>
	<path d="M316.9,467.8c5.2,0,9.4,4.3,9.4,9.7s-4.2,9.7-9.4,9.7s-9.4-4.3-9.4-9.7S311.7,467.8,316.9,467.8z"/>
	<path d="M335.7,363.4c5.2,0,9.4,4.3,9.4,9.7s-4.2,9.7-9.4,9.7s-9.4-4.3-9.4-9.7S330.5,363.4,335.7,363.4z"/>
	<path d="M382.1,286.1c5.2,0,9.4,4.3,9.4,9.7s-4.2,9.7-9.4,9.7s-9.4-4.3-9.4-9.7S376.9,286.1,382.1,286.1z"/>
	<path d="M468.1,230.8c5.2,0,9.4,4.3,9.4,9.7s-4.2,9.7-9.4,9.7s-9.4-4.3-9.4-9.7S462.9,230.8,468.1,230.8z"/>
	<path d="M322,663.9c0.2-1.2,8-0.6,11.4-0.4c7.6,0.5,13.9,1.9,19.8,3.5c7.4,2,16.1,4.3,26.9,9.7c9,4.6,15.4,9.1,19.7,12.2
		c3.6,2.7,8.4,6.5,13.7,11.3c4.9-5.1,9.4-9,12.9-12c4.1-3.3,10.1-8.3,18.9-13.3c10.5-6,19-8.8,26.3-11.2c5.8-1.9,12-3.7,19.6-4.5
		c3.4-0.4,11-1.4,11.4-0.2c0.4,1.6-12.1,4.3-27.8,13c-10.4,5.7-17.9,11.8-23.2,16c-4.3,3.5-10.2,8.2-16.6,15.1
		c-5.7,6.1-13.4,15.7-20.1,29.2c-0.1,0.1-0.2,0.2-0.2,0.4c-0.1-0.2-0.1-0.3-0.3-0.5c-7.6-13.2-15.8-22.2-21.9-27.9
		c-6.8-6.5-13-11-17.5-14.2c-5.5-3.9-13.4-9.5-24.1-14.7C334.4,667.4,321.7,665.4,322,663.9z"/>
	<path d="M415.2,758.6c5.4-0.2,9.8,4.1,10,9.4c0.2,5.4-4.1,9.8-9.4,10c-5.4,0.2-9.8-4.1-10-9.4C405.6,763.2,409.8,758.7,415.2,758.6
		z"/>
	<path d="M545.9,630.3c-0.8-1,4.5-6.7,6.7-9.1c5.1-5.6,10.2-9.7,15.1-13.3c6.1-4.5,13.4-9.9,24.3-15c9.2-4.2,16.7-6.3,21.8-7.7
		c4.4-1.1,10.3-2.5,17.3-3.7c-0.9-7-1.2-13-1.3-17.6c-0.1-5.2-0.2-13.1,1.3-23.1c1.9-11.9,5-20.4,7.6-27.5
		c2.1-5.7,4.6-11.7,8.6-18.1c1.8-2.9,5.8-9.5,6.9-9c1.5,0.6-4.2,12.1-7.2,29.9c-2,11.7-1.9,21.3-1.9,28.1c0,5.6,0.1,13.1,1.5,22.4
		c1.2,8.2,3.9,20.2,10.3,33.9c0,0.1,0.1,0.3,0.2,0.5c-0.2,0-0.3-0.1-0.5-0.1c-15-2.3-27.2-1.4-35.5-0.3c-9.3,1.3-16.7,3.3-22.1,4.8
		c-6.5,1.9-15.8,4.6-26.5,9.6C556.4,622.9,546.9,631.5,545.9,630.3z"/>
	<path d="M677.5,616.3c3.2-4.3,9.3-5.2,13.6-1.9c4.3,3.2,5.2,9.3,1.9,13.6c-3.2,4.3-9.3,5.2-13.6,1.9
		C675.1,626.6,674.3,620.6,677.5,616.3z"/>
	<path d="M659,434.2c-1.3,0.1-2.4-7.6-2.9-11c-1.2-7.5-1.2-14-1-20.1c0.3-7.6,0.7-16.6,3.4-28.3c2.4-9.8,5.4-17,7.5-21.9
		c1.8-4.1,4.4-9.6,7.9-15.8c-6-3.7-10.9-7.2-14.5-9.9c-4.1-3.2-10.4-8-17.2-15.4c-8.1-8.9-12.8-16.6-16.7-23.1
		c-3.2-5.2-6.2-10.9-8.8-18c-1.1-3.2-3.8-10.4-2.8-11c1.4-0.8,6.9,10.9,18.9,24.2c7.9,8.8,15.5,14.8,20.7,19
		c4.3,3.5,10.3,8.1,18.4,12.8c7.2,4.2,18.3,9.6,32.9,13.1c0.1,0.1,0.3,0.1,0.5,0.1c-0.2,0.2-0.2,0.2-0.4,0.4
		c-11.1,10.3-18.1,20.4-22.4,27.6c-4.8,8.1-7.8,15.1-10,20.2c-2.6,6.3-6.3,15.2-9,26.7C659.7,421.4,660.5,434.1,659,434.2z"/>
	<path d="M730,322.2c-1.3-5.2,1.8-10.5,7-11.8s10.5,1.8,11.8,7s-1.8,10.5-7,11.8S731.3,327.4,730,322.2z"/>
	<path d="M575,226.4c-0.7,1-7.5-2.9-10.4-4.5c-6.6-3.7-11.7-7.8-16.3-11.7c-5.8-5-12.6-10.9-20-20.4c-6.2-8-9.9-14.9-12.4-19.5
		c-2.1-4-4.8-9.5-7.4-16.1c-6.6,2.4-12.4,4.1-16.8,5.2c-5.1,1.2-12.7,3.1-22.8,3.8c-12,0.8-21-0.3-28.5-1.3
		c-6.1-0.8-12.4-1.9-19.6-4.4c-3.2-1.1-10.5-3.5-10.4-4.7c0.3-1.6,12.8,1.4,30.7,0.3c11.8-0.7,21.2-2.9,27.8-4.4
		c5.4-1.2,12.8-3,21.5-6.4c7.8-3,18.9-8.3,30.8-17.6c0.1-0.1,0.3-0.1,0.4-0.3c0,0.2,0,0.3,0,0.5c1.1,15.1,4.7,26.8,7.6,34.7
		c3.3,8.8,7,15.5,9.6,20.4c3.3,6,8,14.4,15.3,23.7C565.4,217.8,575.9,225.1,575,226.4z"/>
	<path d="M532.9,98.3c-4.9-2.2-7.1-7.9-4.9-12.8c2.2-4.9,7.9-7.1,12.8-4.9c4.9,2.2,7.1,7.9,4.9,12.8
		C543.6,98.3,537.8,100.5,532.9,98.3z"/>
	<path d="M361.2,159.5c0.3,1.2-6.9,4.1-10,5.3c-7,2.8-13.4,4.3-19.4,5.4c-7.5,1.4-16.4,3.1-28.4,3c-10.1-0.2-17.8-1.5-23-2.5
		c-4.4-0.9-10.4-2.2-17.2-4.2c-2.2,6.7-4.5,12.2-6.4,16.4c-2.2,4.8-5.5,11.9-11.2,20.2c-6.8,9.9-13.3,16.2-18.8,21.5
		c-4.4,4.3-9.2,8.5-15.6,12.6c-2.9,1.8-9.3,6-10.2,5.1c-1.1-1.2,9.1-9.1,19.4-23.8c6.9-9.7,11-18.4,13.9-24.4
		c2.4-5,5.6-11.9,8.4-20.8c2.5-7.9,5.3-19.9,5.5-35c0-0.1,0.1-0.3,0-0.5c0.2,0.1,0.3,0.2,0.4,0.3c12.5,8.6,23.9,13.1,31.9,15.7
		c8.9,2.9,16.5,4.2,22,5.2c6.7,1.2,16.2,2.7,28.1,2.8C348.6,161.6,360.8,158,361.2,159.5z"/>
	<path d="M236,114.1c-4.8,2.5-10.6,0.6-13.1-4.1c-2.5-4.8-0.6-10.6,4.1-13.1s10.6-0.6,13.1,4.1C242.6,105.8,240.7,111.6,236,114.1z"
		/>
	<path d="M176,285.1c1.2,0.5-1.1,7.9-2.1,11.2c-2.2,7.2-5,13.1-7.8,18.5c-3.6,6.7-7.8,14.7-15.4,24c-6.5,7.8-12.3,13-16.3,16.4
		c-3.4,2.9-8.2,6.8-14,10.8c3.8,5.9,6.7,11.2,8.8,15.3c2.3,4.7,5.9,11.7,8.8,21.4c3.5,11.5,4.4,20.5,5.1,28.1
		c0.6,6.1,0.9,12.5,0.1,20.1c-0.4,3.4-1.1,11-2.3,11.2c-1.6,0.1-1.5-12.8-6.5-30c-3.3-11.4-7.5-20.1-10.4-26.1
		c-2.4-5-5.8-11.8-11.1-19.6c-4.7-6.9-12.3-16.5-24-26.1c-0.1-0.1-0.2-0.2-0.4-0.3c0.2-0.1,0.3-0.1,0.5-0.2
		c14.5-4.4,25.1-10.5,32.1-15.2c7.8-5.2,13.6-10.2,17.8-13.9c5.1-4.5,12.2-11,19.7-20.2C169.7,296.3,174.5,284.4,176,285.1z"/>
	<path d="M64.6,355.2c-1,5.3-6.1,8.7-11.4,7.6c-5.3-1-8.7-6.1-7.6-11.4c1-5.3,6.1-8.7,11.4-7.6C62.2,344.8,65.6,349.9,64.6,355.2z"
		/>
	<path d="M157.2,509.2c1.1-0.6,5.5,5.8,7.4,8.6c4.3,6.2,7.2,12.1,9.6,17.7c3,7,6.6,15.3,9.2,27c2.1,9.9,2.5,17.7,2.7,23
		c0.1,4.5,0.2,10.6-0.3,17.7c7,0.7,12.9,1.7,17.4,2.6c5.1,1.1,12.8,2.7,22.2,6.4c11.2,4.5,18.8,9.4,25.1,13.6
		c5.1,3.3,10.3,7.1,15.7,12.5c2.4,2.4,8,7.7,7.3,8.8c-0.9,1.3-10.9-6.8-27.5-13.6c-11-4.5-20.4-6.6-26.9-8.1
		c-5.4-1.2-12.8-2.9-22.2-3.5c-8.3-0.7-20.6-0.7-35.4,2.5c-0.1,0-0.3,0-0.5,0.1c0.1-0.2,0.1-0.3,0.2-0.5c5.6-14.1,7.5-26.2,8.2-34.6
		c0.8-9.4,0.5-17,0.2-22.6c-0.4-6.8-0.9-16.4-3.5-28C162.1,521.1,155.8,509.9,157.2,509.2z"/>
	<path d="M141.5,640.9c3.5,4.1,3,10.2-1.1,13.7s-10.2,3-13.7-1.1s-3-10.2,1.1-13.7C131.9,636.3,138,636.8,141.5,640.9z"/>
	<path class="st0" d="M97.4,850.2c0,13.6,4.2,24.8,12.7,33.6c8.4,8.9,19.8,13.3,34.1,13.3c10.9,0,19.9-1.1,27.1-3.3l-1.5,8.4
		c-2.2,0.7-5.6,1.4-10.2,2c-4.6,0.7-9.5,1-14.6,1c-18.7,0-32.8-4.9-42.2-14.6c-9.4-9.8-14.1-21.8-14.1-36.2c0-7.6,0.9-14.7,2.8-21.2
		s4.7-12.5,8.4-17.8c8.9-11.5,20.3-17.2,34.3-17.2c12.6,0,22.3,4,29.3,12.1c7,8,10.4,18,10.4,29.8c0,3.8-0.1,6.9-0.4,9.2L97.4,850.2
		z M98,842.8h66.4c0-11.8-2.6-20.9-7.7-27.3c-5.2-6.4-12.8-9.6-22.9-9.6c-9.4,0-17.3,3.1-23.7,9.4C103.7,821.6,99.7,830.7,98,842.8z
		"/>
	<path class="st0" d="M97.4,850.2h-1c0,13.8,4.3,25.3,12.9,34.3c8.6,9.1,20.3,13.6,34.9,13.6c10.9,0,20.1-1.1,27.4-3.3l-0.3-1
		l-1-0.2l-1.5,8.4l1,0.2l-0.3-1c-2.1,0.7-5.4,1.3-10,2c-4.5,0.7-9.4,1-14.5,1c-9.3,0-17.3-1.2-24.2-3.6c-6.9-2.4-12.6-6-17.2-10.7
		c-9.2-9.6-13.8-21.3-13.9-35.5c0-7.5,0.9-14.5,2.8-20.9c1.8-6.4,4.6-12.3,8.3-17.6l-0.8-0.6l0.8,0.6c4.4-5.6,9.3-9.8,14.9-12.6
		s11.8-4.2,18.6-4.2c6.2,0,11.6,1,16.4,2.9c4.7,2,8.8,4.9,12.2,8.8c6.8,7.9,10.2,17.5,10.2,29.2c0,3.8-0.1,6.9-0.4,9.1l1,0.1v-1
		l-77.1,0.9v1L97.4,850.2v0.9l77-0.8l0.1-0.9c0.3-2.4,0.4-5.5,0.4-9.4c0-12-3.6-22.2-10.7-30.5c-3.6-4.1-7.9-7.3-12.9-9.3
		c-5-2.1-10.7-3.1-17.1-3.1c-7.1,0-13.6,1.5-19.5,4.4s-11.1,7.4-15.6,13.2l0,0l0,0c-3.8,5.5-6.7,11.5-8.6,18.1s-2.8,13.8-2.8,21.5
		c0,14.6,4.8,26.9,14.4,36.9c4.8,5,10.8,8.8,18,11.2c7.2,2.5,15.5,3.7,24.9,3.7c5.2,0,10.1-0.3,14.8-1c4.6-0.7,8-1.4,10.3-2.1
		l0.6-0.2l1.9-10.6l-1.6,0.5c-7.1,2.1-16,3.2-26.8,3.2c-14.1,0-25.2-4.3-33.4-13s-12.4-19.6-12.4-33h-1v1
		C97.4,850.9,97.4,850.2,97.4,850.2z M98,842.8v1h67.4v-1c0-12-2.6-21.3-8-27.9c-2.7-3.3-6-5.8-10-7.5s-8.5-2.5-13.7-2.5
		c-9.6,0-17.8,3.2-24.4,9.7s-10.7,15.8-12.4,28l-0.2,1.1H98V842.8l1,0.1c1.7-11.9,5.6-20.8,11.8-26.9c6.2-6.1,13.8-9.1,23-9.1
		c4.9,0,9.2,0.8,12.9,2.3s6.7,3.8,9.2,6.9c5,6.1,7.5,15,7.5,26.7h1v-1H98V842.8l1,0.1L98,842.8z"/>
	<path class="st0" d="M213.2,813.1h0.4c3.2-4,8-7.3,14.3-9.9c6.3-2.6,13.6-3.9,21.9-3.9c13.4,0,23.9,5,31.6,14.9
		s11.5,21.5,11.5,34.8c0,16.3-4.6,29.8-13.7,40.4c-9.1,10.6-21.1,16-35.9,16c-6.8,0-12.7-0.7-17.5-2s-8.3-2.9-10.4-4.7h-0.8
		c0,21.6,0.2,39,0.6,52.1h-11.4c0.4-9,0.7-19.4,0.7-31.1c0.1-11.7,0.1-24.2,0.1-37.6v-19.5c0-14.7-0.2-26.6-0.5-35.6
		c-0.4-9-1.1-17-2.3-23.9l10-2.2L213.2,813.1z M272.8,818.9c-6.6-7.5-15.7-11.2-27.3-11.2c-7.1,0-13.4,1.4-18.9,4.1
		c-5.5,2.8-10.1,6.4-13.8,10.9c0,6.9,0.2,15.6,0.5,26.4l0.3,20.8c0.1,8.7,0.2,15.5,0.2,20.6c3.3,2.4,7.4,4.2,12.2,5.5
		s10,1.9,15.5,1.9c13,0,23.1-4.3,30.3-13c7.2-8.6,10.9-20.2,10.9-34.6C282.8,836.8,279.5,826.3,272.8,818.9z"/>
	<path class="st0" d="M213.2,813.1v1h0.4h0.5l0.3-0.4c3.1-3.8,7.7-7,13.9-9.6c6.1-2.5,13.3-3.8,21.5-3.8c6.6,0,12.4,1.2,17.5,3.6
		c5.1,2.4,9.5,6,13.3,10.8c7.5,9.7,11.3,21.1,11.3,34.2c0,16.1-4.5,29.3-13.5,39.8c-4.5,5.2-9.6,9.1-15.5,11.7
		c-5.8,2.6-12.4,3.9-19.7,3.9c-6.8,0-12.5-0.7-17.3-2s-8.1-2.9-10-4.5l-0.3-0.2h-1.2h-1v1c0,21.6,0.2,39,0.6,52.1h1v-1h-11.4v1h1
		c0.4-9,0.7-19.4,0.7-31.1c0.1-11.7,0.1-24.2,0.1-37.6v-19.5c0-14.7-0.2-26.6-0.5-35.6c-0.4-9.1-1.1-17.1-2.3-24.1l-1,0.2l0.2,1
		l8.9-2l1.6,12.1h0.9L213.2,813.1l1-0.1l-1.7-13.4l-12,2.7l0.2,0.9c1.2,6.9,2,14.8,2.3,23.8c0.4,9,0.5,20.9,0.5,35.6V882
		c0,13.4,0,25.9-0.1,37.6c-0.1,11.7-0.3,22-0.7,31v1h13.5v-1c-0.4-13.1-0.6-30.4-0.6-52h-1v1h0.8v-1l-0.7,0.8
		c2.3,2,5.9,3.6,10.8,4.9c5,1.4,10.9,2,17.8,2c7.5,0,14.4-1.4,20.5-4.1c6.1-2.7,11.5-6.8,16.2-12.2c9.3-10.8,14-24.6,14-41.1
		c0-13.5-3.9-25.3-11.7-35.4c-3.9-5.1-8.6-8.9-14-11.4s-11.6-3.8-18.4-3.8c-8.4,0-15.9,1.3-22.3,4c-6.4,2.6-11.3,6-14.7,10.2
		l0.8,0.6v-1h-0.4v1l1-0.1L213.2,813.1z M272.8,818.9l0.8-0.7c-3.4-3.8-7.5-6.7-12.2-8.6c-4.7-1.9-10-2.9-15.9-2.9
		c-7.3,0-13.7,1.4-19.4,4.3c-5.6,2.8-10.3,6.5-14.1,11.1l-0.2,0.3v0.4c0,6.9,0.2,15.7,0.5,26.4h1h-1l0.3,20.8
		c0.1,8.7,0.2,15.5,0.2,20.6v0.5l0.4,0.3c3.4,2.5,7.6,4.3,12.6,5.6c4.9,1.3,10.2,1.9,15.8,1.9c6.6,0,12.5-1.1,17.7-3.3
		s9.7-5.6,13.4-10c7.4-8.9,11.1-20.7,11.1-35.2c0-13.6-3.4-24.3-10.2-32L272.8,818.9l-0.8,0.7c6.4,7.2,9.7,17.4,9.7,30.7
		c0,14.3-3.6,25.5-10.6,34c-3.5,4.2-7.7,7.3-12.6,9.4c-4.9,2.1-10.5,3.2-16.9,3.2c-5.4,0-10.5-0.6-15.3-1.9c-4.7-1.2-8.7-3-11.9-5.3
		l-0.6,0.8h1c0-5-0.1-11.9-0.2-20.6l-0.3-20.8l0,0c-0.4-10.7-0.5-19.5-0.5-26.3h-1l0.8,0.6c3.7-4.4,8.1-7.9,13.5-10.6
		c5.3-2.7,11.4-4,18.4-4c5.7,0,10.7,0.9,15.1,2.7s8.2,4.5,11.4,8.1L272.8,818.9z"/>
	<path class="st0" d="M318.3,899.3l2.3-9.9c4.7,2.2,9.9,3.7,15.5,4.7s12,1.5,19.2,1.5c6.8,0,12.1-1.6,16-4.8s5.9-7.4,5.9-12.5
		c0-4.2-1-7.9-3.1-11.1c-2-3.2-6.7-6.3-14.1-9.2c-7.3-2.9-14.2-5.8-20.4-8.7c-6.3-2.9-10.9-6.3-13.9-10.3s-4.5-8.6-4.5-13.8
		c0-7.6,3-13.5,9.1-18c6.1-4.4,13.7-6.6,23-6.6c10.1,0,19.6,1.3,28.5,3.9l-2.4,8.8c-7-2.9-16-4.3-27.1-4.3c-6.9,0-12.4,1.5-16.5,4.6
		s-6.1,6.9-6.1,11.3c0,5.1,2.2,9.1,6.5,12s11.5,6.4,21.7,10.4c10.2,4.1,17.3,8.2,21.5,12.3s6.3,9.9,6.3,17.2c0,8.7-3,15.5-8.9,20.3
		s-14.1,7.2-24.6,7.2C340.5,904.4,329.2,902.7,318.3,899.3z"/>
	<path class="st0" d="M318.3,899.3l1,0.2l2.3-9.9l-1-0.2l-0.4,0.9c4.8,2.2,10.1,3.8,15.8,4.8c5.7,1,12.1,1.5,19.4,1.5
		c6.9,0,12.5-1.7,16.7-5.1c2.1-1.7,3.6-3.7,4.7-5.9c1-2.2,1.6-4.7,1.6-7.4c0-4.4-1.1-8.3-3.2-11.7c-1.1-1.8-2.9-3.4-5.4-5
		c-2.4-1.6-5.5-3.1-9.2-4.6c-7.3-2.9-14.1-5.8-20.4-8.6c-6.2-2.8-10.7-6.2-13.5-10c-2.9-3.9-4.3-8.2-4.3-13.2c0-3.6,0.7-6.9,2.2-9.7
		c1.4-2.8,3.6-5.3,6.5-7.4c5.9-4.3,13.3-6.4,22.4-6.4c10,0,19.4,1.3,28.2,3.8l0.3-1l-1-0.3l-2.4,8.8l1,0.3l0.4-0.9
		c-7.2-2.9-16.3-4.4-27.5-4.4c-7.1,0-12.8,1.6-17.1,4.8c-2.1,1.6-3.8,3.4-4.8,5.5c-1.1,2-1.6,4.3-1.6,6.7c0,2.7,0.6,5.1,1.7,7.3
		c1.2,2.2,2.9,4,5.2,5.5c4.4,2.9,11.7,6.4,21.9,10.5c10.1,4.1,17.2,8.2,21.2,12.1c2,2,3.5,4.3,4.5,7s1.5,5.9,1.5,9.5
		c0,4.3-0.7,8-2.1,11.2s-3.5,6-6.4,8.3c-5.7,4.6-13.6,7-23.9,7c-11.7,0-22.9-1.7-33.7-5.1L318.3,899.3l1,0.2L318.3,899.3l-0.3,1
		c11,3.5,22.4,5.2,34.3,5.2c10.6,0,19-2.4,25.2-7.4c3.1-2.5,5.4-5.5,7-9c1.5-3.5,2.3-7.6,2.3-12c0-3.8-0.5-7.2-1.6-10.2
		s-2.8-5.6-5-7.8c-4.4-4.3-11.6-8.4-21.9-12.6c-10.1-4.1-17.3-7.6-21.5-10.3c-2-1.4-3.5-2.9-4.5-4.8c-1-1.8-1.5-3.9-1.5-6.4
		c0-2.1,0.5-4,1.4-5.7s2.4-3.4,4.3-4.8c3.8-2.9,9.1-4.4,15.9-4.4c11,0,19.9,1.4,26.7,4.2l1.1,0.4l3-10.9l-1-0.3
		c-9-2.6-18.6-3.9-28.8-3.9c-9.4,0-17.3,2.3-23.6,6.8c-3.1,2.3-5.5,5-7.1,8.2c-1.6,3.1-2.4,6.7-2.4,10.6c0,5.4,1.6,10.2,4.7,14.4
		s7.9,7.7,14.3,10.7c6.3,2.9,13.1,5.8,20.5,8.7c3.6,1.4,6.6,2.9,8.8,4.4c2.3,1.5,3.8,3,4.8,4.4c1.9,3.1,2.9,6.6,2.9,10.6
		c0,2.4-0.5,4.6-1.4,6.5s-2.3,3.7-4.1,5.2c-3.7,3-8.8,4.6-15.4,4.6c-7.2,0-13.5-0.5-19-1.5s-10.6-2.5-15.3-4.6L320,888l-2.8,12
		l0.9,0.3L318.3,899.3z"/>
	<path class="st0" d="M422.8,801l-12,2.8c1.9,15.3,2.9,32.8,2.9,52.5c0,14-0.5,29.5-1.6,46.4h11.1c-1.1-13.9-1.6-29.3-1.6-46.4
		C421.7,835.7,422.1,817.3,422.8,801z"/>
	<path class="st0" d="M422.8,801l-0.2-1l-12.8,3l0.1,0.9c1.9,15.2,2.9,32.7,2.9,52.4c0,14-0.5,29.4-1.6,46.3l-0.1,1.1h13.3l-0.1-1.1
		c-1.1-13.8-1.6-29.3-1.6-46.3c0-20.6,0.4-39,1.2-55.3l0.1-1.3l-1.3,0.3L422.8,801h-1c-0.8,16.3-1.2,34.8-1.2,55.4
		c0,17.1,0.5,32.6,1.6,46.5l1-0.1v-1h-11.1v1l1,0.1c1.1-17,1.6-32.4,1.6-46.5c0-19.8-1-37.3-2.9-52.6l-1,0.1l0.2,1l12-2.8L422.8,801
		h-1H422.8z"/>
	<path class="st0" d="M453.1,754.8l12.6-0.4c-0.8,18.5-1.3,41.7-1.3,69.8c0,27.9,0.6,54,1.7,78.5h-12.4c1.3-21.8,2-47.9,2-78.5
		C455.8,798.4,454.9,775.3,453.1,754.8z"/>
	<path class="st0" d="M453.1,754.8v1l12.6-0.4v-1h-1c-0.8,18.5-1.3,41.8-1.3,69.9c0,27.9,0.6,54.1,1.7,78.6h1v-1h-12.4v1l1,0.1
		c1.3-21.8,2-48,2-78.6c0-25.8-0.9-48.9-2.7-69.5L453.1,754.8v1V754.8l-1,0.1c1.8,20.5,2.6,43.6,2.6,69.3c0,30.6-0.7,56.7-2,78.5
		l-0.1,1.1h14.5v-1c-1.1-24.5-1.7-50.6-1.7-78.5c0-28.1,0.4-51.3,1.3-69.8v-1.1l-14.8,0.5l0.1,1L453.1,754.8z"/>
	<path class="st0" d="M509.8,893.4c-8.6-8.9-12.9-21.2-12.9-36.7c0-18,4.8-32.2,14.4-42.6c9.6-10.4,21.4-15.6,35.3-15.6
		c11,0,21.1,4.2,30.4,12.5c9.2,8.4,13.9,21.1,13.9,38.2c0,17.7-4.8,31.7-14.5,42.1c-9.6,10.4-21.2,15.5-34.6,15.5
		C529.1,906.8,518.4,902.3,509.8,893.4z M515.2,820.4c-6.1,9.9-9.1,20.5-9.1,31.7c0,14,3.5,25.4,10.4,34.3
		c6.9,8.9,16.1,13.3,27.5,13.3c12.9,0,22.5-5,28.7-14.9s9.3-20.4,9.3-31.5c0-13.6-3.5-25-10.6-34.1s-16.3-13.6-27.6-13.6
		C530.8,805.5,521.2,810.5,515.2,820.4z"/>
	<path class="st0" d="M509.8,893.4l0.7-0.7c-8.4-8.7-12.6-20.6-12.6-36c0-17.8,4.7-31.7,14.1-41.9c9.4-10.2,20.9-15.3,34.5-15.3
		c10.7,0,20.6,4.1,29.7,12.3c4.5,4.1,7.9,9.2,10.1,15.4c2.3,6.2,3.4,13.6,3.4,22c0,17.5-4.8,31.3-14.2,41.4
		c-9.5,10.2-20.7,15.2-33.8,15.2c-12.5,0-22.9-4.3-31.3-13.1L509.8,893.4l-0.7,0.7c8.7,9.1,19.7,13.7,32.8,13.7
		c13.7,0,25.5-5.3,35.3-15.9c9.8-10.6,14.7-24.9,14.7-42.8c0-8.6-1.2-16.2-3.5-22.7c-2.4-6.5-5.9-11.9-10.7-16.2
		c-9.4-8.5-19.8-12.8-31.1-12.8c-14.2,0-26.2,5.4-36,16s-14.7,25.1-14.7,43.3c0,15.7,4.4,28.2,13.1,37.4L509.8,893.4z M515.2,820.4
		l-0.9-0.5c-6.2,10-9.3,20.8-9.3,32.2c0,14.2,3.5,25.8,10.6,34.9c3.5,4.5,7.7,8,12.4,10.3s10.1,3.4,15.9,3.4
		c6.6,0,12.4-1.3,17.3-3.8c4.9-2.6,9-6.4,12.2-11.5c6.3-10.1,9.5-20.8,9.5-32c0-13.8-3.6-25.4-10.8-34.7c-3.6-4.7-7.8-8.2-12.6-10.5
		s-10.1-3.5-15.9-3.5c-6.6,0-12.4,1.3-17.4,3.8c-4.9,2.6-9,6.4-12.1,11.5L515.2,820.4l0.9,0.5c3-4.8,6.7-8.4,11.3-10.8
		c4.6-2.4,10.1-3.6,16.4-3.6c5.5,0,10.5,1.1,15,3.3s8.4,5.5,11.9,10c6.9,8.9,10.4,20,10.4,33.5c0,10.9-3,21.2-9.2,31
		c-3,4.8-6.8,8.4-11.4,10.8c-4.6,2.4-10.1,3.6-16.4,3.6c-5.6,0-10.6-1.1-15-3.2c-4.4-2.2-8.3-5.4-11.7-9.7
		c-6.8-8.7-10.2-19.9-10.2-33.7c0-11,3-21.4,9-31.1L515.2,820.4z"/>
	<path class="st0" d="M632.9,815h0.2c11.6-10.3,23.1-15.4,34.5-15.4c12.2,0,21.4,2.6,27.6,7.8c6.2,5.2,9.3,14.2,9.3,27.1l-0.1,7.6
		c0,1.2,0,3-0.1,5.4c0,8.5,0,15.4,0.1,20.7l0.1,34.7h-10.6c1.7-21.3,2.5-43.5,2.5-66.5c0-10.8-2.9-18.2-8.7-22.2s-13.3-6-22.5-6
		c-11.8,0-22.6,4.5-32.3,13.5c-0.1,5.1-0.2,13.9-0.2,26.2c0,9.1,0,17.7,0.1,25.8L633,896c0,1.5,0,3.7,0.1,6.7H623
		c1.3-25.8,1.9-43,1.9-51.7c0-14-1.4-30-4.2-48.1l10.4-2.2L632.9,815z"/>
	<path class="st0" d="M632.9,815v1h0.2h0.4l0.3-0.3c11.5-10.2,22.7-15.2,33.8-15.2c12.1,0,21,2.6,26.9,7.5c2.9,2.5,5.1,5.8,6.6,10.2
		s2.3,9.7,2.3,16.1h1h-1l-0.1,7.6l0,0c0,1.2,0,3-0.1,5.3l0,0l0,0c0,8.5,0,15.4,0.1,20.7h1h-1l0.1,33.7h-9.6v1l1,0.1
		c1.7-21.4,2.5-43.6,2.5-66.5c0-5.5-0.7-10.1-2.3-14c-1.5-3.8-3.8-6.9-6.9-9c-6-4.1-13.8-6.2-23.1-6.2c-12.1,0-23.1,4.6-33,13.8
		l-0.3,0.3v0.4c-0.1,5.1-0.2,13.9-0.2,26.3c0,9.1,0,17.7,0.1,25.8L632,896l0,0c0,1.5,0,3.7,0.1,6.7h1v-1H623v1h1
		c1.3-25.8,1.9-43,1.9-51.7c0-14.1-1.4-30.1-4.2-48.2l-1,0.2l0.2,1l9.3-2l1.9,14h0.9v-1l1-0.1l-2.1-15.2l-12.4,2.6l0.1,0.9
		c2.8,18,4.2,34,4.2,47.9c0,8.6-0.6,25.8-1.9,51.6l-0.1,1h12.3v-1c-0.1-3-0.1-5.2-0.1-6.7l0,0l-0.2-22.3c-0.1-8.1-0.1-16.7-0.1-25.8
		c0-12.4,0.1-21.1,0.2-26.2h-1l0.7,0.7c9.6-8.9,20.1-13.3,31.6-13.3c9,0,16.3,2,21.9,5.8c2.7,1.9,4.8,4.5,6.2,8.1
		c1.4,3.5,2.1,8,2.1,13.3c0,22.9-0.8,45.1-2.5,66.4l-0.1,1.1h12.7l-0.1-35.8l0,0c-0.1-5.2-0.1-12.1-0.1-20.7h-1h1
		c0.1-2.4,0.1-4.2,0.1-5.4h-1h1l0.1-7.6l0,0c0-6.5-0.8-12.1-2.4-16.8c-1.6-4.6-4-8.4-7.3-11.1c-6.4-5.4-15.9-8-28.2-8
		c-11.8,0-23.5,5.3-35.2,15.7l0.7,0.7v-1h-0.2L632.9,815l1-0.1L632.9,815z"/>
</g>
</svg>
