<?xml version="1.0" encoding="utf-8"?>
<!-- Generator: Adobe Illustrator 24.2.1, SVG Export Plug-In . SVG Version: 6.00 Build 0)  -->
<svg version="1.1" id="Layer_1" xmlns="http://www.w3.org/2000/svg" xmlns:xlink="http://www.w3.org/1999/xlink" x="0px" y="0px"
	 viewBox="0 0 32.8 16" style="enable-background:new 0 0 32.8 16;" xml:space="preserve">
<style type="text/css">
	.st0{fill:#231F20;}
</style>
<g>
	<path class="st0" d="M5.8,0.4C5.6,0.5,5.5,0.6,5.4,0.6C5.2,0.7,5.2,0.9,5.2,1.1C5.1,1.7,5.1,2.4,5,3.1C4.8,3.3,4.9,3.5,4.9,3.7
		c0,0.3,0,1.3-0.1,1.5C4.6,5.4,4.6,5.6,4.6,5.9c-0.1,1-0.2,2-0.3,3c0,0.4-0.1,0.7-0.2,1C4.1,9.8,4,9.7,4,9.7c0,0.3-0.1,0.6-0.1,0.8
		c0,0.2,0,0.3,0,0.5c-0.1,0.4-0.2,0.8-0.2,1.2c-0.1,0.7-0.1,1.4-0.2,2.1c-0.1,0.5-0.1,1.5-0.3,1.8c0,0-0.1-0.1-0.1-0.1
		c-0.1-0.7-0.2-1.4-0.4-2c-0.1,0.1-0.1,0.2-0.1,0.2C2.5,14,2.4,14,2.4,13.9c-0.1-0.3-0.2-0.6-0.1-0.9c0-0.1,0-0.2-0.1-0.3
		c-0.3-0.6-0.2-1.4-0.4-2.1c0,0,0,0,0,0.1c-0.1,0.3-0.3,0.1-0.3-0.1c0.1-1-0.2-1.9-0.2-2.9C1,7.6,1,7.4,1,7.2C1,7,1,6.8,1,6.5
		c0-0.2,0-0.4,0-0.6c0-0.2,0-0.4-0.1-0.5c-0.1-0.1,0-0.6,0-0.8C0.8,4,0.6,3.5,0.6,2.8c0-0.2,0-0.5-0.2-0.5C0.3,2.2,0.2,2,0,1.8
		C0.8,1.4,1.6,1,2.4,0.7C2.2,1,2.1,1.4,2,1.8C2,2,2,2.2,2,2.4C2.1,3.2,2.2,4,2.3,4.8c0,0.2,0.1,0.5,0,0.7c0,0,0,0.1,0,0.1
		c0.2,0.3,0.1,0.6,0.1,0.9c0,0.1,0,0.2,0,0.2C2.3,7,2.5,7.2,2.5,7.4c0.1,0.7,0.1,1.3,0.2,2c0,0,0,0,0,0c0-0.8,0.1-1.7,0.2-2.5
		c0.1-0.2,0.1-0.3,0.1-0.5c0-0.6,0.1-1.2,0.2-1.8c0-0.5,0.1-1.1,0.2-1.6c0,0,0-0.1,0-0.1c0.4-0.5-0.2-1.3,0.1-2
		C3.5,0.7,3.3,0.7,3.2,0.5c0.1-0.1,0.2-0.1,0.4-0.2c0.5,0,1,0,1.5,0c0.2,0,0.4,0,0.6,0C5.7,0.3,5.7,0.3,5.8,0.4z"/>
	<path class="st0" d="M9.5,0.9C9.4,1.1,9.1,1.3,9,1.5C8.8,1.9,8.9,2,8.9,2.4c0,0.8,0,1.6,0.1,2.4c0,0.2,0,0.5,0,0.7
		c0,0.1,0,0.3,0,0.4C9.1,6.2,9,6.6,9,7c0,0.2,0,0.4,0,0.6C9,7.8,8.8,7.8,8.9,8.1c0,0.3,0,0.6-0.1,0.9c0,0,0,0-0.1,0
		C8.7,9,8.6,8.8,8.5,8.7C8.5,9.1,8.4,9.5,8.3,9.9c0,0,0,0.1-0.1,0.1c0,0-0.1,0-0.1-0.1C8,9.4,8,8.9,7.9,8.3c0,0.1-0.1,0.1-0.1,0.2
		c0,0,0,0,0,0c0-0.4,0-0.7,0-1.1c-0.1,0-0.1,0-0.2,0.1c0,0.1-0.1,0.2-0.1,0.2c0,0,0,0,0,0c0-0.1-0.1-0.3-0.1-0.4c0,0,0,0,0,0
		c0,0.1-0.1,0.1-0.1,0.2c0,0.1,0,0.2-0.2,0.1c-0.1,0.2,0,0.6-0.2,0.7c0,0-0.1-0.1-0.1-0.1c0-0.3-0.1-0.6-0.1-1c0,0,0,0,0,0
		c-0.1,0.4,0,0.9-0.2,1.3c0,0.4-0.1,0.7-0.3,1c0,0-0.1,0-0.1,0.1C6,9.4,6,9.1,6.1,8.7c0,0,0,0,0,0C6,8.7,5.9,8.8,5.9,8.8
		c-0.1,0.4-0.4,0.6-0.6,1c-0.1,0.2-0.1,0.4-0.2,0.6C4.9,10,4.9,9.5,4.9,9.1C4.7,9,4.6,9,4.4,9c0,0,0,0,0-0.1
		c0.7-0.4,0.7-0.5,0.8-1.3c0-0.2,0.1-0.4,0.1-0.5c0-0.1,0.1-0.1,0.1-0.2c-0.1-0.2,0-0.3,0-0.5C5.6,6,5.6,5.6,5.7,5.2
		c0.1-0.2,0-0.5,0.2-0.7c0,0,0-0.1,0-0.2C5.9,4.1,6,3.9,6,3.7c0.1-0.5,0.1-0.9,0.3-1.4c0.2-0.1,0.1-0.3,0.1-0.4
		c0-0.2-0.1-0.2-0.3-0.3C6,1.6,5.6,1.5,5.6,1.4c0,0,0.1-0.1,0.1-0.1c0.3,0,0.5-0.1,0.8-0.1c1-0.1,2-0.1,2.9-0.3
		C9.4,0.8,9.5,0.9,9.5,0.9z M7.6,2.3C7.6,2.3,7.6,2.4,7.6,2.3C7.5,3,7.2,3.5,7.3,4.2C7.1,4.8,7,5.5,6.9,6.1c0.9-0.2,0.9,0.1,0.9-0.7
		C7.7,4.4,7.9,3.3,7.6,2.3z"/>
	<path class="st0" d="M16,8.6c0,0,0,0.1-0.1,0.1c0,0,0,0,0,0c0,0.6-0.1,1.1-0.1,1.7c-0.1,0-0.1,0-0.1-0.1c-0.1-0.2-0.1-0.4-0.2-0.6
		c0,0.2,0,0.3-0.1,0.4c-0.1-0.2-0.2-0.4-0.3-0.7c0,0.1,0,0.2,0,0.2c0,0,0,0,0,0c-0.3-0.6-0.3-1.2-0.3-1.8c-0.1-1-0.4-2-0.5-3.1
		c-0.2,0.4-0.4,0.9-0.5,1.3c-0.1,0.1-0.1,0.3-0.1,0.4c0,0.1-0.2,0.2-0.2,0.4c0,0.2,0,0.4-0.1,0.6c-0.2,0.3,0,0.7-0.3,0.9
		c0-0.1,0-0.1,0-0.2c0,0,0,0,0,0C13,8.7,13,9.2,13,9.6c0,0,0,0.1-0.1,0.1c-0.2-0.3-0.2-0.7-0.2-1.1c0-0.2-0.2-0.5-0.2-0.7
		c0-0.2-0.1-0.4-0.1-0.6c-0.3-0.9-0.5-1.8-0.7-2.7c0,0,0,0-0.1,0c-0.1,0.4-0.1,0.8-0.2,1.2c-0.1,0.6-0.3,1.2-0.3,1.8
		c0,0.1,0,0.3-0.1,0.4c-0.1,0.4,0.3,0.6,0.6,0.9c-0.9,0-1.7,0.1-2.6,0.1c0-0.2,0.2-0.3,0.3-0.4C9.4,8.4,9.5,8.2,9.5,8
		c0.1-0.5,0.2-1,0.3-1.5C10,6,10.2,5.5,10.2,5c0-0.6,0.4-1.2,0.5-1.8c0.1-0.5,0.2-0.9,0.3-1.3c0.1-0.6,0.2-1.3,0.4-1.9
		c0.1,0.3,0.3,0.5,0.3,0.7c0,0.1,0,0.2,0.1,0.2C11.9,1.2,12,1.5,12,1.7c0,0.3,0.2,0.1,0.2,0.3c0.1,0.3,0.1,0.6,0.2,0.9
		c0,0,0,0.1,0.1,0.1c0.1,0.2,0.2,0.5,0.2,0.7c0,0.2,0.1,0.4,0.1,0.5c0,0.5,0.2,0.8,0.3,1.3c0.5-1.3,0.9-2.7,1.4-4
		c0.1-0.2,0.2-0.5,0.2-0.7c0.1-0.2,0.2-0.3,0.2-0.5C15.1,0.4,15,0.5,15,0.6c0,0.4,0.1,0.7,0.2,1.1c0.2,0.8,0.3,1.5,0.4,2.3
		c0,0.2,0.1,0.5,0.1,0.7c0,0.3,0,0.6,0,0.9C15.8,6.3,16,7,16,7.7C16,8,16,8.3,16,8.6z"/>
	<path class="st0" d="M20.2,4.7c-0.1,0.2-0.4,0.2-0.6,0.7c0,0.1-0.1,0.1-0.2,0c-0.1,0.3-0.2,0.5-0.4,0.7c0-0.2,0-0.3-0.1-0.4
		c-0.2,0.1-0.4,0.2-0.6,0.3C18.1,6.3,18,6.9,18,7.2c-0.1,0-0.1,0-0.1-0.1c0-0.2,0-0.5,0-0.7c-0.3,0-0.1,0.3-0.1,0.5
		c0,0.1,0,0.1,0,0.2c-0.1,0.2-0.1,0.4-0.1,0.6c0,0.1-0.1,0.3-0.1,0.4c0,0.1,0,0.2,0,0.2c-0.1,0.1-0.1,0.2-0.1,0.4
		c0,0.2-0.1,0.7-0.3,0.8c-0.1-0.1,0.1-0.9-0.1-1c-0.1,0.5-0.1,1.1-0.3,1.6c-0.1,0.1-0.2,0.3-0.3,0.4c0-0.2-0.1-0.5-0.1-0.7
		c0-0.1,0-0.3-0.1-0.5c0,0,0-0.1,0-0.2c0.1-0.3,0-0.6,0.1-0.8c0.1-0.2,0-0.4,0-0.5c0-0.1-0.1-0.2-0.1-0.3c0-0.4,0-0.8-0.1-1.2
		c0-0.2,0.2-0.4,0.1-0.5c-0.1-0.1-0.1-0.1-0.1-0.2c0-0.1,0-0.3,0.1-0.4c0,0,0-0.2,0-0.3c-0.2-0.2-0.1-0.5-0.1-0.8c0-0.2,0-0.5,0-0.8
		c0-0.2,0-0.5,0-0.7c0-0.3,0.1-0.6,0.1-0.9c0,0,0,0,0,0c0,0.3-0.1,0.6-0.1,0.8c0,0,0,0,0,0C16,2.4,16.1,2.1,16,1.9
		c0-0.2,0-0.3-0.1-0.5c0-0.3-0.4-0.3-0.5-0.4c0,0,0-0.1,0.1-0.1c0.5-0.1,1.1-0.1,1.6-0.2c0.5,0,0.9-0.1,1.4-0.1
		c0.5-0.1,0.7,0,1.1,0.3C19.7,0.9,19.9,1,20,1.1c0.1,0,0.1,0.1,0.1,0.1c0,0,0,0.1,0,0.1c0.1,0.2,0.1,0.4,0.1,0.6
		c0.1,0.4,0.1,0.7,0,1.1c0,0.1,0,0.3,0,0.4C20.4,3.8,20.3,4.3,20.2,4.7z M18.7,1.6c0,0-0.2,0-0.3,0c-0.1,0.3-0.2,0.6-0.3,0.9
		c0,0.1,0,0.2-0.2,0.3c0-0.3,0-0.6,0-0.8c0,0,0,0,0,0c0,0.1,0,0.1-0.1,0.2c-0.2,0.3-0.1,0.5-0.1,0.8c0,0.7,0,1.4-0.1,2.1
		c0.2-0.1,1.1-0.4,1.1-0.6c0-0.7,0-1.4,0.1-2.1C19,2,19,1.8,18.7,1.6z"/>
	<path class="st0" d="M26.1,0.4c-0.1,0.1-0.3,0.2-0.4,0.2c-0.2,0.1-0.2,0.2-0.2,0.5c-0.1,0.7-0.1,1.4-0.2,2
		c-0.2,0.2-0.1,0.4-0.1,0.6c0,0.3,0,1.3-0.1,1.5C25,5.4,25,5.6,25,5.9c-0.1,1-0.2,2-0.3,3c0,0.4-0.1,0.7-0.2,1
		c-0.1-0.1-0.1-0.1-0.1-0.2c0,0.3-0.1,0.6-0.1,0.8c0,0.2,0,0.3,0,0.5c-0.1,0.4-0.2,0.8-0.2,1.2c-0.1,0.7-0.1,1.4-0.2,2.1
		c-0.1,0.5-0.1,1.5-0.3,1.8c0,0-0.1-0.1-0.1-0.1c-0.1-0.7-0.2-1.4-0.4-2c-0.1,0.1-0.1,0.2-0.1,0.2c-0.1-0.1-0.1-0.1-0.2-0.2
		c-0.1-0.3-0.2-0.6-0.1-0.9c0-0.1,0-0.2-0.1-0.3c-0.3-0.6-0.2-1.4-0.4-2.1c0,0,0,0,0,0.1c-0.1,0.3-0.3,0.1-0.3-0.1
		c0.1-1-0.2-1.9-0.2-2.9c-0.2,0-0.2-0.2-0.2-0.4c0-0.2,0-0.4,0-0.6c0-0.2,0-0.4,0-0.6c0-0.2,0-0.4-0.1-0.5c-0.1-0.1,0-0.6,0-0.8
		C21.1,4,21,3.5,21,2.8c0-0.2,0-0.5-0.2-0.5c-0.1-0.1-0.2-0.3-0.4-0.5c0.8-0.4,1.6-0.8,2.4-1.2c-0.1,0.4-0.2,0.8-0.3,1.2
		c0,0.2,0,0.4,0,0.6c0.1,0.8,0.2,1.6,0.3,2.4c0,0.2,0.1,0.5,0,0.7c0,0,0,0.1,0,0.1c0.2,0.3,0.1,0.6,0.1,0.9c0,0.1,0,0.2,0,0.2
		c-0.1,0.3,0.1,0.4,0.1,0.7C23,8,23,8.7,23.1,9.4c0,0,0,0,0,0c0-0.8,0.1-1.7,0.2-2.5c0.1-0.2,0.1-0.3,0.1-0.5c0-0.6,0.1-1.2,0.2-1.8
		c0-0.5,0.1-1.1,0.2-1.6c0,0,0-0.1,0-0.1c0.4-0.5-0.2-1.3,0.1-2c-0.2-0.1-0.3-0.1-0.4-0.3c0.1-0.1,0.2-0.1,0.4-0.2c0.5,0,1,0,1.5,0
		c0.2,0,0.4,0,0.6,0C26,0.3,26,0.3,26.1,0.4z"/>
	<path class="st0" d="M27.3,2.5c0,0.4-0.1,0.8-0.1,1.2c0.1,0.3,0,0.7,0,1c0,0.8,0,1.7-0.1,2.5c-0.1,0.5-0.1,1-0.2,1.5
		c0,0.2,0,0.3-0.2,0.5c0,0-0.1,0-0.1-0.1c-0.1-0.3-0.1-0.6-0.2-0.8c-0.1,0.3-0.2,0.9-0.2,1.2c0,0,0,0-0.1,0C26,7.8,25.9,5.9,26,4.1
		c0-0.6-0.1-1.2,0-1.8c0-0.5,0-0.5-0.4-0.8c0.2-0.2,0.7-0.2,1-0.3c0.4-0.1,0.9-0.2,1.3-0.4c0,0,0,0,0,0C27.4,1.3,27.3,1.8,27.3,2.5z
		"/>
	<path class="st0" d="M32.8,3.7c-0.1,0.5,0.1,1-0.2,1.4c-0.4,0.8-1.1,1.4-1.6,2.2c-0.2-0.1-0.2-0.1-0.3,0.1
		c-0.1,0.2-0.2,0.5-0.5,0.7c-0.2,0.4-0.4,0.8-0.6,1.1c0,0-0.1,0-0.1,0.1c-0.1-0.1-0.1-0.1-0.1-0.3c-0.4,0.4-0.7,0.8-0.9,1.3
		c-0.1-0.4-0.1-0.9-0.1-1.3c-0.1-0.1-0.1-0.3-0.1-0.5c0-0.2,0.3-0.4,0.1-0.6c-0.1-0.3,0-0.6,0-0.9c-0.1-0.6,0-1.2,0-1.8
		c0-0.2-0.1-0.4,0-0.7c0.1-0.1,0.1-0.3,0-0.4c-0.1-0.1,0-0.2,0-0.3c0-0.7,0-1.5,0-2.2c0-0.2-1-0.8-0.5-0.8c0.9-0.1,1.8,0,2.6,0
		c1.1,0.5,1.3,1,2,1.9C32.9,3,32.8,3.3,32.8,3.7z M31.6,3.6c0,0.1,0,0.2,0,0.3c0,0.1-0.3,0.6-0.3,0.3c0-0.2,0-0.4,0-0.5
		c-0.1-0.9-0.1-0.5-0.5-1.1c-0.1,0.2-0.1,0.3-0.3,0.4c0-0.2,0-0.4-0.1-0.6c-0.1,0-0.3-0.1-0.4-0.1c0,1.5,0,2.9,0,4.4c0,0,0,0,0,0
		c0.4-0.4,0.7-1,1-1.4c0.1-0.1,0.2-0.3,0.2-0.4C31.3,4.6,32,3.6,31.6,3.6z"/>
</g>
</svg>
