<svg xmlns="http://www.w3.org/2000/svg" viewBox="0 0 462.14 474.63"><defs><style>.cls-1{fill:#a7a9ac;}.cls-2{fill:#d1d3d4;}</style></defs><g id="Layer_2" data-name="Layer 2"><g id="Layer_1-2" data-name="Layer 1"><path class="cls-1" d="M26,292.46c-9.15,2-16.94.22-20.4-2.72A16.11,16.11,0,0,1,.4,282c-.07-.3-.11-.53-.14-.67-1-5.33,1.18-9.89,2.72-12.78,6-11.18,13.44-18.41,20.59-26,6.94-7.33,11.63-12.88,17.07-19.35,9.85-11.73,14.89-17.75,19.59-26.2,5.3-9.54,8.35-15,9-22.62,1-10.8-3.45-18.24-12.55-35C52,130.69,44.48,116.75,35.26,98.59A188.62,188.62,0,0,1,24.2,60.8c-2-11.2-3.61-20.4-1.68-32.36A74.7,74.7,0,0,1,29.15,7.67a60.21,60.21,0,0,1,16.3-6.3C52.84-.3,61-.65,73,1.49A137.61,137.61,0,0,1,109.83,13.7C131.43,24.32,154,35.55,178,48a164.27,164.27,0,0,1,127.33,2.76,260,260,0,0,1,68.7-33.21c21.89-6.79,65.18-20.11,78.71-3,4.79,6.08,4,15.29,2.38,33.72a198.41,198.41,0,0,1-9.55,45.91l-36.11,65.29a38.69,38.69,0,0,0-7.55,19.32c-1.08,11.19,3.85,19.8,9.81,29.69C436.45,249.44,451,271,451,271c5.57,8.25,14.25,21.07,10,27.57-1.3,2-4.63,4.65-8.6,5.92-2.54.81-3.38.2-8.07.74-6,.69-9,1-9.83,2.71-1.49,2.83,4.32,5.77,7.54,15.09.84,2.44,3.34,9.94,0,16.35a10.52,10.52,0,0,1-2.52,3.36c-4.85,4.18-12.35,2-12.85,1.86-2.08-.63-2-1.16-10.16-6.7-4.65-3.14-5.85-3.78-7.08-3.39-3.13,1-3.51,7.68-3.57,9.19.37,3,1,7.78,1.66,13.76.83,7.12,1.09,9.49-.47,11.68-2.19,3.06-6.07,3.66-8.18,4-9.17,1.43-16.77-4.19-19.12-6.09a28.31,28.31,0,0,0-28.34-8.69c-11.64,3.17-20.09,14-20.54,26.65a185.26,185.26,0,0,1-12.53,29.67c-7.8,14.76-15,28.34-28.9,39.78-23.15,19-50.15,20-57.48,20.15-8.32.18-32.95.37-55.75-15.95-18.57-13.28-27-31.12-33.26-44.45a143.76,143.76,0,0,1-9.41-26.35c-.69-4.19-5.66-32.64-20.15-35.61-1.77-.36-7.85,1.12-20.06,4.32-10.76,2.81-15.32,3.75-17.67,4.17-1,.17-1.47.26-1.74.29-6.55.84-15.52-1.1-19-6.11-3.25-4.7-.79-11.86,4.26-26,3.8-10.65,7.35-17.05,6.07-17.92-1.86-1.28-9.17,12.53-23.06,15.09-4.57.84-12.65,1-15.36-3.3-3.09-4.87,1.93-13.66,6.78-22.16,4.72-8.28,9.11-12.91,8-14.1-.54-.62-2.53-.33-8.68,3.38"/><path class="cls-2" d="M126.05,96.81c2.9-2.25,2.3-2.19,7-4.65,8.17-4.3,13.66-10.21,12.9-15.35-.3-2-1.45-3.55-3.11-5.83a36.15,36.15,0,0,0-9.14-8.76C113.12,47,94.56,41.78,83.12,39.74c-14.7-2.63-17.92-.09-19,1-9.13,9,8.68,46.7,12.14,54a138.46,138.46,0,0,0,9.26,17.64c5.69,9,10.42,16.36,15.33,15.81,1.4-.15,2.18-.87,8.66-10.39C109.48,117.79,119.69,101.74,126.05,96.81Z"/><path class="cls-2" d="M350.53,103.79c-2.8-2.37-2.2-2.29-6.77-5-8-4.65-13.2-10.79-12.22-15.89.38-1.94,1.61-3.48,3.36-5.69a35.79,35.79,0,0,1,9.51-8.36c21.2-14.32,40-18.72,51.48-20.27,14.8-2,17.92.69,19,1.84,8.72,9.41-10.7,46.27-14.47,53.4a138.17,138.17,0,0,1-10,17.22c-6.07,8.77-11.11,15.9-16,15.14-1.39-.22-2.14-1-8.2-10.76C366.18,125.47,356.67,109,350.53,103.79Z"/><path class="cls-2" d="M149,357.75a54.17,54.17,0,0,0-14.38-16.47,55.84,55.84,0,0,0-19.84-5.66c-9.52-.85-15.42,1.21-18-2.29-3.12-4.21,1.61-12.3,2.19-13.27,4.06-6.78,10.89-9.07,13-9.69a73.19,73.19,0,0,1,68.25,9.55,83.81,83.81,0,0,1,21.1,35.16c0,22.69,14.53,39.49,29.07,40.56,15,1.11,27.46-14.79,32.37-24a48.32,48.32,0,0,0,5.09-15.58,61.94,61.94,0,0,1,48.05-45.54,48.9,48.9,0,0,1,38.83,6.54c10.39,3.23,14.42,12.78,12,17.85-1.92,4-8.36,6.31-15.32,4.9a26.55,26.55,0,0,0-18.56,1c-8.77,4-14.58,13.08-15.25,23.44-3.3,9.1-8.3,22.75-14.71,39.61-6.09,16-9.47,24.45-18,32.21a52.85,52.85,0,0,1-15.71,9.84,84.66,84.66,0,0,1-31.49,7.88,85.62,85.62,0,0,1-43.38-9.5c-14.68-7.65-21.91-16.61-25.79-23.38-6.48-11.28-9.77-27.06-13.31-44C153.89,370.6,152.89,364.81,149,357.75Z"/><path d="M237.17,400.88c0,12.11,11.64,19.66,24.36,15.89,4.92-1.46,9.5-4,14.41-5.54,2-.63,4.55.26,6.84.46-.6,2.26-.58,5-1.89,6.69-7.8,10.13-26.1,14.95-38.19,8.56-8.07-8.23-15.63-10.29-26.78-.32-10.2,6.06-27,1.73-35-7a24.69,24.69,0,0,1-5-9.49c-1-3.37,1.62-5.1,4.74-3.41a39.48,39.48,0,0,1,6,4.51c7.16,5.92,30.11,6.07,35.42-3.48.82-1.47,2.25-5.06.8-6.86"/><path d="M248.13,402.76c8.3-1.61,18.93-8.31,21.78-19.63.55-2.18,2.09-9.8-2-17.19-2.29-4.15-6.18-7.45-11.84-10.08-15.13-7-30.63-7.3-45.94-.46-10.76,4.81-14.84,12-14.32,23.78a23.45,23.45,0,0,0,3.71,12.23c4.09,6.11,10.17,8.34,12.71,9.27a37.83,37.83,0,0,0,8.11,1.72c2.16.31,7.23,1,18.68.72C244.47,403,247.2,402.94,248.13,402.76Z"/><path d="M164.21,205.38c1.41-2,2.69-4,4.24-5.86a19.74,19.74,0,0,1,11.44-6.83,18.92,18.92,0,0,1,21.9,14.67,23.68,23.68,0,0,1-2.25,15,64.53,64.53,0,0,1-8.35,12.6A240.68,240.68,0,0,1,168,259.45c-.59.56-1.17,1.13-1.78,1.67a2.61,2.61,0,0,1-3.62,0c-9.46-8.75-18.64-17.77-26.56-28a54.31,54.31,0,0,1-7.41-11.91,23.89,23.89,0,0,1-2-11.94,18.7,18.7,0,0,1,14.32-16.35c7.71-1.76,14.08.75,19.24,6.51a51.94,51.94,0,0,1,3.79,5.42A5.45,5.45,0,0,1,164.21,205.38Z"/><path d="M301.32,205.38c1.41-2,2.69-4,4.23-5.86A19.77,19.77,0,0,1,317,192.69a18.93,18.93,0,0,1,21.91,14.67,23.68,23.68,0,0,1-2.25,15A64.53,64.53,0,0,1,328.3,235a240.68,240.68,0,0,1-23.24,24.44c-.6.56-1.17,1.13-1.78,1.67a2.62,2.62,0,0,1-3.63,0c-9.45-8.75-18.63-17.77-26.56-28a54.69,54.69,0,0,1-7.41-11.91,24,24,0,0,1-2-11.94A18.68,18.68,0,0,1,278,192.93c7.7-1.76,14.08.75,19.24,6.51a50.39,50.39,0,0,1,3.78,5.42C301.16,205.06,301.26,205.28,301.32,205.38Z"/></g></g></svg>