<svg xmlns="http://www.w3.org/2000/svg" viewBox="0 0 462.13 474.65"><defs><style>.cls-1{fill:#a7a9ac;}.cls-2{fill:#d1d3d4;}.cls-3{fill:#daac79;}.cls-4{fill:#fdca89;}.cls-4,.cls-6{stroke:#231f20;stroke-miterlimit:10;stroke-width:0.25px;}.cls-5{fill:#fdcb8a;}.cls-6{fill:none;}</style></defs><g id="Layer_2" data-name="Layer 2"><g id="Layer_1-2" data-name="Layer 1"><g id="Layer_2-2" data-name="Layer 2"><g id="Layer_1-2-2" data-name="Layer 1-2"><path class="cls-1" d="M26,292.46c-9.15,2-16.94.22-20.4-2.72A16.13,16.13,0,0,1,.39,282c-.07-.3-.11-.53-.14-.67-1-5.33,1.18-9.89,2.72-12.78,6-11.18,13.44-18.41,20.59-26,6.94-7.33,11.63-12.88,17.07-19.35,9.85-11.73,14.89-17.75,19.59-26.2,5.3-9.54,8.35-15,9-22.62,1-10.8-3.45-18.24-12.55-35-4.68-8.69-12.2-22.63-21.42-40.79A189.1,189.1,0,0,1,24.19,60.8c-2-11.2-3.61-20.4-1.68-32.36A75.07,75.07,0,0,1,29.14,7.67a60.42,60.42,0,0,1,16.3-6.3C52.83-.3,61-.65,73,1.49A137.5,137.5,0,0,1,109.82,13.7C131.42,24.32,154,35.55,178,48a164.25,164.25,0,0,1,127.33,2.76A260,260,0,0,1,374,17.55c21.89-6.79,65.18-20.11,78.71-3,4.79,6.08,4,15.29,2.38,33.72a197.81,197.81,0,0,1-9.55,45.91l-36.11,65.29a38.73,38.73,0,0,0-7.55,19.32c-1.08,11.19,3.85,19.8,9.81,29.69C436.44,249.44,451,271,451,271c5.57,8.25,14.25,21.07,10,27.57-1.3,2-4.63,4.65-8.6,5.92-2.54.81-3.38.2-8.07.74-6,.69-9,1-9.83,2.71-1.49,2.83,4.32,5.77,7.54,15.09.84,2.44,3.34,9.94,0,16.35a10.39,10.39,0,0,1-2.52,3.36c-4.85,4.18-12.35,2-12.85,1.86-2.08-.63-2-1.16-10.16-6.7-4.65-3.14-5.85-3.78-7.08-3.39-3.13,1-3.51,7.68-3.57,9.19.37,3,1,7.78,1.66,13.76.83,7.12,1.09,9.49-.47,11.68-2.19,3.06-6.07,3.66-8.18,4-9.17,1.43-16.77-4.19-19.12-6.09a28.29,28.29,0,0,0-28.34-8.69c-11.64,3.17-20.09,14-20.54,26.65a184.88,184.88,0,0,1-12.53,29.67c-7.8,14.76-15,28.34-28.9,39.78-23.15,19-50.15,20-57.48,20.15-8.32.18-32.95.37-55.75-15.95-18.57-13.28-27-31.12-33.26-44.45a144.82,144.82,0,0,1-9.41-26.35c-.69-4.19-5.66-32.64-20.15-35.61-1.77-.36-7.85,1.12-20.06,4.32-10.76,2.81-15.32,3.75-17.67,4.17-1,.17-1.47.26-1.74.29-6.55.84-15.52-1.1-19-6.11-3.25-4.7-.79-11.86,4.26-26,3.8-10.65,7.35-17.05,6.07-17.92-1.86-1.28-9.17,12.53-23.06,15.09-4.57.84-12.65,1-15.36-3.3-3.09-4.87,1.93-13.66,6.78-22.16,4.72-8.28,9.11-12.91,8-14.1-.54-.62-2.53-.33-8.68,3.38"/><path class="cls-2" d="M126,96.81c2.9-2.25,2.3-2.19,7-4.65,8.17-4.3,13.66-10.21,12.9-15.35-.3-2-1.45-3.55-3.11-5.83a36.09,36.09,0,0,0-9.14-8.76C113.11,47,94.55,41.78,83.11,39.74c-14.7-2.63-17.92-.09-19,1-9.13,9,8.68,46.7,12.14,54a139.7,139.7,0,0,0,9.26,17.64c5.69,9,10.42,16.36,15.33,15.81,1.4-.15,2.18-.87,8.66-10.39C109.47,117.79,119.68,101.74,126,96.81Z"/><path class="cls-2" d="M350.52,103.79c-2.8-2.37-2.2-2.29-6.77-5-8-4.65-13.2-10.79-12.22-15.89.38-1.94,1.61-3.48,3.36-5.69a35.86,35.86,0,0,1,9.51-8.36c21.2-14.32,40-18.72,51.48-20.27,14.8-2,17.92.69,19,1.84,8.72,9.41-10.7,46.27-14.47,53.4a136.8,136.8,0,0,1-10,17.22c-6.07,8.77-11.11,15.9-16,15.14-1.39-.22-2.14-1-8.2-10.76C366.17,125.47,356.66,109,350.52,103.79Z"/><path class="cls-2" d="M149,357.75a54.08,54.08,0,0,0-14.38-16.47,55.9,55.9,0,0,0-19.84-5.66c-9.52-.85-15.42,1.21-18-2.29-3.12-4.21,1.61-12.3,2.19-13.27,4.06-6.78,10.89-9.07,13-9.69a73.19,73.19,0,0,1,68.25,9.55,83.7,83.7,0,0,1,21.1,35.16c0,22.69,14.53,39.49,29.07,40.56,15,1.11,27.46-14.79,32.37-24a48.18,48.18,0,0,0,5.09-15.58,62,62,0,0,1,48.05-45.54,48.87,48.87,0,0,1,38.83,6.54c10.39,3.23,14.42,12.78,12,17.85-1.92,4-8.36,6.31-15.32,4.9a26.57,26.57,0,0,0-18.56,1c-8.77,4-14.58,13.08-15.25,23.44-3.3,9.1-8.3,22.75-14.71,39.61-6.09,16-9.47,24.45-18,32.21a52.74,52.74,0,0,1-15.71,9.84,84.69,84.69,0,0,1-31.49,7.88,85.65,85.65,0,0,1-43.38-9.5c-14.68-7.65-21.91-16.61-25.79-23.38-6.48-11.28-9.77-27.06-13.31-44C153.88,370.6,152.88,364.81,149,357.75Z"/><path d="M237.16,400.88a13.51,13.51,0,0,0,2.42,8.8c2.86,3.67,7.46,4.35,10,4.85,15.51,3.11,29.66,15,28.77,17.53-.49,1.35-5.84.5-6.65.37-7-1.1-10.62-4.85-16.26-8.22a51.27,51.27,0,0,0-15.44-6,54.59,54.59,0,0,0-9.54-1.29,46,46,0,0,0-9,.55,44.48,44.48,0,0,0-15,5.67,121.19,121.19,0,0,0-10.82,7.63c-3.76,2.88-5.77,4.64-8.28,4.14a4.94,4.94,0,0,1-3.77-3.21c-.92-3.65,5.11-8,7.27-9.52,14.06-10.07,27.2-6.31,31.21-14.41a11,11,0,0,0,.8-6.86"/><path d="M248.12,402.76c8.3-1.61,18.93-8.31,21.78-19.63.55-2.18,2.09-9.8-2-17.19-2.29-4.15-6.18-7.45-11.84-10.08-15.13-7-30.63-7.3-45.94-.46-10.76,4.81-14.84,12-14.32,23.78a23.48,23.48,0,0,0,3.71,12.23c4.09,6.11,10.17,8.34,12.71,9.27a37.69,37.69,0,0,0,8.11,1.72c2.16.31,7.23,1,18.68.72C244.46,403,247.19,402.94,248.12,402.76Z"/><path d="M295.53,233.81c-4.62-8.26-5.28-15.8-5.75-21.95-.8-10.38-1.33-17.4,2.68-20.23.14-.1.25-.16.38-.24,7.82-4.58,20.75,1.07,25.7,3.3,7.82,3.51,11.86,5.33,16,9.84,2.38,2.58,10.87,11.76,8.79,23.93-1.95,11.4-12,20.9-22.57,21.27a27.92,27.92,0,0,1-14.38-3.59C300.46,242.62,297.71,237.71,295.53,233.81Z"/><path d="M185,225.8a67,67,0,0,0,3.47-9.82c2.65-9.89,6.65-24.55.76-29.55-3.9-3.34-10.54-1.13-21.64,2.55-14,4.64-21.11,7-26.11,14.79-6.07,9.45-5.84,21.88-2.32,29.67.92,2,6.28,13.88,17.36,15.33,9.52,1.24,16.95-6,19.9-8.9C180.73,235.57,182.92,230.34,185,225.8Z"/></g></g><path class="cls-3" d="M178.16,156.65c5.38.34,9.51-2.36,13.25-6.1C213,129,234.31,107.26,256.2,86.07c9-8.74,7.39-20.4.9-28-5.69-6.63-18.58-11.52-27.43-2.65-22.65,22.69-45.39,45.27-68,68a16.42,16.42,0,0,0-3.85,6.62C153.86,143.38,164,156.62,178.16,156.65Z"/><path class="cls-4" d="M155.9,135.87c.14-5.87,1.79-10.19,5.49-13.86q33.17-32.92,66.19-66A20.29,20.29,0,0,1,259,58.74c6.31,8.95,6.74,19.64-2.25,28.35-21.56,20.89-42.62,42.3-63.87,63.5-7.66,7.64-14.47,9.2-23.6,5.4A21.49,21.49,0,0,1,155.9,135.87Zm22.26,20.78c5.38.34,9.51-2.36,13.25-6.1C213,129,234.31,107.26,256.2,86.07c9-8.74,7.39-20.4.9-28-5.69-6.63-18.58-11.52-27.43-2.65-22.65,22.69-45.39,45.27-68,68a16.42,16.42,0,0,0-3.85,6.62C153.86,143.38,164,156.62,178.16,156.65Z"/><rect class="cls-5" x="187.5" y="83.39" width="48.16" height="35.77" rx="5" transform="translate(-9.64 179.28) rotate(-45)"/><rect class="cls-6" x="187.5" y="83.39" width="48.16" height="35.77" rx="5" transform="translate(-9.64 179.28) rotate(-45)"/></g></g></svg>