<svg xmlns="http://www.w3.org/2000/svg" viewBox="0 0 462.14 474.63"><defs><style>.cls-1{fill:#a7a9ac;}.cls-2{fill:#d1d3d4;}.cls-3{fill:#51caf5;}.cls-4{fill:#27aae1;}</style></defs><g id="Layer_2" data-name="Layer 2"><g id="Layer_1-2" data-name="Layer 1"><path class="cls-1" d="M26,292.46c-9.15,2-16.94.22-20.4-2.72A16.11,16.11,0,0,1,.4,282c-.07-.3-.11-.53-.14-.67-1-5.33,1.18-9.89,2.72-12.78,6-11.18,13.44-18.41,20.59-26,6.94-7.33,11.63-12.88,17.07-19.35,9.85-11.73,14.89-17.75,19.59-26.2,5.3-9.54,8.35-15,9-22.62,1-10.8-3.45-18.24-12.55-35C52,130.69,44.48,116.75,35.26,98.59A188.62,188.62,0,0,1,24.2,60.8c-2-11.2-3.61-20.4-1.68-32.36A74.7,74.7,0,0,1,29.15,7.67a60.21,60.21,0,0,1,16.3-6.3C52.84-.3,61-.65,73,1.49A137.61,137.61,0,0,1,109.83,13.7C131.43,24.32,154,35.55,178,48a164.27,164.27,0,0,1,127.33,2.76,260,260,0,0,1,68.7-33.21c21.89-6.79,65.18-20.11,78.71-3,4.79,6.08,4,15.29,2.38,33.72a198.41,198.41,0,0,1-9.55,45.91l-36.11,65.29a38.69,38.69,0,0,0-7.55,19.32c-1.08,11.19,3.85,19.8,9.81,29.69C436.45,249.44,451,271,451,271c5.57,8.25,14.25,21.07,10,27.57-1.3,2-4.63,4.65-8.6,5.92-2.54.81-3.38.2-8.07.74-6,.69-9,1-9.83,2.71-1.49,2.83,4.32,5.77,7.54,15.09.84,2.44,3.34,9.94,0,16.35a10.52,10.52,0,0,1-2.52,3.36c-4.85,4.18-12.35,2-12.85,1.86-2.08-.63-2-1.16-10.16-6.7-4.65-3.14-5.85-3.78-7.08-3.39-3.13,1-3.51,7.68-3.57,9.19.37,3,1,7.78,1.66,13.76.83,7.12,1.09,9.49-.47,11.68-2.19,3.06-6.07,3.66-8.18,4-9.17,1.43-16.77-4.19-19.12-6.09a28.31,28.31,0,0,0-28.34-8.69c-11.64,3.17-20.09,14-20.54,26.65a185.26,185.26,0,0,1-12.53,29.67c-7.8,14.76-15,28.34-28.9,39.78-23.15,19-50.15,20-57.48,20.15-8.32.18-32.95.37-55.75-15.95-18.57-13.28-27-31.12-33.26-44.45a143.76,143.76,0,0,1-9.41-26.35c-.69-4.19-5.66-32.64-20.15-35.61-1.77-.36-7.85,1.12-20.06,4.32-10.76,2.81-15.32,3.75-17.67,4.17-1,.17-1.47.26-1.74.29-6.55.84-15.52-1.1-19-6.11-3.25-4.7-.79-11.86,4.26-26,3.8-10.65,7.35-17.05,6.07-17.92-1.86-1.28-9.17,12.53-23.06,15.09-4.57.84-12.65,1-15.36-3.3-3.09-4.87,1.93-13.66,6.78-22.16,4.72-8.28,9.11-12.91,8-14.1-.54-.62-2.53-.33-8.68,3.38"/><path class="cls-2" d="M126.05,96.81c2.9-2.25,2.3-2.19,7-4.65,8.17-4.3,13.66-10.21,12.9-15.35-.3-2-1.45-3.55-3.11-5.83a36.15,36.15,0,0,0-9.14-8.76C113.12,47,94.56,41.78,83.12,39.74c-14.7-2.63-17.92-.09-19,1-9.13,9,8.68,46.7,12.14,54a138.46,138.46,0,0,0,9.26,17.64c5.69,9,10.42,16.36,15.33,15.81,1.4-.15,2.18-.87,8.66-10.39C109.48,117.79,119.69,101.74,126.05,96.81Z"/><path class="cls-2" d="M350.53,103.79c-2.8-2.37-2.2-2.29-6.77-5-8-4.65-13.2-10.79-12.22-15.89.38-1.94,1.61-3.48,3.36-5.69a35.79,35.79,0,0,1,9.51-8.36c21.2-14.32,40-18.72,51.48-20.27,14.8-2,17.92.69,19,1.84,8.72,9.41-10.7,46.27-14.47,53.4a138.17,138.17,0,0,1-10,17.22c-6.07,8.77-11.11,15.9-16,15.14-1.39-.22-2.14-1-8.2-10.76C366.18,125.47,356.67,109,350.53,103.79Z"/><path class="cls-2" d="M149,357.75a54.17,54.17,0,0,0-14.38-16.47,55.84,55.84,0,0,0-19.84-5.66c-9.52-.85-15.42,1.21-18-2.29-3.12-4.21,1.61-12.3,2.19-13.27,4.06-6.78,10.89-9.07,13-9.69a73.19,73.19,0,0,1,68.25,9.55,83.81,83.81,0,0,1,21.1,35.16c0,22.69,14.53,39.49,29.07,40.56,15,1.11,27.46-14.79,32.37-24a48.32,48.32,0,0,0,5.09-15.58,61.94,61.94,0,0,1,48.05-45.54,48.9,48.9,0,0,1,38.83,6.54c10.39,3.23,14.42,12.78,12,17.85-1.92,4-8.36,6.31-15.32,4.9a26.55,26.55,0,0,0-18.56,1c-8.77,4-14.58,13.08-15.25,23.44-3.3,9.1-8.3,22.75-14.71,39.61-6.09,16-9.47,24.45-18,32.21a52.85,52.85,0,0,1-15.71,9.84,84.66,84.66,0,0,1-31.49,7.88,85.62,85.62,0,0,1-43.38-9.5c-14.68-7.65-21.91-16.61-25.79-23.38-6.48-11.28-9.77-27.06-13.31-44C153.89,370.6,152.89,364.81,149,357.75Z"/><path d="M237.17,400.88a13.45,13.45,0,0,0,2.42,8.8c2.86,3.67,7.46,4.35,10,4.85,15.51,3.11,29.66,15,28.77,17.53-.49,1.35-5.84.5-6.65.37-7-1.1-10.62-4.85-16.26-8.22a51.22,51.22,0,0,0-15.44-6,54.36,54.36,0,0,0-9.54-1.29,45.59,45.59,0,0,0-9,.55,44.44,44.44,0,0,0-15,5.67,120.8,120.8,0,0,0-10.82,7.63c-3.76,2.88-5.77,4.64-8.28,4.14a4.94,4.94,0,0,1-3.77-3.21c-.92-3.65,5.11-8,7.27-9.52,14.06-10.07,27.2-6.31,31.21-14.41a11,11,0,0,0,.8-6.86"/><path d="M248.13,402.76c8.3-1.61,18.93-8.31,21.78-19.63.55-2.18,2.09-9.8-2-17.19-2.29-4.15-6.18-7.45-11.84-10.08-15.13-7-30.63-7.3-45.94-.46-10.76,4.81-14.84,12-14.32,23.78a23.45,23.45,0,0,0,3.71,12.23c4.09,6.11,10.17,8.34,12.71,9.27a37.83,37.83,0,0,0,8.11,1.72c2.16.31,7.23,1,18.68.72C244.47,403,247.2,402.94,248.13,402.76Z"/><path class="cls-3" d="M186.85,111.93c3.89,6.75,7.94,13.66,11.84,20.66a28.76,28.76,0,0,1,3.42,9.47,14,14,0,0,1-8.83,15.58c-4.34,1.7-8.82,2.3-13.2.22-4.93-2.34-7.52-6.5-8.53-11.74-.94-4.9.68-9.27,3-13.38,2.44-4.28,5.17-8.39,7.69-12.62C183.9,117.38,185.39,114.56,186.85,111.93Z"/><path class="cls-4" d="M184.94,115.45a35.17,35.17,0,0,0,.26,14c1,4.2,2.4,6.51,2.91,12a21.55,21.55,0,0,1-.44,8.12c-1.22,4.26-4.3,8.92-6.81,8.6a7.55,7.55,0,0,1-2.83-1.51,14.34,14.34,0,0,1-2.13-1.76,14.77,14.77,0,0,1-3-4.33,17.45,17.45,0,0,1-1.61-7.44,20.26,20.26,0,0,1,2.73-9.48c.22-.42,1-1.79,2.69-4.52,1.38-2.28,2.35-3.87,2.8-4.6C180.8,122.52,182.61,119.51,184.94,115.45Z"/><path d="M202,242.51a144.48,144.48,0,0,0-55.53-20.9c-3.58.21-6.29,2.69-6.57,5.27-.35,3.22,3,7,7.81,6.69l35.28,10a162.18,162.18,0,0,0-51.69,7.33,10,10,0,0,0-4,9.31,10.17,10.17,0,0,0,9.26,8.37A89.38,89.38,0,0,1,155,258.17c10.57-4.37,16.7-4.45,30.57-9.14A169.55,169.55,0,0,0,202,242.51Z"/><path d="M270.65,242.51a144.45,144.45,0,0,1,55.54-20.9c3.57.21,6.28,2.69,6.56,5.27.35,3.22-3,7-7.81,6.69l-35.28,10a162.18,162.18,0,0,1,51.69,7.33,10,10,0,0,1,4,9.31,10.17,10.17,0,0,1-9.26,8.37,89.38,89.38,0,0,0-18.48-10.44c-10.57-4.37-16.7-4.45-30.57-9.14A169.55,169.55,0,0,1,270.65,242.51Z"/></g></g></svg>