<?xml version="1.0" standalone="no"?>
<!DOCTYPE svg PUBLIC "-//W3C//DTD SVG 20010904//EN"
 "http://www.w3.org/TR/2001/REC-SVG-20010904/DTD/svg10.dtd">
<svg version="1.0" xmlns="http://www.w3.org/2000/svg"
 width="301.000000pt" height="301.000000pt" viewBox="0 0 301.000000 301.000000"
 preserveAspectRatio="xMidYMid meet">
<metadata>
Created by potrace 1.14, written by Peter Selinger 2001-2017
</metadata>
<g transform="translate(0.000000,301.000000) scale(0.100000,-0.100000)"
fill="#000000" stroke="none">
<path d="M1437 3004 c-1 -1 -46 -4 -99 -7 -110 -7 -159 -23 -184 -63 -16 -24
-18 -50 -17 -228 1 -111 2 -450 3 -754 0 -314 4 -552 9 -550 5 2 298 289 651
638 l642 635 -44 37 c-52 45 -85 58 -116 47 -13 -5 -228 -216 -479 -469 -252
-253 -461 -460 -466 -460 -5 0 -7 56 -5 128 3 106 7 132 23 157 11 16 184 193
385 393 417 415 392 370 236 421 -122 39 -180 51 -321 66 -52 6 -214 12 -218
9z m303 -203 c0 -3 -89 -92 -197 -198 l-198 -193 -3 187 c-1 103 -1 192 2 198
3 10 396 16 396 6z"/>
<path d="M846 2858 c-20 -10 -44 -30 -53 -45 -17 -25 -18 -104 -21 -1300 -2
-1081 0 -1277 12 -1306 15 -37 71 -70 136 -82 l35 -6 0 1381 0 1381 -37 -3
c-20 -1 -53 -10 -72 -20z"/>
<path d="M513 2631 c-73 -64 -169 -166 -202 -214 -8 -12 -18 -24 -22 -27 -17
-13 -111 -168 -148 -243 -40 -83 -94 -240 -106 -307 -28 -150 -33 -219 -30
-370 2 -91 5 -174 8 -185 3 -11 8 -40 12 -65 32 -199 126 -413 264 -600 53
-73 283 -310 300 -310 4 0 8 538 8 1195 0 657 -1 1195 -3 1195 -2 0 -39 -31
-81 -69z m-105 -1133 c1 -699 0 -702 -19 -678 -11 14 -42 70 -70 126 -140 283
-161 677 -52 994 36 105 116 260 134 260 4 0 7 -316 7 -702z"/>
<path d="M2514 2402 c-56 -53 -196 -187 -310 -298 -115 -111 -231 -222 -259
-249 -27 -26 -146 -140 -264 -254 -117 -113 -227 -218 -243 -233 l-30 -26 159
-162 c87 -89 192 -197 233 -239 238 -248 615 -631 619 -631 3 1 37 30 76 65
l70 63 -180 177 c-99 97 -299 294 -443 438 l-264 261 78 73 79 73 430 -430
431 -431 56 78 c91 127 187 342 213 479 42 228 49 410 20 594 -12 77 -18 103
-41 187 -56 208 -166 406 -296 530 l-33 32 -101 -97z m124 -239 c115 -148 184
-400 182 -666 0 -56 -2 -113 -4 -127 -2 -14 -7 -50 -11 -80 -10 -80 -51 -215
-91 -299 -19 -41 -36 -72 -39 -70 -2 2 -162 159 -355 349 l-352 344 54 51 c30
27 87 81 128 119 41 38 100 92 130 120 30 28 111 103 180 166 69 63 127 118
128 123 7 15 21 6 50 -30z"/>
<path d="M1145 633 l0 -588 85 -18 c92 -19 373 -28 467 -15 152 22 354 83 477
145 l49 25 -106 101 c-58 56 -244 238 -414 403 -452 441 -547 534 -553 534 -3
0 -5 -264 -5 -587z m239 100 c22 -20 82 -73 131 -118 85 -77 255 -231 337
-305 35 -31 37 -34 20 -46 -19 -13 -124 -49 -177 -60 -55 -11 -270 -13 -315
-2 l-45 10 0 279 c0 154 2 279 4 279 2 0 22 -16 45 -37z"/>
</g>
</svg>
