<?xml version="1.0" encoding="UTF-8"?><svg id="Layer_2" xmlns="http://www.w3.org/2000/svg" viewBox="0 0 222.31 218.76"><defs><style>.cls-1,.cls-2{fill:#00407f;}.cls-3{fill:#fff;}.cls-4{fill:#6ac6ff;}.cls-2{font-family:ArialRoundedMTBold, 'Arial Rounded MT Bold';font-size:66.43px;}</style></defs><g id="Layer_1-2"><path class="cls-1" d="M165.28,205.43c-.7,.78-1.32,2.07-2.31,2.5-8.37,3.6-16.78,7.08-25.22,10.51-2.04,.83-3.46,0-4.44-2.32-2.09-4.98-4.19-9.95-6.15-14.98-.65-1.66-1.51-2.13-3.24-1.84-7.63,1.28-15.28,1.27-22.9,.01-1.66-.27-2.45,.23-3.06,1.78-1.94,4.96-4,9.86-6.05,14.77-1.19,2.84-2.56,3.47-5.35,2.32-8-3.29-15.99-6.61-23.97-9.95-2.47-1.04-3.07-2.55-2.02-5.15,2.05-5.08,4.13-10.14,6.28-15.17,.57-1.34,.45-2.11-.8-3.01-6.47-4.65-12.05-10.25-16.7-16.73-.91-1.27-1.69-1.33-3-.76-4.81,2.07-9.66,4.04-14.5,6.04-3.32,1.37-4.7,.83-6.05-2.44-3.17-7.66-6.33-15.32-9.46-22.99-1.35-3.31-.83-4.49,2.4-5.84,.28-.12,.56-.23,.83-.37,6.72-3.29,13.41-5.54,21.27-3.83,5.09,1.11,10.6,.47,15.92,.37,2.2-.04,3.24,.6,4.21,2.68,8.68,18.74,23.32,30.01,43.64,33.09,25.24,3.82,49.34-9.87,59.62-33.28,.86-1.95,1.88-2.49,3.88-2.47,9.28,.08,18.55,0,27.83,0,.75,0,1.54,.08,2.23,.36,3.03,1.21,6.05,2.46,9.03,3.79,2.2,.98,2.86,2.45,1.98,4.6-3.38,8.31-6.8,16.6-10.28,24.87-.95,2.25-2.54,2.71-5.11,1.66-4.92-2-9.86-3.98-14.71-6.13-1.63-.72-2.49-.52-3.54,.94-4.47,6.24-9.83,11.64-16.06,16.09-1.68,1.2-1.73,2.2-.99,3.9,2.01,4.6,3.86,9.26,5.76,13.91,.34,.83,.59,1.71,1.06,3.09Z"/><g><path class="cls-4" d="M0,92.51c.63-2.18,1.27-4.35,1.87-6.53,3.88-14.03,12.71-23.63,26.19-28.76,2.93-1.12,4.26-2.72,5.44-5.51,6.25-14.85,16.93-22.78,33-20.49,3.5,.5,5.38-.13,7.56-3.2,27.79-39.11,87.12-36.95,111.36,4.45,4.83,8.26,6.61,18.41,9.15,27.87,.81,3.03,1.61,4.79,4.57,6.08,14.96,6.52,24.45,22,23.02,37.03-1.72,18.01-12.85,31.2-29.85,34.95-3.65,.8-7.52,.84-11.29,.85-44.98,.05-89.96,.06-134.94,.03-24.87-.02-39.95-12.24-45.33-36.6-.1-.45-.5-.82-.77-1.23v-8.92Z"/><path class="cls-3" d="M132.67,19.1c12.27,1.05,23.13,6.35,31.52,16.18,1.25,1.46,1.65,5.56,.58,6.72-2.31,2.51-4.42-.13-5.84-2.13-6.52-9.11-15.84-12.85-26.49-14.12-1.31-.16-2.86,.08-3.86-.56-1.27-.82-2.1-2.34-3.11-3.56,1.21-.84,2.33-1.87,3.65-2.46,.82-.37,1.95-.07,3.57-.07Z"/></g><path class="cls-3" d="M195.28,80.88c9.49,7.85,15.41,18.38,16.71,31.24,.19,1.92-1.81,5.51-3.35,5.85-3.33,.75-3.56-2.62-3.6-5.07-.18-11.2-5.71-19.58-13.76-26.69-.99-.87-2.4-1.57-2.86-2.66-.58-1.4-.39-3.12-.53-4.7,1.47,0,2.98-.22,4.4,.05,.89,.17,1.64,1.05,2.97,1.97Z"/><text class="cls-2" transform="translate(57.26 113.57) scale(.83 1)"><tspan x="0" y="0">API</tspan></text></g></svg>