<?xml version="1.0" encoding="UTF-8"?><svg id="Layer_2" xmlns="http://www.w3.org/2000/svg" viewBox="0 0 226.85 154.58"><defs><style>.cls-1{fill:none;stroke:#f1f2f2;stroke-linecap:round;stroke-miterlimit:10;stroke-width:8px;}</style></defs><g id="Layer_1-2"><g><path class="cls-1" d="M34.73,122.1C13.15,116.16,.78,97.33,4.73,80.57c2.96-12.55,14.79-22.76,30-26.18,.23-1.28,2.74-13.89,16-19.86,11.4-5.13,22.24-1.52,24-.9C90.04,9.75,121.48-1.39,149.73,6.53c26.17,7.34,44.52,29.62,45,55.08,15.39,3.04,26.74,14.57,28,27.99,1.43,15.22-10.4,29.8-28,33.41"/><g><path class="cls-1" d="M79.4,120h11c3.85,0,7-3.15,7-7v-27"/><line class="cls-1" x1="115.4" y1="87" x2="115.4" y2="131"/><path class="cls-1" d="M153.4,121h-11c-3.85,0-7-3.15-7-7v-27"/><circle class="cls-1" cx="68.9" cy="120.5" r="9"/><circle class="cls-1" cx="114.95" cy="141.57" r="9"/><circle class="cls-1" cx="163.95" cy="121.57" r="9"/></g></g></g></svg>