<?xml version="1.0" encoding="UTF-8"?><svg id="Layer_2" xmlns="http://www.w3.org/2000/svg" viewBox="0 0 206.9 134.94"><defs><style>.cls-1,.cls-2{fill:#fff;}.cls-3,.cls-4{fill:#635bff;}.cls-2{stroke:#000;stroke-miterlimit:10;}.cls-4{fill-rule:evenodd;}</style></defs><g id="Layer_1-2"><g id="Layer_2-2"><g id="Layer_1-2"><ellipse class="cls-2" cx="35.79" cy="97.73" rx="35.29" ry="36.71"/><ellipse class="cls-2" cx="167.11" cy="91.53" rx="39.29" ry="42.91"/><ellipse class="cls-2" cx="99.09" cy="58.61" rx="60.19" ry="58.11"/><rect class="cls-1" x="35.79" y="62.7" width="131.32" height="71.74"/><g><path class="cls-4" d="M191.86,93.4c0-11.68-5.66-20.89-16.47-20.89s-17.42,9.21-17.42,20.8c0,13.73,7.75,20.66,18.88,20.66,5.43,0,9.53-1.23,12.63-2.96v-9.12c-3.1,1.55-6.66,2.51-11.18,2.51s-8.35-1.55-8.85-6.93h22.3c0-.59,.09-2.96,.09-4.06Zm-22.53-4.33c0-5.15,3.15-7.3,6.02-7.3s5.75,2.14,5.75,7.3h-11.77Z"/><path class="cls-4" d="M140.36,72.51c-4.47,0-7.34,2.1-8.94,3.56l-.59-2.83h-10.03v53.19l11.4-2.42,.05-12.91c1.64,1.19,4.06,2.87,8.07,2.87,8.16,0,15.6-6.57,15.6-21.03-.05-13.23-7.57-20.43-15.55-20.43Zm-2.74,31.43c-2.69,0-4.29-.96-5.38-2.14l-.05-16.92c1.19-1.32,2.83-2.24,5.43-2.24,4.15,0,7.02,4.65,7.02,10.63s-2.83,10.67-7.02,10.67Z"/><polygon class="cls-4" points="105.1 69.82 116.55 67.35 116.55 58.09 105.1 60.51 105.1 69.82"/><rect class="cls-3" x="105.1" y="73.28" width="11.45" height="39.91"/><path class="cls-4" d="M92.83,76.66l-.73-3.38h-9.85v39.91h11.4v-27.05c2.69-3.51,7.25-2.87,8.67-2.37v-10.49c-1.46-.55-6.8-1.55-9.49,3.38Z"/><path class="cls-4" d="M70.03,63.39l-11.13,2.37-.05,36.54c0,6.75,5.06,11.72,11.81,11.72,3.74,0,6.48-.68,7.98-1.51v-9.26c-1.46,.59-8.67,2.69-8.67-4.06v-16.19h8.67v-9.72h-8.67l.05-9.9Z"/><path class="cls-4" d="M39.19,84.87c0-1.78,1.46-2.46,3.88-2.46,3.47,0,7.85,1.05,11.31,2.92v-10.72c-3.79-1.51-7.53-2.1-11.31-2.1-9.26,0-15.42,4.84-15.42,12.91,0,12.59,17.33,10.58,17.33,16.01,0,2.1-1.82,2.78-4.38,2.78-3.79,0-8.62-1.55-12.45-3.65v10.86c4.24,1.82,8.53,2.6,12.45,2.6,9.49,0,16.01-4.7,16.01-12.86-.05-13.59-17.42-11.18-17.42-16.28Z"/></g></g></g></g></svg>