<svg xmlns="http://www.w3.org/2000/svg" viewBox="0 0 474.91 346.4"><g id="Layer_2" data-name="Layer 2"><g id="Слой_1" data-name="Слой 1"><path d="M465.9,264.2a9.16,9.16,0,0,0,4.3-1.1,9.05,9.05,0,0,0,3.6-12.3l-78-142.1c-4.7-8.6-13-13.8-22.2-13.8h-.1c-9.2,0-17.5,5.2-22.2,13.9l-25.8,47.4L267.7,50.4c-6-10.9-16.5-17.4-28-17.4h-.1c-11.6,0-22,6.6-28,17.6L154.9,154.8l-25.3-46.2c-4.7-8.6-13-13.8-22.2-13.8h-.1c-9.2,0-17.5,5.2-22.2,13.8L31.7,202.8a9,9,0,0,0,3.4,12.3,8.83,8.83,0,0,0,4.4,1.2,9.06,9.06,0,0,0,7.9-4.6l23.3-41.2,15.2,14a6.67,6.67,0,0,0,4.6,1.8,7.22,7.22,0,0,0,3.2-.8L118,172.2l21.7,10.4-38,69.7a8.91,8.91,0,0,0,3.6,12.2,9.47,9.47,0,0,0,4.3,1.1,8.93,8.93,0,0,0,7.9-4.7L178,149.7l28.5-13.2L235.3,155a6.87,6.87,0,0,0,7.3,0l28.3-18.2,33.6,20.1c.3.2.6.3.9.5l30.8,56.3a9.06,9.06,0,0,0,15.9-8.7l-14.6-26.7,18.1-5L378,189.1a6.86,6.86,0,0,0,7.6.1l24.7-16.4,47.6,86.8A9.44,9.44,0,0,0,465.9,264.2ZM114.6,158.7l-23,12.6-14-12.9,23.2-41c1.5-2.8,3.9-4.5,6.4-4.5h0c2.5,0,4.9,1.6,6.4,4.4l28.1,51.2-21-10.1A6.91,6.91,0,0,0,114.6,158.7Zm159.7-35.6a6.73,6.73,0,0,0-7.1.1L239,141.3l-28.2-18.1a6.82,6.82,0,0,0-6.5-.4l-15.4,7.1,38.5-70.7c2.8-5.2,7.3-8.2,12.2-8.2h0c4.9,0,9.4,3,12.2,8.1l41.1,75Zm107.8,52.2-21.2-15a6.79,6.79,0,0,0-5.7-1l-12.7,3.5,24.7-45.5c1.5-2.8,3.9-4.5,6.4-4.5h0c2.5,0,4.9,1.6,6.4,4.4l23.9,43.5Z"/><path d="M20.6,289.3a5.16,5.16,0,0,0,5.2-5.2V271.4a44.9,44.9,0,0,0,13.5,5.2,4.87,4.87,0,0,0,1.2.1,6.08,6.08,0,0,0,5.9-4.8,6.17,6.17,0,0,0-4.7-7.1c-3.1-.6-14.8-4.2-15.1-10.5a35.57,35.57,0,0,0,7.9,3.5,5.85,5.85,0,0,0,1.3.2,5.43,5.43,0,0,0,5.1-3.9,5.23,5.23,0,0,0-3.7-6.4c-.1,0-11.4-3.2-11.4-11.6v-2.8a33.83,33.83,0,0,0,8.7,4,5.85,5.85,0,0,0,1.3.2,5.34,5.34,0,0,0,5.1-3.9,5.21,5.21,0,0,0-3.8-6.4c-.1,0-11.4-3.1-11.4-11.5a5.2,5.2,0,0,0-10.4,0c0,8.3-11.2,11.5-11.4,11.6a5.24,5.24,0,0,0,1.4,10.3,5.85,5.85,0,0,0,1.3-.2,32.33,32.33,0,0,0,8.7-4v2.9c0,8.3-11.2,11.5-11.4,11.6a5.24,5.24,0,0,0,1.4,10.3,5.85,5.85,0,0,0,1.3-.2,38.62,38.62,0,0,0,7.8-3.4c-1.9,8.2-8.3,10.2-9.2,10.4a5.9,5.9,0,0,0-4.3,7.2,6.07,6.07,0,0,0,5.8,4.6,6.75,6.75,0,0,0,1.4-.2,25.21,25.21,0,0,0,7.2-3.4v10.9A5.25,5.25,0,0,0,20.6,289.3Z"/><path d="M75.3,289.3a5.16,5.16,0,0,0,5.2-5.2V271.4A44.9,44.9,0,0,0,94,276.6a4.87,4.87,0,0,0,1.2.1,6.08,6.08,0,0,0,5.9-4.8,6,6,0,0,0-4.7-7.1c-3.2-.6-14.8-4.3-15.1-10.5a35.57,35.57,0,0,0,7.9,3.5,5.85,5.85,0,0,0,1.3.2,5.43,5.43,0,0,0,5.1-3.9,5.23,5.23,0,0,0-3.7-6.4c-.1,0-11.4-3.2-11.4-11.6v-2.8a33.83,33.83,0,0,0,8.7,4,5.85,5.85,0,0,0,1.3.2,5.43,5.43,0,0,0,5.1-3.9,5.23,5.23,0,0,0-3.7-6.4c-.1,0-11.4-3.2-11.4-11.6a5.2,5.2,0,0,0-10.4,0c0,8.3-11.2,11.5-11.4,11.6a5.24,5.24,0,0,0,1.4,10.3,5.85,5.85,0,0,0,1.3-.2,32.33,32.33,0,0,0,8.7-4v2.9c0,8.3-11.2,11.5-11.4,11.6a5.24,5.24,0,0,0,1.4,10.3,5.85,5.85,0,0,0,1.3-.2,35.57,35.57,0,0,0,7.9-3.5c-.3,6.2-12,9.8-15.1,10.5a6,6,0,0,0,1.2,11.9,4.87,4.87,0,0,0,1.2-.1,44.9,44.9,0,0,0,13.5-5.2v12.7A5.08,5.08,0,0,0,75.3,289.3Z"/><path d="M323.5,289.3a5.16,5.16,0,0,0,5.2-5.2V271.4a44.9,44.9,0,0,0,13.5,5.2,4.87,4.87,0,0,0,1.2.1,6.08,6.08,0,0,0,5.9-4.8,6,6,0,0,0-4.7-7.1c-3.2-.6-14.8-4.3-15.1-10.5a35.57,35.57,0,0,0,7.9,3.5,5.85,5.85,0,0,0,1.3.2,5.43,5.43,0,0,0,5.1-3.9,5.23,5.23,0,0,0-3.7-6.4c-.1,0-11.4-3.2-11.4-11.6v-2.8a33.83,33.83,0,0,0,8.7,4,5.85,5.85,0,0,0,1.3.2,5.43,5.43,0,0,0,5.1-3.9,5.23,5.23,0,0,0-3.7-6.4c-.1,0-11.4-3.2-11.4-11.6a5.2,5.2,0,0,0-10.4,0c0,8.3-11.2,11.5-11.4,11.6a5.24,5.24,0,0,0,1.4,10.3,5.85,5.85,0,0,0,1.3-.2,32.33,32.33,0,0,0,8.7-4v2.9c0,8.3-11.2,11.5-11.4,11.6a5.24,5.24,0,0,0,1.4,10.3,5.85,5.85,0,0,0,1.3-.2,35.57,35.57,0,0,0,7.9-3.5c-.3,6.2-12,9.8-15.1,10.5a6,6,0,0,0,1.2,11.9,4.87,4.87,0,0,0,1.2-.1,44.9,44.9,0,0,0,13.5-5.2v12.7A5.14,5.14,0,0,0,323.5,289.3Z"/><path d="M392,289.3a5.16,5.16,0,0,0,5.2-5.2V271.4a44.9,44.9,0,0,0,13.5,5.2,4.87,4.87,0,0,0,1.2.1,6.08,6.08,0,0,0,5.9-4.8,6,6,0,0,0-4.7-7.1c-3.2-.6-14.8-4.3-15.1-10.5a35.57,35.57,0,0,0,7.9,3.5,5.85,5.85,0,0,0,1.3.2,5.43,5.43,0,0,0,5.1-3.9,5.23,5.23,0,0,0-3.7-6.4c-.1,0-11.4-3.2-11.4-11.6v-2.8a33.83,33.83,0,0,0,8.7,4,5.85,5.85,0,0,0,1.3.2,5.43,5.43,0,0,0,5.1-3.9,5.23,5.23,0,0,0-3.7-6.4c-.1,0-11.4-3.2-11.4-11.6a5.2,5.2,0,0,0-10.4,0c0,8.3-11.1,11.5-11.4,11.6a5.24,5.24,0,0,0,1.4,10.3,5.85,5.85,0,0,0,1.3-.2,32.33,32.33,0,0,0,8.7-4v2.9c0,8.3-11.2,11.5-11.4,11.6a5.24,5.24,0,0,0,1.4,10.3,5.85,5.85,0,0,0,1.3-.2,35.57,35.57,0,0,0,7.9-3.5c-.3,6.2-12,9.8-15.1,10.5a6,6,0,0,0,1.2,11.9,4.87,4.87,0,0,0,1.2-.1,44.9,44.9,0,0,0,13.5-5.2v12.7A5.08,5.08,0,0,0,392,289.3Z"/><path d="M423.8,303.8l6.5,4.5a25.11,25.11,0,0,0,28.4,0,5.74,5.74,0,0,0-6.6-9.4,13.91,13.91,0,0,1-15.4,0l-9.7-6.8a5.55,5.55,0,0,0-6.5,0l-9.7,6.8a13.91,13.91,0,0,1-15.4,0l-9.7-6.8a5.55,5.55,0,0,0-6.5,0l-9.7,6.8a13.91,13.91,0,0,1-15.4,0l-9.7-6.8a5.55,5.55,0,0,0-6.5,0l-9.7,6.8a13.91,13.91,0,0,1-15.4,0l-9.7-6.8a5.55,5.55,0,0,0-6.5,0l-9.7,6.8a13.91,13.91,0,0,1-15.4,0l-9.7-6.8a5.55,5.55,0,0,0-6.5,0l-9.7,6.8a13.91,13.91,0,0,1-15.4,0l-9.7-6.8a5.55,5.55,0,0,0-6.5,0l-9.7,6.8a13.91,13.91,0,0,1-15.4,0l-9.7-6.8a5.55,5.55,0,0,0-6.5,0l-9.7,6.8a13.91,13.91,0,0,1-15.4,0l-9.7-6.8a5.55,5.55,0,0,0-6.5,0l-9.7,6.8a13.91,13.91,0,0,1-15.4,0l-9.7-6.8a5.55,5.55,0,0,0-6.5,0l-9.7,6.8a13.91,13.91,0,0,1-15.4,0l-9.7-6.8a5.55,5.55,0,0,0-6.5,0l-9.7,6.8a13.91,13.91,0,0,1-15.4,0,5.74,5.74,0,1,0-6.6,9.4,25.52,25.52,0,0,0,28.5,0l6.5-4.5,6.5,4.5a25.52,25.52,0,0,0,28.5,0l6.5-4.5,6.4,4.5a25.52,25.52,0,0,0,28.5,0l6.4-4.5,6.4,4.5a25.52,25.52,0,0,0,28.5,0l6.5-4.5,6.4,4.5a25.52,25.52,0,0,0,28.5,0l6.5-4.5,6.5,4.5a25.52,25.52,0,0,0,28.5,0l6.5-4.5,6.5,4.5a25.52,25.52,0,0,0,28.5,0l6.5-4.5,6.5,4.5a25.52,25.52,0,0,0,28.5,0l6.5-4.5,6.5,4.5a25.52,25.52,0,0,0,28.5,0l6.5-4.5,6.5,4.5a25.52,25.52,0,0,0,28.5,0Z"/><path d="M332.8,334.9a5.41,5.41,0,1,0-6.7-8.5l-8.6,6.8a10.37,10.37,0,0,1-12.9,0l-8.6-6.8a5.4,5.4,0,0,0-6.6,0l-8.6,6.8a10.37,10.37,0,0,1-12.9,0l-8.6-6.8a5.4,5.4,0,0,0-6.6,0l-8.6,6.8a10.37,10.37,0,0,1-12.9,0l-8.6-6.8a5.4,5.4,0,0,0-6.6,0l-8.6,6.8a10.37,10.37,0,0,1-12.9,0l-8.6-6.8a5.4,5.4,0,0,0-6.6,0l-8.6,6.8a10.37,10.37,0,0,1-12.9,0l-8.6-6.8a5.4,5.4,0,0,0-6.6,0l-8.6,6.8a10.37,10.37,0,0,1-12.9,0l-8.6-6.7a5.4,5.4,0,0,0-6.6,0l-8.6,6.8a10.37,10.37,0,0,1-12.9,0l-8.6-6.8a5.4,5.4,0,0,0-6.6,0l-8.6,6.8a10.52,10.52,0,0,1-4.7,2.1,11.2,11.2,0,0,1-7.4-.8,5.37,5.37,0,0,0-4.8,9.6,19.8,19.8,0,0,0,9.2,2.2,26.32,26.32,0,0,0,4.7-.4,21.28,21.28,0,0,0,9.6-4.2l5.3-4.2,5.3,4.2a21.17,21.17,0,0,0,26.1,0l5.3-4.2,5.3,4.2a21.17,21.17,0,0,0,26.1,0l5.3-4.2,5.3,4.2a21.17,21.17,0,0,0,26.1,0l5.3-4.2,5.3,4.2a21.17,21.17,0,0,0,26.1,0l5.3-4.2,5.3,4.2a21.17,21.17,0,0,0,26.1,0l5.3-4.2,5.3,4.2a21.17,21.17,0,0,0,26.1,0l5.3-4.2,5.3,4.2a21.17,21.17,0,0,0,26.1,0Z"/><path d="M396.4,51.6a5.79,5.79,0,0,0,5.7-4.8,16.9,16.9,0,0,0,.3-3,18.67,18.67,0,0,0-14.9-18.3,20.82,20.82,0,0,0-20.1-15.4h-1.2A23.16,23.16,0,0,0,324.5,18,17.06,17.06,0,0,0,312,32a15,15,0,0,0-9.4,13.9,5.7,5.7,0,0,0,5.7,5.7Zm-73.1-16a4.1,4.1,0,0,1-.1-1.1,5.59,5.59,0,0,1,5.6-5.6h.4a5.66,5.66,0,0,0,6.1-5.7v-.1A11.69,11.69,0,0,1,347,11.5a11.81,11.81,0,0,1,10.8,7.1,5.74,5.74,0,0,0,6.9,3.3,8.24,8.24,0,0,1,2.6-.4,9.26,9.26,0,0,1,9.3,9.2v.1a5.82,5.82,0,0,0,6.3,5.8h.8a7.06,7.06,0,0,1,6.2,3.6H322.2A5.93,5.93,0,0,0,323.3,35.6Z"/></g></g></svg>