<svg xmlns="http://www.w3.org/2000/svg" viewBox="0 0 259.58 256.88"><defs><style>.cls-1{fill:#d40000;}</style></defs><g id="Layer_2" data-name="Layer 2"><g id="svg8"><g id="layer1"><g id="g895"><path id="path872" d="M190.88,256.76a7.8,7.8,0,0,1-4.27-4.29,76.79,76.79,0,0,1-3.69-10.88c-1.16-4.87-3.61-13.74-5.38-19.52-.42-1.37-1-3.66-1.38-5.08-.74-3.12-1.34-5-4.07-12.65-5.1-14.32-8.5-22.12-12.74-29.29-1.5-2.54-2.08-3.05-2.51-2.25a29.92,29.92,0,0,0-.31,4.14c-.32,9.28-.71,12.49-2.22,18.23-1,3.84-2.68,7.29-6,12.35-1.32,2-3.6,5.57-5.06,7.87-5.16,8.14-7.46,10.67-9.75,10.7a3.23,3.23,0,0,1-2.36-1.06c-1.13-1-1.32-.89-3.64,1.9a80,80,0,0,1-7.28,7.42,130.33,130.33,0,0,1-12.55,9c-2.21,1-6.06,1.67-10,1.67-2.94,0-4.26-.54-5.17-2.1-.43-.73-.45-.94-.36-3.08.06-1.26.19-2.74.29-3.29a38.93,38.93,0,0,0,.9-9.16c0-2.19-.11-4.84-.24-5.88a80.15,80.15,0,0,1-.82-10c-.1-3.21-.23-4.66-.43-5.08-.77-1.63-3.3-1.72-13.43-.5-1.75.22-4.17.5-5.38.64-4.21.49-19.25.22-29.09-.52-2.19-.16-5.32-.36-6.94-.43-2.68-.12-3.06-.18-4-.66a3,3,0,0,1-1.49-1.46c-.46-.89-.47-1-.24-2.39a34.59,34.59,0,0,1,1-3.75c1.13-3.47,1.29-4.25,1-4.92s-1.49-1.29-7-3.26a60.58,60.58,0,0,1-10.46-4.94c-2.25-1.26-5.16-2.86-6.48-3.56-6.33-3.39-8.28-4.7-9-6.05a4.3,4.3,0,0,1,.34-3.78,14.17,14.17,0,0,1,2.94-3.54c4-4,7.19-6.24,13.26-9.5A71.16,71.16,0,0,0,23,154.17c.49-.43.43-.89-.17-1.45a3.14,3.14,0,0,1-1.07-2.62c0-1.39.57-2.58,2.33-4.84a32.5,32.5,0,0,1,9.9-8.47,59.12,59.12,0,0,1,8.94-3.07l4.1-.9c4.24-1,9-1.13,15.47-.51,1.83.18,8.63-1.05,12.62-2.28,1.76-.54,3.58-1.09,4.06-1.22a18.31,18.31,0,0,0,2.1-.79c1.12-.51,1.24-.63,1.24-1.15,0-.89-3.85-6.25-7.16-10-1.54-1.73-8.39-8.14-11.81-11l-4.61-3.91C53.56,97.4,42.23,85.29,37.29,78.83Q31.68,71.48,31,65.51a3.18,3.18,0,0,1,.4-2.36c.68-1.4,1.53-2.07,5.92-4.67,4.6-2.74,5.4-3.29,7.26-5a8.11,8.11,0,0,0,2.22-2.86A19.37,19.37,0,0,0,48,41.25C47.39,34,46.82,29,46.23,25.61c-.2-1.15-.47-2.76-.6-3.58s-.36-2.21-.51-3.09a43.53,43.53,0,0,1-.57-8.17C45,5.55,46.34,1.57,48.11.58c2.22-1.24,4.31-.65,11.66,3.34,7,3.78,10.08,5.55,15.13,8.58a87.77,87.77,0,0,0,11.63,5.9c1.68.55,2.38.42,5-.88,3.83-1.92,8.73-5.67,14.14-10.81,2.49-2.37,3.39-2.81,5-2.46a6.3,6.3,0,0,1,1.94.82c1.09.75,4,3.93,8.33,9.19a119.42,119.42,0,0,1,9,12c1.39,2.08,3.13,4.68,3.89,5.78a116.76,116.76,0,0,1,7.32,12.35c1.52,3.17,2.35,5.09,5.48,12.75s3.84,9.28,5.16,11.79c2.06,3.9,2.4,4.19,3.84,3.27a14.65,14.65,0,0,0,3.83-4.4c1.82-2.76,3.22-5.58,5.88-11.85,3.17-7.48,3.27-7.7,5.33-11.36,1-1.75,2.44-4.46,3.22-6a28.68,28.68,0,0,1,8-10.38c2.25-2,3.21-2.52,4.39-2.5,1.69,0,2.81.91,4.22,3.35s1.69,2.69,2.41,2.69a3,3,0,0,0,1.34-.43A35,35,0,0,0,199.36,27c1.35-1.41,1.79-2,5.07-6.45a92.82,92.82,0,0,1,8.3-9,11,11,0,0,1,5.63-3.1c3.28-.83,5.79.18,6.75,2.68a26.43,26.43,0,0,1,.84,3.95c.24,1.56.47,2.9.51,3s.18,1.37.31,2.89a39.74,39.74,0,0,1,0,8.05,20.21,20.21,0,0,0-.42,5.42,5.06,5.06,0,0,0,1,1.7c1,1.16,1.06,1.22,2,4.93a29.32,29.32,0,0,1,1,5.28c.4,5.22,1,6.78,3.31,7.94a20.7,20.7,0,0,0,2.69.71c5.08,1.11,8.08,2.81,8.45,4.82a18.69,18.69,0,0,1-.33,5.16c-.14.55-.65,2.39-1.14,4.09s-1.19,4.21-1.55,5.58c-.62,2.29-1.77,5.94-3.22,10.16a93.85,93.85,0,0,1-6.21,13.95,43.28,43.28,0,0,0-4.9,12.51c-.65,3.18-.48,3.42,3.29,4.62a75.74,75.74,0,0,1,12.8,5c1,.54,1.78,1,1.84,1s5.06,3.12,6.48,4.16a22.92,22.92,0,0,1,5,4.87c3.28,4.24,3.59,7.08.93,8.76-.58.37-1.82,1.09-2.75,1.6-2.86,1.56-6.32,4.18-12.45,9.42a30,30,0,0,1-7.08,4.67c-1.37.7-4.52,2.63-7,4.3-10.05,6.75-13.13,8.16-19.28,8.83-1.15.13-3,.45-4.18.71a40.69,40.69,0,0,1-10.32.91,83,83,0,0,1-10.9-.61,59,59,0,0,0-9.59,0c-.42.1-1.7.35-2.85.54a10.25,10.25,0,0,1-3.92.12c-2.09-.26-2.47-.19-2.47.47s1.64,4.17,4.64,10.17c1.27,2.53,3.29,6.7,4.49,9.26s2.73,5.82,3.4,7.22c1.06,2.23,3,6.92,4.71,11.4.29.77.94,2.42,1.43,3.68s2,5.48,3.44,9.37c2.6,7.23,3.94,10.84,5.4,14.54,2.19,5.56,5.07,15.31,5.06,17.15a3.08,3.08,0,0,1-1.7,3,4.88,4.88,0,0,1-2.68.54,10.86,10.86,0,0,1-2.29-.11Z"/><path id="path870" class="cls-1" d="M50.75,4.07c-1.07.06-1.53,1.14-2,4-.62,3.56-.37,7.53,1,15.18.7,4,1.06,6.68,1.51,11,.76,7.28.82,8.65.48,12.08-.42,4.19-1.19,6.33-3.14,8.67-1.46,1.74-5.08,4.44-8.65,6.45-3.38,1.9-4.64,2.81-4.9,3.54-.39,1.11.65,4.2,2.5,7.43a60.63,60.63,0,0,0,4.93,6.78c.4.44,1.48,1.69,2.42,2.77a165.1,165.1,0,0,0,18.93,19.18c6.54,5.45,12.8,11.29,15.31,14.29a91.33,91.33,0,0,1,7.42,10.16,3.85,3.85,0,0,1-.17,3.65,4.91,4.91,0,0,1-2.24,1.71,27.46,27.46,0,0,1-2.89,1.27,85,85,0,0,1-9,2.63c-.76.12-2.47.43-3.78.7a29.62,29.62,0,0,1-8.87.49c-6.59-.61-11.66.06-19.22,2.54-5.65,1.85-7.2,2.78-11,6.53-2.13,2.12-3.55,4-3.44,4.62a3.89,3.89,0,0,0,1.13,1.16c1.28,1,1.61,1.52,1.62,2.67,0,.78-.09.95-1.07,1.92a33.28,33.28,0,0,1-7.49,4.89,69.93,69.93,0,0,0-11,7c-.91.8-2.44,2.28-3.4,3.27C4.09,172.34,4,172.46,4.2,173s2.48,2,8.26,5.09c1.53.82,3.78,2,5,2.74a66.58,66.58,0,0,0,10.55,5c1.76.64,3.91,1.44,4.77,1.78,2.89,1.15,4.23,2.34,4.45,4a16.39,16.39,0,0,1-.84,5.53c-1.21,3.7-1.28,4.38-.44,4.56.24.06,2.59.24,5.22.41l7.47.49c10.77.74,24.93.65,26.46-.17a4.9,4.9,0,0,0,1.11-1.28,25,25,0,0,1,1.87-2.36,37.21,37.21,0,0,0,6-8.9c3.2-6.37,4.35-10.23,4.57-15.25.13-3.14.14-3.17.69-3.64s.93-.58,1.8-.17c1.12.53,1.42,1.3,1.39,3.58-.06,3.75-.66,6.53-2.5,11.46a54.74,54.74,0,0,1-7.46,13.61,12.31,12.31,0,0,0-1.07,1.5c0,.57.42.61,5,.57,5.58-.05,6.52.13,7.87,1.53s1.44,2.22,1.68,7.79a75.16,75.16,0,0,0,.84,9.76c.13.77.23,3.51.24,6.08a42,42,0,0,1-.86,10,23.51,23.51,0,0,0-.33,2.36c-.13,1.45-.11,1.54.34,1.86s.82.33,3,.24a28.12,28.12,0,0,0,4-.43,18.35,18.35,0,0,0,6.87-3.51c1.21-.9,3-2.17,3.87-2.82,4.58-3.21,8.36-7,13.58-13.42,1.94-2.41,3.29-2.58,5.11-.66a3.06,3.06,0,0,0,1.35,1c.82,0,2.3-2,7.11-9.56,1.91-3,4.2-6.6,5.08-8a31.2,31.2,0,0,0,3.8-7.57c1.76-4.94,2.52-10.7,2.74-20.73.16-7.08.47-9.79,1.29-11.38.73-1.4.74-1.56.08-2.68s-1.15-1.47-1.68-1.33-1.66,1.68-2.79,3.64a50.75,50.75,0,0,1-4.62,6.4c-1.68,2-4,5.12-6.92,9.24-1.46,2.08-3.17,4.5-3.8,5.38-3.27,4.6-6.11,8.85-7.93,11.89l-3.43,5.74c-1,1.7-2.62,4.35-3.58,5.88-2.19,3.5-4.92,8.36-6.67,11.86-.74,1.48-1.73,3.36-2.19,4.18s-1.34,2.44-1.94,3.59c-2.24,4.22-2.65,4.86-3.36,5.22a1.51,1.51,0,0,1-2.23-.65c-.53-1-.32-1.7,1.64-5.27,1-1.75,2.92-5.43,4.34-8.17a170.9,170.9,0,0,1,9-15.74c.41-.66,2.07-3.44,3.7-6.18a145.6,145.6,0,0,1,8.68-13.35c1.92-2.74,4-5.74,4.66-6.67,1.74-2.55,5-6.84,6.75-9a45.65,45.65,0,0,0,4.5-6.18c1.85-3,2.67-4,3.58-4.65.61-.4.81-.66.81-1.06,0-.58-2.41-5-4.58-8.43-.73-1.15-1.85-3-2.49-4.09s-2.89-4.59-5-7.76c-4.21-6.39-6.16-9.58-8.76-14.35-1-1.75-2.44-4.35-3.29-5.78s-2.55-4.34-3.79-6.47c-2.64-4.59-4-6.79-7.83-12.56-1.55-2.36-3.5-5.31-4.32-6.57-1.52-2.34-4.42-6.47-9.46-13.45-.71-1-1.82-2.65-2.48-3.69s-1.8-2.76-2.55-3.83-2.52-3.73-3.94-5.92-4.15-6.34-6-9.22-3.93-6-4.5-6.93S79.54,44,78.28,42.25l-4.15-5.78c-1-1.42-3.43-4.7-5.35-7.27l-5.3-7.14-3.16-4.28a15,15,0,0,1-1.47-2.28,1.64,1.64,0,0,1,.79-1.85c1.45-.88,2.1-.42,5.13,3.72,1.35,1.85,3.9,5.28,5.66,7.62,3.59,4.78,5.8,7.79,7.31,10,.56.81,1.79,2.53,2.74,3.82,2.09,2.85,3.73,5.27,5.82,8.55.87,1.37,2,3.18,2.63,4s1.93,2.91,3,4.59c4.92,7.56,11.91,18,14.84,22.07,4.56,6.39,7.43,10.65,14.46,21.41,1.07,1.65,3.09,5,4.48,7.38s3.34,5.77,4.33,7.47,2.8,4.88,4,7.07c2.86,5.08,3.78,6.58,7.42,12,1.64,2.46,3.58,5.46,4.32,6.68s2.23,3.69,3.34,5.5,3.19,5.35,4.64,7.87,3.48,5.86,4.51,7.42c1.76,2.66,1.95,2.87,3,3.41a17.05,17.05,0,0,0,11.26,1.66c3.33-.74,7.21-.72,14.19.06a62.77,62.77,0,0,0,8.57.25c5.07-.07,5.8-.13,8.07-.6,1.37-.29,4.2-.8,6.29-1.13,3.75-.6,4.77-.85,6.09-1.51,1.65-.83,7.91-4.69,9.58-5.91a81.36,81.36,0,0,1,9-5.46,38.35,38.35,0,0,0,7.81-5.61,67.63,67.63,0,0,1,9.73-7.33c3.48-2,3.52-2,3.52-2.66,0-1-2.63-4.38-4.76-6.09a56.08,56.08,0,0,0-15.27-8.41l-2.39-.88c-.55-.2-2.44-.83-4.22-1.39-4.34-1.36-5.05-1.88-5.44-4a15.51,15.51,0,0,1,.43-5.29,52.13,52.13,0,0,1,1.77-6c.48-1.11.51-1.87.08-1.87a15.31,15.31,0,0,0-2.54,1.33c-5.77,3.43-21.69,10.15-26.78,11.3-2.49.56-4.24-.09-4.24-1.58,0-1,.83-1.81,2.11-2,2.72-.37,8.79-2.45,13.83-4.74l4-1.79c6.52-2.91,10.41-5,12-6.57,1.37-1.32,1.88-1.43,3-.64a1.79,1.79,0,0,0,1.09.39c.47-.15,1.68-2.32,3.61-6.48a103.84,103.84,0,0,0,6.06-16.87c.28-1.12.74-2.73,1-3.59.62-1.89,1.63-5.5,2-7.13s.35-2.55-.11-3.14-1.31-1-4.86-1.83a36.2,36.2,0,0,1-4-1.21,9.35,9.35,0,0,1-3.91-3.94,18.29,18.29,0,0,1-1.34-6,25.18,25.18,0,0,0-.8-5.16c-.09-.33-.28-1.12-.4-1.76a3.87,3.87,0,0,0-1.2-2.23c-1.56-1.73-1.69-2.07-1.65-4.48a41.44,41.44,0,0,1,.34-4.34,38.8,38.8,0,0,0,.32-4.62A64.14,64.14,0,0,0,222,14.56c-.48-2.25-.8-2.57-2.4-2.46s-2.73.75-5,3.1c-1.13,1.16-2.91,3-4,4a38.06,38.06,0,0,0-5.08,6.29c-3.05,4.27-8.77,9.38-11.3,10.09a5.62,5.62,0,0,1-3.48-.1,7.35,7.35,0,0,1-2.82-3.29c-1-1.9-1.38-2.28-2.13-2.09a15.81,15.81,0,0,0-3.08,2.65,23,23,0,0,0-5.32,7.42c-.34.73-1.39,2.73-2.34,4.45a102.28,102.28,0,0,0-4.72,9.27c-3.92,10-7.2,16.22-10.25,19.51a19.27,19.27,0,0,1-5.16,3.91c-.91.34-1,.34-1.64,0-2.47-1.33-5.89-7.74-10.68-20-1.58-4-5.08-11.74-6.56-14.46s-2.5-4.31-6.59-10.44a158.33,158.33,0,0,0-13.32-18L113.24,11c-1.74-2.06-2.53-2.75-3.17-2.75-.34,0-1.06.54-2.38,1.78A69.21,69.21,0,0,1,93.25,21c-3.72,2-5.42,2.08-9.26.51a100.66,100.66,0,0,1-13.15-7c-1.41-.86-8-4.57-11.26-6.33L56.14,6.31a38.84,38.84,0,0,0-4.08-2,3.51,3.51,0,0,0-1.31-.24Zm60,13.71a1.68,1.68,0,0,1,1.3.45c.56.53.73,1.24,1.21,5.19.18,1.48.46,3.68.61,4.88a87.76,87.76,0,0,1,.68,13.05c0,7.59-.66,20.55-1.39,27.4-.49,4.5-.59,4.86-1.59,5.38a1.48,1.48,0,0,1-1.54.1h0a2.21,2.21,0,0,1-.78-.7c-.33-.5-.33-.7,0-3.65.74-6.93,1.53-22.19,1.53-29.65a74.56,74.56,0,0,0-.9-13,50.8,50.8,0,0,1-.78-7.91,1.89,1.89,0,0,1,1.66-1.52Zm106.32,13.3a2,2,0,0,1,1.24.57c.71.65.6,1.6-.35,2.85a112.61,112.61,0,0,0-6,11,79.55,79.55,0,0,0-5.19,13,91,91,0,0,1-6.2,14.64c-3,6-4,8.24-5,10.56-.22.55-.52,1.27-.67,1.6s-.86,2.12-1.58,4-1.78,4.51-2.35,5.88c-.89,2.16-7.05,14.62-10.78,21.82l-3.34,6.47a146.77,146.77,0,0,1-11.44,18.45c-5.13,7.33-5.4,7.69-6.12,8.2a1.84,1.84,0,0,1-2.64-.19,1.27,1.27,0,0,1-.42-1.2,19.62,19.62,0,0,1,2-3.18c8.39-11.84,11.75-17,14.46-22.28,1.19-2.3,2.16-4.18,5.43-10.46,2.05-4,7.28-14.46,8.38-16.87s2-4.61,2.89-6.9a157.63,157.63,0,0,1,6.37-14.81,13.48,13.48,0,0,0,1.08-2.5,3.31,3.31,0,0,0-1-1.26c-.88-.8-1.12-1.23-2.31-4.08-.73-1.75-2.21-5.21-3.28-7.67-2.83-6.51-3.3-8.17-2.79-10a1.71,1.71,0,0,1,1.72-1.46c1.06,0,1.77.87,1.95,2.4a14.77,14.77,0,0,0,1.58,5c.51,1.13.92,2.09.92,2.14s.57,1.37,1.26,2.94,1.66,3.78,2.14,4.92c.82,2,1.34,2.8,1.78,2.8s2.11-3.77,4.22-10.06a93.26,93.26,0,0,1,4.68-11.88c2.39-5,6.3-12.28,7.2-13.33A2.63,2.63,0,0,1,217.09,31.08ZM138.47,62.27c1.56,0,2.23,1.18,2.61,4.59a104.2,104.2,0,0,1,.68,13,77,77,0,0,1-1.6,16.53c-1.46,7.94-2,10.59-2.4,12-.6,2.06-2,2.81-3.2,1.76-.5-.43-.56-.6-.54-1.65a20.82,20.82,0,0,1,.54-3.25c.62-2.5,1.16-5.32,1.72-9,.23-1.48.5-3.18.61-3.78s.29-2,.41-3,.3-2.56.41-3.39a78.11,78.11,0,0,0,.2-11.45c-.44-6-.64-8-.95-9.23-.34-1.39-.28-1.91.34-2.7A1.25,1.25,0,0,1,138.47,62.27Zm88.88,4.93a1.58,1.58,0,0,1,1.34.84c.86,1.28.45,2.38-1.36,3.61-2.6,1.77-16.11,7.63-20.17,8.76-1.63.45-3.8.5-4.5.11h0a2.38,2.38,0,0,1-.74-.74c-.71-1.29.14-2.43,2-2.66a18.9,18.9,0,0,0,2.39-.5c1.24-.35,7.16-2.68,9.41-3.7.66-.29,2-.89,3.06-1.32a39,39,0,0,0,6.86-3.55,2.83,2.83,0,0,1,1.74-.86Zm-167.45,9a36.53,36.53,0,0,1,4.82,1.32c2.27.73,4.44,1.4,4.82,1.51,1,.27,9.13,2.87,11.16,3.57a117,117,0,0,0,19.23,4.67c2.7.44,2.85.48,3.49,1a1.73,1.73,0,0,1,.1,2.57c-.57.57-1.46.61-3.89.19-.82-.14-2.48-.41-3.69-.59A135.56,135.56,0,0,1,78.71,86c-.6-.21-2.71-.89-4.68-1.51S69,82.87,67.15,82.29s-4-1.26-4.78-1.5c-2-.6-3.55-1.34-3.91-1.89A1.69,1.69,0,0,1,59.9,76.22ZM171,78c.87,0,1.65.81,1.84,2.09.26,1.79.89,3.44,3.12,8.21,1.21,2.6,2.6,5.58,3.07,6.62,1.15,2.5,1.16,3.52.06,4.09a1.68,1.68,0,0,1-2.06-.15h0c-.64-.57-6.54-12.92-7.37-15.42a12,12,0,0,1-.38-2.75c0-1.67,0-1.75.52-2.21A1.78,1.78,0,0,1,171,78ZM86.37,110.35a8.51,8.51,0,0,1,2.63.91c3.29,1.47,7.82,2.55,14.71,3.51a100.88,100.88,0,0,0,13.54,1c5,.13,5.19.15,5.63.59a1.85,1.85,0,0,1,.24,2.1,2.64,2.64,0,0,1-1,.78c-.73.33-1.29.37-4.42.35-2,0-4.75-.09-6.18-.18-6.78-.4-16.36-2-20.92-3.5-3.92-1.29-5.49-2.18-5.87-3.33a1.56,1.56,0,0,1,.81-2,1.72,1.72,0,0,1,.87-.23Zm139.74,18.78a1.57,1.57,0,0,1,1,.64c1.22,1.55-.47,3.9-3.89,5.39-5.94,2.58-27.47,10-33.06,11.33-1.11.27-4,1.07-6.44,1.77-7,2-12.53,3-13.7,2.5a2.19,2.19,0,0,1-1.21-1.55c-.1-.49,0-.74.44-1.24.6-.66.46-.62,4.56-1.21,1.56-.22,5.78-1.3,12.55-3.19A316.65,316.65,0,0,0,217,133.47c4.77-1.79,6-2.35,6.88-3.25A2.93,2.93,0,0,1,226.11,129.13ZM80.85,139.18a28,28,0,0,1,6.72,2c5.81,2.61,14.5,9.27,17.18,13.17,1.34,1.95,1.56,3.18.74,4.15a1.61,1.61,0,0,1-2.23.31,8.76,8.76,0,0,1-1.33-1.69,19.83,19.83,0,0,0-4.39-4.77c-5.4-4.63-11-7.93-15.26-9-2-.49-2.59-.79-3.17-1.52C78.2,140.67,79.18,139.18,80.85,139.18Zm-33.17,2.5a15.47,15.47,0,0,1,4,.81c7,2.26,19.32,10.9,21.43,15.1.78,1.53.78,2.36,0,3.13a1.45,1.45,0,0,1-2.06.23h0a9.42,9.42,0,0,1-1.6-1.86c-1.22-1.76-2.67-3.13-5.77-5.43-6.06-4.51-11.33-7.27-15.59-8.19-1.14-.24-1.72-.57-2-1.13a1.75,1.75,0,0,1,.85-2.58,1.94,1.94,0,0,1,.71-.08Zm88.22,14.47c1.56,0,2.07.25,2.49.84a1.89,1.89,0,0,1-.85,2.67A21.55,21.55,0,0,1,134,160a43.87,43.87,0,0,0-4.88.42c-1,.18-2.57.39-3.39.48-1.44.16-3.69.51-9.76,1.51-8.74,1.44-16.92,2.52-25.11,3.3-2.35.23-4.46.46-4.68.51s-1.21.17-2.19.27c-2.36.23-9.06,1.18-9.26,1.3s-1.4.28-2.92.49-3.57.53-4.56.7-3.58.53-5.78.82-4.92.7-6.07.92l-4.19.76c-2.82.51-11.42,2.42-14.74,3.28s-5.38,1-6.31.63a2.29,2.29,0,0,1-1.31-1.65c-.1-1.37.84-2.13,2.37-1.93a14.84,14.84,0,0,0,4.07-.69,213.55,213.55,0,0,1,26.48-5.22c1.7-.22,3.23-.45,3.39-.49s1.11-.19,2.09-.31,3.09-.43,4.68-.7c5.45-.93,6.48-1.09,8.27-1.29l3.89-.49c1.81-.25,4.33-.53,9.06-1,3.1-.32,6.64-.73,9.37-1.1l5.88-.8c2.77-.38,4-.58,10.66-1.67a111.85,111.85,0,0,1,14.9-1.84C134.74,156.16,135.38,156.14,135.9,156.15Zm-76,21.39a1.61,1.61,0,0,1,1.43.79c.4.61.31,2.54-.22,5.09a34.3,34.3,0,0,1-4.16,8.73c-2.66,4-5,5.48-7.23,4.5a1.93,1.93,0,0,1-1.26-1.83c0-.94.71-1.57,1.92-1.75a2.77,2.77,0,0,0,1.91-1.1,16.72,16.72,0,0,0,2.93-4.33A17.78,17.78,0,0,0,57.6,181c.44-2.57.68-3.06,1.65-3.38A1.92,1.92,0,0,1,59.86,177.54Z"/></g></g></g></g></svg>