<?xml version="1.0" encoding="UTF-8"?><svg id="Layer_2" xmlns="http://www.w3.org/2000/svg" viewBox="0 0 252.4 258.14"><defs><style>.cls-1{fill:#499ec4;}</style></defs><g id="Layer_1-2"><path class="cls-1" d="M211.46,108.9l15.75-22.95c2.37,1.77,5.62,2.2,8.48,.84,4.1-1.96,5.84-6.87,3.88-10.97s-6.87-5.84-10.97-3.88c-2.86,1.36-4.56,4.16-4.67,7.12l-27.75-2.16-13.91,20.27-15.39,7.36,7.35-32.26c1.4,.02,2.82-.24,4.19-.83,3.93-1.7,6.23-5.57,6.14-9.6l38.22-15.63L178.63,12.02l-5.44,39.97c-.96,.11-1.91,.36-2.84,.76-5.08,2.19-7.45,8.02-5.41,13.12l-27.05,15.35,2.53-15.99,15.47-19.11-9.98-25.98c2.8-.95,5-3.38,5.49-6.51,.71-4.49-2.35-8.7-6.84-9.42-4.49-.71-8.7,2.35-9.42,6.84-.49,3.13,.84,6.12,3.22,7.89l-17.51,21.63,8.81,22.95-2.99,18.88-25.7-23.83c1.68-2.73,2.06-6.21,.69-9.39-1.32-3.05-3.96-5.12-6.96-5.85L99.74,0,48.48,22.15l35,26.03c-1.53,2.68-1.83,6.02-.51,9.08,1.37,3.17,4.16,5.28,7.31,5.93l-.25,33.29-15.4-10.35-10.81-22.08-27.77-1.9c.32-2.94-.96-5.96-3.59-7.72-3.77-2.54-8.89-1.53-11.42,2.24-2.54,3.77-1.53,8.89,2.24,11.42,2.63,1.77,5.9,1.81,8.51,.41l12.24,25,24.53,1.68,14.68,9.87-31.9,9.85c-2.29-4.87-7.97-7.11-12.97-5.12L5.37,86.23,0,141.81l34.59-15.75c2.85,3.14,7.47,4.29,11.58,2.51,1.48-.64,2.72-1.6,3.7-2.75l28.66,16.83-15.12,5.86-24.29-3.76-17.44,21.69c-2.23-1.95-5.44-2.62-8.39-1.48-4.24,1.64-6.34,6.41-4.7,10.65,1.64,4.24,6.41,6.34,10.65,4.7,2.95-1.14,4.86-3.8,5.2-6.75l27.51,4.26,15.41-19.16,16.21-6.29-7.56,33.16c-1.61-.13-3.28,.11-4.87,.8-4.3,1.86-6.65,6.32-6.04,10.74l-35.02,14.33,44.15,34.19,5.56-40.84c4.49-2.28,6.63-7.51,5.04-12.27l30.28-17.18-2.47,17.72-15.11,19.39,10.46,25.79c-2.79,1-4.94,3.47-5.37,6.61-.63,4.5,2.51,8.66,7.01,9.29s8.66-2.51,9.29-7.01c.44-3.14-.96-6.1-3.36-7.83l17.11-21.95-9.23-22.78,2.33-16.7,24.78,22.98c-2.1,2.82-2.68,6.65-1.18,10.11,1.16,2.7,3.36,4.62,5.92,5.54l-4.85,41.68,51.26-22.15-33.67-25.03c1.09-2.49,1.19-5.41,.03-8.11-1.49-3.46-4.68-5.66-8.17-6.07l.28-36.94,16.56,9.39,12.45,21.2,27.83-.21c-.1,2.96,1.41,5.87,4.16,7.43,3.95,2.24,8.98,.86,11.22-3.1s.86-8.98-3.1-11.22c-2.75-1.56-6.02-1.36-8.51,.24l-14.1-24-24.58,.18-12.95-7.35,29.31-9.05c2.47,4.63,8.11,6.67,13.01,4.56,.83-.36,1.58-.82,2.26-1.36l33.3,23.76,5.37-55.58-37.39,17.03c-2.84-3.16-7.49-4.32-11.61-2.54-1.47,.64-2.71,1.59-3.69,2.73l-29.13-17.11,16.41-7.84,24.47,1.9Z"/></g></svg>