<?xml version="1.0" encoding="UTF-8"?><svg id="Layer_2" xmlns="http://www.w3.org/2000/svg" viewBox="0 0 192.7 197.09"><defs><style>.cls-1{fill:#499ec4;}</style></defs><g id="Layer_1-2"><path class="cls-1" d="M161.44,83.17l12.03-17.52c1.81,1.35,4.29,1.68,6.47,.64,3.13-1.5,4.46-5.25,2.96-8.38s-5.25-4.46-8.38-2.96c-2.18,1.04-3.48,3.18-3.57,5.44l-21.19-1.65-10.62,15.48-11.76,5.62,5.61-24.63c1.07,.02,2.15-.18,3.2-.63,3-1.3,4.76-4.25,4.69-7.33l29.18-11.94-33.72-26.11-4.15,30.52c-.73,.09-1.46,.28-2.17,.58-3.88,1.67-5.69,6.13-4.13,10.02l-20.65,11.72,1.93-12.21,11.81-14.59-7.62-19.84c2.14-.73,3.82-2.58,4.2-4.97,.54-3.43-1.8-6.65-5.22-7.19-3.43-.54-6.65,1.8-7.19,5.22-.38,2.39,.64,4.67,2.46,6.02l-13.37,16.52,6.73,17.52-2.28,14.41-19.62-18.2c1.29-2.09,1.57-4.75,.53-7.17-1.01-2.33-3.02-3.91-5.32-4.47L76.13,0,36.99,16.91l26.73,19.88c-1.17,2.05-1.4,4.6-.39,6.93,1.05,2.42,3.18,4.04,5.58,4.53l-.19,25.42-11.76-7.9-8.25-16.86-21.2-1.45c.24-2.25-.73-4.55-2.74-5.9-2.88-1.94-6.79-1.17-8.72,1.71-1.94,2.88-1.17,6.79,1.71,8.72,2.01,1.35,4.51,1.38,6.5,.31l9.35,19.09,18.73,1.28,11.21,7.54-24.36,7.52c-1.75-3.72-6.09-5.43-9.9-3.91L4.1,65.84,0,108.28l26.41-12.03c2.17,2.4,5.7,3.27,8.84,1.92,1.13-.49,2.08-1.22,2.83-2.1l21.88,12.85-11.54,4.48-18.55-2.87-13.32,16.56c-1.7-1.49-4.15-2-6.4-1.13-3.24,1.25-4.84,4.9-3.59,8.13,1.25,3.24,4.9,4.84,8.13,3.59,2.25-.87,3.71-2.91,3.97-5.15l21,3.25,11.76-14.63,12.38-4.8-5.77,25.32c-1.23-.1-2.51,.09-3.72,.61-3.28,1.42-5.08,4.82-4.61,8.2l-26.74,10.94,33.72,26.11,4.25-31.19c3.43-1.74,5.06-5.74,3.85-9.37l23.12-13.12-1.89,13.53-11.54,14.8,7.98,19.7c-2.13,.77-3.77,2.65-4.1,5.05-.48,3.44,1.92,6.61,5.36,7.09,3.44,.48,6.61-1.92,7.09-5.36,.33-2.39-.73-4.66-2.57-5.98l13.06-16.76-7.05-17.4,1.78-12.75,18.92,17.55c-1.6,2.16-2.04,5.08-.9,7.72,.89,2.06,2.56,3.53,4.52,4.23l-3.7,31.82,39.14-16.91-25.71-19.12c.83-1.9,.91-4.13,.02-6.19-1.14-2.64-3.57-4.32-6.24-4.63l.21-28.21,12.64,7.17,9.51,16.19,21.25-.16c-.07,2.26,1.08,4.48,3.18,5.67,3.02,1.71,6.85,.65,8.57-2.37,1.71-3.02,.65-6.85-2.37-8.57-2.1-1.19-4.6-1.04-6.5,.18l-10.77-18.32-18.77,.14-9.89-5.61,22.38-6.91c1.88,3.54,6.19,5.1,9.94,3.48,.63-.27,1.21-.63,1.72-1.04l25.43,18.15,4.1-42.44-28.55,13c-2.17-2.42-5.72-3.3-8.86-1.94-1.13,.49-2.07,1.21-2.82,2.09l-22.25-13.07,12.53-5.99,18.69,1.49Z"/></g></svg>