<?xml version="1.0" encoding="UTF-8"?><svg id="Layer_2" xmlns="http://www.w3.org/2000/svg" viewBox="0 0 132.43 133.25"><defs><style>.cls-1{fill:#499ec4;}</style></defs><g id="Layer_1-2"><path class="cls-1" d="M110.82,62.36s-18.6,4.02-20.33,4.58c-.12,.04-.24,.08-.35,.13l-4.54-14.46c.08-.02,.16-.05,.24-.07,1.66-.54,19.22-8,19.22-8,0,0,7.34-27.63,6.3-28.55-1.38-1.21-25.91,10.13-25.91,10.13,0,0-6.99,18.09-7.23,20.16l-14.59-3.14c.29-1.08,1.81-22.19,1.81-22.19C65.44,20.95,47.74-.85,45,.03c-2.74,.89-5.16,29.19-5.16,29.19,0,0,13.58,16.23,14.45,16.93l-10.15,11.11c-1.12-1.21-16.74-12.6-16.74-12.6C27.4,44.66,.42,50.16,.01,51.94c-.64,2.81,22.26,19.13,22.26,19.13,0,0,17.66-3.71,19.38-4.27,.12-.04,.24-.08,.36-.13l4.78,14.4c-.16,.04-.33,.08-.49,.13-1.8,.58-18.16,8.05-18.16,8.05,0,0-9.73,25.14-7.64,27.12,1.39,1.32,27.25-8.69,27.25-8.69,0,0,5.87-18.47,6.12-19.97l15.13,3.38c-.38,1.16-2.12,21.84-2.12,21.84,0,0,17.85,20.71,19.19,20.32,.05,0,.09-.03,.14-.04,2.71-.88,6.28-28.55,6.28-28.55,0,0-13.51-15.75-14.5-16.47l10.15-11.56c1.39,1.39,17.55,12.15,17.55,12.15,0,0,26.38-6.67,26.73-8.55,.27-1.37-21.6-17.87-21.6-17.87Z"/></g></svg>