<?xml version="1.0" encoding="UTF-8"?><svg id="Layer_2" xmlns="http://www.w3.org/2000/svg" viewBox="0 0 327.85 343.95"><defs><style>.cls-1{fill:#499ec4;}</style></defs><g id="Layer_1-2"><path class="cls-1" d="M294.18,277.54c-.24-3.52-1.84-6.74-4.5-9.06-1.66-1.45-3.67-2.47-5.82-2.94-.25-.05-.49-.1-.74-.14l-6.96-20.33-21.64-4.25-3.25-2.84,15.39-17.47-40.11-8.06c-1.94-3.97-5.61-6.96-10.1-7.95-.31-.07-.62-.13-.93-.18l-9.45-21.5,18.05-15.86c.2,.05,.4,.1,.61,.15,4.3,.95,8.67-.05,12.06-2.58l40.13,9.71-7.01-23.82,5.72-1.89,21.59,4.49,14.3-16.06c.09,.02,.17,.04,.26,.06,2.31,.51,4.73,.39,6.99-.36,3.35-1.11,6.07-3.45,7.66-6.6,1.59-3.15,1.85-6.73,.75-10.09-1.45-4.4-5.17-7.76-9.7-8.76-2.32-.51-4.73-.39-6.99,.36-2.39,.79-4.45,2.22-6,4.08l-21.04-4.37-14.68,16.45-5.05,1.67-6.02-20.46-27.67,29.05c-5.47-.8-10.73,1.48-13.9,5.69l-23.22-2.55-4.59-22.96c2.01-1.98,3.45-4.52,4.08-7.35,.57-2.56,.45-5.14-.3-7.55l28.56-31.18-21.47-4.75,1.8-8.14,14.89-16.26-6.47-20.49c1.69-1.73,2.9-3.92,3.45-6.38,1.57-7.11-2.93-14.18-10.05-15.76-7.11-1.57-14.18,2.93-15.76,10.05-.54,2.46-.37,4.96,.43,7.24l-14.51,15.85,6.64,21.03-1.8,8.14-23.61-5.23,12.73,40.32c-1.69,1.87-2.89,4.16-3.45,6.72-.63,2.83-.4,5.74,.59,8.38l-13.84,18.85-22.5-7.61c-.91-4.07-3.52-7.63-7.2-9.7l-13.22-39.21-14.82,16.83-4.57-4.29-6.36-21.11-20.93-4.91c-.62-2.34-1.89-4.5-3.72-6.23-1.73-1.63-3.87-2.76-6.19-3.27-4.53-1-9.32,.47-12.49,3.85-4.99,5.31-4.73,13.69,.58,18.68,1.73,1.63,3.87,2.76,6.18,3.27,.09,.02,.17,.04,.26,.05l6.2,20.58,21.47,5.05,5.09,4.78-15.68,17.8,37.67,7.57c1.95,3.95,5.6,6.92,10.08,7.91,.31,.07,.63,.13,.95,.18l9.67,22.02-17.66,15.52c-.41-.13-.82-.24-1.23-.33-4.66-1.03-9.44,.28-12.91,3.29l-37.02-8.96,6.27,21.31-5.06,1.47-21.41-5.28-14.89,15.5c-.24-.07-.49-.13-.73-.18-2.15-.48-4.4-.4-6.52,.21-7,2.03-11.04,9.37-9.02,16.37,1.35,4.65,5.12,8.18,9.84,9.23,2.15,.48,4.41,.4,6.53-.21,2.42-.7,4.53-2.05,6.15-3.85l20.86,5.14,15.28-15.9,5.15-1.49,6.76,22.98,29-30.45c3.87-.4,7.44-2.34,9.91-5.3l23.86,2.62,4.82,24.11c-2.33,2.05-4,4.8-4.69,7.91-.48,2.17-.45,4.4,.04,6.54l-27.93,30.5,20.69,4.58-1.37,5.48-15.34,15.85,5.9,20.66c-1.74,1.68-3.01,3.84-3.62,6.29-.86,3.42-.33,6.98,1.48,10,1.81,3.03,4.7,5.17,8.12,6.03l.36,.09c7.04,1.56,13.92-2.7,15.67-9.69,.61-2.44,.51-4.95-.23-7.25l14.94-15.44-6.05-21.2,1.52-6.07,24.38,5.4-12.45-39.43c1.35-1.72,2.32-3.74,2.8-5.91,.69-3.11,.34-6.31-.91-9.15l14.55-19.82,22.38,7.57c1.26,4.8,4.89,8.82,9.76,10.4l13,38.55,15.12-17.18,3.32,2.9,7.14,20.86,21.09,4.14c.71,2.31,2.05,4.43,3.95,6.09,1.66,1.45,3.68,2.47,5.83,2.95h0c4.73,1.05,9.64-.57,12.82-4.21,2.33-2.67,3.47-6.08,3.23-9.6Zm-104.04-79.69l-21.29-7.2-13.3,18.12-4.41-22.04-22.34-2.46,16.88-14.84-9.04-20.58,21.29,7.2,13.3-18.12,4.41,22.04,22.34,2.46-16.88,14.84,9.04,20.58Z"/></g></svg>