<?xml version="1.0" encoding="UTF-8"?><svg id="Layer_2" xmlns="http://www.w3.org/2000/svg" viewBox="0 0 389.01 397.37"><defs><style>.cls-1{fill:#499ec4;}</style></defs><g id="Layer_1-2"><path class="cls-1" d="M328.83,223.05l36.43-22.91c2.28,3.97,6.62,6.57,11.51,6.39,7.02-.27,12.5-6.17,12.23-13.2-.27-7.02-6.17-12.5-13.2-12.23-4.89,.19-9.02,3.11-11,7.24l-38.05-20.08-32.17,20.23-26.36,1,30.21-41.27c1.97,.89,4.15,1.39,6.45,1.39,6.61,0,12.26-4.08,14.59-9.86l63.82,1.25-41.7-75.59-32.22,53.38c-1.43-.42-2.93-.66-4.5-.66-8.55,0-15.49,6.82-15.72,15.31l-47.79,5.2,13.39-21.14,33.66-17.63,1.77-42.99c4.56,.37,9.17-1.73,11.79-5.87,3.76-5.94,2-13.8-3.94-17.56s-13.8-2-17.56,3.94c-2.62,4.13-2.55,9.2-.27,13.16l-38.12,19.96-1.56,37.97-15.81,24.96-21.86-49.57c4.07-2.85,6.73-7.56,6.73-12.9s-2.48-9.7-6.29-12.57L237.01,0h-86.33l33.72,58.4c-3.82,2.87-6.29,7.43-6.29,12.57s2.67,10.05,6.73,12.9l-20.77,47.09-15.5-24.13-1.81-37.96-38.24-19.72c2.26-3.98,2.29-9.04-.35-13.16-3.8-5.91-11.67-7.62-17.58-3.83-5.91,3.8-7.62,11.67-3.83,17.58,2.65,4.12,7.27,6.19,11.82,5.79l2.04,42.98,33.78,17.42,14.78,23.01-51.31-5.58c-.26-8.31-6.95-14.98-15.27-15.21l-32.39-53.65L8.51,140.09l58.75-1.15c2.11,6.2,7.97,10.66,14.89,10.66,2.49,0,4.84-.6,6.94-1.63l30.35,41.46-25.05-.95-32.13-20.23-38.05,20.08c-1.97-4.13-6.11-7.05-11-7.24-7.02-.27-12.93,5.21-13.2,12.23-.27,7.02,5.21,12.93,12.23,13.2,4.89,.19,9.23-2.42,11.51-6.39l36.42,22.91,33.61-17.74,26.86,1.02-31.06,42.43c-2.21-1.18-4.73-1.85-7.4-1.85-7.23,0-13.31,4.89-15.16,11.53l-58.48-1.14,41.7,75.59,32.93-54.55c7.78-.48,14.02-6.6,14.68-14.32l53.51-5.82-14.37,23.63-33.34,18.25-.98,43.02c-4.57-.29-9.13,1.9-11.68,6.08-3.65,6-1.74,13.83,4.26,17.48,6,3.65,13.83,1.74,17.48-4.26,2.54-4.18,2.38-9.24,.03-13.17l37.74-20.66,.86-37.99,13.54-22.28,21.08,47.8c-4.7,2.72-7.88,7.8-7.88,13.62,0,4.54,1.93,8.62,5.01,11.49l-32.43,56.17h86.33l-32.43-56.17c3.07-2.87,5.01-6.95,5.01-11.49,0-5.83-3.17-10.9-7.88-13.62l23.04-52.26,17.74,23.48,4.67,37.72,39.63,16.77c-1.95,4.14-1.6,9.19,1.35,13.1,4.24,5.61,12.21,6.72,17.82,2.48,5.61-4.24,6.72-12.21,2.48-17.82-2.95-3.9-7.71-5.62-12.23-4.88l-5.3-42.7-35-14.81-13.87-18.37,47.14,5.13c.66,8.09,7.42,14.44,15.68,14.44,1.4,0,2.75-.2,4.04-.54l32.68,54.14,41.7-75.59-63.51,1.24c-2.1-6.23-7.97-10.73-14.91-10.73-2.48,0-4.82,.59-6.91,1.62l-30.85-42.15,28.1-1.07,33.63,17.76Zm-1.44-38.1l18.93,9.99-18.12,11.4-18.93-9.99,18.12-11.4Zm13.66-90.6l17.48,31.69-36.18-.71,18.7-30.98Zm-84.81-14.89l18.97-9.93-.88,21.39-18.97,9.93,.88-21.39Zm-141.52,10.02l-1.02-21.39,19.03,9.81,1.02,21.39-19.03-9.81ZM33.33,125.13l17.48-31.69,18.7,30.98-36.18,.71Zm27.48,81.22l-18.12-11.4,18.93-9.99,18.12,11.4-18.93,9.99Zm-10,97.6l-17.48-31.69,36.18,.71-18.7,30.98Zm85.43,15.94l-18.78,10.28,.49-21.41,18.78-10.28-.49,21.41Zm141.37-17.82l2.63,21.25-19.72-8.34-2.63-21.25,19.72,8.34Zm80.92-30.71l-17.48,31.69-18.7-30.98,36.18-.71ZM175.78,14.47h36.19l-18.09,31.34-18.1-31.34Zm36.18,368.45h-36.19l18.09-31.34,18.1,31.34Zm6.75-141.2l-24.84,56.34-24.84-56.34-61.22,6.66,36.37-49.69-36.37-49.69,61.22,6.66,24.84-56.34,24.84,56.34,61.22-6.66-36.37,49.69,36.37,49.69-61.22-6.66Z"/></g></svg>