<?xml version="1.0" encoding="UTF-8"?><svg id="Layer_2" xmlns="http://www.w3.org/2000/svg" viewBox="0 0 332.19 330.27"><defs><style>.cls-1{fill:#499ec4;}</style></defs><g id="Layer_1-2"><path class="cls-1" d="M332.19,197.4l-7.27-19.43-29.05,10.87-18.18-4.16,6.06-21.13-38.44,9.58c-.13-.14-.26-.28-.39-.41-2.12-2.11-4.92-3.42-7.9-3.69-2.49-.23-4.99,.28-7.19,1.44l-17.44-13.97c-3.28-2.62-4.48-7.07-2.97-10.99l8.02-20.79c3.01-.26,5.87-1.58,8.01-3.73,2.01-2.01,3.27-4.58,3.63-7.35l40.71-10.99-14.02-13.97,11.23-11.27,29.98-8.09-5.4-20.03-15.95,4.31,4.25-15.97-20.05-5.33-8.32,31.27-10.43,10.47-15.68-15.62-10.84,40.75c-2.77,.38-5.34,1.65-7.34,3.66-2.14,2.15-3.45,5.02-3.7,8.03l-15.77,6.15c-6.88,2.68-14.71,.6-19.35-5.15l-10.91-13.53c2.15-4.12,1.9-9.09-.67-12.99l9.65-39.36-20.59,5.99-3.83-13.77,8.41-33.09L130.36,0l-4.07,16.01-11.83-11.53-14.48,14.86,20.98,20.45,5,17.98-19.66,5.72,27.23,26.09c-.98,4.3,.29,8.79,3.46,11.95,.59,.59,1.23,1.11,1.92,1.57l-3.02,19.78c-.9,5.91-5.53,10.56-11.44,11.48l-19.25,3.01c-1.3-2.02-3.15-3.67-5.45-4.77-.51-.25-1.05-.45-1.6-.61-2.47-.7-4.91-.72-7.22-.08l-25.98-26.92-6.08,21.19-17.1-4.55-20.39-24.02-15.82,13.42,10.69,12.6L0,126.59l3.72,20.41,31.29-5.7,18.14,4.83-5.48,19.11,39.98-9.96c1.68,1.03,3.58,1.67,5.56,1.85,2.32,.21,4.6-.19,6.66-1.17l14.97,11.99c5,4.01,6.83,10.79,4.53,16.77l-7.19,18.62c-3.32,.06-6.48,1.4-8.85,3.78-1.72,1.73-2.92,3.94-3.44,6.33l-39.57,10.68,15.68,15.62-10.4,10.43-30.75,9.48,6.11,19.82,15.79-4.87-3.68,16.1,20.22,4.62,6.97-30.47,10.44-10.48,14.02,13.97,10.54-39.61c2.39-.53,4.59-1.74,6.32-3.47,2.37-2.38,3.69-5.54,3.74-8.86l19.75-7.7c5.28-2.06,11.3-.46,14.86,3.95l12.58,15.6c-2.26,4.84-1.28,10.78,2.54,14.59,.07,.06,.13,.13,.2,.19l-9.57,39.03,18.6-5.41,6.25,19.78-3.21,31.74,20.64,2.09,1.66-16.44,13.4,9.66,12.13-16.83-25.42-18.32-5.52-17.49,21.65-6.3-29.17-27.96c1-4.31-.27-8.81-3.46-11.99-.59-.58-1.22-1.11-1.9-1.56l2.84-18.56c.96-6.28,5.88-11.21,12.15-12.2l19.08-2.99c.41,.58,.88,1.13,1.39,1.63,2.12,2.11,4.92,3.42,7.9,3.69,1.18,.11,2.37,.05,3.53-.16l28.29,29.31,5.49-19.14,19.26,4.41,25.06,20.65,13.19-16.01-12.75-10.5,15.43-5.77Z"/></g></svg>