<?xml version="1.0" encoding="utf-8"?>
<!-- Generator: Adobe Illustrator 26.3.1, SVG Export Plug-In . SVG Version: 6.00 Build 0)  -->
<svg version="1.1" id="Layer_1" xmlns="http://www.w3.org/2000/svg" xmlns:xlink="http://www.w3.org/1999/xlink" x="0px" y="0px"
	 viewBox="0 0 200.2 75.2" style="enable-background:new 0 0 200.2 75.2;" xml:space="preserve">
<g id="Layer_2_00000129180350836152520420000005521911783473507242_">
	<g id="Слой_1">
		<path d="M3.8,23.4c2.1,1,4.6,3.7,4.7,5.7C9.1,41.2,14,51.5,21.2,61c-0.3,0.5-0.6,1-0.8,1.5c-2.4,4.5-2.1,8.5,0.6,10.1
			s6.1,0,8.9-4.4c1.1-1.7,1.8-1.8,3.8-1.3c6.9,1.6,14,2.3,21.1,2.2c10,0,19.4-4.8,25.2-12.9c4.5-6.2,8.2-13,12.6-20.1
			c1.9-0.2,4.9-0.6,7.8-0.8c6.4-0.5,8.3,0.8,11,6.6c9.7,21.5,23.7,29.8,47,26.8c6-0.8,6.9-1,9.3,3.9c1.1,2.4,3.3,3.2,6.5,2.1
			c2.6-0.9,2.8-2.8,3-5.1c0.1-1.9-1.1-3.6-1.6-5.7c9-7.4,13.7-17.5,15.5-28.5c1-5.8,0.7-11.9,8.3-13.4c0.3-0.1,0.5-0.3,0.6-0.6
			c0-4.1,0.4-8.3-0.3-12.3c-0.2-1.4-3.1-2.9-5-3.4c-19.3-5.4-39.4-6.9-59.3-4.4c-9.6,1.2-19.1,3.2-26.7,10.1
			c-0.9,0.8-2.7,0.8-4.1,0.8c-2.7,0.1-5.3,0.1-8-0.1c-1.9-0.3-3.7-0.8-5.4-1.6C85.4,8,79.8,4.3,73.8,3C52.5-1.9,31.2-0.4,10.1,4.6
			C0.3,6.9,0.4,7,0.1,16.9C-0.2,20.2,0.8,21.9,3.8,23.4z M113.8,36.6c9.8,1.6,19.6,2.2,28.8,4.8c9.5,2.6,16.7,11.8,20,22.4
			C138.1,69.6,122.2,60.6,113.8,36.6z M172.9,60.3c-10.5-11.8-18.4-25.8-38.2-26.5c-2.1-0.3-9.4-0.1-9.2-0.5
			c17.4-1.4,44.6-3.6,62.4-5C188.2,40.1,181.1,55.3,172.9,60.3z M117.9,11.9c7-5,15.2-6.6,23.5-7.5c11.6-1.4,23.3-0.3,34.4,3.5
			c3.7,1.3,7,3.2,8.9,7.5c-24.6,3.4-48.8,6.8-73.3,10.3C110.8,19.4,113.3,15.1,117.9,11.9z M99.9,21.1c3.3,0,6.2,0.1,7.2,4.9H94
			C93.8,21.6,97.3,21.1,99.9,21.1z M33,62.5c6.7-13.9,15.6-24.2,32.5-24.1c6.9,0.1,13.9-1.1,21-1.8C78.3,61.5,59.8,70.9,33,62.5z
			 M17.8,11.4c3.5-1.6,7-3.7,10.6-4.6c15.9-4.2,31.8-4.1,47.4,1.5c9,3.2,13.3,8.6,13.2,17C65,21.1,38.8,16.5,15.3,12.4
			C16.2,12.1,17,11.8,17.8,11.4z M12.6,24.8c18,2.1,44.6,5.2,62.3,7.3c0.2,0.5-4.5,0.2-8.3,0.4c-19.9-1-31.1,12-42.7,25.6
			C16.5,47.9,11.6,37.6,12.6,24.8z"/>
	</g>
</g>
</svg>
