<?xml version="1.0" encoding="utf-8"?>
<!-- Generator: Adobe Illustrator 26.3.1, SVG Export Plug-In . SVG Version: 6.00 Build 0)  -->
<svg version="1.1" id="Layer_1" xmlns="http://www.w3.org/2000/svg" xmlns:xlink="http://www.w3.org/1999/xlink" x="0px" y="0px"
	 viewBox="0 0 193.4 266.2" style="enable-background:new 0 0 193.4 266.2;" xml:space="preserve">
<style type="text/css">
	.st0{fill:#8A5D3B;}
	.st1{fill:#37699B;}
	.st2{fill:#95D6E3;}
	.st3{fill:#7F3F97;}
	.st4{fill:#FFDD15;}
</style>
<g id="Layer_2_00000163759438480076476580000015885865808193637285_">
	<g id="Слой_1">
		<path class="st0" d="M188.1,236c-0.7-0.4-1.4-0.7-2.2-0.9c-7.2-2-15.5-0.7-22.9-0.1c-9.9,0.8-19.8,2-29.8,2.8
			c-14.7,1.2-29.5,1.4-44.3,0.5c-18.1-1-36.7-3.7-55-2.9c-1-1.1-2-2.1-2.9-3.2c-3.2-3.8-5.8-8.8-9.6-12c-1.6-1.3-2.4,1-2.2,2.2
			c0.3,2.1,1.5,3.9,2.2,5.8c1.1,2.7,2.1,5.3,3.2,8c-6.1,0.7-12.1,1.9-17.9,3.6c-1.9,0.4-3.7,1.3-5.2,2.6c-1.4,1.4-2,3.7-0.9,5.3
			c2,2.9,7.1,1.2,9.4,3.7c2.7,2.9-0.5,6.8,3.7,8.9c1.6,0.7,3.4,1,5.2,0.9l80.8,3c10.8,0.4,21.7,0,32.5-0.4
			c10.1-0.4,20.2-0.3,30.2-1.7c4.1-0.4,7.9-2.1,10.9-4.9c2-2,3.5-4.6,6.1-5.6c0.9-0.4,1.9-0.6,2.9-0.8c1.4-0.4,2.6-0.8,3.2-2
			c1.1-2.2-1-5.2,0.3-7.3C186.8,239.7,190.9,238.3,188.1,236z"/>
		<path class="st1" d="M193.1,107.8c-0.2-5.7-0.3-11.5-0.7-17.2c-1.3-21-5.2-45.8-24.7-57.8c-3.1-1.9-6.3-3.6-9.7-5
			c-4.5-1.9-9.4-3-14-4.6c-5.1-1.7-10.4-3-15.7-4.2s-11-1.4-16.4-1.6c-12.1-0.3-24.2,1.3-35.9,4.5C58,26.6,39.4,35,30.7,52.5
			c-6.4,13-8.4,28.1-9.1,42.1c-1,19.8,0.6,40.2,2.8,59.9c1.3,11.5,1.9,24.1,6.6,34.6c4.5,10.4,10.5,20.2,17.6,29
			c12.2,14.8,33.1,20.8,51.6,20.7s37.1-4.9,52.8-14.7c16.2-10.1,24.5-26,29.9-43.4C190.4,157.1,193.8,132.5,193.1,107.8z"/>
		<path class="st2" d="M158.1,27.8c3.4,1.4,6.6,3.1,9.7,5c3.9,2.4,7.3,5.5,10.2,9c-0.9-13.5-4.7-28.3-9.3-40.9
			c-1.9-5.2-16.7,13.6-22.9,22.8C149.9,25,154.1,26.1,158.1,27.8z"/>
		<path class="st2" d="M33.6,47.8c7.3-11.1,18.9-18,31.4-22.5C59.6,16.9,43.1-4.6,41.1,0.9c-4.7,12.8-8.6,27.8-9.4,41.6
			C31.4,44.5,32.1,46.5,33.6,47.8z"/>
		<path class="st2" d="M144.1,23.2c-5.1-1.7-10.4-3-15.7-4.2s-11-1.4-16.4-1.6c-12.1-0.3-24.2,1.3-35.9,4.5c-4.3,1.1-8.6,2.4-12.7,4
			c0.5,0,1.1,0.1,1.6,0.2c5.8,0.9,11.5,2.3,17,4.2c10.1,3.6,16.8,10,23.6,17.5c-0.6-0.7,8.3-8.3,9.4-9.1c3.7-2.9,7.7-5.4,11.9-7.5
			c4.3-2.1,8.7-3.8,13.3-5.1c2.3-0.6,4.6-1.2,7-1.6c0.2,0,0.5-0.1,0.7-0.1C146.6,24,145.4,23.6,144.1,23.2z"/>
		<path class="st3" d="M193.2,116.8c-2.8,2.2-5.6,4.4-8.4,6.7c-3.2,2.5-6.6,4.7-10.3,6.5c-14.3,7.1-31.9,8.5-45.3-0.7
			c-6.7-4.7-11.9-11.4-14.7-19.1c-0.8-2.1-1.4-10-1.4-10c-2.7,0.2-13.8,0.3-13.8,0.6c-0.4,10.9-5.4,21.1-13.9,27.9
			c-9,7.2-19.8,9.2-30.7,5c-5.7-2.2-10.8-6.2-16-9.4c-2-1.2-16.6-8.6-16.6-10.4c-0.2-0.1-0.3-0.2-0.5-0.3
			c0.3,13.8,1.6,27.6,3.1,41.1c1.3,11.5,1.9,24.1,6.6,34.6c4.5,10.4,10.5,20.2,17.6,29c12.2,14.8,33.1,20.8,51.6,20.7
			s37.1-4.9,52.8-14.7c16.2-10.1,24.5-26,29.9-43.4C189.5,160.1,192.9,138.5,193.2,116.8z"/>
		<path class="st2" d="M149.4,226.8c1.4-0.8,2.7-1.5,4.1-2.4c16.2-10.1,24.5-26,29.9-43.4c7.3-23.6,10.6-48.3,10-73
			c-0.2-5.7-0.3-11.5-0.7-17.2c-0.2-2.7-0.4-5.5-0.7-8.3c-10.8,14.7-22.4,29.3-30.7,45.7c-8,15.9-12.8,32.5-17.7,49.5
			c3.1-1.4,6.1-3.1,9.2-4.6c-1.2,7.1-2.3,14.2-3.5,21.3c-0.4,2.6-0.8,5.1-1.3,7.7c0.1-0.5,5.7-1.3,6.3-1.3
			c-1.5,6.6-2.3,9.2-3.2,13.7C150.4,218.5,149.8,222.6,149.4,226.8z"/>
		<path class="st2" d="M60.5,228.3c-0.3-4.3-0.8-8.7-1.5-13c-0.7-4.5-1.5-7.2-2.8-13.8c0.6,0,6.2,1,6.3,1.5
			c-0.4-2.6-0.7-5.2-1.1-7.7c-1-7.1-2-14.2-2.9-21.4c3.1,1.5,6,3.4,9,4.8c-4.4-17.1-8.7-33.8-16.4-49.9S32.7,98.2,22.5,83.6
			c-0.4,3.7-0.7,7.4-0.9,11c-1,19.8,0.6,40.2,2.8,59.9c1.3,11.5,1.9,24.1,6.6,34.6c4.5,10.4,10.5,20.2,17.6,29
			C52,222,56,225.5,60.5,228.3z"/>
		<path class="st4" d="M114.3,92c-0.2-0.2-0.4-0.3-0.7-0.4c-0.8-0.3-1.7-0.4-2.5-0.3c-2.9,0.1-5.9,0.1-8.8,0.2
			c-0.9-0.1-1.7,0.1-2.5,0.5c-2.9,1.6,0.4,6.2,1.1,8.2c1.1,2.7,2.1,5.4,3.2,8.1c2,5,4.1-0.1,5.2-2.5c1.7-3.5,3.5-7.1,5.2-10.6
			C115.2,94,115.3,92.8,114.3,92z"/>
		<path d="M67.1,55.7c-11.3,1-23,18.7-20.8,35.1c0.1,0.5,0.5,0.5,0.7,0.1c2.2-5.1,3.5-10.7,6.3-15.3c2.6-4.4,6.6-7.8,11.4-9.5
			c10.1-3.5,16.1,7,19.3,18.7c0.7,2.6,3.1,2.7,3.8,0C92.1,67.3,77.6,54.8,67.1,55.7z"/>
		<path d="M144.1,55.7c11.3,1,23,18.7,20.8,35.1c-0.1,0.5-0.5,0.5-0.7,0.1c-2.2-5.1-3.5-10.7-6.3-15.3c-2.6-4.4-6.6-7.8-11.4-9.5
			c-10.1-3.5-16.1,7-19.3,18.7c-0.7,2.6-3.1,2.7-3.8,0C119,67.3,133.6,54.8,144.1,55.7z"/>
		<path class="st4" d="M88.8,264.8c-1.8-1.6-3.4-3.4-4.7-5.4c-1.6-2.4-2.7-5.2-3.3-8c-1.1-5.5,0.4-11,5.3-14.1
			c1.7-1.1,2.1-3.4,1-5.1c-1.4-1.7-4.3-1.8-6.4-2c-2.3-0.2-4.6-0.1-6.9,0.2c-4.4,0.7-9.1,2.4-12.2,5.6c-4,4.1-4.1,9.5-1.6,14.5
			c0.7-2,1-4,2.1-5.9c0.6-1,1.2-2,1.9-3c0.3-0.4,2.1-2,2.1-2.5c-3.3,7.3-2.2,15.6,1.7,22.4c0.3,0.5,1.5,1.8,1.5,2.3
			c-0.3-6.1,0.9-12.2,3.4-17.8c-1.2,7.2,1.4,14.6,8.4,17.6c1.5,0.6,3,1.4,4.6,1.9c0.9,0.2,1.7,0.4,2.6,0.5c0.8,0,1.5,0,2.3,0.1
			C89.9,265.7,89.3,265.3,88.8,264.8z"/>
		<path class="st4" d="M115,264.8c1.8-1.6,3.4-3.4,4.7-5.4c1.6-2.4,2.7-5.2,3.3-8c1.1-5.5-0.4-11-5.3-14.1c-1.7-1.1-2.1-3.4-1-5.1
			c1.4-1.7,4.3-1.8,6.4-2c2.3-0.2,4.6-0.1,6.9,0.2c4.4,0.7,9.1,2.4,12.2,5.6c4,4.1,4.1,9.5,1.6,14.5c-0.7-2-1-4-2.1-5.9
			c-0.6-1-1.2-2-1.9-3c-0.7-0.7-1.4-1.4-2-2.2c3.1,7.3,2,15.4-1.8,22.2c-0.3,0.5-1.5,1.8-1.5,2.3c0.3-6.1-0.9-12.2-3.4-17.8
			c1.2,7.2-1.4,14.6-8.4,17.6c-1.5,0.6-3,1.4-4.6,1.9c-0.9,0.2-1.7,0.4-2.6,0.5c-0.8,0-1.5,0-2.3,0.1
			C113.8,265.8,114.4,265.3,115,264.8z"/>
		<path class="st1" d="M52.5,160.1c-1.1-5.6-2.7-11.1-5-16.4c-2.2-5.3-5.4-10-9.4-14.1c1.8,4.3,4,8.4,5.1,12.9
			c0.9,3.9,1.9,8.5,2.9,12.5c-2.5-1.6-5.1-3.2-7.6-4.8c0.9,5.1,2.1,10,3.2,15.1c0.6,2.6,1.2,5.3,1.7,8c0.5,2.5,1.1,5,1.7,7.6
			c-2.4-1-4.8-1.9-7.2-2.9c3.2,4.4,6.3,8.8,9.5,13.2c0.1-5.8,0.5-11.8,0-17.7c-0.4-4.8-1.2-9.7-2.2-14.4c2.8,2,5.5,4.1,8.3,6.1
			C53.2,163.5,52.8,161.8,52.5,160.1z"/>
		<path class="st1" d="M179,122.1C178.9,122.1,178.9,122.2,179,122.1C179.1,122.2,179.1,122.1,179,122.1z"/>
		<path class="st1" d="M179.4,120.7c0.4-1.1,0.7-2.1,1.1-3.2c-2.2,3.4-5,6.8-6.7,10.4s-3.5,7.3-5.2,11s-3.1,7.5-4.5,11.3
			c-1.6,3.8-2.8,7.7-3.7,11.7c2.9-1.4,5.7-2.9,8.6-4.4c0.7-0.4,1.3-0.7,2-1.1c0.3-0.2,0.7-0.4,1-0.6c0.3-0.2,0.6-0.4,1-0.5
			c-0.1,0.2-0.1,0.3-0.2,0.5s-0.2,0.5-0.3,0.7c-0.2,0.5-0.4,0.9-0.5,1.4c-0.3,0.9-0.7,1.9-1,2.8c-0.5,1.4-1.1,2.9-1.6,4.3
			c-1.1,3-2.2,6.1-3.2,9.1s-2.2,6.1-3.3,9.1c0.7-1.3,1.6-2.6,2.6-3.7c0.9-1.3,1.8-2.6,2.6-4c1.7-2.7,3.2-5.5,4.5-8.4
			c1.4-3.1,2.2-6.7,3.2-9.9c0.4-1.4,0.9-2.9,1.3-4.3c0.3-1,0.7-2,1-3s0.8-2,1-3c-0.3,0.2-0.6,0.4-1,0.6l-1.1,0.8
			c-0.8,0.6-1.7,1.1-2.5,1.6c-0.8,0.5-1.7,1-2.6,1.4c-0.8,0.4-1.2,0.6-1.9,0.9s-1.6,0.9-2.4,1.4c0.2-0.7,0.4-1.5,0.7-2.2
			c0.3-0.8,0.6-1.5,0.8-2.3c0.6-1.5,1.1-3,1.7-4.5c1.1-3.1,2.3-6.1,3.4-9.2C175.9,130.8,177.7,125.7,179.4,120.7z"/>
		<path class="st2" d="M132.4,149.1c-2.3,2.7-4.9,5-8.7,5.1c-2.5-0.1-4.9-1.4-6.3-3.5c-0.7-1.1-1.2-2.3-1.6-3.6
			c-0.1-0.4-1.3-3.5-1.1-3.7c-0.4,0.6-0.7,1.3-0.9,2c-0.3,0.8-0.7,1.6-1.1,2.3c-0.8,1.6-1.8,3-2.9,4.4c-2.2,2.5-5.3,4.2-8.7,2.9
			s-3.3-5.6-3.7-8.7c-2.8,3.5-5.6,7.9-9.8,10c-1.9,1.1-4.2,0.9-6-0.3c-2.9-2.2-4.5-5.3-6.5-8.2c1.2,5.2,2.4,11.1,8.4,12.5
			c4.9,1.2,9-2.2,12-6c1.5,3.5,5.1,5.5,8.8,5c4.3-0.6,7.9-3.3,9.8-7.2c1.5,2.9,4.2,5.1,7.4,6c3.1,0.9,7.8,0.2,10-2.4
			c1.2-1.4,2.1-3,2.7-4.8c0.3-0.9,0.5-1.8,0.6-2.7c0.1-0.4-0.1-2.2,0.1-2.4C134.1,146.7,133.3,148.1,132.4,149.1z"/>
		<path class="st2" d="M138.5,168.7c0-0.1,0-0.1-0.1-0.1h0c-0.1-0.3-0.8-0.9-0.8-1.1c0.1,1.4-0.3,2.7-1.1,3.8
			c-2,2.8-4.8,2.6-7.2,0.4c-0.5-0.4-2.6-2.6-2.3-3.3c-1.4,3.5-2.4,7.5-6.5,8.7c-2.4,0.6-4.9,0-6.7-1.7c-0.9-0.8-1.8-1.7-2.6-2.6
			c-0.3-0.3-2.1-2.3-2-2.6c-1.3,3.6-3.4,8.5-7.9,8.6c-3.1,0.1-5.6-2.1-7.4-4.4c-0.4-0.5-2.1-3.9-2.5-3.8c-0.7,0.1-2.1,3.4-2.6,4.1
			c-0.9,1.3-1.9,2.5-3.2,3.4c-1.2,1.1-2.6,1.9-4.1,2.4c-1.8,0.4-3.7,0.2-5.4-0.6c-1.2-0.5-2.2-1.3-3.1-2.2c-0.5-0.5-2-2-2-2.8
			c-0.1,3.3,1.5,6.4,4.2,8.2c2.9,2,7.3,0.9,10.2-0.6c2.7-1.3,5.2-2.9,7.4-5c2.1,2.7,5,4.7,8.4,4.7c3.9,0.1,7.4-2.2,9-5.7
			c4.7,6.1,14.4,5.5,17.7-1.8c1.9,2.1,4.9,3,7.7,2.4c1.9-0.4,3.3-2,3.5-4c0.1-1.1,0-2.2-0.3-3.2C138.8,169.5,138.7,169,138.5,168.7z
			"/>
		<path class="st2" d="M138.1,191.9c-1.8,2.1-4.4,3.3-7.1,3.4c-2.5,0-5.6-1.5-7.6-3c-0.7,2.8-2.3,5.3-4.6,7.1
			c-2.1,1.6-5.1,1.3-6.8-0.8c-0.7-0.8-1.3-1.7-1.6-2.7c-0.2-0.6-0.8-2.4-0.4-2.9c-1.8,2.5-4.3,6.5-7.5,7.3c-2.1,0.5-4.3,0-6.1-1.2
			c-1.1-0.8-2-1.8-2.7-3c-0.2-0.6-0.5-1.2-0.8-1.8c-0.4-0.1-0.9,1-1.1,1.3c-1.3,2.1-3.3,3.6-5.6,4.5c-1.7,0.6-3.6,0.7-5.4,0.4
			c-3.9-0.6-7.2-3.8-9.5-6.8c0.2,0.2,0.1,1.1,0.2,1.5c0.1,0.6,0.3,1.1,0.4,1.7c0.4,1.1,0.9,2.1,1.5,3c1.2,1.7,2.9,3.5,5.1,3.9
			c4.8,1.1,9.9,0,13.8-3.1c1.2,1.2,2.6,2.1,4.1,2.8c4.7,2,9.4,0.1,12.4-3.3c1,2.5,2.7,4.7,5.5,5c5,0.6,8.5-3.7,11.4-7.4
			c-0.1,0.2,4.5,1.4,5,1.4c2.5,0.3,4.9-0.6,6.7-2.3c0.7-0.8,1.2-1.7,1.5-2.7c0.3-0.7,0.5-1.4,0.6-2.1c0.1-0.5-0.2-1.6,0-2
			C139,190.7,138.6,191.3,138.1,191.9z"/>
		<path class="st2" d="M131,211.1c-1.5,2.6-3.4,4.8-6.8,5c-3.1,0.1-6.2-2.2-7.6-4.9c-1.6,3.3-3.1,6.9-6.4,8.8s-7-2-8.4-4.7
			c-0.3-0.7-0.7-1.4-1.1-2.1c-0.2-0.5-1.2-1.7-1.2-2.2c-0.9,2-2,3.9-3.3,5.7c-1.2,1.5-2.7,2.8-4.4,3.7c-5.2,2.9-10.3-3.9-12.3-7.9
			c0.1,0.6,0.2,1.3,0.1,1.9c0.1,0.7,0.2,1.3,0.4,2c0.4,1.4,1,2.7,1.8,3.9c1.6,2.2,4.1,3.8,6.8,4.2c4.5,0.8,8.3-2.9,11-6.4
			c1.9,3.1,4.6,5.6,8.4,6.1c4.5,0.5,7.5-3.4,9.2-7.2c-0.2,0.3,2.8,1.8,3.1,2c1.2,0.5,2.6,0.8,3.9,0.8c3.3,0.1,6.2-1.1,7.3-4.4
			c0.3-1,0.5-2,0.6-3.1c0-0.6-0.5-2.5-0.3-2.9C131.7,210,131.4,210.6,131,211.1z"/>
	</g>
</g>
</svg>
