<?xml version="1.0" encoding="utf-8"?>
<!-- Generator: Adobe Illustrator 26.3.1, SVG Export Plug-In . SVG Version: 6.00 Build 0)  -->
<svg version="1.1" id="Layer_1" xmlns="http://www.w3.org/2000/svg" xmlns:xlink="http://www.w3.org/1999/xlink" x="0px" y="0px"
	 viewBox="0 0 329.4 367.2" style="enable-background:new 0 0 329.4 367.2;" xml:space="preserve">
<style type="text/css">
	.st0{fill:#603813;}
	.st1{fill:#DC9F6A;}
	.st2{fill:#F1F1F2;}
</style>
<g id="Layer_2_00000158729409732623226450000016384196378724990128_">
	<g id="Слой_1">
		<path class="st0" d="M326.2,131c-1.7,8.7-13.2,13.6-26.7,16.1c-10.7,2-21.3,10.9-19.4,23.2c-8-4.5-17.6-6.5-26.5-7.5
			c-26.1-3-52.2,1.7-77.9,5.6c-1,0.1-1.9,0.3-2.9,0.4c-11.3,1.6-21.9-0.5-30.6-7.4c15.9-14.1,29.7-33,29.7-51
			c0-6.4-1.1-12.8-3.2-18.8c8.3-2.3,15.5-7.3,20.4-14.4c12.7-18.6,12.1-41.9,12.1-41.9c-8.1,2.2-16.4,3.9-24.8,5
			c-10.9,1.3-24,8.7-30.4,21.5c-26.8-18.9-62.7-18.6-89.3,0.6c-5.5-15-20-23.8-31.9-25.2c-8.4-1.1-16.7-2.8-24.8-5
			c0,0-0.6,23.3,12.1,41.9c6.6,9.7,16,13.6,23.6,15.2c-2.7,6.7-4.1,13.9-4.1,21.1c0,24.4,23.7,50.5,45.5,63.9c0,0.7-0.1,1.4-0.1,2
			c-0.9,13.1,0.1,26.2,3.1,39c0.1,0.6,0.3,1.3,0.5,1.9c-5.5,8.9-12.2,19-24.9,27.1c-14.9,9.5-8.3,22.9,0,35s16.1,44.9,27.7,42.2
			s17.8-29.8,1.7-54.3c0,0,11.4-3.1,17.4-11.8c2.3,1.9,4.8,3.5,7.4,4.9c10.1,28.3,13,58.7,8.3,88.4c-0.8,4.8-1.5,10.5,1.9,14
			s9.2,2.9,13.4,0.6c9.5-5.1,13.6-16.4,16.3-26.8c5.5-21.4,8.1-43.4,7.7-65.5c22.8,10.2,48.7,11,72.1,2.5c0.1,1.3,0.3,2.7,0.5,4.2
			c3.4,22.3,22.6,22,29.2,42.2s-3.7,47.5,13.3,47.2c8.6-0.2,13.1-8.4,15.3-15.7c3-9.3,4.6-19,4.8-28.7c0.1-10-2.5-18.9-4.4-28.5
			c-2.1-10.8-2.4-21.8-1-32.7c1.4-11.1,5.7-20.5,8.9-30.9c3.6-11.4,4.7-26.7,0.7-39.4c9.6,3.4,19.8-1.6,26.8-10.1
			C334.9,167.4,326.2,131,326.2,131z"/>
		<path class="st1" d="M36.5,73.7c-7.5-4.5-9.4-15-14.2-21.9c-4.2-6-11.4-8.4-16.7-13c-0.4-0.3-2.6-2.9-2.3-1.2
			c2.2,16.7,7.8,39.3,25.4,46.2h0.2c0.1,0.1,0.3,0.2,0.4,0.3c0.2,0.1,0.6,0,0.7-0.2c0.1-0.2,0-0.6-0.2-0.7c-1.5-1-2.7-2.3-3.6-3.8
			c2.3,1.9,5.2,3.5,8,3.4c0.2,0.1,0.4,0.2,0.5,0.4c0.3,0.2,0.6,0.1,0.8-0.1c0.1-0.2,0.2-0.4,0.1-0.6c0.1-0.2,0-0.4-0.2-0.5
			c0,0,0,0,0,0c-0.1,0-0.1,0-0.2-0.1c-3.2-2.2-5.4-6.3-6.9-10.1c2.3,1.6,5.2,2.7,7.5,2.4l0,0c0.2,0.1,0.3,0.1,0.5,0.2
			S36.9,73.9,36.5,73.7z"/>
		<path class="st1" d="M164.9,77.4c0.2-0.1,0.3-0.1,0.5-0.2l0,0c2.2,0.3,5.2-0.8,7.5-2.4c-1.5,3.8-3.8,7.8-6.9,10.1
			c-0.1,0-0.1,0-0.2,0.1c-0.2,0.1-0.3,0.3-0.2,0.5c0,0,0,0,0,0c-0.1,0.5,0.4,1.1,0.9,0.7c0.2-0.1,0.4-0.2,0.5-0.4
			c2.8,0,5.7-1.5,8-3.4c-0.9,1.5-2.2,2.8-3.6,3.8c-0.6,0.4-0.1,1.3,0.5,0.9c0.1-0.1,0.3-0.2,0.4-0.3c0.1,0.1,0.1,0.1,0.2,0
			c0,0,0,0,0,0c17.6-6.9,23.1-29.5,25.4-46.2c0.2-1.7-2,0.8-2.3,1.2c-5.4,4.7-12.5,7-16.7,13c-4.8,6.8-6.7,17.4-14.2,21.9
			C164.3,77,164.5,77.6,164.9,77.4z"/>
		<path class="st1" d="M167.5,88.8c-0.4-0.8-0.9-1.6-1.4-2.4l0,0c-10.3-14.5-55-21.9-59.1,65.8H96.7C92.6,64.5,47.9,72,37.6,86.4
			l-0.1-0.1c-0.5,0.9-1,1.8-1.6,2.7c-2.8,6.8-4.2,14.1-4.2,21.4c0,34.6,47.8,72.8,70.1,72.8c19.2,0,70.1-38.2,70.1-72.8
			C171.8,102.9,170.3,95.6,167.5,88.8z"/>
		<path d="M109.2,173.7c-3.5,0.5-5.9-2.8-6.5-5.8c-0.2-1-0.3-1.9-0.3-2.9c4-0.8,9.3-7.2,9.3-10.1c0-3.1-4.5-4.5-10.1-4.5
			s-10.1,1.4-10.1,4.5c0,2.6,4.3,7.9,8,9.6c-0.1,1.1-0.1,2.3-0.3,3.4c-0.5,3-3,6.3-6.5,5.8c-0.3-0.1-0.6,0.1-0.7,0.4
			c-0.1,0.3,0.1,0.6,0.4,0.7c1.7,0.7,3.6,0.6,5.1-0.4c1.8-1.2,2.4-3.5,4.8-1.8s3.9,3.5,7.1,2.2C110.2,174.5,110,173.5,109.2,173.7z"
			/>
		<path d="M54.2,108.7c-1.7-0.7-3.6-0.7-5.2-1.6c-2.1-1.2-3.8-3-4.9-5.2c0-0.2-0.2-0.3-0.4-0.3c-0.1,0-0.2,0.1-0.3,0.3
			c-0.3,2,1.5,4.5,2.7,5.9c1.8,2.2,4.6,3.4,7.4,3.4C54.7,111.1,55.6,109.3,54.2,108.7z"/>
		<path d="M58.5,105.3c-0.5-0.5-1-0.8-1.6-1.1c-0.8-0.5-1.4-1.2-1.8-2.1c-0.9-1.7-1.4-3.6-2.4-5.3c-0.1-0.2-0.4-0.2-0.5,0.1
			c-0.7,2.6,0.2,5.8,1.5,8.1c0.7,1.2,3.8,4.1,5,2C59.1,106.4,59,105.7,58.5,105.3z"/>
		<path d="M64.5,104.2c-1.1-2-1.8-4.2-2.3-6.4c-0.1-0.2-0.2-0.3-0.4-0.2c-0.1,0-0.1,0.1-0.2,0.1c-1.1,2.6-1.1,5.5,0.2,8
			c0.3,0.5,0.8,0.8,1.3,0.8c0.6,0,1.1-0.3,1.3-0.8C64.7,105.2,64.8,104.6,64.5,104.2z"/>
		<path class="st2" d="M62.4,133c3,0,6,0.5,8.8,1.6c2.5-3.8,3.7-8.2,3.6-12.7c0-9.9-5.6-18-12.4-18S50,112,50,121.9
			c-0.1,4.5,1.2,8.9,3.6,12.7C56.4,133.5,59.4,133,62.4,133z"/>
		<path d="M78.4,137.8c-2.1-2.3-4.9-4-7.9-4.8c1.3-2.6,2-5.5,2-8.5c0-7.9-4.4-14.2-9.8-14.2c-0.7,0-1.4,0.1-2.1,0.3l2.7,7.8
			l-7.3-4.2c-3.8,5.8-4.1,13.2-0.9,19.3c-3.6,1.2-6.8,3.6-8.8,6.8c-0.4,0.6,0.5,1.2,1,0.8c7.7-6.8,21.2-8.2,29.6-1.5
			c0.5,0.4,1.3,0.2,1.6-0.3C78.8,138.8,78.8,138.2,78.4,137.8z"/>
		<path d="M149.2,108.7c1.7-0.7,3.6-0.7,5.2-1.6c2.1-1.2,3.8-3,4.9-5.2c0-0.2,0.2-0.3,0.4-0.3c0.1,0,0.2,0.1,0.3,0.3
			c0.3,2-1.5,4.5-2.7,5.9c-1.8,2.2-4.6,3.4-7.4,3.4C148.7,111.1,147.9,109.3,149.2,108.7z"/>
		<path d="M144.9,105.3c0.5-0.5,1-0.8,1.6-1.1c0.8-0.5,1.4-1.2,1.8-2.1c0.9-1.7,1.4-3.6,2.4-5.3c0.1-0.2,0.4-0.2,0.5,0.1
			c0.7,2.6-0.2,5.8-1.5,8.1c-0.7,1.2-3.8,4.1-5,2C144.4,106.4,144.4,105.7,144.9,105.3z"/>
		<path d="M139,104.2c1.1-2,1.8-4.2,2.3-6.4c0.1-0.2,0.2-0.3,0.4-0.2c0.1,0,0.1,0.1,0.2,0.1c1.1,2.6,1.1,5.5-0.2,8
			c-0.3,0.5-0.8,0.8-1.3,0.8c-0.6,0-1.1-0.3-1.3-0.8C138.7,105.3,138.6,104.6,139,104.2z"/>
		<path class="st2" d="M141.1,133c-3,0-6,0.5-8.8,1.6c-2.5-3.8-3.7-8.2-3.6-12.7c0-9.9,5.6-18,12.4-18s12.4,8.1,12.4,18
			c0.1,4.5-1.2,8.9-3.6,12.7C147.1,133.5,144.1,133,141.1,133z"/>
		<path d="M156.9,137.8c-2.1-2.3-4.9-4-7.9-4.8c1.3-2.6,2-5.5,2-8.5c0-7.9-4.4-14.2-9.8-14.2c-0.7,0-1.4,0.1-2.1,0.3l2.7,7.8
			l-7.3-4.2c-3.8,5.8-4.1,13.2-0.9,19.3c-3.6,1.2-6.8,3.6-8.8,6.8c-0.4,0.6,0.5,1.2,1,0.8c7.7-6.8,21.2-8.2,29.6-1.5
			c0.5,0.4,1.3,0.3,1.7-0.2S157.4,138.2,156.9,137.8L156.9,137.8z"/>
		<path class="st1" d="M88.1,63.4c-0.1-0.2-6.3-14.7-12.5-30.2L83,10.1c0.6-2-0.4-4.1-2.4-4.7s-4.1,0.4-4.7,2.4l-4.6,14.4
			c-2.9-7.5-5.4-14.5-6.8-19.4c-0.6-2-2.6-3.1-4.6-2.5s-3.1,2.6-2.5,4.6c2.1,7.3,6.4,18.5,10.7,29.4c0.1,0.4,0.2,0.8,0.4,1.1
			c1.3,3.3,2.7,6.6,3.9,9.7L52.2,34.2c-1.8-1-4-0.3-5,1.5s-0.3,4,1.5,5L77,55.9c2.4,5.8,4.2,9.8,4.4,10.3c0.6,1.2,1.7,2.1,3.1,2.2
			c0.6,0.1,1.2,0,1.8-0.3C88.1,67.3,88.9,65.2,88.1,63.4z"/>
		<path class="st1" d="M113.5,63.4c0.1-0.2,6.3-14.7,12.5-30.2L118.7,10c-0.6-2,0.4-4.1,2.4-4.7s4.1,0.4,4.7,2.4l4.6,14.4
			c2.9-7.5,5.4-14.5,6.8-19.4c0.6-2,2.6-3.1,4.6-2.5s3.1,2.6,2.5,4.6c-2.1,7.3-6.4,18.5-10.7,29.4c-0.1,0.4-0.2,0.8-0.4,1.1
			c-1.3,3.3-2.7,6.6-3.9,9.7l20.2-10.9c1.8-1,4-0.3,5,1.5s0.3,4-1.5,5l-28.3,15.2c-2.4,5.8-4.2,9.8-4.4,10.3
			c-0.6,1.2-1.7,2.1-3.1,2.2c-0.6,0.1-1.2,0-1.8-0.3c-1.8-0.6-2.7-2.6-2-4.3C113.4,63.6,113.5,63.5,113.5,63.4z"/>
		<path class="st0" d="M260.1,344.1c-0.1-7.6-0.1-16.2-2.5-23.6c-2.9-8.9-8.2-13.5-13.9-18.4c-6.6-5.6-13.4-11.5-15.3-24.1
			c-0.1-0.7-0.2-1.3-0.3-2c-6.3,2.2-12.9,3.7-19.6,4.4c4.5,19.6,22.4,20.2,28.6,39.5c6.5,20.2-3.7,47.5,13.3,47.2
			c4.9-0.1,8.5-2.8,11-6.5C260.2,356.1,260.2,350.2,260.1,344.1z"/>
		<path class="st1" d="M237.1,240.6c-34.7,16.5-84.2,3.3-84.2,3.3c4.5,10.8,4.7,27.1,4.7,27.1c22.8,10.2,48.7,11,72.1,2.5
			C228.6,255.5,237.1,240.6,237.1,240.6z"/>
		<path class="st1" d="M78.3,206.1c0.5,3.1,1.1,6.1,1.8,9.2c2.3,10.1,5.9,19.9,11.8,28.5c4.6,6.9,10.8,12.6,18.1,16.6
			C106.4,237.5,97.8,219.2,78.3,206.1z"/>
		<circle class="st1" cx="157.4" cy="188.1" r="6.6"/>
		<circle class="st1" cx="131.4" cy="189.8" r="5.4"/>
		<circle class="st1" cx="148.3" cy="215.8" r="6.2"/>
		<circle class="st1" cx="177.7" cy="206.1" r="4.5"/>
		<circle class="st1" cx="191.4" cy="186" r="4.5"/>
		<circle class="st1" cx="220.7" cy="175.3" r="6.2"/>
		<circle class="st1" cx="210" cy="201.8" r="5.8"/>
		<circle class="st1" cx="231.9" cy="214.2" r="4.1"/>
		<circle class="st1" cx="247.2" cy="192.3" r="5"/>
		<circle class="st1" cx="268.3" cy="182.7" r="4.5"/>
		<circle class="st1" cx="267.5" cy="206.3" r="5"/>
		<path d="M64.3,297.1c5.5,12.9,11.5,26.3,19.1,24.5c7.3-1.7,12.5-13.2,11.2-27.7C84.2,301.8,74.5,300.4,64.3,297.1z"/>
		<path d="M150.3,334.7c-16,5.2-24.7,0.4-30.2-5c-0.3,6.4-1,12.7-2,19c-0.8,4.8-1.5,10.5,1.9,14s9.2,2.9,13.4,0.6
			c9.5-5.1,13.6-16.4,16.3-26.8C150,335.9,150.2,335.3,150.3,334.7z"/>
		<path d="M239.6,336.6c0.6,15.9-1.7,30.8,10.9,30.5c4.9-0.1,8.5-2.8,11-6.5c-1.3-4.5-1.4-10.4-1.4-16.5c0-1.8,0-3.6-0.1-5.5
			C251.3,342.7,245.3,340.3,239.6,336.6z"/>
		<path d="M261.7,335.5c0.7,16.3-2,31.9,10.9,31.7c8.6-0.2,13.1-8.4,15.3-15.7c2-6.3,3.4-12.8,4.1-19.4
			C280.5,340.4,269.3,338.2,261.7,335.5z"/>
	</g>
</g>
</svg>
