<svg xmlns="http://www.w3.org/2000/svg" viewBox="0 0 264.8 306.48"><defs><style>.cls-1{fill:#515252;}.cls-2{fill:#a0a09f;}</style></defs><g id="Layer_2" data-name="Layer 2"><g id="Слой_1" data-name="Слой 1"><path class="cls-1" d="M255.91,134.72a102.5,102.5,0,0,1-4.6-15.9c-2.6-13.2-.1-23.5,3.9-35.9-17.7,4.2-30.3,8.3-44.3,20.3-24.3,21-30.7,50.8-27,82,2.6,21.6,7,42.8-6.5,62.1-1.2,1.7-2.5,3.3-3.8,4.9a147.23,147.23,0,0,0-1.2-17.6c-.9-7.4-2.1-14.7-3.2-22-2-13.7-2.7-29.9-7.4-43.9a56.72,56.72,0,0,0-5.7-12.2c-9.6-15.3-25-27.4-43.5-30.3-15.4-2.4-33.8-5.4-47,4.2a95.42,95.42,0,0,0-30.3,37c-7.2,15.6-6.1,30.8-9.6,46.9-2.9,13.1-5.6,26.3-5.5,39.7.1,8.7.8,19.6,5.6,27.2a42.85,42.85,0,0,0,26.7,19,210.6,210.6,0,0,0,32.6,5.1,180.7,180.7,0,0,0,31.2-.6c11.7-1.3,24.6-3.7,35.2-9.7,9.2.6,18.9-2.3,27.7-4,27.3-5.5,52.5-24.9,67.6-48.1C268.41,209.22,269.41,171.32,255.91,134.72Z"/><path class="cls-2" d="M148.91,217.42c-4-10-10.5-18.2-18-26.5,3.5.4,6,.3,9.4,1.6a43.35,43.35,0,0,0-25.5-22c-.3,2.8,0,6-.9,8.7-2.1-3.1-6.8-13.4-10.9-12.7-4.8.8-7.9,6.1-11.1,9.1-2-2.7-2.1-8-2.8-11.3A77,77,0,0,0,53.81,193a61.72,61.72,0,0,0,7.5.4c-.1,0-.9,1-1.1,1.1a10.7,10.7,0,0,0-1.4,1.6l-2.9,3.2c-1.8,2.1-3.6,4.4-5.2,6.7-3.7,5.6-6.5,11.8-9.8,17.6,3.2-.5,6.3-.9,9.5-1.4a77.53,77.53,0,0,0-6.5,14c-1.4,4.1-3.8,9.8-3.3,14.1,2-.5,4-1.9,5.9-2.9.7,11.6,1.5,23.1,2.2,34.7l6.7-7a28.6,28.6,0,0,0,1.1,6c1,3.5,2.7,5.7,4.9,8.5,8.9,10.9,22.9,13.5,37.6,14,21.2.8,34.4-10.5,40.7-26.8,2-5.3,4.1-11,3.9-16.7,2,1.4,4.1,2.8,6.1,4.2a57.06,57.06,0,0,0-8.4-40.2c3.7,1.7,7.4,3.5,11.1,5.2A63.66,63.66,0,0,0,148.91,217.42Z"/><path d="M157.41,194.52c-3.8-6.9-12-5.6-13.6,2.3-.6,2.9-.4,6-.8,9-1,7.5-4.9,15.7-11.4,19.9-5.2,3.3-12.3,1.9-18,.9-4.7-.8,1.3,3.8,1.3,5.9,0,1.9-2.6,2.9-4,3.4-2.1.7-4.2,1.5-6.4,2.1-.7.2-3.4.9-2.1,2,.8.7,4.2.7,5.3.9,1.4.2,2.8.1,4.2.2.6,0,1.6,0,2,.6,1.4,2.1-6.9,5.4-8,5.9-.7.3-1.3,1.1-.4,1.6,1.4.9,3.8,0,5.3-.2,2.1-.4,4.3-1.1,6.4-1.4,1.1-.2,2.9-.2,2.3,1.4a8.55,8.55,0,0,1-2.2,2.8c-.8.8-3.7,2.5-2.5,3.4,2,1.4,7.3-1.8,9.2-2.7,7.9-3.9,14.8-11.5,20.3-18.3a88.73,88.73,0,0,0,11.8-19C158.81,208.92,160.91,201,157.41,194.52Z"/><path d="M39.31,194.52c3.8-6.9,12-5.6,13.6,2.3.6,2.9.4,6,.8,9,1,7.5,4.9,15.7,11.4,19.9,5.2,3.3,12.3,1.9,18,.9,4.7-.8-1.3,3.8-1.3,5.9,0,1.9,2.6,2.9,4,3.4,2.1.7,4.2,1.5,6.4,2.1.7.2,3.4.9,2.1,2-.8.7-4.2.7-5.3.9-1.4.2-2.8.1-4.2.2-.6,0-1.6,0-2,.6-1.4,2.1,6.9,5.4,8,5.9.7.3,1.3,1.1.4,1.6-1.4.9-3.8,0-5.3-.2-2.1-.4-4.3-1.1-6.4-1.4-1.1-.2-2.9-.2-2.3,1.4a8.55,8.55,0,0,0,2.2,2.8c.8.8,3.7,2.5,2.5,3.4-2,1.4-7.3-1.8-9.2-2.7-7.9-3.9-14.8-11.5-20.3-18.3a88.73,88.73,0,0,1-11.8-19C37.91,208.92,35.81,201,39.31,194.52Z"/><path d="M74.11,300.32c-12.6-8.4-51.2-22.1-58.3-.4-3,9.2,7.2,6.2,14.5,5.7l46-3.6A12.82,12.82,0,0,0,74.11,300.32Z"/><path d="M124.21,301.92l46,3.6c7.3.6,17.4,3.5,14.5-5.7-7.1-21.7-45.7-8-58.3.4A24.56,24.56,0,0,0,124.21,301.92Z"/><path class="cls-2" d="M139.41,149.72c-.2-.2-.4-.3-.6-.5-2-1.7-3.3-.8-3.2,1.7a39.61,39.61,0,0,1-.6,8.4,68.38,68.38,0,0,0-14.7-10.9,82.77,82.77,0,0,1,16.3,20.5,70.58,70.58,0,0,0,2.8-8.9,81.69,81.69,0,0,1,8.5,9.1c1.3,1.6,2.6,3.2,3.9,4.9.9,1.3,3.1,3.3,3.4,4.9a55.38,55.38,0,0,0-7-17.5C145.81,157.32,143,152.92,139.41,149.72Z"/><path class="cls-2" d="M28,270.12c.1.5.3,1,.4,1.5.3.8.7,1.6,1,2.5a66.38,66.38,0,0,1,6.8-9,68.41,68.41,0,0,0,5.6,15.7,76.92,76.92,0,0,1-2-23.9,58.83,58.83,0,0,0-6.6,5.3,68.94,68.94,0,0,1-1.9-11.2c-.2-1.9-.4-3.8-.5-5.7a20.64,20.64,0,0,1-.1-5.4,51.45,51.45,0,0,0-3.5,16.8,66.1,66.1,0,0,0,.1,8.9A35,35,0,0,0,28,270.12Z"/><path class="cls-2" d="M264.41,188.72c-.5,3.2-1.8,6.7-4.7,7.3-3.1.6-5.5-2.8-6.9-5.6l-12.4,1.8c-.4.1-.8.1-1.2.2-3,.4-6,.8-8.9,1.3-3.5.5-7.2,1-10.5-.4a10.3,10.3,0,0,1-6.1-10.4c-1,2.1-4.1,2.4-6.1,1.3s-3.4-3.1-4.8-5-3.1-3.8-5.4-4.2c-.2,0-.4-.1-.6-.1a5.79,5.79,0,0,0-5.9,4.4c-2.2-3.2-7.1-7.8-7.8-12H183a136.5,136.5,0,0,0,.9,18c.4,3.2.8,6.3,1.2,9.5.4,2.9,2,6.2,2.8,9,1.2,4.2,3.6,8.4,5.4,12.4,3.5-.6,7-1.2,10.5-1.9,1.1,4.2,2.3,8.3,3.4,12.5a33.8,33.8,0,0,0,17.3-4.7c.8,2.8,2.4,5.6,4.9,7s6.2,1.2,8.1-1.1c-1.3,1.6,4.8,6.7,6,7.2.1,0,.1.1.2.1,3.5,1.4,6.5-1.5,9.4-3.5a109,109,0,0,0,11.5-43C264.51,188.72,264.51,188.72,264.41,188.72Z"/><path class="cls-2" d="M255.91,134.72c-1.1-3.1-2.2-6.2-3.1-9.4a2.57,2.57,0,0,1-1,2.2c-2.1,1.6-6,.1-7.7-1.2-2.6-1.9-4.1-4.8-5.7-7.6a11.43,11.43,0,0,1-3.1,4.1c-1.4,1-3.4,1.4-4.8.4a5.33,5.33,0,0,1-1.6-2.3c-1.8-3.5-3.6-7-5.3-10.5a15,15,0,0,1-2.9,4.2,6.36,6.36,0,0,1-3.6,1.7h-1c-2.6-.4-7.4-11.2-5.7-12.7a77.58,77.58,0,0,0-16.6,20.4,7,7,0,0,1-.5,2.5c.6,4.8,1.8,10.7,6.9,12.2a8.23,8.23,0,0,0,9.4-3.8c1.5,5.8,3,11.7,4.5,17.5,3.6-1,7.2-1.9,10.8-2.9,4,2.8,8,5.7,12,8.5-1-2.9,1.6-6,4.6-6.5s6,1,8.3,2.8c4.4,3.5,8.3,7.7,13.1,10.6a.37.37,0,0,0,.3.1,1.38,1.38,0,0,1,.4-.3A142.35,142.35,0,0,0,255.91,134.72Z"/><path class="cls-2" d="M186.51,267.82c.4,1.5-.3,3-.4,4.6-.1,3.1,2.9,5.7,5.9,6.3s6.2-.2,9.3-1.1c-2.4,4.5-3.4,6.9-7.3,8.8h.1a110.07,110.07,0,0,0,36.1-23.6c-1.4.4-6.3.9-6.8.4-1.4-2.2-2.9-4.3-4.3-6.5a15.84,15.84,0,0,1-4.9,2,5.4,5.4,0,0,1-4.9-1.4c-.8-.9-1.1-2-1.8-2.9a5.9,5.9,0,0,0-8.6-.8l-1.8-6.6c-4-.7-8.1-1.4-12.1-2.2,1.7-4.2.3-7.4-.1-11.6a13.09,13.09,0,0,1,0-2.8,48.32,48.32,0,0,1-7.7,16.9,58.83,58.83,0,0,1-7.2,8.5,4.78,4.78,0,0,1,2.4-.1,12.17,12.17,0,0,1,5.1,3.3c2.3,2,4.5,4.1,6.8,6.1A5.77,5.77,0,0,1,186.51,267.82Z"/><path class="cls-2" d="M191.61,71.82c-2.5-3.4-5-6.8-7.7-10.1-1.6-2-3.2-3.9-4.8-5.8,3.7-6.9,3.9-16.9,4-24.2,0-10.1-.2-24-9.9-29.6-9.3-5.4-20.3.6-28.4,6a59.39,59.39,0,0,0-16,15.6,114,114,0,0,0-36.1-5.3,86.12,86.12,0,0,0-27.9,5.2,118.57,118.57,0,0,0-9.4-7.7c-7.9-5.9-22.1-16.1-31.8-9.7-8.1,5.4-9.3,16.5-10,25.4A59.59,59.59,0,0,0,17.41,57c-7.2,8.1-13.5,17.4-17,27.3a1.35,1.35,0,0,0,0,.9,2,2,0,0,0,0,2.4c5.8,6.9,13.3,12.1,20.1,17.3,25.4,19.3,58,34.3,90.5,31,16-1.6,32.5-9.8,46.1-18.2a136.76,136.76,0,0,0,26.2-21.8c3.8-4,8.1-8.1,11.2-12.7C197.31,78.82,194.31,75.52,191.61,71.82Z"/><path d="M112.91,104.52c-3.4-7.4-16.4-5.7-22.1-2.7a9.35,9.35,0,0,0-4.8,6.6c-.2,2.4,2.1,6.7,5,4.8a12.06,12.06,0,0,0,2.1-2.4c.7-.8,2-1.3,2.8-.6,1,.9.3,3,.9,4.2a5,5,0,0,0,3.7,2.6,4.79,4.79,0,0,0,4.5-2.3c1.2-2.4-.6-8.7,3.8-3.6,1.3,1.6,3,1.3,4.1-.3C114.21,108.92,113.81,106.42,112.91,104.52Z"/><path class="cls-1" d="M52.31,109.12c0,1.6,2,3.1,3.1,4a15.37,15.37,0,0,1,1.9,1.7c.3.3,2.9,1.6,2.8,1.8a32.6,32.6,0,0,1,.5-4.5,57,57,0,0,1,6.1-16.4c.2,3.1,2,5.7,3.4,8.3a42,42,0,0,1,8-12.7c1.6-1.8,3.5-3.2,4.8-5.3a21.17,21.17,0,0,0,2.5-6.9,21.5,21.5,0,0,0-2.6-15.3c-3-4.9-8.4-7.1-13.9-8-12.1-2-24.2,4.4-33.6,11.5a35.47,35.47,0,0,0-5.9,5,28.79,28.79,0,0,0,5.2,1.7,66.1,66.1,0,0,0-12.9,15c2.2-.8,4.3-1.6,6.5-2.4a62.74,62.74,0,0,0-2.6,8.1,37.69,37.69,0,0,0-1.2,8.7,33.71,33.71,0,0,0,3.2-1.9,35.74,35.74,0,0,0,8.2,13.8A146,146,0,0,0,55,125.42,40.82,40.82,0,0,1,52.31,109.12Z"/><path class="cls-1" d="M157,117.62a115,115,0,0,0,10.7-7.6,35.74,35.74,0,0,0,3.9-8.4,15,15,0,0,0,3.2,1.9c-.2-4.5-.6-6.9-1.2-8.7a58.16,58.16,0,0,0-2.6-8.1c2.2.8,4.3,1.6,6.5,2.4a66.1,66.1,0,0,0-12.9-15,28.79,28.79,0,0,0,5.2-1.7,35.47,35.47,0,0,0-5.9-5c-9.4-7.1-21.5-13.5-33.6-11.5-5.5.9-10.9,3.1-13.9,8a21.5,21.5,0,0,0-2.6,15.3,21.17,21.17,0,0,0,2.5,6.9c1.3,2.1,3.2,3.5,4.8,5.3a42,42,0,0,1,8,12.7c1.4-2.7,3.2-5.2,3.4-8.3a53.21,53.21,0,0,1,6.1,16.4c.3,1.5.3,3,.5,4.5,0-.3,2.5-1.6,2.8-1.8.6-.6,1.2-1.1,1.9-1.7,1.1-.9,3.2-2.4,3.1-4a43.87,43.87,0,0,1-2.4,15.6C148.91,122.52,153.11,120.12,157,117.62Z"/><path d="M71.51,77.12a19.63,19.63,0,0,0-10.7-6.3c-8.1-1.6-19.6,3.8-18.6,11.3a2.06,2.06,0,0,0,2.6,1.6c2.3-.8,3.6-2.4,5.3-4a12.25,12.25,0,0,1,12.8-2.3A23.42,23.42,0,0,1,70,82c1.1,1,1.8,2.3,2.8,3.3,1.8,1.9,2.3-.3,2.1-1.9A14.4,14.4,0,0,0,71.51,77.12Z"/><path d="M127.81,77.22a19.62,19.62,0,0,1,10.7-6.4c8.1-1.6,19.6,3.8,18.6,11.3a2.06,2.06,0,0,1-2.6,1.6c-3-1-5.1-3.4-7.7-4.9a11.69,11.69,0,0,0-8.1-1.7c-5.4.9-10.1,5-13.1,9.3-.7,1-1.4.2-1.6-.4-.3-.9.5-2.8.8-3.7A14.63,14.63,0,0,1,127.81,77.22Z"/><path class="cls-1" d="M57.71,29.32a42.11,42.11,0,0,0-22-14.7c-3.8-1-8.2-1.4-11.2,1.1-2.5,2.1-3.3,5.5-3.7,8.8A64.38,64.38,0,0,0,24,53.72c2.1-5.3,4.1-10.6,6.2-15.9a9.84,9.84,0,0,0,6.8,5.9c-.3-2.9-.2-6.2,1.8-8.4s6.2-2.4,7.4.3c-.2-3-.4-6.1-.5-9.1C49.71,27.42,53.71,28.32,57.71,29.32Z"/><path class="cls-1" d="M170.41,52.92c-2.1-5.7-4.1-11.4-6.2-17.2-2.2,3.6-4.4,7.2-6.6,10.7V29.92c-4.8,2.2-9.6,4.4-14.3,6.7,1.6-3.3,3.3-6.6,4.9-9.9l-10.5.3c5.4-4.2,10.9-8.4,16.3-12.7,4.1-3.2,9-6.5,13.9-4.9,5.4,1.7,7.2,8.3,7.6,13.9A66.65,66.65,0,0,1,170.41,52.92Z"/><path class="cls-1" d="M114.91,49.72a17.81,17.81,0,0,0-4.2-2.7,38.35,38.35,0,0,1,5.4-3.5,50.59,50.59,0,0,1,5.9-2.6,31.64,31.64,0,0,0-10.7-8.1,20.71,20.71,0,0,1,9-4.5,47.32,47.32,0,0,0-22.2-4.5,51.8,51.8,0,0,0-11.8,1.8c-3.8,1-7.8,2.4-10.9,4.8a31.73,31.73,0,0,1,4.8,1,41,41,0,0,1,6.1,2.2c-1.8,1.3-3.6,2.6-5.3,4.1a53.72,53.72,0,0,0-4.2,4.5c3.9,1,10.2,1.7,12.7,5.4a31.67,31.67,0,0,0-4.1,1.7c-1.4.8-2.4,1.3-3.7,2.1,9.6,5.3,12.7,14.8,14,25,.2,1.8,1.2,19.2,1,19.2l6.5-.6c.2-6.4.8-12.9,1.6-19.4a37.62,37.62,0,0,1,3.6-13.1c2.3-4.4,5.6-7.1,9.7-9.7A23.45,23.45,0,0,0,114.91,49.72Z"/><path d="M121.71,119.12a3.11,3.11,0,0,0-.7-.9c-1.6-1.1-3.1,1.6-4.1,2.5a21.45,21.45,0,0,1-5.4,3.4c-3,1.3-6.2,1.3-9.4,1.6-.6,0-1.8-.1-1.9.6-.1.5.6.9.9,1.1a9.7,9.7,0,0,0,3.3,1c1.1.2,2.3.1,3.3.2a19.23,19.23,0,0,0,9.5-1.8c2.3-1.2,4.9-4,4.7-6.8A1.49,1.49,0,0,0,121.71,119.12Z"/></g></g></svg>