<?xml version="1.0" encoding="utf-8"?>
<!-- Generator: Adobe Illustrator 26.3.1, SVG Export Plug-In . SVG Version: 6.00 Build 0)  -->
<svg version="1.1" id="Layer_1" xmlns="http://www.w3.org/2000/svg" xmlns:xlink="http://www.w3.org/1999/xlink" x="0px" y="0px"
	 viewBox="0 0 278.9 359.5" style="enable-background:new 0 0 278.9 359.5;" xml:space="preserve">
<style type="text/css">
	.st0{fill:#E16A26;}
	.st1{fill:#FFCD6B;}
</style>
<g id="Layer_2_00000152950563456580296790000004498520776407404178_">
	<g id="Слой_1">
		<path class="st0" d="M271,199.3c-1.7-4.6-3.1-9.4-4.1-14.2c-2.3-11.7-0.1-20.9,3.4-31.9c-15.7,3.7-27,7.4-39.4,18.1
			c-21.6,18.6-27.3,45.1-24,72.9c2.3,19.2,6.2,38.1-5.8,55.2c-4.6,6.5-10.6,11.8-16.9,16.7c4.5-6.4,8.7-13,12.4-19.9
			c3.6-6.5,8-18.7,7.7-29.3c-0.2-6.1-2-11.7-6.4-15.5c-6.9-5.8-16.3-6-24.7-3.5c-2.7-27.4-12-55.4-21.1-75.8
			c-4.2-9.6-7.7-19.7-12.5-28.1c1.6-1.1,3.2-2.3,4.8-3.4l19.5-13.8c4.5-3.2,9-7.4,14.9-4.8c2.8-5,2.3-12.3,1.4-17.8
			c0-0.2,0-0.3-0.1-0.5c-0.8-4.9-4.9-12.9,3.3-11.5c-3.8-6.9-7.1-14.1-11.2-20.7c0.2-4.6,0.2-9.3,0-14c-0.4-7.7-1.3-15.4-2.4-22.6
			c-0.9-5.7-2.1-10.8-3.4-16.5c-2.1-8.6-5.3-18.2-5.1-18.3c-14,8.4-25.8,20.3-35.1,33.7c-2.5,3.4-4.8,6.9-6.8,10.6h-0.7
			c-13.8-0.5-27.8-0.8-41.4,1.7c-0.5-1-0.9-2.1-1.3-3.1c-0.1-0.1-0.1-0.3-0.2-0.4c-2-5.1-4.5-10.1-7.6-14.6c-4-6.1-9-11.2-14.3-16.2
			C52.7,10.6,37.5-0.8,37.2,0c-4.3,9.3-6,18.1-7.7,29.4c-1.3,8.3-2.9,16.5-3.2,24.9c-0.3,6.8-1.6,16.9,1,23.4
			c0.1,0.2,0.1,0.3,0.2,0.5c-3.2,4.4-6,9.2-8.2,14.2c0.4-0.8,3.6-0.2,4.1,0.4c1.6,1.9-2.5,9.2-3,11.3c-1,5-1.6,10.8-0.5,15.7
			c8.8-4.6,14.2,2.5,19.9,8.1c5.3,5.4,11,10.5,16.9,15.2c-8.2,14.5-13.5,32.4-17.7,47.6c-5.4,19.7-7,39.4-8.5,59.4
			c-1.7-0.6-3.4-1.1-5.1-1.5c-5.5-1.2-11-0.7-15.5,2.8c-12.2,9.5-11.5,29.9-6.6,40.3c10.6,22.7,31,49.6,55,55
			c14.7,3.3,31.6,4.6,46.8,5.3c13.7,0.7,28.6,0.4,41.7-4.1c6.8-2.5,13.1-6.1,18.6-10.9c1.1,1.4,3.3,2.6,6.9,3.6
			c9.9,2.8,20.9-0.6,30.6-2.6c24.3-4.9,46.7-22.1,60.1-42.7C282.2,265.6,283,231.8,271,199.3z"/>
		<path d="M137.7,82.4c-8.9-0.3-15.6,7.2-18.9,14.7c-0.5,1.1,1,2,1.6,0.9c3.4-5.9,9-10.1,15.9-10.7c3.3-0.3,6.3,1.2,9.1,2.7
			c2.4,1.3,3.6,3.4,5.8,4.8c0.4,0.2,0.9,0,1.1-0.4c0,0,0,0,0,0C154,86.7,143.6,82.6,137.7,82.4z"/>
		<path d="M62.5,82.4c8.9-0.3,15.6,7.2,18.9,14.7c0.5,1.1-1,2-1.6,0.9c-3.4-5.9-9-10.1-15.9-10.7c-3.3-0.3-6.3,1.2-9.1,2.7
			c-2.4,1.3-3.6,3.4-5.8,4.8c-0.4,0.2-0.9,0-1.1-0.4c0,0,0,0,0,0C46.3,86.7,56.7,82.6,62.5,82.4z"/>
		<path class="st1" d="M41.3,16.5c-5.7,1.7-5.5,23.2-5.7,28.1c-0.3,6.3-2.7,19.9,3.4,24.1c1-2.3,3.3-13.9,2-16.2l5.8,7
			c1.9-3.1,2.8-6.8,2.3-10.4c1.4,2.5,3.8,4.3,6.5,5.1c-0.7-4.3-1.4-8.6-2-12.9c3.5,2,9.7,7.8,13.7,6.2c-3.9-6-7.3-12.4-11.7-18
			c-2.7-3.5-8.5-13.7-13.9-12.9C41.6,16.6,41.5,16.5,41.3,16.5z"/>
		<path class="st1" d="M155,17.7c1.3,1,1.8,5.7,2.1,6.9c1.4,5.8,2.5,11.6,3.4,17.4c0.5,3.4,0.8,6.7,1.1,10.1
			c0.2,1.9,1.2,6.3-0.2,7.8c-3.4,3.8-5.8-9.7-4.6-11.7c-2.7,4.5-6.5,8.4-11,11.1c0.1-4.4,0.2-8.8,0.2-13.2l-6.6,5.4
			c0.6-3.2,1.1-6.4,1.7-9.7c-1.8,1.2-6.9,6.3-8.1,2.7c-0.8-2.3,2.6-7.2,3.8-9c3.4-5.4,8.2-9.7,12.9-13.9c0.8-0.7,3.7-4.3,4.8-4.2
			C154.8,17.6,154.9,17.6,155,17.7z"/>
		<path d="M191.9,349.1c-0.1-1.4-0.4-2.8-1.1-4c-7.4-15.5-33.3-7.7-43.4,1.1c-6.3,5.5,1.3,6.1,6.5,6.8c4.3,0.6,8.5,1.6,12.8,2.2
			C172.1,356,192.3,359,191.9,349.1z"/>
		<path d="M41.7,353.3c4.3-0.6,8.5-1.6,12.8-2.2c5.2-0.7,12.8-1.3,6.5-6.8c-10.1-8.8-36-16.6-43.4-1.1c-0.6,1.2-1,2.6-1.1,4
			C16.1,357,36.3,354,41.7,353.3z"/>
		<path class="st1" d="M168.4,109.6c-1.2-1-2.6-1.7-4.1-2c-3.5-1.1-7.2-1.5-10.9-1.3c0.8-1.4,1.6-2.9,2.3-4.3
			c-3.2-0.4-6.5-0.1-9.6,0.9c-1.9,0.5-11,2.7-11.6,4.7c0.6-1.9,1.1-3.8,1.7-5.7c-7.1,2.2-13.2,6.9-17.1,13.3
			c0.5-2.6,0.9-5.3,1.4-7.9c-5.9,5.4-11.8,9.7-14.3,17.6c-0.3,0.6-1,0.9-1.6,0.7v0.1c-0.3,0.9-2.1,0.9-2.9,0.4
			c-0.3-0.1-0.6-0.3-0.7-0.6c-0.1-0.2-0.2-0.4-0.4-0.6c-0.8,0.5-2.5,0.5-3-0.4c-4.1-7.6-7.9-12.2-15.2-16.9c0.6,0.4,0.5,5,0.6,5.8
			c-0.5-2.7-5.2-5.2-7.2-6.8c-3.8-2.9-8.2-5.1-12.8-6.5c1.4,1.9,2.8,3.8,4.2,5.8c-2.1-2.9-9.4-4.3-12.7-4.8c-4.6-0.7-8.5,0-13.1,0.9
			c2.3,0.7,4.2,2.4,5.3,4.5c-1.5-3.2-10.4-2.3-13.1-1.6c-4.4,1.1-5.2,4.7-4.4,9c1.8,9.9,11.1,16.4,18.7,22c2.8,2.1,5.7,4,8.6,5.9
			c-0.2,0.1-0.4,0.2-0.5,0.4c-5.4,3.8-9.7,8.9-12.6,14.9c-3.1,6.1-5.2,14-7.9,20.4c2.5-1,5.6-2.9,8.2-2.9
			c-0.1,11.6-0.6,22.2,2.1,33.6c1.4,6.2,3.4,12.2,5.1,18.4c0.8,3.1,1.6,6.3,2.1,9.5c0.2,1.4,1,7.5,0.8,9.2c1.8-2.4,3.5-4.7,5.3-7.1
			C65.2,253.5,75,266.8,87,276c0.2-5.1,0.5-10.2,0.7-15.3c1.6,13.8,3.4,27.6,4.1,41.4c0.4,8-0.2,15.9-0.1,23.9
			c0.1,5.2-1.2,9.8-1.4,14.9c-0.4,9.8,14.1,13.4,20.8,7.3c4.2-3.8,3.8-10.9,3.4-16c-0.8-11.5-0.9-22.9-1.4-34.4
			c-0.2-5.2-0.8-10.7,0.3-15.8c0.8-3.9,2.7-7.2,4.1-10.9s2.6-7.3,4.2-10.8c0.3-0.6,0.5-1.1,0.8-1.7c0.5,3.3,0.9,6.6,1.4,9.9
			l14.6-33.7l2.5,6c-0.5-1.3,8.6-18.5,9.5-21c2.7-8,4.9-16.2,6.7-24.5c0.4-1.8,1.5-20.4,0-22.9c1.7,0.4,3.3,1.1,4.7,2.1
			c0-7.1-3-13.8-7.2-19.4c-2.2-3.2-4.7-6.2-7.5-8.9c-1.5-1.3-3.1-2.3-4.9-3.1c-0.2-0.1-0.3-0.1-0.5-0.2c7.2-4.7,14.2-9.6,21-14.7
			c3.6-2.8,7.1-5.3,7.8-10c0.1-0.9,0.2-1.9,0.1-2.8C170.7,113.3,169.9,111.2,168.4,109.6z M138,146.2c-10.4,14.6-29.4,26-47.5,20.2
			c-7.2-2.4-13.6-6.7-18.6-12.3c-1.4-1.6-2.7-3.2-3.9-5l7.8,4.5c8.5,4.9,17.9,10,27.8,8.6c5.4-0.7,11.5-3.4,16.2-5.9
			c6.1-3.3,12.1-6.8,17.9-10.5l0.9-0.6C138.4,145.5,138.2,145.9,138,146.2z"/>
		<path d="M96.6,330.5c0.6-7.7,0.7-15.5,0.3-23.2c-0.2-6.9-0.7-13.7-1.3-20.6c-0.5-6.6-0.3-13.8-2.4-20.2c-1.4-4.4-5.3-7.6-10.5-8.6
			c-10.6-2-8.5,13-7.6,18c2.4,14.5,4.4,29.9,3.8,44.7c-0.3,5.7,0.6,16.4-3.4,21.2c-3.2,3.8-10.8,3.6-10.3,9.6
			c0.7,10.3,21.3,8.5,26.8,3.4S96.1,337.3,96.6,330.5z"/>
		<path d="M114.8,355.4c5.5,5.1,26,6.9,26.8-3.4c0.4-6-7.2-5.8-10.3-9.6c-4-4.8-3.2-15.5-3.4-21.2c-0.7-14.9,1.4-30.2,3.8-44.7
			c0.8-5.1,3-20-7.6-18c-5.2,1-9,4.2-10.5,8.6c-2.1,6.4-1.9,13.6-2.4,20.2c-0.6,6.9-1.1,13.7-1.3,20.6c-0.3,7.7-0.2,15.5,0.3,23.2
			C110.6,337.8,109.3,350.3,114.8,355.4z"/>
		<path class="st1" d="M269.9,203.9c0.2-1.5,0.3-3,0.4-4.5c0.2-2.4-0.8-4-1.5-6.3c-0.8-2.6-1.5-5.3-2-8c-2.3-11.7-0.1-20.9,3.4-31.9
			c-15.7,3.7-27,7.4-39.4,18.1c-5.3,4.6-9.9,9.9-13.6,15.8c0,0.2-0.1,0.4-0.2,0.5l0,0c-1.5,12.3-0.8,25.4-1,37.8
			c2.7-5.8,6.3-11.2,10.8-15.8c-2.1,2.2,0.9,19,1.6,22.2c1.5,6.8,2.5,13.7,3.1,20.7c3.7-8.2,5.5-17.1,8.5-25.5
			c-1.5,3.7,2.6,10.7,3.7,14.2c2.1-9,5.5-17.8,8.3-26.6c-2.2,6.7,5.1,16.8,7.6,22.7c-0.8-4.8,4.6-10.7,6.3-15.2
			C268.4,216.2,269.3,210.1,269.9,203.9z"/>
		<path class="st1" d="M249.2,293.3c0.1-0.4,0.3-0.7,0.5-1.1c-1.3,1.2-2.7,2.2-4,3.3s-2.8,2.2-4.3,3.3c-1,0.8-2,1.5-3.1,2.3
			c-0.1,0.1-0.3,0.2-0.4,0.3c-3.7,2.7-7.2,5.4-10.7,8.3c0.3-0.3,0.5-0.7,0.8-1c3.7-5,6.3-10.7,7.8-16.7c0.8-3.2,1.3-6.4,1.6-9.6
			c0.2-1.7,0.3-3.3,0.3-5v-4.3c-2.4,3.6-4.4,6.8-7.1,10.3c-2,2.6-4.6,5.2-6.6,7.7c3.5-13.3,2.8-29.9-5.7-41.2
			c1.4,7.6,1.6,15.4,0.4,23c-0.9,6.4-4.2,12.1-6.8,17.9c3.7-1.8,6.6-5,8.1-8.9c-0.9,5.3-2.6,10.4-4.8,15.3c-0.9,1.9-2,3.7-3.1,5.5
			c-1.1,1.8-2.2,3.6-3.4,5.3c0.1-0.1,0.6-0.2,0.7-0.3c0.3-0.1,0.5-0.2,0.8-0.3c0.6-0.2,1.1-0.4,1.6-0.7c1.1-0.5,2.1-1,3.1-1.6
			c2-1.2,3.9-2.7,5.8-4.1h0.1c3.6-3,7-6.3,10.2-9.8c-0.9,3.1-2,6.1-3.3,9c-1.4,3.1-3.2,6.1-5.2,8.9c-5.9,8.1-14,13.9-23,18.1
			l-3.3,1.5c-0.8,0.3-3.2,0.8-3.7,1.4c-1,1.3,1.1,0.6,1.9,0.4c1.5-0.3,3.1-0.7,4.6-1.1c5.8-1.6,11.5-3.6,17.1-6
			c7.1-3,13.7-6.9,19.7-11.8c2.6-2.2,5-4.6,7.2-7.3c1.4-1.8,2.7-3.6,3.8-5.6C247.6,296.8,248.4,295.1,249.2,293.3z"/>
		<path class="st1" d="M30.8,303v-2.7c-1,2-1.8,4-2.6,5.9c-2.2-4.3-3.4-9.5-4.3-14.2c-0.2-1.2-0.4-2.5-0.6-3.7s-0.3-2.5-0.5-3.6
			s-0.1-1.9-0.2-3c0-1.3-0.2-2.6-0.1-4.2c-0.3,0.5-0.6,1-1,1.4c-0.3,0.5-0.6,0.9-0.9,1.4c-0.5,0.7-1,1.5-1.5,2.2
			c-0.8,1.2-1.5,2.3-2.2,3.5c-0.3,0.5-0.7,1-1,1.6c-1.5-9.8-0.6-19.9,2.5-29.3c-1.2,1.3-2.4,2.3-3.1,3.2c-1,1.3-1.9,2.8-2.6,4.3
			c-1.3,3.1-2.1,6.4-2.3,9.7c-0.3,4,0,8.1,0.8,12c0.8,3.8,2,7.6,3.5,11.2c1.8-2.5,3.5-5,5.3-7.5c0.8,9.1,3.6,18,8.1,26
			C29.8,312.6,30.7,307.8,30.8,303z"/>
		<path class="st1" d="M183.5,258.4c-0.5-0.6-1.1-1.2-1.6-1.8c2.8,7.5,4.2,15.4,4.1,23.4c0-0.2-11.6-6.8-10.9-1.9
			c1.8,12.4-2.1,25.5-4.4,37.6c-1.3-4.3-3.9-8.1-7.3-11c0.4,6.5-0.5,13.1-2.7,19.3l5.8-6.7c1.6,2.7,3.4,5.2,5.3,7.7
			c4-2.5,6.5-14.1,7.9-18.7c2-6.9,2.4-13.3,2.4-20.4l5.9,6.5c0.4,0.5,2.1-6.4,2.2-6.8c0.7-3.1,0.9-6.3,0.6-9.5
			C190.2,269.6,187.6,263.5,183.5,258.4z"/>
		<path d="M124.8,143.5c-4.9,2.5-9.6,1.9-14.6,0.2c-2.8-1-3.5-3-4.4-5.1c3.9-3.2,6.9-10.5,4.9-13.9c-0.1-0.2-0.2-0.4-0.4-0.5
			c-1.4-1.3-4.3-0.7-6-0.7c-2.7,0-5.5,0-8.2,0.1c-2,0.1-4.8,0.5-5.1,2.9s1.7,5.1,2.7,7.2c1.3,2.6,3.4,4.7,6.1,5.9
			c-1.7,2.5-2.7,5.5-6,6.3c-5.8,1.5-10.8-1.4-14.9-5c-0.7-0.6-1.7,0.2-1.2,0.9c2.9,5.3,9.4,8.5,15.4,8.6c3.5,0,7.6-2.6,9.8-6
			c1.7,1.8,3.8,3.1,6.2,3.8c5.8,1.7,13.2,1.7,17.1-3.5C126.6,143.9,125.5,143.1,124.8,143.5z"/>
	</g>
</g>
</svg>
