<?xml version="1.0" encoding="UTF-8"?><svg id="Layer_2" xmlns="http://www.w3.org/2000/svg" viewBox="0 0 719.95 308.01"><defs><style>.cls-1{fill:#666;}</style></defs><g id="Layer_1-2"><g id="Layer_2-2"><path class="cls-1" d="M266.94,34.75c-7.61,2.75-32.42,14.85-32.42,54.91,0,.98,.79,1.78,1.78,1.78,.98,0,1.78-.79,1.78-1.78h0c0-36.72,21-48.3,30.08-51.57,16.45-6,31.23,8.78,31.37,8.94,.69,.7,1.81,.71,2.51,.02,.7-.69,.71-1.81,.02-2.51h0c-.66-.68-16.5-16.54-35.12-9.79Z"/><path class="cls-1" d="M392.3,82.9l-3.57-5c2.15-1.57,3.72-3.8,4.49-6.35,.37-.91-.08-1.95-.99-2.31-.91-.37-1.95,.08-2.31,.99-.04,.1-.07,.21-.1,.32-1.47,4.81-6.34,7.36-13.35,7-8.65-.45-11.72-6.18-12.64-8.63-.38-.91-1.43-1.33-2.33-.94-.85,.36-1.28,1.31-1,2.19,.91,2.39,2.34,4.54,4.19,6.3l-4.19,3.18c-.78,.59-.94,1.7-.35,2.49s1.7,.94,2.49,.34l5-3.81c2.11,1.2,4.44,1.97,6.85,2.25l-.3,6.08c-.1,.98,.6,1.85,1.58,1.96,.98,.1,1.85-.6,1.96-1.58,0-.06,0-.12,.01-.19l.32-6.12c2.58,0,5.15-.48,7.55-1.43l3.79,5.36c.32,.44,.82,.72,1.36,.75,.4,.02,.8-.09,1.12-.33,.81-.56,1.01-1.67,.45-2.48l-.03-.04Z"/><path class="cls-1" d="M480.86,257.93l-8.86-5.28,3-10.18c.27-.94-.27-1.93-1.21-2.21-.41-.12-.84-.09-1.23,.09-4.18,1.98-8.56,3.51-13.06,4.57-3.31,.72-6.7,1.09-10.09,1.1-2.84,0-5.66-.47-8.35-1.4h0c-.14-.07-.29-.13-.44-.18-2.18-.84-4.2-2.04-6-3.53-2.4-2.04-4.48-4.43-6.17-7.09-.13-.36-.34-.68-.61-.95-1.2-1.93-2.27-3.93-3.22-6-2.83-6.39-4.96-13.07-6.37-19.91-2.08-9.89-3.43-19.91-4.05-30v-.38c-.33-4.79-.56-9.86-.7-15.28,0-.88,0-1.78-.06-2.68,.01-.13,.01-.26,0-.39-.1-5.48-.11-11.35,0-18.1,.1-.38,.14-.78,.11-1.18-.01-.14-.05-.28-.09-.42v-1.26l.21-12.55c0-.7,.13-3.65,.28-7.33,.1-.35,.15-.72,.15-1.08,0-.18-.03-.35-.09-.52v-.6c.31-7.46,.66-15.92,.62-17.49,0-.02,0-.03,0-.05,.07-1.43,.11-2.87,.11-4.32,0-45-32-78.88-74.49-78.88-9.87,0-19.64,1.86-28.82,5.49-8.5-5.2-18.26-7.97-28.23-8-5.73,.03-11.42,1.07-16.8,3.05C246.62,5.17,224.83,.04,202.74,0c-33,0-64.55,11.15-91.35,32.23-26.18,20.6-45.91,49.07-57,82.34-2.62,7.88-4.56,15.97-5.78,24.18-.6,4-3,19.41-3.62,23.19v.24c-.21,1.42-.48,2.87-.74,4.26-.16,.83-.31,1.67-.46,2.49l-.63,3.44c-.12,.7-.29,1.37-.46,2-.1,.41-.2,.83-.29,1.22l-1.61,6.71c-2.41,8.83-5.53,17.45-9.33,25.78l-1.47,3.12-1.6,3.08c-.94,1.88-2,3.64-3.05,5.5l-.26,.45c-.38,.69-.8,1.33-1.21,2l-.55,.86c-.58,.92-1.18,1.88-1.81,2.76l-.26,.38c-.54,.78-1.07,1.56-1.67,2.33-.14,.2-.29,.39-.44,.59-2.28,.54-4.35,1.72-6,3.38-8.15,7.56-3.37,10.69-10.25,16.53,0,0,3.66,.77,8.9-3.64,0,0-2.37,3.54-5.37,5-2.2,1.08-6.55,5.26-6.43,8.65,0,0,2.1-4.22,8.56-4.47,4.28-.16,8.9-1.66,14.41-7.17,2.17-2.11,3.81-4.7,4.79-7.57l1.09-.94c.91-.77,1.75-1.57,2.57-2.35l.23-.22c1-.89,1.9-1.85,2.72-2.69l.69-.71c.64-.66,1.31-1.33,1.92-2l.16-.18c1.61-1.78,3.27-3.62,4.79-5.55l2.42-3,2.25-3c2.6-3.53,5.12-7.28,7.57-11.25,4.03,14.21,4.57,29.18,1.58,43.64v.2l-5,54.25c-.05,.5,.12,.99,.46,1.36,.34,.37,.81,.58,1.31,.58h92.78c.91,0,1.68-.69,1.77-1.6l4.58-46.28c36.25,9.68,74.94,9.68,118.14,0l-3.08,46c-.03,.49,.14,.97,.47,1.33,.34,.36,.81,.56,1.3,.56h88.06c.97,0,1.76-.77,1.78-1.74l2.68-130.33h0v-3c3.42,13.62,8.27,30.44,15.86,47.28,4,9.1,9,17.73,14.9,25.73,3.24,4.35,6.89,8.39,10.89,12.05,4.37,3.98,9.26,7.35,14.54,10,5.56,2.78,11.56,4.6,17.73,5.37,2.2,.27,4.41,.41,6.62,.41,3.69,0,7.38-.37,11-1.08,5.24-1.04,10.35-2.65,15.25-4.8,4.49-2,8.84-4.31,13-6.92,.53-.32,.86-.9,.86-1.52,.03-.61-.28-1.2-.79-1.53Zm-125.7,29.58c-1.47-5.79-4.72-8-8.42-8-6.38,0-11,6-14.42,16.23-.5-7.6-4.43-10.37-9.19-10.37-6.25,0-12.65,5.44-15.85,19h-36.91l3.11-46.46c1.9-20.1,3.81-27.14,7.36-35.29,.35-.92-.11-1.95-1.03-2.3-.86-.33-1.82,.05-2.23,.88-3.56,8.17-5.62,15.6-7.52,35.12-43.25,9.84-81.89,9.88-118,.14,2.44-18.54,2.77-42.15-3.44-54.59-.37-.91-1.41-1.34-2.32-.97-.91,.37-1.34,1.41-.97,2.32,.03,.08,.07,.15,.11,.23,6,12.07,5.44,35.85,2.89,54.08v.07l-3.24,32.75c-1.84-7.89-6.7-10.8-10.95-10.8-6.46,0-11.93,6.09-15.69,16.55-.38-7.93-4.37-10.79-9.22-10.79-6.25,0-12.65,5.44-15.85,19.05H54.45l4.83-52.21c3.23-15.65,2.47-31.85-2.21-47.13-2.2-7.2-3.85-14.55-4.94-22-.5,1.04-.94,2.11-1.31,3.2-.23,.68-.44,1.37-.61,2.06-.17,.66-.29,1.33-.37,2v.21c.83,4.28,1.85,8.54,3.05,12.75-2.91,4.9-5.94,9.51-9.08,13.77l-2.2,3-2.43,2.99c-1.46,1.85-3.09,3.65-4.65,5.39l-.19,.21c-.55,.64-1.15,1.25-1.79,1.9l-.71,.73c-.82,.85-1.67,1.72-2.59,2.56l-.25,.21-.69,.65c-.13-1-.47-1.96-1-2.82-1.09-1.13-2.44-1.97-3.93-2.46l.79-1.14,.24-.35c.67-.94,1.3-1.94,1.93-2.93l.52-.82c.44-.69,.9-1.41,1.31-2.14l.24-.42c1.06-1.83,2.17-3.72,3.14-5.67l1.62-3.13,1.46-3.15c3.89-8.52,7.08-17.35,9.54-26.39l1.63-6.79c.09-.39,.18-.78,.28-1.17,.19-.75,.37-1.5,.51-2.27l.63-3.44c.14-.83,.3-1.65,.45-2.46s5.19-36.88,10.05-51.4C80.17,48.62,138.45,3.55,202.74,3.55c20.45,0,40.64,4.48,59.18,13.11l.51-.15c-9.61,4.34-18.63,11.56-26.17,21.24-13.14,16.88-20.38,38.9-20.38,62,0,35.13,16.45,56.33,30.25,67.94,16.41,13.8,36.2,20,48.54,20,26.57,0,40.72-12.94,48.14-31.67,2.78,1.57,5.6,3.08,8.44,4.48,1.9,.94,3.83,1.82,5.78,2.67,.28,4.21,.44,8.45,.44,12.73l-2.31,111.61Zm111.28-22.88c-4.66,2.04-9.54,3.58-14.53,4.57-5.45,1.07-11.03,1.29-16.55,.63-5.77-.71-11.37-2.4-16.57-5-4.99-2.52-9.62-5.72-13.74-9.5-3.85-3.52-7.35-7.4-10.47-11.58-5.75-7.79-10.61-16.2-14.5-25.06-8.4-18.63-13.41-37.31-16.84-51.5-.13-.53-.25-1.07-.38-1.6l2.3,.89c4.95,1.84,11.13,3.68,16.43,3.49,1.57,0,3.13-.2,4.66-.57,1.6-.32,3.03-1.23,4-2.54,.31-.54,.45-1.15,.43-1.77-.17-3.91-3.32-5.34-6.21-7.08-2.46-1.48-4.88-3-7.23-4.63-4.65-3.2-9.07-6.71-13.24-10.51-4.08-3.67-7.9-7.61-11.43-11.81-1.13-1.29-2.18-2.63-3.2-4,.89-9.09,1.3-18.21,1.24-27.34,0-.98-.79-1.78-1.78-1.78-.98,0-1.78,.79-1.78,1.78h0c0,43.81-6.34,84.36-52.35,84.36-11.69,0-30.53-5.92-46.25-19.14-13.22-11.12-29-31.46-29-65.22,0-44.94,29.81-84.36,63.79-84.36,16.48,0,32.12,8.3,44,23.37,.63,.76,1.75,.86,2.51,.24,.74-.61,.86-1.69,.28-2.45-4.27-5.44-9.29-10.24-14.93-14.25,8.07-2.88,16.57-4.35,25.14-4.35,40.44,0,70.93,32.38,70.93,75.33,0,1.58-.05,3.15-.13,4.71v.07c0,2.15-.36,10.64-.62,16.94,0,.55,0,1.08-.07,1.59-.07,.08-.14,.15-.23,.21-2.11,1.57-9.72,1.46-15.37-.23-.94-.28-1.92,.26-2.2,1.2-.28,.94,.26,1.92,1.2,2.2,3.42,.97,6.96,1.47,10.52,1.5,2.01,.05,4.01-.22,5.93-.8-.08,2-.13,3.46-.14,4l-.21,12.53v2.22c-1,1.08-7.56,1.66-13.69,.37-.96-.2-1.9,.41-2.1,1.37s.41,1.9,1.37,2.1c2.73,.53,5.51,.81,8.29,.82,2.06,.05,4.11-.21,6.09-.77-.05,5.47,0,10.39,.06,15-.74,1.17-7.11,2.78-12.2,2.29-.98-.05-1.82,.71-1.87,1.69-.05,.92,.62,1.72,1.53,1.85,.6,.06,1.32,.09,2.12,.09,3.6,.06,7.18-.56,10.55-1.83,.14,5.06,.37,9.83,.68,14.35v.15c-.9,1.34-7.21,3.79-11.31,4-.98,.1-1.69,.97-1.59,1.95,.09,.89,.82,1.57,1.7,1.6h.11c3.99-.39,7.86-1.55,11.41-3.42,.47,5.62,1.07,10.86,1.83,15.8-.72,2.28-4,4.29-9.81,6-.94,.29-1.46,1.29-1.17,2.23,.23,.74,.9,1.24,1.67,1.25,.17,0,.33-.02,.49-.07,3.14-.91,7-2.28,9.63-4.55,.37,2.05,.76,4.05,1.19,6,.67,3.17,1.43,6.17,2.3,9-.95,4.09-5.47,5.48-7.94,6.23-.94,.29-1.46,1.29-1.17,2.23,.23,.74,.92,1.25,1.69,1.25,.18,0,.35-.03,.52-.08,2-.61,6-1.82,8.44-4.87,.86,2.46,1.79,4.75,2.77,6.88,1,2.19,2.14,4.31,3.4,6.36,.04,.08,.09,.16,.15,.24l.16,.26c-.21,1.58-3.15,6-5.21,6.92-.89,.41-1.29,1.46-.88,2.36,.29,.63,.91,1.04,1.6,1.04,.25,0,.49-.05,.72-.15,2.12-.94,4.73-3.95,6.19-6.75,1.43,1.84,3.04,3.51,4.83,5,2.08,1.72,4.42,3.1,6.93,4.08,.1,.44,.2,2-1.48,6.71-.33,.92,.15,1.93,1.07,2.26h.01c.19,.07,.4,.11,.6,.11,.75,0,1.42-.47,1.67-1.18,.87-2.18,1.44-4.47,1.7-6.81,2.15,.49,4.35,.75,6.55,.77,3.65,0,7.29-.39,10.86-1.18,3.52-.79,6.96-1.89,10.29-3.29l-2.32,7.86c-.21,.77,.11,1.58,.79,2l7.45,4.47c-3.24,1.97-6.61,3.72-10.08,5.25h0Z"/><path class="cls-1" d="M718.77,278.35c-.81-.33-1.75-.09-2.3,.59-2.05,2.54-4.71,4.51-7.74,5.72-2.67,1.11-5.6,1.43-8.45,.94-5.05-1.06-9.16-4.71-10.82-9.6-.04-.12-.1-.24-.16-.36,.62-2.85,.93-5.76,.93-8.68v-4.24c-.04-24.32-14.29-46.37-36.44-56.39,.3-20.46-8.57-34.89-24.63-38.82-6.69-1.63-13.72-1.2-20.16,1.24-.83-1.08-1.69-2.13-2.63-3.14-16.2-17.36-43.41-18.3-60.78-2.1-3.39,3.17-6.25,6.86-8.46,10.95l-.21,.4c-4.6,8-6.45,16.89-8.23,25.46l-.59,2.81c-.44,2.07-.79,4.29-1.17,6.65-.75,4.69-1.52,9.54-3,13.33-2.11,5.33-5.08,8.89-8.85,10.57-4,1.79-9,0-13.35-1.59l-.47-.17c-.83-.3-1.67-.67-2.56-1.06s-1.59-.7-2.42-1c-.58-.22-1.22-.16-1.75,.16-.53,.32-.88,.87-.95,1.48l-.68,6-5.11,1.92c-1.03,.39-1.55,1.55-1.16,2.58,.1,.28,.27,.53,.48,.73l.62,.6c1.39,1.33,2.82,2.71,4.46,4l.95,.73c1.53,1.25,3.15,2.37,4.86,3.35,4.51,2.81,9.55,4.67,14.8,5.49,1.87,.29,3.75,.44,5.64,.44,3.93,0,7.83-.61,11.56-1.82,5.29-1.78,10.23-4.49,14.57-8,2.38-1.99,4.62-4.14,6.71-6.43,.77-.8,1.53-1.61,2.32-2.4,2.19-2.21,5.31-3,10.12-2.45,1.4,.15,2.8,.34,4.2,.53l1.7,.22c-.68,21.59-2,49-4.57,68.66l-.29,2.25h44.24l.41-1.17c.7-1.15,1.09-3.17,1.17-6.06,.1-1.44,.1-2.87,0-4.31-.09-1.44-.28-3.3-.52-5.27,0-.44-.1-.91-.15-1.36,3.01,4.82,7.04,8.92,11.82,12l-.23,6.16h27.68c11.91,0,23.23-5.2,31-14.23,1.33,.92,2.72,1.75,4.17,2.46,4.03,1.99,8.45,3.03,12.94,3.06,.86,0,1.72-.04,2.58-.12,5.1-.49,9.37-1.22,14.07-5.67,5.16-4.85,6-12.65,6-13,.09-.86-.38-1.69-1.17-2.04Zm-150.27-45.57c-1.43-.19-2.86-.38-4.3-.54-3.8-.41-9.32-.48-13.37,3.61-.81,.81-1.59,1.63-2.37,2.45-1.97,2.16-4.08,4.19-6.32,6.07-3.97,3.23-8.48,5.72-13.33,7.36-4.96,1.63-10.23,2.07-15.39,1.27-4.76-.74-9.33-2.44-13.42-5-1.56-.9-3.04-1.92-4.44-3.06l-.93-.71c-.86-.7-1.69-1.44-2.49-2.19l3.28-1.23c.7-.26,1.19-.9,1.28-1.64l.52-4.57c.86,.38,1.75,.77,2.66,1.1l.46,.17c4.83,1.75,10.85,3.92,16.33,1.48,.67-.29,1.32-.62,1.94-1l2.06,3.76c.56,.95,1.78,1.27,2.73,.72,.95-.56,1.26-1.78,.71-2.73l-2.33-4.25c1.1-1.1,2.08-2.31,2.93-3.61,.55,.3,1.07,.63,1.57,1,.79,.64,1.51,1.36,2.15,2.16l.33,.46c.27,.44,.7,.76,1.19,.92,.52,.14,1.07,.06,1.54-.2,.95-.56,1.26-1.78,.71-2.73-.86-1.29-1.9-2.45-3.09-3.44-.76-.61-1.58-1.16-2.44-1.63,.33-.69,.64-1.4,.94-2.15,1.65-4.19,2.46-9.26,3.25-14.16,.37-2.3,.71-4.48,1.13-6.45l.59-2.83c1.8-8.64,3.5-16.8,7.82-24.36l.23-.44c10.27-18.93,33.94-25.96,52.88-15.69,3.71,2.01,7.06,4.61,9.93,7.69,.62,.67,1.21,1.36,1.78,2.06-2.27,1.14-4.43,2.48-6.46,4-.83,.73-.9,2-.17,2.82,.65,.73,1.73,.88,2.56,.37,8.34-6.25,18-8.47,27.05-6.24,20.43,5,23.89,27.8,20.32,47.48-2.25,12.4-10.66,23.5-22.48,29.69-8.75,4.58-18,5.5-24.69,2.46-17.34-7.86-23-23.18-17.18-46.83,.24-1.08-.45-2.14-1.53-2.38-1.02-.22-2.04,.38-2.34,1.38-2.91,11.92-3,22-.33,30.31-3.84,.14-7.68-.1-11.47-.73Zm85.07,70.84c-1.67-8.53-3.41-11.95-6.93-11.95-3.88-.1-7.12,2.95-7.26,6.83-2.13-6.62-3.19-10.47-6.85-10.47-2.73,.21-5.16,1.77-6.48,4.17,1.14-24.47,12-43.73,25.26-43.73,4.56,0,9.05,2.39,13,6.91,.8,.76,2.07,.73,2.83-.07,.66-.7,.74-1.77,.17-2.55-4.73-5.41-10.26-8.27-16-8.27-16.45,0-29.34,22.81-29.34,51.93v.5c-4.08-3.05-7.43-6.97-9.81-11.47l-3.74-7.08c-.53-3.28-1.15-6.79-1.88-10.61-.21-1.08-1.25-1.79-2.33-1.59-2.07,.4-1.49,2.65-1.26,4.09l1.44,8.8s1.06,6.49,1.75,12c.33,2.9,.51,5.81,.54,8.73-.09,1.35-.28,2.68-.58,4h-7.45c-1.71-9.1-3.55-12.54-7.63-12.72-1.51-.07-5.77,1.34-6.71,6.83-1.24-6.51-4-10.47-7.67-10.47-1.92,0-4.38,1.18-6,4.16,1.58-17.4,2.49-37.55,3-54.28,2.6,.26,5.21,.26,7.81,0,3.46,7.51,9.53,13.28,18.24,17.23,3.31,1.46,6.9,2.2,10.52,2.16,6.19-.12,12.25-1.73,17.68-4.7,12.9-6.76,22.08-18.91,24.55-32.51,.54-2.96,.92-5.94,1.15-8.94,19.94,9.69,32.62,29.91,32.65,52.08v4.24c0,18.76-14.04,34.55-32.67,36.75Zm57.71-13.16c-3.79,3.59-7.1,4.15-11.71,4.6-4.61,.39-9.25-.49-13.39-2.56-1.2-.58-2.35-1.25-3.45-2,2.02-2.84,3.66-5.94,4.88-9.2,.86,1.36,1.9,2.61,3.09,3.7,2.46,2.3,5.5,3.86,8.8,4.52,3.6,.64,7.31,.25,10.69-1.14,1.4-.56,2.74-1.26,4-2.08-.7,1.56-1.69,2.97-2.91,4.16Z"/><path class="cls-1" d="M569.38,176.82c-.47,.38-1.01,.66-1.59,.83-.34-.67-.75-1.3-1.23-1.88,1.15-.74,2.14-1.7,2.9-2.84,.47-.79,.21-1.81-.58-2.27-.72-.43-1.66-.25-2.17,.42-.69,1.01-1.63,1.83-2.74,2.35-.04,.02-.08,.05-.12,.09-.08,0-.14-.1-.22-.14-.51-.27-1.04-.49-1.59-.67l.91-1.86c.4-.83,.05-1.82-.78-2.22-.83-.4-1.82-.05-2.22,.77h0l-1.4,2.88c-2.11,.14-4.11,.97-5.69,2.37-.68,.62-.73,1.67-.11,2.35,.62,.68,1.67,.73,2.35,.11h0c1.94-1.71,4.73-2.02,7-.79,2.27,1.18,3.58,3.64,3.3,6.18-.14,.9,.48,1.74,1.39,1.88h.25c.82,0,1.52-.6,1.64-1.42,.09-.71,.09-1.42,0-2.13,1.03-.29,1.99-.79,2.82-1.47,.66-.64,.68-1.7,.04-2.36-.57-.59-1.49-.68-2.17-.2v.02Z"/><path class="cls-1" d="M614.49,184.34c4.2-1.13,14.52-2.71,19.71,7,4.38,8.18,4.26,20.54-.28,29.39-.42,.81-.1,1.82,.71,2.24h0c.24,.12,.5,.18,.76,.18,.62,0,1.19-.35,1.48-.9,5.09-9.91,5.19-23.26,.26-32.47-4.38-8.17-13.16-11.39-23.5-8.61-.87,.3-1.33,1.25-1.03,2.11,.27,.78,1.07,1.24,1.88,1.09v-.03Z"/></g></g></svg>