<?xml version="1.0" encoding="utf-8"?>
<!-- Generator: Adobe Illustrator 26.3.1, SVG Export Plug-In . SVG Version: 6.00 Build 0)  -->
<svg version="1.1" id="Layer_1" xmlns="http://www.w3.org/2000/svg" xmlns:xlink="http://www.w3.org/1999/xlink" x="0px" y="0px"
	 viewBox="0 0 440 380" style="enable-background:new 0 0 440 380;" xml:space="preserve">
<style type="text/css">
	.st0{fill:#FF7F00;}
	.st1{fill:#EFEFEF;}
	.st2{fill:#1D1D1B;}
</style>
<path class="st0" d="M417.4,171.8c-14.2-51.2-50-77.5-77.6-85.5c-8.1-2.3-16.5-3.2-24.5-3.1c2-3.2,3.7-6.4,5-9.1
	c4.4-9.1,7.5-24.6,6.6-35.3s5.7-22.9,5.7-22.9s-10.3,4.2-16.7,6c-6.4,1.8-50,3.1-72.8,13.3c-17.2,7.7-17,18-15.9,23
	c-12.5-6.1-27.1-10.4-43.6-10.4c-19.9,0-36.3,8.8-49.4,19.9c-2.4-7.7-8.5-22.5-22-28.6c-18.6-8.4-42.3-12.9-59.5-14.9
	s-23.5-6-23.5-6s6.9,32.4,9.3,42.1c2.4,9.8-2.9,37.9,15.3,47.5c13.8,7.2,33.1,13.8,41.7,16.6c-0.3,10.7,3.7,23.5,6.7,29.8
	c4.1,8.9,85.3,44.9,88.2,46.4c0,0,13.1,0.2,24.4-2.4c-2.8,8.1-5.8,15.4-5.8,15.4s-7.8-1.1-35.4-2.9s-69.3-15.5-69.3-15.5l7.5,15.5
	l-25-4.4l7.8,21.3l-11.3-2.4c0,0,3.5,18.4,2.7,18.4c-0.9,0-20.4-11.5-20.4-11.5l-4,21.3l-14.6-16l-3.3,20.9l-4.9-9.8
	c0,0-1.3,4.4,2.7,11.7c4,7.3,30.3,65.4,86.1,87.6c55.8,22.2,139.7,32,221.1-17.1C406.5,296,431.6,223,417.4,171.8z"/>
<path class="st1" d="M302.4,143.1c-3.5,1.8-11.1,4.3-11.1,4.3s6.4,3,9.5,3c3.9,0,9.3-1.8,9.3-1.8s-12.2,11.3-20.1,15.5
	c-8.4,4.6-24.3,10.9-35,16s-40.7,27.4-40.7,27.4l-6.6-13.4c0.4-0.9-2.9-24.4,1.3-42.1c4.2-17.4,11.6-31.1,32.2-40.4
	s33.2-9.8,40.4-8.6c7.1,1.1,13.5,4.2,22.1,8.9s23.9,5.2,23.9,5.2s-12.2,4.8-18.1,9c-6,4.2-18.1,6.9-18.1,6.9s3.3,3.1,7.3,2.9
	c4-0.2,15.5-2.6,15.5-2.6S306,141.3,302.4,143.1z M171.4,132c-8.9-7.3-25-17.3-42.3-20.2c-17.3-2.9-30.2-2.7-46.7,6
	c-11.4,6-13.5,12.9-19.9,15.8l-12.2,1.8c0,0,12.3,5,19.2,6c6.6,0.9,10,1.1,10,1.1l-5.1,4.2c-2.9,1.3-13.5,3.8-13.5,3.8
	s9.5,2.2,13.9,3.1c4.4,0.9,10-1.1,10-1.1s-1.6,6.4-4.9,9.1s-9.8,4.7-9.8,4.7s13.8,4,24,4.9s20,2.3,34.1,4.7
	c7.8,1.3,30,12.5,40.7,17.5s26.8,18.5,26.8,18.5l4.2-17.9c0,0-3.9-22.9-8.4-36.4C188.7,149,180.3,139.3,171.4,132z M108.6,194.8
	c-3.2-2.1-7.3-2.8-10.8-4.3c-4.1-1.7-8.1-3.8-11.8-6.2c-16.4-10.6-28.1-26.6-39.5-42c-0.7-0.9-2.6,0.4-2.8,1.2c-0.3,1-0.5,2-0.8,3
	c-5.4-8-12.1-14.8-20.1-20.4c-0.8-0.5-3.2,0.8-2.6,1.8c5.1,9.2,5.8,19.4,5.5,29.8c-0.4,10.9-1.1,21.8-0.8,32.8
	c0.2,7,0.2,14.3,0.6,21.6c-0.3,0.3-0.5,0.6-0.5,0.8c1.8,20,5.9,41.3,19.5,56.9c0.8,0.9,2.3-0.3,2.8-0.9c3.2-4.2,2-9.2,2.6-14
	c3.4,4.4,7.5,7.8,12.7,10.3c1,0.5,2.4-0.5,2.8-1.4c2.8-6.1,4.2-12.1,4.6-18.7c9.7,3.5,19.6,6.1,29.8,7.5c0.7,0.1,2.7-0.7,2.5-1.7
	c-1.4-7.5-4.5-14.1-9.4-19.7c4.4,0.9,8.7,1.9,13,3.2c0.9,0.2,2.8-0.9,2.5-1.9c-2.5-7.6-6.1-14.5-10.6-21c7.8,1.3,15.6,2.2,23.4,2.6
	c0.6,0,3.1-0.9,2.4-1.9C119.4,206.3,114.6,198.7,108.6,194.8z"/>
<path class="st2" d="M317.2,30.4c-0.4,0.7-2.7,17.3-8,28.6s-5.8,26.4-15.3,31s-24.1,7.2-24.1,7.2l-30.8-31.8v-5.4
	c0-2.7,6-16.6,16.1-19.3c10.2-2.7,52.2-5.3,55.8-6.9C314.6,32.4,317.7,29.8,317.2,30.4z M113.2,56.4c-8.4-6.9-19.7-12.6-33.9-16.2
	c-14.2-3.5-33-5.1-33-5.1s1.8,1.3,4.2,3.1c2.4,1.8,6.9,18.4,7.1,27.3c0.2,8.9,3.3,20.8,11.7,31.7c8.4,10.9,33,11.2,33,11.2
	l25.9-32.1C128.3,76.3,121.6,63.2,113.2,56.4z M206,80.4c0.5-1.1-1.9-0.2-2.2,0.3c-4.5,7.8-11.1,12.8-19.5,16
	c-0.9,0.3-3,1.6-3.9,1.5c-1.5-0.1-0.2,0,0.7-1.6c1.5-2.7,2.9-5.1,3.9-8.1c0.4-1.1-1.4-0.6-1.8-0.3c-7,3.7-14.5,5.1-22.2,4.2
	c5.7-2.5,10.5-6.3,14.2-11.6c0.5-0.7-0.2-1.1-0.9-0.9c-7.8,2.3-15.4,1.2-23.1-0.5c10.5-3.6,22.8-11,25.6-21.7
	c0.3-1.1-1.8-0.1-2.1,0.5c-4,10.9-16.5,18-27.1,20.6c-0.5,0.1-2.6,1.6-1.3,1.9c6.3,1.5,12.7,2.9,19.3,2.6c1.2-0.1,2.3-0.3,3.5-0.3
	c3.3-0.1,2.3-1.1,1.5,0.8c-1.7,4.2-9.3,7.1-13.2,8.3c-0.4,0.1-2.8,1.7-1.3,2c8.9,1.7,17.4,0.5,25.5-3.3c-1.3,3.4-3.1,6.3-5.7,9.1
	c-0.6,0.7-0.3,1.5,0.7,1.2C188.4,97.5,200.8,92.1,206,80.4z M203.2,189.4c-22.5,1-25.3,10-25.3,10s24,19.3,26.6,19.3
	s24-20.6,24-20.6S222.7,188.5,203.2,189.4z M163.8,151.7c-3.2,2.6-7.7,2.9-11.9,2.2c-3.4-0.5-9.6-2.8-10.4-3
	c-0.7-0.2-2.1,0.7-1.8,1.4c5.1,10,19.9,8.4,25.8,0.3c0,0,0.7-0.9,1.1-1.7C167.2,149.6,164,151.6,163.8,151.7z M253.6,146.5
	c-0.7,0.2-7,2.5-10.4,3c-4.2,0.6-8.7,0.4-11.9-2.2c-0.2-0.2-3.3-2.1-2.8-0.9c0.3,0.8,1,1.7,1.1,1.7c5.9,8.1,20.7,9.7,25.8-0.3
	C255.8,147.2,254.3,146.3,253.6,146.5z"/>
</svg>
