<?xml version="1.0" encoding="utf-8"?>
<!-- Generator: Adobe Illustrator 26.3.1, SVG Export Plug-In . SVG Version: 6.00 Build 0)  -->
<svg version="1.1" id="Layer_2_00000016074754344811526330000005166431934752438160_"
	 xmlns="http://www.w3.org/2000/svg" xmlns:xlink="http://www.w3.org/1999/xlink" x="0px" y="0px" viewBox="0 0 312.9 248.6"
	 style="enable-background:new 0 0 312.9 248.6;" xml:space="preserve">
<style type="text/css">
	.st0{fill:#FFFFFF;}
	.st1{fill:none;stroke:#000000;stroke-miterlimit:10;}
	.st2{fill:#FF7BAC;stroke:#000000;stroke-miterlimit:10;}
</style>
<g id="Layer_1-2">
	<g>
		<g>
			<path d="M156.4,199.7c-3.1-0.8-5.4-2-7.1-2.9c-1.5-0.9-6.1-3.8-9.6-9.6c-2-3.3-3-5-2.6-6.7c0.9-4.1,8.8-6.7,19.3-6.7
				c10.6,0.1,18.5,2.6,19.3,6.7c0.4,1.7-0.6,3.4-2.6,6.7c-3.5,5.8-8.1,8.8-9.6,9.6C161.9,197.7,159.5,198.9,156.4,199.7z"/>
			<path d="M244.9,175.9c-1.9-0.8-9.9-4.7-16.1-17.1c-9-18.1-6-37.9-5-43.9c2.2-13.1,6.5-20.1,2.4-28.8c-1.5-3.1-3.6-5.6-5.4-11.4
				c-1.3-4.4-2.7-9.1-1-14.4c0.2-0.6,0.4-1.2,0.7-1.8c-4.7-4.6-12.6-11.4-24.1-17.3c-16.1-8.2-31-10.3-39.9-10.8
				c-8.9,0.5-23.8,2.6-39.9,10.8C105.1,47.1,97.2,54,92.4,58.6c0.3,0.6,0.5,1.1,0.7,1.8c1.7,5.3,0.3,10-1,14.4
				c-1.7,5.8-3.9,8.3-5.4,11.4c-4.2,8.7,0.2,15.7,2.3,28.8c1,6,4,25.8-5,43.9c-6.2,12.4-14.2,16.3-16.1,17.1c-2,0.9-5.6,2.4-9.8,2.3
				c0.6,4.8,1.2,8,1.4,9.4c4.2,22,10.8,29.5,15.8,33.4c9,7,12.9,2.4,34,10.2c-2.1-2.6-3.9-5.4-5.3-8.4c-10.9-24.1,8.7-51,25.8-62.6
				c4-2.7,8-4.7,11.8-6.1c0.2-0.8,0.3-1.5,0.5-2.3c2-10.9,0-18.4-3.6-27.1c-4.6-11.3-9.6-10.2-18.3-25.8
				c-7.6-13.5-7.9-16.5-9.1-21.7c-1.7-7.1-2.8-16,0.6-21.2c3.1-4.8,10.2-8.5,21.2-12.1c5.5-1.8,13.6-4.4,23.5-4.6
				c9.8,0.2,18,2.8,23.5,4.6c11,3.6,18.1,7.3,21.2,12.1c3.4,5.2,2.4,14.1,0.6,21.2c-1.2,5.1-1.6,8.2-9.1,21.7
				c-8.7,15.6-13.8,14.4-18.3,25.8c-3.5,8.7-5.6,16.2-3.6,27.1c0.1,0.8,0.3,1.6,0.5,2.3c3.8,1.4,7.8,3.4,11.8,6.1
				c17.2,11.6,36.8,38.5,25.8,62.6c-1.4,3-3.2,5.8-5.3,8.4c21.1-7.9,25-3.3,34-10.2c5-3.9,11.6-11.4,15.8-33.4
				c0.2-1.3,0.9-4.6,1.4-9.4C250.4,178.3,246.9,176.8,244.9,175.9L244.9,175.9z"/>
			<path d="M245.9,175.6c-1.9-0.8-9.9-4.6-16.1-16.9c-9-17.9-6-37.5-5-43.5c2.2-13,6.5-19.9,2.4-28.5c-1.5-3-3.6-5.5-5.4-11.3
				c-1.3-4.3-2.7-9.1-1-14.3c2.3-6.9,8.5-10.2,10.1-11c10.8-5.3,22.8,1,24.8,2c10.7,5.6,9,11.9,19.8,17.9c9.9,5.5,13.4,1.2,21.8,6.3
				c9.9,6,15.6,18.4,15.8,29.5c0.2,13.4-7.8,23.2-11.1,27.2c-11.1,13.5-21.9,12.3-26.5,24.9c-1.1,3.1-2.2,7.7-6.4,12.6
				c-1.7,2-4.6,5.3-9.4,6.6C253.7,178.9,248.5,176.7,245.9,175.6L245.9,175.6z"/>
			<path d="M67,175.6c1.9-0.8,9.9-4.6,16.1-16.9c9-17.9,6-37.5,5-43.4c-2.2-13-6.5-19.9-2.3-28.5c1.5-3,3.6-5.5,5.4-11.3
				c1.3-4.3,2.7-9,1-14.3c-2.3-6.9-8.5-10.2-10.1-10.9c-10.8-5.3-22.8,1-24.8,2c-10.7,5.6-9,11.9-19.8,17.9
				c-9.9,5.5-13.4,1.2-21.8,6.3C5.8,82.4,0.2,94.8,0,105.9c-0.2,13.4,7.8,23.2,11.1,27.2C22.1,146.6,33,145.4,37.5,158
				c1.1,3.1,2.2,7.7,6.4,12.6c1.7,2,4.6,5.3,9.4,6.6C59.2,178.9,64.4,176.7,67,175.6L67,175.6z"/>
			<path class="st0" d="M210.9,164.1l-39.8-7c0.2-0.4,0.5-1.1,0.8-1.9c1.4-4,1.1-7.2,1.1-9.8c0.1-4.3,1.1-7.9,1.7-9.6
				c1.6-4.2,5.5-9.8,12.2-12.1c6.5-2.2,14.1-0.6,19,4c6.6,6,6.1,14.9,5.8,20.5c-0.4,6.9-2.6,12.1-4.2,15.2"/>
			<path class="st0" d="M102,164.1l39.8-7c-0.2-0.4-0.5-1.1-0.8-1.9c-1.4-4-1.1-7.2-1.1-9.8c-0.1-4.3-1.1-7.9-1.7-9.6
				c-1.6-4.2-5.5-9.8-12.2-12.1c-6.5-2.2-14.1-0.6-19,4c-6.6,6-6.1,14.9-5.8,20.5c0.3,6.9,2.6,12.1,4.2,15.2"/>
			<path d="M183,160.2c-10.1-6.8-20.3-9-26.5-9.8c-6.2,0.8-16.4,2.9-26.5,9.8c-17.2,11.6-36.8,38.5-25.8,62.6
				c7.8,17.1,28.5,27.6,51.2,25.6c0.8-0.1,1.5-0.1,2.3,0c22.7,2.1,43.5-8.5,51.2-25.6C219.8,198.7,200.1,171.8,183,160.2L183,160.2z
				 M201.5,219.6c-6.8,14.9-25.2,24.1-45.1,21.9c-19.9,2.2-38.3-7-45.1-21.9c-9.4-20.7,7.5-43.9,22.2-53.9
				c8.7-5.9,17.5-7.7,22.9-8.4c5.4,0.7,14.1,2.5,22.9,8.4C194.1,175.7,211,198.8,201.5,219.6L201.5,219.6z"/>
			<path d="M205.1,149.2c0-7.6-5.9-13.7-13.1-13.7s-13.1,6.1-13.1,13.7c0,0.8-0.4,5.7,2.7,8.4c1,0.8,1.9,1.1,7.5,2.1
				c5.7,1,8.6,1.4,9.6,1.1C202.8,159.3,205.1,153.8,205.1,149.2L205.1,149.2z"/>
			<ellipse class="st0" cx="192" cy="143.9" rx="4" ry="3.8"/>
			<path d="M107.9,149.2c0-7.6,5.8-13.7,13.1-13.7c7.2,0,13.1,6.1,13.1,13.7c0,0.8,0.4,5.7-2.7,8.4c-1,0.8-1.9,1.1-7.5,2.1
				c-5.7,1-8.6,1.4-9.6,1.1C110.2,159.3,108,153.8,107.9,149.2L107.9,149.2z"/>
			<ellipse class="st0" cx="120.8" cy="143.9" rx="4" ry="3.8"/>
			<path d="M167.9,31c-0.1-2.1,0-7.9,3.8-13.7c3.1-4.7,7.2-7.1,9.1-8c-2.1-0.2-5.6-0.2-9.3,1.4c-9.1,4-11.2,14.2-11.4,15.4
				c0.2-3.3,0-9.3-3.4-15.4c-3.9-7-10.6-11.5-11.8-10.5c-1.1,0.9,3.8,6.6,5.4,17.5c0.6,4.4,0.5,8.3-0.2,8.4
				c-0.6,0.1-0.9-3.3-3.6-5.7c-3.8-3.5-10.2-3-10.5-2c-0.2,0.8,3.2,1.2,5.6,4.7c1.6,2.3,2.3,6.2,2.5,8.1c2.2-0.4,4.1-0.7,5.6-0.9
				c2-0.2,3.6-0.4,4.6-0.5c0.4,0,1.2-0.2,2.2-0.2c0.8,0,1.5,0.1,1.9,0.1c2,0.2,1.6,0.1,4.3,0.4C164.2,30.4,166,30.6,167.9,31
				L167.9,31z"/>
		</g>
		<g>
			<path class="st1" d="M185.9,204.9c-0.6,0.9-5.2,8.3-10.7,8.7"/>
			<path class="st2" d="M156.4,199.7c0.1,1.4,0.1,5.8-2.9,9c-2,2.1-4.6,3-6.4,3.7c-2,0.7-5.2,1.5-9.4,1.3c1.6,2.9,4.9,7.5,10.5,10.5
				c2,1.1,4.6,2.5,8.3,2.5s6.3-1.4,8.2-2.5c5.6-3,8.8-7.6,10.5-10.5c-4.2,0.2-7.4-0.6-9.4-1.3c-1.8-0.6-4.5-1.6-6.4-3.7
				C156.3,205.4,156.4,201.1,156.4,199.7"/>
			<path class="st1" d="M127.1,204.9c0.6,0.9,5.2,8.3,10.7,8.7"/>
		</g>
	</g>
</g>
</svg>
