<?xml version="1.0" encoding="utf-8"?>
<!-- Generator: Adobe Illustrator 26.3.1, SVG Export Plug-In . SVG Version: 6.00 Build 0)  -->
<svg version="1.1" id="Layer_1" xmlns="http://www.w3.org/2000/svg" xmlns:xlink="http://www.w3.org/1999/xlink" x="0px" y="0px"
	 viewBox="0 0 311.6 443.4" style="enable-background:new 0 0 311.6 443.4;" xml:space="preserve">
<style type="text/css">
	.st0{fill:#FFFFFF;stroke:#000000;stroke-miterlimit:10;}
	.st1{fill:#404040;}
	.st2{fill:#BFBFBF;}
	.st3{fill:#FFFFFF;}
</style>
<path d="M0,338.6c10.1-6.5,21.3-11.3,33-14.1c17.5-4.4,34.9-4.1,52.3,0.2c4.2,1,5.4-0.1,6-4.2c4.7-31.4,11.5-62.5,20.5-93
	c2.2-7.4,5.3-14.6,8.2-22.3c-2.4-0.8-4.6-1.4-6.8-2.1c-19.2-5.9-37-14.9-54-25.3c-2.8-1.7-3.7-3.6-2.8-6.5c1.3-4,2.8-8,4.2-12.4
	l-16.2-0.8l-1.1-1.5L55,139.5l-13.7-12.1c5.2-3.6,10.2-5.9,13.8-9.6c4.2-4.4,7.7-9.4,10.5-14.7c3.6-6.7,6.2-13.9,9.3-20.8
	C60.1,75,54.7,67.4,56.1,55.6c1.1-9.5,8.6-17.7,18.5-20s20.1,1.5,25,9.2l-1.7,2.5L85,66.7c1.9,0.1,3.8,0.1,5.7,0
	c15.2-1.3,27.5,4.5,35.5,16.9c6.6,10.2,11.4,21.7,16.5,32.8c5.3,11.6,9.6,23.7,15.2,35.2c3.1,6.1,6.9,11.7,11.4,16.8
	c4.9,5.7,10,5.8,14.9,0.1c4.8-5.3,8.8-11.3,11.9-17.7c7-15.4,12.8-31.4,19.7-46.9c3.5-8.3,7.8-16.1,12.9-23.5
	c10.6-14.7,23-18.2,40.2-12.7c0.9,0.4,2,0.3,2.9-0.1c-2.9-3.9-5.8-7.9-8.8-11.7s-6.2-7.3-9.3-11c4.6-7.5,14.1-11.4,23.4-9.8
	c10,1.7,18,9,19.7,18.7c2.3,13.3-4.4,21.8-16,27.3c7.8,16.5,10.5,35.9,30.6,45.1l-14.9,13.2l11.6,16.6l-1,1.7l-14.9,0.9
	c1,3.9,2,7.7,3,11.5s-0.3,6-3.7,8.1c-17.8,10.6-36.2,19.7-56.2,25.4c-1.3,0.4-2.5,0.9-3.8,1.5c2.9,10.6,6,20.9,8.4,31.4
	c3.7,16.4,6.8,32.9,10.3,49.3c0.9,4.4,2.5,8.6,3.4,13c7.7,38.4-12.4,66.5-51.3,71.3c-31.4,3.9-60.7-3.9-89-16.7
	c-28.8-13.1-32.2-14.4-49.7-17.6C37.9,331.2,15.3,334.7,0,338.6z M221.9,207.4c-30.7,6.5-61.1,6.1-91.7,0.7
	c-0.1,2.1-0.3,3.6-0.3,5.1c0.1,18.5,3.3,36.3,12.1,52.9c12.5,23.5,20.9,48.2,20,75.3c0,1.2,2.1,3.4,3.3,3.5
	c6.8,0.5,13.6,0.5,20.4,0.8c3.5,0.1,4.2-1.6,4.4-4.9c0.5-9.8,1-19.6,2.6-29.2c2.9-17.5,10.8-33.2,18.8-48.7
	C220.3,245.5,222.8,227.2,221.9,207.4z"/>
<path d="M0.3,343c14-1.9,28.2,1.1,40.1,8.6c10.9,6.5,21.3,13.6,31.2,21.4c19.5,15.5,39.7,29.6,63.6,37.6c25.8,8.8,53.7,9.4,79.9,1.9
	c36.7-10.2,54.6-41.9,56.4-72c0.6-9.5-0.5-19.2,0-29.4c3.2,7.1,7.5,13.9,9.5,21.3c9,33-0.4,60.5-25.5,83.3
	c-20.5,18.6-45.4,25.4-72.2,27.3c-53.1,3.8-96-15.9-130.3-55.9c-3.8-4.4-7.5-8.9-11.2-13.4C30.5,360.1,19.3,346.4,0.3,343z"/>
<circle class="st0" cx="134.2" cy="158.8" r="15.5"/>
<circle class="st0" cx="221.5" cy="158.8" r="15.5"/>
<circle cx="137.8" cy="162.4" r="3.6"/>
<circle cx="217.9" cy="162.4" r="3.6"/>
<path d="M271.3,67c-2.4-3.3-5.6-7.6-8.1-10.8c-0.9-1.1,0.7,0.6-8.7-10.3"/>
<path class="st1" d="M168.1,186.1c-0.2,6.4,4.8,11.6,10.6,11.6s10.6-5.3,10.4-11.6l-1-0.4c-6.2-1.8-12.7-1.8-18.9,0
	C168.7,185.9,168.3,186,168.1,186.1z"/>
<ellipse transform="matrix(0.63 -0.7766 0.7766 0.63 -80.9328 213.5431)" class="st2" cx="183.6" cy="191.7" rx="3" ry="1.7"/>
<path d="M178.5,0c-0.9,1-14.3,8.9-17.6,11.3c0,0-4,2.9-16.3,6.3c-1.1,0.4-2.3,0.4-3.4-0.1c-1.1-0.6-1.2-1.7-1.9-2.2
	c-2.6-2.2-10.9,4.5-10.9,4.5c-9.8,7.9-17.8,12.7-28.9,25.1L92.8,55L89,60.7l-4,6c0.6,0.1,1.2,0.1,1.8,0.1c0.4-0.2,0.9-0.4,1.3-0.7
	c0.5-0.2,10.7-7.7,10.7-7.7s9.1-12,29.4-21.6c19.7-9.3,40.9-11.4,50.3-11.3c17.2,0.3,34.2,4.2,49.8,11.4
	c20.3,9.6,29.5,27.7,38.5,30.8c0.8,0.3,1.8,0.6,2.2,0.7c0.5,0.1,1.1,0.2,1.6,0.2c0.4-0.1,0.9-0.2,1.3-0.3l-5.4-7.3l-4.2-5.5
	l-8.5-9.9c-11.1-12.4-15.9-17.9-25.8-25.8c0,0-8.3-6.8-10.9-4.5c-0.6,0.5-0.7,1.6-1.9,2.2c-1.1,0.5-2.3,0.5-3.4,0.1
	c-12.3-3.4-16.3-6.3-16.3-6.3C192.3,8.9,179.4,1,178.5,0z"/>
<path class="st3" d="M268.9,68.2c0,0,0.5,0.1,0.9,0.2h-0.2C269.4,68.4,269.1,68.3,268.9,68.2l-0.7-0.2l0,0l-0.7-0.2l-1.4-0.4
	l-1.9-0.4c-2.1-0.5-4.1-0.8-6.2-1c-2.4-0.2-4.9-0.2-7.3,0.1c-4.7,0.6-9.1,2.5-12.9,5.3c-3.5,2.7-6.6,5.9-9.1,9.5
	c-4,5.4-7.5,11.3-12.9,23.5c-2.6,5.8-4.6,10.6-7.6,18.2c-2.4,5.9-4.1,10.3-6,14.8c-0.4,0.9-2.4,5.4-3.6,8.5
	c-0.1,0.2-0.3,0.7-0.6,1.4c-0.4,1-1.1,2.5-1.9,4.1c-1.2,2.6-2.6,5.1-4.2,7.5c-1.1,1.6-2.3,3.2-4.7,6.4c-1,1.3-2,2.5-3.1,3.7
	c-0.9,1.2-2.1,2.2-3.4,3c-1.4,0.9-3.1,1.3-4.8,1.1c-3.7-0.5-6.7-4.3-6.7-4.3l0,0c0,0-3.7-4.4-6.5-8.3c-1.9-2.7-3.5-5.5-5-8.5
	c-6.5-12.9-9.5-23-15.2-35.2c-0.6-1.4-2.2-4.7-4.4-9.5c-2-4.5-2.1-4.9-3.2-7.1c-1.8-4-3.8-7.8-6.1-11.5c-3.6-5.7-7-12.4-17.3-18
	c-6.1-3.3-14-4.1-18.6-3.8c-1.1,0.2-2.1,0.3-3.2,0.3c-1.1,0-2.2,0-3.4-0.1c2.2-1.5,4.4-3,6.7-4.7c1.9-1.4,3.8-2.8,5.6-4.2
	c0.4-0.6,1.4-1.6,2.2-2.6c1.3-1.5,2.7-2.9,4.3-4.1c2.1-1.8,3.1-2.6,3.6-3c2.8-2.2,5.6-4.2,8.6-6.1c5.9-3.7,12.1-6.8,18.6-9.2
	c1.1-0.4,4.9-1.8,10.2-3.3c6.4-1.8,17.6-5,32.4-4.7c8.3,0.2,16.6,1.1,24.7,2.9c4.9,1.1,9.7,2.4,14.5,4.1c3.6,1.2,7.2,2.7,10.6,4.4
	c5.6,2.8,10.8,6.3,15.6,10.3c2.5,2.1,4.9,4.3,7.2,6.7c0.8,0.8,10,10.5,13,12.4c0.9,0.5,1.8,1,2.7,1.4"/>
<path class="st3" d="M167.8,345c-3.2,0.6-5.8-2.1-5.8-3.7c0.2-0.7,0.2-1.5,0.1-2.2l0,0c0-5.8-0.3-11.6-1-17.4
	c0.3-3.4-5.4-29.5-14.1-45.8c-1-2-3-5.4-5.6-10.9c-3.4-7.3-5.6-13.3-6.3-15.1c-5.4-15.5-5.1-37.2-4.9-41.7
	c14.4,2.7,29.1,4.1,43.7,4.1c16.1,0,32.2-1.6,48-4.8c0.2,4.4,0.2,8.1,0.1,10.6c-0.1,4-0.4,9.5-0.5,9.6l0,0c-0.3,2.5-0.6,5.1-1.1,7.8
	c-0.3,1.9-0.7,3.7-1.1,5.4c-0.5,2.3-1.1,4.2-1.5,5.7c-0.3,1.3-0.7,2.5-1.2,3.7c-0.4,1.1-1,3-2,5.5c-0.9,2.1-2,4.6-3.4,7.4l0,0
	c-0.2,0.4-2.4,4.6-2.9,5.7c-0.1,0.2-2.7,4.9-3.1,5.9c-0.8,1.8-1.4,2.8-3.6,8.2c-3.7,9-6.3,15.3-8.1,23.6c-1.3,6-1.7,10.6-2.5,19.9
	c-0.5,5.6-0.7,10.3-0.8,13.6c0,0.8,0,1.7-0.2,2.5c-0.1,0.8-0.5,1.6-1.1,2.2c-0.8,0.7-1.7,0.8-3.2,0.9c-0.8,0.1-1.7,0-2.5-0.1"/>
</svg>
