<?xml version="1.0" standalone="no"?>
<!DOCTYPE svg PUBLIC "-//W3C//DTD SVG 20010904//EN"
 "http://www.w3.org/TR/2001/REC-SVG-20010904/DTD/svg10.dtd">
<svg version="1.0" xmlns="http://www.w3.org/2000/svg"
 width="1282.000000pt" height="1282.000000pt" viewBox="0 0 1282.000000 1282.000000"
 preserveAspectRatio="xMidYMid meet">
<metadata>
Created by potrace 1.14, written by Peter Selinger 2001-2017
</metadata>
<g transform="translate(0.000000,1282.000000) scale(0.100000,-0.100000)"
fill="#000000" stroke="none">
<path d="M4251 10999 c-67 -22 -72 -25 -131 -79 -76 -70 -74 -178 4 -242 26
-20 99 -45 184 -61 73 -14 78 -22 68 -120 -12 -113 -15 -123 -97 -293 -24 -49
-44 -91 -44 -94 -7 -36 -332 -673 -346 -678 -5 -2 -9 -12 -9 -23 0 -10 -4 -19
-10 -19 -5 0 -10 -5 -10 -11 0 -14 -258 -391 -272 -397 -5 -2 -8 -7 -8 -12 0
-9 -77 -126 -97 -148 -7 -7 -13 -17 -13 -21 0 -4 -11 -21 -25 -37 -14 -16 -25
-33 -25 -38 0 -5 -16 -31 -35 -57 -19 -27 -35 -52 -35 -55 0 -3 -8 -18 -19
-32 -46 -67 -186 -364 -182 -387 1 -3 -5 -20 -13 -38 -13 -32 -32 -108 -43
-172 -3 -16 -9 -50 -13 -75 -9 -48 -6 -221 5 -280 11 -62 27 -104 55 -147 l28
-41 -48 -16 c-27 -9 -61 -21 -77 -28 -15 -6 -30 -12 -33 -13 -3 -1 -18 -7 -33
-13 -16 -7 -30 -12 -32 -12 -17 0 -343 -158 -350 -170 -3 -6 -11 -8 -16 -5 -5
4 -9 1 -9 -4 0 -6 -4 -11 -9 -11 -5 0 -82 -42 -172 -92 -90 -51 -167 -92 -171
-91 -5 2 -8 -1 -8 -6 0 -5 -13 -14 -30 -21 -16 -7 -30 -17 -30 -23 0 -6 -3 -8
-6 -4 -3 3 -40 -14 -81 -39 -41 -24 -77 -44 -80 -44 -17 0 -324 -223 -331
-242 -2 -4 -8 -8 -14 -8 -5 0 -15 -6 -23 -12 -7 -7 -28 -25 -46 -41 -116 -95
-257 -217 -321 -279 -16 -16 -31 -28 -33 -28 -5 0 -148 -144 -190 -191 -17
-19 -62 -73 -100 -121 -38 -49 -73 -88 -77 -88 -4 0 -8 -6 -8 -14 0 -8 -4 -16
-8 -18 -29 -11 -238 -321 -302 -447 -33 -67 -109 -184 -122 -189 -5 -2 -8 -8
-8 -12 0 -5 -18 -48 -40 -95 -22 -47 -40 -88 -40 -90 0 -2 -4 -14 -9 -27 -5
-13 -9 -26 -10 -31 0 -4 -8 -21 -17 -38 -8 -17 -17 -38 -19 -47 -3 -10 -20
-64 -40 -122 -32 -96 -73 -233 -80 -270 -2 -8 -4 -15 -5 -15 -2 0 -5 -15 -13
-55 -3 -14 -10 -45 -17 -70 -7 -25 -14 -54 -16 -65 -2 -11 -13 -65 -24 -120
-24 -121 -28 -147 -36 -205 -3 -25 -7 -56 -10 -70 -25 -153 -26 -621 -1 -690
3 -8 8 -31 11 -50 5 -34 12 -68 23 -100 2 -8 4 -15 3 -15 -2 0 37 -99 57 -145
30 -69 67 -145 83 -170 9 -14 30 -45 46 -70 16 -25 32 -46 37 -48 4 -2 7 -10
7 -17 0 -7 4 -15 8 -17 5 -1 22 -23 39 -48 39 -56 66 -86 153 -175 75 -77 78
-80 176 -157 38 -29 70 -56 72 -60 2 -5 8 -8 13 -8 5 0 33 -15 62 -33 28 -18
61 -38 72 -45 35 -22 160 -77 160 -71 0 1 11 -4 25 -11 14 -8 31 -15 38 -16 8
-1 21 -6 30 -10 46 -20 157 -47 242 -58 19 -3 45 -8 58 -10 110 -23 468 -24
627 -1 143 21 225 38 225 47 0 5 5 6 10 3 6 -4 43 3 83 15 40 12 77 23 82 25
6 1 17 5 25 8 8 3 49 18 90 32 41 15 91 36 110 45 19 10 100 50 180 89 80 39
152 76 160 81 8 5 74 43 145 86 72 42 155 94 187 115 31 21 61 39 66 39 6 0
12 4 14 8 2 4 41 34 88 67 47 33 108 77 135 98 28 21 66 51 85 65 51 39 194
155 200 161 3 4 39 35 80 71 248 216 756 734 951 971 20 24 52 62 70 85 19 22
45 56 59 74 14 18 30 38 35 44 6 7 21 27 34 46 14 19 30 39 38 43 7 4 13 13
13 19 0 19 48 68 53 54 11 -28 160 -215 224 -281 57 -60 164 -155 224 -198 46
-35 79 -57 83 -57 7 0 239 -157 261 -177 52 -47 173 -104 320 -150 61 -19 117
-37 125 -40 19 -8 17 -7 65 -17 22 -4 44 -11 50 -14 5 -3 16 -7 25 -8 30 -3
92 -14 99 -18 3 -2 35 -7 71 -11 36 -4 74 -9 85 -11 27 -6 97 -14 170 -20 33
-2 87 -6 120 -9 275 -21 732 -21 955 0 30 3 78 7 105 10 50 5 108 12 155 19
90 13 120 18 158 27 23 5 59 12 80 15 20 3 40 8 43 10 3 2 21 6 40 9 49 8 208
49 329 85 131 38 110 32 212 64 48 16 90 27 94 26 4 -1 10 2 13 7 3 4 44 21
91 36 242 81 481 178 640 260 145 75 224 120 232 131 4 6 8 8 8 4 0 -3 41 18
90 48 50 30 95 54 100 54 6 0 10 4 10 8 0 4 12 13 28 20 15 6 41 21 57 32 17
11 37 23 45 27 32 15 299 188 380 246 103 75 106 77 135 103 12 11 35 31 51
43 145 114 414 386 564 571 19 24 40 48 46 54 29 30 237 320 281 392 35 58
108 183 122 209 9 17 19 32 24 33 4 2 7 12 7 22 0 10 3 20 8 22 11 5 132 244
132 262 0 8 4 16 8 18 24 9 202 477 247 648 9 36 19 72 22 80 7 17 9 25 17 63
12 57 16 73 22 97 3 14 7 39 9 55 2 17 4 30 5 30 3 0 18 95 25 165 2 14 4 25
5 25 5 0 12 143 13 280 1 146 -5 258 -16 310 -3 11 -8 43 -11 70 -4 28 -9 57
-11 65 -2 8 -6 26 -9 40 -10 48 -14 68 -35 136 -11 38 -21 72 -21 76 0 4 -9
28 -20 53 -11 25 -20 47 -20 50 -1 9 -13 40 -30 80 -10 22 -25 58 -34 80 -10
22 -29 60 -44 85 -14 25 -27 47 -27 50 -1 6 -29 52 -56 92 -11 15 -19 30 -19
33 0 3 -16 28 -35 55 -19 27 -35 54 -35 60 0 5 -4 10 -10 10 -5 0 -10 6 -10
13 0 7 -9 23 -20 35 -11 12 -20 24 -20 27 0 4 -42 68 -93 143 -141 206 -161
236 -172 248 -6 6 -31 39 -55 74 -25 34 -57 75 -72 91 -16 17 -28 32 -28 36 0
11 -142 165 -250 273 -107 106 -149 144 -210 190 -18 14 -38 30 -44 35 -80 71
-462 315 -494 315 -6 0 -12 4 -14 8 -3 8 -302 157 -368 184 -14 6 -33 14 -42
19 -10 5 -27 9 -37 9 -11 0 -22 4 -25 9 -5 7 -118 47 -124 43 -1 -2 -15 4 -30
11 -21 11 -146 48 -207 62 -5 1 -21 5 -35 8 -14 4 -37 9 -52 12 -45 8 -81 15
-108 20 -48 10 -65 13 -110 19 -25 3 -56 8 -70 11 -128 25 -660 26 -797 1 -10
-2 -49 -7 -88 -11 -85 -10 -91 -11 -135 -20 -19 -4 -46 -9 -60 -10 -14 -2 -25
-4 -25 -5 0 -1 -13 -4 -30 -6 -217 -34 -535 -164 -705 -288 -77 -56 -213 -196
-235 -242 -64 -132 22 -258 168 -246 29 2 219 76 355 138 39 18 72 31 72 28 0
-3 10 2 22 10 12 9 29 16 37 16 8 0 22 7 31 15 9 8 25 16 36 18 10 1 45 15 77
30 58 26 222 85 257 92 9 2 60 12 111 23 52 11 118 23 147 26 29 3 63 8 75 11
12 3 66 7 119 9 53 2 101 7 107 11 6 3 11 3 11 -2 0 -4 15 -8 34 -8 19 0 32 4
29 9 -4 5 -1 6 6 1 7 -4 63 -9 124 -10 116 -4 209 -10 287 -20 25 -3 61 -8 80
-10 175 -21 282 -50 445 -117 70 -29 98 -41 105 -43 3 -1 19 -7 35 -14 17 -6
73 -28 125 -48 54 -20 134 -62 185 -96 110 -74 318 -219 325 -227 3 -3 21 -17
40 -30 142 -97 433 -365 547 -502 28 -35 60 -72 70 -83 10 -11 29 -36 43 -55
13 -19 27 -37 30 -40 16 -13 140 -191 140 -200 0 -5 3 -10 8 -10 4 0 23 -27
42 -60 19 -33 38 -60 43 -60 4 0 7 -5 7 -11 0 -6 14 -32 31 -57 17 -25 35 -55
40 -66 5 -12 20 -39 34 -61 36 -58 165 -321 170 -345 1 -3 11 -36 23 -74 12
-37 24 -78 26 -90 3 -11 12 -55 21 -96 37 -169 49 -277 49 -445 -1 -111 -9
-253 -18 -300 -2 -11 -12 -60 -21 -110 -9 -49 -18 -94 -20 -100 -1 -5 -6 -29
-10 -52 -4 -24 -12 -43 -17 -43 -5 0 -7 -4 -4 -8 6 -10 -71 -262 -85 -277 -5
-5 -9 -19 -9 -30 0 -12 -3 -25 -7 -29 -5 -4 -8 -11 -9 -14 0 -4 -8 -24 -17
-46 -9 -21 -17 -40 -17 -41 0 -11 -108 -228 -154 -309 -31 -54 -56 -102 -56
-107 0 -5 -4 -9 -10 -9 -5 0 -10 -6 -10 -14 0 -8 -6 -21 -14 -28 -7 -8 -17
-24 -20 -36 -4 -12 -12 -22 -17 -22 -5 0 -9 -5 -9 -10 0 -6 -16 -36 -35 -66
-19 -30 -35 -56 -35 -59 0 -16 -291 -436 -329 -474 -9 -9 -27 -31 -39 -48 -13
-18 -35 -45 -50 -61 -15 -15 -54 -57 -88 -92 -79 -85 -208 -206 -264 -250 -25
-19 -49 -40 -55 -46 -12 -13 -197 -145 -275 -195 -163 -106 -206 -133 -322
-203 -70 -42 -132 -76 -138 -76 -5 0 -10 -3 -10 -7 0 -5 -10 -13 -23 -19 -12
-6 -88 -45 -168 -87 -81 -42 -149 -73 -153 -70 -3 4 -6 2 -6 -4 0 -6 -21 -18
-47 -28 -27 -10 -75 -31 -108 -46 -33 -15 -78 -34 -100 -42 -22 -8 -73 -26
-113 -41 -40 -15 -81 -29 -90 -31 -15 -4 -160 -47 -452 -135 -96 -29 -348 -92
-411 -104 -14 -2 -73 -13 -130 -25 -57 -11 -120 -23 -139 -26 -196 -28 -253
-36 -300 -41 -30 -3 -66 -7 -80 -10 -142 -23 -642 -23 -780 0 -14 3 -43 7 -65
10 -82 11 -121 17 -165 27 -41 9 -56 12 -116 24 -50 11 -230 67 -256 81 -15 8
-28 12 -28 10 0 -5 -38 10 -160 61 -93 39 -253 123 -320 167 -71 47 -267 234
-337 323 -67 83 -163 233 -163 253 0 5 20 40 44 77 97 150 236 404 390 713 89
179 163 328 164 333 1 4 15 37 32 73 16 37 30 72 30 78 0 7 4 16 9 21 17 19
169 415 186 487 2 9 9 26 15 37 6 12 9 21 6 21 -2 0 7 33 21 73 13 39 26 79
28 87 2 8 13 44 24 79 12 36 23 76 26 90 3 14 9 41 14 59 5 18 10 35 10 37 1
3 1 6 2 8 0 1 2 13 3 27 4 30 15 97 21 126 3 12 7 39 11 60 3 21 8 42 10 45 2
3 6 21 9 40 8 40 13 62 15 69 1 3 2 8 2 11 -1 4 3 22 9 40 6 19 12 45 15 58 3
13 12 51 20 85 8 34 17 70 19 81 24 108 26 114 48 109 26 -5 103 -12 217 -19
185 -13 255 -20 407 -45 86 -14 108 -18 108 -20 0 -2 14 -4 75 -15 19 -3 76
-17 125 -32 50 -14 97 -27 105 -28 8 -2 15 -4 15 -5 0 -1 7 -3 15 -5 31 -7
196 -68 249 -93 31 -14 58 -26 61 -27 19 -6 71 -30 156 -70 152 -72 209 -99
214 -100 3 -1 19 -7 35 -14 51 -22 135 -50 135 -46 0 3 12 0 28 -6 42 -17 134
-14 173 6 82 41 122 103 122 185 0 76 -23 122 -95 192 -52 51 -86 72 -215 134
-84 41 -155 74 -157 74 -2 0 -46 20 -98 44 -227 106 -401 176 -473 192 -5 1
-53 11 -105 22 -107 24 -140 30 -190 38 -19 3 -42 7 -50 10 -8 3 -26 8 -40 10
-14 3 -41 9 -60 14 -53 14 -104 22 -210 35 -14 2 -47 6 -75 10 -27 3 -72 8
-100 10 -27 2 -50 4 -50 5 0 1 -18 3 -40 5 -231 19 -218 15 -210 48 3 12 7 33
9 47 2 14 9 45 16 70 7 25 13 52 15 60 2 8 8 33 13 55 6 22 13 51 16 65 2 14
7 43 11 65 4 22 9 49 11 60 2 11 7 40 10 65 3 25 8 53 10 63 3 10 7 32 9 50 2
18 9 64 15 102 7 39 14 79 15 90 2 11 9 45 15 75 6 30 13 71 16 90 3 19 7 42
9 50 3 8 7 33 10 55 3 22 8 51 11 65 3 14 8 35 10 48 2 12 6 34 9 50 3 15 8
42 11 61 6 36 11 60 19 101 2 14 7 37 10 53 8 42 15 77 25 132 5 28 12 64 15
80 4 28 7 41 20 105 2 14 7 39 11 55 3 17 7 39 8 50 3 27 21 128 31 175 3 14
7 43 10 65 4 22 8 51 10 65 5 33 19 181 19 200 0 40 -17 106 -38 149 -53 104
-191 142 -346 95 -28 -8 -164 -78 -183 -94 -7 -5 -37 -29 -67 -51 -98 -74
-210 -179 -435 -405 -121 -121 -242 -238 -270 -260 -27 -21 -52 -41 -55 -44
-3 -3 -30 -25 -60 -50 -30 -25 -66 -55 -80 -67 -42 -37 -66 -57 -105 -88 -20
-16 -49 -41 -64 -55 -15 -14 -58 -52 -96 -85 -82 -71 -152 -135 -210 -190
-115 -109 -177 -166 -245 -225 -41 -36 -87 -76 -101 -90 -14 -14 -44 -40 -67
-58 -23 -19 -52 -44 -65 -55 -28 -26 -161 -144 -191 -170 -61 -54 -176 -158
-217 -197 -115 -110 -252 -230 -263 -230 -20 0 -167 -116 -270 -213 -208 -195
-226 -211 -226 -193 0 14 46 133 96 246 64 145 206 416 314 598 63 106 126
214 140 240 13 26 28 49 31 52 4 3 9 12 11 20 2 8 9 21 16 28 7 8 10 17 7 22
-3 4 2 13 10 20 8 7 15 18 15 25 0 8 3 15 8 17 4 2 22 32 40 68 17 36 52 101
76 145 25 44 60 109 78 145 18 36 35 67 38 70 3 3 27 48 53 100 27 52 71 136
97 185 26 50 63 119 81 155 19 36 37 67 42 68 4 2 7 10 7 17 0 8 5 26 11 42 6
15 10 29 10 30 0 2 6 22 15 45 8 23 16 53 19 67 2 14 7 42 12 61 9 43 8 244
-1 285 -19 83 -55 176 -89 229 -18 30 -78 89 -110 109 -77 49 -199 59 -306 26z
m2400 -1012 c-6 -34 -13 -73 -16 -87 -2 -13 -7 -42 -10 -65 -3 -22 -8 -47 -10
-55 -2 -8 -6 -31 -9 -50 -3 -19 -8 -45 -10 -56 -2 -12 -7 -37 -10 -55 -3 -19
-8 -45 -11 -59 -3 -14 -7 -38 -10 -55 -2 -16 -9 -55 -15 -85 -16 -76 -38 -197
-55 -295 -2 -16 -7 -39 -9 -50 -6 -33 -19 -108 -22 -135 -6 -47 -15 -105 -20
-130 -7 -36 -11 -60 -18 -110 -4 -25 -8 -52 -11 -60 -3 -8 -7 -31 -9 -50 -3
-19 -7 -45 -10 -56 -2 -12 -7 -39 -10 -60 -3 -22 -8 -50 -11 -64 -18 -94 -23
-123 -30 -165 -3 -16 -7 -41 -10 -55 -3 -14 -7 -36 -10 -50 -10 -71 -17 -95
-28 -102 -12 -8 -75 -27 -112 -34 -11 -2 -31 -6 -45 -8 -37 -7 -128 -18 -180
-21 -25 -2 -88 -6 -140 -10 -90 -6 -177 -10 -490 -19 -74 -3 -135 -5 -135 -6
0 0 -42 -2 -93 -5 -111 -5 -258 -20 -291 -29 -9 -3 -32 -7 -51 -10 -19 -3 -46
-8 -60 -11 -14 -4 -38 -9 -54 -11 -16 -3 -106 -26 -200 -50 -94 -24 -182 -47
-195 -50 -14 -3 -28 -7 -33 -10 -4 -3 -16 -7 -25 -9 -10 -1 -52 -13 -93 -26
-41 -13 -78 -24 -82 -25 -5 -1 -10 -3 -13 -4 -3 -1 -9 -3 -14 -4 -5 0 -13 -4
-17 -8 -4 -5 -14 -8 -23 -8 -18 0 47 59 66 60 6 0 13 3 15 8 2 4 24 24 49 44
26 21 71 60 100 88 136 129 167 158 212 195 26 22 69 60 95 83 26 24 64 58 85
75 21 18 55 48 76 67 21 19 82 76 136 125 54 50 114 105 134 124 32 29 158
146 306 283 75 69 105 97 179 163 37 33 82 74 100 90 18 17 61 55 96 85 58 49
157 137 186 164 7 6 31 27 55 46 23 19 50 42 58 51 9 8 43 37 76 65 32 27 66
56 75 64 9 8 42 38 75 65 32 28 95 82 140 120 164 142 197 169 218 184 12 8
24 18 27 22 17 22 146 117 148 108 2 -5 -1 -38 -7 -72z m-441 -2409 c0 -7 -52
-220 -116 -473 -63 -253 -117 -471 -120 -484 -3 -13 -9 -32 -15 -43 -5 -10 -7
-18 -3 -18 3 0 2 -6 -3 -12 -6 -7 -16 -29 -23 -48 -84 -238 -132 -377 -133
-387 0 -7 -4 -13 -9 -13 -5 0 -6 -5 -3 -10 4 -6 2 -16 -3 -23 -5 -7 -18 -37
-30 -67 -11 -30 -32 -81 -46 -112 -14 -31 -26 -59 -26 -61 0 -2 -14 -35 -32
-73 -17 -38 -32 -71 -33 -74 0 -6 -108 -229 -145 -300 -16 -30 -53 -104 -84
-164 -31 -59 -56 -104 -57 -100 0 5 -3 18 -5 29 -24 102 -23 482 1 606 3 14 6
40 8 57 2 18 7 35 10 39 4 3 7 12 7 20 0 16 50 122 84 178 56 91 73 136 72
189 -2 70 -22 108 -73 141 -123 77 -316 -3 -398 -165 -20 -40 -59 -179 -70
-250 -2 -14 -8 -45 -14 -70 -5 -25 -13 -67 -16 -95 -4 -27 -8 -57 -11 -65 -4
-17 -14 -91 -19 -155 -5 -59 -6 -274 -1 -315 3 -19 7 -57 11 -85 9 -83 11 -94
41 -217 2 -10 6 -26 8 -35 2 -10 19 -63 37 -118 18 -55 33 -102 34 -105 1 -3
7 -18 14 -34 11 -26 7 -34 -46 -115 -31 -47 -61 -87 -65 -89 -4 -2 -8 -8 -8
-14 0 -6 -10 -22 -22 -37 -13 -15 -32 -40 -43 -55 -11 -15 -29 -38 -40 -50
-11 -12 -41 -47 -66 -77 -26 -30 -57 -66 -70 -80 -28 -30 -58 -64 -149 -168
-36 -41 -72 -82 -80 -91 -8 -9 -39 -43 -68 -76 -61 -67 -217 -237 -247 -269
-11 -12 -45 -50 -75 -85 -85 -100 -199 -208 -273 -259 -12 -8 -35 -28 -52 -43
-16 -15 -33 -28 -37 -28 -3 0 -24 -15 -45 -32 -22 -18 -52 -42 -67 -53 -15
-11 -36 -27 -46 -35 -42 -34 -58 -47 -105 -80 -28 -19 -56 -40 -63 -47 -8 -7
-35 -27 -60 -45 -26 -18 -52 -37 -58 -43 -7 -5 -24 -19 -40 -30 -15 -11 -47
-35 -71 -52 -24 -18 -47 -33 -51 -33 -5 0 -17 -8 -28 -18 -32 -30 -145 -96
-304 -178 -52 -27 -96 -52 -98 -56 -2 -5 -12 -8 -22 -8 -9 0 -23 -7 -30 -15
-7 -8 -18 -15 -25 -15 -6 0 -34 -11 -60 -25 -62 -33 -280 -93 -440 -120 -16
-3 -40 -7 -53 -9 -168 -34 -552 -20 -698 25 -17 5 -40 11 -50 13 -64 13 -218
85 -283 133 -321 234 -520 569 -566 948 -2 22 -8 65 -11 95 -13 97 -7 381 10
470 2 14 8 48 12 75 4 28 9 57 11 65 2 8 5 24 7 35 2 11 9 43 16 70 6 28 14
61 16 75 3 14 8 34 11 45 4 11 8 25 9 30 17 91 107 357 166 495 34 79 93 205
98 210 3 3 11 18 19 35 20 46 152 264 188 311 17 23 29 45 26 48 -4 3 -2 6 4
6 6 0 23 19 38 43 110 168 390 468 600 642 33 28 66 56 74 63 8 8 39 32 70 55
31 23 58 45 59 50 2 4 8 7 14 7 5 0 16 6 23 13 36 32 56 47 150 114 55 40 105
76 110 80 15 12 146 93 150 93 2 0 23 13 47 28 24 15 61 37 83 47 22 11 42 23
45 27 3 4 82 44 175 88 225 108 216 104 330 150 55 23 109 45 120 50 46 20
329 123 345 125 3 0 10 3 15 6 6 4 87 30 180 58 94 28 184 55 200 60 38 12
116 34 132 37 7 1 34 9 60 18 26 8 59 17 73 20 14 2 59 13 100 24 41 12 86 23
100 25 14 3 43 10 65 15 22 6 51 13 65 16 14 3 36 7 50 10 46 10 75 16 110 21
19 3 42 8 50 10 8 3 33 7 55 10 22 3 49 7 61 9 12 2 45 7 74 11 29 4 62 9 74
11 12 2 44 6 71 9 28 4 62 8 76 10 14 3 52 8 85 11 32 3 73 8 89 10 17 2 59 6
95 9 36 3 81 7 100 10 43 5 129 15 191 20 26 2 60 6 75 9 16 2 67 8 114 11 47
4 93 9 103 11 10 1 73 6 140 9 67 3 123 8 126 11 9 8 21 4 21 -8z"/>
<path d="M9555 9671 c-86 -39 -148 -149 -160 -286 -3 -27 -7 -70 -10 -95 -3
-25 -7 -74 -10 -110 -6 -78 -13 -163 -21 -245 -3 -33 -7 -78 -9 -100 -2 -36
-12 -137 -21 -220 -1 -16 -3 -30 -4 -30 0 0 -3 -22 -5 -50 -4 -45 -8 -79 -20
-170 -10 -76 -15 -126 -20 -195 -3 -41 -8 -106 -10 -145 -6 -76 -14 -203 -20
-305 -2 -36 -7 -114 -10 -175 -4 -60 -8 -146 -9 -190 -1 -44 -5 -86 -9 -92 -5
-8 -3 -13 3 -13 6 0 9 -4 6 -8 -6 -10 -9 -228 -3 -262 19 -115 59 -189 116
-212 33 -13 120 -18 127 -6 3 4 14 8 24 8 10 0 25 7 34 15 8 8 18 15 21 15 13
0 47 46 70 96 29 64 33 98 51 444 2 52 7 131 9 175 3 44 7 116 10 160 8 157
21 341 31 420 3 27 7 63 9 80 3 31 23 171 31 215 10 58 15 89 19 121 4 39 13
100 20 138 2 14 9 58 15 96 6 39 13 84 16 100 3 17 7 46 9 65 2 19 6 44 8 55
3 11 8 42 11 68 4 27 9 59 12 70 2 12 6 40 9 62 2 22 6 49 9 61 18 87 27 244
13 244 -5 0 -6 3 -3 8 2 4 -2 22 -9 40 -8 18 -15 36 -15 40 -2 16 -77 83 -115
103 -56 30 -148 34 -200 10z"/>
</g>
</svg>
